<svg width="24" height="24" viewBox="0 0 24 24" fill="none" xmlns="http://www.w3.org/2000/svg">
<path fill-rule="evenodd" clip-rule="evenodd" d="M8.90741 4.55323C8.35961 4.00542 7.53281 3.84774 6.82184 4.15547C4.30132 5.24644 3.28204 7.82985 4.56011 9.86422C5.5402 11.4243 6.91806 13.2561 8.83099 15.169C10.7439 17.082 12.5757 18.4598 14.1358 19.4399C16.1702 20.718 18.7536 19.6987 19.8446 17.1782C20.1523 16.4672 19.9946 15.6404 19.4468 15.0926L19.1022 14.748C18.3041 13.9499 17.0828 13.7564 16.077 14.2688L14.797 14.9208C13.6526 15.5038 12.263 15.2837 11.3548 14.3755L9.62453 12.6452C8.71635 11.7371 8.4962 10.3474 9.0792 9.20301L9.73128 7.92301C10.2436 6.91726 10.0502 5.69597 9.25202 4.89783L9.95913 4.19073L9.25202 4.89783L8.90741 4.55323ZM10.3216 3.13901L9.63265 3.82799L10.3216 3.13901L10.6662 3.48362C12.077 4.8944 12.419 7.05311 11.5134 8.83086L10.8613 10.1109C10.6716 10.4833 10.7432 10.9355 11.0387 11.231L12.769 12.9613C13.0645 13.2568 13.5168 13.3285 13.8892 13.1387L15.1692 12.4867C16.9469 11.581 19.1056 11.923 20.5164 13.3338L20.861 13.6784C21.989 14.8063 22.3136 16.5087 21.68 17.9726C20.2438 21.2908 16.4248 23.2399 13.0719 21.1334C11.3933 20.0789 9.44239 18.6089 7.41678 16.5832C5.39117 14.5576 3.92112 12.6067 2.86658 10.9282C0.760155 7.57525 2.70919 3.75627 6.0274 2.32003C7.4913 1.6864 9.19369 2.01107 10.3216 3.13901Z" fill="currentColor"/>
</svg>
