<svg width="24" height="24" viewBox="0 0 24 24" fill="none" xmlns="http://www.w3.org/2000/svg">
<path fill-rule="evenodd" clip-rule="evenodd" d="M11.378 1.21695C11.7405 0.929049 12.2532 0.927544 12.6173 1.21331L20.2632 7.21331C20.2783 7.2252 20.2931 7.23752 20.3076 7.25026C21.3439 8.16498 22 9.50649 22 11V17C22 19.7614 19.7614 22 17 22H7C4.23858 22 2 19.7614 2 17V11C2 9.73263 2.47284 8.57325 3.25026 7.69244C3.2892 7.64832 3.33196 7.60772 3.37804 7.57112L11.378 1.21695ZM12.0037 3.27408L5.58591 8.37159L11.9681 13.6734L18.1008 8.05871L12.0037 3.27408ZM19.5599 9.43449C19.8394 9.8904 20 10.4262 20 11V17C20 18.6569 18.6569 20 17 20H7C5.34315 20 4 18.6569 4 17V11C4 10.5904 4.08173 10.2005 4.22999 9.84528L11.361 15.7692C11.7454 16.0886 12.3066 16.0751 12.6753 15.7376L19.5599 9.43449Z" fill="currentColor"/>
</svg>
