<svg width="24" height="24" viewBox="0 0 24 24" fill="none" xmlns="http://www.w3.org/2000/svg">
<path fill-rule="evenodd" clip-rule="evenodd" d="M4.25 8C4.25 5.23857 6.48858 3 9.25 3H17C19.7614 3 22 5.23858 22 8V16C22 18.7614 19.7614 21 17 21H3C2.63251 21 2.29462 20.7984 2.12004 20.475C1.94546 20.1517 1.96232 19.7586 2.16395 19.4513L3.75815 17.0221C4.07904 16.5331 4.25 15.961 4.25 15.3761V8ZM9.25 5C7.59315 5 6.25 6.34314 6.25 8V15.3761C6.25 16.3509 5.96506 17.3044 5.43024 18.1194L4.85236 19H17C18.6569 19 20 17.6569 20 16V8C20 6.34315 18.6569 5 17 5H9.25ZM16.2071 9.79289C16.5976 10.1834 16.5976 10.8166 16.2071 11.2071L13.2071 14.2071C12.8166 14.5976 12.1834 14.5976 11.7929 14.2071L10.2929 12.7071C9.90237 12.3166 9.90237 11.6834 10.2929 11.2929C10.6834 10.9024 11.3166 10.9024 11.7071 11.2929L12.5 12.0858L14.7929 9.79289C15.1834 9.40237 15.8166 9.40237 16.2071 9.79289Z" fill="currentColor"/>
</svg>
