<svg width="24" height="24" viewBox="0 0 24 24" fill="none" xmlns="http://www.w3.org/2000/svg">
<path fill-rule="evenodd" clip-rule="evenodd" d="M5.8727 5.245C6.99624 3.30655 9.0947 2 11.5 2C14.2149 2 16.5391 3.66379 17.5123 6.02592C20.033 6.28245 22 8.41152 22 11C22 11.0236 22 11.0479 22.0001 11.0729C22.0006 11.5212 22.0015 12.1658 21.8232 12.698C21.7192 13.0085 21.5325 13.3575 21.1881 13.6226C21.0986 13.6915 21.0049 13.7498 20.908 13.7984L20.4303 17.6202C20.1175 20.1223 17.9905 22 15.4689 22H8.53113C6.00951 22 3.88251 20.1223 3.56974 17.6202L3.04224 13.4002C2.43447 12.606 2 11.7683 2 10.5C2 8.02816 3.62975 5.93901 5.8727 5.245ZM5.13278 14L5.5543 17.3721C5.74196 18.8734 7.01816 20 8.53113 20H8.66667V14H5.13278ZM10.6667 14V20H13.3333V14H10.6667ZM4.494 12C4.14774 11.5098 4 11.1074 4 10.5C4 8.82182 5.18209 7.41741 6.7598 7.07821L7.23627 6.97577L7.44915 6.53737C8.1795 5.03335 9.72003 4 11.5 4C13.5599 4 15.299 5.38494 15.8319 7.2764L16.0483 8.04424L16.845 8.00391C16.8963 8.00132 16.9479 8 17 8C18.6569 8 20 9.34315 20 11C20 11.2609 19.9996 11.4783 19.9866 11.6741C19.9767 11.8224 19.9611 11.9275 19.9442 12H4.494ZM15.3333 14V20H15.4689C16.9818 20 18.258 18.8734 18.4457 17.3721L18.8672 14H15.3333Z" fill="currentColor"/>
</svg>
