<svg width="24" height="24" viewBox="0 0 24 24" fill="none" xmlns="http://www.w3.org/2000/svg">
<path fill-rule="evenodd" clip-rule="evenodd" d="M9.70711 2.79289C10.0976 3.18342 10.0976 3.81658 9.70711 4.20711L7.70711 6.20711C7.31658 6.59763 6.68342 6.59763 6.29289 6.20711C5.90237 5.81658 5.90237 5.18342 6.29289 4.79289L8.29289 2.79289C8.68342 2.40237 9.31658 2.40237 9.70711 2.79289ZM13.7071 2.79289C14.0976 3.18342 14.0976 3.81658 13.7071 4.20711L11.7071 6.20711C11.3166 6.59763 10.6834 6.59763 10.2929 6.20711C9.90237 5.81658 9.90237 5.18342 10.2929 4.79289L12.2929 2.79289C12.6834 2.40237 13.3166 2.40237 13.7071 2.79289ZM17.7071 2.79289C18.0976 3.18342 18.0976 3.81658 17.7071 4.20711L15.7071 6.20711C15.3166 6.59763 14.6834 6.59763 14.2929 6.20711C13.9024 5.81658 13.9024 5.18342 14.2929 4.79289L16.2929 2.79289C16.6834 2.40237 17.3166 2.40237 17.7071 2.79289ZM4 10.5C4 8.84315 5.34315 7.5 7 7.5H17C18.3261 7.5 19.5979 8.02678 20.5355 8.96447C21.4732 9.90215 22 11.1739 22 12.5C22 13.8261 21.4732 15.0979 20.5355 16.0355C19.8372 16.7339 18.9534 17.2044 18 17.399V18.5C18 20.1569 16.6569 21.5 15 21.5H7C5.34315 21.5 4 20.1569 4 18.5V10.5ZM18 15.3284C18.4179 15.1807 18.8019 14.9407 19.1213 14.6213C19.6839 14.0587 20 13.2956 20 12.5C20 11.7044 19.6839 10.9413 19.1213 10.3787C18.8019 10.0593 18.4179 9.81933 18 9.67157V15.3284ZM16 9.5H7C6.44772 9.5 6 9.94772 6 10.5V18.5C6 19.0523 6.44772 19.5 7 19.5H15C15.5523 19.5 16 19.0523 16 18.5V9.5Z" fill="currentColor"/>
</svg>
