<svg width="24" height="24" viewBox="0 0 24 24" fill="none" xmlns="http://www.w3.org/2000/svg">
<path fill-rule="evenodd" clip-rule="evenodd" d="M10 4C9.44772 4 9 4.44772 9 5C9 5.55228 9.44772 6 10 6C10.5523 6 11 5.55228 11 5C11 4.44772 10.5523 4 10 4ZM12 2.7639C11.4692 2.28885 10.7684 2 10 2C8.34315 2 7 3.34315 7 5C7 5.35064 7.06015 5.68722 7.17071 6H5C3.34315 6 2 7.34315 2 9C2 10.3062 2.83481 11.4175 4 11.8293V17C4 19.7614 6.23858 22 9 22H15C17.7614 22 20 19.7614 20 17V11.8293C21.1652 11.4175 22 10.3062 22 9C22 7.34315 20.6569 6 19 6H16.8293C16.9398 5.68722 17 5.35064 17 5C17 3.34315 15.6569 2 14 2C13.2316 2 12.5308 2.28885 12 2.7639ZM14 6C14.5523 6 15 5.55228 15 5C15 4.44772 14.5523 4 14 4C13.4477 4 13 4.44772 13 5C13 5.55228 13.4477 6 14 6ZM5 8C4.44772 8 4 8.44772 4 9C4 9.55228 4.44772 10 5 10H19C19.5523 10 20 9.55229 20 9C20 8.44771 19.5523 8 19 8H5ZM18 12H13V20H15C16.6569 20 18 18.6569 18 17V12ZM11 20V12H6V17C6 18.6569 7.34315 20 9 20H11Z" fill="currentColor"/>
</svg>
