<svg width="24" height="24" viewBox="0 0 24 24" fill="none" xmlns="http://www.w3.org/2000/svg">
<path fill-rule="evenodd" clip-rule="evenodd" d="M12 4C7.58172 4 4 7.58172 4 12C4 12.3885 4.02769 12.7705 4.0812 13.1442C4.36335 13.0534 4.65864 13.0045 4.95762 13.0003C5.49494 12.9927 6.02443 13.1296 6.49076 13.3966C6.95709 13.6636 7.34313 14.051 7.60854 14.5183C7.87396 14.9855 8.00899 15.5155 7.99954 16.0528C7.99008 16.5901 7.83648 17.115 7.55479 17.5726C7.40091 17.8226 7.21187 18.0475 6.99451 18.241C8.36495 19.3415 10.1056 20 12 20C16.4183 20 20 16.4183 20 12C20 7.58172 16.4183 4 12 4ZM4.85513 18.9965C6.6703 20.8499 9.20084 22 12 22C17.5228 22 22 17.5228 22 12C22 6.47715 17.5228 2 12 2C6.47715 2 2 6.47715 2 12C2 14.7222 3.08772 17.1903 4.85223 18.9935L4.85209 18.9964C4.85311 18.9964 4.85412 18.9964 4.85513 18.9965ZM5.59962 16.8003C5.69985 16.7252 5.78546 16.6316 5.8516 16.5242C5.94549 16.3717 5.99669 16.1967 5.99985 16.0176C6.003 15.8385 5.95799 15.6618 5.86951 15.5061C5.78104 15.3503 5.65236 15.2212 5.49692 15.1322C5.34148 15.0432 5.16498 14.9976 4.98587 15.0001C4.85745 15.0019 4.73106 15.0284 4.61346 15.0777C4.8709 15.6949 5.20342 16.2729 5.59962 16.8003ZM10 7C9.44772 7 9 7.44772 9 8C9 8.55228 9.44772 9 10 9C10.5523 9 11 8.55228 11 8C11 7.44772 10.5523 7 10 7ZM7 8C7 6.34315 8.34315 5 10 5C11.6569 5 13 6.34315 13 8C13 9.65685 11.6569 11 10 11C8.34315 11 7 9.65685 7 8ZM15.5 13C14.6716 13 14 13.6716 14 14.5C14 15.3284 14.6716 16 15.5 16C16.3284 16 17 15.3284 17 14.5C17 13.6716 16.3284 13 15.5 13ZM12 14.5C12 12.567 13.567 11 15.5 11C17.433 11 19 12.567 19 14.5C19 16.433 17.433 18 15.5 18C13.567 18 12 16.433 12 14.5Z" fill="currentColor"/>
</svg>
