<svg width="24" height="24" viewBox="0 0 24 24" fill="none" xmlns="http://www.w3.org/2000/svg">
<path fill-rule="evenodd" clip-rule="evenodd" d="M12 4C7.58173 4 4.00001 7.58172 4.00001 12C4.00001 14.1474 4.84475 16.0954 6.22214 17.5332C7.67959 19.0547 9.72856 20 12 20C14.2715 20 16.3204 19.0547 17.7779 17.5332C19.1553 16.0954 20 14.1474 20 12C20 7.58172 16.4183 4 12 4ZM2.00001 12C2.00001 6.47715 6.47716 2 12 2C17.5229 2 22 6.47715 22 12C22 14.3304 21.2018 16.476 19.8653 18.1761L21.9821 20.2929L20.5679 21.7071L18.4786 19.6178C16.7341 21.1026 14.4712 22 12 22C9.52882 22 7.26594 21.1026 5.5214 19.6178L3.43208 21.7071C3.04156 22.0976 2.40839 22.0976 2.01787 21.7071C1.62734 21.3166 1.62734 20.6834 2.01787 20.2929L4.13468 18.1761C2.79817 16.476 2.00001 14.3304 2.00001 12ZM12 8C9.79087 8 8.00001 9.79086 8.00001 12C8.00001 14.2091 9.79087 16 12 16C14.2091 16 16 14.2091 16 12C16 9.79086 14.2091 8 12 8ZM6.00001 12C6.00001 8.68629 8.6863 6 12 6C15.3137 6 18 8.68629 18 12C18 15.3137 15.3137 18 12 18C8.6863 18 6.00001 15.3137 6.00001 12ZM10 12C10 10.8954 10.8954 10 12 10C13.1046 10 14 10.8954 14 12C14 13.1046 13.1046 14 12 14C10.8954 14 10 13.1046 10 12Z" fill="currentColor"/>
</svg>
