<svg width="24" height="24" viewBox="0 0 24 24" fill="none" xmlns="http://www.w3.org/2000/svg">
<path fill-rule="evenodd" clip-rule="evenodd" d="M8.22219 6C6.6267 6 5.3333 7.2934 5.3333 8.88889C5.3333 10.4844 6.62672 11.7778 8.22221 11.7778C9.8177 11.7778 11.1111 10.4844 11.1111 8.88889C11.1111 7.2934 9.81768 6 8.22219 6ZM11.4656 12.547C12.475 11.6514 13.1111 10.3444 13.1111 8.88889C13.1111 6.18883 10.9223 4 8.22219 4C5.52213 4 3.3333 6.18883 3.3333 8.88889C3.3333 10.3444 3.96941 11.6514 4.97879 12.547C4.29601 12.8902 3.66581 13.3426 3.11533 13.8931C2.8712 14.1372 2.64631 14.3971 2.44168 14.6703C1.98305 15.2826 1.76709 15.965 1.80512 16.6537C1.84256 17.3318 2.12149 17.9389 2.52025 18.429C3.30494 19.3935 4.62066 20 5.99999 20L10.4444 20C11.8238 20 13.1395 19.3935 13.9242 18.429C14.3229 17.9389 14.6019 17.3318 14.6393 16.6537C14.6773 15.965 14.4614 15.2826 14.0027 14.6703C13.7981 14.3971 13.5732 14.1372 13.3291 13.8931C12.7786 13.3426 12.1484 12.8902 11.4656 12.547ZM8.22221 13.7778C6.83719 13.7778 5.5089 14.328 4.52954 15.3073C4.35295 15.4839 4.19035 15.6718 4.04243 15.8693C3.83886 16.1411 3.79233 16.3669 3.80208 16.5434C3.8124 16.7305 3.89152 16.9454 4.07165 17.1668C4.44474 17.6254 5.17019 18 5.99999 18L10.4444 18C11.2742 18 11.9997 17.6254 12.3728 17.1668C12.5529 16.9454 12.632 16.7305 12.6424 16.5434C12.6521 16.3669 12.6056 16.1411 12.402 15.8693C12.2541 15.6718 12.0915 15.4839 11.9149 15.3073C10.9355 14.328 9.60723 13.7778 8.22221 13.7778ZM18.5 8C19.0523 8 19.5 8.44772 19.5 9V10.5H21C21.5523 10.5 22 10.9477 22 11.5C22 12.0523 21.5523 12.5 21 12.5H19.5V14C19.5 14.5523 19.0523 15 18.5 15C17.9477 15 17.5 14.5523 17.5 14V12.5H16C15.4477 12.5 15 12.0523 15 11.5C15 10.9477 15.4477 10.5 16 10.5H17.5V9C17.5 8.44772 17.9477 8 18.5 8Z" fill="currentColor"/>
</svg>
