<svg width="24" height="24" viewBox="0 0 24 24" fill="none" xmlns="http://www.w3.org/2000/svg">
<path fill-rule="evenodd" clip-rule="evenodd" d="M17.9498 2.63615C18.3403 2.24563 18.9735 2.24563 19.364 2.63615C20.1997 3.47188 20.8627 4.46403 21.315 5.55596C21.7673 6.6479 22.0001 7.81822 22.0001 9.00012C22.0001 10.182 21.7673 11.3523 21.315 12.4443C20.8627 13.5362 20.1997 14.5284 19.364 15.3641C18.9735 15.7546 18.3403 15.7546 17.9498 15.3641C17.5593 14.9736 17.5593 14.3404 17.9498 13.9499C18.5998 13.2999 19.1154 12.5282 19.4672 11.6789C19.819 10.8296 20.0001 9.91937 20.0001 9.00012C20.0001 8.08086 19.819 7.17061 19.4672 6.32133C19.1154 5.47205 18.5998 4.70038 17.9498 4.05037C17.5593 3.65984 17.5593 3.02668 17.9498 2.63615ZM8.22219 6.00012C6.6267 6.00012 5.3333 7.29352 5.3333 8.88901C5.3333 10.4845 6.62676 11.7779 8.22228 11.7779C9.81774 11.7779 11.1111 10.4845 11.1111 8.88901C11.1111 7.29352 9.81768 6.00012 8.22219 6.00012ZM11.4657 12.5471C12.475 11.6515 13.1111 10.3445 13.1111 8.88901C13.1111 6.18895 10.9223 4.00012 8.22219 4.00012C5.52213 4.00012 3.3333 6.18895 3.3333 8.88901C3.3333 10.3446 3.96943 11.6516 4.97883 12.5472C4.29606 12.8903 3.66587 13.3428 3.11539 13.8932C2.87126 14.1374 2.64638 14.3972 2.44174 14.6704C1.98312 15.2827 1.76715 15.9651 1.80518 16.6538C1.84262 17.3319 2.12155 17.939 2.52031 18.4292C3.305 19.3936 4.62072 20.0001 6.00005 20.0001H10.4445C11.8238 20.0001 13.1396 19.3936 13.9242 18.4292C14.323 17.939 14.6019 17.3319 14.6394 16.6538C14.6774 15.9651 14.4614 15.2827 14.0028 14.6704C13.7982 14.3972 13.5733 14.1374 13.3292 13.8932C12.7787 13.3427 12.1485 12.8903 11.4657 12.5471ZM8.22228 13.7779C6.83726 13.7779 5.50896 14.3281 4.52961 15.3074C4.35302 15.484 4.19042 15.6719 4.04249 15.8694C3.83892 16.1412 3.79239 16.3671 3.80214 16.5436C3.81247 16.7306 3.89158 16.9456 4.07172 17.167C4.44481 17.6255 5.17025 18.0001 6.00005 18.0001H10.4445C11.2743 18.0001 11.9997 17.6255 12.3728 17.167C12.553 16.9456 12.6321 16.7306 12.6424 16.5436C12.6522 16.3671 12.6056 16.1412 12.4021 15.8694C12.2541 15.6719 12.0915 15.484 11.9149 15.3074C10.9356 14.3281 9.60729 13.7779 8.22228 13.7779ZM15.1214 5.46458C15.5119 5.07406 16.1451 5.07406 16.5356 5.46458C16.9999 5.92888 17.3682 6.48007 17.6194 7.0867C17.8707 7.69333 18.0001 8.34351 18.0001 9.00012C18.0001 9.65673 17.8707 10.3069 17.6194 10.9135C17.3682 11.5202 16.9999 12.0714 16.5356 12.5357C16.1451 12.9262 15.5119 12.9262 15.1214 12.5357C14.7308 12.1451 14.7308 11.512 15.1214 11.1214C15.3999 10.8429 15.6209 10.5121 15.7717 10.1482C15.9225 9.78419 16.0001 9.39408 16.0001 9.00012C16.0001 8.60615 15.9225 8.21604 15.7717 7.85207C15.6209 7.48809 15.3999 7.15737 15.1214 6.8788C14.7308 6.48827 14.7308 5.85511 15.1214 5.46458Z" fill="currentColor"/>
</svg>
