<svg width="24" height="24" viewBox="0 0 24 24" fill="none" xmlns="http://www.w3.org/2000/svg">
<path fill-rule="evenodd" clip-rule="evenodd" d="M12 2C12.5523 2 13 2.44772 13 3V4.08296C15.8377 4.55904 18 7.027 18 10V16H19C19.5523 16 20 16.4477 20 17C20 17.5523 19.5523 18 19 18H15C15 19.6569 13.6569 21 12 21C10.3431 21 9 19.6569 9 18H5C4.44772 18 4 17.5523 4 17C4 16.4477 4.44772 16 5 16H6V10C6 7.027 8.16229 4.55904 11 4.08296V3C11 2.44772 11.4477 2 12 2ZM8 16H16V10C16 7.79086 14.2091 6 12 6C9.79086 6 8 7.79086 8 10V16ZM11 18C11 18.5523 11.4477 19 12 19C12.5523 19 13 18.5523 13 18H11Z" fill="currentColor"/>
</svg>
