<svg width="24" height="24" viewBox="0 0 24 24" fill="none" xmlns="http://www.w3.org/2000/svg">
<path fill-rule="evenodd" clip-rule="evenodd" d="M12 2C12.5523 2 13 2.44772 13 3V4.08296C15.8377 4.55904 18 7.027 18 10V14.05C19.1411 14.2816 20 15.2905 20 16.5C20 17.8807 18.8807 19 17.5 19H15C15 20.6569 13.6569 22 12 22C10.3431 22 9 20.6569 9 19H6.5C5.11929 19 4 17.8807 4 16.5C4 15.2905 4.85888 14.2816 6 14.05V10C6 7.027 8.16229 4.55904 11 4.08296V3C11 2.44772 11.4477 2 12 2ZM11 19C11 19.5523 11.4477 20 12 20C12.5523 20 13 19.5523 13 19H11ZM6.5 17C6.22386 17 6 16.7761 6 16.5C6 16.2239 6.22386 16 6.5 16H7C7.55228 16 8 15.5523 8 15V10C8 7.79086 9.79086 6 12 6C14.2091 6 16 7.79086 16 10V15C16 15.5523 16.4477 16 17 16H17.5C17.7761 16 18 16.2239 18 16.5C18 16.7761 17.7761 17 17.5 17H6.5Z" fill="currentColor"/>
</svg>
