<svg width="24" height="24" viewBox="0 0 24 24" fill="none" xmlns="http://www.w3.org/2000/svg">
<path fill-rule="evenodd" clip-rule="evenodd" d="M2.29289 2.29289C2.68342 1.90237 3.31658 1.90237 3.70711 2.29289L21.7071 20.2929C22.0976 20.6834 22.0976 21.3166 21.7071 21.7071C21.3166 22.0976 20.6834 22.0976 20.2929 21.7071L17.5844 18.9986C17.5563 18.9995 17.5282 19 17.5 19H15C15 20.6569 13.6569 22 12 22C10.3431 22 9 20.6569 9 19H6.5C5.11929 19 4 17.8807 4 16.5C4 15.2905 4.85888 14.2816 6 14.05V10C6 9.23294 6.1444 8.49798 6.40782 7.82203L2.29289 3.70711C1.90237 3.31658 1.90237 2.68342 2.29289 2.29289ZM8.03719 9.45141C8.01267 9.63059 8 9.81371 8 10V15C8 15.5523 7.55228 16 7 16H6.5C6.22386 16 6 16.2239 6 16.5C6 16.7761 6.22386 17 6.5 17H15.5858L8.03719 9.45141ZM11 19C11 19.5523 11.4477 20 12 20C12.5523 20 13 19.5523 13 19H11ZM11 4.08312C10.6408 4.14345 10.2921 4.23575 9.95688 4.35713C9.4376 4.54518 9.16908 5.11858 9.35713 5.63787C9.54518 6.15715 10.1186 6.42567 10.6379 6.23762C11.0617 6.08414 11.5199 6 12 6C14.2091 6 16 7.79086 16 10V12C16 12.5523 16.4477 13 17 13C17.5523 13 18 12.5523 18 12V10C18 7.027 15.8377 4.55904 13 4.08296V3C13 2.44772 12.5523 2 12 2C11.4477 2 11 2.44772 11 3V4.08312Z" fill="currentColor"/>
</svg>
