<svg width="24" height="24" viewBox="0 0 24 24" fill="none" xmlns="http://www.w3.org/2000/svg">
<path fill-rule="evenodd" clip-rule="evenodd" d="M4 5C4 3.34315 5.34315 2 7 2H17C18.6569 2 20 3.34315 20 5V19C20 20.6569 18.6569 22 17 22H7C5.34315 22 4 20.6569 4 19V5ZM6 19C6 19.5523 6.44772 20 7 20H17C17.5523 20 18 19.5523 18 19V17.8293C17.6872 17.9398 17.3506 18 17 18H7C6.44772 18 6 18.4477 6 19ZM18 15C18 15.5523 17.5523 16 17 16H7C6.64936 16 6.31278 16.0602 6 16.1707V5C6 4.44772 6.44772 4 7 4H8V8C8 8.34658 8.17945 8.66844 8.47427 8.85065C8.76909 9.03286 9.13723 9.04942 9.44721 8.89443L11 8.11803L12.5528 8.89443C12.8628 9.04942 13.2309 9.03286 13.5257 8.85065C13.8205 8.66844 14 8.34658 14 8V4H17C17.5523 4 18 4.44772 18 5V15ZM12 4H10V6.38197L10.5528 6.10557C10.8343 5.96481 11.1657 5.96481 11.4472 6.10557L12 6.38197V4Z" fill="currentColor"/>
</svg>
