<svg width="180" height="180" viewBox="0 0 180 180" fill="none" xmlns="http://www.w3.org/2000/svg">
<rect width="180" height="180" rx="22" fill="#53BBE0"/>
<path d="M49.7489 37.5V23.112H52.3009V37.5H49.7489ZM55.7378 37.5V26.698H57.8278L58.0038 28.15H58.0918C58.5758 27.6807 59.1038 27.2773 59.6758 26.94C60.2478 26.6027 60.9005 26.434 61.6338 26.434C62.7925 26.434 63.6358 26.808 64.1638 27.556C64.6918 28.304 64.9558 29.36 64.9558 30.724V37.5H62.4258V31.054C62.4258 30.1593 62.2938 29.5287 62.0298 29.162C61.7658 28.7953 61.3332 28.612 60.7318 28.612C60.2625 28.612 59.8445 28.7293 59.4778 28.964C59.1258 29.184 58.7225 29.514 58.2678 29.954V37.5H55.7378ZM71.8544 37.764C70.6077 37.764 69.7204 37.4047 69.1924 36.686C68.679 35.9527 68.4224 35.0067 68.4224 33.848V28.7H66.8824V26.808L68.5544 26.698L68.8624 23.75H70.9744V26.698H73.7244V28.7H70.9744V33.848C70.9744 35.1093 71.4804 35.74 72.4924 35.74C72.683 35.74 72.881 35.718 73.0864 35.674C73.2917 35.6153 73.4677 35.5567 73.6144 35.498L74.0544 37.368C73.761 37.4707 73.4237 37.5587 73.0424 37.632C72.6757 37.72 72.2797 37.764 71.8544 37.764ZM80.2739 37.764C79.2765 37.764 78.3745 37.544 77.5679 37.104C76.7612 36.6493 76.1232 36.004 75.6539 35.168C75.1845 34.3173 74.9499 33.298 74.9499 32.11C74.9499 30.9367 75.1845 29.9247 75.6539 29.074C76.1379 28.2233 76.7612 27.5707 77.5239 27.116C78.2865 26.6613 79.0859 26.434 79.9219 26.434C80.9045 26.434 81.7259 26.654 82.3859 27.094C83.0459 27.5193 83.5445 28.1207 83.8819 28.898C84.2192 29.6607 84.3879 30.548 84.3879 31.56C84.3879 32.088 84.3512 32.4987 84.2779 32.792H77.4139C77.5312 33.7453 77.8759 34.486 78.4479 35.014C79.0199 35.542 79.7385 35.806 80.6039 35.806C81.0732 35.806 81.5059 35.74 81.9019 35.608C82.3125 35.4613 82.7159 35.2633 83.1119 35.014L83.9699 36.598C83.4565 36.9353 82.8845 37.214 82.2539 37.434C81.6232 37.654 80.9632 37.764 80.2739 37.764ZM77.3919 31.076H82.1879C82.1879 30.24 82.0045 29.5873 81.6379 29.118C81.2712 28.634 80.7212 28.392 79.9879 28.392C79.3572 28.392 78.7925 28.6267 78.2939 29.096C77.8099 29.5507 77.5092 30.2107 77.3919 31.076ZM86.8042 37.5V26.698H88.8942L89.0702 28.612H89.1582C89.5396 27.908 90.0016 27.3727 90.5442 27.006C91.0869 26.6247 91.6442 26.434 92.2162 26.434C92.7296 26.434 93.1402 26.5073 93.4482 26.654L93.0082 28.854C92.8176 28.7953 92.6416 28.7513 92.4802 28.722C92.3189 28.6927 92.1209 28.678 91.8862 28.678C91.4609 28.678 91.0136 28.8467 90.5442 29.184C90.0749 29.5067 89.6716 30.0787 89.3342 30.9V37.5H86.8042ZM95.4513 37.5V28.7H93.9993V26.808L95.4513 26.698V25.576C95.4513 24.4467 95.7299 23.5227 96.2873 22.804C96.8446 22.0707 97.7613 21.704 99.0373 21.704C99.4186 21.704 99.7853 21.7407 100.137 21.814C100.489 21.8873 100.783 21.9753 101.017 22.078L100.533 23.97C100.137 23.794 99.7413 23.706 99.3453 23.706C98.4359 23.706 97.9813 24.3147 97.9813 25.532V26.698H100.093V28.7H97.9813V37.5H95.4513ZM104.182 37.764C103.243 37.764 102.473 37.4707 101.872 36.884C101.285 36.2973 100.992 35.5347 100.992 34.596C100.992 33.4373 101.498 32.5427 102.51 31.912C103.522 31.2667 105.135 30.8267 107.35 30.592C107.335 30.02 107.181 29.5287 106.888 29.118C106.609 28.6927 106.103 28.48 105.37 28.48C104.842 28.48 104.321 28.5827 103.808 28.788C103.309 28.9933 102.818 29.2427 102.334 29.536L101.41 27.842C102.011 27.4607 102.686 27.1307 103.434 26.852C104.197 26.5733 105.003 26.434 105.854 26.434C107.203 26.434 108.208 26.8373 108.868 27.644C109.543 28.436 109.88 29.5873 109.88 31.098V37.5H107.79L107.614 36.312H107.526C107.042 36.7227 106.521 37.0673 105.964 37.346C105.421 37.6247 104.827 37.764 104.182 37.764ZM104.996 35.784C105.436 35.784 105.832 35.6813 106.184 35.476C106.551 35.256 106.939 34.9627 107.35 34.596V32.176C105.883 32.3667 104.864 32.6527 104.292 33.034C103.72 33.4007 103.434 33.8553 103.434 34.398C103.434 34.882 103.581 35.234 103.874 35.454C104.167 35.674 104.541 35.784 104.996 35.784ZM117.418 37.764C116.435 37.764 115.548 37.544 114.756 37.104C113.978 36.6493 113.355 36.004 112.886 35.168C112.431 34.3173 112.204 33.298 112.204 32.11C112.204 30.9073 112.453 29.888 112.952 29.052C113.45 28.2013 114.11 27.556 114.932 27.116C115.768 26.6613 116.662 26.434 117.616 26.434C118.305 26.434 118.906 26.5513 119.42 26.786C119.933 27.0207 120.388 27.3067 120.784 27.644L119.552 29.294C119.273 29.0447 118.987 28.854 118.694 28.722C118.4 28.5753 118.085 28.502 117.748 28.502C116.882 28.502 116.171 28.832 115.614 29.492C115.071 30.152 114.8 31.0247 114.8 32.11C114.8 33.1807 115.064 34.046 115.592 34.706C116.134 35.366 116.831 35.696 117.682 35.696C118.107 35.696 118.503 35.608 118.87 35.432C119.251 35.2413 119.596 35.0213 119.904 34.772L120.938 36.444C120.439 36.884 119.882 37.214 119.266 37.434C118.65 37.654 118.034 37.764 117.418 37.764ZM127.153 37.764C126.155 37.764 125.253 37.544 124.447 37.104C123.64 36.6493 123.002 36.004 122.533 35.168C122.063 34.3173 121.829 33.298 121.829 32.11C121.829 30.9367 122.063 29.9247 122.533 29.074C123.017 28.2233 123.64 27.5707 124.403 27.116C125.165 26.6613 125.965 26.434 126.801 26.434C127.783 26.434 128.605 26.654 129.265 27.094C129.925 27.5193 130.423 28.1207 130.761 28.898C131.098 29.6607 131.267 30.548 131.267 31.56C131.267 32.088 131.23 32.4987 131.157 32.792H124.293C124.41 33.7453 124.755 34.486 125.327 35.014C125.899 35.542 126.617 35.806 127.483 35.806C127.952 35.806 128.385 35.74 128.781 35.608C129.191 35.4613 129.595 35.2633 129.991 35.014L130.849 36.598C130.335 36.9353 129.763 37.214 129.133 37.434C128.502 37.654 127.842 37.764 127.153 37.764ZM124.271 31.076H129.067C129.067 30.24 128.883 29.5873 128.517 29.118C128.15 28.634 127.6 28.392 126.867 28.392C126.236 28.392 125.671 28.6267 125.173 29.096C124.689 29.5507 124.388 30.2107 124.271 31.076Z" fill="#FBFBFB"/>
<rect x="27" y="51.5" width="126" height="101" rx="16" fill="#1A9DD0"/>
<path fill-rule="evenodd" clip-rule="evenodd" d="M90 82C91.1046 82 92 82.8954 92 84V86.1659C97.6754 87.1181 102 92.054 102 98V110H104C105.105 110 106 110.895 106 112C106 113.105 105.105 114 104 114H96C96 117.314 93.3137 120 90 120C86.6863 120 84 117.314 84 114H76C74.8954 114 74 113.105 74 112C74 110.895 74.8954 110 76 110H78V98C78 92.054 82.3246 87.1181 88 86.1659V84C88 82.8954 88.8954 82 90 82ZM82 110H98V98C98 93.5817 94.4183 90 90 90C85.5817 90 82 93.5817 82 98V110ZM88 114C88 115.105 88.8954 116 90 116C91.1046 116 92 115.105 92 114H88Z" fill="#FEFEFE"/>
</svg>
