<svg width="24" height="24" viewBox="0 0 24 24" fill="none" xmlns="http://www.w3.org/2000/svg">
<path fill-rule="evenodd" clip-rule="evenodd" d="M1 7C1 5.34315 2.34315 4 4 4L20 4C21.6569 4 23 5.34315 23 7L23 17C23 18.6569 21.6569 20 20 20H4C2.34315 20 1 18.6569 1 17L1 7ZM4 6C3.44772 6 3 6.44772 3 7L3 17C3 17.5523 3.44772 18 4 18L20 18C20.5523 18 21 17.5523 21 17L21 7C21 6.44772 20.5523 6 20 6H4ZM12 13C11.4477 13 11 13.4477 11 14C11 14.5523 11.4477 15 12 15C12.1838 15 12.3532 14.9513 12.4993 14.8668C12.9773 14.5903 13.5891 14.7536 13.8656 15.2317C14.1421 15.7098 13.9788 16.3215 13.5007 16.598C13.0584 16.8539 12.5448 17 12 17C10.3431 17 9 15.6569 9 14C9 12.3431 10.3431 11 12 11C12.5448 11 13.0584 11.1461 13.5007 11.402C13.9788 11.6785 14.1421 12.2902 13.8656 12.7683C13.5891 13.2464 12.9773 13.4097 12.4993 13.1332C12.3532 13.0487 12.1838 13 12 13ZM17 13C16.4477 13 16 13.4477 16 14C16 14.5523 16.4477 15 17 15C17.5523 15 18 14.5523 18 14C18 13.4477 17.5523 13 17 13ZM14 14C14 12.3431 15.3431 11 17 11C18.6569 11 20 12.3431 20 14C20 15.6569 18.6569 17 17 17C15.3431 17 14 15.6569 14 14Z" fill="currentColor"/>
</svg>
