<svg width="24" height="24" viewBox="0 0 24 24" fill="none" xmlns="http://www.w3.org/2000/svg">
<path fill-rule="evenodd" clip-rule="evenodd" d="M12 3C12.5523 3 13 3.44772 13 4L13 12.5858L15.2929 10.2929C15.6834 9.90237 16.3166 9.90237 16.7071 10.2929C17.0976 10.6834 17.0976 11.3166 16.7071 11.7071L12.7071 15.7071C12.3166 16.0976 11.6834 16.0976 11.2929 15.7071L7.29289 11.7071C6.90237 11.3166 6.90237 10.6834 7.29289 10.2929C7.68342 9.90237 8.31658 9.90237 8.70711 10.2929L11 12.5858L11 4C11 3.44772 11.4477 3 12 3ZM5 6C4.44772 6 4 6.44772 4 7V17C4 17.5523 4.44772 18 5 18L19 18C19.5523 18 20 17.5523 20 17V7C20 6.44771 19.5523 6 19 6L16 6C15.4477 6 15 5.55228 15 5C15 4.44771 15.4477 4 16 4H19C20.6569 4 22 5.34314 22 7V17C22 18.6569 20.6569 20 19 20H5C3.34315 20 2 18.6569 2 17V7C2 5.34315 3.34315 4 5 4H8C8.55228 4 9 4.44772 9 5C9 5.55228 8.55228 6 8 6L5 6Z" fill="currentColor"/>
</svg>
