<svg width="24" height="24" viewBox="0 0 24 24" fill="none" xmlns="http://www.w3.org/2000/svg">
<path fill-rule="evenodd" clip-rule="evenodd" d="M4.05292 4.0529C4.44344 3.66238 5.07661 3.66238 5.46713 4.0529L19.9471 18.5329C20.3376 18.9234 20.3376 19.5566 19.9471 19.9471C19.5566 20.3376 18.9234 20.3376 18.5329 19.9471L16.5505 17.9647C15.1597 18.6057 13.6194 18.9623 12 18.9623C7.85749 18.9623 4.25759 16.6351 2.31731 13.2051C1.89423 12.4572 1.89423 11.5428 2.31731 10.7949C3.15372 9.3163 4.29691 8.04385 5.65954 7.07374L4.05292 5.46712C3.66239 5.07659 3.66239 4.44343 4.05292 4.0529ZM7.09807 8.51227C5.85585 9.32977 4.80978 10.4508 4.05808 11.7796C3.98064 11.9165 3.98064 12.0835 4.05808 12.2204C5.67213 15.0736 8.63472 16.9623 12 16.9623C13.0579 16.9623 14.0734 16.7763 15.0193 16.4335L14.3282 15.7424C13.6527 16.1633 12.8543 16.407 12 16.407C9.56606 16.407 7.59296 14.4339 7.59296 12C7.59296 11.1457 7.83671 10.3473 8.25763 9.67183L7.09807 8.51227ZM9.74399 11.1582C9.64625 11.4201 9.59296 11.7036 9.59296 12C9.59296 13.3294 10.6706 14.407 12 14.407C12.2964 14.407 12.5799 14.3538 12.8418 14.256L9.74399 11.1582ZM12 7.03765C11.5171 7.03765 11.0435 7.0764 10.5818 7.15092C10.0366 7.2389 9.52324 6.86824 9.43525 6.32301C9.34726 5.77777 9.71793 5.26445 10.2632 5.17646C10.8298 5.08502 11.4099 5.03765 12 5.03765C16.1425 5.03765 19.7424 7.36493 21.6827 10.7949C22.1058 11.5428 22.1058 12.4572 21.6827 13.2051C21.1847 14.0855 20.5782 14.8924 19.8816 15.6059C19.4958 16.001 18.8627 16.0086 18.4675 15.6228C18.0723 15.237 18.0647 14.6039 18.4505 14.2087C19.0261 13.6192 19.5286 12.951 19.9419 12.2204C20.0194 12.0835 20.0194 11.9165 19.9419 11.7796C18.3279 8.92637 15.3653 7.03765 12 7.03765ZM12.0452 8.44896C12.2073 7.92099 12.7667 7.62438 13.2947 7.78646C14.6882 8.21424 15.7858 9.31181 16.2135 10.7053C16.3756 11.2333 16.079 11.7927 15.551 11.9548C15.0231 12.1168 14.4637 11.8202 14.3016 11.2923C14.0685 10.5328 13.4672 9.93154 12.7078 9.6984C12.1798 9.53632 11.8832 8.97693 12.0452 8.44896Z" fill="currentColor"/>
</svg>
