<svg width="24" height="24" viewBox="0 0 24 24" fill="none" xmlns="http://www.w3.org/2000/svg">
<path fill-rule="evenodd" clip-rule="evenodd" d="M6 2C6.55228 2 7 2.44772 7 3H20C20.4045 3 20.7691 3.24364 20.9239 3.61732C21.0787 3.99099 20.9931 4.42111 20.7071 4.70711L16.4142 9L20.7071 13.2929C20.9931 13.5789 21.0787 14.009 20.9239 14.3827C20.7691 14.7564 20.4045 15 20 15H7V21C7 21.5523 6.55228 22 6 22C5.44772 22 5 21.5523 5 21V3C5 2.44772 5.44772 2 6 2ZM7 13H17.5858L14.2929 9.70711C13.9024 9.31658 13.9024 8.68342 14.2929 8.29289L17.5858 5H7V13Z" fill="currentColor"/>
</svg>
