<svg width="24" height="24" viewBox="0 0 24 24" fill="none" xmlns="http://www.w3.org/2000/svg">
<path fill-rule="evenodd" clip-rule="evenodd" d="M11.2929 2.29289C11.6834 1.90237 12.3166 1.90237 12.7071 2.29289L15 4.58579V4C15 3.44772 15.4477 3 16 3H19C19.5523 3 20 3.44772 20 4V20H21C21.5523 20 22 20.4477 22 21C22 21.5523 21.5523 22 21 22H3C2.44772 22 2 21.5523 2 21C2 20.4477 2.44772 20 3 20H4V10C4 9.73478 4.10536 9.48043 4.29289 9.29289L11.2929 2.29289ZM6 20H18V10.4142L15.2935 7.70767C15.2931 7.70729 15.2927 7.70692 15.2923 7.70654L12 4.41421L6 10.4142V20ZM17 6.58579L18 7.58579V5H17V6.58579Z" fill="currentColor"/>
</svg>
