<svg width="24" height="24" viewBox="0 0 24 24" fill="none" xmlns="http://www.w3.org/2000/svg">
<path fill-rule="evenodd" clip-rule="evenodd" d="M11.2929 2.29289C11.6834 1.90237 12.3166 1.90237 12.7071 2.29289L15 4.58579V4C15 3.44772 15.4477 3 16 3H19C19.5523 3 20 3.44772 20 4V9.58579L21.7071 11.2929C22.0976 11.6834 22.0976 12.3166 21.7071 12.7071C21.3166 13.0976 20.6834 13.0976 20.2929 12.7071L20 12.4142V20H21C21.5523 20 22 20.4477 22 21C22 21.5523 21.5523 22 21 22H3C2.44772 22 2 21.5523 2 21C2 20.4477 2.44772 20 3 20H4V12.4142L3.70711 12.7071C3.31658 13.0976 2.68342 13.0976 2.29289 12.7071C1.90237 12.3166 1.90237 11.6834 2.29289 11.2929L4.29254 9.29325C4.29277 9.29301 4.29301 9.29277 4.29325 9.29254L11.2929 2.29289ZM6 10.4142V20H18V10.4142L15.293 7.70724C15.2929 7.70715 15.2931 7.70733 15.293 7.70724L12 4.41421L6 10.4142ZM17 6.58579L18 7.58579V5H17V6.58579Z" fill="currentColor"/>
</svg>
