<svg width="24" height="24" viewBox="0 0 24 24" fill="none" xmlns="http://www.w3.org/2000/svg">
<path fill-rule="evenodd" clip-rule="evenodd" d="M12.8944 7.00625C12.3314 6.72472 11.6686 6.72472 11.1056 7.00625L5.23607 9.941L11.1056 12.8758C11.6686 13.1573 12.3314 13.1573 12.8944 12.8758L18.7639 9.941L12.8944 7.00625L13.3416 6.11182L12.8944 7.00625ZM10.2111 5.2174C11.3373 4.65434 12.6627 4.65434 13.7889 5.2174L21.4472 9.04658C21.786 9.21597 22 9.56223 22 9.941C22 10.3198 21.786 10.666 21.4472 10.8354L13.7889 14.6646C12.6627 15.2277 11.3373 15.2277 10.2111 14.6646L2.55279 10.8354C2.214 10.666 2 10.3198 2 9.941C2 9.56223 2.214 9.21597 2.55279 9.04658L10.2111 5.2174ZM4.93665 13.7913C5.03047 13.5402 5.02373 13.2524 4.89443 12.9938C4.64744 12.4998 4.04676 12.2996 3.55279 12.5466L2.55279 13.0466C2.214 13.2159 2 13.5622 2 13.941C2 14.3198 2.214 14.666 2.55279 14.8354L10.6584 18.8882C11.5029 19.3105 12.4971 19.3105 13.3416 18.8882L21.4472 14.8354C21.786 14.666 22 14.3198 22 13.941C22 13.5622 21.786 13.2159 21.4472 13.0466L20.4472 12.5466C19.9532 12.2996 19.3526 12.4998 19.1056 12.9938C18.9763 13.2524 18.9695 13.5402 19.0634 13.7913L12.4472 17.0993C12.1657 17.2401 11.8343 17.2401 11.5528 17.0993L4.93665 13.7913Z" fill="currentColor"/>
</svg>
