<svg width="24" height="24" viewBox="0 0 24 24" fill="none" xmlns="http://www.w3.org/2000/svg">
<path fill-rule="evenodd" clip-rule="evenodd" d="M12.8944 5.00625C12.3314 4.72472 11.6686 4.72472 11.1056 5.00625L5.23607 7.941L11.1056 10.8758C11.6686 11.1573 12.3314 11.1573 12.8944 10.8758L18.7639 7.941L12.8944 5.00625L13.3416 4.11182L12.8944 5.00625ZM10.2111 3.2174C11.3373 2.65434 12.6627 2.65434 13.7889 3.2174L21.4472 7.04658C21.786 7.21597 22 7.56223 22 7.941C22 8.31978 21.786 8.66604 21.4472 8.83543L13.7889 12.6646C12.6627 13.2277 11.3373 13.2277 10.2111 12.6646L2.55279 8.83543C2.214 8.66604 2 8.31978 2 7.941C2 7.56223 2.214 7.21597 2.55279 7.04658L10.2111 3.2174ZM4.93665 11.7913C5.03047 11.5402 5.02373 11.2524 4.89443 10.9938C4.64744 10.4998 4.04676 10.2996 3.55279 10.5466L2.55279 11.0466C2.214 11.2159 2 11.5622 2 11.941C2 12.3198 2.214 12.666 2.55279 12.8354L10.6584 16.8882C11.5029 17.3105 12.4971 17.3105 13.3416 16.8882L21.4472 12.8354C21.786 12.666 22 12.3198 22 11.941C22 11.5622 21.786 11.2159 21.4472 11.0466L20.4472 10.5466C19.9532 10.2996 19.3526 10.4998 19.1056 10.9938C18.9763 11.2524 18.9695 11.5402 19.0634 11.7913L12.4472 15.0993C12.1657 15.2401 11.8343 15.2401 11.5528 15.0993L4.93665 11.7913ZM4.93665 15.7913C5.03047 15.5402 5.02373 15.2524 4.89443 14.9938C4.64744 14.4998 4.04676 14.2996 3.55279 14.5466L2.55279 15.0466C2.214 15.2159 2 15.5622 2 15.941C2 16.3198 2.214 16.666 2.55279 16.8354L10.6584 20.8882C11.5029 21.3105 12.4971 21.3105 13.3416 20.8882L21.4472 16.8354C21.786 16.666 22 16.3198 22 15.941C22 15.5622 21.786 15.2159 21.4472 15.0466L20.4472 14.5466C19.9532 14.2996 19.3526 14.4998 19.1056 14.9938C18.9763 15.2524 18.9695 15.5402 19.0634 15.7913L12.4472 19.0993C12.1657 19.2401 11.8343 19.2401 11.5528 19.0993L4.93665 15.7913Z" fill="currentColor"/>
</svg>
