<svg width="24" height="24" viewBox="0 0 24 24" fill="none" xmlns="http://www.w3.org/2000/svg">
<path fill-rule="evenodd" clip-rule="evenodd" d="M1 12C1 9.23858 3.23858 7 6 7C6.55228 7 7 7.44772 7 8C7 8.55228 6.55228 9 6 9C4.34315 9 3 10.3431 3 12C3 13.6569 4.34315 15 6 15H10.5C12.1569 15 13.5 13.6569 13.5 12C13.5 11.4477 13.9477 11 14.5 11C15.0523 11 15.5 11.4477 15.5 12C15.5 14.7614 13.2614 17 10.5 17H6C3.23858 17 1 14.7614 1 12ZM8.5 12C8.5 9.23858 10.7386 7 13.5 7H18C20.7614 7 23 9.23858 23 12C23 14.7614 20.7614 17 18 17C17.4477 17 17 16.5523 17 16C17 15.4477 17.4477 15 18 15C19.6569 15 21 13.6569 21 12C21 10.3431 19.6569 9 18 9H13.5C11.8431 9 10.5 10.3431 10.5 12C10.5 12.5523 10.0523 13 9.5 13C8.94772 13 8.5 12.5523 8.5 12Z" fill="currentColor"/>
</svg>
