<svg width="24" height="24" viewBox="0 0 24 24" fill="none" xmlns="http://www.w3.org/2000/svg">
<path fill-rule="evenodd" clip-rule="evenodd" d="M2 5C2 3.34315 3.34315 2 5 2H8C9.65685 2 11 3.34315 11 5V6C11 7.65685 9.65685 9 8 9H5C3.34315 9 2 7.65685 2 6V5ZM5 4C4.44772 4 4 4.44772 4 5V6C4 6.55228 4.44772 7 5 7H8C8.55228 7 9 6.55228 9 6V5C9 4.44772 8.55228 4 8 4H5ZM13 5C13 3.34315 14.3431 2 16 2H19C20.6569 2 22 3.34315 22 5V10C22 11.6569 20.6569 13 19 13H16C14.3431 13 13 11.6569 13 10V5ZM16 4C15.4477 4 15 4.44772 15 5V10C15 10.5523 15.4477 11 16 11H19C19.5523 11 20 10.5523 20 10V5C20 4.44772 19.5523 4 19 4H16ZM2 14C2 12.3431 3.34315 11 5 11H8C9.65685 11 11 12.3431 11 14V19C11 20.6569 9.65685 22 8 22H5C3.34315 22 2 20.6569 2 19V14ZM5 13C4.44772 13 4 13.4477 4 14V19C4 19.5523 4.44772 20 5 20H8C8.55228 20 9 19.5523 9 19V14C9 13.4477 8.55228 13 8 13H5ZM13 18C13 16.3431 14.3431 15 16 15H19C20.6569 15 22 16.3431 22 18V19C22 20.6569 20.6569 22 19 22H16C14.3431 22 13 20.6569 13 19V18ZM16 17C15.4477 17 15 17.4477 15 18V19C15 19.5523 15.4477 20 16 20H19C19.5523 20 20 19.5523 20 19V18C20 17.4477 19.5523 17 19 17H16Z" fill="currentColor"/>
</svg>
