<svg width="24" height="24" viewBox="0 0 24 24" fill="none" xmlns="http://www.w3.org/2000/svg">
<path fill-rule="evenodd" clip-rule="evenodd" d="M9 7C8.44772 7 8 7.44772 8 8C8 8.55228 8.44772 9 9 9C9.55228 9 10 8.55228 10 8C10 7.44772 9.55228 7 9 7ZM6.17071 7C6.58254 5.83481 7.69378 5 9 5C10.3062 5 11.4175 5.83481 11.8293 7L21 7C21.5523 7 22 7.44772 22 8C22 8.55229 21.5523 9 21 9L11.8293 9C11.4175 10.1652 10.3062 11 9 11C7.69378 11 6.58254 10.1652 6.17071 9H3C2.44772 9 2 8.55228 2 8C2 7.44772 2.44772 7 3 7H6.17071ZM12.1707 15C12.5825 13.8348 13.6938 13 15 13C16.3062 13 17.4175 13.8348 17.8293 15H21C21.5523 15 22 15.4477 22 16C22 16.5523 21.5523 17 21 17H17.8293C17.4175 18.1652 16.3062 19 15 19C13.6938 19 12.5825 18.1652 12.1707 17L3 17C2.44772 17 2 16.5523 2 16C2 15.4477 2.44772 15 3 15L12.1707 15ZM15 15C14.4477 15 14 15.4477 14 16C14 16.5523 14.4477 17 15 17C15.5523 17 16 16.5523 16 16C16 15.4477 15.5523 15 15 15Z" fill="currentColor"/>
</svg>
