<svg width="24" height="24" viewBox="0 0 24 24" fill="none" xmlns="http://www.w3.org/2000/svg">
<path fill-rule="evenodd" clip-rule="evenodd" d="M1 8C1 6.34315 2.34314 5 4 5H20C21.6569 5 23 6.34315 23 8V9C23 9.55229 22.5523 10 22 10C20.8954 10 20 10.8954 20 12C20 13.1046 20.8954 14 22 14C22.5523 14 23 14.4477 23 15V16C23 17.6569 21.6569 19 20 19H15.0027C15.0018 19 15.0009 19 15 19C14.9991 19 14.9982 19 14.9973 19L4 19C2.34315 19 1 17.6569 1 16V15C1 14.4477 1.44772 14 2 14C3.10457 14 4 13.1046 4 12C4 10.8954 3.10457 10 2 10C1.44772 10 1 9.55229 1 9V8ZM16 17H20C20.5523 17 21 16.5523 21 16V15.874C19.2748 15.4299 18 13.8638 18 12C18 10.1362 19.2748 8.57006 21 8.12602V8C21 7.44772 20.5523 7 20 7H16V17ZM14 7V17L4 17C3.44772 17 3 16.5523 3 16V15.874C4.72523 15.4299 6 13.8638 6 12C6 10.1362 4.72523 8.57006 3 8.12602V8C3 7.44772 3.44772 7 4 7H14Z" fill="currentColor"/>
</svg>
