<svg width="24" height="24" viewBox="0 0 24 24" fill="none" xmlns="http://www.w3.org/2000/svg">
<path opacity="0.2" fill-rule="evenodd" clip-rule="evenodd" d="M4 7C4 4.23858 6.23858 2 9 2H15C17.7614 2 20 4.23858 20 7V18.6516C20 21.2146 16.9936 22.5973 15.0476 20.9293L12.6508 18.8749C12.2763 18.5539 11.7237 18.5539 11.3492 18.8749L8.95237 20.9293C7.00635 22.5973 4 21.2146 4 18.6516V7Z" fill="currentColor"/>
<path fill-rule="evenodd" clip-rule="evenodd" d="M4 7C4 4.23858 6.23858 2 9 2L15 2C17.7614 2 20 4.23858 20 7L20 18.6516C20 21.2146 16.9936 22.5973 15.0476 20.9293L12.6508 18.8749C12.2763 18.5539 11.7237 18.5539 11.3492 18.8749L8.95237 20.9293C7.00635 22.5973 4 21.2146 4 18.6516L4 7ZM9 4C7.34315 4 6 5.34315 6 7L6 18.6516C6 19.5059 7.00212 19.9668 7.65079 19.4108L10.0476 17.3564C11.1711 16.3934 12.8289 16.3934 13.9524 17.3564L16.3492 19.4108C16.9979 19.9668 18 19.5059 18 18.6516L18 7C18 5.34315 16.6569 4 15 4L9 4Z" fill="currentColor"/>
</svg>
