<svg width="24" height="24" viewBox="0 0 24 24" fill="none" xmlns="http://www.w3.org/2000/svg">
<path opacity="0.2" fill-rule="evenodd" clip-rule="evenodd" d="M3.57212 5.43149C5.66827 3.33533 9.06682 3.33534 11.163 5.43149L12 6.26854L12.837 5.43153C14.9332 3.33537 18.3317 3.33537 20.4279 5.43153C22.524 7.52768 22.524 10.9262 20.4279 13.0224L14.2357 19.2145C13.001 20.4493 10.999 20.4493 9.76424 19.2145L3.57211 13.0223C1.47596 10.9262 1.47596 7.52765 3.57212 5.43149Z" fill="currentColor"/>
<path fill-rule="evenodd" clip-rule="evenodd" d="M9.74879 6.84568C8.43368 5.53057 6.30147 5.53057 4.98636 6.84568C3.67126 8.16078 3.67125 10.293 4.98636 11.6081L11.1785 17.8003C11.6322 18.254 12.3678 18.254 12.8216 17.8003L19.0137 11.6081C20.3288 10.293 20.3288 8.16082 19.0137 6.84571C17.6986 5.5306 15.5664 5.5306 14.2513 6.84571L12.7072 8.38983C12.3166 8.78036 11.6835 8.78036 11.2929 8.38983L9.74879 6.84568ZM3.57215 5.43146C5.6683 3.3353 9.06685 3.33531 11.163 5.43146L12.0001 6.26851L12.8371 5.4315C14.9332 3.33534 18.3318 3.33534 20.4279 5.4315C22.5241 7.52765 22.5241 10.9262 20.4279 13.0223L14.2358 19.2145C13.001 20.4493 10.999 20.4493 9.76428 19.2145L3.57214 13.0223C1.47599 10.9262 1.47599 7.52762 3.57215 5.43146Z" fill="currentColor"/>
</svg>
