<svg width="24" height="24" viewBox="0 0 24 24" fill="none" xmlns="http://www.w3.org/2000/svg">
<path fill-rule="evenodd" clip-rule="evenodd" d="M10.2029 4.08956C10.9606 2.63681 13.0394 2.63682 13.7971 4.08956L15.8144 7.95765C15.8184 7.96535 15.8259 7.97062 15.8345 7.9718L20.2482 8.57872C21.9452 8.81207 22.6054 10.9149 21.3463 12.0764L18.2267 14.954C18.22 14.9602 18.2169 14.9694 18.2185 14.9784L18.9648 19.0958C19.2622 20.7369 17.5609 22.0148 16.0677 21.2719L12.0119 19.2541C12.0044 19.2504 11.9956 19.2504 11.9881 19.2541L7.93231 21.2719C6.43912 22.0148 4.7378 20.7369 5.03523 19.0958L5.78149 14.9784C5.78312 14.9694 5.78003 14.9602 5.77329 14.954L2.65372 12.0764C1.39458 10.9149 2.05479 8.81207 3.75183 8.57872L8.16552 7.9718C8.17411 7.97062 8.1816 7.96535 8.18562 7.95765L10.2029 4.08956Z" fill="currentColor"/>
</svg>
