<svg width="24" height="24" viewBox="0 0 24 24" fill="none" xmlns="http://www.w3.org/2000/svg">
<path opacity="0.2" fill-rule="evenodd" clip-rule="evenodd" d="M10.2029 4.08956C10.9606 2.63681 13.0394 2.63682 13.7971 4.08956L15.8144 7.95765C15.8184 7.96535 15.8259 7.97062 15.8345 7.9718L20.2482 8.57872C21.9452 8.81207 22.6054 10.9149 21.3463 12.0764L18.2267 14.954C18.22 14.9602 18.2169 14.9694 18.2185 14.9784L18.9648 19.0958C19.2622 20.7369 17.5609 22.0148 16.0677 21.2719L12.0119 19.2541C12.0044 19.2504 11.9956 19.2504 11.9881 19.2541L7.93231 21.2719C6.43912 22.0148 4.7378 20.7369 5.03523 19.0958L5.78149 14.9784C5.78312 14.9694 5.78003 14.9602 5.77329 14.954L2.65372 12.0764C1.39458 10.9149 2.05479 8.81207 3.75183 8.57872L8.16552 7.9718C8.17411 7.97062 8.1816 7.96535 8.18562 7.95765L10.2029 4.08956Z" fill="currentColor"/>
<path fill-rule="evenodd" clip-rule="evenodd" d="M10.2029 4.0895C10.9606 2.63675 13.0394 2.63675 13.7971 4.0895L15.8144 7.95759C15.8184 7.96529 15.8259 7.97056 15.8345 7.97174L20.2482 8.57866C21.9452 8.81201 22.6054 10.9148 21.3463 12.0763L18.2267 14.9539C18.22 14.9601 18.2169 14.9693 18.2185 14.9784L18.9648 19.0958C19.2622 20.7368 17.5609 22.0147 16.0677 21.2718L12.0119 19.2541C12.0044 19.2503 11.9956 19.2503 11.9881 19.2541L7.93232 21.2718C6.43913 22.0147 4.73781 20.7368 5.03524 19.0958L5.7815 14.9784C5.78313 14.9693 5.78004 14.9601 5.7733 14.9539L2.65373 12.0763C1.39459 10.9148 2.0548 8.81201 3.75184 8.57866L8.16553 7.97174C8.17412 7.97056 8.18161 7.96529 8.18562 7.95759L10.2029 4.0895ZM11.9835 5.00319C11.9834 5.00325 11.9806 5.00609 11.9763 5.01434L9.95895 8.88243C9.65532 9.46462 9.08847 9.86365 8.43798 9.9531L4.02429 10.56C4.01869 10.5608 4.01506 10.5617 4.01307 10.5623C4.01192 10.5626 4.01113 10.5629 4.01063 10.5631C4.01055 10.5631 4.01049 10.5631 4.01043 10.5632C4.00924 10.5645 4.0053 10.5692 4.00238 10.5785C3.99947 10.5878 3.99996 10.594 4.0002 10.5957C4.00048 10.5962 4.001 10.5969 4.00186 10.598C4.00316 10.5996 4.00562 10.6024 4.00978 10.6062L7.12935 13.4838C7.63921 13.9541 7.87314 14.6525 7.74944 15.335L7.00318 19.4525C7.00225 19.4576 7.002 19.461 7.00193 19.463C7.00186 19.465 7.00196 19.466 7.00198 19.4662C7.00201 19.4665 7.00202 19.4664 7.00196 19.4662C7.00191 19.466 7.00186 19.4659 7.00189 19.466C7.0021 19.4665 7.00494 19.4723 7.01345 19.4786C7.02196 19.485 7.02831 19.4861 7.02886 19.4862C7.02894 19.4862 7.02883 19.4862 7.02861 19.4862C7.02837 19.4862 7.02832 19.4862 7.02858 19.4862C7.02876 19.4862 7.02936 19.4861 7.03042 19.4857C7.03079 19.4856 7.03122 19.4855 7.0317 19.4853C7.03356 19.4847 7.03681 19.4835 7.04146 19.4812L11.0972 17.4634C11.6658 17.1805 12.3342 17.1805 12.9028 17.4634L16.9586 19.4812C16.9632 19.4835 16.9665 19.4847 16.9683 19.4853C16.9693 19.4857 16.97 19.4859 16.9705 19.486C16.971 19.4861 16.9713 19.4862 16.9714 19.4862C16.9717 19.4862 16.9716 19.4862 16.9714 19.4862C16.9712 19.4862 16.9711 19.4862 16.9712 19.4862C16.9717 19.4861 16.9781 19.485 16.9866 19.4786C16.9951 19.4723 16.9979 19.4665 16.9981 19.466C16.9982 19.4659 16.9981 19.466 16.9981 19.4662C16.998 19.4664 16.998 19.4665 16.998 19.4662C16.9981 19.466 16.9982 19.465 16.9981 19.463C16.998 19.461 16.9978 19.4576 16.9968 19.4525L16.2506 15.335C16.1269 14.6525 16.3608 13.9541 16.8707 13.4838L19.9902 10.6062C19.9944 10.6024 19.9969 10.5996 19.9982 10.598C19.9989 10.597 19.9995 10.5963 19.9997 10.5958L19.9998 10.5961L19.9997 10.5962L19.9997 10.5962C19.9997 10.5962 19.9998 10.596 19.9998 10.5957C20 10.5955 20 10.5954 20.0001 10.5953C20.0002 10.5952 20.0001 10.5953 19.9999 10.5956L19.9997 10.5958C19.9998 10.5958 19.9998 10.5958 19.9998 10.5957C20.0001 10.594 20.0005 10.5878 19.9976 10.5785C19.9947 10.5692 19.9908 10.5645 19.9896 10.5632C19.9898 10.5633 19.99 10.5633 19.99 10.5633C19.9902 10.5634 19.9901 10.5634 19.9897 10.5632L19.9894 10.5629C19.9893 10.5628 19.9892 10.5628 19.9892 10.5628C19.9893 10.5628 19.9894 10.5629 19.9896 10.5632C19.9891 10.563 19.9883 10.5627 19.987 10.5623C19.985 10.5617 19.9813 10.5608 19.9757 10.56L15.562 9.9531C14.9116 9.86365 14.3447 9.46462 14.0411 8.88243L12.0238 5.01434C12.0195 5.00609 12.0166 5.00325 12.0166 5.00319C12.0163 5.00297 12.0165 5.00311 12.0165 5.00309C12.0158 5.0027 12.0102 4.99994 12 4.99994C11.9899 4.99994 11.9842 5.0027 11.9836 5.00309C11.9835 5.00311 11.9837 5.00297 11.9835 5.00319Z" fill="currentColor"/>
</svg>
