<svg width="24" height="24" viewBox="0 0 24 24" fill="none" xmlns="http://www.w3.org/2000/svg">
<path fill-rule="evenodd" clip-rule="evenodd" d="M3 2C3.55228 2 4 2.44772 4 3V19C4 19.5523 4.44772 20 5 20H21C21.5523 20 22 20.4477 22 21C22 21.5523 21.5523 22 21 22H5C3.34315 22 2 20.6569 2 19V3C2 2.44772 2.44772 2 3 2ZM19.717 7.30292C20.102 7.69891 20.0931 8.33201 19.6971 8.71699L16.0971 12.217C15.9104 12.3985 15.6603 12.5 15.4 12.5H11.006L7.69708 15.717C7.30109 16.102 6.66799 16.0931 6.283 15.6971C5.89802 15.3011 5.90694 14.668 6.30292 14.283L9.90292 10.783C10.0896 10.6015 10.3397 10.5 10.6 10.5H14.994L18.3029 7.28301C18.6989 6.89802 19.332 6.90694 19.717 7.30292Z" fill="currentColor"/>
</svg>
