<svg width="24" height="24" viewBox="0 0 24 24" fill="none" xmlns="http://www.w3.org/2000/svg">
<path fill-rule="evenodd" clip-rule="evenodd" d="M3 2C3.55228 2 4 2.44772 4 3V19C4 19.5523 4.44772 20 5 20H21C21.5523 20 22 20.4477 22 21C22 21.5523 21.5523 22 21 22H5C3.34315 22 2 20.6569 2 19V3C2 2.44772 2.44772 2 3 2ZM13.7573 5.00001L18 5C18.2652 5 18.5196 5.10536 18.7071 5.2929C18.8946 5.48044 19 5.73479 19 6.00001L19 10.2427C18.9999 10.7949 18.5522 11.2427 17.9999 11.2426C17.4477 11.2426 16.9999 10.7949 17 10.2426L17 8.41424L7.70711 17.7071C7.31658 18.0976 6.68342 18.0976 6.29289 17.7071C5.90237 17.3166 5.90237 16.6834 6.29289 16.2929L15.5858 7L13.7573 7.00001C13.205 7.00001 12.7573 6.55229 12.7573 6.00001C12.7573 5.44772 13.205 5.00001 13.7573 5.00001Z" fill="currentColor"/>
</svg>
