<svg width="24" height="24" viewBox="0 0 24 24" fill="none" xmlns="http://www.w3.org/2000/svg">
<path fill-rule="evenodd" clip-rule="evenodd" d="M3 2C3.55228 2 4 2.44772 4 3V19C4 19.5523 4.44772 20 5 20H21C21.5523 20 22 20.4477 22 21C22 21.5523 21.5523 22 21 22H5C3.34315 22 2 20.6569 2 19V3C2 2.44772 2.44772 2 3 2ZM6.283 7.30292C6.66799 6.90694 7.30109 6.89802 7.69708 7.28301L11.006 10.5H15.4C15.6603 10.5 15.9104 10.6015 16.0971 10.783L19.6971 14.283C20.0931 14.668 20.102 15.3011 19.717 15.6971C19.332 16.0931 18.6989 16.102 18.3029 15.717L14.994 12.5H10.6C10.3397 12.5 10.0896 12.3985 9.90292 12.217L6.30292 8.71699C5.90694 8.33201 5.89802 7.69891 6.283 7.30292Z" fill="currentColor"/>
</svg>
