<svg width="24" height="24" viewBox="0 0 24 24" fill="none" xmlns="http://www.w3.org/2000/svg">
<path fill-rule="evenodd" clip-rule="evenodd" d="M11 4.06189C7.05369 4.55399 4 7.92038 4 12C4 16.4183 7.58172 20 12 20C13.8487 20 15.551 19.3729 16.9056 18.3199L11.2929 12.7071C11.1054 12.5196 11 12.2652 11 12V4.06189ZM13 4.06273V10.4924L18.9236 7.99201C18.6041 7.44008 18.2192 6.92738 17.7765 6.46541C17.6997 6.38525 17.6213 6.30669 17.5412 6.22979C17.3291 6.02612 17.1052 5.83354 16.8701 5.65317C15.7393 4.78548 14.4023 4.23941 13 4.06273ZM19.7014 9.83458L13.7577 12.3435L18.3196 16.9054C18.9709 16.0663 19.4508 15.1031 19.7274 14.0706C19.9091 13.3923 20 12.6962 20 12C20 11.3038 19.9091 10.6077 19.7274 9.92945C19.7189 9.89775 19.7102 9.86613 19.7014 9.83458ZM22 12C22 17.5228 17.5228 22 12 22C6.47715 22 2 17.5228 2 12C2 6.47715 6.47715 2 12 2C14.6873 2 17.1271 3.06003 18.9239 4.78477C18.9735 4.83232 19.0225 4.88038 19.0711 4.92893C19.1413 4.99918 19.2105 5.07046 19.2787 5.14276C20.9659 6.93305 22 9.34576 22 12Z" fill="currentColor"/>
</svg>
