<svg width="24" height="24" viewBox="0 0 24 24" fill="none" xmlns="http://www.w3.org/2000/svg">
<path fill-rule="evenodd" clip-rule="evenodd" d="M11.1636 3.0389C11.5749 1.84967 12.7241 0.923004 14.1854 1.21923C15.3461 1.45453 16.466 1.8767 17.5 2.47368C18.534 3.07066 19.4596 3.82943 20.2437 4.71699C20.8304 5.38111 20.9879 6.16575 20.8461 6.89266C21.5465 7.1333 22.1473 7.66202 22.4291 8.5022C22.8057 9.62505 23 10.806 23 12C23 13.1939 22.8057 14.3749 22.4291 15.4977C21.955 16.9113 20.5778 17.4433 19.3423 17.2048C18.5944 18.2599 17.6257 19.1443 16.5 19.7942C15.1318 20.5841 13.5798 21 12 21C10.4202 21 8.86817 20.5841 7.5 19.7942C6.13183 19.0043 4.99569 17.8681 4.20577 16.5C3.41586 15.1318 3 13.5798 3 12C3 10.4201 3.41586 8.86813 4.20577 7.49996C4.99569 6.13179 6.13183 4.99565 7.5 4.20573C8.62572 3.5558 9.87589 3.15909 11.1636 3.0389ZM11 5.07175C10.1222 5.19846 9.27334 5.49129 8.5 5.93778C7.43587 6.55216 6.5522 7.43583 5.93782 8.49996C5.32344 9.56409 5 10.7712 5 12C5 13.2287 5.32344 14.4358 5.93782 15.5C6.5522 16.5641 7.43587 17.4478 8.5 18.0621C9.56414 18.6765 10.7712 19 12 19C13.2288 19 14.4359 18.6765 15.5 18.0621C16.2733 17.6156 16.9514 17.0269 17.5 16.3301L14.5005 14.5983L15 13.732L15.5 12.866L19.4282 15.1339C19.6726 15.2751 19.9381 15.294 20.1428 15.2323C20.3345 15.1745 20.4691 15.0518 20.5329 14.8618C20.841 13.943 21 12.9768 21 12C21 11.0231 20.841 10.0569 20.5329 9.13815C20.4691 8.9481 20.3345 8.82544 20.1428 8.76764C19.9381 8.70588 19.6726 8.72486 19.4282 8.86598L15.5 11.1339C14.8333 11.5188 14.8334 12.4811 15.5 12.866L15 13.732L14.5005 14.5983C13.297 13.9035 12.8172 12.5811 13.0621 11.3867C11.9053 11.0017 11 9.92556 11 8.53586V5.07175ZM14.5 9.40188L18.4282 7.13393C18.6726 6.99281 18.8218 6.77243 18.8707 6.56422C18.9164 6.36936 18.8776 6.1914 18.7448 6.04117C18.1033 5.31497 17.346 4.69416 16.5 4.20573C15.654 3.7173 14.7377 3.37188 13.788 3.17936C13.5916 3.13954 13.418 3.19484 13.2721 3.3319C13.1163 3.47835 13 3.7177 13 3.99996V8.53586C13 9.30566 13.8333 9.78678 14.5 9.40188Z" fill="currentColor"/>
</svg>
