<svg width="40" height="40" viewBox="0 0 40 40" fill="none" xmlns="http://www.w3.org/2000/svg">
<rect width="40" height="40" rx="16" fill="#EFAC21"/>
<path d="M20 20.0353H19C19 20.5876 19.4477 21.0353 20 21.0353V20.0353ZM21 14.9966C21 14.4443 20.5523 13.9966 20 13.9966C19.4477 13.9966 19 14.4443 19 14.9966H21ZM25.0387 21.0353C25.591 21.0353 26.0387 20.5876 26.0387 20.0353C26.0387 19.483 25.591 19.0353 25.0387 19.0353V21.0353ZM31.134 13.6071C31.4101 14.0854 32.0217 14.2493 32.5 13.9731C32.9783 13.697 33.1422 13.0854 32.866 12.6071L31.134 13.6071ZM28.9846 8.2036C28.5448 7.86959 27.9175 7.95539 27.5835 8.39523C27.2495 8.83508 27.3353 9.4624 27.7751 9.7964L28.9846 8.2036ZM7.13397 12.6071C6.85783 13.0854 7.02171 13.697 7.5 13.9731C7.97829 14.2493 8.58988 14.0854 8.86603 13.6071L7.13397 12.6071ZM12.2249 9.7964C12.6647 9.4624 12.7505 8.83508 12.4165 8.39523C12.0825 7.95539 11.4552 7.86959 11.0154 8.2036L12.2249 9.7964ZM29.0774 20.0353C29.0774 25.0486 25.0133 29.1127 20 29.1127V31.1127C26.1179 31.1127 31.0774 26.1532 31.0774 20.0353H29.0774ZM20 29.1127C14.9867 29.1127 10.9226 25.0486 10.9226 20.0353H8.92261C8.92261 26.1532 13.8821 31.1127 20 31.1127V29.1127ZM10.9226 20.0353C10.9226 15.022 14.9867 10.9579 20 10.9579V8.95794C13.8821 8.95794 8.92261 13.9175 8.92261 20.0353H10.9226ZM20 10.9579C25.0133 10.9579 29.0774 15.022 29.0774 20.0353H31.0774C31.0774 13.9175 26.1179 8.95794 20 8.95794V10.9579ZM21 20.0353V14.9966H19V20.0353H21ZM20 21.0353H25.0387V19.0353H20V21.0353ZM32.866 12.6071C31.878 10.8957 30.5584 9.39868 28.9846 8.2036L27.7751 9.7964C29.137 10.8306 30.2789 12.1261 31.134 13.6071L32.866 12.6071ZM8.86603 13.6071C9.72107 12.1261 10.863 10.8306 12.2249 9.7964L11.0154 8.2036C9.44157 9.39868 8.12203 10.8957 7.13397 12.6071L8.86603 13.6071Z" fill="#FEFEFE"/>
</svg>
