<svg width="25" height="28" viewBox="0 0 25 28" fill="none" xmlns="http://www.w3.org/2000/svg">
    <path
        d="M20.5455 14.8903C20.512 11.353 23.5969 9.63202 23.738 9.5519C21.9909 7.13402 19.2828 6.80366 18.3312 6.77732C16.0568 6.55013 13.8506 8.06913 12.692 8.06913C11.5103 8.06913 9.72612 6.79927 7.80322 6.83659C5.32876 6.87281 3.01388 8.23266 1.74428 10.3443C-0.875871 14.65 1.07825 20.9773 3.58855 24.4576C4.84428 26.1621 6.31161 28.0652 8.2322 27.9983C10.1112 27.9247 10.813 26.8612 13.0805 26.8612C15.3272 26.8612 15.9863 27.9983 17.945 27.9555C19.9616 27.9247 21.2312 26.2433 22.443 24.5235C23.8941 22.5698 24.4769 20.6459 24.5 20.5471C24.4526 20.5317 20.5837 19.1301 20.5455 14.8903Z"
        fill="white" />
    <path
        d="M16.8454 4.48785C17.856 3.28823 18.5474 1.65619 18.3555 0C16.8928 0.0614623 15.0635 0.960349 14.0102 2.13362C13.0782 3.16751 12.2457 4.86211 12.4607 6.45574C14.1038 6.57208 15.7908 5.6688 16.8454 4.48785Z"
        fill="white" />
</svg>