<svg width="180" height="72" viewBox="0 0 180 72" fill="none" xmlns="http://www.w3.org/2000/svg">
<path d="M57.155 10.1347C56.6801 10.4416 56.2053 10.5644 55.7304 10.503C55.2762 10.4416 54.8633 10.3086 54.4917 10.104C54.1407 9.89946 53.862 9.67442 53.6555 9.42892C53.4697 9.16296 53.4078 8.97884 53.4697 8.87655C53.9033 8.67196 54.3781 8.37532 54.8943 7.98661C55.4104 7.5979 55.8956 7.16827 56.3498 6.69773C56.804 6.22719 57.1963 5.73619 57.5266 5.22473C57.8569 4.71327 58.0531 4.24273 58.115 3.8131C58.1976 3.36302 58.1047 2.97431 57.8363 2.64698C57.5886 2.31964 57.1034 2.10483 56.3808 2.00254C55.6788 1.9207 54.853 1.9207 53.9033 2.00254C52.9536 2.08437 51.9729 2.25827 50.9613 2.52423C49.9703 2.79018 48.9896 3.14821 48.0193 3.59829C47.0489 4.02792 46.1921 4.53937 45.4489 5.13267C44.7263 5.72596 44.1585 6.41131 43.7456 7.18873C43.3327 7.94569 43.1779 8.77425 43.2811 9.67442C43.3637 10.4928 43.6217 11.2702 44.0553 12.0067C44.4889 12.7432 44.9947 13.4592 45.5728 14.1548C46.1715 14.8504 46.8012 15.546 47.4618 16.2416C48.1225 16.9167 48.7212 17.6123 49.258 18.3283C49.7948 19.0443 50.218 19.7911 50.5277 20.5685C50.8581 21.3459 50.9819 22.1745 50.8993 23.0542C50.7961 24.1385 50.3832 25.2432 49.6606 26.3684C48.938 27.4937 47.9883 28.4961 46.8115 29.3758C45.6553 30.276 44.3237 30.992 42.8166 31.5239C41.3094 32.0763 39.73 32.3014 38.0784 32.1991C37.2113 32.1582 36.2719 31.9945 35.2602 31.7081C34.2486 31.4421 33.3092 31.0432 32.4421 30.5113C31.575 29.9998 30.8421 29.3554 30.2433 28.5779C29.6652 27.8005 29.3556 26.8901 29.3143 25.8468C29.273 24.742 29.5311 23.6884 30.0885 22.6859C30.6459 21.663 31.6266 20.6708 33.0305 19.7092C33.1337 19.6274 33.3712 19.6479 33.7428 19.7706C34.135 19.8729 34.5376 20.0264 34.9505 20.2309C35.3635 20.4151 35.7248 20.6196 36.0344 20.8447C36.3648 21.0697 36.5093 21.2436 36.468 21.3664C35.9725 21.6323 35.4564 21.9085 34.9196 22.1949C34.4034 22.4814 33.9286 22.8087 33.495 23.1769C33.0615 23.5247 32.7002 23.9339 32.4111 24.4044C32.1427 24.875 32.0085 25.4274 32.0085 26.0616C32.0085 26.9413 32.2047 27.6573 32.5969 28.2097C32.9892 28.7416 33.495 29.161 34.1144 29.4679C34.7338 29.7748 35.4151 29.9793 36.1583 30.0816C36.9222 30.1839 37.6758 30.2351 38.419 30.2351C39.6784 30.2351 40.8346 30.0612 41.8875 29.7134C42.9611 29.3861 43.8798 28.9155 44.6437 28.3018C45.4076 27.688 45.996 26.9413 46.4089 26.0616C46.8425 25.1819 47.0592 24.1999 47.0592 23.1156C47.0386 22.3381 46.8321 21.6016 46.4399 20.9061C46.0476 20.19 45.5624 19.5047 44.9844 18.85C44.4269 18.1953 43.8179 17.5611 43.1572 16.9474C42.5172 16.3132 41.9288 15.6687 41.392 15.0141C40.8552 14.3389 40.4217 13.6536 40.0913 12.958C39.7816 12.2419 39.6681 11.4748 39.7507 10.6564C39.8539 9.69488 40.1739 8.76403 40.7107 7.86386C41.2475 6.96369 41.9288 6.1249 42.7546 5.34748C43.6011 4.5496 44.5611 3.83356 45.6347 3.19935C46.7289 2.54468 47.8644 2.00254 49.0412 1.57291C50.2387 1.12283 51.4568 0.795495 52.6955 0.590912C53.9343 0.36587 55.1317 0.284037 56.2879 0.345411C57.2376 0.406786 57.9705 0.631828 58.4866 1.02054C59.0028 1.40925 59.3538 1.90025 59.5396 2.49354C59.746 3.06637 59.808 3.71081 59.7254 4.42685C59.6428 5.1429 59.4776 5.85894 59.2299 6.57498C58.9821 7.27057 58.6725 7.93546 58.3008 8.56967C57.9292 9.20388 57.5473 9.72557 57.155 10.1347Z" fill="#FEFEFE"/>
<path d="M65.8842 17.4691C64.9552 19.1262 63.7371 20.5071 62.23 21.6119C60.7228 22.6962 59.0608 23.4838 57.244 23.9748C57.2234 24.3226 57.244 24.6704 57.306 25.0182C57.3679 25.366 57.4711 25.6933 57.6157 26.0002C57.7602 26.3071 57.9563 26.573 58.2041 26.7981C58.4518 27.0231 58.7615 27.1765 59.1331 27.2584C59.5873 27.3607 60.1035 27.3504 60.6815 27.2277C61.2803 27.0845 61.8996 26.8185 62.5396 26.4298C63.2003 26.0206 63.8713 25.4887 64.5526 24.8341C65.2339 24.1794 65.9049 23.3815 66.5656 22.4404C66.8959 21.9699 67.1953 21.5096 67.4636 21.0595C67.732 20.6094 67.9798 20.1798 68.2069 19.7706C68.2895 19.6683 68.3824 19.6172 68.4856 19.6172C68.6095 19.5967 68.7127 19.6172 68.7953 19.6786C68.8985 19.7399 68.9708 19.8218 69.0121 19.9241C69.0534 20.0264 69.0327 20.1491 68.9501 20.2923C68.6611 20.7424 68.3514 21.2334 68.0211 21.7653C67.6908 22.2972 67.3191 22.8598 66.9062 23.4531C66.5139 24.026 66.0701 24.609 65.5746 25.2023C65.0997 25.7752 64.5629 26.3275 63.9642 26.8594C63.3655 27.3914 62.7874 27.8005 62.23 28.0869C61.6725 28.3529 61.1461 28.5473 60.6506 28.67C60.1551 28.7723 59.7112 28.8234 59.3189 28.8234C58.9266 28.8439 58.6066 28.8541 58.3589 28.8541C56.955 28.8541 55.8608 28.4859 55.0762 27.7494C54.2917 27.0129 53.8685 26.0104 53.8065 24.742C53.7652 23.5759 53.9717 22.42 54.4259 21.2743C54.9007 20.1082 55.6543 18.85 56.6866 17.4997C57.0169 17.0701 57.4608 16.6098 58.0182 16.1188C58.5757 15.6073 59.195 15.1368 59.8764 14.7072C60.5577 14.2776 61.2803 13.9298 62.0442 13.6638C62.808 13.3978 63.5719 13.2751 64.3358 13.2956C64.8313 13.2956 65.2546 13.4081 65.6055 13.6331C65.9772 13.8582 66.2456 14.165 66.4107 14.5537C66.5759 14.922 66.6172 15.3618 66.5346 15.8733C66.4726 16.3643 66.2559 16.8962 65.8842 17.4691ZM57.3989 22.8701C57.3782 22.911 57.3679 22.9519 57.3679 22.9928C59.0402 22.5223 60.5473 21.7755 61.8893 20.7526C63.2313 19.7092 64.3152 18.4101 65.141 16.8553C65.43 16.262 65.5023 15.7608 65.3578 15.3516C65.2133 14.922 64.852 14.7583 64.2739 14.8606C63.4068 15.0243 62.5913 15.413 61.8274 16.0267C61.0635 16.6405 60.3822 17.3463 59.7834 18.1442C59.1847 18.9421 58.6789 19.7706 58.266 20.6299C57.8531 21.4687 57.564 22.2154 57.3989 22.8701Z" fill="#FEFEFE"/>
<path d="M74.5891 13.3876C74.4445 13.674 74.1762 14.2059 73.7839 14.9834C73.3916 15.7403 72.9477 16.6098 72.4522 17.5918C71.9774 18.5738 71.5025 19.607 71.0277 20.6912C70.5528 21.7755 70.1606 22.7678 69.8509 23.6679C69.5618 24.5681 69.3967 25.3148 69.3554 25.9081C69.3141 26.5014 69.4896 26.8083 69.8819 26.8288H70.2535C70.9554 26.6242 71.6058 26.2559 72.2045 25.724C72.8239 25.1921 73.3916 24.5886 73.9078 23.9134C74.4239 23.2383 74.8988 22.5325 75.3323 21.796C75.7865 21.0595 76.2098 20.3844 76.602 19.7706C76.664 19.6683 76.7465 19.6172 76.8498 19.6172C76.9736 19.5967 77.0769 19.6172 77.1595 19.6786C77.2627 19.7399 77.3349 19.8218 77.3762 19.9241C77.4175 20.0264 77.3969 20.1491 77.3143 20.2923C76.9014 20.9265 76.4988 21.571 76.1065 22.2256C75.7143 22.8803 75.3013 23.5145 74.8678 24.1283C74.4549 24.742 74.0007 25.3353 73.5052 25.9081C73.0303 26.481 72.5039 27.0027 71.9258 27.4732C71.7813 27.5959 71.5954 27.7392 71.3683 27.9028C71.1412 28.0665 70.8832 28.2199 70.5941 28.3631C70.3257 28.4859 70.0264 28.5984 69.696 28.7007C69.3864 28.7825 69.0457 28.8234 68.6741 28.8234C68.2405 28.803 67.8689 28.6905 67.5592 28.4859C67.2702 28.2608 67.0431 27.9642 66.8779 27.5959C66.7334 27.2277 66.6405 26.8083 66.5992 26.3378C66.5785 25.8468 66.6198 25.3353 66.7231 24.8034C66.8882 23.6782 67.1566 22.5836 67.5282 21.5198C67.8999 20.4355 68.3231 19.3717 68.798 18.3283C69.2934 17.2645 69.8096 16.2109 70.3464 15.1675C70.9038 14.1241 71.4509 13.0705 71.9877 12.0067C72.3387 11.2906 72.6793 10.5746 73.0097 9.85855C73.34 9.12205 73.6497 8.406 73.9387 7.71042C74.2484 7.01484 74.5168 6.34994 74.7439 5.71573C74.971 5.08152 75.1568 4.49846 75.3013 3.96654C75.5078 3.86425 75.7865 3.88471 76.1375 4.02792C76.4885 4.15067 76.8188 4.34502 77.1285 4.61098C77.4382 4.85648 77.6859 5.15313 77.8717 5.50092C78.0575 5.84871 78.0885 6.18627 77.9646 6.51361C77.8821 6.75911 77.7169 7.13759 77.4691 7.64905C77.242 8.14005 76.9736 8.70265 76.664 9.33686C76.3543 9.97107 76.0136 10.6462 75.642 11.3622C75.2704 12.0578 74.9194 12.7329 74.5891 13.3876Z" fill="#FEFEFE"/>
<path d="M88.5421 17.4997C88.5421 17.643 88.4905 17.7555 88.3873 17.8373C88.284 17.9191 88.1705 17.9703 88.0466 17.9907C87.9434 17.9907 87.8505 17.9498 87.7679 17.868C87.6853 17.7862 87.644 17.6634 87.644 17.4997C87.6027 17.2952 87.5614 17.0394 87.5201 16.7326C87.4995 16.4052 87.4272 16.0983 87.3034 15.8119C87.2001 15.5051 87.0246 15.2391 86.7769 15.0141C86.5291 14.789 86.1678 14.6663 85.693 14.6458C85.1149 14.6253 84.5471 14.7379 83.9897 14.9834C83.4529 15.2289 82.9368 15.5664 82.4413 15.9961C81.9458 16.4257 81.4813 16.9269 81.0477 17.4997C80.6141 18.0521 80.2219 18.6352 79.8709 19.2489C79.5199 19.8422 79.2102 20.4457 78.9418 21.0595C78.6941 21.6528 78.498 22.2052 78.3534 22.7166C78.2502 23.0644 78.1676 23.4838 78.1057 23.9748C78.0438 24.4658 78.0644 24.9261 78.1676 25.3558C78.2709 25.7649 78.4876 26.082 78.818 26.3071C79.1483 26.5321 79.6644 26.5628 80.3664 26.3991C80.6967 26.3173 81.0993 26.082 81.5742 25.6933C82.049 25.3046 82.5239 24.8545 82.9987 24.3431C83.4942 23.8111 83.9587 23.2588 84.3923 22.6859C84.8259 22.1131 85.1768 21.6119 85.4452 21.1822C85.6723 20.589 85.8582 20.0161 86.0027 19.4637C86.1678 18.9114 86.2711 18.4306 86.3124 18.0214C86.5188 17.9191 86.7975 17.9396 87.1485 18.0828C87.4995 18.226 87.8298 18.4306 88.1395 18.6966C88.4492 18.9625 88.6969 19.2694 88.8828 19.6172C89.0686 19.965 89.1098 20.3025 89.0066 20.6299C88.8827 20.9367 88.7279 21.305 88.5421 21.7346C88.3769 22.1642 88.2014 22.6041 88.0156 23.0542C87.8505 23.5043 87.6853 23.9544 87.5201 24.4044C87.3756 24.8341 87.2724 25.233 87.2104 25.6013C87.1692 25.949 87.1692 26.2355 87.2104 26.4605C87.2724 26.6855 87.4169 26.8083 87.644 26.8288H88.0156C88.7176 26.6242 89.3679 26.2559 89.9666 25.724C90.586 25.1921 91.1538 24.5886 91.6699 23.9134C92.2067 23.2383 92.6919 22.5325 93.1254 21.796C93.5796 21.0595 93.9926 20.3844 94.3642 19.7706C94.4261 19.6683 94.519 19.6172 94.6429 19.6172C94.7668 19.5967 94.87 19.6172 94.9526 19.6786C95.0558 19.7399 95.1281 19.8218 95.1694 19.9241C95.2107 20.0264 95.19 20.1491 95.1074 20.2923C94.6945 20.9265 94.2919 21.571 93.8997 22.2256C93.5074 22.8803 93.0945 23.5145 92.6609 24.1283C92.2273 24.742 91.7628 25.3353 91.2673 25.9081C90.7925 26.481 90.266 27.0027 89.6879 27.4732C89.5434 27.5959 89.3576 27.7392 89.1305 27.9028C88.924 28.0665 88.6763 28.2199 88.3873 28.3631C88.1189 28.5063 87.8195 28.6291 87.4892 28.7314C87.1795 28.8132 86.8388 28.8439 86.4672 28.8234C85.8891 28.7825 85.4143 28.6393 85.0426 28.3938C84.6917 28.1483 84.4233 27.8312 84.2375 27.4425C84.0517 27.0538 83.9484 26.6139 83.9278 26.1229C83.9278 25.6319 84 25.1307 84.1446 24.6193C83.7316 25.1307 83.2878 25.6319 82.8129 26.1229C82.3587 26.6139 81.8839 27.0538 81.3884 27.4425C80.8929 27.8312 80.387 28.1483 79.8709 28.3938C79.3548 28.6189 78.8489 28.7109 78.3534 28.67C77.4657 28.6291 76.774 28.4245 76.2785 28.0563C75.8037 27.6675 75.4527 27.2175 75.2256 26.706C74.9985 26.1945 74.8643 25.6626 74.823 25.1103C74.8024 24.5579 74.823 24.0976 74.885 23.7293C74.9882 23.0133 75.2153 22.2256 75.5663 21.3664C75.9173 20.5071 76.3715 19.6581 76.9289 18.8193C77.4863 17.9601 78.1263 17.152 78.8489 16.395C79.5922 15.6176 80.3767 14.9731 81.2025 14.4617C82.049 13.9298 82.9265 13.5615 83.8349 13.3569C84.7433 13.1319 85.6723 13.1421 86.622 13.3876C87.035 13.5104 87.3653 13.7149 87.613 14.0014C87.8814 14.2673 88.0879 14.5947 88.2324 14.9834C88.3769 15.3516 88.4698 15.7608 88.5111 16.2109C88.5524 16.6405 88.5627 17.0701 88.5421 17.4997Z" fill="#FEFEFE"/>
<path d="M116.73 22.9621C116.441 23.4122 116.049 23.9748 115.553 24.6499C115.079 25.3046 114.542 25.9388 113.943 26.5526C113.344 27.1663 112.715 27.6982 112.054 28.1483C111.414 28.5779 110.774 28.7928 110.134 28.7928C109.783 28.7928 109.432 28.7314 109.081 28.6086C108.751 28.4859 108.462 28.3018 108.214 28.0563C107.966 27.8108 107.77 27.4937 107.625 27.1049C107.481 26.7162 107.419 26.2559 107.44 25.724C107.46 25.1921 107.533 24.6704 107.656 24.1589C107.78 23.627 107.935 23.0746 108.121 22.5018C108.327 21.9085 108.575 21.2743 108.864 20.5992C109.153 19.9036 109.473 19.1364 109.824 18.2976C110.051 17.7657 110.227 17.2849 110.351 16.8553C110.475 16.4052 110.495 16.0779 110.413 15.8733C110.33 15.6687 110.113 15.638 109.762 15.7812C109.432 15.904 108.906 16.2722 108.183 16.886C107.378 17.5816 106.665 18.2567 106.046 18.9114C105.427 19.5456 104.818 20.2514 104.219 21.0288C104.054 21.3766 103.899 21.7346 103.754 22.1029C103.61 22.4507 103.465 22.8189 103.321 23.2076C103.032 24.0669 102.784 24.9466 102.578 25.8468C102.371 26.7265 102.237 27.6369 102.175 28.5779C102.175 28.7212 102.061 28.7621 101.834 28.7007C101.607 28.6393 101.349 28.537 101.06 28.3938C100.792 28.2302 100.544 28.046 100.317 27.8414C100.09 27.6369 99.9659 27.4527 99.9453 27.2891C100.007 25.8161 100.265 24.3635 100.719 22.9314C101.174 21.4789 101.7 20.0161 102.299 18.5431C102.609 17.7452 102.825 17.0906 102.949 16.5791C103.073 16.0472 103.011 15.7506 102.763 15.6892C102.598 15.6687 102.351 15.7506 102.02 15.9347C101.69 16.0983 101.246 16.4155 100.689 16.886C99.8834 17.602 99.1711 18.2874 98.5517 18.9421C97.9323 19.5967 97.2923 20.323 96.6317 21.1209C96.1155 22.3075 95.682 23.5145 95.331 24.742C94.98 25.949 94.7529 27.2277 94.6497 28.5779C94.6497 28.7212 94.5361 28.7621 94.309 28.7007C94.0819 28.6393 93.8238 28.537 93.5348 28.3938C93.2664 28.2302 93.0187 28.046 92.7916 27.8414C92.5645 27.6369 92.4406 27.4527 92.4199 27.2891C92.4819 26.082 92.6677 24.9057 92.9774 23.76C93.3077 22.5939 93.6793 21.438 94.0922 20.2923C94.5051 19.1262 94.9387 17.9703 95.3929 16.8246C95.8471 15.6789 96.2497 14.5231 96.6007 13.3569C96.8071 13.2546 97.0755 13.2751 97.4059 13.4183C97.7568 13.5411 98.0872 13.7354 98.3969 14.0014C98.7066 14.2673 98.9543 14.5742 99.1401 14.922C99.3259 15.2698 99.3672 15.6073 99.264 15.9347C99.202 16.1597 99.1195 16.3745 99.0162 16.5791C98.913 16.7837 98.7995 16.9985 98.6756 17.2236C99.1091 16.753 99.5737 16.2927 100.069 15.8426C100.565 15.3925 101.07 14.9936 101.587 14.6458C102.103 14.2776 102.629 13.9809 103.166 13.7559C103.703 13.5308 104.25 13.3978 104.807 13.3569C105.034 13.3569 105.272 13.449 105.52 13.6331C105.788 13.7968 106.015 14.0116 106.201 14.2776C106.407 14.5231 106.562 14.789 106.665 15.0754C106.769 15.3618 106.779 15.6176 106.696 15.8426C106.593 16.1086 106.48 16.3643 106.356 16.6098C106.232 16.8553 106.108 17.111 105.984 17.377C106.418 16.886 106.882 16.4052 107.378 15.9347C107.873 15.4641 108.389 15.0447 108.926 14.6765C109.463 14.3082 110.01 14.0116 110.567 13.7866C111.146 13.5411 111.724 13.3978 112.302 13.3569C112.508 13.3569 112.735 13.449 112.983 13.6331C113.251 13.7968 113.479 14.0116 113.664 14.2776C113.871 14.5231 114.026 14.789 114.129 15.0754C114.232 15.3618 114.232 15.6176 114.129 15.8426C113.613 17.2338 113.138 18.4101 112.704 19.3717C112.291 20.3128 111.92 21.1618 111.589 21.9187C111.259 22.6553 110.991 23.3713 110.784 24.0669C110.578 24.742 110.444 25.5092 110.382 26.3684C110.382 26.4298 110.392 26.5014 110.413 26.5833C110.433 26.6651 110.475 26.7367 110.537 26.7981C110.619 26.8594 110.722 26.8901 110.846 26.8901C110.991 26.8901 111.177 26.839 111.404 26.7367C112.044 26.4503 112.777 25.949 113.602 25.233C114.428 24.517 115.244 23.5656 116.049 22.3791C116.359 21.929 116.637 21.4891 116.885 21.0595C117.153 20.6094 117.401 20.1798 117.628 19.7706C117.711 19.6683 117.804 19.6172 117.907 19.6172C118.031 19.5967 118.134 19.6172 118.217 19.6786C118.32 19.7399 118.392 19.8218 118.434 19.9241C118.475 20.0264 118.454 20.1491 118.372 20.2923L116.73 22.9621Z" fill="#FEFEFE"/>
<path d="M129.642 17.4997C129.642 17.643 129.59 17.7555 129.487 17.8373C129.384 17.9191 129.27 17.9703 129.146 17.9907C129.043 17.9907 128.95 17.9498 128.868 17.868C128.785 17.7862 128.744 17.6634 128.744 17.4997C128.703 17.2952 128.661 17.0394 128.62 16.7326C128.599 16.4052 128.527 16.0983 128.403 15.8119C128.3 15.5051 128.124 15.2391 127.877 15.0141C127.629 14.789 127.268 14.6663 126.793 14.6458C126.215 14.6253 125.647 14.7379 125.09 14.9834C124.553 15.2289 124.037 15.5664 123.541 15.9961C123.046 16.4257 122.581 16.9269 122.148 17.4997C121.714 18.0521 121.322 18.6352 120.971 19.2489C120.62 19.8422 120.31 20.4457 120.042 21.0595C119.794 21.6528 119.598 22.2052 119.453 22.7166C119.35 23.0644 119.267 23.4838 119.206 23.9748C119.144 24.4658 119.164 24.9261 119.267 25.3558C119.371 25.7649 119.587 26.082 119.918 26.3071C120.248 26.5321 120.764 26.5628 121.466 26.3991C121.797 26.3173 122.199 26.082 122.674 25.6933C123.149 25.3046 123.624 24.8545 124.099 24.3431C124.594 23.8111 125.059 23.2588 125.492 22.6859C125.926 22.1131 126.277 21.6119 126.545 21.1822C126.772 20.589 126.958 20.0161 127.103 19.4637C127.268 18.9114 127.371 18.4306 127.412 18.0214C127.619 17.9191 127.897 17.9396 128.248 18.0828C128.599 18.226 128.93 18.4306 129.239 18.6966C129.549 18.9625 129.797 19.2694 129.983 19.6172C130.168 19.965 130.21 20.3025 130.106 20.6299C129.983 20.9367 129.828 21.305 129.642 21.7346C129.477 22.1642 129.301 22.6041 129.115 23.0542C128.95 23.5043 128.785 23.9544 128.62 24.4044C128.475 24.8341 128.372 25.233 128.31 25.6013C128.269 25.949 128.269 26.2355 128.31 26.4605C128.372 26.6855 128.517 26.8083 128.744 26.8288H129.115C129.817 26.6242 130.468 26.2559 131.066 25.724C131.686 25.1921 132.254 24.5886 132.77 23.9134C133.307 23.2383 133.792 22.5325 134.225 21.796C134.679 21.0595 135.092 20.3844 135.464 19.7706C135.526 19.6683 135.619 19.6172 135.743 19.6172C135.867 19.5967 135.97 19.6172 136.052 19.6786C136.156 19.7399 136.228 19.8218 136.269 19.9241C136.311 20.0264 136.29 20.1491 136.207 20.2923C135.794 20.9265 135.392 21.571 134.999 22.2256C134.607 22.8803 134.194 23.5145 133.761 24.1283C133.327 24.742 132.863 25.3353 132.367 25.9081C131.892 26.481 131.366 27.0027 130.788 27.4732C130.643 27.5959 130.457 27.7392 130.23 27.9028C130.024 28.0665 129.776 28.2199 129.487 28.3631C129.219 28.5063 128.919 28.6291 128.589 28.7314C128.279 28.8132 127.939 28.8439 127.567 28.8234C126.989 28.7825 126.514 28.6393 126.142 28.3938C125.792 28.1483 125.523 27.8312 125.337 27.4425C125.152 27.0538 125.048 26.6139 125.028 26.1229C125.028 25.6319 125.1 25.1307 125.244 24.6193C124.832 25.1307 124.388 25.6319 123.913 26.1229C123.459 26.6139 122.984 27.0538 122.488 27.4425C121.993 27.8312 121.487 28.1483 120.971 28.3938C120.455 28.6189 119.949 28.7109 119.453 28.67C118.566 28.6291 117.874 28.4245 117.378 28.0563C116.904 27.6675 116.553 27.2175 116.325 26.706C116.098 26.1945 115.964 25.6626 115.923 25.1103C115.902 24.5579 115.923 24.0976 115.985 23.7293C116.088 23.0133 116.315 22.2256 116.666 21.3664C117.017 20.5071 117.471 19.6581 118.029 18.8193C118.586 17.9601 119.226 17.152 119.949 16.395C120.692 15.6176 121.477 14.9731 122.302 14.4617C123.149 13.9298 124.026 13.5615 124.935 13.3569C125.843 13.1319 126.772 13.1421 127.722 13.3876C128.135 13.5104 128.465 13.7149 128.713 14.0014C128.981 14.2673 129.188 14.5947 129.332 14.9834C129.477 15.3516 129.57 15.7608 129.611 16.2109C129.652 16.6405 129.663 17.0701 129.642 17.4997Z" fill="#FEFEFE"/>
<path d="M135.75 13.449C135.605 13.4899 135.481 13.4899 135.378 13.449C135.275 13.4081 135.202 13.3467 135.161 13.2649C135.12 13.1626 135.12 13.0603 135.161 12.958C135.202 12.8352 135.285 12.7329 135.409 12.6511C136.916 11.6896 138.464 10.8815 140.054 10.2268C140.653 8.9993 141.148 7.86386 141.541 6.82048C141.954 5.7771 142.274 4.82579 142.501 3.96654C142.707 3.86425 142.986 3.88471 143.337 4.02792C143.688 4.15067 144.018 4.34502 144.328 4.61098C144.637 4.85648 144.885 5.15313 145.071 5.50092C145.257 5.84871 145.288 6.18627 145.164 6.51361C145.081 6.73865 144.937 7.06598 144.73 7.49561C144.545 7.92523 144.307 8.42646 144.018 8.9993C146.083 8.54921 148.168 8.36509 150.274 8.44692C150.336 8.61059 150.346 8.79471 150.305 8.9993C150.284 9.20388 150.222 9.39824 150.119 9.58236C150.036 9.74603 149.923 9.88924 149.778 10.012C149.634 10.1143 149.489 10.1552 149.345 10.1347C148.312 10.0734 147.29 10.0836 146.279 10.1654C145.288 10.2268 144.266 10.37 143.213 10.595C142.986 11.0656 142.748 11.5361 142.501 12.0067C142.253 12.4772 142.015 12.9375 141.788 13.3876C141.644 13.674 141.375 14.2059 140.983 14.9834C140.591 15.7403 140.147 16.6098 139.652 17.5918C139.177 18.5738 138.702 19.607 138.227 20.6912C137.752 21.7755 137.36 22.7678 137.05 23.6679C136.761 24.5681 136.596 25.3148 136.555 25.9081C136.513 26.5014 136.689 26.8083 137.081 26.8288H137.453C138.155 26.6242 138.805 26.2559 139.404 25.724C140.023 25.1921 140.591 24.5886 141.107 23.9134C141.623 23.2383 142.098 22.5325 142.532 21.796C142.986 21.0595 143.409 20.3844 143.801 19.7706C143.863 19.6683 143.946 19.6172 144.049 19.6172C144.173 19.5967 144.276 19.6172 144.359 19.6786C144.462 19.7399 144.534 19.8218 144.576 19.9241C144.617 20.0264 144.596 20.1491 144.514 20.2923C144.101 20.9265 143.698 21.571 143.306 22.2256C142.914 22.8803 142.501 23.5145 142.067 24.1283C141.654 24.742 141.2 25.3353 140.704 25.9081C140.23 26.481 139.703 27.0027 139.125 27.4732C138.981 27.5959 138.795 27.7392 138.568 27.9028C138.341 28.0665 138.082 28.2199 137.793 28.3631C137.525 28.4859 137.226 28.5984 136.895 28.7007C136.586 28.7825 136.245 28.8234 135.873 28.8234C135.44 28.803 135.068 28.6905 134.759 28.4859C134.469 28.2608 134.242 27.9642 134.077 27.5959C133.933 27.2277 133.84 26.8083 133.798 26.3378C133.778 25.8468 133.819 25.3353 133.922 24.8034C134.088 23.6782 134.356 22.5836 134.728 21.5198C135.099 20.4355 135.522 19.3717 135.997 18.3283C136.472 17.2645 136.988 16.2109 137.546 15.1675C138.103 14.1241 138.65 13.0705 139.187 12.0067L139.28 11.8225C138.702 12.0476 138.113 12.2931 137.515 12.5591C136.937 12.825 136.348 13.1217 135.75 13.449Z" fill="#FEFEFE"/>
<path d="M3.21372 48.3714C3.13114 48.4737 2.92468 48.4532 2.59435 48.31C2.28466 48.1668 1.95433 47.952 1.60336 47.6656C1.27302 47.3792 0.994307 47.0621 0.767205 46.7143C0.519456 46.346 0.447196 45.9982 0.550425 45.6709C0.963339 44.0751 1.65497 42.6328 2.62532 41.344C3.59566 40.0346 4.72086 38.8787 6.00089 37.8763C7.30157 36.8738 8.69515 36.0248 10.1816 35.3292C11.6681 34.6132 13.1443 34.0506 14.6101 33.6414C16.076 33.2118 17.4696 32.9253 18.7909 32.7821C20.1122 32.6185 21.2581 32.5878 22.2284 32.6901C22.5587 32.731 22.8994 32.8537 23.2504 33.0583C23.6013 33.2629 23.911 33.4982 24.1794 33.7641C24.4685 34.0301 24.6956 34.3165 24.8607 34.6234C25.0465 34.9098 25.1395 35.1655 25.1395 35.3906C25.1395 35.5952 24.9846 36.0146 24.6749 36.6488C24.3652 37.2625 23.9523 38.0195 23.4362 38.9196C22.92 39.8198 22.3213 40.8427 21.64 41.9884C20.9587 43.1136 20.2671 44.29 19.5651 45.5175C18.8632 46.7245 18.1715 47.952 17.4902 49.2C16.8089 50.4479 16.1895 51.6447 15.6321 52.7904C15.0953 53.9361 14.6411 54.9999 14.2695 55.9819C13.9185 56.9639 13.7224 57.8027 13.6811 58.4983C13.6398 59.1939 13.7843 59.7053 14.1146 60.0327C14.445 60.3805 15.0127 60.4725 15.8179 60.3089C16.8089 60.1043 17.7999 59.6542 18.7909 58.9586C19.8025 58.2426 20.7626 57.4038 21.671 56.4422C22.6 55.4602 23.4671 54.4169 24.2723 53.3121C25.0982 52.2073 25.8311 51.1435 26.4711 50.1206C27.1524 48.5248 27.8853 46.9393 28.6699 45.364C29.4544 43.7683 30.208 42.2441 30.9306 40.7916C31.6738 39.3186 32.3345 37.9376 32.9126 36.6488C33.5113 35.3394 33.9655 34.1631 34.2752 33.1197C34.3577 32.9969 34.5745 33.0072 34.9255 33.1504C35.2765 33.2936 35.6275 33.5289 35.9784 33.8562C36.3294 34.1631 36.6185 34.5313 36.8456 34.9609C37.0933 35.3906 37.1449 35.8304 37.0004 36.2805C35.0391 39.9016 33.3977 42.9704 32.0764 45.4868C30.7757 47.9827 29.7228 50.0592 28.9176 51.7163C28.1124 53.353 27.5034 54.6419 27.0905 55.583C26.6982 56.5036 26.4195 57.2094 26.2543 57.7004C26.0891 58.171 25.9962 58.4983 25.9756 58.6824C25.9756 58.8461 25.9653 58.9995 25.9446 59.1427C25.8827 59.6133 25.8517 60.0736 25.8517 60.5237C25.8724 60.9738 25.955 61.3829 26.0995 61.7512C26.244 62.1194 26.4608 62.4365 26.7498 62.7025C27.0595 62.9684 27.4518 63.1628 27.9266 63.2855C28.0711 63.3469 28.1228 63.4492 28.0815 63.5924C28.0608 63.7356 27.9886 63.8788 27.8647 64.022C27.7408 64.1653 27.586 64.288 27.4002 64.3903C27.2143 64.4926 27.0492 64.5233 26.9047 64.4824C26.3059 64.3391 25.7898 64.0937 25.3562 63.7459C24.9227 63.3981 24.5717 62.9787 24.3033 62.4877C24.0349 62.0171 23.8491 61.4954 23.7459 60.9226C23.6426 60.3702 23.622 59.8179 23.6839 59.2655C23.7665 58.6108 23.8801 57.9561 24.0246 57.3015C24.1691 56.6468 24.3549 55.9717 24.582 55.2761C23.942 55.9921 23.2607 56.698 22.5381 57.3935C21.8361 58.0891 21.1032 58.7336 20.3393 59.3269C19.5961 59.8997 18.8322 60.4009 18.0477 60.8305C17.2838 61.2602 16.5199 61.5568 15.756 61.7205C14.703 61.966 13.8256 61.966 13.1237 61.7205C12.4217 61.4954 11.8643 61.1067 11.4514 60.5544C11.0591 60.0224 10.8113 59.378 10.7081 58.621C10.6049 57.8436 10.6358 57.0458 10.801 56.2274C11.0901 54.9385 11.6165 53.486 12.3804 51.8698C13.1443 50.2536 14.0527 48.5555 15.1056 46.7757C16.1586 44.9753 17.3147 43.1341 18.5741 41.2519C19.8335 39.3697 21.1135 37.5182 22.4142 35.6974C22.4762 35.6156 22.4762 35.5338 22.4142 35.452C22.3729 35.3497 22.2903 35.2576 22.1665 35.1758C22.0632 35.0939 21.929 35.0326 21.7639 34.9916C21.6194 34.9507 21.4748 34.9303 21.3303 34.9303C19.8025 35.0326 18.2851 35.3292 16.7779 35.8202C15.2915 36.3112 13.8669 36.9352 12.5043 37.6921C11.1623 38.4286 9.91325 39.2572 8.75709 40.1778C7.60093 41.0985 6.59961 42.0395 5.75314 43.0011C4.92731 43.9626 4.2873 44.9139 3.83309 45.855C3.37889 46.7757 3.17243 47.6144 3.21372 48.3714Z" fill="#FEFEFE"/>
<path d="M38.948 44.0751C38.8035 44.3616 38.5351 44.8935 38.1428 45.6709C37.7506 46.4279 37.3067 47.2973 36.8112 48.2793C36.3363 49.2613 35.8615 50.2945 35.3866 51.3788C34.9118 52.4631 34.5195 53.4553 34.2098 54.3555C33.9208 55.2556 33.7556 56.0024 33.7143 56.5957C33.6731 57.189 33.8485 57.4958 34.2408 57.5163H34.6124C35.3144 57.3117 35.9647 56.9435 36.5634 56.4115C37.1828 55.8796 37.7506 55.2761 38.2667 54.601C38.7829 53.9258 39.2577 53.22 39.6913 52.4835C40.1455 51.747 40.5687 51.0719 40.961 50.4582C41.0229 50.3559 41.1055 50.3047 41.2087 50.3047C41.3326 50.2843 41.4358 50.3047 41.5184 50.3661C41.6216 50.4275 41.6939 50.5093 41.7352 50.6116C41.7765 50.7139 41.7558 50.8366 41.6733 50.9798C41.2603 51.6141 40.8578 52.2585 40.4655 52.9132C40.0732 53.5678 39.6603 54.202 39.2267 54.8158C38.8138 55.4295 38.3596 56.0228 37.8641 56.5957C37.3893 57.1685 36.8628 57.6902 36.2847 58.1607C36.1402 58.2835 35.9544 58.4267 35.7273 58.5904C35.5002 58.754 35.2421 58.9075 34.9531 59.0507C34.6847 59.1734 34.3853 59.2859 34.055 59.3882C33.7453 59.4701 33.4047 59.511 33.033 59.511C32.5995 59.4905 32.2279 59.378 31.9182 59.1734C31.6291 58.9484 31.402 58.6517 31.2369 58.2835C31.0923 57.9152 30.9994 57.4958 30.9581 57.0253C30.9375 56.5343 30.9788 56.0228 31.082 55.4909C31.2472 54.3657 31.5156 53.2712 31.8872 52.2073C32.2588 51.1231 32.6821 50.0592 33.1569 49.0158C33.6524 47.952 34.1685 46.8984 34.7053 45.855C35.2628 44.8116 35.8099 43.758 36.3467 42.6942C36.6977 41.9782 37.0383 41.2621 37.3686 40.5461C37.699 39.8096 38.0086 39.0935 38.2977 38.398C38.6074 37.7024 38.8758 37.0375 39.1029 36.4033C39.33 35.7691 39.5158 35.186 39.6603 34.6541C39.8668 34.5518 40.1455 34.5722 40.4965 34.7155C40.8474 34.8382 41.1778 35.0326 41.4874 35.2985C41.7971 35.544 42.0449 35.8407 42.2307 36.1885C42.4165 36.5362 42.4475 36.8738 42.3236 37.2011C42.241 37.4466 42.0759 37.8251 41.8281 38.3366C41.601 38.8276 41.3326 39.3902 41.0229 40.0244C40.7132 40.6586 40.3726 41.3337 40.001 42.0498C39.6293 42.7454 39.2784 43.4205 38.948 44.0751Z" fill="#FEFEFE"/>
<path d="M52.9011 48.1873C52.9011 48.3305 52.8494 48.443 52.7462 48.5248C52.643 48.6067 52.5294 48.6578 52.4056 48.6783C52.3023 48.6783 52.2094 48.6374 52.1268 48.5555C52.0443 48.4737 52.003 48.3509 52.003 48.1873C51.9617 47.9827 51.9204 47.727 51.8791 47.4201C51.8584 47.0928 51.7862 46.7859 51.6623 46.4995C51.5591 46.1926 51.3836 45.9266 51.1358 45.7016C50.8881 45.4765 50.5268 45.3538 50.0519 45.3333C49.4739 45.3129 48.9061 45.4254 48.3487 45.6709C47.8119 45.9164 47.2957 46.254 46.8002 46.6836C46.3048 47.1132 45.8402 47.6144 45.4067 48.1873C44.9731 48.7397 44.5808 49.3227 44.2299 49.9365C43.8789 50.5298 43.5692 51.1333 43.3008 51.747C43.0531 52.3403 42.8569 52.8927 42.7124 53.4042C42.6092 53.752 42.5266 54.1713 42.4647 54.6623C42.4027 55.1533 42.4234 55.6137 42.5266 56.0433C42.6298 56.4525 42.8466 56.7696 43.1769 56.9946C43.5073 57.2197 44.0234 57.2503 44.7254 57.0867C45.0557 57.0048 45.4583 56.7696 45.9331 56.3809C46.408 55.9921 46.8828 55.5421 47.3577 55.0306C47.8532 54.4987 48.3177 53.9463 48.7513 53.3735C49.1848 52.8006 49.5358 52.2994 49.8042 51.8698C50.0313 51.2765 50.2171 50.7037 50.3616 50.1513C50.5268 49.5989 50.63 49.1181 50.6713 48.709C50.8778 48.6067 51.1565 48.6271 51.5075 48.7703C51.8584 48.9135 52.1888 49.1181 52.4985 49.3841C52.8081 49.6501 53.0559 49.9569 53.2417 50.3047C53.4275 50.6525 53.4688 50.9901 53.3656 51.3174C53.2417 51.6243 53.0869 51.9925 52.9011 52.4222C52.7359 52.8518 52.5604 53.2916 52.3746 53.7417C52.2094 54.1918 52.0443 54.6419 51.8791 55.092C51.7346 55.5216 51.6313 55.9205 51.5694 56.2888C51.5281 56.6366 51.5281 56.923 51.5694 57.148C51.6313 57.3731 51.7759 57.4958 52.003 57.5163H52.3746C53.0765 57.3117 53.7269 56.9435 54.3256 56.4115C54.945 55.8796 55.5127 55.2761 56.0289 54.601C56.5657 53.9258 57.0508 53.22 57.4844 52.4835C57.9386 51.747 58.3515 51.0719 58.7231 50.4582C58.7851 50.3559 58.878 50.3047 59.0019 50.3047C59.1257 50.2843 59.229 50.3047 59.3115 50.3661C59.4148 50.4275 59.487 50.5093 59.5283 50.6116C59.5696 50.7139 59.549 50.8366 59.4664 50.9798C59.0535 51.6141 58.6509 52.2585 58.2586 52.9132C57.8663 53.5678 57.4534 54.202 57.0199 54.8158C56.5863 55.4295 56.1218 56.0228 55.6263 56.5957C55.1514 57.1685 54.625 57.6902 54.0469 58.1607C53.9024 58.2835 53.7166 58.4267 53.4895 58.5904C53.283 58.754 53.0353 58.9075 52.7462 59.0507C52.4778 59.1939 52.1785 59.3166 51.8481 59.4189C51.5384 59.5008 51.1978 59.5314 50.8262 59.511C50.2481 59.4701 49.7732 59.3269 49.4016 59.0814C49.0506 58.8359 48.7822 58.5188 48.5964 58.13C48.4106 57.7413 48.3074 57.3015 48.2867 56.8105C48.2867 56.3195 48.359 55.8182 48.5035 55.3068C48.0906 55.8182 47.6467 56.3195 47.1719 56.8105C46.7177 57.3015 46.2428 57.7413 45.7473 58.13C45.2518 58.5188 44.746 58.8359 44.2299 59.0814C43.7137 59.3064 43.2079 59.3985 42.7124 59.3575C41.8246 59.3166 41.133 59.112 40.6375 58.7438C40.1627 58.3551 39.8117 57.905 39.5846 57.3935C39.3575 56.8821 39.2233 56.3502 39.182 55.7978C39.1613 55.2454 39.182 54.7851 39.2439 54.4168C39.3472 53.7008 39.5743 52.9132 39.9252 52.0539C40.2762 51.1947 40.7304 50.3456 41.2878 49.5068C41.8453 48.6476 42.4853 47.8395 43.2079 47.0825C43.9511 46.3051 44.7357 45.6607 45.5615 45.1492C46.408 44.6173 47.2854 44.249 48.1938 44.0445C49.1022 43.8194 50.0313 43.8297 50.981 44.0751C51.3939 44.1979 51.7243 44.4025 51.972 44.6889C52.2404 44.9549 52.4468 45.2822 52.5914 45.6709C52.7359 46.0392 52.8288 46.4483 52.8701 46.8984C52.9114 47.328 52.9217 47.7577 52.9011 48.1873Z" fill="#FEFEFE"/>
<path d="M73.6258 53.6497C73.3367 54.0997 72.9445 54.6623 72.449 55.3375C71.9535 55.9921 71.4064 56.6264 70.8076 57.2401C70.2296 57.8539 69.6102 58.3858 68.9495 58.8359C68.2889 59.2655 67.6488 59.4803 67.0295 59.4803C66.6785 59.4803 66.3275 59.4189 65.9765 59.2962C65.6462 59.1734 65.3572 58.9893 65.1094 58.7438C64.8617 58.4983 64.6656 58.1812 64.521 57.7925C64.3765 57.4038 64.3146 56.9435 64.3352 56.4115C64.3559 55.8796 64.4281 55.3579 64.552 54.8465C64.6759 54.3146 64.8307 53.7622 65.0165 53.1893C65.223 52.5961 65.4707 51.9618 65.7598 51.2867C66.0488 50.5911 66.3688 49.8239 66.7198 48.9852C66.9469 48.4532 67.1224 47.9725 67.2463 47.5428C67.3701 47.0928 67.3908 46.7654 67.3082 46.5608C67.2256 46.3563 67.0088 46.3256 66.6579 46.4688C66.3069 46.5915 65.7701 46.9598 65.0475 47.5735C64.2423 48.2896 63.53 48.9749 62.9107 49.6296C62.2913 50.2843 61.6513 51.0105 60.9906 51.8084C60.4745 52.995 60.0409 54.202 59.6899 55.4295C59.339 56.6366 59.1119 57.9152 59.0086 59.2655C59.0086 59.4087 58.8951 59.4496 58.668 59.3882C58.4409 59.3269 58.1828 59.2246 57.8938 59.0814C57.6254 58.9177 57.3776 58.7336 57.1505 58.529C56.9234 58.3244 56.7995 58.1403 56.7789 57.9766C56.8408 56.7696 57.0266 55.5932 57.3363 54.4475C57.6667 53.2814 58.0383 52.1255 58.4512 50.9798C58.8641 49.8137 59.2977 48.6578 59.7519 47.5122C60.2061 46.3665 60.6087 45.2106 60.9596 44.0445C61.1661 43.9422 61.4345 43.9626 61.7648 44.1058C62.1158 44.2286 62.4461 44.4229 62.7558 44.6889C63.0655 44.9549 63.3133 45.2617 63.4991 45.6095C63.6849 45.9573 63.7262 46.2949 63.6229 46.6222C63.561 46.8473 63.4784 47.0621 63.3752 47.2667C63.272 47.4712 63.1584 47.6861 63.0345 47.9111C63.4681 47.4405 63.9326 46.9802 64.4281 46.5302C64.9236 46.0801 65.4294 45.6811 65.9456 45.3333C66.4617 44.9651 66.9882 44.6684 67.525 44.4434C68.0618 44.2184 68.6089 44.0854 69.1663 44.0445C69.3934 44.0445 69.6308 44.1365 69.8786 44.3206C70.147 44.4843 70.3741 44.6991 70.5599 44.9651C70.7663 45.2106 70.9212 45.4765 71.0244 45.763C71.1277 46.0494 71.138 46.3051 71.0554 46.5302C70.5392 47.9213 70.0644 49.0977 69.6308 50.0592C69.1973 51.0003 68.8153 51.8493 68.485 52.6063C68.1547 53.3428 67.8863 54.0588 67.6798 54.7544C67.4734 55.4295 67.3392 56.1967 67.2772 57.056C67.2772 57.1174 67.2876 57.189 67.3082 57.2708C67.3288 57.3526 67.3701 57.4242 67.4321 57.4856C67.5147 57.547 67.6282 57.5777 67.7727 57.5777C67.9172 57.5777 68.1031 57.5265 68.3302 57.4242C68.9289 57.1378 69.6412 56.6366 70.467 55.9205C71.3135 55.2045 72.1393 54.2532 72.9445 53.0666C73.2542 52.6165 73.5329 52.1767 73.7806 51.747C74.049 51.297 74.3071 50.8673 74.5548 50.4582C74.6168 50.3559 74.6994 50.3047 74.8026 50.3047C74.9265 50.2843 75.0297 50.3047 75.1123 50.3661C75.2155 50.4275 75.2774 50.5093 75.2981 50.6116C75.3394 50.7139 75.3187 50.8366 75.2361 50.9798L73.6258 53.6497Z" fill="#FEFEFE"/>
<path d="M80.3689 63.3776C81.3186 63.8482 82.2683 64.3494 83.218 64.8813C84.1677 65.4132 85.2826 65.9042 86.5626 66.3543C86.7072 66.3952 86.6865 66.5589 86.5007 66.8453C86.3149 67.1317 86.0362 67.3977 85.6646 67.6432C85.3136 67.9091 84.9007 68.1035 84.4258 68.2262C83.951 68.349 83.4864 68.2672 83.0322 67.9807C82.2477 67.5102 81.5251 67.0601 80.8644 66.6305C80.2038 66.2009 79.5741 65.8122 78.9753 65.4644C78.3766 66.3032 77.7573 67.0704 77.1172 67.7659C76.4979 68.482 75.8062 69.0957 75.0423 69.6072C74.2991 70.1391 73.4836 70.5483 72.5958 70.8347C71.6874 71.1416 70.6861 71.3052 69.5919 71.3257C68.9932 71.3257 68.4048 71.2745 67.8267 71.1722C67.228 71.07 66.6912 70.8756 66.2163 70.5892C65.7208 70.3232 65.3182 69.955 65.0085 69.4844C64.6782 69.0139 64.4924 68.4206 64.4511 67.7046C64.4098 66.8044 64.6059 65.9656 65.0395 65.1882C65.4731 64.4312 66.0718 63.7663 66.8357 63.1935C67.5789 62.6411 68.4461 62.2013 69.437 61.8739C70.428 61.5671 71.45 61.4136 72.5029 61.4136C73.1429 61.4136 73.7107 61.4341 74.2062 61.475C74.7223 61.5159 75.1972 61.5773 75.6308 61.6591C76.085 61.7614 76.5082 61.8739 76.9005 61.9967C77.3134 62.1194 77.7366 62.2524 78.1702 62.3956C78.6244 61.475 79.0476 60.5544 79.4399 59.6337C79.8321 58.7131 80.2347 57.8232 80.6477 56.9639C79.9663 57.6595 79.2541 58.2426 78.5108 58.7131C77.7676 59.1837 77.0347 59.3985 76.3121 59.3575C75.4243 59.3166 74.7327 59.112 74.2372 58.7438C73.7623 58.3551 73.4113 57.905 73.1842 57.3935C72.9571 56.8821 72.8229 56.3502 72.7816 55.7978C72.761 55.2454 72.7816 54.7851 72.8436 54.4168C72.9468 53.7008 73.1739 52.9132 73.5249 52.0539C73.8759 51.1947 74.3301 50.3456 74.8875 49.5068C75.4449 48.6476 76.085 47.8395 76.8076 47.0825C77.5508 46.3051 78.3353 45.6607 79.1612 45.1492C80.0076 44.6173 80.8851 44.249 81.7935 44.0445C82.7019 43.8194 83.631 43.8297 84.5807 44.0751C84.9936 44.1979 85.3239 44.4025 85.5717 44.6889C85.84 44.9549 86.0465 45.2822 86.191 45.6709C86.3355 46.0392 86.4285 46.4483 86.4697 46.8984C86.511 47.328 86.5214 47.7577 86.5007 48.1873C86.5007 48.3305 86.4491 48.443 86.3459 48.5248C86.2426 48.6067 86.1291 48.6578 86.0052 48.6783C85.902 48.6783 85.8091 48.6374 85.7265 48.5555C85.6439 48.4737 85.6026 48.3509 85.6026 48.1873C85.5613 47.9827 85.52 47.727 85.4787 47.4201C85.4581 47.0928 85.3858 46.7859 85.262 46.4995C85.1587 46.1926 84.9833 45.9266 84.7355 45.7016C84.4878 45.4765 84.1265 45.3538 83.6516 45.3333C83.0735 45.3129 82.5058 45.4254 81.9483 45.6709C81.4115 45.9164 80.8954 46.254 80.3999 46.6836C79.9044 47.1132 79.4399 47.6144 79.0063 48.1873C78.5728 48.7397 78.1805 49.3227 77.8295 49.9365C77.4785 50.5298 77.1689 51.1333 76.9005 51.747C76.6527 52.3403 76.4566 52.8927 76.3121 53.4042C76.2088 53.752 76.1262 54.1713 76.0643 54.6623C76.0024 55.1533 76.023 55.6137 76.1262 56.0433C76.2295 56.4525 76.4463 56.7696 76.7766 56.9946C77.1069 57.2197 77.6231 57.2503 78.325 57.0867C78.6141 57.0253 78.9547 56.8412 79.347 56.5343C79.7392 56.2274 80.1418 55.8694 80.5547 55.4602C80.9677 55.0306 81.3703 54.5703 81.7625 54.0793C82.1754 53.5883 82.5367 53.128 82.8464 52.6983C83.1768 51.9823 83.4864 51.2765 83.7755 50.5809C84.0645 49.8649 84.2297 49.2409 84.271 48.709C84.4774 48.6067 84.7665 48.6271 85.1381 48.7703C85.5304 48.9135 85.902 49.1284 86.253 49.4148C86.6039 49.6807 86.8827 49.9978 87.0891 50.3661C87.3162 50.7139 87.3678 51.0514 87.244 51.3788L80.3689 63.3776ZM71.2952 70.0675C72.5958 69.597 73.7004 68.8707 74.6088 67.8887C75.5378 66.9067 76.3637 65.7712 77.0863 64.4824C76.3637 64.155 75.6411 63.8993 74.9185 63.7152C74.1959 63.5515 73.401 63.4594 72.5339 63.439C71.7906 63.4185 70.9958 63.4901 70.1493 63.6538C69.3028 63.8175 68.5286 64.0732 67.8267 64.421C67.1247 64.7688 66.5466 65.2086 66.0924 65.7405C65.6382 66.2725 65.4215 66.8964 65.4421 67.6125C65.4627 68.3285 65.6795 68.8911 66.0924 69.3003C66.5054 69.7299 67.0112 70.0266 67.6099 70.1902C68.188 70.3744 68.8177 70.446 69.499 70.4051C70.1596 70.3641 70.7584 70.2516 71.2952 70.0675Z" fill="#FEFEFE"/>
<path d="M97.6092 44.781C97.6092 44.9037 97.4854 44.9549 97.2376 44.9344C97.0105 44.9139 96.7524 44.8628 96.4634 44.781C96.1743 44.6787 95.8853 44.5559 95.5963 44.4127C95.3279 44.2695 95.1627 44.1365 95.1008 44.0138C95.0801 42.5817 95.2556 41.3133 95.6272 40.2085C95.9989 39.0833 96.484 38.1013 97.0828 37.2625C97.7021 36.4033 98.4041 35.6668 99.1886 35.053C99.9938 34.4393 100.82 33.9176 101.666 33.4879C102.533 33.0583 103.38 32.7105 104.206 32.4446C105.052 32.1582 105.837 31.9127 106.559 31.7081C108.149 31.258 109.78 30.9818 111.452 30.8795C113.145 30.7568 114.828 30.7261 116.5 30.7874C118.172 30.8284 119.814 30.9204 121.424 31.0636C123.055 31.1864 124.603 31.2784 126.069 31.3398C127.535 31.4012 128.887 31.3807 130.126 31.2784C131.386 31.1762 132.5 30.9102 133.471 30.4806C133.615 30.4192 133.688 30.5215 133.688 30.7874C133.688 31.0534 133.636 31.3603 133.533 31.7081C133.45 32.0354 133.326 32.3525 133.161 32.6594C133.017 32.9663 132.872 33.1504 132.728 33.2118C131.613 33.6209 130.405 33.8767 129.104 33.979C127.804 34.0608 126.441 34.0608 125.016 33.979C123.612 33.8971 122.157 33.7744 120.65 33.6107C119.143 33.4266 117.615 33.2731 116.066 33.1504C114.539 33.0072 113.001 32.9458 111.452 32.9663C109.904 32.9663 108.386 33.0992 106.9 33.3652C105.744 33.5902 104.618 33.9483 103.524 34.4393C102.451 34.9303 101.491 35.6258 100.644 36.526C99.7977 37.4057 99.0957 38.5207 98.5383 39.871C98.0015 41.2212 97.6918 42.8579 97.6092 44.781ZM112.753 34.071C112.835 33.9278 113.042 33.9278 113.372 34.071C113.703 34.2142 114.033 34.4393 114.363 34.7461C114.694 35.053 114.972 35.4008 115.199 35.7895C115.426 36.1782 115.478 36.5465 115.354 36.8943C113.806 38.7764 112.288 40.8734 110.802 43.1852C109.315 45.4765 107.973 47.7986 106.776 50.1513C105.578 52.4835 104.577 54.734 103.772 56.9025C102.967 59.0507 102.471 60.9226 102.285 62.5184C102.265 62.6616 102.162 62.6411 101.976 62.457C101.79 62.2933 101.584 62.058 101.356 61.7512C101.15 61.4443 100.964 61.1272 100.799 60.7999C100.634 60.4725 100.572 60.227 100.613 60.0634C100.634 58.9791 100.84 57.7413 101.233 56.3502C101.645 54.9385 102.172 53.4553 102.812 51.9005C103.452 50.3252 104.185 48.7192 105.011 47.0825C105.837 45.4459 106.693 43.8501 107.581 42.2953C108.49 40.72 109.388 39.2367 110.275 37.8456C111.163 36.434 111.989 35.1758 112.753 34.071Z" fill="#FEFEFE"/>
<path d="M124.637 48.1873C124.637 48.3305 124.585 48.443 124.482 48.5248C124.379 48.6067 124.265 48.6578 124.141 48.6783C124.038 48.6783 123.945 48.6374 123.863 48.5555C123.78 48.4737 123.739 48.3509 123.739 48.1873C123.697 47.9827 123.656 47.727 123.615 47.4201C123.594 47.0928 123.522 46.7859 123.398 46.4995C123.295 46.1926 123.119 45.9266 122.872 45.7016C122.624 45.4765 122.263 45.3538 121.788 45.3333C121.21 45.3129 120.642 45.4254 120.084 45.6709C119.548 45.9164 119.031 46.254 118.536 46.6836C118.04 47.1132 117.576 47.6144 117.142 48.1873C116.709 48.7397 116.317 49.3227 115.966 49.9365C115.615 50.5298 115.305 51.1333 115.037 51.747C114.789 52.3403 114.593 52.8927 114.448 53.4042C114.345 53.752 114.262 54.1713 114.2 54.6623C114.138 55.1533 114.159 55.6137 114.262 56.0433C114.366 56.4525 114.582 56.7696 114.913 56.9946C115.243 57.2197 115.759 57.2503 116.461 57.0867C116.791 57.0048 117.194 56.7696 117.669 56.3809C118.144 55.9921 118.619 55.5421 119.093 55.0306C119.589 54.4987 120.053 53.9463 120.487 53.3735C120.921 52.8006 121.272 52.2994 121.54 51.8698C121.767 51.2765 121.953 50.7037 122.097 50.1513C122.263 49.5989 122.366 49.1181 122.407 48.709C122.613 48.6067 122.892 48.6271 123.243 48.7703C123.594 48.9135 123.924 49.1181 124.234 49.3841C124.544 49.6501 124.792 49.9569 124.977 50.3047C125.163 50.6525 125.205 50.9901 125.101 51.3174C124.977 51.6243 124.823 51.9925 124.637 52.4222C124.472 52.8518 124.296 53.2916 124.11 53.7417C123.945 54.1918 123.78 54.6419 123.615 55.092C123.47 55.5216 123.367 55.9205 123.305 56.2888C123.264 56.6366 123.264 56.923 123.305 57.148C123.367 57.3731 123.512 57.4958 123.739 57.5163H124.11C124.812 57.3117 125.463 56.9435 126.061 56.4115C126.681 55.8796 127.248 55.2761 127.765 54.601C128.301 53.9258 128.787 53.22 129.22 52.4835C129.674 51.747 130.087 51.0719 130.459 50.4582C130.521 50.3559 130.614 50.3047 130.738 50.3047C130.861 50.2843 130.965 50.3047 131.047 50.3661C131.15 50.4275 131.223 50.5093 131.264 50.6116C131.305 50.7139 131.285 50.8366 131.202 50.9798C130.789 51.6141 130.387 52.2585 129.994 52.9132C129.602 53.5678 129.189 54.202 128.756 54.8158C128.322 55.4295 127.858 56.0228 127.362 56.5957C126.887 57.1685 126.361 57.6902 125.783 58.1607C125.638 58.2835 125.452 58.4267 125.225 58.5904C125.019 58.754 124.771 58.9075 124.482 59.0507C124.214 59.1939 123.914 59.3166 123.584 59.4189C123.274 59.5008 122.934 59.5314 122.562 59.511C121.984 59.4701 121.509 59.3269 121.137 59.0814C120.786 58.8359 120.518 58.5188 120.332 58.13C120.146 57.7413 120.043 57.3015 120.022 56.8105C120.022 56.3195 120.095 55.8182 120.239 55.3068C119.826 55.8182 119.382 56.3195 118.908 56.8105C118.453 57.3015 117.979 57.7413 117.483 58.13C116.988 58.5188 116.482 58.8359 115.966 59.0814C115.449 59.3064 114.944 59.3985 114.448 59.3575C113.56 59.3166 112.869 59.112 112.373 58.7438C111.898 58.3551 111.547 57.905 111.32 57.3935C111.093 56.8821 110.959 56.3502 110.918 55.7978C110.897 55.2454 110.918 54.7851 110.98 54.4168C111.083 53.7008 111.31 52.9132 111.661 52.0539C112.012 51.1947 112.466 50.3456 113.024 49.5068C113.581 48.6476 114.221 47.8395 114.944 47.0825C115.687 46.3051 116.471 45.6607 117.297 45.1492C118.144 44.6173 119.021 44.249 119.93 44.0445C120.838 43.8194 121.767 43.8297 122.717 44.0751C123.13 44.1979 123.46 44.4025 123.708 44.6889C123.976 44.9549 124.183 45.2822 124.327 45.6709C124.472 46.0392 124.565 46.4483 124.606 46.8984C124.647 47.328 124.657 47.7577 124.637 48.1873Z" fill="#FEFEFE"/>
<path d="M145.362 53.6497C145.072 54.0997 144.68 54.6623 144.185 55.3375C143.689 55.9921 143.142 56.6264 142.543 57.2401C141.965 57.8539 141.346 58.3858 140.685 58.8359C140.025 59.2655 139.385 59.4803 138.765 59.4803C138.414 59.4803 138.063 59.4189 137.712 59.2962C137.382 59.1734 137.093 58.9893 136.845 58.7438C136.597 58.4983 136.401 58.1812 136.257 57.7925C136.112 57.4038 136.05 56.9435 136.071 56.4115C136.092 55.8796 136.164 55.3579 136.288 54.8465C136.412 54.3146 136.566 53.7622 136.752 53.1893C136.959 52.5961 137.206 51.9618 137.495 51.2867C137.785 50.5911 138.105 49.8239 138.456 48.9852C138.683 48.4532 138.858 47.9725 138.982 47.5428C139.106 47.0928 139.127 46.7654 139.044 46.5608C138.961 46.3563 138.745 46.3256 138.394 46.4688C138.043 46.5915 137.506 46.9598 136.783 47.5735C135.999 48.2896 135.297 48.9647 134.677 49.5989C134.058 50.2331 133.428 50.9492 132.788 51.747C132.251 52.9336 131.797 54.1509 131.426 55.3989C131.075 56.6264 130.848 57.9152 130.744 59.2655C130.744 59.4087 130.631 59.4496 130.404 59.3882C130.177 59.3269 129.919 59.2246 129.629 59.0814C129.361 58.9177 129.113 58.7336 128.886 58.529C128.659 58.3244 128.535 58.1403 128.515 57.9766C128.577 56.7286 128.783 55.4705 129.134 54.202C129.506 52.9336 129.96 51.655 130.497 50.3661C131.054 49.0772 131.653 47.7986 132.293 46.5302C132.933 45.2413 133.562 43.9626 134.182 42.6942C134.533 41.9782 134.873 41.2621 135.204 40.5461C135.534 39.8096 135.844 39.0935 136.133 38.398C136.443 37.7024 136.711 37.0375 136.938 36.4033C137.165 35.7691 137.351 35.186 137.495 34.6541C137.702 34.5518 137.981 34.5722 138.332 34.7155C138.683 34.8382 139.013 35.0326 139.323 35.2985C139.632 35.544 139.88 35.8407 140.066 36.1885C140.252 36.5362 140.283 36.8738 140.159 37.2011C140.076 37.4466 139.911 37.8251 139.663 38.3366C139.436 38.8276 139.168 39.3902 138.858 40.0244C138.548 40.6586 138.208 41.3337 137.836 42.0498C137.465 42.7454 137.114 43.4205 136.783 44.0751L134.615 48.0952C135.049 47.6042 135.514 47.1234 136.009 46.6529C136.505 46.1824 137.021 45.763 137.557 45.3947C138.094 45.006 138.641 44.6991 139.199 44.4741C139.756 44.2286 140.324 44.0854 140.902 44.0445C141.129 44.0445 141.367 44.1365 141.614 44.3206C141.883 44.4843 142.11 44.6991 142.296 44.9651C142.502 45.2106 142.657 45.4765 142.76 45.763C142.863 46.0494 142.874 46.3051 142.791 46.5302C142.275 47.9213 141.8 49.0977 141.367 50.0592C140.933 51.0003 140.551 51.8493 140.221 52.6063C139.89 53.3428 139.622 54.0588 139.416 54.7544C139.209 55.4295 139.075 56.1967 139.013 57.056C139.013 57.1174 139.023 57.189 139.044 57.2708C139.065 57.3526 139.106 57.4242 139.168 57.4856C139.25 57.547 139.364 57.5777 139.508 57.5777C139.653 57.5777 139.839 57.5265 140.066 57.4242C140.665 57.1378 141.377 56.6366 142.203 55.9205C143.049 55.2045 143.875 54.2532 144.68 53.0666C144.99 52.6165 145.269 52.1767 145.516 51.747C145.785 51.297 146.043 50.8673 146.291 50.4582C146.352 50.3559 146.435 50.3047 146.538 50.3047C146.662 50.2843 146.765 50.3047 146.848 50.3661C146.951 50.4275 147.013 50.5093 147.034 50.6116C147.075 50.7139 147.054 50.8366 146.972 50.9798L145.362 53.6497Z" fill="#FEFEFE"/>
<path d="M156.75 44.0445C156.956 43.9422 157.235 43.9626 157.586 44.1058C157.937 44.2286 158.267 44.4229 158.577 44.6889C158.887 44.9549 159.135 45.2617 159.32 45.6095C159.506 45.9573 159.547 46.2949 159.444 46.6222C159.341 46.9086 159.135 47.3689 158.825 48.0032C158.515 48.6374 158.174 49.3636 157.803 50.182C157.452 50.9798 157.091 51.8084 156.719 52.6677C156.368 53.5269 156.089 54.3146 155.883 55.0306C155.676 55.7466 155.573 56.3399 155.573 56.8105C155.573 57.2606 155.759 57.4958 156.131 57.5163H156.533C157.235 57.3117 157.885 56.9435 158.484 56.4115C159.083 55.8796 159.64 55.2761 160.156 54.601C160.693 53.9258 161.178 53.22 161.612 52.4835C162.066 51.747 162.479 51.0719 162.851 50.4582C162.913 50.3559 163.006 50.3047 163.129 50.3047C163.253 50.2843 163.357 50.3047 163.439 50.3661C163.542 50.4275 163.615 50.5093 163.656 50.6116C163.697 50.7139 163.677 50.8366 163.594 50.9798C163.181 51.6141 162.778 52.2585 162.386 52.9132C161.994 53.5678 161.581 54.202 161.147 54.8158C160.714 55.4295 160.26 56.0228 159.785 56.5957C159.31 57.1685 158.784 57.6902 158.205 58.1607C158.061 58.2835 157.875 58.4267 157.648 58.5904C157.421 58.754 157.163 58.9075 156.874 59.0507C156.605 59.1734 156.306 59.2859 155.976 59.3882C155.666 59.4701 155.325 59.511 154.954 59.511C154.5 59.4905 154.118 59.3678 153.808 59.1427C153.519 58.9177 153.292 58.621 153.127 58.2528C152.982 57.8845 152.889 57.4651 152.848 56.9946C152.827 56.5241 152.869 56.0228 152.972 55.4909C153.034 55.1227 153.127 54.7237 153.251 54.2941C152.776 55.0101 152.27 55.7057 151.733 56.3809C151.196 57.0355 150.598 57.6288 149.937 58.1607C149.792 58.2835 149.607 58.4267 149.379 58.5904C149.152 58.754 148.894 58.9075 148.605 59.0507C148.337 59.1734 148.037 59.2859 147.707 59.3882C147.397 59.4701 147.057 59.511 146.685 59.511C146.252 59.4905 145.88 59.3678 145.57 59.1427C145.281 58.9177 145.054 58.621 144.889 58.2528C144.724 57.8845 144.631 57.4651 144.61 56.9946C144.59 56.5241 144.631 56.0228 144.734 55.4909C144.879 54.7544 145.116 53.8849 145.446 52.8825C145.777 51.88 146.138 50.8571 146.53 49.8137C146.923 48.7499 147.294 47.7167 147.645 46.7143C148.017 45.6914 148.306 44.8014 148.512 44.0445C148.719 43.9422 148.987 43.9626 149.317 44.1058C149.668 44.2286 149.999 44.4229 150.308 44.6889C150.618 44.9549 150.866 45.2617 151.052 45.6095C151.238 45.9573 151.279 46.2949 151.176 46.6222C151.072 46.9086 150.866 47.3689 150.556 48.0032C150.267 48.6374 149.937 49.3636 149.565 50.182C149.194 50.9798 148.832 51.8084 148.481 52.6677C148.13 53.5269 147.852 54.3146 147.645 55.0306C147.439 55.7466 147.336 56.3399 147.336 56.8105C147.336 57.2606 147.521 57.4958 147.893 57.5163H148.265C148.946 57.3117 149.576 56.9639 150.154 56.4729C150.732 55.9615 151.269 55.3886 151.764 54.7544C152.28 54.0997 152.755 53.4246 153.189 52.729C153.643 52.013 154.056 51.3481 154.427 50.7343C154.861 49.5273 155.294 48.3305 155.728 47.1439C156.182 45.9573 156.523 44.9242 156.75 44.0445Z" fill="#FEFEFE"/>
<path d="M177.812 53.6497C177.523 54.0997 177.131 54.6623 176.635 55.3375C176.14 55.9921 175.593 56.6264 174.994 57.2401C174.416 57.8539 173.796 58.3858 173.136 58.8359C172.475 59.2655 171.835 59.4803 171.216 59.4803C170.865 59.4803 170.514 59.4189 170.163 59.2962C169.832 59.1734 169.543 58.9893 169.296 58.7438C169.048 58.4983 168.852 58.1812 168.707 57.7925C168.563 57.4038 168.501 56.9435 168.521 56.4115C168.542 55.8796 168.614 55.3579 168.738 54.8465C168.862 54.3146 169.017 53.7622 169.203 53.1893C169.409 52.5961 169.657 51.9618 169.946 51.2867C170.235 50.5911 170.555 49.8239 170.906 48.9852C171.133 48.4532 171.309 47.9725 171.432 47.5428C171.556 47.0928 171.577 46.7654 171.494 46.5608C171.412 46.3563 171.195 46.3256 170.844 46.4688C170.493 46.5915 169.956 46.9598 169.234 47.5735C168.428 48.2896 167.716 48.9749 167.097 49.6296C166.477 50.2843 165.837 51.0105 165.177 51.8084C164.661 52.995 164.227 54.202 163.876 55.4295C163.525 56.6366 163.298 57.9152 163.195 59.2655C163.195 59.4087 163.081 59.4496 162.854 59.3882C162.627 59.3269 162.369 59.2246 162.08 59.0814C161.812 58.9177 161.564 58.7336 161.337 58.529C161.11 58.3244 160.986 58.1403 160.965 57.9766C161.027 56.7696 161.213 55.5932 161.522 54.4475C161.853 53.2814 162.224 52.1255 162.637 50.9798C163.05 49.8137 163.484 48.6578 163.938 47.5122C164.392 46.3665 164.795 45.2106 165.146 44.0445C165.352 43.9422 165.621 43.9626 165.951 44.1058C166.302 44.2286 166.632 44.4229 166.942 44.6889C167.252 44.9549 167.499 45.2617 167.685 45.6095C167.871 45.9573 167.912 46.2949 167.809 46.6222C167.747 46.8473 167.665 47.0621 167.561 47.2667C167.458 47.4712 167.345 47.6861 167.221 47.9111C167.654 47.4405 168.119 46.9802 168.614 46.5302C169.11 46.0801 169.616 45.6811 170.132 45.3333C170.648 44.9651 171.174 44.6684 171.711 44.4434C172.248 44.2184 172.795 44.0854 173.352 44.0445C173.58 44.0445 173.817 44.1365 174.065 44.3206C174.333 44.4843 174.56 44.6991 174.746 44.9651C174.953 45.2106 175.107 45.4765 175.211 45.763C175.314 46.0494 175.324 46.3051 175.242 46.5302C174.725 47.9213 174.251 49.0977 173.817 50.0592C173.383 51.0003 173.001 51.8493 172.671 52.6063C172.341 53.3428 172.072 54.0588 171.866 54.7544C171.66 55.4295 171.525 56.1967 171.463 57.056C171.463 57.1174 171.474 57.189 171.494 57.2708C171.515 57.3526 171.556 57.4242 171.618 57.4856C171.701 57.547 171.814 57.5777 171.959 57.5777C172.103 57.5777 172.289 57.5265 172.516 57.4242C173.115 57.1378 173.827 56.6366 174.653 55.9205C175.5 55.2045 176.325 54.2532 177.131 53.0666C177.44 52.6165 177.719 52.1767 177.967 51.747C178.235 51.297 178.493 50.8673 178.741 50.4582C178.803 50.3559 178.886 50.3047 178.989 50.3047C179.113 50.2843 179.216 50.3047 179.298 50.3661C179.402 50.4275 179.464 50.5093 179.484 50.6116C179.526 50.7139 179.505 50.8366 179.422 50.9798L177.812 53.6497Z" fill="#FEFEFE"/>
</svg>
