<svg
  width="439"
  height="135"
  viewBox="0 0 439 135"
  fill="none"
  xmlns="http://www.w3.org/2000/svg"
>
  <path
    fill-rule="evenodd"
    clip-rule="evenodd"
    d="M61.9588 8.6584C169.501 5.79105 298.313 8.65838 383.39 11.5257C391.277 11.7647 401.314 11.5258 408.245 14.632C420.672 22.0394 432.382 36.1372 436.922 51.9076C438.356 57.1644 439.073 62.6601 438.834 68.3948C438.117 88.9442 435.728 103.281 419.477 118.573C408.962 128.609 395.34 135.3 380.045 134.822C277.521 132.193 172.369 131.715 66.2605 134.822C57.4181 135.061 48.8149 132.91 41.1674 129.326C28.2624 123.113 14.4013 110.449 6.75391 95.3957C7.23187 86.5547 7.70994 76.9969 7.23197 65.5275C6.51503 49.996 12.2505 35.6593 22.2878 25.3846C32.3251 15.11 46.425 9.13629 62.1978 8.6584H61.9588Z"
    fill="#12458C"
  />
  <path
    fill-rule="evenodd"
    clip-rule="evenodd"
    d="M65.5413 1.48966C170.933 -0.899794 294.009 1.96749 376.458 4.59589C392.23 5.07378 406.33 11.0475 416.368 21.5611C426.405 31.8358 432.379 45.9335 431.663 61.465C430.946 82.0143 429.273 96.3511 413.022 111.644C402.507 121.679 388.168 128.131 372.873 127.892C268.676 126.697 165.197 126.936 59.0888 127.892C43.555 127.892 29.216 121.679 18.9398 111.883C2.21099 96.1121 1.01605 79.8638 0.0601202 58.5977C-0.656827 43.0662 5.07869 28.7295 15.116 18.4548C22.5244 10.8085 32.0839 5.55173 43.0771 3.16228C47.6177 4.59595 57.177 5.07378 59.3279 4.59589C60.7618 4.35695 62.6735 3.40123 65.5413 1.48966Z"
    fill="url(#paint0_radial_1429_49170)"
  />
  <g style="mix-blend-mode: multiply">
    <path
      d="M30.1704 7.70227C101.865 25.8621 156.831 41.3936 211.558 42.3494C221.117 42.3494 230.677 42.3495 240.475 41.6326C256.965 40.4379 263.417 40.9158 277.278 30.1632C288.271 21.5612 299.026 10.3307 312.409 2.92334C315.277 2.92334 318.144 2.92334 321.012 2.92334C309.302 7.46331 298.787 14.8707 289.227 22.7559C283.253 27.5348 277.039 33.5084 270.587 38.0484C305 32.7916 341.326 22.039 381.953 4.83495C385.299 5.31284 388.644 5.79069 391.99 6.74647C322.207 36.6147 266.763 46.1726 211.08 44.9778C154.441 44.0221 97.0855 30.6411 22.284 12.0033C24.6738 10.3307 27.3027 8.6581 30.1704 7.46337V7.70227ZM7.22814 28.9684C97.0856 56.6861 164.479 73.6513 229.482 77.2355C292.812 80.8197 353.514 70.3061 430.227 46.1726C430.705 48.3231 431.183 50.7125 431.422 53.102C353.992 76.7576 292.334 83.926 229.004 80.3418C163.523 76.7576 95.1737 62.4208 4.59932 34.4642C5.31627 32.5526 6.27221 30.88 7.22814 29.2074V28.9684ZM0.536479 48.562C72.4702 77.9523 109.513 91.8112 162.089 101.608C251.468 118.334 336.785 114.989 424.014 98.2627C422.58 100.891 420.907 103.281 418.756 105.67C333.2 121.202 249.078 121.679 161.372 105.431C109.035 95.6343 71.2754 83.2092 0.0585938 54.0578C0.0585938 52.1462 0.0585135 50.2346 0.536479 48.3231V48.562ZM0.536479 70.0671C26.1076 80.3418 44.7483 89.8997 62.433 99.6964C76.533 107.582 89.916 116.184 104.972 127.653C102.343 127.653 99.7142 127.653 97.0854 127.653C84.6583 117.617 73.6653 109.493 60.9992 102.564C44.0315 93.2449 25.3908 85.5986 1.01455 75.8019C0.775563 73.8903 0.536479 71.9787 0.536479 69.8282V70.0671Z"
      fill="#C0E5ED"
    />
  </g>
  <path
    style="mix-blend-mode: multiply"
    opacity="0.5"
    fill-rule="evenodd"
    clip-rule="evenodd"
    d="M210.842 45.2166C154.203 44.2608 96.8476 30.88 22.0461 12.2422C19.4173 14.1538 17.0275 16.0653 14.8767 18.4547C11.7699 21.561 9.14108 25.1452 6.99023 28.9683C96.8477 56.686 164.241 73.6512 229.244 77.2354C292.574 80.8195 353.276 70.306 429.989 46.1724C428.555 40.4377 426.166 34.942 422.82 29.9241C381.237 42.3493 336.069 50.2345 289.229 51.4293C335.591 43.0662 368.571 32.7915 409.915 16.0653C404.418 12.0032 398.444 8.89692 391.513 6.98535C321.73 36.8536 266.286 46.4114 210.603 45.2166H210.842Z"
    fill="url(#paint1_radial_1429_49170)"
  />
  <path
    style="mix-blend-mode: multiply"
    opacity="0.5"
    fill-rule="evenodd"
    clip-rule="evenodd"
    d="M97.0865 127.653C84.6594 117.618 73.6664 109.494 61.0003 102.564C44.0325 93.2453 25.3918 85.599 1.01562 75.8022C2.6885 89.1832 6.7511 100.653 18.4612 111.883C28.9765 121.919 43.3154 128.131 58.6103 127.892C71.2764 127.892 83.9426 127.892 96.6086 127.653H97.0865Z"
    fill="url(#paint2_radial_1429_49170)"
  />
  <path
    style="mix-blend-mode: screen"
    fill-rule="evenodd"
    clip-rule="evenodd"
    d="M17.03 16.5431C61.4808 23.7115 103.781 34.942 148.709 41.3935C192.443 47.845 240.718 49.2787 284.452 42.5882C324.123 36.3756 360.448 23.4726 397.729 8.89687C395.817 8.18003 393.905 7.46324 391.755 6.98535C321.972 36.8536 266.528 46.4114 210.845 45.2166C154.206 44.2608 96.8502 30.88 22.0487 12.2422C20.1368 13.4369 18.4639 14.8705 16.791 16.5431H17.03Z"
    fill="url(#paint3_radial_1429_49170)"
  />
  <path
    style="mix-blend-mode: screen"
    fill-rule="evenodd"
    clip-rule="evenodd"
    d="M431.425 53.1026C353.995 76.7582 292.338 83.9266 229.007 80.3424C165.677 76.7582 99.7175 63.1383 13.4448 37.0932C10.577 36.1374 7.47035 35.4205 4.60256 34.4648C5.31951 32.5532 6.27545 30.8806 7.23138 29.208C5.5585 32.3143 4.1246 35.4205 2.92969 38.7658C5.79748 39.4826 8.66528 40.1995 11.5331 40.9163C38.0601 47.3678 64.5871 53.5805 91.1141 59.5541C164.96 75.8024 215.624 85.1213 292.099 82.015C319.581 80.8203 343.002 77.4751 369.768 71.9793C391.515 67.6783 410.634 62.6604 431.664 56.2089C431.664 55.2531 431.664 54.2973 431.425 53.3415V53.1026Z"
    fill="url(#paint4_radial_1429_49170)"
  />
  <path
    style="mix-blend-mode: screen"
    fill-rule="evenodd"
    clip-rule="evenodd"
    d="M418.756 105.909C333.2 121.441 249.078 121.919 161.372 105.67C109.035 95.8735 71.2754 83.4483 0.0585938 54.2969C0.0585938 55.7305 0.0585938 57.1642 0.0585938 58.5979C29.4534 68.6336 56.6975 78.9083 85.6144 88.4661C136.279 105.192 189.572 114.272 242.865 118.573C302.132 123.352 359.01 118.573 415.41 109.493C416.605 108.299 417.561 107.104 418.756 105.909Z"
    fill="url(#paint5_radial_1429_49170)"
  />
  <path
    fill-rule="evenodd"
    clip-rule="evenodd"
    d="M43.0762 3.16236C51.2016 6.74654 60.0438 8.89703 61.4777 8.1802C62.6727 7.70231 64.1065 5.55182 65.5404 1.48975C62.6726 3.40131 60.7609 4.35703 59.327 4.59597C57.1761 5.07387 47.6168 4.59603 43.0762 3.16236Z"
    fill="url(#paint6_linear_1429_49170)"
  />
  <path
    style="mix-blend-mode: screen"
    fill-rule="evenodd"
    clip-rule="evenodd"
    d="M281.105 29.6856C292.577 20.8446 300.463 14.632 311.217 9.37515C315.519 7.22463 320.538 5.07416 326.273 3.1626C324.6 3.1626 322.927 3.1626 321.255 3.1626C316.714 4.83522 312.412 6.98574 308.349 9.61414C301.658 13.6762 295.444 18.2162 289.47 23.234C286.841 25.3846 284.212 27.774 281.583 29.9245L281.105 29.6856Z"
    fill="url(#paint7_radial_1429_49170)"
  />
  <path
    fill-rule="evenodd"
    clip-rule="evenodd"
    d="M415.173 121.919L408.72 115.467C398.683 123.352 386.256 128.131 372.873 127.892C283.972 126.698 195.309 126.936 105.213 127.414C102.584 127.414 99.955 127.414 97.3262 127.414C84.6601 127.414 71.9941 127.414 59.3281 127.653C43.7942 127.653 29.4552 121.441 19.179 111.644C15.8332 108.538 12.9653 105.192 10.8145 101.847C18.7009 114.033 30.4111 123.83 41.1653 129.087C48.8128 132.671 57.416 134.822 66.2584 134.583C172.367 131.476 277.519 131.954 380.043 134.583C393.665 134.822 405.614 129.804 415.651 121.68L415.173 121.919Z"
    fill="url(#paint8_linear_1429_49170)"
  />
  <path
    fill-rule="evenodd"
    clip-rule="evenodd"
    d="M408.722 115.466L415.174 121.918C416.608 120.723 417.803 119.767 418.998 118.573C435.249 103.041 437.638 88.9435 438.355 68.3941C438.355 62.6594 437.878 57.1637 436.444 51.9069C431.903 36.1365 420.193 22.0387 407.766 14.6313C408.483 15.1092 409.2 15.5872 409.917 16.0651C412.067 17.7377 414.218 19.6492 416.13 21.5608C418.52 24.1892 420.91 27.0565 422.822 29.9239C425.928 34.9417 428.318 40.1985 429.991 46.1722C430.469 48.3227 430.947 50.7122 431.186 53.1016C431.186 54.0574 431.186 55.0132 431.425 55.9689C431.425 57.8805 431.425 59.5531 431.425 61.4647C430.708 79.3856 429.513 92.5276 418.281 105.909C417.325 107.103 416.13 108.298 414.935 109.493C414.218 110.21 413.501 110.926 412.545 111.882C411.111 113.316 409.678 114.511 408.244 115.705L408.722 115.466Z"
    fill="url(#paint9_linear_1429_49170)"
  />
  <path
    style="mix-blend-mode: multiply"
    fill-rule="evenodd"
    clip-rule="evenodd"
    d="M55.5056 15.8261C44.2734 16.065 33.2803 20.1271 25.1549 28.2512C17.5074 36.1365 13.6837 47.128 13.9227 58.1195C14.6396 75.5625 14.8786 89.1824 28.2616 101.847C36.387 109.732 47.3801 114.272 58.8513 114.033C163.526 113.077 268.2 112.838 372.874 114.033C384.345 114.033 395.1 109.493 403.225 101.608C416.369 89.1824 416.847 78.1909 417.564 60.9868C418.042 49.9953 413.74 39.2428 406.093 31.3576C398.206 23.2334 387.213 19.1713 375.742 18.6934C305.481 16.5429 235.22 14.8703 164.96 14.6313C128.395 14.6313 91.592 14.6313 55.0277 15.8261H55.5056Z"
    fill="url(#paint10_linear_1429_49170)"
  />
  <path
    fill-rule="evenodd"
    clip-rule="evenodd"
    d="M29.4514 32.5529C37.3379 24.4287 48.331 20.3667 59.8021 20.1277C96.3665 19.1719 133.17 18.933 169.734 18.933C239.995 18.933 310.256 20.8445 380.517 22.995C390.554 23.234 400.352 26.5793 408 33.0308C407.522 32.314 407.044 31.836 406.327 31.1192C398.44 22.995 387.447 18.933 375.976 18.4551C305.715 16.3046 235.454 14.632 165.193 14.3931C128.629 14.3931 91.8257 14.393 55.2614 15.5878C44.0292 15.8267 33.0361 19.8888 24.9107 28.013C17.2633 35.8982 13.4395 46.8897 13.6785 57.8812C14.3955 75.3242 14.6344 88.9441 28.0174 101.608C28.4954 102.086 28.7345 102.325 29.2124 102.803C18.9362 91.0946 18.4582 78.4305 17.9802 62.4211C17.5022 51.4296 21.565 40.4381 29.2124 32.5529H29.4514Z"
    fill="url(#paint11_linear_1429_49170)"
  />
  <path
    style="mix-blend-mode: screen"
    fill-rule="evenodd"
    clip-rule="evenodd"
    d="M373.112 114.033C268.437 112.839 163.763 113.077 59.0887 114.033C47.6175 114.033 36.8633 109.732 28.4989 101.847C18.9396 92.7671 16.0719 83.2093 14.877 72.2178C16.7888 93.4839 28.7378 115.945 59.5666 116.662C71.9937 116.901 84.4207 115.945 97.0868 115.706C135.563 115.228 174.039 115.228 212.515 115.228C235.697 115.228 258.639 115.228 281.82 115.228C306.197 115.228 330.573 115.945 354.949 116.423C381.954 116.901 399.4 114.511 411.349 92.2892C409.437 95.3955 406.808 98.5018 403.462 101.847C395.337 109.493 384.344 114.272 373.112 114.272V114.033Z"
    fill="url(#paint12_radial_1429_49170)"
  />
  <path
    style="mix-blend-mode: screen"
    fill-rule="evenodd"
    clip-rule="evenodd"
    d="M51.2008 6.26881C48.572 5.55197 45.7043 4.35722 43.0755 3.16249C32.0823 5.55194 22.5229 10.8087 15.1144 18.455C6.27207 27.5349 0.775541 39.9601 0.0585938 53.341C4.59926 32.7917 12.2467 16.7824 33.5162 7.46352C36.384 6.26879 42.3585 4.59611 45.4653 5.07401C47.1382 5.07401 49.289 5.79092 51.2008 6.26881ZM65.5397 1.48988C65.0618 2.92355 64.5839 3.87932 64.1059 4.8351C65.5398 3.40143 65.5398 2.92349 68.4076 2.92349C173.56 2.4456 278.712 3.40145 383.864 7.94142C407.524 8.8972 419.473 23.9507 429.032 42.3496C426.403 34.4644 422.102 27.296 416.366 21.3223C406.329 11.0477 392.229 4.83509 376.456 4.3572C294.007 1.7288 170.692 -1.13858 65.5397 1.25088V1.48988Z"
    fill="url(#paint13_radial_1429_49170)"
  />
  <path
    fill-rule="evenodd"
    clip-rule="evenodd"
    d="M55.5059 20.6057C45.4687 20.8447 35.6703 24.1899 28.7398 31.5972C22.0483 38.5266 18.7027 48.3234 18.9416 57.8813C19.6586 73.6517 19.6586 86.5547 31.8467 98.2631C39.2552 105.192 48.8144 109.255 58.8517 109.255C163.526 108.299 268.439 108.06 373.114 109.255C383.151 109.255 392.949 104.954 400.119 98.2631C412.068 86.7937 412.307 76.7579 413.024 60.9875C413.502 51.4297 409.678 41.8718 402.987 34.9424C396.056 27.5351 386.019 24.1899 375.982 23.712C305.721 21.5615 235.46 19.8888 165.438 19.6499C128.874 19.6499 92.3093 19.6499 55.745 20.8446L55.5059 20.6057Z"
    fill="url(#paint14_linear_1429_49170)"
  />
  <path
    style="mix-blend-mode: screen"
    fill-rule="evenodd"
    clip-rule="evenodd"
    d="M215.863 24.6673C290.903 25.1451 342.045 25.3841 367.616 27.0568C391.754 28.4904 413.979 40.6767 384.345 60.0313C365.705 72.2175 320.537 83.6869 215.863 83.6869C132.219 83.6869 86.5732 76.7575 61.719 68.1555C25.8716 55.9692 22.2869 32.0746 53.1156 27.0568C77.7308 23.2336 133.653 24.1894 215.863 24.6673Z"
    fill="url(#paint15_radial_1429_49170)"
  />
  <path
    style="mix-blend-mode: screen"
    fill-rule="evenodd"
    clip-rule="evenodd"
    d="M49.0513 24.429C41.8819 26.8185 30.6496 33.9868 28.7377 40.9162C27.0648 46.8899 33.0394 47.1289 38.297 44.9784C44.2716 42.5889 51.441 38.5268 55.9817 34.2258C61.7173 28.969 58.1327 21.3227 49.0513 24.429Z"
    fill="url(#paint16_radial_1429_49170)"
  />
  <path
    style="mix-blend-mode: multiply"
    fill-rule="evenodd"
    clip-rule="evenodd"
    d="M377.176 97.5465C269.634 101.609 162.331 102.086 54.7884 97.5465C44.5122 97.0686 34.4748 93.4844 27.0664 86.316C24.6765 83.9266 22.5257 81.5371 21.0918 79.1477C22.7647 85.8382 25.6324 92.2897 32.085 98.0244C39.4934 104.954 49.0528 109.016 59.0901 109.016C163.764 108.06 268.678 107.821 373.352 109.016C383.389 109.016 393.188 104.715 400.357 98.0244C407.049 91.5729 410.155 85.5992 411.589 78.9087C409.916 81.2981 407.765 83.9266 405.137 86.316C397.728 93.4844 387.691 97.3076 377.415 97.5465H377.176Z"
    fill="url(#paint17_radial_1429_49170)"
  />
  <path
    style="mix-blend-mode: screen"
    fill-rule="evenodd"
    clip-rule="evenodd"
    d="M389.125 99.9356C394.622 97.5461 400.835 92.0503 401.313 86.5546C401.791 82.2535 397.25 81.7757 393.666 83.6872C389.842 85.8378 385.301 89.4219 382.434 93.0061C379.088 97.3071 382.911 102.564 389.125 99.9356Z"
    fill="url(#paint18_radial_1429_49170)"
  />
  <g style="mix-blend-mode: screen">
    <path
      d="M43.794 34.4644C43.794 34.4644 43.7939 35.4202 43.3159 35.6592C42.8379 35.8981 42.3601 35.8981 42.1211 35.6592C42.1211 35.4202 42.121 34.7033 42.599 34.4644C43.0769 34.2254 43.555 34.2254 43.794 34.4644Z"
      fill="#00FFFF"
    />
  </g>
  <defs>
    <radialGradient
      id="paint0_radial_1429_49170"
      cx="0"
      cy="0"
      r="1"
      gradientUnits="userSpaceOnUse"
      gradientTransform="translate(6.03468 -6.63454) scale(786.73 786.61)"
    >
      <stop stop-color="#2EA4FF" />
      <stop offset="1" stop-color="#2478F0" />
    </radialGradient>
    <radialGradient
      id="paint1_radial_1429_49170"
      cx="0"
      cy="0"
      r="1"
      gradientUnits="userSpaceOnUse"
      gradientTransform="translate(20.6122 -578.192) scale(860.098 859.965)"
    >
      <stop stop-color="#BAC3EB" />
      <stop offset="0.99" stop-color="white" />
    </radialGradient>
    <radialGradient
      id="paint2_radial_1429_49170"
      cx="0"
      cy="0"
      r="1"
      gradientUnits="userSpaceOnUse"
      gradientTransform="translate(-64.9435 184.523) scale(769.762 769.644)"
    >
      <stop stop-color="#BAC3EB" />
      <stop offset="0.99" stop-color="white" />
    </radialGradient>
    <radialGradient
      id="paint3_radial_1429_49170"
      cx="0"
      cy="0"
      r="1"
      gradientUnits="userSpaceOnUse"
      gradientTransform="translate(25.3944 -18.5818) scale(702.609 702.5)"
    >
      <stop stop-color="#0C3469" />
      <stop offset="1" />
    </radialGradient>
    <radialGradient
      id="paint4_radial_1429_49170"
      cx="0"
      cy="0"
      r="1"
      gradientUnits="userSpaceOnUse"
      gradientTransform="translate(46.6635 -14.0411) scale(896.901 896.763)"
    >
      <stop stop-color="#0C3469" />
      <stop offset="1" />
    </radialGradient>
    <radialGradient
      id="paint5_radial_1429_49170"
      cx="0"
      cy="0"
      r="1"
      gradientUnits="userSpaceOnUse"
      gradientTransform="translate(4.59926 26.1013) scale(1275.21 1275.01)"
    >
      <stop stop-color="#0C3469" />
      <stop offset="1" />
    </radialGradient>
    <linearGradient
      id="paint6_linear_1429_49170"
      x1="43.0762"
      y1="4.83497"
      x2="65.5404"
      y2="4.83497"
      gradientUnits="userSpaceOnUse"
    >
      <stop offset="0.38" stop-color="#1055C9" />
      <stop offset="0.53" stop-color="#1882DC" />
      <stop offset="0.69" stop-color="#21AEEF" />
      <stop offset="0.82" stop-color="#26C9FA" />
      <stop offset="0.89" stop-color="#29D4FF" />
    </linearGradient>
    <radialGradient
      id="paint7_radial_1429_49170"
      cx="0"
      cy="0"
      r="1"
      gradientUnits="userSpaceOnUse"
      gradientTransform="translate(327.707 -1.37737) scale(111.366 111.349)"
    >
      <stop stop-color="#0C3469" />
      <stop offset="1" />
    </radialGradient>
    <linearGradient
      id="paint8_linear_1429_49170"
      x1="10.3365"
      y1="118.573"
      x2="415.173"
      y2="118.573"
      gradientUnits="userSpaceOnUse"
    >
      <stop stop-color="#084B9E" />
      <stop offset="1" stop-color="#062D70" />
    </linearGradient>
    <linearGradient
      id="paint9_linear_1429_49170"
      x1="423.299"
      y1="121.918"
      x2="423.299"
      y2="14.3924"
      gradientUnits="userSpaceOnUse"
    >
      <stop stop-color="#062D70" />
      <stop offset="1" stop-color="#3484E8" />
    </linearGradient>
    <linearGradient
      id="paint10_linear_1429_49170"
      x1="215.863"
      y1="114.033"
      x2="215.863"
      y2="14.6313"
      gradientUnits="userSpaceOnUse"
    >
      <stop stop-color="#CAD0EB" />
      <stop offset="0.8" stop-color="#A5ADD1" />
      <stop offset="1" stop-color="#757887" />
    </linearGradient>
    <linearGradient
      id="paint11_linear_1429_49170"
      x1="13.9175"
      y1="58.8369"
      x2="408"
      y2="58.8369"
      gradientUnits="userSpaceOnUse"
    >
      <stop stop-color="#062D70" />
      <stop offset="1" stop-color="#004294" />
    </linearGradient>
    <radialGradient
      id="paint12_radial_1429_49170"
      cx="0"
      cy="0"
      r="1"
      gradientUnits="userSpaceOnUse"
      gradientTransform="translate(247.168 60.2705) scale(519.07 518.99)"
    >
      <stop stop-color="#00FFFA" />
      <stop offset="1" />
    </radialGradient>
    <radialGradient
      id="paint13_radial_1429_49170"
      cx="0"
      cy="0"
      r="1"
      gradientUnits="userSpaceOnUse"
      gradientTransform="translate(80.8347 -38.653) scale(630.675 630.578)"
    >
      <stop stop-color="#00FFFA" />
      <stop offset="1" />
    </radialGradient>
    <linearGradient
      id="paint14_linear_1429_49170"
      x1="215.863"
      y1="109.016"
      x2="215.863"
      y2="19.411"
      gradientUnits="userSpaceOnUse"
    >
      <stop stop-color="#1D71B8" />
      <stop offset="1" stop-color="#00CCFF" />
    </linearGradient>
    <radialGradient
      id="paint15_radial_1429_49170"
      cx="0"
      cy="0"
      r="1"
      gradientUnits="userSpaceOnUse"
      gradientTransform="translate(98.2833 -329.689) scale(530.302 530.221)"
    >
      <stop stop-color="#00CCFF" />
      <stop offset="1" stop-color="#082047" />
    </radialGradient>
    <radialGradient
      id="paint16_radial_1429_49170"
      cx="0"
      cy="0"
      r="1"
      gradientUnits="userSpaceOnUse"
      gradientTransform="translate(41.4038 21.3227) scale(102.046 102.03)"
    >
      <stop stop-color="#FFFBD9" />
      <stop offset="1" />
    </radialGradient>
    <radialGradient
      id="paint17_radial_1429_49170"
      cx="0"
      cy="0"
      r="1"
      gradientUnits="userSpaceOnUse"
      gradientTransform="translate(197.7 -686.914) scale(999.186 999.034)"
    >
      <stop offset="0.7" stop-color="white" />
      <stop offset="0.71" stop-color="#FBFAF9" />
      <stop offset="0.77" stop-color="#E6D9D5" />
      <stop offset="0.83" stop-color="#D4BFB8" />
      <stop offset="0.88" stop-color="#C8ACA4" />
      <stop offset="0.94" stop-color="#C1A198" />
      <stop offset="1" stop-color="#BF9E94" />
    </radialGradient>
    <radialGradient
      id="paint18_radial_1429_49170"
      cx="0"
      cy="0"
      r="1"
      gradientUnits="userSpaceOnUse"
      gradientTransform="translate(424.972 107.582) scale(133.113 133.093)"
    >
      <stop stop-color="#FFFBD9" />
      <stop offset="1" />
    </radialGradient>
  </defs>
</svg>
