<svg
  width="241"
  height="80"
  viewBox="0 0 241 80"
  fill="none"
  xmlns="http://www.w3.org/2000/svg"
>
  <path
    style="mix-blend-mode: multiply"
    fill-rule="evenodd"
    clip-rule="evenodd"
    d="M11.4838 14.555L229.349 16.6043C229.751 35.6133 228.881 54.7637 231.489 74.55C231.69 76.034 231.891 78.0126 230.888 79.0726C229.884 80.1326 228.079 80.062 226.675 79.9206C157.329 73.3487 82.0327 71.4407 14.0249 79.2846C12.6206 79.4259 10.8819 79.4966 9.87887 78.366C8.94268 77.306 9.00955 75.398 9.21016 73.914C11.5506 54.6223 11.4838 33.9174 11.4169 14.4844L11.4838 14.555Z"
    fill="url(#paint0_radial_3422_75405)"
  />
  <path
    fill-rule="evenodd"
    clip-rule="evenodd"
    d="M3.07031 8.05669C79.6376 5.51273 163.026 6.99668 237.587 10.106C235.648 29.2563 237.186 49.6787 236.851 68.829C235.714 70.4543 234.778 72.1503 234.176 73.9876C161.822 68.4757 80.3732 68.4757 6.48073 73.4929C5.74515 71.4436 4.74209 69.7476 3.8059 68.3343C3.8059 49.3253 5.74515 27.2777 3.07031 8.05669Z"
    fill="url(#paint1_linear_3422_75405)"
  />
  <path
    fill-rule="evenodd"
    clip-rule="evenodd"
    d="M0.359375 1.34274C78.7322 -1.27188 164.06 0.282757 240.359 3.4627C238.219 25.2277 237.016 47.0633 236.882 68.8283C161.518 66.143 79.6684 65.2243 3.83667 68.3336C4.03728 47.0633 3.43544 23.3904 0.359375 1.34274Z"
    fill="url(#paint2_radial_3422_75405)"
  />
  <g style="mix-blend-mode: multiply" opacity="0.55">
    <path
      d="M236.938 64.5882C222.494 65.0829 207.983 64.8003 193.539 65.2949C186.116 65.5776 178.76 65.9309 171.405 66.3549C168.73 66.4962 165.988 66.7082 163.313 66.9202C188.189 67.3442 212.865 68.0509 236.871 68.8988C236.871 67.4855 236.871 66.0722 236.871 64.6589L236.938 64.5882ZM237.072 56.5324C223.564 57.239 210.19 57.875 196.682 57.875C183.174 57.875 163.982 59.0057 150.741 60.4897C140.109 61.6203 129.543 63.1043 118.978 64.8002C115.768 65.2949 112.558 65.8602 109.415 66.4256C115.166 66.4256 120.917 66.4256 126.668 66.4256C151.276 63.2456 177.289 61.6203 196.615 61.6203C210.123 61.6203 223.497 60.9843 236.938 60.2776C236.938 59.0057 236.938 57.8044 237.005 56.5324H237.072ZM237.339 48.4058C226.774 48.9712 216.81 49.1832 205.977 48.8299C176.085 47.8406 148.668 52.9285 119.513 56.8857C112.224 57.875 105.002 58.8644 97.9133 60.7017C91.7612 62.2563 85.8096 64.3763 79.8581 66.4962C81.5968 66.4962 83.3354 66.4962 85.1409 66.4962C89.4207 64.9416 93.6336 63.5283 97.9133 62.4683C121.385 56.4617 183.04 51.9391 205.91 52.7164C216.676 53.0698 226.64 52.8578 237.206 52.3631C237.206 51.0912 237.272 49.8899 237.339 48.6179V48.4058ZM238.342 28.6902C227.911 30.3155 219.15 30.9515 209.521 31.6582C173.678 34.2021 153.951 41.1273 120.048 48.8299C107.743 51.6565 95.9072 54.3418 82.7336 58.7937C75.9796 61.055 69.3594 63.9523 62.7391 66.6376C65.414 66.6376 68.0888 66.5669 70.6968 66.4962C87.7489 60.0657 102.527 55.1191 120.449 51.0205C135.629 47.5579 159.033 41.4806 172.809 39.4314C187.989 37.2407 199.223 36.3927 209.588 35.6861C219.017 35.0501 227.71 34.4141 238.008 32.7888C238.075 31.3755 238.142 30.0329 238.276 28.6195L238.342 28.6902ZM239.546 3.39197C233.126 6.57191 224.834 10.3172 215.74 13.7091C203.837 18.161 192.937 20.705 180.633 23.037C157.161 27.4182 135.361 35.3327 112.558 41.9046C89.8888 48.4765 68.4232 59.9243 47.4257 66.9202C49.0975 66.9202 50.7024 66.9202 52.3741 66.8495C56.9214 64.9416 61.4017 62.8923 66.0158 61.1256C81.7305 55.2604 97.3115 49.6778 113.427 44.9432C131.282 39.7847 147.264 34.3434 165.787 29.8915C182.505 25.9343 199.624 23.9556 216.409 17.7371C225.369 14.4158 233.528 10.7412 239.947 7.56123C240.081 6.14792 240.215 4.80528 240.349 3.39197H239.479H239.546ZM25.9601 0.63599C26.4282 1.41331 26.8294 2.26131 27.0969 3.1093C27.4313 4.09862 27.6319 5.15859 27.6319 6.21857C27.6319 7.20789 27.3644 8.26788 26.9632 9.18653C26.5619 10.1052 26.027 10.8825 25.2914 11.5185C24.2883 12.3665 23.0846 13.1438 21.881 13.6384C20.5435 14.2744 19.0724 14.6984 17.6681 14.9811C15.7957 15.3344 13.9233 15.6171 11.9841 15.6877C10.1785 15.6877 8.37302 15.6877 6.63438 15.3344C5.02947 15.0518 3.42456 14.6984 1.88653 14.2744C1.75279 12.6491 1.55218 11.0238 1.35156 9.39852C1.9534 9.75185 2.62212 10.0345 3.29083 10.3172C8.50677 12.4371 12.9203 13.0731 18.3368 11.9425C20.4767 11.5185 22.6834 10.6705 24.3552 9.18653C25.2245 8.40921 25.6926 7.06655 25.6926 5.9359C25.6926 4.52259 25.0908 3.03863 24.3552 1.83732C24.0877 1.41332 23.8202 0.989318 23.5527 0.63599C24.2883 0.63599 25.0908 0.63599 25.8263 0.63599H25.9601ZM58.9944 0.141334C59.3956 3.10928 58.8606 6.07724 55.9183 9.39852C41.3404 26.3582 26.1607 39.0074 3.42457 35.7567C3.42457 36.9581 3.55831 38.1594 3.55831 39.3607C27.4981 43.742 44.3496 30.0328 60.5993 11.1652C63.8759 7.34922 65.7483 3.74527 65.6146 0.141334C63.4079 0.141334 61.2011 0.141334 58.9944 0.141334ZM90.2231 0C90.2231 1.55464 89.5544 3.03864 88.2839 4.38128C85.2747 7.63189 76.5814 14.5571 69.56 19.645C51.3042 32.7181 46.6901 42.6113 14.4583 46.7099C11.3822 47.1339 7.77118 46.9926 3.75892 46.4979C3.75892 47.1339 3.75892 47.7699 3.75892 48.4058C7.10247 48.6885 10.446 48.7592 13.8564 48.6179C42.0091 47.3459 51.9729 36.1807 71.8336 21.9063C79.39 16.4651 89.4876 9.25718 92.898 5.58258C93.7673 4.66393 94.436 3.60396 94.8372 2.47331C95.1716 1.69599 95.3722 0.847986 95.4391 0C93.7004 0 91.9618 0 90.1562 0H90.2231ZM127.47 0.282668C128.875 4.73459 122.522 8.33854 111.956 12.9318C105.871 15.5464 99.5182 18.1611 93.7673 21.0583C80.3262 27.7716 68.1557 39.4313 54.514 46.6392C37.6625 55.5431 22.6165 58.1577 3.95954 57.6631C3.95954 58.5817 3.95954 59.5003 3.95954 60.3483C22.0816 60.7017 37.7963 58.4404 55.5839 49.0419C61.268 46.0739 66.5508 42.6113 71.9005 39.1487C80.3931 33.6368 88.4176 28.9729 97.5789 24.4503C107.476 19.5037 119.111 15.4051 128.34 10.4585C134.625 7.13724 136.097 3.67463 134.893 0.353349C132.419 0.353349 130.011 0.282668 127.537 0.282668H127.47ZM177.891 1.27198C176.219 3.17995 173.143 5.08792 169.465 6.85456C159.836 11.5891 149.671 15.1931 139.841 19.3624C103.53 34.8381 52.441 64.5882 16.3307 66.0722C12.3184 66.2135 8.10554 66.2135 3.89267 66.0722C3.89267 66.7789 3.89267 67.4855 3.89267 68.1922C11.1147 67.9095 18.4037 67.6269 25.6926 67.4149C43.0122 65.3656 60.1312 59.783 75.7121 52.7871C85.3415 48.4765 94.6366 43.53 104.266 39.2194C117.573 33.2835 131.081 27.7716 144.456 22.0476C154.754 17.6664 165.319 13.8504 175.417 8.97452C178.56 7.41988 181.168 5.72391 182.906 3.95728C183.776 3.03863 184.378 2.19065 184.846 1.34266C182.572 1.34266 180.298 1.20134 178.025 1.13067L177.891 1.27198ZM2.75586 25.2276C7.77118 26.4289 12.7865 26.7822 18.2031 25.5102C21.2123 24.8036 24.0208 23.8143 26.6288 22.613C32.0454 20.1397 36.4588 16.8184 39.468 13.4265C42.5441 9.82251 44.0821 6.07725 43.4134 2.96796C43.3466 2.54397 43.2128 2.19064 43.0791 1.83732C42.8785 1.34266 42.611 0.848007 42.3435 0.353349C41.2067 0.353349 40.0699 0.353349 38.9999 0.353349C40.9392 3.60396 40.8723 7.20789 37.1276 11.8011C34.5865 14.9811 30.6411 18.0904 25.8932 20.4223C23.5527 21.553 21.0785 22.4716 18.4037 23.1783C12.9871 24.5916 7.90493 23.8849 2.68899 22.2596C2.75586 23.249 2.82273 24.1676 2.88961 25.1569L2.75586 25.2276Z"
      fill="#C0E5ED"
    />
  </g>
  <path
    style="mix-blend-mode: multiply"
    opacity="0.5"
    fill-rule="evenodd"
    clip-rule="evenodd"
    d="M43.3763 2.96564C44.045 6.07492 42.5739 9.82019 39.4309 13.4241C36.4886 16.8161 32.0082 20.1373 26.5917 22.6106C23.9837 23.812 21.1751 24.8013 18.1659 25.5079C12.7494 26.7799 7.73408 26.4266 2.71875 25.2253C2.98623 28.6879 3.11998 32.2212 3.32059 35.6838C26.0567 38.9344 41.2364 26.2853 55.8143 9.32555C58.6898 6.00427 59.2916 3.03631 58.8904 0.0683594C53.3401 0.0683594 47.7229 0.209682 42.2395 0.280347C42.507 0.775006 42.7745 1.26966 42.9751 1.76432C43.1088 2.11764 43.2426 2.54166 43.3094 2.89499L43.3763 2.96564Z"
    fill="url(#paint3_radial_3422_75405)"
  />
  <path
    style="mix-blend-mode: multiply"
    opacity="0.5"
    fill-rule="evenodd"
    clip-rule="evenodd"
    d="M92.9984 5.65326C89.588 9.2572 79.4905 16.5357 71.934 21.977C52.0734 36.2514 42.1096 47.4165 13.9569 48.6885C10.5465 48.8298 7.20292 48.6885 3.85938 48.4765C3.85938 51.5858 3.92625 54.6244 3.99312 57.6631C22.717 58.2284 37.6961 55.5431 54.5476 46.6392C68.1893 39.4313 80.3598 27.7716 93.8009 21.0583C99.5518 18.2317 105.905 15.6171 111.99 12.9318C122.622 8.33854 128.975 4.73459 127.504 0.282668C116.871 0.141337 106.172 0.0706655 95.4726 0C95.4058 0.847986 95.2051 1.69599 94.8708 2.47331C94.4027 3.60396 93.8009 4.73459 92.9315 5.58258L92.9984 5.65326Z"
    fill="url(#paint4_radial_3422_75405)"
  />
  <path
    style="mix-blend-mode: multiply"
    opacity="0.5"
    fill-rule="evenodd"
    clip-rule="evenodd"
    d="M144.458 22.19C131.017 27.9139 117.576 33.4258 104.269 39.3617C94.6393 43.6723 85.3442 48.6189 75.7148 52.9295C60.1339 59.9254 43.0818 65.5079 25.6953 67.5573C32.9174 67.3453 40.1395 67.1332 47.4953 66.9919C68.4928 59.996 89.9583 48.5482 112.628 41.9763C135.431 35.4044 157.231 27.4899 180.702 23.1086C193.007 20.7767 203.907 18.2327 215.81 13.7808C224.971 10.3888 233.196 6.64358 239.616 3.46364C221.761 2.75698 203.438 2.05032 184.848 1.55566C184.447 2.40365 183.778 3.25163 182.909 4.17028C181.17 5.93692 178.629 7.63291 175.419 9.18755C165.389 14.1341 154.756 17.8794 144.458 22.2607V22.19Z"
    fill="url(#paint5_radial_3422_75405)"
  />
  <path
    style="mix-blend-mode: screen"
    fill-rule="evenodd"
    clip-rule="evenodd"
    d="M3.89136 53.847C4.56007 36.6753 4.56006 24.5914 2.01897 2.54382C73.2366 0.706513 145.457 1.48385 214.468 2.47316C145.056 -0.00012989 69.9599 -0.989446 0.414062 1.34252C2.82142 18.4436 3.75762 36.6046 3.89136 53.847Z"
    fill="url(#paint6_radial_3422_75405)"
  />
  <path
    style="mix-blend-mode: screen"
    opacity="0.5"
    fill-rule="evenodd"
    clip-rule="evenodd"
    d="M46.6732 53.4936C53.7616 51.2323 58.5094 48.759 63.8591 45.367C64.5278 44.943 65.2634 44.4484 65.999 44.0244C66.1996 43.8831 66.4671 43.7417 66.6677 43.6004C67.1358 43.2471 67.6707 42.9644 68.2057 42.6111C78.1695 36.0392 85.3916 32.2939 95.6228 27.0647C103.647 22.9661 113.277 18.5848 119.563 14.6982C118.961 14.9809 118.359 15.2636 117.757 15.4756C111.07 18.4435 103.915 21.2701 97.5621 24.4501C96.1578 25.1567 94.8204 25.8634 93.4161 26.57C91.9449 27.3474 90.4737 28.1247 89.0695 28.902C88.1333 29.3967 87.1971 29.962 86.2609 30.4566C84.4554 31.446 82.7167 32.5059 80.9781 33.4953C77.9689 35.2619 74.9597 37.1699 71.8836 39.1485C70.2787 40.1378 68.7407 41.1978 67.1358 42.1871C66.4002 42.6818 65.6646 43.1058 64.929 43.5298C64.7284 43.6711 64.4609 43.8124 64.1935 43.9537C63.6585 44.3071 63.1235 44.5897 62.6554 44.9431C60.3149 46.3564 57.9744 47.699 55.5671 48.971C52.4242 50.5963 49.3481 52.0803 46.3389 53.2816C45.4696 53.6349 44.5334 53.9883 43.6641 54.3416C44.734 54.0589 45.7371 53.7056 46.7401 53.423L46.6732 53.4936Z"
    fill="url(#paint7_radial_3422_75405)"
  />
  <path
    style="mix-blend-mode: screen"
    opacity="0.5"
    fill-rule="evenodd"
    clip-rule="evenodd"
    d="M92.38 51.6555C90.3738 52.3621 88.3677 52.9981 86.4285 53.7047C85.0242 54.1994 83.553 54.694 82.1487 55.2594C76.9328 57.1673 71.65 59.0753 66.434 61.0539C64.2942 61.8313 62.4886 62.6086 60.75 63.3152C62.7561 62.6086 64.7622 61.902 66.7684 61.1953C67.6377 60.9126 68.4402 60.63 69.3095 60.3473C74.2579 58.6513 79.2064 56.9554 84.1549 55.3301C84.4892 55.1887 84.8904 55.118 85.2248 54.9767C85.9604 54.694 86.6959 54.482 87.4315 54.1994C89.4376 53.4927 91.4438 52.8568 93.4499 52.1501C96.7266 51.0195 100.003 49.9595 103.28 48.8995C105.687 48.1221 108.028 47.4155 110.435 46.7089C113.11 45.9315 115.919 45.5782 118.66 44.8009C124.746 42.9636 130.697 40.561 136.649 38.5117C137.585 38.1583 138.588 37.8757 139.524 37.5223C141.263 36.8864 143.001 36.321 144.74 35.6851C142.801 36.2504 140.928 36.8157 139.056 37.381C132.636 39.289 126.284 41.2676 119.663 43.2463C119.195 43.3876 118.794 43.5289 118.326 43.6702C118.058 43.7409 117.724 43.8116 117.457 43.9529C116.119 44.3062 114.849 44.7303 113.511 45.0836C112.174 45.5076 110.77 45.8609 109.432 46.2849C103.748 47.9809 98.064 49.8181 92.4468 51.7261L92.38 51.6555Z"
    fill="url(#paint8_radial_3422_75405)"
  />
  <path
    style="mix-blend-mode: screen"
    opacity="0.5"
    fill-rule="evenodd"
    clip-rule="evenodd"
    d="M165.515 41.4099C187.181 38.6539 206.306 38.23 222.355 36.534C224.829 36.2513 227.17 35.9687 229.51 35.6153C231.985 35.262 234.392 34.838 236.666 34.3433C237.134 34.2727 237.602 34.1314 238.003 34.0607C238.003 33.6367 238.003 33.2834 238.07 32.8594C237.602 32.93 237.134 33.0007 236.666 33.0714C234.191 33.4247 231.784 33.778 229.443 33.99C224.161 34.626 219.212 34.9793 214.13 35.4033C212.659 35.5447 211.188 35.6153 209.65 35.7567C199.285 36.4633 187.983 37.3113 172.871 39.5019C170.329 39.8553 167.454 40.4206 164.378 40.9859C161.77 41.4806 158.961 42.1166 156.086 42.7526C159.296 42.2579 162.439 41.8339 165.515 41.4099Z"
    fill="url(#paint9_radial_3422_75405)"
  />
  <g style="mix-blend-mode: screen" opacity="0.5">
    <path
      d="M60.5973 0.917434C61.1882 0.917434 61.6672 0.854155 61.6672 0.7761C61.6672 0.698045 61.1882 0.634766 60.5973 0.634766C60.0064 0.634766 59.5273 0.698045 59.5273 0.7761C59.5273 0.854155 60.0064 0.917434 60.5973 0.917434Z"
      fill="#00FFA3"
    />
  </g>
  <defs>
    <radialGradient
      id="paint0_radial_3422_75405"
      cx="0"
      cy="0"
      r="1"
      gradientUnits="userSpaceOnUse"
      gradientTransform="translate(120.417 47.2732) scale(180.552 190.797)"
    >
      <stop stop-color="#A48A7B" />
      <stop offset="1" stop-color="white" />
    </radialGradient>
    <linearGradient
      id="paint1_linear_3422_75405"
      x1="120.362"
      y1="73.9876"
      x2="120.362"
      y2="6.71404"
      gradientUnits="userSpaceOnUse"
    >
      <stop stop-color="#062D70" />
      <stop offset="1" stop-color="#034494" />
    </linearGradient>
    <radialGradient
      id="paint2_radial_3422_75405"
      cx="0"
      cy="0"
      r="1"
      gradientUnits="userSpaceOnUse"
      gradientTransform="translate(34.263 -31.3047) scale(287.144 303.438)"
    >
      <stop stop-color="#2EA4FF" />
      <stop offset="1" stop-color="#2478F0" />
    </radialGradient>
    <radialGradient
      id="paint3_radial_3422_75405"
      cx="0"
      cy="0"
      r="1"
      gradientUnits="userSpaceOnUse"
      gradientTransform="translate(-20.4186 -115.187) scale(211.714 223.727)"
    >
      <stop stop-color="#BAC3EB" />
      <stop offset="0.99" stop-color="white" />
    </radialGradient>
    <radialGradient
      id="paint4_radial_3422_75405"
      cx="0"
      cy="0"
      r="1"
      gradientUnits="userSpaceOnUse"
      gradientTransform="translate(7.40353 -146.984) scale(277.849 293.615)"
    >
      <stop stop-color="#BAC3EB" />
      <stop offset="0.99" stop-color="white" />
    </radialGradient>
    <radialGradient
      id="paint5_radial_3422_75405"
      cx="0"
      cy="0"
      r="1"
      gradientUnits="userSpaceOnUse"
      gradientTransform="translate(96.7123 -206.201) scale(310.549 328.171)"
    >
      <stop stop-color="#BAC3EB" />
      <stop offset="0.99" stop-color="white" />
    </radialGradient>
    <radialGradient
      id="paint6_radial_3422_75405"
      cx="0"
      cy="0"
      r="1"
      gradientUnits="userSpaceOnUse"
      gradientTransform="translate(0.280305 -163.661) scale(285.071 301.247)"
    >
      <stop stop-color="#00FFA3" />
      <stop offset="1" />
    </radialGradient>
    <radialGradient
      id="paint7_radial_3422_75405"
      cx="0"
      cy="0"
      r="1"
      gradientUnits="userSpaceOnUse"
      gradientTransform="translate(106.79 -65.5777) scale(196.668 207.827)"
    >
      <stop stop-color="#0C3469" />
      <stop offset="1" />
    </radialGradient>
    <radialGradient
      id="paint8_radial_3422_75405"
      cx="0"
      cy="0"
      r="1"
      gradientUnits="userSpaceOnUse"
      gradientTransform="translate(142.065 27.3465) scale(132.471 139.988)"
    >
      <stop stop-color="#242029" />
      <stop offset="1" />
    </radialGradient>
    <radialGradient
      id="paint9_radial_3422_75405"
      cx="0"
      cy="0"
      r="1"
      gradientUnits="userSpaceOnUse"
      gradientTransform="translate(239.207 34.0607) scale(221.076 233.62)"
    >
      <stop stop-color="#0C3469" />
      <stop offset="1" />
    </radialGradient>
  </defs>
</svg>
