<svg width="315" height="82" viewBox="0 0 315 82" fill="none" xmlns="http://www.w3.org/2000/svg">
    <path fill-rule="evenodd" clip-rule="evenodd"
        d="M29.2414 5.27839C21.2668 5.50625 13.4632 8.18362 7.82404 14.051C2.46968 19.5767 -0.264614 27.324 0.0201925 34.9573C0.532844 47.6036 0.475987 57.8004 10.2733 67.0858C16.0834 72.6114 23.773 75.8584 31.8615 75.7445C115.367 74.947 198.872 74.7191 282.32 75.7445C290.352 75.8584 298.042 72.3835 303.852 66.9149C313.478 57.8004 313.592 49.7113 314.048 37.179C314.333 29.4887 311.314 21.9123 306.016 16.3866C300.377 10.5762 292.574 7.72791 284.599 7.50005C228.663 5.79109 172.67 4.53784 116.677 4.36694C87.5128 4.30998 58.3487 4.48087 29.1845 5.27839H29.2414Z"
        fill="url(#paint0_linear_2749_68664)" />
    <path style="mix-blend-mode:screen" fill-rule="evenodd" clip-rule="evenodd"
        d="M157.063 8.41195C216.93 8.69678 257.657 9.03856 277.992 10.2918C297.188 11.4881 315.017 21.1722 291.378 36.6098C276.454 46.3508 240.455 55.4083 157.063 55.4083C90.3045 55.4083 53.9063 49.8257 34.1407 43.1038C5.66009 33.3628 2.64101 14.2794 27.2483 10.4057C46.786 7.27263 91.4437 8.12711 157.006 8.46891L157.063 8.41195Z"
        fill="url(#paint1_radial_2749_68664)" />
    <path style="mix-blend-mode:screen" fill-rule="evenodd" clip-rule="evenodd"
        d="M24.0612 8.24019C18.4221 10.177 9.4792 15.8736 7.94125 21.3422C6.63114 26.0704 11.3589 26.2412 15.517 24.5893C20.2448 22.7094 25.941 19.4054 29.5865 15.9875C34.0864 11.829 31.2383 5.79068 24.0612 8.24019Z"
        fill="url(#paint2_radial_2749_68664)" />
    <path style="mix-blend-mode:multiply" fill-rule="evenodd" clip-rule="evenodd"
        d="M285.622 66.5732C199.953 69.7632 114.283 70.162 28.6131 66.5732C20.3537 66.2314 12.436 63.3262 6.45503 57.6866C4.46138 55.8067 2.86643 53.8699 1.61328 51.9331C2.86643 57.3448 5.31576 62.3008 10.3284 67.0289C16.1384 72.5545 23.8282 75.8016 31.9167 75.6876C115.422 74.8901 198.927 74.6623 282.376 75.6876C290.407 75.8016 298.097 72.3267 303.907 66.858C309.261 61.7881 311.654 57.003 312.85 51.5913C311.54 53.5851 309.888 55.5219 307.724 57.5157C301.8 63.1553 293.882 66.2314 285.622 66.5732Z"
        fill="url(#paint3_radial_2749_68664)" />
    <path style="mix-blend-mode:screen" fill-rule="evenodd" clip-rule="evenodd"
        d="M295.018 68.5099C299.461 66.63 304.245 62.1868 304.758 57.8574C305.157 54.4395 301.454 54.0407 298.663 55.5788C295.53 57.3447 291.942 60.193 289.72 62.9273C286.986 66.2883 290.119 70.5606 295.018 68.4529V68.5099Z"
        fill="url(#paint4_radial_2749_68664)" />
    <g style="mix-blend-mode:screen">
        <path
            d="M19.7385 16.1582C19.7385 16.1582 19.7386 16.8418 19.3968 17.0697C18.9981 17.2975 18.5993 17.2975 18.4284 17.0697C18.2575 16.7848 18.4284 16.3861 18.7701 16.1582C19.1119 15.9303 19.5677 15.9303 19.7385 16.1582Z"
            fill="#FFED44" />
    </g>
    <path
        d="M40.9239 47.252C40.4732 47.6333 39.8839 47.9453 39.1559 48.188C38.4625 48.396 37.6479 48.5 36.7119 48.5C35.4639 48.5 34.4239 48.344 33.5919 48.032C32.7945 47.72 32.2745 47.1827 32.0319 46.42C31.0612 43.3693 30.2639 40.908 29.6399 39.036C29.0159 37.1293 28.5305 35.4653 28.1839 34.044H27.9239C27.8199 36.0893 27.7332 37.9613 27.6639 39.66C27.6292 41.324 27.5945 42.9533 27.5599 44.548C27.5599 46.1427 27.5252 47.7547 27.4559 49.384C27.4212 51.0133 27.3519 52.816 27.2479 54.792C26.7972 54.9653 26.2079 55.104 25.4799 55.208C24.7519 55.3467 24.0239 55.416 23.2959 55.416C21.7705 55.416 20.5745 55.1733 19.7079 54.688C18.8759 54.2027 18.4599 53.3187 18.4599 52.036L19.9679 25.516C20.2452 25.0653 20.8519 24.58 21.7879 24.06C22.7239 23.54 24.0412 23.28 25.7399 23.28C27.5772 23.28 29.0159 23.5747 30.0559 24.164C31.0959 24.7187 31.8585 25.6373 32.3439 26.92C32.6559 27.752 32.9852 28.7053 33.3319 29.78C33.7132 30.8547 34.0772 31.964 34.4239 33.108C34.8052 34.252 35.1692 35.396 35.5159 36.54C35.8625 37.6493 36.1745 38.6547 36.4519 39.556H36.7119C37.5439 36.644 38.3759 33.836 39.2079 31.132C40.0399 28.3933 40.8025 26.1053 41.4959 24.268C42.0159 23.9907 42.6745 23.7653 43.4719 23.592C44.3039 23.384 45.2225 23.28 46.2279 23.28C47.9265 23.28 49.3132 23.54 50.3879 24.06C51.4625 24.5453 52.0865 25.256 52.2599 26.192C52.3985 26.8853 52.5372 27.96 52.6759 29.416C52.8492 30.8373 53.0225 32.4493 53.1959 34.252C53.3692 36.0547 53.5425 37.9613 53.7159 39.972C53.8892 41.9827 54.0452 43.924 54.1839 45.796C54.3572 47.6333 54.4959 49.332 54.5999 50.892C54.7039 52.4173 54.7732 53.596 54.8079 54.428C54.2185 54.7747 53.5945 55.0173 52.9359 55.156C52.3119 55.3293 51.4972 55.416 50.4919 55.416C49.1745 55.416 48.0652 55.1907 47.1639 54.74C46.2625 54.2893 45.7772 53.4053 45.7079 52.088C45.4999 48.3093 45.3612 44.912 45.2919 41.896C45.2572 38.88 45.1879 36.3493 45.0839 34.304H44.8239C44.4772 35.656 43.9745 37.3547 43.3159 39.4C42.6572 41.4453 41.8599 44.0627 40.9239 47.252ZM88.4974 43.352C88.4974 45.224 88.168 46.94 87.5094 48.5C86.8854 50.0253 85.9667 51.3427 84.7534 52.452C83.54 53.5267 82.0667 54.3587 80.3334 54.948C78.6 55.5373 76.6414 55.832 74.4574 55.832C72.2734 55.832 70.3147 55.5373 68.5814 54.948C66.848 54.3587 65.3747 53.5267 64.1614 52.452C62.948 51.3427 62.012 50.0253 61.3534 48.5C60.7294 46.94 60.4174 45.224 60.4174 43.352V23.488C60.7987 23.4187 61.4054 23.332 62.2374 23.228C63.0694 23.0893 63.8667 23.02 64.6294 23.02C65.4267 23.02 66.12 23.0893 66.7094 23.228C67.3334 23.332 67.8534 23.54 68.2694 23.852C68.6854 24.164 68.9974 24.5973 69.2054 25.152C69.4134 25.7067 69.5174 26.4347 69.5174 27.336V43.196C69.5174 44.86 69.968 46.16 70.8694 47.096C71.8054 48.032 73.0014 48.5 74.4574 48.5C75.948 48.5 77.144 48.032 78.0454 47.096C78.9467 46.16 79.3974 44.86 79.3974 43.196V23.488C79.7787 23.4187 80.3854 23.332 81.2174 23.228C82.0494 23.0893 82.8467 23.02 83.6094 23.02C84.4067 23.02 85.1 23.0893 85.6894 23.228C86.3134 23.332 86.8334 23.54 87.2494 23.852C87.6654 24.164 87.9774 24.5973 88.1854 25.152C88.3934 25.7067 88.4974 26.4347 88.4974 27.336V43.352ZM99.9406 55.156C98.4499 55.156 97.2713 54.7227 96.4046 53.856C95.5379 52.9893 95.1046 51.8107 95.1046 50.32V23.436C95.4859 23.3667 96.0926 23.28 96.9246 23.176C97.7566 23.0373 98.5539 22.968 99.3166 22.968C100.114 22.968 100.807 23.0373 101.397 23.176C102.021 23.28 102.541 23.488 102.957 23.8C103.373 24.112 103.685 24.5453 103.893 25.1C104.101 25.6547 104.205 26.3827 104.205 27.284V47.824H116.113C116.355 48.2053 116.581 48.7253 116.789 49.384C116.997 50.008 117.101 50.6667 117.101 51.36C117.101 52.7467 116.806 53.7347 116.217 54.324C115.627 54.8787 114.847 55.156 113.877 55.156H99.9406ZM128.981 24.424C129.57 24.0773 130.454 23.748 131.633 23.436C132.846 23.124 134.059 22.968 135.273 22.968C137.006 22.968 138.531 23.228 139.849 23.748C141.201 24.2333 142.067 25.0133 142.449 26.088C143.073 27.8907 143.749 29.988 144.477 32.38C145.205 34.772 145.933 37.2507 146.661 39.816C147.389 42.3467 148.099 44.86 148.793 47.356C149.486 49.8173 150.093 52.0013 150.613 53.908C150.197 54.3933 149.573 54.7747 148.741 55.052C147.909 55.364 146.921 55.52 145.777 55.52C144.945 55.52 144.234 55.4507 143.645 55.312C143.09 55.1733 142.622 54.9653 142.241 54.688C141.894 54.4107 141.599 54.0467 141.357 53.596C141.149 53.1453 140.958 52.6253 140.785 52.036L139.849 48.448H130.437C130.159 49.488 129.882 50.5627 129.605 51.672C129.327 52.7813 129.05 53.856 128.773 54.896C128.287 55.0693 127.767 55.208 127.213 55.312C126.693 55.4507 126.051 55.52 125.289 55.52C123.521 55.52 122.203 55.2253 121.337 54.636C120.505 54.012 120.089 53.1627 120.089 52.088C120.089 51.6027 120.158 51.1173 120.297 50.632C120.435 50.1467 120.591 49.5747 120.765 48.916C121.007 47.98 121.337 46.8187 121.753 45.432C122.203 44.0453 122.689 42.5547 123.209 40.96C123.729 39.3307 124.283 37.6667 124.873 35.968C125.462 34.2693 126.017 32.6747 126.537 31.184C127.057 29.6587 127.525 28.3067 127.941 27.128C128.391 25.9493 128.738 25.048 128.981 24.424ZM135.221 31.132C134.735 32.588 134.181 34.2173 133.557 36.02C132.967 37.788 132.43 39.5907 131.945 41.428H138.393C137.907 39.556 137.405 37.736 136.885 35.968C136.399 34.1653 135.949 32.5533 135.533 31.132H135.221ZM163.974 54.792C163.593 54.896 162.986 55 162.154 55.104C161.357 55.208 160.559 55.26 159.762 55.26C158.965 55.26 158.254 55.1907 157.63 55.052C157.041 54.948 156.538 54.74 156.122 54.428C155.706 54.116 155.394 53.6827 155.186 53.128C154.978 52.5733 154.874 51.8453 154.874 50.944V23.488C155.255 23.4187 155.862 23.332 156.694 23.228C157.526 23.0893 158.323 23.02 159.086 23.02C159.883 23.02 160.577 23.0893 161.166 23.228C161.79 23.332 162.31 23.54 162.726 23.852C163.142 24.164 163.454 24.5973 163.662 25.152C163.87 25.7067 163.974 26.4347 163.974 27.336V54.792ZM179.568 39.192C179.568 36.488 179.984 34.096 180.816 32.016C181.683 29.936 182.844 28.2027 184.3 26.816C185.791 25.3947 187.524 24.32 189.5 23.592C191.511 22.864 193.677 22.5 196 22.5C198.323 22.5 200.472 22.864 202.448 23.592C204.459 24.32 206.209 25.3947 207.7 26.816C209.191 28.2027 210.352 29.936 211.184 32.016C212.051 34.096 212.484 36.488 212.484 39.192C212.484 42.5893 211.86 45.484 210.612 47.876C209.364 50.2333 207.665 52.088 205.516 53.44C206.036 53.6827 206.643 53.9427 207.336 54.22C208.064 54.4973 208.809 54.7747 209.572 55.052C210.369 55.3293 211.184 55.5893 212.016 55.832C212.848 56.1093 213.628 56.352 214.356 56.56C214.391 56.768 214.408 56.9413 214.408 57.08C214.408 57.2533 214.408 57.4093 214.408 57.548C214.408 59.524 213.888 60.9627 212.848 61.864C211.843 62.7653 210.508 63.216 208.844 63.216C207.249 63.216 205.603 62.7653 203.904 61.864C202.205 60.9973 200.472 59.732 198.704 58.068L196.416 55.936H196C193.643 55.936 191.459 55.572 189.448 54.844C187.437 54.0813 185.704 52.9893 184.248 51.568C182.792 50.1467 181.648 48.396 180.816 46.316C179.984 44.236 179.568 41.8613 179.568 39.192ZM188.928 39.192C188.928 42.3467 189.569 44.704 190.852 46.264C192.135 47.824 193.851 48.604 196 48.604C198.184 48.604 199.917 47.824 201.2 46.264C202.483 44.704 203.124 42.3467 203.124 39.192C203.124 36.072 202.483 33.732 201.2 32.172C199.952 30.612 198.236 29.832 196.052 29.832C193.903 29.832 192.169 30.612 190.852 32.172C189.569 33.6973 188.928 36.0373 188.928 39.192ZM245.716 43.352C245.716 45.224 245.387 46.94 244.728 48.5C244.104 50.0253 243.185 51.3427 241.972 52.452C240.759 53.5267 239.285 54.3587 237.552 54.948C235.819 55.5373 233.86 55.832 231.676 55.832C229.492 55.832 227.533 55.5373 225.8 54.948C224.067 54.3587 222.593 53.5267 221.38 52.452C220.167 51.3427 219.231 50.0253 218.572 48.5C217.948 46.94 217.636 45.224 217.636 43.352V23.488C218.017 23.4187 218.624 23.332 219.456 23.228C220.288 23.0893 221.085 23.02 221.848 23.02C222.645 23.02 223.339 23.0893 223.928 23.228C224.552 23.332 225.072 23.54 225.488 23.852C225.904 24.164 226.216 24.5973 226.424 25.152C226.632 25.7067 226.736 26.4347 226.736 27.336V43.196C226.736 44.86 227.187 46.16 228.088 47.096C229.024 48.032 230.22 48.5 231.676 48.5C233.167 48.5 234.363 48.032 235.264 47.096C236.165 46.16 236.616 44.86 236.616 43.196V23.488C236.997 23.4187 237.604 23.332 238.436 23.228C239.268 23.0893 240.065 23.02 240.828 23.02C241.625 23.02 242.319 23.0893 242.908 23.228C243.532 23.332 244.052 23.54 244.468 23.852C244.884 24.164 245.196 24.5973 245.404 25.152C245.612 25.7067 245.716 26.4347 245.716 27.336V43.352ZM261.423 54.792C261.042 54.896 260.435 55 259.603 55.104C258.806 55.208 258.009 55.26 257.211 55.26C256.414 55.26 255.703 55.1907 255.079 55.052C254.49 54.948 253.987 54.74 253.571 54.428C253.155 54.116 252.843 53.6827 252.635 53.128C252.427 52.5733 252.323 51.8453 252.323 50.944V23.488C252.705 23.4187 253.311 23.332 254.143 23.228C254.975 23.0893 255.773 23.02 256.535 23.02C257.333 23.02 258.026 23.0893 258.615 23.228C259.239 23.332 259.759 23.54 260.175 23.852C260.591 24.164 260.903 24.5973 261.111 25.152C261.319 25.7067 261.423 26.4347 261.423 27.336V54.792ZM280.803 30.768H268.011C267.768 30.3867 267.543 29.8667 267.335 29.208C267.127 28.5493 267.023 27.856 267.023 27.128C267.023 25.776 267.318 24.8053 267.907 24.216C268.531 23.6267 269.328 23.332 270.299 23.332H289.695C291.22 24.58 291.983 26.244 291.983 28.324C291.983 29.1907 291.775 30.0573 291.359 30.924C290.978 31.756 290.475 32.5533 289.851 33.316L278.047 47.564H291.359C291.602 47.9453 291.827 48.4653 292.035 49.124C292.243 49.7827 292.347 50.476 292.347 51.204C292.347 52.556 292.035 53.5267 291.411 54.116C290.822 54.7053 290.042 55 289.071 55H268.583C267.994 54.5147 267.508 53.856 267.127 53.024C266.746 52.192 266.555 51.2387 266.555 50.164C266.555 49.2973 266.78 48.4133 267.231 47.512C267.682 46.6107 268.219 45.7787 268.843 45.016L280.803 30.768Z"
        fill="#FEFEFE" />
    <defs>
        <linearGradient id="paint0_linear_2749_68664" x1="157.063" y1="75.6875" x2="157.063"
            y2="4.30998" gradientUnits="userSpaceOnUse">
            <stop stop-color="#FA642B" />
            <stop offset="1" stop-color="#FF9633" />
        </linearGradient>
        <radialGradient id="paint1_radial_2749_68664" cx="0" cy="0" r="1"
            gradientUnits="userSpaceOnUse"
            gradientTransform="translate(63.191 -274.136) scale(422.824 422.854)">
            <stop stop-color="#FF7B00" />
            <stop offset="1" stop-color="#471808" />
        </radialGradient>
        <radialGradient id="paint2_radial_2749_68664" cx="0" cy="0" r="1"
            gradientUnits="userSpaceOnUse"
            gradientTransform="translate(17.9664 5.79068) scale(81.2836 81.2896)">
            <stop stop-color="#FFFBD9" />
            <stop offset="1" />
        </radialGradient>
        <radialGradient id="paint3_radial_2749_68664" cx="0" cy="0" r="1"
            gradientUnits="userSpaceOnUse"
            gradientTransform="translate(142.536 -558.906) scale(796.49 796.546)">
            <stop offset="0.7" stop-color="white" />
            <stop offset="0.71" stop-color="#FBFAF9" />
            <stop offset="0.77" stop-color="#E6D9D5" />
            <stop offset="0.83" stop-color="#D4BFB8" />
            <stop offset="0.88" stop-color="#C8ACA4" />
            <stop offset="0.94" stop-color="#C1A198" />
            <stop offset="1" stop-color="#BF9E94" />
        </radialGradient>
        <radialGradient id="paint4_radial_2749_68664" cx="0" cy="0" r="1"
            gradientUnits="userSpaceOnUse"
            gradientTransform="translate(323.612 74.4343) scale(106.061 106.069)">
            <stop stop-color="#FFFBD9" />
            <stop offset="1" />
        </radialGradient>
    </defs>
</svg>