<svg width="40" height="40" viewBox="0 0 40 40" fill="none" xmlns="http://www.w3.org/2000/svg">
<rect width="40" height="40" rx="16" fill="#52BD94"/>
<path d="M26.6667 20.3333C26.6667 21.2088 26.4942 22.0757 26.1592 22.8846C25.8242 23.6934 25.3331 24.4283 24.714 25.0474C24.4573 25.3042 24.1805 25.5389 23.8869 25.7497M13.3333 20.3333C13.3333 21.2088 13.5058 22.0757 13.8408 22.8846C14.1758 23.6934 14.6669 24.4283 15.286 25.0474C15.5427 25.3042 15.8195 25.5389 16.1131 25.7497M20 13.6667C21.1046 13.6667 22 12.7712 22 11.6667C22 10.5621 20 7 20 7C20 7 18 10.5621 18 11.6667C18 12.7712 18.8954 13.6667 20 13.6667ZM20 13.6667V20.3333M27.3333 16.3333C28.4379 16.3333 29.3333 15.4379 29.3333 14.3333C29.3333 13.2288 27.3333 9.66667 27.3333 9.66667C27.3333 9.66667 25.3333 13.2288 25.3333 14.3333C25.3333 15.4379 26.2288 16.3333 27.3333 16.3333ZM27.3333 16.3333L27.3333 20.3333M12.6667 16.3333C13.7712 16.3333 14.6667 15.4379 14.6667 14.3333C14.6667 13.2288 12.6667 9.66667 12.6667 9.66667C12.6667 9.66667 10.6667 13.2288 10.6667 14.3333C10.6667 15.4379 11.5621 16.3333 12.6667 16.3333ZM12.6667 16.3333V20.3333M32 24.7713C31.2073 25.7522 30.1197 26.465 28.8862 26.7956C27.3492 27.2074 24.7798 26.6426 24.3333 26.1962C23.8869 25.7497 23.8869 25.7497 23.8869 25.7497M32 24.7713V23C32 21.5272 30.8061 20.3333 29.3333 20.3333H10.6667C9.19391 20.3333 8 21.5272 8 23V24.7713M32 24.7713V29.6667C32 31.1394 30.8061 32.3333 29.3333 32.3333H10.6667C9.19391 32.3333 8 31.1394 8 29.6667V24.7713M8 24.7713C8.79269 25.7522 9.88027 26.465 11.1138 26.7956C12.6508 27.2074 15.2202 26.6426 15.6667 26.1962C16.1131 25.7497 16.1131 25.7497 16.1131 25.7497M16.1131 25.7497C16.5274 26.047 16.9755 26.2965 17.4488 26.4925C18.2576 26.8276 19.1245 27 20 27C20.8755 27 21.7424 26.8276 22.5512 26.4925C23.0245 26.2965 23.4726 26.047 23.8869 25.7497" stroke="#FEFEFE" stroke-width="2" stroke-linecap="round" stroke-linejoin="round"/>
</svg>
