<svg width="1045" height="1184" viewBox="0 0 1045 1184" fill="none"
  xmlns="http://www.w3.org/2000/svg">
  <path style="mix-blend-mode:screen" opacity="0.2"
    d="M830.179 817.52C830.179 771.967 982.035 550.712 782.455 456.824C582.875 362.935 157.766 516.013 64.4878 510.179C-28.7899 504.378 -150.288 420.564 -243.532 475.31C-336.81 530.021 -269.582 583.274 -278.266 633.136C-286.949 683.031 -373.714 659.152 -365.031 715.559C-356.517 771.051 -270.159 787.977 -267.479 788.451C-295.666 774.511 -332.401 674.279 -150.322 594.095C31.8914 513.808 374.645 576.728 504.759 652.639C634.907 728.55 676.763 855.103 617.201 1000.82C581.179 1088.91 389.841 1182.83 360.738 1183.2L901.749 1182.59L898.085 884.714C898.085 884.714 830.145 863.006 830.145 817.486L830.179 817.52ZM-56.7054 516.996C-75.2932 518.726 -94.0165 519.642 -112.672 520.999C-126.342 521.982 -140.248 523 -153.07 527.952C-187.532 541.384 -209.172 581.375 -245.805 586.463C-248.688 586.87 -251.673 587.005 -254.454 586.225C-264.528 583.376 -267.377 570.555 -267.717 560.108C-268.192 546.642 -267.513 532.735 -261.95 520.422C-253.437 501.461 -234.34 488.877 -214.226 483.688C-194.146 478.464 -172.946 479.719 -152.324 481.958C-117.997 485.35 -81.7717 490.98 -48.9379 501.801C-28.4507 508.55 -42.5951 515.64 -56.7054 516.996ZM532.335 533.956C497.975 544.844 462.801 554.104 426.88 557.258C377.935 561.566 328.786 554.545 280.18 547.557C256.233 544.098 228.724 541.791 206.643 531.107C175.404 515.945 213.97 503.971 230.149 498.476C281.74 480.94 328.481 466.558 381.734 455.297C414.33 448.412 460.732 437.524 493.972 439.254C513.442 440.271 526.467 451.363 543.189 461.437C560.759 471.986 575.107 494.237 565.644 512.451C559.402 524.526 545.292 529.886 532.335 533.99V533.956ZM576.43 542.537C568.832 540.943 564.049 530.53 569.002 524.492L570.426 524.56C574.191 521.847 578.16 519.065 582.739 518.285C587.318 517.539 592.711 519.472 594.339 523.848C595.153 526.053 594.882 528.529 594.237 530.801C591.965 538.264 584.062 544.166 576.43 542.571V542.537ZM627.139 712.574C622.017 738.319 605.329 720.206 599.054 706.978C594.373 697.107 585.622 681.606 587.488 670.141C589.658 656.879 601.632 658.304 611.061 665.461C624.697 675.806 630.361 696.327 627.105 712.574H627.139ZM750.774 904.862C748.671 913.851 746.026 923.145 739.683 929.928C729.948 940.375 713.056 942.071 700.031 936.237C686.972 930.403 677.543 918.328 671.912 905.201C666.248 892.075 663.941 877.795 661.703 863.684C655.156 822.608 648.983 781.498 642.03 740.49C638.061 716.984 630.158 671.566 670.725 679.91C703.559 686.66 732.594 709.861 746.467 740.388C754.302 757.619 757.389 776.614 758.949 795.473C761.9 832.038 759.152 869.111 750.808 904.862H750.774ZM789.442 494.406C787.238 501.122 779.3 503.802 772.415 505.362C733.747 514.215 694.028 518.387 654.376 517.743C637.281 517.471 619.338 516.013 605.058 506.651C589.964 496.78 575.65 473.41 575.344 454.924C574.903 431.554 608.992 440.746 626.359 441.899C675.711 445.155 724.589 455.535 770.99 472.698C780.895 476.327 792.733 484.332 789.442 494.372V494.406Z"
    fill="url(#paint0_linear_465_5662)" />
  <path style="mix-blend-mode:screen" opacity="0.15"
    d="M-254.351 618.686C-254.351 618.686 -206.694 546.676 -153.272 533.413C-99.8151 520.151 -47.6135 548.677 -15.7973 528.733C16.0189 508.788 39.1518 479.855 136.025 486.368C232.898 492.88 276.281 478.532 276.281 478.532C276.281 478.532 177.949 506.617 166.383 521.779C154.816 536.941 237.613 576.253 381.668 533.413C585.929 472.63 611.266 692.155 638.605 789.469C665.944 886.783 626.055 939.562 626.055 939.562C626.055 939.562 652.309 837.024 587.218 756.771C522.127 676.518 405.513 732.926 285.948 670.006C166.383 607.086 -41.7455 541.317 -254.385 618.686H-254.351Z"
    fill="url(#paint1_linear_465_5662)" />
  <path style="mix-blend-mode:screen"
    d="M667.821 397.805C670.637 397.635 673.045 399.772 673.214 402.587C673.384 405.403 671.247 407.811 668.432 407.981C665.617 408.15 663.208 406.013 663.039 403.198C662.869 400.383 665.006 397.974 667.821 397.805Z"
    fill="url(#paint2_radial_465_5662)" />
  <path
    d="M668.432 401.468C669.212 401.434 669.89 402.011 669.924 402.791C669.958 403.571 669.381 404.25 668.601 404.284C667.821 404.317 667.143 403.741 667.109 402.961C667.075 402.181 667.652 401.502 668.432 401.468Z"
    fill="#C7FFED" />
  <path style="mix-blend-mode:screen"
    d="M674.765 375.961C677.58 375.791 679.988 377.928 680.158 380.743C680.327 383.559 678.191 385.967 675.375 386.136C672.56 386.306 670.152 384.169 669.982 381.354C669.812 378.538 671.95 376.13 674.765 375.961Z"
    fill="url(#paint3_radial_465_5662)" />
  <path
    d="M675.375 379.624C676.155 379.59 676.834 380.167 676.868 380.947C676.901 381.727 676.325 382.405 675.545 382.439C674.765 382.473 674.086 381.897 674.052 381.116C674.018 380.336 674.595 379.658 675.375 379.624Z"
    fill="#C7FFED" />
  <path style="mix-blend-mode:screen"
    d="M670.651 438.609C673.467 438.439 675.875 440.576 676.045 443.392C676.214 446.207 674.077 448.615 671.262 448.785C668.447 448.954 666.038 446.817 665.869 444.002C665.699 441.187 667.836 438.779 670.651 438.609Z"
    fill="url(#paint4_radial_465_5662)" />
  <path
    d="M671.295 442.272C672.075 442.238 672.754 442.815 672.787 443.595C672.821 444.375 672.245 445.054 671.465 445.088C670.684 445.122 670.006 444.545 669.972 443.765C669.938 442.985 670.515 442.306 671.295 442.272Z"
    fill="#C7FFED" />
  <path style="mix-blend-mode:screen"
    d="M646.738 364.801C654.573 364.326 661.323 370.33 661.798 378.165C662.273 386.001 656.269 392.751 648.434 393.225C640.599 393.7 633.849 387.697 633.374 379.861C632.899 372.026 638.903 365.276 646.738 364.801Z"
    fill="url(#paint5_radial_465_5662)" />
  <path
    d="M648.434 375.011C650.604 374.875 652.47 376.538 652.606 378.708C652.741 380.879 651.079 382.745 648.908 382.88C646.738 383.016 644.872 381.354 644.736 379.183C644.601 377.012 646.263 375.147 648.434 375.011Z"
    fill="#C7FFED" />
  <path style="mix-blend-mode:screen"
    d="M720.092 490.099C727.927 489.624 734.677 495.627 735.152 503.463C735.627 511.298 729.623 518.048 721.788 518.523C713.952 518.998 707.202 512.994 706.728 505.159C706.253 497.323 712.256 490.573 720.092 490.099Z"
    fill="url(#paint6_radial_465_5662)" />
  <path
    d="M721.787 500.309C723.958 500.173 725.823 501.835 725.959 504.006C726.095 506.177 724.433 508.042 722.262 508.178C720.091 508.313 718.225 506.651 718.09 504.481C717.954 502.31 719.616 500.444 721.787 500.309Z"
    fill="#C7FFED" />
  <path style="mix-blend-mode:screen"
    d="M574.01 348.316C577.741 348.079 580.963 350.962 581.2 354.693C581.438 358.424 578.555 361.647 574.824 361.884C571.093 362.122 567.87 359.238 567.633 355.507C567.395 351.776 570.279 348.554 574.01 348.316Z"
    fill="url(#paint7_radial_465_5662)" />
  <path
    d="M574.823 353.2C575.874 353.133 576.756 353.913 576.824 354.964C576.892 356.016 576.112 356.898 575.06 356.965C574.009 357.033 573.127 356.219 573.059 355.202C572.991 354.15 573.771 353.268 574.823 353.2Z"
    fill="#C7FFED" />
  <path style="mix-blend-mode:screen"
    d="M687.338 473.445C691.069 473.207 694.291 476.09 694.529 479.822C694.766 483.553 691.883 486.775 688.152 487.012C684.421 487.25 681.198 484.367 680.961 480.636C680.724 476.905 683.607 473.682 687.338 473.445Z"
    fill="url(#paint8_radial_465_5662)" />
  <path
    d="M688.15 478.329C689.202 478.261 690.084 479.075 690.152 480.092C690.22 481.144 689.439 482.026 688.388 482.094C687.336 482.162 686.455 481.381 686.387 480.33C686.319 479.278 687.133 478.396 688.15 478.329Z"
    fill="#C7FFED" />
  <path style="mix-blend-mode:screen"
    d="M519.676 223.562C521.542 223.46 523.17 224.885 523.271 226.75C523.373 228.616 521.949 230.244 520.083 230.346C518.217 230.447 516.589 229.023 516.488 227.157C516.386 225.292 517.81 223.664 519.676 223.562Z"
    fill="url(#paint9_radial_465_5662)" />
  <path
    d="M520.118 226.004C520.627 226.004 521.068 226.377 521.102 226.886C521.102 227.395 520.729 227.836 520.22 227.869C519.711 227.869 519.27 227.496 519.236 226.988C519.236 226.479 519.609 226.038 520.118 226.004Z"
    fill="#C7FFED" />
  <path style="mix-blend-mode:screen"
    d="M571.207 257.548C573.073 257.446 574.701 258.871 574.803 260.737C574.904 262.602 573.48 264.23 571.614 264.332C569.749 264.434 568.121 263.009 568.019 261.144C567.917 259.278 569.342 257.65 571.207 257.548Z"
    fill="url(#paint10_radial_465_5662)" />
  <path
    d="M571.608 259.99C572.117 259.99 572.558 260.363 572.592 260.872C572.592 261.381 572.219 261.822 571.71 261.856C571.201 261.856 570.76 261.483 570.727 260.974C570.727 260.465 571.1 260.024 571.608 259.99Z"
    fill="#C7FFED" />
  <path style="mix-blend-mode:screen"
    d="M722.471 433.047C724.336 432.945 725.965 434.37 726.066 436.236C726.168 438.101 724.743 439.729 722.878 439.831C721.012 439.933 719.384 438.508 719.282 436.643C719.181 434.777 720.605 433.149 722.471 433.047Z"
    fill="url(#paint11_radial_465_5662)" />
  <path
    d="M722.872 435.489C723.381 435.489 723.822 435.862 723.856 436.371C723.89 436.88 723.483 437.321 722.974 437.355C722.465 437.355 722.024 436.982 721.99 436.473C721.99 435.964 722.363 435.523 722.872 435.489Z"
    fill="#C7FFED" />
  <path style="mix-blend-mode:screen"
    d="M675.327 486.402C676.717 486.334 677.938 487.385 678.006 488.776C678.074 490.167 677.023 491.388 675.632 491.456C674.241 491.523 673.02 490.472 672.952 489.081C672.884 487.691 673.936 486.469 675.327 486.402Z"
    fill="url(#paint12_radial_465_5662)" />
  <path
    d="M675.633 488.199C676.006 488.199 676.345 488.471 676.379 488.844C676.379 489.217 676.108 489.556 675.735 489.59C675.361 489.59 675.022 489.319 674.988 488.945C674.988 488.572 675.26 488.233 675.633 488.199Z"
    fill="#C7FFED" />
  <path style="mix-blend-mode:screen"
    d="M531.714 217.524C534.631 217.355 537.141 219.593 537.345 222.51C537.514 225.427 535.275 227.937 532.358 228.141C529.441 228.31 526.931 226.072 526.728 223.155C526.558 220.238 528.797 217.728 531.714 217.524Z"
    fill="url(#paint13_radial_465_5662)" />
  <path
    d="M532.363 221.357C533.177 221.323 533.855 221.933 533.923 222.748C533.957 223.562 533.346 224.24 532.532 224.308C531.718 224.342 531.04 223.731 530.972 222.917C530.938 222.103 531.549 221.425 532.363 221.357Z"
    fill="#C7FFED" />
  <path style="mix-blend-mode:screen"
    d="M739.542 497.018C742.459 496.849 744.969 499.087 745.172 502.004C745.342 504.921 743.103 507.432 740.186 507.635C737.269 507.805 734.759 505.566 734.556 502.649C734.386 499.732 736.625 497.222 739.542 497.018Z"
    fill="url(#paint14_radial_465_5662)" />
  <path
    d="M740.191 500.817C741.005 500.783 741.683 501.393 741.751 502.207C741.785 503.022 741.174 503.7 740.36 503.768C739.546 503.802 738.868 503.191 738.8 502.377C738.766 501.563 739.377 500.885 740.191 500.817Z"
    fill="#C7FFED" />
  <path style="mix-blend-mode:screen"
    d="M424.306 111.662C425.392 114.274 424.137 117.225 421.559 118.31C418.947 119.396 415.996 118.141 414.911 115.563C413.825 112.951 415.08 110 417.658 108.915C420.27 107.829 423.221 109.084 424.306 111.662Z"
    fill="url(#paint15_radial_465_5662)" />
  <path
    d="M421.083 113.426C421.388 114.138 421.049 114.953 420.303 115.258C419.591 115.563 418.776 115.224 418.471 114.478C418.166 113.731 418.505 112.951 419.251 112.646C419.964 112.341 420.778 112.68 421.083 113.426Z"
    fill="#C7FFED" />
  <path style="mix-blend-mode:screen"
    d="M482.351 93.3795C483.437 95.9913 482.182 98.9422 479.604 100.028C476.992 101.113 474.041 99.858 472.956 97.2802C471.87 94.6684 473.125 91.7174 475.703 90.632C478.315 89.5466 481.266 90.8016 482.351 93.3795Z"
    fill="url(#paint16_radial_465_5662)" />
  <path
    d="M479.087 95.1434C479.392 95.8557 479.053 96.6698 478.307 96.9751C477.594 97.2803 476.78 96.9411 476.475 96.1949C476.17 95.4826 476.509 94.6686 477.255 94.3633C477.968 94.058 478.782 94.3972 479.087 95.1434Z"
    fill="#C7FFED" />
  <path style="mix-blend-mode:screen"
    d="M312.039 732.35C313.124 734.961 311.869 737.912 309.291 738.998C306.68 740.083 303.729 738.828 302.643 736.25C301.558 733.639 302.813 730.688 305.391 729.602C307.969 728.517 310.953 729.772 312.039 732.35Z"
    fill="url(#paint17_radial_465_5662)" />
  <path
    d="M308.774 734.113C309.08 734.826 308.74 735.64 307.994 735.945C307.282 736.25 306.468 735.911 306.163 735.165C305.857 734.452 306.196 733.638 306.943 733.333C307.655 733.028 308.469 733.367 308.774 734.079V734.113Z"
    fill="#C7FFED" />
  <path style="mix-blend-mode:screen"
    d="M448.635 80.9313C451.654 88.19 448.194 96.5342 440.935 99.5191C433.676 102.538 425.332 99.0781 422.347 91.8194C419.329 84.5607 422.788 76.2166 430.047 73.2317C437.306 70.2468 445.65 73.6726 448.635 80.9313Z"
    fill="url(#paint18_radial_465_5662)" />
  <path
    d="M439.543 85.8837C440.391 87.885 439.408 90.1915 437.406 91.0394C435.405 91.8874 433.099 90.9038 432.251 88.9025C431.403 86.9013 432.386 84.5948 434.388 83.7468C436.389 82.8988 438.695 83.8825 439.543 85.8837Z"
    fill="#C7FFED" />
  <path style="mix-blend-mode:screen"
    d="M279.514 795.88C282.533 803.139 279.073 811.483 271.814 814.468C264.555 817.487 256.211 814.027 253.226 806.768C250.208 799.51 253.667 791.165 260.926 788.18C268.185 785.162 276.529 788.621 279.514 795.88Z"
    fill="url(#paint19_radial_465_5662)" />
  <path
    d="M270.422 800.832C271.27 802.834 270.287 805.14 268.285 805.988C266.284 806.836 263.978 805.852 263.13 803.851C262.282 801.85 263.265 799.544 265.267 798.696C267.268 797.848 269.574 798.831 270.422 800.832Z"
    fill="#C7FFED" />
  <path style="mix-blend-mode:screen"
    d="M383.175 16.214C384.6 19.6737 382.971 23.6762 379.478 25.1008C375.984 26.5254 372.05 24.8973 370.591 21.4036C369.166 17.9439 370.795 13.9753 374.288 12.5168C377.748 11.0922 381.75 12.7203 383.175 16.214Z"
    fill="url(#paint20_radial_465_5662)" />
  <path
    d="M378.838 18.5877C379.246 19.5375 378.771 20.6568 377.821 21.0299C376.871 21.437 375.752 20.9621 375.379 20.0124C374.972 19.0626 375.447 17.9433 376.396 17.5702C377.346 17.1631 378.465 17.638 378.838 18.5877Z"
    fill="#C7FFED" />
  <path style="mix-blend-mode:screen"
    d="M284.566 759.451C285.99 762.911 284.362 766.879 280.868 768.338C277.409 769.762 273.44 768.134 271.982 764.64C270.557 761.181 272.185 757.178 275.679 755.754C279.139 754.329 283.107 755.957 284.566 759.451Z"
    fill="url(#paint21_radial_465_5662)" />
  <path
    d="M280.229 761.825C280.636 762.775 280.161 763.894 279.212 764.301C278.262 764.708 277.143 764.233 276.769 763.283C276.362 762.334 276.837 761.214 277.787 760.841C278.737 760.434 279.856 760.909 280.229 761.859V761.825Z"
    fill="#C7FFED" />
  <path style="mix-blend-mode:screen"
    d="M658.316 177.296C659.028 179.026 658.214 181.027 656.484 181.739C654.754 182.452 652.753 181.637 652.041 179.908C651.329 178.178 652.143 176.177 653.872 175.464C655.602 174.752 657.604 175.566 658.316 177.296Z"
    fill="url(#paint22_radial_465_5662)" />
  <path
    d="M656.148 178.483C656.351 178.958 656.148 179.501 655.639 179.704C655.164 179.908 654.621 179.704 654.418 179.196C654.214 178.721 654.418 178.178 654.927 177.974C655.435 177.771 655.944 177.974 656.148 178.483Z"
    fill="#C7FFED" />
  <path style="mix-blend-mode:screen"
    d="M553.203 2.64593C553.915 4.37581 553.101 6.37704 551.371 7.08935C549.641 7.80165 547.64 6.98759 546.928 5.25771C546.215 3.52783 547.029 1.52661 548.759 0.814304C550.489 0.102001 552.49 0.916052 553.203 2.64593Z"
    fill="url(#paint23_radial_465_5662)" />
  <path
    d="M551.034 3.79917C551.238 4.27404 551.034 4.81675 550.526 5.02026C550.051 5.22378 549.508 5.02027 549.305 4.51148C549.101 4.03662 549.305 3.49391 549.813 3.29039C550.288 3.08688 550.831 3.29038 551.034 3.79917Z"
    fill="#C7FFED" />
  <path style="mix-blend-mode:screen"
    d="M705.228 112.68C705.94 114.41 705.126 116.411 703.396 117.124C701.667 117.836 699.665 117.022 698.953 115.292C698.241 113.562 699.055 111.561 700.785 110.848C702.514 110.136 704.516 110.95 705.228 112.68Z"
    fill="url(#paint24_radial_465_5662)" />
  <path
    d="M703.06 113.868C703.263 114.342 703.06 114.885 702.551 115.089C702.042 115.292 701.533 115.089 701.33 114.58C701.126 114.105 701.33 113.562 701.839 113.359C702.314 113.155 702.856 113.359 703.06 113.868Z"
    fill="#C7FFED" />
  <path style="mix-blend-mode:screen"
    d="M268.375 752.327C268.918 753.616 268.307 755.109 267.018 755.652C265.73 756.194 264.237 755.584 263.694 754.295C263.152 753.006 263.762 751.513 265.051 750.971C266.34 750.428 267.832 751.039 268.375 752.327Z"
    fill="url(#paint25_radial_465_5662)" />
  <path
    d="M266.786 753.21C266.921 753.583 266.786 753.99 266.413 754.126C266.039 754.261 265.632 754.126 265.497 753.752C265.361 753.379 265.497 752.972 265.87 752.837C266.243 752.701 266.65 752.837 266.786 753.21Z"
    fill="#C7FFED" />
  <path style="mix-blend-mode:screen"
    d="M682.341 81.44C683.46 84.1535 682.171 87.2401 679.458 88.3595C676.744 89.4788 673.658 88.1899 672.538 85.4763C671.419 82.7628 672.708 79.6762 675.422 78.5568C678.135 77.4375 681.222 78.7264 682.341 81.44Z"
    fill="url(#paint26_radial_465_5662)" />
  <path
    d="M678.945 83.2715C679.25 84.0177 678.911 84.8657 678.165 85.2049C677.419 85.5441 676.571 85.171 676.232 84.4248C675.892 83.6786 676.265 82.8306 677.012 82.4914C677.758 82.1522 678.606 82.5253 678.945 83.2715Z"
    fill="#C7FFED" />
  <path style="mix-blend-mode:screen"
    d="M279.312 816.503C280.431 819.216 279.142 822.303 276.428 823.423C273.715 824.542 270.628 823.253 269.509 820.539C268.39 817.826 269.679 814.739 272.392 813.62C275.106 812.5 278.192 813.789 279.312 816.503Z"
    fill="url(#paint27_radial_465_5662)" />
  <path
    d="M275.916 818.335C276.221 819.081 275.882 819.929 275.136 820.268C274.389 820.574 273.542 820.235 273.202 819.488C272.863 818.742 273.236 817.894 273.982 817.555C274.729 817.216 275.577 817.589 275.916 818.335Z"
    fill="#C7FFED" />
  <path style="mix-blend-mode:screen" opacity="0.2"
    d="M-130.31 541.791C-136.212 496.339 -315.781 295.267 -129.564 175.871C56.652 56.5094 498.958 154.332 590.913 136.491C682.868 118.683 792.766 19.4358 892.522 62.0043C992.312 104.539 932.377 166.306 947.437 214.946C962.498 263.586 1045.67 228.581 1044.34 285.973C1043.06 342.414 959.411 370.431 956.799 371.245C983.019 353.709 1006.52 249.001 815.187 192.491C623.679 135.914 291.203 242.861 171.672 335.359C52.1408 427.857 12.5571 595.79 107.497 651.655C189.785 700.092 304.126 690.594 333.093 687.203L-171.624 752.701L-189.16 617.567C-189.16 617.567 -124.442 587.175 -130.344 541.757L-130.31 541.791ZM712.242 127.706C730.965 127.061 749.689 125.535 768.412 124.483C782.149 123.703 796.09 122.923 809.454 126.213C845.442 135.168 872.137 172.276 909.177 172.615C912.094 172.615 915.079 172.411 917.724 171.258C927.357 167.12 928.511 153.993 927.527 143.478C926.238 129.978 923.796 116.173 916.673 104.641C905.785 86.8332 885.128 76.7592 864.505 74.1813C843.848 71.5695 822.988 75.5381 802.772 80.4563C769.124 88.2917 733.814 98.5353 702.609 113.561C683.105 122.957 698.098 128.181 712.276 127.706H712.242ZM129.002 220.576C164.583 227.021 200.707 231.702 236.797 230.21C286.014 228.208 333.941 214.844 381.36 201.616C404.731 195.069 431.764 189.235 452.319 175.735C481.388 156.571 441.533 149.618 424.743 146.226C371.185 135.371 322.884 127.061 268.511 122.686C235.237 120.006 187.716 115.122 154.882 121.159C135.684 124.687 124.151 137.441 108.854 149.618C92.7421 162.405 81.3792 186.454 93.1152 203.379C100.883 214.607 115.604 218.134 129.002 220.576ZM86.2635 234.823C93.6239 232.245 96.982 221.255 91.2836 215.862L89.8589 216.099C85.7547 213.86 81.4808 211.622 76.8 211.418C72.1531 211.283 67.0652 213.894 66.0137 218.44C65.5049 220.746 66.0816 223.188 67.0314 225.359C70.2537 232.516 78.8692 237.366 86.2296 234.789L86.2635 234.823ZM57.8731 410.965C66.2851 435.997 80.5312 415.781 85.0424 401.739C88.4344 391.292 95.0824 374.671 91.7584 363.512C87.8916 350.589 76.1895 353.506 67.7097 361.884C55.4988 373.959 52.5478 395.158 57.8392 410.931L57.8731 410.965ZM-40.1193 618.72C-36.8631 627.403 -33.0303 636.358 -25.8733 642.294C-14.8496 651.452 2.14398 650.977 14.3549 643.481C26.5658 635.985 34.4011 622.722 38.3018 608.917C42.2364 595.078 42.6774 580.561 43.0844 566.179C44.2716 524.357 45.1196 482.568 46.6799 440.746C47.5957 416.799 49.563 370.465 10.3185 384.033C-21.4299 394.989 -47.3102 421.887 -57.1129 454.11C-62.6756 472.291 -63.2862 491.659 -62.3704 510.653C-60.5727 547.523 -53.0425 584.122 -40.1193 618.686V618.72ZM-131.667 214.335C-128.615 220.746 -120.372 222.408 -113.317 223.086C-73.7333 226.919 -33.7086 225.97 5.60368 220.237C22.5633 217.761 40.2012 213.996 53.1923 202.837C66.8956 191.033 78.089 165.865 76.0199 147.413C73.4081 124.076 40.744 137.61 23.6487 141.002C-24.9575 150.635 -72.2069 167.256 -116.098 190.354C-125.46 195.273 -136.212 204.77 -131.633 214.335H-131.667Z"
    fill="url(#paint28_linear_465_5662)" />
  <path style="mix-blend-mode:screen" opacity="0.15"
    d="M921.826 203.618C921.826 203.618 865.147 137.95 810.333 131.607C755.486 125.264 707.287 160.438 673.096 144.666C638.906 128.894 612.144 103.013 516.695 122.008C421.246 141.003 376.27 132.286 376.27 132.286C376.27 132.286 477.62 147.617 491.086 161.252C504.552 174.888 427.352 224.783 278.616 200.599C67.7408 166.34 70.9632 388.545 56.4119 489.115C41.8266 589.686 88.3298 637.206 88.3298 637.206C88.3298 637.206 48.9836 538.332 103.288 449.871C157.593 361.443 280.787 402.655 391.465 324.472C502.144 246.322 700.503 153.858 921.826 203.584V203.618Z"
    fill="url(#paint29_linear_465_5662)" />
  <defs>
    <linearGradient id="paint0_linear_465_5662" x1="-365.641" y1="804.767" x2="901.783" y2="804.767"
      gradientUnits="userSpaceOnUse">
      <stop stop-color="#070019" />
      <stop offset="1" stop-color="#471E63" />
    </linearGradient>
    <linearGradient id="paint1_linear_465_5662" x1="-254.351" y1="709.081" x2="648.204" y2="709.081"
      gradientUnits="userSpaceOnUse">
      <stop stop-color="#070019" />
      <stop offset="1" stop-color="#1D6DAE" />
    </linearGradient>
    <radialGradient id="paint2_radial_465_5662" cx="0" cy="0" r="1" gradientUnits="userSpaceOnUse"
      gradientTransform="translate(667.916 403.03) rotate(-93.42) scale(5.08788)">
      <stop stop-color="#00B359" />
      <stop offset="0.13" stop-color="#009148" />
      <stop offset="0.34" stop-color="#005D2E" />
      <stop offset="0.54" stop-color="#00351A" />
      <stop offset="0.73" stop-color="#00170B" />
      <stop offset="0.89" stop-color="#000603" />
      <stop offset="1" />
    </radialGradient>
    <radialGradient id="paint3_radial_465_5662" cx="0" cy="0" r="1" gradientUnits="userSpaceOnUse"
      gradientTransform="translate(674.857 381.175) rotate(-93.42) scale(5.08788)">
      <stop stop-color="#00B359" />
      <stop offset="0.13" stop-color="#009148" />
      <stop offset="0.34" stop-color="#005D2E" />
      <stop offset="0.54" stop-color="#00351A" />
      <stop offset="0.73" stop-color="#00170B" />
      <stop offset="0.89" stop-color="#000603" />
      <stop offset="1" />
    </radialGradient>
    <radialGradient id="paint4_radial_465_5662" cx="0" cy="0" r="1" gradientUnits="userSpaceOnUse"
      gradientTransform="translate(670.778 443.839) rotate(-93.42) scale(5.08788 5.08793)">
      <stop stop-color="#00B359" />
      <stop offset="0.13" stop-color="#009148" />
      <stop offset="0.34" stop-color="#005D2E" />
      <stop offset="0.54" stop-color="#00351A" />
      <stop offset="0.73" stop-color="#00170B" />
      <stop offset="0.89" stop-color="#000603" />
      <stop offset="1" />
    </radialGradient>
    <radialGradient id="paint5_radial_465_5662" cx="0" cy="0" r="1" gradientUnits="userSpaceOnUse"
      gradientTransform="translate(647.373 379.147) rotate(-93.42) scale(14.246 14.246)">
      <stop stop-color="#00B359" />
      <stop offset="0.13" stop-color="#009148" />
      <stop offset="0.34" stop-color="#005D2E" />
      <stop offset="0.54" stop-color="#00351A" />
      <stop offset="0.73" stop-color="#00170B" />
      <stop offset="0.89" stop-color="#000603" />
      <stop offset="1" />
    </radialGradient>
    <radialGradient id="paint6_radial_465_5662" cx="0" cy="0" r="1" gradientUnits="userSpaceOnUse"
      gradientTransform="translate(720.735 504.463) rotate(-93.42) scale(14.2461)">
      <stop stop-color="#00B359" />
      <stop offset="0.13" stop-color="#009148" />
      <stop offset="0.34" stop-color="#005D2E" />
      <stop offset="0.54" stop-color="#00351A" />
      <stop offset="0.73" stop-color="#00170B" />
      <stop offset="0.89" stop-color="#000603" />
      <stop offset="1" />
    </radialGradient>
    <radialGradient id="paint7_radial_465_5662" cx="0" cy="0" r="1" gradientUnits="userSpaceOnUse"
      gradientTransform="translate(574.208 355.248) rotate(-93.42) scale(6.78384)">
      <stop stop-color="#00B359" />
      <stop offset="0.13" stop-color="#009148" />
      <stop offset="0.34" stop-color="#005D2E" />
      <stop offset="0.54" stop-color="#00351A" />
      <stop offset="0.73" stop-color="#00170B" />
      <stop offset="0.89" stop-color="#000603" />
      <stop offset="1" />
    </radialGradient>
    <radialGradient id="paint8_radial_465_5662" cx="0" cy="0" r="1" gradientUnits="userSpaceOnUse"
      gradientTransform="translate(687.537 480.386) rotate(-93.42) scale(6.78384)">
      <stop stop-color="#00B359" />
      <stop offset="0.13" stop-color="#009148" />
      <stop offset="0.34" stop-color="#005D2E" />
      <stop offset="0.54" stop-color="#00351A" />
      <stop offset="0.73" stop-color="#00170B" />
      <stop offset="0.89" stop-color="#000603" />
      <stop offset="1" />
    </radialGradient>
    <radialGradient id="paint9_radial_465_5662" cx="0" cy="0" r="1" gradientUnits="userSpaceOnUse"
      gradientTransform="translate(519.697 227.107) rotate(-93.42) scale(3.39192)">
      <stop stop-color="#00B359" />
      <stop offset="0.13" stop-color="#009148" />
      <stop offset="0.34" stop-color="#005D2E" />
      <stop offset="0.54" stop-color="#00351A" />
      <stop offset="0.73" stop-color="#00170B" />
      <stop offset="0.89" stop-color="#000603" />
      <stop offset="1" />
    </radialGradient>
    <radialGradient id="paint10_radial_465_5662" cx="0" cy="0" r="1" gradientUnits="userSpaceOnUse"
      gradientTransform="translate(571.209 261.066) rotate(-93.42) scale(3.39192)">
      <stop stop-color="#00B359" />
      <stop offset="0.13" stop-color="#009148" />
      <stop offset="0.34" stop-color="#005D2E" />
      <stop offset="0.54" stop-color="#00351A" />
      <stop offset="0.73" stop-color="#00170B" />
      <stop offset="0.89" stop-color="#000603" />
      <stop offset="1" />
    </radialGradient>
    <radialGradient id="paint11_radial_465_5662" cx="0" cy="0" r="1" gradientUnits="userSpaceOnUse"
      gradientTransform="translate(722.459 436.571) rotate(-93.42) scale(3.39192)">
      <stop stop-color="#00B359" />
      <stop offset="0.13" stop-color="#009148" />
      <stop offset="0.34" stop-color="#005D2E" />
      <stop offset="0.54" stop-color="#00351A" />
      <stop offset="0.73" stop-color="#00170B" />
      <stop offset="0.89" stop-color="#000603" />
      <stop offset="1" />
    </radialGradient>
    <radialGradient id="paint12_radial_465_5662" cx="0" cy="0" r="1" gradientUnits="userSpaceOnUse"
      gradientTransform="translate(675.276 489.069) rotate(-93.42) scale(2.54395 2.54392)">
      <stop stop-color="#00B359" />
      <stop offset="0.13" stop-color="#009148" />
      <stop offset="0.34" stop-color="#005D2E" />
      <stop offset="0.54" stop-color="#00351A" />
      <stop offset="0.73" stop-color="#00170B" />
      <stop offset="0.89" stop-color="#000603" />
      <stop offset="1" />
    </radialGradient>
    <radialGradient id="paint13_radial_465_5662" cx="0" cy="0" r="1" gradientUnits="userSpaceOnUse"
      gradientTransform="translate(531.816 222.985) rotate(-93.42) scale(5.32531 5.32532)">
      <stop stop-color="#00B359" />
      <stop offset="0.13" stop-color="#009148" />
      <stop offset="0.34" stop-color="#005D2E" />
      <stop offset="0.54" stop-color="#00351A" />
      <stop offset="0.73" stop-color="#00170B" />
      <stop offset="0.89" stop-color="#000603" />
      <stop offset="1" />
    </radialGradient>
    <radialGradient id="paint14_radial_465_5662" cx="0" cy="0" r="1" gradientUnits="userSpaceOnUse"
      gradientTransform="translate(739.658 502.45) rotate(-93.4199) scale(5.32532 5.32522)">
      <stop stop-color="#00B359" />
      <stop offset="0.13" stop-color="#009148" />
      <stop offset="0.34" stop-color="#005D2E" />
      <stop offset="0.54" stop-color="#00351A" />
      <stop offset="0.73" stop-color="#00170B" />
      <stop offset="0.89" stop-color="#000603" />
      <stop offset="1" />
    </radialGradient>
    <radialGradient id="paint15_radial_465_5662" cx="0" cy="0" r="1" gradientUnits="userSpaceOnUse"
      gradientTransform="translate(419.562 113.633) rotate(-22.4701) scale(5.08786 5.08788)">
      <stop stop-color="#00B359" />
      <stop offset="0.13" stop-color="#009148" />
      <stop offset="0.34" stop-color="#005D2E" />
      <stop offset="0.54" stop-color="#00351A" />
      <stop offset="0.73" stop-color="#00170B" />
      <stop offset="0.89" stop-color="#000603" />
      <stop offset="1" />
    </radialGradient>
    <radialGradient id="paint16_radial_465_5662" cx="0" cy="0" r="1" gradientUnits="userSpaceOnUse"
      gradientTransform="translate(477.574 95.3693) rotate(-22.4699) scale(5.0879 5.08788)">
      <stop stop-color="#00B359" />
      <stop offset="0.13" stop-color="#009148" />
      <stop offset="0.34" stop-color="#005D2E" />
      <stop offset="0.54" stop-color="#00351A" />
      <stop offset="0.73" stop-color="#00170B" />
      <stop offset="0.89" stop-color="#000603" />
      <stop offset="1" />
    </radialGradient>
    <radialGradient id="paint17_radial_465_5662" cx="0" cy="0" r="1" gradientUnits="userSpaceOnUse"
      gradientTransform="translate(307.273 734.306) rotate(-22.47) scale(5.08786)">
      <stop stop-color="#00B359" />
      <stop offset="0.13" stop-color="#009148" />
      <stop offset="0.34" stop-color="#005D2E" />
      <stop offset="0.54" stop-color="#00351A" />
      <stop offset="0.73" stop-color="#00170B" />
      <stop offset="0.89" stop-color="#000603" />
      <stop offset="1" />
    </radialGradient>
    <radialGradient id="paint18_radial_465_5662" cx="0" cy="0" r="1" gradientUnits="userSpaceOnUse"
      gradientTransform="translate(435.435 86.4064) rotate(-22.47) scale(14.2461 14.2461)">
      <stop stop-color="#00B359" />
      <stop offset="0.13" stop-color="#009148" />
      <stop offset="0.34" stop-color="#005D2E" />
      <stop offset="0.54" stop-color="#00351A" />
      <stop offset="0.73" stop-color="#00170B" />
      <stop offset="0.89" stop-color="#000603" />
      <stop offset="1" />
    </radialGradient>
    <radialGradient id="paint19_radial_465_5662" cx="0" cy="0" r="1" gradientUnits="userSpaceOnUse"
      gradientTransform="translate(266.315 801.314) rotate(-22.47) scale(14.2461 14.2461)">
      <stop stop-color="#00B359" />
      <stop offset="0.13" stop-color="#009148" />
      <stop offset="0.34" stop-color="#005D2E" />
      <stop offset="0.54" stop-color="#00351A" />
      <stop offset="0.73" stop-color="#00170B" />
      <stop offset="0.89" stop-color="#000603" />
      <stop offset="1" />
    </radialGradient>
    <radialGradient id="paint20_radial_465_5662" cx="0" cy="0" r="1" gradientUnits="userSpaceOnUse"
      gradientTransform="translate(376.845 18.8402) rotate(-22.4701) scale(6.78382 6.78384)">
      <stop stop-color="#00B359" />
      <stop offset="0.13" stop-color="#009148" />
      <stop offset="0.34" stop-color="#005D2E" />
      <stop offset="0.54" stop-color="#00351A" />
      <stop offset="0.73" stop-color="#00170B" />
      <stop offset="0.89" stop-color="#000603" />
      <stop offset="1" />
    </radialGradient>
    <radialGradient id="paint21_radial_465_5662" cx="0" cy="0" r="1" gradientUnits="userSpaceOnUse"
      gradientTransform="translate(278.232 762.064) rotate(-22.47) scale(6.78382)">
      <stop stop-color="#00B359" />
      <stop offset="0.13" stop-color="#009148" />
      <stop offset="0.34" stop-color="#005D2E" />
      <stop offset="0.54" stop-color="#00351A" />
      <stop offset="0.73" stop-color="#00170B" />
      <stop offset="0.89" stop-color="#000603" />
      <stop offset="1" />
    </radialGradient>
    <radialGradient id="paint22_radial_465_5662" cx="0" cy="0" r="1" gradientUnits="userSpaceOnUse"
      gradientTransform="translate(655.12 178.631) rotate(-22.4702) scale(3.39189 3.39191)">
      <stop stop-color="#00B359" />
      <stop offset="0.13" stop-color="#009148" />
      <stop offset="0.34" stop-color="#005D2E" />
      <stop offset="0.54" stop-color="#00351A" />
      <stop offset="0.73" stop-color="#00170B" />
      <stop offset="0.89" stop-color="#000603" />
      <stop offset="1" />
    </radialGradient>
    <radialGradient id="paint23_radial_465_5662" cx="0" cy="0" r="1" gradientUnits="userSpaceOnUse"
      gradientTransform="translate(550.024 3.95612) rotate(-22.4699) scale(3.39192 3.39192)">
      <stop stop-color="#00B359" />
      <stop offset="0.13" stop-color="#009148" />
      <stop offset="0.34" stop-color="#005D2E" />
      <stop offset="0.54" stop-color="#00351A" />
      <stop offset="0.73" stop-color="#00170B" />
      <stop offset="0.89" stop-color="#000603" />
      <stop offset="1" />
    </radialGradient>
    <radialGradient id="paint24_radial_465_5662" cx="0" cy="0" r="1" gradientUnits="userSpaceOnUse"
      gradientTransform="translate(702.057 113.997) rotate(-22.4702) scale(3.39189 3.39192)">
      <stop stop-color="#00B359" />
      <stop offset="0.13" stop-color="#009148" />
      <stop offset="0.34" stop-color="#005D2E" />
      <stop offset="0.54" stop-color="#00351A" />
      <stop offset="0.73" stop-color="#00170B" />
      <stop offset="0.89" stop-color="#000603" />
      <stop offset="1" />
    </radialGradient>
    <radialGradient id="paint25_radial_465_5662" cx="0" cy="0" r="1" gradientUnits="userSpaceOnUse"
      gradientTransform="translate(266.012 753.312) rotate(-22.47) scale(2.54395)">
      <stop stop-color="#00B359" />
      <stop offset="0.13" stop-color="#009148" />
      <stop offset="0.34" stop-color="#005D2E" />
      <stop offset="0.54" stop-color="#00351A" />
      <stop offset="0.73" stop-color="#00170B" />
      <stop offset="0.89" stop-color="#000603" />
      <stop offset="1" />
    </radialGradient>
    <radialGradient id="paint26_radial_465_5662" cx="0" cy="0" r="1" gradientUnits="userSpaceOnUse"
      gradientTransform="translate(677.364 83.4696) rotate(-22.4699) scale(5.32533 5.32531)">
      <stop stop-color="#00B359" />
      <stop offset="0.13" stop-color="#009148" />
      <stop offset="0.34" stop-color="#005D2E" />
      <stop offset="0.54" stop-color="#00351A" />
      <stop offset="0.73" stop-color="#00170B" />
      <stop offset="0.89" stop-color="#000603" />
      <stop offset="1" />
    </radialGradient>
    <radialGradient id="paint27_radial_465_5662" cx="0" cy="0" r="1" gradientUnits="userSpaceOnUse"
      gradientTransform="translate(274.359 818.543) rotate(-22.4702) scale(5.32529 5.32533)">
      <stop stop-color="#00B359" />
      <stop offset="0.13" stop-color="#009148" />
      <stop offset="0.34" stop-color="#005D2E" />
      <stop offset="0.54" stop-color="#00351A" />
      <stop offset="0.73" stop-color="#00170B" />
      <stop offset="0.89" stop-color="#000603" />
      <stop offset="1" />
    </radialGradient>
    <linearGradient id="paint28_linear_465_5662" x1="-210.084" y1="456.615" x2="1045.9" y2="293.714"
      gradientUnits="userSpaceOnUse">
      <stop stop-color="#070019" />
      <stop offset="1" stop-color="#471E63" />
    </linearGradient>
    <linearGradient id="paint29_linear_465_5662" x1="933.496" y1="293.579" x2="36.4868" y2="409.921"
      gradientUnits="userSpaceOnUse">
      <stop stop-color="#070019" />
      <stop offset="1" stop-color="#1D6DAE" />
    </linearGradient>
  </defs>
</svg>