<svg width="80" height="80" viewBox="0 0 80 80" fill="none" xmlns="http://www.w3.org/2000/svg">
<path fill-rule="evenodd" clip-rule="evenodd" d="M13.4214 14.701H13.3906C13.1661 14.744 12.9438 14.7942 12.724 14.8516C6.74752 16.328 5 21.7317 5 25.0005V28.7634C4.94867 29.1718 4.92233 29.5851 4.92188 30.001V60.001C4.92477 62.6523 5.97927 65.1942 7.854 67.0689C9.72874 68.9437 12.2706 69.9981 14.9219 70.001H64.9219C67.5732 69.9981 70.115 68.9437 71.9897 67.0689C73.8645 65.1942 74.919 62.6523 74.9219 60.001V30.001C74.919 27.3498 73.8645 24.8079 71.9897 22.9332C70.115 21.0584 67.5732 20.0039 64.9219 20.001H25.0624C25.0419 20.0007 25.0211 20.0005 25 20.0005C22.3558 20.0005 22.065 16.7972 24.3071 16.251H64.9219C65.5059 16.2508 66.0894 16.2878 66.6687 16.362C66.4724 14.9835 65.9989 13.6591 65.2768 12.4685C64.5547 11.278 63.599 10.246 62.4674 9.4348C61.3357 8.6236 60.0514 8.04997 58.6921 7.74851C57.3327 7.44704 55.9263 7.42399 54.5578 7.68073L15.0983 14.4175C14.5439 14.5021 13.983 14.5962 13.4214 14.701ZM54.7221 49.1584C55.5444 49.7078 56.5111 50.001 57.5 50.001C58.8261 50.001 60.0979 49.4743 61.0355 48.5366C61.9732 47.5989 62.5 46.3271 62.5 45.001C62.5 44.0121 62.2068 43.0454 61.6573 42.2232C61.1079 41.4009 60.327 40.7601 59.4134 40.3816C58.4998 40.0032 57.4945 39.9042 56.5245 40.0971C55.5546 40.29 54.6637 40.7663 53.9645 41.4655C53.2652 42.1648 52.789 43.0557 52.5961 44.0256C52.4031 44.9955 52.5022 46.0008 52.8806 46.9145C53.259 47.8281 53.8999 48.609 54.7221 49.1584Z" fill="url(#paint0_linear_7168_94688)"/>
<defs>
<linearGradient id="paint0_linear_7168_94688" x1="39.9219" y1="7.50391" x2="39.9219" y2="70.001" gradientUnits="userSpaceOnUse">
<stop stop-color="#FFC824"/>
<stop offset="1" stop-color="#FFC001"/>
</linearGradient>
</defs>
</svg>
