<svg width="40" height="40" viewBox="0 0 40 40" fill="none" xmlns="http://www.w3.org/2000/svg">
<path fill-rule="evenodd" clip-rule="evenodd" d="M6.71072 7.35052H6.69531C6.58307 7.37199 6.47191 7.39711 6.36199 7.42578C3.37376 8.16397 2.5 10.8658 2.5 12.5002V14.3817C2.47433 14.5859 2.46116 14.7925 2.46094 15.0005V30.0005C2.46239 31.3262 2.98963 32.5971 3.927 33.5345C4.86437 34.4718 6.1353 34.9991 7.46094 35.0005H32.4609C33.7866 34.9991 35.0575 34.4718 35.9949 33.5345C36.9322 32.5971 37.4595 31.3262 37.4609 30.0005V15.0005C37.4595 13.6749 36.9322 12.404 35.9949 11.4666C35.0575 10.5292 33.7866 10.002 32.4609 10.0005H12.5312C12.521 10.0003 12.5106 10.0002 12.5 10.0002C11.1779 10.0002 11.0325 8.39859 12.1535 8.12552H32.4609C32.753 8.12539 33.0447 8.14391 33.3344 8.18099C33.2362 7.49175 32.9994 6.82953 32.6384 6.23426C32.2774 5.63899 31.7995 5.123 31.2337 4.7174C30.6678 4.3118 30.0257 4.02498 29.346 3.87425C28.6663 3.72352 27.9632 3.71199 27.2789 3.84037L7.54917 7.20875C7.27193 7.25103 6.9915 7.2981 6.71072 7.35052ZM27.3611 24.5792C27.7722 24.8539 28.2555 25.0005 28.75 25.0005C29.413 25.0005 30.0489 24.7371 30.5178 24.2683C30.9866 23.7994 31.25 23.1636 31.25 22.5005C31.25 22.0061 31.1034 21.5227 30.8287 21.1116C30.554 20.7005 30.1635 20.38 29.7067 20.1908C29.2499 20.0016 28.7472 19.9521 28.2623 20.0486C27.7773 20.145 27.3319 20.3831 26.9822 20.7328C26.6326 21.0824 26.3945 21.5278 26.298 22.0128C26.2016 22.4978 26.2511 23.0004 26.4403 23.4572C26.6295 23.914 26.95 24.3045 27.3611 24.5792Z" fill="url(#paint0_linear_2869_78309)"/>
<defs>
<linearGradient id="paint0_linear_2869_78309" x1="19.9609" y1="3.75195" x2="19.9609" y2="35.0005" gradientUnits="userSpaceOnUse">
<stop stop-color="#4D85ED"/>
<stop offset="1" stop-color="#2167E9"/>
</linearGradient>
</defs>
</svg>
