<svg
  width="525"
  height="569"
  viewBox="0 0 525 569"
  fill="none"
  xmlns="http://www.w3.org/2000/svg"
>
  <path
    d="M18.8189 26.0688C-4.73233 42.4188 -4.88045 539.282 11.1759 557.245C22.2849 569.686 488.925 573.657 508.862 558.765C528.325 544.277 530.547 23.866 513.543 9.25329C493.132 -8.27574 46.8434 6.58515 18.8189 26.0688Z"
    fill="url(#paint0_linear_2749_68562)"
  />
  <path
    d="M18.8189 24.4556C-4.73233 40.7126 -4.88045 534.845 11.1759 552.684C22.2849 565.063 488.925 568.973 508.862 554.205C528.325 539.809 530.547 22.2528 513.543 7.73322C493.132 -9.67171 46.8434 5.09611 18.8189 24.4556Z"
    fill="url(#paint1_linear_2749_68562)"
  />
  <path
    style="mix-blend-mode: screen"
    opacity="0.5"
    d="M29.8926 30.2881C29.8926 30.2881 64.227 105.927 167.764 111.077C271.3 116.227 346.634 62.8642 403.779 43.4737C460.954 24.0521 502.25 11.9214 502.25 11.9214C502.25 11.9214 241.024 -9.20649 29.8926 30.2881Z"
    fill="url(#paint2_linear_2749_68562)"
  />
  <path
    d="M20.8921 44.9627C20.8921 44.9627 19.9738 35.0038 24.2989 31.4359C28.6241 27.8681 54.6933 23.0592 56.056 24.3002C57.4188 25.5412 33.8379 46.6381 20.8921 44.9627Z"
    fill="white"
  />
  <path
    d="M20.8036 49.7101C17.4857 48.7483 16.8043 61.0962 19.7371 61.5926C22.6995 62.089 24.1215 50.6719 20.8036 49.7101Z"
    fill="white"
  />
  <path
    style="mix-blend-mode: screen"
    d="M36.7386 542.633C36.7386 542.633 247.722 535.497 320.301 520.481C392.881 505.465 498.876 518.185 505.215 546.48C505.215 546.48 227.429 578.311 36.709 542.633H36.7386Z"
    fill="url(#paint3_linear_2749_68562)"
  />
  <path
    d="M488.449 549.023C488.686 552.622 503.38 547.503 505.898 544.463C508.446 541.391 510.194 529.509 508.86 528.268C507.498 527.027 488.212 545.362 488.449 549.023Z"
    fill="white"
  />
  <defs>
    <linearGradient
      id="paint0_linear_2749_68562"
      x1="262.507"
      y1="568.352"
      x2="262.507"
      y2="1.46606"
      gradientUnits="userSpaceOnUse"
    >
      <stop stop-color="#0B8DFF" />
      <stop offset="1" stop-color="#54AFFF" />
    </linearGradient>
    <linearGradient
      id="paint1_linear_2749_68562"
      x1="262.507"
      y1="563.729"
      x2="262.507"
      y2="0.0080641"
      gradientUnits="userSpaceOnUse"
    >
      <stop stop-color="#54AFFF" />
      <stop offset="1" stop-color="#0B8DFF" />
    </linearGradient>
    <linearGradient
      id="paint2_linear_2749_68562"
      x1="29.8926"
      y1="58.862"
      x2="502.25"
      y2="58.862"
      gradientUnits="userSpaceOnUse"
    >
      <stop stop-color="#23786E" />
      <stop offset="0.18" stop-color="#1E675F" />
      <stop offset="0.54" stop-color="#123D38" />
      <stop offset="1" />
    </linearGradient>
    <linearGradient
      id="paint3_linear_2749_68562"
      x1="36.7386"
      y1="536.831"
      x2="505.245"
      y2="536.831"
      gradientUnits="userSpaceOnUse"
    >
      <stop />
      <stop offset="0.46" stop-color="#123D38" />
      <stop offset="0.82" stop-color="#1E675F" />
      <stop offset="1" stop-color="#23786E" />
    </linearGradient>
  </defs>
</svg>
