<svg width="337" height="107" viewBox="0 0 337 107" fill="none" xmlns="http://www.w3.org/2000/svg">
<path style="mix-blend-mode:multiply" fill-rule="evenodd" clip-rule="evenodd" d="M15.5653 19.3167L321.049 22.036C321.612 47.2604 320.393 72.6722 324.049 98.928C324.331 100.897 324.612 103.523 323.206 104.929C321.799 106.336 319.268 106.242 317.298 106.055C220.065 97.3339 114.487 94.8022 19.1283 105.211C17.1593 105.398 14.7214 105.492 13.3149 103.992C12.0023 102.585 12.096 100.053 12.3773 98.0841C15.6591 72.4847 15.5653 45.0099 15.4715 19.2229L15.5653 19.3167Z" fill="url(#paint0_radial_2749_68721)"/>
<path fill-rule="evenodd" clip-rule="evenodd" d="M3.84375 10.69C111.204 7.31423 228.128 9.28342 332.675 13.4093C329.956 38.8212 332.112 65.921 331.643 91.3328C330.049 93.4896 328.737 95.7401 327.893 98.1781C226.44 90.864 112.235 90.864 8.62573 97.5217C7.59432 94.8024 6.18786 92.5519 4.87516 90.6764C4.87516 65.4521 7.59432 36.1956 3.84375 10.69Z" fill="url(#paint1_linear_2749_68721)"/>
<path fill-rule="evenodd" clip-rule="evenodd" d="M0 1.78191C109.892 -1.68761 229.535 0.375341 336.52 4.59503C333.519 33.4764 331.832 62.4516 331.644 91.333C225.972 87.7697 111.204 86.5507 4.87574 90.6766C5.15704 62.4516 4.31315 31.0384 0 1.78191Z" fill="url(#paint2_radial_2749_68721)"/>
<g style="mix-blend-mode:multiply" opacity="0.55">
<path d="M331.738 85.7065C311.484 86.3629 291.138 85.9878 270.885 86.6442C260.477 87.0193 250.163 87.4881 239.849 88.0508C236.098 88.2383 232.254 88.5196 228.503 88.8009C263.383 89.3636 297.982 90.3013 331.644 91.4265C331.644 89.5511 331.644 87.6757 331.644 85.8003L331.738 85.7065ZM331.925 75.0166C312.985 75.9543 294.232 76.7983 275.292 76.7983C256.351 76.7983 229.441 78.2986 210.876 80.2678C195.967 81.7681 181.152 83.7373 166.337 85.9878C161.837 86.6442 157.336 87.3944 152.929 88.1445C160.993 88.1445 169.057 88.1445 177.12 88.1445C211.626 83.9249 248.1 81.7681 275.198 81.7681C294.138 81.7681 312.891 80.9242 331.738 79.9865C331.738 78.2986 331.738 76.7045 331.831 75.0166H331.925ZM332.3 64.233C317.485 64.9831 303.515 65.2644 288.325 64.7956C246.412 63.4828 207.969 70.2343 167.088 75.4854C156.867 76.7982 146.741 78.111 136.802 80.5491C128.175 82.612 119.83 85.4251 111.485 88.2383C113.923 88.2383 116.361 88.2383 118.893 88.2383C124.894 86.1753 130.801 84.2999 136.802 82.8933C169.713 74.9228 256.164 68.9215 288.231 69.953C303.327 70.4218 317.298 70.1405 332.113 69.4841C332.113 67.7962 332.206 66.2021 332.3 64.5143V64.233ZM333.707 38.0709C319.079 40.2276 306.796 41.0716 293.294 42.0093C243.037 45.385 215.376 54.5746 167.838 64.7956C150.585 68.5464 133.989 72.1097 115.517 78.0173C106.047 81.018 96.7645 84.8626 87.4818 88.4258C91.2324 88.4258 94.9829 88.332 98.6397 88.2383C122.55 79.7051 143.272 73.1412 168.4 67.7025C189.685 63.1077 222.502 55.0435 241.818 52.3241C263.102 49.4172 278.855 48.2919 293.388 47.3542C306.609 46.5103 318.798 45.6664 333.238 43.5096C333.332 41.6342 333.425 39.8525 333.613 37.9771L333.707 38.0709ZM335.394 4.50099C326.393 8.72068 314.766 13.6905 302.014 18.1915C285.324 24.0991 270.041 27.4748 252.788 30.5693C219.877 36.383 189.31 46.8854 157.336 55.6061C125.55 64.3268 95.4517 79.5176 66.0098 88.8009C68.3539 88.8009 70.6042 88.8009 72.9483 88.7072C79.3243 86.1753 85.6065 83.456 92.0763 81.1117C114.111 73.3288 135.958 65.9209 158.555 59.6382C183.59 52.793 206 45.5726 231.972 39.665C255.413 34.4138 279.417 31.7883 302.952 23.5364C315.516 19.1292 326.956 14.2532 335.957 10.0335C336.144 8.15806 336.332 6.37641 336.52 4.50099H335.301H335.394ZM35.9115 0.843938C36.5678 1.87542 37.1304 3.00065 37.5055 4.1259C37.9743 5.43869 38.2556 6.84524 38.2556 8.2518C38.2556 9.56459 37.8805 10.9712 37.3179 12.1902C36.7554 13.4092 36.0052 14.4407 34.9738 15.2846C33.5674 16.4099 31.8796 17.4414 30.1919 18.0978C28.3166 18.9417 26.2538 19.5043 24.2847 19.8794C21.6593 20.3482 19.0339 20.7233 16.3148 20.8171C13.7831 20.8171 11.2515 20.8171 8.81363 20.3482C6.56329 19.9732 4.31294 19.5043 2.15636 18.9417C1.96883 16.785 1.68754 14.6282 1.40625 12.4715C2.25013 12.9403 3.18778 13.3154 4.12542 13.6905C11.439 16.5036 17.6275 17.3476 25.2224 15.8472C28.2228 15.2846 31.317 14.1594 33.6611 12.1902C34.8801 11.1587 35.5364 9.37708 35.5364 7.87675C35.5364 6.00133 34.6926 4.03213 33.6611 2.43802C33.2861 1.8754 32.911 1.31279 32.536 0.843938C33.5674 0.843938 34.6925 0.843938 35.7239 0.843938H35.9115ZM82.231 0.187546C82.7936 4.12592 82.0435 8.06427 77.9178 12.4715C57.4772 34.9765 36.1928 51.7614 4.31295 47.448C4.31295 49.0421 4.50047 50.6362 4.50047 52.2303C38.0681 58.0441 61.6966 39.8526 84.4813 14.8158C89.0758 9.75214 91.7012 4.96986 91.5137 0.187546C88.4194 0.187546 85.3252 0.187546 82.231 0.187546ZM126.019 0C126.019 2.06296 125.081 4.03213 123.3 5.81378C119.08 10.1272 106.891 19.3168 97.0458 26.0683C71.4481 43.4159 64.9784 56.5438 19.784 61.9825C15.4709 62.5451 10.4076 62.3576 4.78177 61.7012C4.78177 62.5451 4.78177 63.389 4.78177 64.233C9.46998 64.6081 14.1582 64.7018 18.9402 64.5143C58.4149 62.8264 72.3858 48.0106 100.234 29.0689C110.829 21.8486 124.988 12.2839 129.769 7.40786C130.988 6.18884 131.926 4.7823 132.489 3.28196C132.957 2.25048 133.239 1.12525 133.332 0C130.895 0 128.457 0 125.925 0H126.019ZM178.246 0.375056C180.215 6.28262 171.307 11.0649 156.492 17.16C147.96 20.6296 139.052 24.0991 130.988 27.9437C112.142 36.8519 95.0767 52.3241 75.9488 61.8887C52.3202 73.7038 31.2233 77.1733 5.06307 76.5169C5.06307 77.7359 5.06307 78.955 5.06307 80.0803C30.4732 80.5491 52.5077 77.5485 77.449 65.0769C85.419 61.1386 92.8263 56.5438 100.327 51.949C112.236 44.6349 123.487 38.446 136.333 32.4447C150.21 25.8807 166.525 20.442 179.464 13.8781C188.278 9.47084 190.341 4.87607 188.653 0.468847C185.184 0.468847 181.809 0.375056 178.339 0.375056H178.246ZM248.944 1.68788C246.6 4.21969 242.286 6.75147 237.129 9.09574C223.627 15.3784 209.375 20.1607 195.592 25.6932C144.678 46.229 73.0421 85.7065 22.4094 87.6757C16.7836 87.8632 10.8764 87.8632 4.9693 87.6757C4.9693 88.6134 4.9693 89.5511 4.9693 90.4888C15.0958 90.1137 25.3161 89.7386 35.5364 89.4573C59.8214 86.738 83.825 79.3301 105.672 70.0468C119.174 64.3268 132.207 57.7628 145.709 52.0427C164.368 44.166 183.309 36.8519 202.062 29.2565C216.501 23.4427 231.316 18.3791 245.474 11.9089C249.881 9.84594 253.538 7.59541 255.976 5.25114C257.195 4.03212 258.039 2.90688 258.695 1.78163C255.507 1.78163 252.319 1.5941 249.131 1.50033L248.944 1.68788ZM3.37531 33.4762C10.4076 35.0703 17.4399 35.5391 25.0348 33.8513C29.2542 32.9136 33.1923 31.6007 36.8491 30.0066C44.444 26.7246 50.6325 22.3174 54.8519 17.8164C59.165 13.0341 61.3216 8.06427 60.3839 3.93836C60.2902 3.37573 60.1027 2.90688 59.9151 2.43802C59.6338 1.78163 59.2588 1.12524 58.8837 0.468847C57.2897 0.468847 55.6957 0.468847 54.1955 0.468847C56.9147 4.7823 56.8209 9.5646 51.5701 15.6597C48.0071 19.8794 42.475 24.0053 35.8177 27.0998C32.536 28.6001 29.0667 29.8191 25.3161 30.7568C17.7212 32.6322 10.5951 31.6945 3.28154 29.5378C3.37531 30.8506 3.46908 32.0696 3.56284 33.3824L3.37531 33.4762Z" fill="#C0E5ED"/>
</g>
<path style="mix-blend-mode:multiply" opacity="0.5" fill-rule="evenodd" clip-rule="evenodd" d="M60.2899 3.9386C61.2275 8.06451 59.1647 13.0344 54.7578 17.8167C50.6322 22.3177 44.35 26.7249 36.7551 30.0069C33.0983 31.601 29.1602 32.9138 24.9408 33.8515C17.3459 35.5394 10.3136 35.0705 3.28125 33.4764C3.65631 38.0712 3.84384 42.7597 4.12513 47.3544C36.005 51.6679 57.2894 34.883 77.73 12.378C81.7619 7.97075 82.6058 4.03237 82.0432 0.0939941C74.2608 0.0939941 66.3846 0.281524 58.6959 0.375295C59.071 1.03169 59.446 1.68811 59.7273 2.34451C59.9148 2.81336 60.1024 3.37599 60.1961 3.84484L60.2899 3.9386Z" fill="url(#paint3_radial_2749_68721)"/>
<path style="mix-blend-mode:multiply" opacity="0.5" fill-rule="evenodd" clip-rule="evenodd" d="M129.863 7.50166C125.081 12.284 110.922 21.9424 100.327 29.1627C72.479 48.1044 58.5081 62.9202 19.0334 64.6081C14.2514 64.7956 9.56321 64.6081 4.875 64.3268C4.875 68.4527 4.96877 72.4848 5.06253 76.5169C31.3165 77.2671 52.3197 73.7038 75.9483 61.8887C95.0762 52.3241 112.141 36.8519 130.988 27.9437C139.052 24.1929 147.959 20.7233 156.492 17.16C171.4 11.0649 180.308 6.28262 178.245 0.375056C163.337 0.187514 148.334 0.0937708 133.332 0C133.238 1.12525 132.957 2.25048 132.488 3.28196C131.832 4.7823 130.988 6.28262 129.769 7.40786L129.863 7.50166Z" fill="url(#paint4_radial_2749_68721)"/>
<path style="mix-blend-mode:multiply" opacity="0.5" fill-rule="evenodd" clip-rule="evenodd" d="M202.06 29.4441C183.214 37.0395 164.367 44.3536 145.708 52.2304C132.206 57.9504 119.173 64.5143 105.671 70.2344C83.8237 79.5177 59.9139 86.9256 35.5352 89.6449C45.6617 89.3636 55.7882 89.0823 66.1023 88.8947C95.5443 79.6114 125.643 64.4206 157.429 55.6999C189.402 46.9792 219.969 36.4769 252.881 30.6631C270.133 27.5687 285.417 24.1929 302.107 18.2853C314.952 13.7843 326.486 8.81449 335.487 4.5948C310.452 3.6571 284.76 2.71938 258.694 2.06299C258.131 3.18824 257.194 4.31351 255.975 5.53253C253.537 7.8768 249.974 10.1273 245.473 12.1903C231.409 18.7542 216.5 23.724 202.06 29.5378V29.4441Z" fill="url(#paint5_radial_2749_68721)"/>
<path style="mix-blend-mode:screen" fill-rule="evenodd" clip-rule="evenodd" d="M4.96949 71.4533C5.90714 48.667 5.90713 32.6322 2.34409 3.37573C102.203 0.937686 203.468 1.96914 300.233 3.28194C202.906 -4.18089e-05 97.6085 -1.31283 0.09375 1.7816C3.46926 24.4741 4.78196 48.5732 4.96949 71.4533Z" fill="url(#paint6_radial_2749_68721)"/>
<path style="mix-blend-mode:screen" opacity="0.5" fill-rule="evenodd" clip-rule="evenodd" d="M64.9791 70.9843C74.9181 67.9837 81.5754 64.7017 89.0766 60.2007C90.0142 59.638 91.0456 58.9816 92.077 58.419C92.3583 58.2315 92.7333 58.0439 93.0146 57.8564C93.671 57.3875 94.4211 57.0125 95.1712 56.5436C109.142 47.8229 119.269 42.8531 133.615 35.914C144.866 30.4753 158.368 24.6615 167.182 19.5042C166.338 19.8792 165.494 20.2543 164.65 20.5356C155.274 24.474 145.241 28.2248 136.334 32.4445C134.365 33.3822 132.489 34.3199 130.52 35.2576C128.458 36.2891 126.395 37.3206 124.426 38.3521C123.113 39.0085 121.8 39.7586 120.488 40.415C117.956 41.7278 115.518 43.1344 113.08 44.4472C108.861 46.7914 104.641 49.3233 100.328 51.9489C98.0779 53.2617 95.9213 54.6682 93.671 55.981C92.6396 56.6374 91.6082 57.2 90.5768 57.7626C90.2955 57.9502 89.9204 58.1377 89.5454 58.3253C88.7953 58.7941 88.0452 59.1692 87.3888 59.6381C84.1071 61.5135 80.8253 63.2951 77.4498 64.983C73.0429 67.1397 68.7297 69.1089 64.5103 70.703C63.2914 71.1719 61.9787 71.6407 60.7598 72.1096C62.26 71.7345 63.6664 71.2656 65.0729 70.8905L64.9791 70.9843Z" fill="url(#paint7_radial_2749_68721)"/>
<path style="mix-blend-mode:screen" opacity="0.5" fill-rule="evenodd" clip-rule="evenodd" d="M129.02 68.5465C126.207 69.4842 123.395 70.3281 120.675 71.2658C118.706 71.9222 116.644 72.5786 114.674 73.3288C107.361 75.8606 99.9535 78.3924 92.6399 81.018C89.6394 82.0495 87.1078 83.0809 84.6699 84.0187C87.4828 83.0809 90.2958 82.1432 93.1087 81.2055C94.3276 80.8304 95.4528 80.4554 96.6717 80.0803C103.61 77.8298 110.549 75.5793 117.487 73.4226C117.956 73.235 118.519 73.1412 118.988 72.9537C120.019 72.5786 121.05 72.2973 122.082 71.9222C124.895 70.9845 127.708 70.1406 130.521 69.2029C135.115 67.7025 139.71 66.296 144.304 64.8894C147.679 63.8579 150.961 62.9202 154.337 61.9825C158.087 60.9511 162.025 60.4822 165.87 59.4507C174.402 57.0126 182.747 53.8244 191.092 51.1051C192.405 50.6362 193.811 50.2612 195.124 49.7923C197.562 48.9484 200 48.1982 202.438 47.3542C199.719 48.1044 197.093 48.8546 194.468 49.6048C185.466 52.1366 176.559 54.7621 167.276 57.3877C166.62 57.5753 166.057 57.7629 165.401 57.9504C165.026 58.0442 164.557 58.1379 164.182 58.3255C162.307 58.7943 160.525 59.3569 158.65 59.8258C156.775 60.3884 154.806 60.8572 152.93 61.4199C144.96 63.6704 136.99 66.1084 129.114 68.6403L129.02 68.5465Z" fill="url(#paint8_radial_2749_68721)"/>
<path style="mix-blend-mode:screen" opacity="0.5" fill-rule="evenodd" clip-rule="evenodd" d="M231.598 54.9498C261.977 51.2927 288.794 50.7301 311.297 48.4796C314.767 48.1045 318.048 47.7294 321.33 47.2606C324.799 46.7917 328.175 46.2291 331.363 45.5727C332.019 45.4789 332.676 45.2914 333.238 45.1976C333.238 44.635 333.238 44.1661 333.332 43.6035C332.676 43.6973 332.019 43.791 331.363 43.8848C327.894 44.3537 324.518 44.8225 321.236 45.1038C313.829 45.9477 306.89 46.4166 299.764 46.9793C297.701 47.1668 295.639 47.2605 293.482 47.4481C278.949 48.3858 263.103 49.511 241.912 52.4179C238.349 52.8868 234.317 53.6369 230.004 54.3871C226.347 55.0435 222.409 55.8874 218.377 56.7314C222.878 56.075 227.285 55.5124 231.598 54.9498Z" fill="url(#paint9_radial_2749_68721)"/>
<g style="mix-blend-mode:screen" opacity="0.5">
<path d="M84.4807 1.21881C85.3092 1.21881 85.9809 1.13487 85.9809 1.0313C85.9809 0.92772 85.3092 0.84375 84.4807 0.84375C83.6521 0.84375 82.9805 0.92772 82.9805 1.0313C82.9805 1.13487 83.6521 1.21881 84.4807 1.21881Z" fill="#00FFA3"/>
</g>
<path d="M39.32 59.12C38.1733 59.12 37.2667 58.7867 36.6 58.12C35.9333 57.4533 35.6 56.5467 35.6 55.4V34.72C35.8933 34.6667 36.36 34.6 37 34.52C37.64 34.4133 38.2533 34.36 38.84 34.36C39.4533 34.36 39.9867 34.4133 40.44 34.52C40.92 34.6 41.32 34.76 41.64 35C41.96 35.24 42.2 35.5733 42.36 36C42.52 36.4267 42.6 36.9867 42.6 37.68V53.48H51.76C51.9467 53.7733 52.12 54.1733 52.28 54.68C52.44 55.16 52.52 55.6667 52.52 56.2C52.52 57.2667 52.2933 58.0267 51.84 58.48C51.3867 58.9067 50.7867 59.12 50.04 59.12H39.32ZM56.1078 38.48C56.1078 37.3333 56.4411 36.4267 57.1078 35.76C57.7745 35.0933 58.6811 34.76 59.8278 34.76H73.0278C73.2145 35.0533 73.3745 35.44 73.5078 35.92C73.6678 36.4 73.7478 36.9067 73.7478 37.44C73.7478 38.4533 73.5211 39.1733 73.0678 39.6C72.6411 40.0267 72.0678 40.24 71.3478 40.24H62.9078V43.96H71.9078C72.0945 44.2533 72.2545 44.64 72.3878 45.12C72.5478 45.5733 72.6278 46.0667 72.6278 46.6C72.6278 47.6133 72.4145 48.3333 71.9878 48.76C71.5611 49.1867 70.9878 49.4 70.2678 49.4H62.9078V53.6H73.1878C73.3745 53.8933 73.5345 54.28 73.6678 54.76C73.8278 55.24 73.9078 55.7467 73.9078 56.28C73.9078 57.2933 73.6811 58.0267 73.2278 58.48C72.8011 58.9067 72.2278 59.12 71.5078 59.12H59.8278C58.6811 59.12 57.7745 58.7867 57.1078 58.12C56.4411 57.4533 56.1078 56.5467 56.1078 55.4V38.48ZM83.6897 35.48C84.143 35.2133 84.823 34.96 85.7297 34.72C86.663 34.48 87.5964 34.36 88.5297 34.36C89.863 34.36 91.0364 34.56 92.0497 34.96C93.0897 35.3333 93.7564 35.9333 94.0497 36.76C94.5297 38.1467 95.0497 39.76 95.6097 41.6C96.1697 43.44 96.7297 45.3467 97.2897 47.32C97.8497 49.2667 98.3964 51.2 98.9297 53.12C99.463 55.0133 99.9297 56.6933 100.33 58.16C100.01 58.5333 99.5297 58.8267 98.8897 59.04C98.2497 59.28 97.4897 59.4 96.6097 59.4C95.9697 59.4 95.423 59.3467 94.9697 59.24C94.543 59.1333 94.183 58.9733 93.8897 58.76C93.623 58.5467 93.3964 58.2667 93.2097 57.92C93.0497 57.5733 92.903 57.1733 92.7697 56.72L92.0497 53.96H84.8097C84.5964 54.76 84.383 55.5867 84.1697 56.44C83.9564 57.2933 83.743 58.12 83.5297 58.92C83.1564 59.0533 82.7564 59.16 82.3297 59.24C81.9297 59.3467 81.4364 59.4 80.8497 59.4C79.4897 59.4 78.4764 59.1733 77.8097 58.72C77.1697 58.24 76.8497 57.5867 76.8497 56.76C76.8497 56.3867 76.903 56.0133 77.0097 55.64C77.1164 55.2667 77.2364 54.8267 77.3697 54.32C77.5564 53.6 77.8097 52.7067 78.1297 51.64C78.4764 50.5733 78.8497 49.4267 79.2497 48.2C79.6497 46.9467 80.0764 45.6667 80.5297 44.36C80.983 43.0533 81.4097 41.8267 81.8097 40.68C82.2097 39.5067 82.5697 38.4667 82.8897 37.56C83.2364 36.6533 83.503 35.96 83.6897 35.48ZM88.4897 40.64C88.1164 41.76 87.6897 43.0133 87.2097 44.4C86.7564 45.76 86.343 47.1467 85.9697 48.56H90.9297C90.5564 47.12 90.1697 45.72 89.7697 44.36C89.3964 42.9733 89.0497 41.7333 88.7297 40.64H88.4897ZM110.568 53.8C110.861 53.8533 111.221 53.9067 111.648 53.96C112.074 53.9867 112.474 54 112.848 54C113.754 54 114.581 53.8667 115.328 53.6C116.101 53.3333 116.754 52.92 117.288 52.36C117.848 51.8 118.274 51.08 118.568 50.2C118.888 49.2933 119.048 48.2133 119.048 46.96C119.048 44.56 118.488 42.76 117.368 41.56C116.248 40.3333 114.754 39.72 112.888 39.72C112.514 39.72 112.128 39.7333 111.728 39.76C111.354 39.7867 110.968 39.8267 110.568 39.88V53.8ZM112.808 59.64C112.354 59.64 111.834 59.6267 111.248 59.6C110.661 59.5733 110.048 59.52 109.408 59.44C108.794 59.36 108.168 59.2533 107.528 59.12C106.914 59.0133 106.341 58.8533 105.808 58.64C104.341 58.08 103.608 57.1067 103.608 55.72V37.04C103.608 36.48 103.754 36.0533 104.048 35.76C104.368 35.44 104.794 35.1867 105.328 35C106.474 34.6267 107.688 34.3867 108.968 34.28C110.248 34.1467 111.394 34.08 112.408 34.08C114.488 34.08 116.368 34.3333 118.048 34.84C119.754 35.3467 121.208 36.1333 122.408 37.2C123.634 38.24 124.581 39.56 125.248 41.16C125.914 42.76 126.248 44.6533 126.248 46.84C126.248 48.9733 125.928 50.84 125.288 52.44C124.648 54.0133 123.728 55.3467 122.528 56.44C121.354 57.5067 119.941 58.3067 118.288 58.84C116.634 59.3733 114.808 59.64 112.808 59.64ZM130.248 38.48C130.248 37.3333 130.582 36.4267 131.248 35.76C131.915 35.0933 132.822 34.76 133.968 34.76H147.168C147.355 35.0533 147.515 35.44 147.648 35.92C147.808 36.4 147.888 36.9067 147.888 37.44C147.888 38.4533 147.662 39.1733 147.208 39.6C146.782 40.0267 146.208 40.24 145.488 40.24H137.048V43.96H146.048C146.235 44.2533 146.395 44.64 146.528 45.12C146.688 45.5733 146.768 46.0667 146.768 46.6C146.768 47.6133 146.555 48.3333 146.128 48.76C145.702 49.1867 145.128 49.4 144.408 49.4H137.048V53.6H147.328C147.515 53.8933 147.675 54.28 147.808 54.76C147.968 55.24 148.048 55.7467 148.048 56.28C148.048 57.2933 147.822 58.0267 147.368 58.48C146.942 58.9067 146.368 59.12 145.648 59.12H133.968C132.822 59.12 131.915 58.7867 131.248 58.12C130.582 57.4533 130.248 56.5467 130.248 55.4V38.48ZM159.123 51.16V58.84C158.829 58.92 158.363 59 157.723 59.08C157.109 59.16 156.496 59.2 155.883 59.2C155.269 59.2 154.723 59.1467 154.243 59.04C153.789 58.96 153.403 58.8 153.083 58.56C152.789 58.32 152.563 57.9867 152.403 57.56C152.243 57.1333 152.163 56.5733 152.163 55.88V37.04C152.163 36.48 152.309 36.0533 152.603 35.76C152.923 35.44 153.349 35.1867 153.883 35C154.789 34.68 155.843 34.4533 157.043 34.32C158.243 34.16 159.523 34.08 160.883 34.08C164.563 34.08 167.336 34.8533 169.203 36.4C171.069 37.9467 172.003 40.04 172.003 42.68C172.003 44.3333 171.576 45.7467 170.723 46.92C169.869 48.0933 168.856 49 167.683 49.64C168.643 50.9467 169.589 52.1733 170.523 53.32C171.456 54.4667 172.189 55.5067 172.723 56.44C172.456 57.3733 171.963 58.0933 171.243 58.6C170.549 59.08 169.763 59.32 168.883 59.32C168.296 59.32 167.789 59.2533 167.363 59.12C166.936 58.9867 166.563 58.8 166.243 58.56C165.923 58.32 165.629 58.0267 165.363 57.68C165.096 57.3333 164.843 56.96 164.603 56.56L161.243 51.16H159.123ZM161.643 45.84C162.656 45.84 163.456 45.5867 164.043 45.08C164.629 44.5467 164.923 43.7733 164.923 42.76C164.923 41.7467 164.589 40.9867 163.923 40.48C163.283 39.9467 162.256 39.68 160.843 39.68C160.443 39.68 160.123 39.6933 159.883 39.72C159.643 39.7467 159.376 39.7867 159.083 39.84V45.84H161.643ZM183.338 54C183.711 54.1067 184.191 54.1867 184.778 54.24C185.364 54.2667 185.924 54.28 186.458 54.28C187.524 54.28 188.404 54.0667 189.098 53.64C189.818 53.1867 190.178 52.4933 190.178 51.56C190.178 50.68 189.884 50.0533 189.298 49.68C188.711 49.3067 187.818 49.12 186.618 49.12H183.338V54ZM183.338 44.24H186.258C187.404 44.24 188.231 44.0267 188.738 43.6C189.271 43.1733 189.538 42.5467 189.538 41.72C189.538 41 189.231 40.4267 188.618 40C188.031 39.5733 187.138 39.36 185.938 39.36C185.538 39.36 185.071 39.3733 184.538 39.4C184.031 39.4267 183.631 39.4667 183.338 39.52V44.24ZM185.938 59.64C185.484 59.64 184.951 59.6267 184.338 59.6C183.724 59.5733 183.084 59.52 182.418 59.44C181.778 59.36 181.138 59.2533 180.498 59.12C179.858 59.0133 179.271 58.8533 178.738 58.64C177.271 58.08 176.538 57.1067 176.538 55.72V37.04C176.538 36.48 176.684 36.0533 176.978 35.76C177.298 35.44 177.724 35.1867 178.258 35C179.164 34.68 180.298 34.4533 181.658 34.32C183.018 34.16 184.418 34.08 185.858 34.08C189.271 34.08 191.898 34.6533 193.738 35.8C195.578 36.9467 196.498 38.72 196.498 41.12C196.498 42.32 196.151 43.36 195.458 44.24C194.764 45.0933 193.831 45.72 192.658 46.12C193.991 46.4933 195.098 47.1733 195.977 48.16C196.884 49.1467 197.338 50.3867 197.338 51.88C197.338 54.52 196.351 56.48 194.378 57.76C192.431 59.0133 189.618 59.64 185.938 59.64ZM200.103 46.84C200.103 44.76 200.423 42.92 201.063 41.32C201.73 39.72 202.623 38.3867 203.743 37.32C204.89 36.2267 206.223 35.4 207.743 34.84C209.29 34.28 210.956 34 212.743 34C214.53 34 216.183 34.28 217.703 34.84C219.25 35.4 220.596 36.2267 221.743 37.32C222.89 38.3867 223.783 39.72 224.423 41.32C225.09 42.92 225.423 44.76 225.423 46.84C225.423 48.92 225.103 50.7733 224.463 52.4C223.823 54 222.93 55.3467 221.783 56.44C220.663 57.5067 219.33 58.32 217.783 58.88C216.236 59.44 214.556 59.72 212.743 59.72C210.93 59.72 209.25 59.44 207.703 58.88C206.156 58.2933 204.823 57.4533 203.703 56.36C202.583 55.2667 201.703 53.92 201.063 52.32C200.423 50.72 200.103 48.8933 200.103 46.84ZM207.303 46.84C207.303 49.2667 207.796 51.08 208.783 52.28C209.77 53.48 211.09 54.08 212.743 54.08C214.423 54.08 215.756 53.48 216.743 52.28C217.73 51.08 218.223 49.2667 218.223 46.84C218.223 44.44 217.73 42.64 216.743 41.44C215.783 40.24 214.463 39.64 212.783 39.64C211.13 39.64 209.796 40.24 208.783 41.44C207.796 42.6133 207.303 44.4133 207.303 46.84ZM234.315 35.48C234.768 35.2133 235.448 34.96 236.355 34.72C237.288 34.48 238.221 34.36 239.155 34.36C240.488 34.36 241.661 34.56 242.675 34.96C243.715 35.3333 244.381 35.9333 244.675 36.76C245.155 38.1467 245.675 39.76 246.235 41.6C246.795 43.44 247.355 45.3467 247.915 47.32C248.475 49.2667 249.021 51.2 249.555 53.12C250.088 55.0133 250.555 56.6933 250.955 58.16C250.635 58.5333 250.155 58.8267 249.515 59.04C248.875 59.28 248.115 59.4 247.235 59.4C246.595 59.4 246.048 59.3467 245.595 59.24C245.168 59.1333 244.808 58.9733 244.515 58.76C244.248 58.5467 244.021 58.2667 243.835 57.92C243.675 57.5733 243.528 57.1733 243.395 56.72L242.675 53.96H235.435C235.221 54.76 235.008 55.5867 234.795 56.44C234.581 57.2933 234.368 58.12 234.155 58.92C233.781 59.0533 233.381 59.16 232.955 59.24C232.555 59.3467 232.061 59.4 231.475 59.4C230.115 59.4 229.101 59.1733 228.435 58.72C227.795 58.24 227.475 57.5867 227.475 56.76C227.475 56.3867 227.528 56.0133 227.635 55.64C227.741 55.2667 227.861 54.8267 227.995 54.32C228.181 53.6 228.435 52.7067 228.755 51.64C229.101 50.5733 229.475 49.4267 229.875 48.2C230.275 46.9467 230.701 45.6667 231.155 44.36C231.608 43.0533 232.035 41.8267 232.435 40.68C232.835 39.5067 233.195 38.4667 233.515 37.56C233.861 36.6533 234.128 35.96 234.315 35.48ZM239.115 40.64C238.741 41.76 238.315 43.0133 237.835 44.4C237.381 45.76 236.968 47.1467 236.595 48.56H241.555C241.181 47.12 240.795 45.72 240.395 44.36C240.021 42.9733 239.675 41.7333 239.355 40.64H239.115ZM261.193 51.16V58.84C260.899 58.92 260.433 59 259.793 59.08C259.179 59.16 258.566 59.2 257.953 59.2C257.339 59.2 256.793 59.1467 256.313 59.04C255.859 58.96 255.473 58.8 255.153 58.56C254.859 58.32 254.633 57.9867 254.473 57.56C254.313 57.1333 254.233 56.5733 254.233 55.88V37.04C254.233 36.48 254.379 36.0533 254.673 35.76C254.993 35.44 255.419 35.1867 255.953 35C256.859 34.68 257.913 34.4533 259.113 34.32C260.313 34.16 261.593 34.08 262.953 34.08C266.633 34.08 269.406 34.8533 271.273 36.4C273.139 37.9467 274.073 40.04 274.073 42.68C274.073 44.3333 273.646 45.7467 272.793 46.92C271.939 48.0933 270.926 49 269.753 49.64C270.713 50.9467 271.659 52.1733 272.593 53.32C273.526 54.4667 274.259 55.5067 274.793 56.44C274.526 57.3733 274.033 58.0933 273.313 58.6C272.619 59.08 271.833 59.32 270.953 59.32C270.366 59.32 269.859 59.2533 269.433 59.12C269.006 58.9867 268.633 58.8 268.313 58.56C267.993 58.32 267.699 58.0267 267.433 57.68C267.166 57.3333 266.913 56.96 266.673 56.56L263.313 51.16H261.193ZM263.713 45.84C264.726 45.84 265.526 45.5867 266.113 45.08C266.699 44.5467 266.993 43.7733 266.993 42.76C266.993 41.7467 266.659 40.9867 265.993 40.48C265.353 39.9467 264.326 39.68 262.913 39.68C262.513 39.68 262.193 39.6933 261.953 39.72C261.713 39.7467 261.446 39.7867 261.153 39.84V45.84H263.713ZM285.568 53.8C285.861 53.8533 286.221 53.9067 286.648 53.96C287.074 53.9867 287.474 54 287.848 54C288.754 54 289.581 53.8667 290.328 53.6C291.101 53.3333 291.754 52.92 292.288 52.36C292.848 51.8 293.274 51.08 293.568 50.2C293.888 49.2933 294.048 48.2133 294.048 46.96C294.048 44.56 293.488 42.76 292.368 41.56C291.248 40.3333 289.754 39.72 287.888 39.72C287.514 39.72 287.128 39.7333 286.728 39.76C286.354 39.7867 285.968 39.8267 285.568 39.88V53.8ZM287.808 59.64C287.354 59.64 286.834 59.6267 286.248 59.6C285.661 59.5733 285.048 59.52 284.408 59.44C283.794 59.36 283.168 59.2533 282.528 59.12C281.914 59.0133 281.341 58.8533 280.808 58.64C279.341 58.08 278.608 57.1067 278.608 55.72V37.04C278.608 36.48 278.754 36.0533 279.048 35.76C279.368 35.44 279.794 35.1867 280.328 35C281.474 34.6267 282.688 34.3867 283.968 34.28C285.248 34.1467 286.394 34.08 287.408 34.08C289.488 34.08 291.368 34.3333 293.048 34.84C294.754 35.3467 296.208 36.1333 297.408 37.2C298.634 38.24 299.581 39.56 300.248 41.16C300.914 42.76 301.248 44.6533 301.248 46.84C301.248 48.9733 300.928 50.84 300.288 52.44C299.648 54.0133 298.728 55.3467 297.528 56.44C296.354 57.5067 294.941 58.3067 293.288 58.84C291.634 59.3733 289.808 59.64 287.808 59.64Z" fill="url(#paint10_linear_2749_68721)"/>
<defs>
<radialGradient id="paint0_radial_2749_68721" cx="0" cy="0" r="1" gradientUnits="userSpaceOnUse" gradientTransform="translate(168.307 62.7325) scale(253.163 253.181)">
<stop stop-color="#A48A7B"/>
<stop offset="1" stop-color="white"/>
</radialGradient>
<linearGradient id="paint1_linear_2749_68721" x1="168.306" y1="98.1781" x2="168.306" y2="8.90833" gradientUnits="userSpaceOnUse">
<stop stop-color="#062D70"/>
<stop offset="1" stop-color="#034494"/>
</linearGradient>
<radialGradient id="paint2_radial_2749_68721" cx="0" cy="0" r="1" gradientUnits="userSpaceOnUse" gradientTransform="translate(47.5385 -41.5402) scale(402.624 402.652)">
<stop stop-color="#2EA4FF"/>
<stop offset="1" stop-color="#2478F0"/>
</radialGradient>
<radialGradient id="paint3_radial_2749_68721" cx="0" cy="0" r="1" gradientUnits="userSpaceOnUse" gradientTransform="translate(-29.1612 -152.846) scale(296.858 296.878)">
<stop stop-color="#BAC3EB"/>
<stop offset="0.99" stop-color="white"/>
</radialGradient>
<radialGradient id="paint4_radial_2749_68721" cx="0" cy="0" r="1" gradientUnits="userSpaceOnUse" gradientTransform="translate(9.84449 -195.043) scale(389.59 389.617)">
<stop stop-color="#BAC3EB"/>
<stop offset="0.99" stop-color="white"/>
</radialGradient>
<radialGradient id="paint5_radial_2749_68721" cx="0" cy="0" r="1" gradientUnits="userSpaceOnUse" gradientTransform="translate(135.113 -273.623) scale(435.441 435.472)">
<stop stop-color="#BAC3EB"/>
<stop offset="0.99" stop-color="white"/>
</radialGradient>
<radialGradient id="paint6_radial_2749_68721" cx="0" cy="0" r="1" gradientUnits="userSpaceOnUse" gradientTransform="translate(-0.0938002 -217.079) scale(399.717 399.745)">
<stop stop-color="#00FFA3"/>
<stop offset="1"/>
</radialGradient>
<radialGradient id="paint7_radial_2749_68721" cx="0" cy="0" r="1" gradientUnits="userSpaceOnUse" gradientTransform="translate(149.273 -87.0195) scale(275.761 275.78)">
<stop stop-color="#0C3469"/>
<stop offset="1"/>
</radialGradient>
<radialGradient id="paint8_radial_2749_68721" cx="0" cy="0" r="1" gradientUnits="userSpaceOnUse" gradientTransform="translate(198.687 36.2893) scale(185.747 185.76)">
<stop stop-color="#242029"/>
<stop offset="1"/>
</radialGradient>
<radialGradient id="paint9_radial_2749_68721" cx="0" cy="0" r="1" gradientUnits="userSpaceOnUse" gradientTransform="translate(334.926 45.1976) scale(309.985 310.005)">
<stop stop-color="#0C3469"/>
<stop offset="1"/>
</radialGradient>
<linearGradient id="paint10_linear_2749_68721" x1="168" y1="24" x2="168" y2="72" gradientUnits="userSpaceOnUse">
<stop stop-color="#F0FAFF"/>
<stop offset="1" stop-color="#A1EFFF"/>
</linearGradient>
</defs>
</svg>
