<svg width="684" height="670" viewBox="0 0 684 670" fill="none" xmlns="http://www.w3.org/2000/svg">
<path fill-rule="evenodd" clip-rule="evenodd" d="M10.5176 654.39L662.317 20.4951L677.494 35.6703C665.663 246.929 662.914 458.187 669.726 669.565C377.17 660.842 317.535 660.962 25.6951 669.565L10.5176 654.39Z" fill="url(#paint0_radial_9773_55612)"/>
<path fill-rule="evenodd" clip-rule="evenodd" d="M0 15.9547C301.4 9.26321 363.664 8.06837 662.316 20.4953C655.982 231.754 653.592 443.012 654.548 654.39C361.035 648.176 304.03 648.415 10.5168 654.39C10.7558 441.578 7.051 228.766 0 15.9547Z" fill="url(#paint1_radial_9773_55612)"/>
<path fill-rule="evenodd" clip-rule="evenodd" d="M669.726 669.685L654.549 654.509C361.036 648.296 304.03 648.535 10.5176 654.509L25.6951 669.685C317.415 661.081 377.05 660.962 669.726 669.685Z" fill="url(#paint2_linear_9773_55612)"/>
<path fill-rule="evenodd" clip-rule="evenodd" d="M662.315 20.6152C655.981 231.874 653.591 443.132 654.547 654.51L669.725 669.685C662.913 458.427 665.661 247.168 677.493 35.7904L662.315 20.6152Z" fill="url(#paint3_linear_9773_55612)"/>
<path style="mix-blend-mode:screen" fill-rule="evenodd" clip-rule="evenodd" d="M152.492 71.7562C178.784 52.8768 201.491 32.444 225.153 11.5332C221.449 11.5332 217.744 11.5332 214.039 11.6527C179.023 46.9023 151.536 70.3223 120.703 89.6797C89.0333 109.635 54.1369 125.049 3.94336 144.765C3.94336 147.393 4.06283 150.022 4.18234 152.651C62.2634 128.872 100.148 109.396 152.612 71.7562H152.492Z" fill="url(#paint4_radial_9773_55612)"/>
<path style="mix-blend-mode:screen" fill-rule="evenodd" clip-rule="evenodd" d="M425.092 12.3701C368.923 81.0769 293.633 126.364 214.757 157.192C144.247 184.794 70.7496 200.806 5.49805 211.918V214.547C56.2891 206.78 107.439 197.819 156.676 184.077C169.105 185.392 178.068 184.555 179.861 183.36C183.924 180.732 186.673 177.744 189.541 174.04C198.504 171.053 207.467 167.827 216.311 164.361C302.357 131.024 373.345 75.6999 431.307 12.4896C429.275 12.4896 427.124 12.4896 425.092 12.3701Z" fill="url(#paint5_radial_9773_55612)"/>
<path style="mix-blend-mode:screen" fill-rule="evenodd" clip-rule="evenodd" d="M271.882 215.981C179.86 246.092 88.4364 279.43 6.93164 274.89C6.93164 277.279 6.93167 279.669 7.05117 282.059C73.1393 282.059 106.841 275.248 173.646 253.62C216.669 239.76 258.736 223.867 301.4 209.051C321.239 202.12 341.316 195.429 361.155 188.618C493.57 142.614 549.5 122.42 652.277 48.8144C655.384 46.6635 658.372 44.3933 661.599 42.1229C661.599 39.0162 661.718 35.9095 661.838 32.8027H661.24C613.198 70.2031 565.036 100.315 511.735 126.483C433.935 164.72 354.582 188.976 271.762 216.1L271.882 215.981Z" fill="url(#paint6_radial_9773_55612)"/>
<path style="mix-blend-mode:screen" fill-rule="evenodd" clip-rule="evenodd" d="M389 244.778C260.17 293.172 131.101 348.495 8.12695 341.326V346.823C18.4047 347.301 27.9654 347.659 36.9285 347.779C41.8284 350.288 47.6843 351.602 48.8794 351.602C49.4769 351.602 53.0621 349.81 54.9742 347.779C93.934 346.942 126.201 340.968 174.602 326.509C266.743 298.907 369.759 254.337 462.498 218.132C438.118 226.616 413.619 235.577 389 244.778Z" fill="url(#paint7_radial_9773_55612)"/>
<path style="mix-blend-mode:screen" fill-rule="evenodd" clip-rule="evenodd" d="M133.611 395.813C95.3687 403.7 58.2016 407.643 9.20312 409.674V415.051C121.183 409.794 180.1 392.348 280.846 352.08C233.879 369.048 185.598 385.059 133.731 395.813H133.611Z" fill="url(#paint8_radial_9773_55612)"/>
<path style="mix-blend-mode:screen" fill-rule="evenodd" clip-rule="evenodd" d="M256.106 415.291C170.658 436.321 98.3549 454.244 9.67969 455.559V459.741C91.3039 455.559 131.1 447.314 212.725 427.359C237.343 421.385 261.723 415.291 286.103 409.316C326.377 399.518 366.651 390.317 408.001 382.789C494.645 367.136 571.011 364.866 655.264 381.356C655.264 378.966 655.264 376.576 655.264 374.186C621.921 368.809 590.013 366.061 558.104 365.822C467.038 365.105 375.973 385.657 288.134 407.285C277.379 409.914 266.742 412.543 256.106 415.171V415.291Z" fill="url(#paint9_radial_9773_55612)"/>
<path style="mix-blend-mode:screen" fill-rule="evenodd" clip-rule="evenodd" d="M151.655 538.246C101.462 544.22 53.1805 546.849 10.3965 546.132C10.3965 548.761 10.3965 551.27 10.3965 553.899C62.7412 553.541 104.808 551.629 146.875 546.371C186.91 541.353 226.946 533.466 275.705 521.159C333.547 506.581 389.836 487.582 448.634 473.482C516.873 457.112 572.923 457.948 631.601 474.797C527.868 435.604 434.89 475.394 314.306 507.298C262.081 521.159 207.824 531.315 155.599 537.768C154.285 537.887 152.851 538.126 151.536 538.246H151.655Z" fill="url(#paint10_radial_9773_55612)"/>
<path style="mix-blend-mode:multiply" opacity="0.5" fill-rule="evenodd" clip-rule="evenodd" d="M154.763 532.271C334.145 509.449 497.871 408.719 654.547 476.469C654.547 457.59 654.786 438.591 654.905 419.712C585.591 388.525 493.091 395.097 419.474 404.656C507.313 380.28 588.817 374.305 655.144 396.053C655.144 388.883 655.264 381.594 655.383 374.425C622.041 369.048 590.132 366.3 558.223 366.061C456.043 365.224 353.864 391.273 256.225 415.41C170.777 436.44 98.4741 454.364 9.79883 455.678C10.0378 476.111 10.1574 496.544 10.2769 517.096C33.581 526.058 100.625 535.139 154.882 532.391L154.763 532.271Z" fill="url(#paint11_radial_9773_55612)"/>
<path style="mix-blend-mode:multiply" opacity="0.5" fill-rule="evenodd" clip-rule="evenodd" d="M8.00717 329.855C128.95 337.861 257.66 289.467 385.654 241.432C478.034 206.661 569.816 169.021 658.85 154.563C659.806 113.937 660.762 73.4293 661.957 32.8027H661.36C613.317 70.2031 565.156 100.315 511.855 126.483C434.055 164.72 354.701 188.976 271.882 216.1C179.86 246.212 88.4364 279.55 6.93164 275.009C7.29017 293.291 7.64865 311.573 8.00717 329.974V329.855ZM157.99 261.865C274.75 225.66 394.378 190.53 508.389 140.463C421.626 206.661 284.311 230.917 157.99 261.865Z" fill="url(#paint12_radial_9773_55612)"/>
<path style="mix-blend-mode:multiply" opacity="0.5" fill-rule="evenodd" clip-rule="evenodd" d="M211.649 153.488C287.418 123.854 358.884 77.1336 413.38 12.131C379.32 11.4141 347.411 11.0557 314.905 11.0557C249.295 77.7311 203.881 97.8054 126.918 118.119C187.389 85.7369 220.971 59.5686 261.006 11.2946C245.829 11.2946 230.173 11.5336 213.92 11.7726C178.904 47.0221 151.417 70.4422 120.584 89.7996C88.9143 109.754 54.0178 125.169 3.82422 144.884C4.30225 164.481 4.89983 184.077 5.25835 203.554C69.6734 193.397 142.454 180.493 211.53 153.488H211.649Z" fill="url(#paint13_radial_9773_55612)"/>
<g style="mix-blend-mode:multiply">
<path fill-rule="evenodd" clip-rule="evenodd" d="M584.396 232.351C562.287 234.024 542.568 236.295 519.742 240.716C472.656 249.797 423.658 270.588 379.559 288.631C348.128 301.536 308.929 320.057 276.662 329.019C333.787 307.033 397.724 273.337 447.32 256.011C489.626 241.194 539.342 230.32 584.396 232.471V232.351Z" fill="#C0E5ED"/>
</g>
<g style="mix-blend-mode:multiply">
<path fill-rule="evenodd" clip-rule="evenodd" d="M149.386 229.962C97.1607 240.955 57.484 246.332 6.21484 243.822C6.21484 246.212 6.21478 248.721 6.33429 251.111C58.0814 253.143 98.3559 247.288 150.94 235.578C217.984 220.641 295.903 195.07 357.928 168.305C366.055 164.839 363.545 165.915 371.433 161.972C362.111 165.078 366.413 163.525 357.211 166.99C289.689 191.964 220.852 215.025 149.266 229.962H149.386Z" fill="#C0E5ED"/>
</g>
<g style="mix-blend-mode:multiply">
<path d="M11.8313 595.72C418.399 609.223 404.894 549.956 595.271 557.245C614.273 557.961 632.678 562.144 654.309 567.521C654.309 570.866 654.309 574.332 654.309 577.677C631.721 573.734 612.6 571.464 593.479 570.747C545.317 568.835 493.57 576.243 445.527 581.501C287.179 598.708 155.958 612.927 12.3093 605.16C12.1898 602.053 11.9508 598.947 11.8313 595.72ZM184.282 377.771C171.614 377.771 159.663 376.456 144.605 375.142C95.2482 370.96 52.9422 375.142 8.84355 379.682C8.84355 377.054 8.84355 374.425 8.84355 371.796C56.2884 368.331 95.3677 367.972 145.442 372.274C162.651 373.708 179.502 375.261 194.56 373.827C204.718 372.871 213.203 370.123 222.764 367.136C367.966 323.283 488.431 249.08 656.818 265.091C656.818 267.84 656.818 270.707 656.699 273.456C456.522 253.381 318.37 357.457 133.73 395.813C95.4872 403.7 58.32 407.643 9.3216 409.674C9.3216 406.926 9.3216 404.058 9.3216 401.31C57.4835 399.159 93.8141 395.216 131.698 388.883C149.744 385.776 167.312 382.072 184.521 377.771H184.282ZM658.611 166.871C605.43 174.518 550.934 188.976 495.96 206.9C505.879 207.497 513.767 209.887 520.937 211.44C528.227 213.113 534.92 214.786 542.449 213.83C581.169 209.051 619.054 197.938 658.013 194.592C658.013 197.819 657.894 201.164 657.774 204.39C619.293 207.378 581.408 216.22 543.166 220.044C534.322 220.88 528.227 218.132 520.22 216.339C499.306 211.56 489.626 208.692 468.473 215.861C442.062 224.943 415.531 234.621 389 244.539C260.17 292.933 131.101 348.257 8.12653 341.087C8.12653 337.263 8.00706 333.44 7.88755 329.616C128.83 337.622 257.541 289.228 385.534 241.193C414.336 230.32 443.137 219.207 471.819 208.573C533.486 186.586 593.001 164.839 658.73 154.205C658.73 158.387 658.491 162.449 658.491 166.632L658.611 166.871ZM10.3972 532.988C46.9668 537.29 102.06 538.604 150.82 532.749C331.755 511.002 496.796 408.121 654.667 476.35C654.667 479.098 654.667 481.966 654.667 484.714C541.493 429.749 443.854 473.004 314.546 507.298C261.006 521.517 205.315 531.793 151.776 538.246C101.582 544.22 53.3008 546.849 10.5168 546.132C10.5168 541.711 10.5168 537.409 10.5168 532.988H10.3972ZM9.68011 447.194C97.1603 446.238 169.702 432.019 254.433 411.108C406.09 373.708 521.296 338.697 655.384 363.073C655.384 366.777 655.384 370.601 655.384 374.305C622.041 368.928 590.133 366.18 558.224 365.941C456.044 365.105 353.864 391.153 256.226 415.29C170.778 436.321 98.4749 454.244 9.79964 455.559C9.79964 452.81 9.79964 450.062 9.79964 447.194H9.68011ZM6.81193 262.821C86.5241 268.557 178.904 241.91 269.97 212.157C409.914 166.393 530.976 116.207 639.848 29.935C647.258 30.8909 654.428 31.8468 661.479 32.8027C613.437 70.3226 565.275 100.315 511.974 126.483C434.174 164.72 354.82 188.976 272.001 216.1C179.98 246.212 88.5557 279.55 7.051 275.009C7.051 270.946 6.93144 266.884 6.81193 262.941V262.821ZM5.49733 203.554C69.9124 193.397 142.693 180.492 211.769 153.488C287.537 123.854 359.003 77.1335 413.499 12.1309C417.323 12.1309 421.267 12.2505 425.211 12.3699C369.042 81.0767 293.752 126.363 214.876 157.192C144.366 184.794 70.8685 200.806 5.61686 211.918C5.61686 209.17 5.4974 206.422 5.37789 203.554H5.49733ZM3.82422 137.237C50.074 121.584 87.5997 105.453 117.596 86.5733C145.92 68.7692 175.319 44.1543 204.359 11.892C207.706 11.892 210.932 11.892 214.159 11.7725C179.143 47.022 151.656 70.4421 120.823 89.7994C89.1532 109.754 54.2568 125.169 4.06329 144.884L3.82422 137.237Z" fill="#C0E5ED"/>
</g>
<path style="mix-blend-mode:screen" fill-rule="evenodd" clip-rule="evenodd" d="M445.527 581.501C362.11 590.583 286.223 598.828 212.008 603.488C299.847 600.381 378.244 593.092 467.756 584.25C541.493 576.961 584.396 570.269 654.309 584.967C654.309 582.577 654.309 580.068 654.309 577.678C631.721 573.735 612.6 571.464 593.479 570.747C545.317 568.835 493.57 576.244 445.527 581.501Z" fill="url(#paint14_radial_9773_55612)"/>
<g style="mix-blend-mode:multiply">
<path fill-rule="evenodd" clip-rule="evenodd" d="M654.429 516.857C582.246 478.5 525.719 475.035 440.031 495.349C412.425 501.92 385.774 510.882 358.526 518.291C351.236 520.322 353.626 519.605 346.217 521.158C353.626 518.291 350.28 519.486 357.929 516.857C384.101 508.014 411.827 498.455 438.597 491.405C523.806 469.3 582.126 472.048 654.31 508.373C654.31 511.121 654.31 513.989 654.31 516.737L654.429 516.857Z" fill="#C0E5ED"/>
</g>
<g style="mix-blend-mode:multiply">
<path fill-rule="evenodd" clip-rule="evenodd" d="M654.31 597.751C583.322 586.28 506.836 589.387 409.676 605.399C503.251 595.6 575.912 594.645 654.31 603.845V597.751Z" fill="#C0E5ED"/>
</g>
<path style="mix-blend-mode:screen" fill-rule="evenodd" clip-rule="evenodd" d="M408.48 279.071C459.271 258.878 502.294 243.941 560.017 234.621C546.99 236.055 533.964 237.967 519.862 240.715C484.009 247.526 447.081 261.267 412.065 275.487C401.07 279.908 390.195 284.448 379.678 288.75C350.279 300.819 314.068 317.786 282.996 327.226C317.654 317.547 345.26 304.881 378.364 291.379C388.761 287.077 398.8 283.015 408.599 279.191L408.48 279.071Z" fill="url(#paint15_radial_9773_55612)"/>
<path style="mix-blend-mode:screen" fill-rule="evenodd" clip-rule="evenodd" d="M6.57266 256.249C43.6203 257.922 89.2725 253.979 139.944 241.194C168.985 233.905 196.472 225.302 224.198 216.34C199.22 223.748 174.482 230.32 151.058 235.458C98.4746 247.168 58.2003 253.023 6.45312 250.992V256.13L6.57266 256.249Z" fill="url(#paint16_radial_9773_55612)"/>
<path style="mix-blend-mode:screen" fill-rule="evenodd" clip-rule="evenodd" d="M437.641 495.946C520.579 478.62 590.253 479.457 654.309 525.221C654.309 522.473 654.309 519.725 654.309 516.977C582.126 478.62 525.599 475.155 439.911 495.468C439.194 495.588 438.358 495.827 437.641 496.066V495.946Z" fill="url(#paint17_radial_9773_55612)"/>
<path style="mix-blend-mode:screen" fill-rule="evenodd" clip-rule="evenodd" d="M5.37754 22.7653C168.387 16.4323 368.564 13.2061 656.34 26.589C656.579 26.589 656.938 26.589 657.177 26.589C657.177 79.0452 657.655 131.382 658.252 183.838C659.328 129.47 660.762 74.9825 662.435 20.6145C363.783 8.06807 301.519 9.26291 0.119141 16.0738C2.03128 75.3409 3.82391 134.727 5.25801 193.995C6.81162 136.042 7.40912 81.9128 5.49698 22.7653H5.37754Z" fill="url(#paint18_radial_9773_55612)"/>
<path style="mix-blend-mode:multiply" fill-rule="evenodd" clip-rule="evenodd" d="M137.435 643.994C308.571 639.573 451.145 636.944 605.908 644.711C609.494 644.831 614.154 645.308 616.664 642.919C619.293 640.529 619.054 635.869 619.054 632.404C619.174 620.694 619.891 607.311 619.413 597.99L585.233 594.884L618.935 586.878C615.828 523.19 613.557 458.904 612.481 394.499L594.197 388.166L612.242 382.191C610.808 290.543 617.501 204.868 620.727 113.339C611.167 89.5603 601.487 72.7122 588.819 53.2353C586.548 49.6506 582.843 47.1414 578.66 47.4999C510.302 53.5939 185.239 60.4048 61.9059 54.1913C55.2135 53.8328 49.8356 59.8073 49.7161 66.4988C49.1186 93.384 51.9867 110.949 52.9428 136.52L66.2083 144.884L60.2328 152.771L61.3085 158.865L53.7794 164.122C56.6476 259.595 56.2891 354.589 52.9428 449.345L62.9816 454.602L57.9621 463.803L72.0641 470.973L51.8673 476.111C50.3137 513.989 44.4578 552.226 44.2188 589.148C64.6547 610.656 105.527 633.479 137.435 643.994Z" fill="url(#paint19_radial_9773_55612)"/>
<path fill-rule="evenodd" clip-rule="evenodd" d="M138.034 627.385C163.489 633.479 533.726 630.492 631.723 623.681C631.006 611.135 630.289 598.708 629.572 586.161L594.556 583.294L629.094 575.646C625.867 514.826 623.596 453.647 622.521 392.229L603.758 386.135L622.282 380.399C620.848 292.933 621.565 205.227 624.911 117.999C610.092 97.208 595.153 76.4168 580.334 55.6255C574.239 52.9967 139.468 58.0153 39.2001 61.7195C40.8732 89.9192 42.3074 118.119 43.383 146.199L57.007 154.205L50.912 161.733L51.9875 167.468L44.339 172.487C47.2072 263.538 46.9682 354.231 43.5024 444.566L53.7802 449.584L48.6413 458.307L63.1018 465.118L42.4269 470.017C40.7538 507.537 38.4831 544.937 35.7344 582.218C69.9138 597.274 104.213 612.33 138.392 627.385H138.034Z" fill="url(#paint20_linear_9773_55612)"/>
<path style="mix-blend-mode:multiply" fill-rule="evenodd" clip-rule="evenodd" d="M137.914 627.386C103.734 612.33 69.4353 597.274 35.2559 582.218C38.4826 577.319 70.3913 551.987 74.8131 551.509C78.9959 551.031 127.277 617.946 137.914 627.266V627.386Z" fill="url(#paint21_radial_9773_55612)"/>
<path style="mix-blend-mode:multiply" fill-rule="evenodd" clip-rule="evenodd" d="M624.671 118C614.393 113.101 570.653 105.931 568.622 101.51C567.068 98.045 577.824 67.9334 580.094 55.626C594.913 76.4172 609.852 97.2085 624.671 118Z" fill="url(#paint22_radial_9773_55612)"/>
<path fill-rule="evenodd" clip-rule="evenodd" d="M68.7182 562.144C90.3492 584.488 115.446 609.103 137.914 627.385C130.385 627.385 35.2559 589.746 35.2559 582.218C45.5336 574.571 56.5283 567.76 68.7182 562.144Z" fill="url(#paint23_linear_9773_55612)"/>
<path fill-rule="evenodd" clip-rule="evenodd" d="M624.672 118C607.104 110.113 589.417 102.347 572.566 93.1459C575.913 80.8385 578.064 68.2919 580.095 55.626C584.398 55.626 624.672 113.34 624.672 118Z" fill="url(#paint24_linear_9773_55612)"/>
<path style="mix-blend-mode:screen" fill-rule="evenodd" clip-rule="evenodd" d="M116.641 617.945C110.785 596.557 64.7744 570.508 49.2383 572.778C55.4527 568.954 61.9062 565.37 68.8377 562.144C90.3492 584.369 115.446 608.984 137.914 627.266C136.121 627.385 127.994 624.756 117.239 620.813C117.239 619.857 117 618.901 116.641 618.065V617.945Z" fill="url(#paint25_radial_9773_55612)"/>
<path style="mix-blend-mode:screen" fill-rule="evenodd" clip-rule="evenodd" d="M579.498 88.9637C584.637 100.913 607.224 109.277 620.848 112.742C621.326 112.862 621.923 112.981 622.401 113.101C623.836 115.61 624.672 117.402 624.672 118C624.314 117.761 623.835 117.641 623.238 117.402C606.148 109.755 588.939 102.227 572.566 93.1459C575.913 80.8385 578.064 68.2919 580.095 55.626C580.335 55.626 580.812 55.865 581.29 56.2235C581.29 56.4624 581.171 56.7014 581.051 56.9404C578.303 65.4242 576.032 80.8384 579.498 88.9637Z" fill="url(#paint26_radial_9773_55612)"/>
<path style="mix-blend-mode:screen" opacity="0.5" fill-rule="evenodd" clip-rule="evenodd" d="M150.223 615.795C138.392 610.299 133.611 600.62 127.038 584.967C108.395 539.919 83.8957 548.044 64.2964 535.737C51.2699 527.492 47.0871 502.758 71.3473 469.54C93.6954 438.831 53.182 404.895 54.6161 340.61C55.5722 299.505 77.5618 234.383 81.2665 215.265C84.6128 197.58 88.7956 188.14 71.9449 162.928C65.4914 153.13 72.7814 148.709 56.8868 123.974C48.5212 111.069 51.1504 101.869 59.3965 95.1772C84.8518 74.3859 131.46 68.8894 177.351 74.3859C305.823 89.6807 313.71 99.0008 422.702 77.8511C451.384 72.235 461.662 73.908 480.305 71.7571C494.646 70.0843 509.585 67.6945 522.014 71.3987C547.708 79.046 535.518 104.617 557.747 120.151C589.536 142.615 624.313 111.308 608.538 176.669C600.65 209.529 591.328 247.766 606.267 288.512C610.569 300.222 610.45 329.975 605.67 340.729C586.19 384.104 568.263 377.293 594.077 402.028C615.111 422.221 585.473 438.831 600.65 461.414C615.35 483.281 608.299 504.55 592.046 549.239C589.895 555.333 600.77 562.742 580.334 574.691C566.112 582.935 616.545 606.834 502.534 606.834C470.147 606.834 460.228 618.783 427.482 617.827C398.92 616.99 378.962 618.424 356.494 619.858C315.503 622.487 274.153 612.808 268.178 613.047C221.211 614.6 188.585 633.48 150.342 615.676L150.223 615.795Z" fill="url(#paint27_radial_9773_55612)"/>
<path style="mix-blend-mode:screen" opacity="0.5" fill-rule="evenodd" clip-rule="evenodd" d="M99.6701 530.24C84.0145 516.141 76.4855 505.387 87.2412 465.955C103.255 407.524 71.8246 392.707 68.3589 356.263C63.9371 309.542 67.6418 332.365 84.373 299.505C94.7702 279.192 67.0443 272.859 99.1921 234.622C123.213 206.183 117.357 183.002 95.4872 156.954C77.8 135.923 75.7684 107.007 94.7702 93.0264C124.408 71.1598 158.229 95.8942 181.533 97.3281C188.465 97.8061 197.428 96.1332 212.128 90.3976C228.859 83.9452 271.523 102.108 304.03 107.843C341.197 114.535 373.344 113.818 421.626 88.6053C463.693 66.6191 522.252 96.6112 534.083 118.717C537.31 124.691 559.538 119.553 563.482 153.966C565.155 168.903 602.323 178.462 580.333 218.849C576.27 226.258 573.521 268.916 580.691 281.701C588.938 296.398 588.938 329.139 580.333 341.805C555.953 377.771 590.85 407.285 572.923 433.454C554.758 459.98 570.294 481.011 570.294 501.204C570.294 543.623 555.236 517.933 563.721 559.396C571.131 595.602 541.254 600.501 509.823 593.212C488.909 588.432 458.913 606.475 426.765 608.148C388.044 610.06 379.32 590.941 346.336 596.916C296.022 605.997 277.021 576.722 242.005 599.664C215.235 617.229 189.301 612.808 177.47 600.979C162.531 585.803 179.98 604.802 156.795 572.898C134.447 542.189 107.558 537.649 99.5506 530.36L99.6701 530.24Z" fill="url(#paint28_radial_9773_55612)"/>
<path style="mix-blend-mode:multiply" fill-rule="evenodd" clip-rule="evenodd" d="M681.253 50.9171C681.253 73.8592 662.73 92.3802 639.784 92.3802C616.838 92.3802 598.314 73.8592 598.314 50.9171C598.314 27.9751 616.838 9.4541 639.784 9.4541C662.73 9.4541 681.253 27.9751 681.253 50.9171Z" fill="url(#paint29_radial_9773_55612)"/>
<path fill-rule="evenodd" clip-rule="evenodd" d="M597.238 43.0308L602.497 37.7732C606.799 37.5342 610.982 37.7732 614.926 38.4902C612.535 39.5656 599.15 44.1062 597.238 43.0308Z" fill="url(#paint30_linear_9773_55612)"/>
<path fill-rule="evenodd" clip-rule="evenodd" d="M643.011 1.3291C666.673 1.68757 684.48 23.0763 683.763 45.5404C683.046 68.0045 666.912 84.7331 644.564 85.6891C622.216 86.645 599.868 68.0045 598.912 46.1379L603.932 40.9998C606.68 40.1634 609.548 39.3269 612.417 38.4905C610.146 38.4905 608.234 38.4905 606.441 38.4905L643.011 1.3291Z" fill="url(#paint31_linear_9773_55612)"/>
<path fill-rule="evenodd" clip-rule="evenodd" d="M638.708 0.0144254C663.088 0.611876 681.134 18.4159 680.297 41.597C679.461 64.778 662.61 82.9405 639.664 82.9405C616.719 82.9405 599.39 65.3755 597.239 43.9868C599.271 42.3139 601.541 41.7165 603.812 40.9995C606.561 40.1631 609.429 39.3267 612.297 38.4902C610.026 38.4902 608.114 38.4902 606.322 38.4902C603.214 38.4902 600.466 38.4902 597 38.8487C597.478 17.46 615.285 -0.583025 638.589 0.0144254H638.708Z" fill="url(#paint32_radial_9773_55612)"/>
<path style="mix-blend-mode:multiply" fill-rule="evenodd" clip-rule="evenodd" d="M657.711 72.3057C634.049 77.6828 607.398 65.9728 597.359 44.2256C599.63 65.6143 617.676 83.0598 639.785 83.0598C654.126 83.0598 666.077 76.0099 673.247 65.0168C668.706 68.4821 663.567 70.9914 657.711 72.3057Z" fill="url(#paint33_radial_9773_55612)"/>
<g style="mix-blend-mode:multiply">
<path d="M603.095 19.0137C623.531 28.4534 647.791 17.4603 667.032 10.6494C667.749 11.2469 668.466 11.9638 669.063 12.5613C648.747 19.2527 621.499 29.2899 601.661 21.523C602.139 20.6866 602.617 19.8501 603.095 19.0137ZM597.239 43.0312C621.379 35.9813 652.81 26.3026 677.429 25.2272C677.668 25.8246 677.907 26.3026 678.026 26.9001C652.452 26.4221 621.618 39.6855 597.478 46.0185C597.358 45.0625 597.239 44.1066 597.119 43.0312H597.239ZM599.509 53.9048C627.235 48.4083 651.018 42.6727 679.939 46.0185C679.939 46.6159 679.819 47.3329 679.7 47.9303C650.061 42.4338 627.833 51.037 600.585 56.6531C600.226 55.6972 599.868 54.8607 599.509 53.9048ZM604.648 64.181C620.543 63.225 644.922 60.7157 667.868 71.4698C667.151 72.1868 666.434 72.9037 665.597 73.5012C644.683 63.225 629.386 62.986 605.485 65.3759C605.246 65.0174 604.887 64.5394 604.648 64.181Z" fill="#C0E5ED"/>
</g>
<path style="mix-blend-mode:multiply" opacity="0.5" fill-rule="evenodd" clip-rule="evenodd" d="M679.7 47.9304C650.062 42.4339 627.834 51.0371 600.586 56.6532C601.662 59.282 603.096 61.7912 604.649 64.181C620.544 63.2251 644.923 60.7158 667.869 71.4699C673.964 65.3759 678.147 57.2506 679.581 48.0499L679.7 47.9304Z" fill="url(#paint34_radial_9773_55612)"/>
<path style="mix-blend-mode:screen" fill-rule="evenodd" clip-rule="evenodd" d="M619.349 25.4657C629.985 25.2267 640.382 22.0004 651.616 18.1768C641.458 21.2835 630.702 23.9123 620.544 24.2707C613.852 24.5097 607.518 23.7928 601.781 21.5225C602.259 20.686 602.737 19.8496 603.215 19.0132C602.498 20.2081 601.781 21.403 601.184 22.7174C607.398 24.8682 613.374 25.5851 619.349 25.4657Z" fill="url(#paint35_radial_9773_55612)"/>
<path style="mix-blend-mode:screen" fill-rule="evenodd" clip-rule="evenodd" d="M630.821 36.2195C646.596 31.4399 662.132 28.0942 678.624 28.3332C678.505 27.8552 678.266 27.3773 678.146 26.8993C652.571 26.4213 621.738 39.6847 597.598 46.0177C597.598 46.4957 597.717 46.8541 597.837 47.3321C608.831 43.6279 619.826 39.6847 630.821 36.2195Z" fill="url(#paint36_radial_9773_55612)"/>
<path style="mix-blend-mode:screen" fill-rule="evenodd" clip-rule="evenodd" d="M616.121 53.188C640.023 48.4084 657.71 44.9432 679.341 50.0812C679.461 49.3643 679.58 48.7669 679.7 48.0499C655.798 43.6288 636.796 48.4084 616.002 53.3075L616.121 53.188Z" fill="url(#paint37_radial_9773_55612)"/>
<path style="mix-blend-mode:screen" fill-rule="evenodd" clip-rule="evenodd" d="M606.8 67.048C628.551 63.1048 644.685 63.5828 664.762 74.3369C665.121 74.0979 665.36 73.8589 665.718 73.5005C644.804 63.2243 629.507 62.9853 605.605 65.3751C605.964 65.9726 606.442 66.4506 606.8 67.048Z" fill="url(#paint38_radial_9773_55612)"/>
<path style="mix-blend-mode:screen" fill-rule="evenodd" clip-rule="evenodd" d="M597.359 35.7417C602.379 12.2022 622.695 0.611638 642.414 2.04552C656.158 3.00144 669.542 10.2903 677.071 24.1512C673.367 15.5479 666.555 8.73696 657.831 4.43532C652.214 1.68705 645.76 0.133677 638.709 0.0141865C616.481 -0.463774 599.391 15.7869 597.359 35.7417Z" fill="url(#paint39_radial_9773_55612)"/>
<path style="mix-blend-mode:multiply" fill-rule="evenodd" clip-rule="evenodd" d="M675.039 46.257C675.039 65.6144 659.263 81.3871 639.903 81.3871C620.543 81.3871 604.768 65.6144 604.768 46.257C604.768 26.8996 620.543 11.127 639.903 11.127C659.263 11.127 675.039 26.8996 675.039 46.257Z" fill="url(#paint40_radial_9773_55612)"/>
<path fill-rule="evenodd" clip-rule="evenodd" d="M639.785 77.4437C658.667 77.4437 676.952 60.5956 675.757 41.4772C674.561 22.3588 659.623 5.51074 639.785 5.51074C619.946 5.51074 603.454 19.7301 603.812 41.4772C604.171 63.2244 620.902 77.4437 639.785 77.4437Z" fill="url(#paint41_radial_9773_55612)"/>
<path style="mix-blend-mode:multiply" fill-rule="evenodd" clip-rule="evenodd" d="M667.988 38.2507C669.064 55.0988 652.93 70.035 636.199 70.035C619.587 70.035 604.768 57.4886 604.41 38.2507C604.41 36.3388 604.41 34.5465 604.768 32.8736C604.171 35.6219 603.932 38.4896 603.932 41.5964C604.29 63.3436 621.021 77.5629 639.904 77.5629C658.786 77.5629 677.071 60.7148 675.876 41.5964C674.68 22.478 659.742 5.62988 639.904 5.62988C635.84 5.62988 631.897 6.22733 628.192 7.42223C630.821 6.82478 633.45 6.46631 636.199 6.46631C653.767 6.46631 666.913 21.4026 667.988 38.2507Z" fill="url(#paint42_radial_9773_55612)"/>
<path style="mix-blend-mode:screen" fill-rule="evenodd" clip-rule="evenodd" d="M608.114 25.8241C605.485 30.9622 604.051 41.5968 606.68 48.4077C607.756 51.2755 612.417 56.6525 615.524 54.6212C623.77 49.4831 629.148 40.1629 640.979 34.1884C645.042 32.1571 650.779 30.2452 655.081 29.0503C659.981 27.7359 661.056 24.5097 658.427 19.4911C654.723 12.2022 647.194 7.54213 636.438 7.06417C624.009 6.58621 613.373 15.07 607.995 25.8241H608.114Z" fill="url(#paint43_radial_9773_55612)"/>
<path style="mix-blend-mode:screen" fill-rule="evenodd" clip-rule="evenodd" d="M630.821 9.33411C626.518 10.1705 619.467 13.6358 617.794 17.4594C616.36 20.8052 619.826 21.4026 623.052 20.5662C626.757 19.6103 631.179 17.6984 634.167 15.5476C637.872 12.9188 636.318 8.2587 630.821 9.33411Z" fill="url(#paint44_radial_9773_55612)"/>
<path style="mix-blend-mode:screen" fill-rule="evenodd" clip-rule="evenodd" d="M656.277 70.7522C659.384 69.7963 663.089 67.1675 663.686 64.2997C664.164 62.0294 661.655 61.432 659.743 62.2684C657.472 63.2243 654.843 64.8972 653.05 66.5701C650.899 68.6014 652.811 71.8276 656.277 70.7522Z" fill="url(#paint45_radial_9773_55612)"/>
<path fill-rule="evenodd" clip-rule="evenodd" d="M627.355 22.3584C628.311 22.3584 629.268 22.8363 629.985 23.5533L639.784 33.7099L649.584 23.5533C650.301 22.8363 651.257 22.3584 652.213 22.3584C654.723 22.3584 658.786 25.9431 658.906 28.3329C658.906 29.5278 658.547 30.6032 657.711 31.3201L647.313 41.3573L657.711 51.275C658.428 51.9919 658.906 52.9478 658.906 54.0232C658.906 56.5325 655.201 60.4757 652.811 60.5952C651.616 60.5952 650.66 60.2367 649.823 59.4003L639.784 49.0047L629.746 59.4003C628.909 60.2367 627.953 60.5952 626.758 60.5952C624.248 60.5952 620.543 56.413 620.663 54.0232C620.663 53.0673 621.022 51.9919 621.858 51.275L632.255 41.3573L621.858 31.3201C621.022 30.4837 620.663 29.5278 620.663 28.3329C620.782 25.8236 624.965 22.2389 627.355 22.3584Z" fill="url(#paint46_linear_9773_55612)"/>
<path style="mix-blend-mode:screen" fill-rule="evenodd" clip-rule="evenodd" d="M651.019 23.7921C647.075 27.6158 646 28.5717 642.414 32.8734C642.056 33.2318 641.1 34.4267 641.219 34.7852C641.697 35.9801 645.88 32.6344 646.836 31.9174C649.585 29.5276 649.465 29.8861 652.095 27.2573C652.692 26.6599 653.17 26.0624 653.409 25.3455C653.887 23.5531 652.334 22.5972 651.138 23.7921H651.019Z" fill="url(#paint47_radial_9773_55612)"/>
<path style="mix-blend-mode:screen" fill-rule="evenodd" clip-rule="evenodd" d="M627.236 23.3142C625.921 23.3142 624.248 24.6286 624.129 25.943C624.009 26.8989 624.846 26.8989 625.682 26.5404C626.638 26.1819 627.594 25.465 628.312 24.8676C629.148 24.0311 628.67 23.1947 627.116 23.3142H627.236Z" fill="url(#paint48_radial_9773_55612)"/>
<defs>
<radialGradient id="paint0_radial_9773_55612" cx="0" cy="0" r="1" gradientUnits="userSpaceOnUse" gradientTransform="translate(344.066 345.15) scale(329.007 328.956)">
<stop stop-color="#0C3469"/>
<stop offset="1"/>
</radialGradient>
<radialGradient id="paint1_radial_9773_55612" cx="0" cy="0" r="1" gradientUnits="userSpaceOnUse" gradientTransform="translate(-14.5801 1.85486) scale(1826.57 1826.29)">
<stop stop-color="#2EA4FF"/>
<stop offset="1" stop-color="#2478F0"/>
</radialGradient>
<linearGradient id="paint2_linear_9773_55612" x1="340.122" y1="669.685" x2="340.122" y2="649.849" gradientUnits="userSpaceOnUse">
<stop stop-color="#062D70"/>
<stop offset="1" stop-color="#034494"/>
</linearGradient>
<linearGradient id="paint3_linear_9773_55612" x1="654.308" y1="345.15" x2="677.493" y2="345.15" gradientUnits="userSpaceOnUse">
<stop stop-color="#0456BA"/>
<stop offset="1" stop-color="#083B94"/>
</linearGradient>
<radialGradient id="paint4_radial_9773_55612" cx="0" cy="0" r="1" gradientUnits="userSpaceOnUse" gradientTransform="translate(75.7679 -10.8114) scale(495.243 495.167)">
<stop stop-color="#0C3469"/>
<stop offset="1"/>
</radialGradient>
<radialGradient id="paint5_radial_9773_55612" cx="0" cy="0" r="1" gradientUnits="userSpaceOnUse" gradientTransform="translate(56.2891 215.503) scale(527.032 526.951)">
<stop stop-color="#0C3469"/>
<stop offset="1"/>
</radialGradient>
<radialGradient id="paint6_radial_9773_55612" cx="0" cy="0" r="1" gradientUnits="userSpaceOnUse" gradientTransform="translate(149.266 164.839) scale(1508.44 1508.2)">
<stop stop-color="#0C3469"/>
<stop offset="1"/>
</radialGradient>
<radialGradient id="paint7_radial_9773_55612" cx="0" cy="0" r="1" gradientUnits="userSpaceOnUse" gradientTransform="translate(22.946 351.602) scale(831.54 831.412)">
<stop stop-color="#0C3469"/>
<stop offset="1"/>
</radialGradient>
<radialGradient id="paint8_radial_9773_55612" cx="0" cy="0" r="1" gradientUnits="userSpaceOnUse" gradientTransform="translate(-29.1591 428.076) scale(745.254 745.139)">
<stop stop-color="#0C3469"/>
<stop offset="1"/>
</radialGradient>
<radialGradient id="paint9_radial_9773_55612" cx="0" cy="0" r="1" gradientUnits="userSpaceOnUse" gradientTransform="translate(21.272 448.629) scale(1034.11 1033.95)">
<stop stop-color="#0C3469"/>
<stop offset="1"/>
</radialGradient>
<radialGradient id="paint10_radial_9773_55612" cx="0" cy="0" r="1" gradientUnits="userSpaceOnUse" gradientTransform="translate(8.60382 559.276) scale(877.312 877.177)">
<stop stop-color="#0C3469"/>
<stop offset="1"/>
</radialGradient>
<radialGradient id="paint11_radial_9773_55612" cx="0" cy="0" r="1" gradientUnits="userSpaceOnUse" gradientTransform="translate(638.772 913.564) scale(1053.94 1053.78)">
<stop stop-color="#BAC3EB"/>
<stop offset="0.99" stop-color="white"/>
</radialGradient>
<radialGradient id="paint12_radial_9773_55612" cx="0" cy="0" r="1" gradientUnits="userSpaceOnUse" gradientTransform="translate(426.645 -295.675) scale(1095.77 1095.6)">
<stop stop-color="#BAC3EB"/>
<stop offset="0.99" stop-color="white"/>
</radialGradient>
<radialGradient id="paint13_radial_9773_55612" cx="0" cy="0" r="1" gradientUnits="userSpaceOnUse" gradientTransform="translate(-53.1813 -358.646) scale(1004.11 1003.96)">
<stop stop-color="#BAC3EB"/>
<stop offset="0.99" stop-color="white"/>
</radialGradient>
<radialGradient id="paint14_radial_9773_55612" cx="0" cy="0" r="1" gradientUnits="userSpaceOnUse" gradientTransform="translate(656.699 586.998) scale(920.813 920.673)">
<stop stop-color="#0C3469"/>
<stop offset="1"/>
</radialGradient>
<radialGradient id="paint15_radial_9773_55612" cx="0" cy="0" r="1" gradientUnits="userSpaceOnUse" gradientTransform="translate(520.22 211.799) scale(681.079 680.974)">
<stop stop-color="#0C3469"/>
<stop offset="1"/>
</radialGradient>
<radialGradient id="paint16_radial_9773_55612" cx="0" cy="0" r="1" gradientUnits="userSpaceOnUse" gradientTransform="translate(-0.000320926 258.639) scale(496.797 496.72)">
<stop stop-color="#0C3469"/>
<stop offset="1"/>
</radialGradient>
<radialGradient id="paint17_radial_9773_55612" cx="0" cy="0" r="1" gradientUnits="userSpaceOnUse" gradientTransform="translate(658.373 525.102) scale(620.966 620.87)">
<stop stop-color="#0C3469"/>
<stop offset="1"/>
</radialGradient>
<radialGradient id="paint18_radial_9773_55612" cx="0" cy="0" r="1" gradientUnits="userSpaceOnUse" gradientTransform="translate(82.58 -45.7024) scale(1540.7 1540.47)">
<stop stop-color="#00FFFA"/>
<stop offset="1"/>
</radialGradient>
<radialGradient id="paint19_radial_9773_55612" cx="0" cy="0" r="1" gradientUnits="userSpaceOnUse" gradientTransform="translate(341.436 517.096) scale(544.48 544.397)">
<stop stop-color="#706F6F"/>
<stop offset="1" stop-color="white"/>
</radialGradient>
<linearGradient id="paint20_linear_9773_55612" x1="333.549" y1="630.731" x2="333.549" y2="54.7891" gradientUnits="userSpaceOnUse">
<stop stop-color="#EDD6B9"/>
<stop offset="1" stop-color="#D4B492"/>
</linearGradient>
<radialGradient id="paint21_radial_9773_55612" cx="0" cy="0" r="1" gradientUnits="userSpaceOnUse" gradientTransform="translate(73.8571 633.599) scale(93.6946 93.6803)">
<stop stop-color="#A48A7B"/>
<stop offset="1" stop-color="white"/>
</radialGradient>
<radialGradient id="paint22_radial_9773_55612" cx="0" cy="0" r="1" gradientUnits="userSpaceOnUse" gradientTransform="translate(616.783 82.6307) scale(53.5398 53.5316)">
<stop stop-color="#A48A7B"/>
<stop offset="1" stop-color="white"/>
</radialGradient>
<linearGradient id="paint23_linear_9773_55612" x1="85.2104" y1="608.147" x2="99.3087" y2="575.047" gradientUnits="userSpaceOnUse">
<stop stop-color="#BF9F7E"/>
<stop offset="1" stop-color="#EDD6B9"/>
</linearGradient>
<linearGradient id="paint24_linear_9773_55612" x1="607.224" y1="81.9138" x2="584.282" y2="104.859" gradientUnits="userSpaceOnUse">
<stop stop-color="#BF9F7E"/>
<stop offset="1" stop-color="#EDD6B9"/>
</linearGradient>
<radialGradient id="paint25_radial_9773_55612" cx="0" cy="0" r="1" gradientUnits="userSpaceOnUse" gradientTransform="translate(58.2014 675.659) scale(157.99 157.966)">
<stop/>
<stop offset="1" stop-color="#A3805F"/>
</radialGradient>
<radialGradient id="paint26_radial_9773_55612" cx="0" cy="0" r="1" gradientUnits="userSpaceOnUse" gradientTransform="translate(634.95 36.1491) scale(103.853 103.837)">
<stop/>
<stop offset="1" stop-color="#A3805F"/>
</radialGradient>
<radialGradient id="paint27_radial_9773_55612" cx="0" cy="0" r="1" gradientUnits="userSpaceOnUse" gradientTransform="translate(331.995 346.465) scale(562.885 562.798)">
<stop stop-color="#CA9E67"/>
<stop offset="1"/>
</radialGradient>
<radialGradient id="paint28_radial_9773_55612" cx="0" cy="0" r="1" gradientUnits="userSpaceOnUse" gradientTransform="translate(327.095 345.987) scale(462.139 462.068)">
<stop stop-color="#CA9E67"/>
<stop offset="1"/>
</radialGradient>
<radialGradient id="paint29_radial_9773_55612" cx="0" cy="0" r="1" gradientUnits="userSpaceOnUse" gradientTransform="translate(639.903 -12.5321) scale(41.4694 41.463)">
<stop offset="0.85" stop-color="#6E757F"/>
<stop offset="0.88" stop-color="#727882"/>
<stop offset="0.9" stop-color="#7E848D"/>
<stop offset="0.93" stop-color="#92979E"/>
<stop offset="0.95" stop-color="#AEB2B7"/>
<stop offset="0.98" stop-color="#D2D4D7"/>
<stop offset="1" stop-color="white"/>
</radialGradient>
<linearGradient id="paint30_linear_9773_55612" x1="597.238" y1="40.402" x2="614.926" y2="40.402" gradientUnits="userSpaceOnUse">
<stop stop-color="#004BC9"/>
<stop offset="1" stop-color="#003380"/>
</linearGradient>
<linearGradient id="paint31_linear_9773_55612" x1="619.109" y1="78.7586" x2="682.199" y2="6.81596" gradientUnits="userSpaceOnUse">
<stop stop-color="#062D70"/>
<stop offset="1" stop-color="#3484E8"/>
</linearGradient>
<radialGradient id="paint32_radial_9773_55612" cx="0" cy="0" r="1" gradientUnits="userSpaceOnUse" gradientTransform="translate(614.09 5.033) scale(139.586 139.564)">
<stop stop-color="#2EA4FF"/>
<stop offset="1" stop-color="#2478F0"/>
</radialGradient>
<radialGradient id="paint33_radial_9773_55612" cx="0" cy="0" r="1" gradientUnits="userSpaceOnUse" gradientTransform="translate(632.375 29.2893) scale(68.5977 68.5873)">
<stop offset="0.34" stop-color="white"/>
<stop offset="1" stop-color="#BAC3EB"/>
</radialGradient>
<radialGradient id="paint34_radial_9773_55612" cx="0" cy="0" r="1" gradientUnits="userSpaceOnUse" gradientTransform="translate(718.421 9.57408) scale(196.711 196.681)">
<stop stop-color="#BAC3EB"/>
<stop offset="0.99" stop-color="white"/>
</radialGradient>
<radialGradient id="paint35_radial_9773_55612" cx="0" cy="0" r="1" gradientUnits="userSpaceOnUse" gradientTransform="translate(602.737 17.5793) scale(74.8123 74.8008)">
<stop stop-color="#0C3469"/>
<stop offset="1"/>
</radialGradient>
<radialGradient id="paint36_radial_9773_55612" cx="0" cy="0" r="1" gradientUnits="userSpaceOnUse" gradientTransform="translate(621.38 31.3204) scale(99.7895 99.7742)">
<stop stop-color="#0C3469"/>
<stop offset="1"/>
</radialGradient>
<radialGradient id="paint37_radial_9773_55612" cx="0" cy="0" r="1" gradientUnits="userSpaceOnUse" gradientTransform="translate(682.09 45.0627) scale(91.185 91.1709)">
<stop stop-color="#0C3469"/>
<stop offset="1"/>
</radialGradient>
<radialGradient id="paint38_radial_9773_55612" cx="0" cy="0" r="1" gradientUnits="userSpaceOnUse" gradientTransform="translate(612.417 72.1861) scale(90.2288 90.215)">
<stop stop-color="#0C3469"/>
<stop offset="1"/>
</radialGradient>
<radialGradient id="paint39_radial_9773_55612" cx="0" cy="0" r="1" gradientUnits="userSpaceOnUse" gradientTransform="translate(610.625 -23.2864) scale(142.335 142.313)">
<stop stop-color="#00FFFA"/>
<stop offset="1"/>
</radialGradient>
<radialGradient id="paint40_radial_9773_55612" cx="0" cy="0" r="1" gradientUnits="userSpaceOnUse" gradientTransform="translate(639.903 46.257) scale(35.1355 35.1301)">
<stop offset="0.85" stop-color="#6E757F"/>
<stop offset="0.88" stop-color="#727882"/>
<stop offset="0.9" stop-color="#7E848D"/>
<stop offset="0.93" stop-color="#92979E"/>
<stop offset="0.95" stop-color="#AEB2B7"/>
<stop offset="0.98" stop-color="#D2D4D7"/>
<stop offset="1" stop-color="white"/>
</radialGradient>
<radialGradient id="paint41_radial_9773_55612" cx="0" cy="0" r="1" gradientUnits="userSpaceOnUse" gradientTransform="translate(626.878 -12.5323) scale(63.698 63.6882)">
<stop stop-color="#FF6B6B"/>
<stop offset="0.93" stop-color="#B30000"/>
</radialGradient>
<radialGradient id="paint42_radial_9773_55612" cx="0" cy="0" r="1" gradientUnits="userSpaceOnUse" gradientTransform="translate(636.318 -12.5326) scale(52.8226 52.8146)">
<stop offset="0.53" stop-color="white"/>
<stop offset="0.65" stop-color="#EEC2E0"/>
<stop offset="0.92" stop-color="#C42C93"/>
<stop offset="1" stop-color="#B8007D"/>
</radialGradient>
<radialGradient id="paint43_radial_9773_55612" cx="0" cy="0" r="1" gradientUnits="userSpaceOnUse" gradientTransform="translate(617.077 -12.5322) scale(58.9177 58.9086)">
<stop stop-color="#D42600"/>
<stop offset="1"/>
</radialGradient>
<radialGradient id="paint44_radial_9773_55612" cx="0" cy="0" r="1" gradientUnits="userSpaceOnUse" gradientTransform="translate(624.479 8.86706) rotate(7.11887) scale(60.113 60.1036)">
<stop stop-color="#FFDAD9"/>
<stop offset="1"/>
</radialGradient>
<radialGradient id="paint45_radial_9773_55612" cx="0" cy="0" r="1" gradientUnits="userSpaceOnUse" gradientTransform="translate(685.233 86.9019) rotate(6.39901) scale(72.5416 72.5306)">
<stop stop-color="#FFDAD9"/>
<stop offset="1"/>
</radialGradient>
<linearGradient id="paint46_linear_9773_55612" x1="639.904" y1="-18.5072" x2="639.904" y2="-18.5072" gradientUnits="userSpaceOnUse">
<stop stop-color="white"/>
<stop offset="1" stop-color="#FFE4DB"/>
</linearGradient>
<radialGradient id="paint47_radial_9773_55612" cx="0" cy="0" r="1" gradientUnits="userSpaceOnUse" gradientTransform="translate(648.509 22.4777) scale(36.0917 36.086)">
<stop stop-color="white"/>
<stop offset="1"/>
</radialGradient>
<radialGradient id="paint48_radial_9773_55612" cx="0" cy="0" r="1" gradientUnits="userSpaceOnUse" gradientTransform="translate(626.638 22.5972) scale(15.2973 15.2947)">
<stop stop-color="white"/>
<stop offset="1"/>
</radialGradient>
</defs>
</svg>
