<svg width="74" height="74" viewBox="0 0 74 74" fill="none" xmlns="http://www.w3.org/2000/svg">
<path d="M70.8843 34.4197C70.8843 22.9387 61.5771 13.6316 50.0962 13.6316H42.125C30.0453 13.6316 20.2527 23.4241 20.2527 35.5039C20.2527 49.9634 34.0329 60.4437 47.9671 56.5816L55.6487 54.4525C64.6518 51.9571 70.8843 43.7622 70.8843 34.4197Z" fill="url(#paint0_linear_2869_72707)"/>
<g style="mix-blend-mode:multiply">
<path d="M25.2394 48.4526L38.5944 64.2632L74 56.6594L64.081 52.4387L40.2014 61.0955L25.2394 48.4526Z" fill="#EDECEB"/>
</g>
<path d="M25.239 48.4526L27.8904 29.6307L50.323 28.4178L45.5571 61.1842L39.9653 62.4839L25.239 48.4526Z" fill="#022333"/>
<path d="M67.0408 38.7254L63.1024 57.1077L45.5579 61.1842L50.3238 28.4178L67.0408 38.7254Z" fill="#063046"/>
<path d="M27.8913 29.6304L42.9702 41.3194L39.9661 62.4836L25.2399 48.4523L27.8913 29.6304Z" fill="#0074D9"/>
<path d="M67.0408 38.7253L63.1024 57.1075L39.9661 62.4837L42.9702 41.3195L67.0408 38.7253Z" fill="#0074D9"/>
<path d="M41.3906 52.4388L41.253 53.4084L26.6902 38.1486L26.8278 37.1772L41.3906 52.4388Z" fill="#0B8DFF"/>
<path d="M41.0854 54.5883L40.9478 55.5579L26.3867 40.2998L26.5244 39.3285L41.0854 54.5883Z" fill="#0B8DFF"/>
<path d="M26.2214 41.4793L40.7808 56.7356L40.6431 57.7052L26.0838 42.4507L26.2214 41.4793Z" fill="#0B8DFF"/>
<path d="M25.2391 48.4524L25.3114 47.9346L31.5037 54.4228L25.2391 48.4524Z" fill="#0B8DFF"/>
<path d="M41.6963 50.2893L41.5586 51.2589L26.9941 35.9973L27.1301 35.026L41.6963 50.2893Z" fill="#0B8DFF"/>
<path d="M42.6118 43.8408L42.4742 44.8104L28.2607 29.919L32.3453 33.085L42.6118 43.8408Z" fill="#0B8DFF"/>
<path d="M25.7815 44.6019L25.9192 43.6306L40.4768 58.8851L40.3392 59.8547L25.7815 44.6019Z" fill="#0B8DFF"/>
<path d="M25.4783 46.7533L25.6143 45.7837L40.1702 61.0348L40.0325 62.0044L25.4783 46.7533Z" fill="#0B8DFF"/>
<path d="M42.9165 41.6931L42.7789 42.661L37.3161 36.9372L41.4007 40.1032L42.9165 41.6931Z" fill="#0B8DFF"/>
<path d="M42.3059 45.9903L42.1683 46.9599L27.6003 31.6931L27.7362 30.7235L42.3059 45.9903Z" fill="#0B8DFF"/>
<path d="M42.0012 48.1397L41.8636 49.1093L27.2973 33.8461L27.4333 32.8747L42.0012 48.1397Z" fill="#0B8DFF"/>
<path d="M41.8165 49.4361L57.4805 39.7558L59.2561 39.5647L41.6755 50.43L41.8165 49.4361Z" fill="#0B8DFF"/>
<path d="M41.5043 51.6376L61.418 39.3317L63.1936 39.1406L41.3632 52.6315L41.5043 51.6376Z" fill="#0B8DFF"/>
<path d="M41.1929 53.8391L65.3546 38.906L67.0408 38.7253L67.0304 38.7774L41.0518 54.833L41.1929 53.8391Z" fill="#0B8DFF"/>
<path d="M40.8797 56.0407L66.7568 40.0477L66.5332 41.092L40.7386 57.0347L40.8797 56.0407Z" fill="#0B8DFF"/>
<path d="M42.4418 45.0328L49.6079 40.6036L51.3835 40.4125L42.3007 46.025L42.4418 45.0328Z" fill="#0B8DFF"/>
<path d="M47.447 40.8366L42.614 43.8236L42.7551 42.8314L45.6714 41.0295L47.447 40.8366Z" fill="#0B8DFF"/>
<path d="M42.1305 47.2345L53.5447 40.1798L55.3203 39.9887L41.9894 48.2267L42.1305 47.2345Z" fill="#0B8DFF"/>
<path d="M55.9736 58.7635L63.7815 53.9398L63.5578 54.9824L58.3222 58.2178L55.9736 58.7635Z" fill="#0B8DFF"/>
<path d="M50.7651 59.9749L64.2766 51.6239L64.0529 52.6682L53.1136 59.4293L50.7651 59.9749Z" fill="#0B8DFF"/>
<path d="M63.102 57.1078L61.1819 57.5543L63.2861 56.2546L63.102 57.1078Z" fill="#0B8DFF"/>
<path d="M40.5677 58.2424L66.2607 42.364L66.0371 43.4083L40.4266 59.2363L40.5677 58.2424Z" fill="#0B8DFF"/>
<path d="M40.2544 60.4438L65.7651 44.6784L65.5415 45.7227L40.1134 61.4378L40.2544 60.4438Z" fill="#0B8DFF"/>
<path d="M45.557 61.1841L64.7722 49.3092L64.5485 50.3535L47.9056 60.6384L45.557 61.1841Z" fill="#0B8DFF"/>
<path d="M40.3495 62.3951L65.27 46.9928L65.0446 48.0371L42.698 61.8495L40.3495 62.3951Z" fill="#0B8DFF"/>
<path d="M57.8853 39.7297L53.6406 59.2832L50.1582 60.0512L53.8454 40.1051L57.8853 39.7297Z" fill="#EFAC21"/>
<g style="mix-blend-mode:multiply">
<path d="M57.8853 39.7297L53.6406 59.2832L54.5078 59.1407L57.8853 39.7297Z" fill="#49DBD7"/>
</g>
<path d="M35.73 35.6062L32.688 55.6427L30.5047 53.3334L33.2025 33.7313L35.73 35.6062Z" fill="#EFAC21"/>
<g style="mix-blend-mode:multiply">
<path d="M35.73 35.6064L32.688 55.6429L33.3625 56.2824L35.73 35.6064Z" fill="#49DBD7"/>
</g>
<path d="M18.4604 45.6061L44.2962 31.3871L45.7725 23.58L47.2573 15.7138L42.8992 9.64252L20.2222 23.7416L12.9443 39.1404L18.4604 45.6061Z" fill="#0074D9"/>
<path d="M18.4605 45.6064L44.2964 31.3875L38.1351 24.7897L12.9444 39.1407L18.4605 45.6064Z" fill="#0074D9"/>
<path d="M38.1349 24.7894L42.8992 9.64252L20.2222 23.7416L12.9443 39.1404L38.1349 24.7894Z" fill="#004D90"/>
<g style="mix-blend-mode:multiply">
<path d="M45.7732 23.5803L40.3552 17.5959L16.3672 31.9278L40.3758 18.1172L45.7732 23.5803Z" fill="#49DBD7"/>
</g>
<path d="M40.3545 17.5959L45.7726 23.5803L46.3369 20.7219L41.2888 14.7358L17.9701 28.3761L16.3665 31.9278L40.3545 17.5959Z" fill="#EFAC21"/>
<g style="mix-blend-mode:multiply">
<path d="M31.3405 16.8053L26.6383 31.2744L32.3264 37.9799L27.0959 30.9877L31.3405 16.8053Z" fill="#49DBD7"/>
</g>
<path d="M32.3264 37.9799L26.6383 31.2744L31.3405 16.8053L27.674 19.085L23.0199 33.3874L28.8819 39.9191L32.3264 37.9799Z" fill="#EFAC21"/>
<path d="M23.0839 34.4405C23.0839 34.4405 25.6905 34.0096 26.4631 35.0417C26.7108 36.0217 27.1599 39.1946 21.3324 42.3032C15.5049 45.4118 12.8862 40.6073 12.8672 39.0191C13.6363 40.0044 15.5633 41.278 16.4253 41.2207C14.6876 39.8202 15.5995 38.0131 15.5995 38.0131C15.5995 38.0131 17.5575 42.9774 20.6975 41.5873C23.8375 40.1972 24.6118 35.5126 23.0839 34.4405Z" fill="#EFAC21"/>
<g style="mix-blend-mode:multiply">
<path d="M27.3005 25.9103C27.3005 25.9103 22.5552 29.4064 22.5036 31.415C22.452 33.4237 26.1684 33.2361 26.6158 35.0502C26.891 36.1657 26.5813 37.2604 26.2063 37.8008C26.7224 36.6366 26.602 35.4515 26.4764 35.0919C25.6763 34.6018 25.1137 34.3499 23.1024 34.4663C23.0301 34.4316 20.5215 31.9415 20.4923 31.7435C20.463 31.5454 20.9551 30.2144 20.9551 30.2144L23.4637 27.4463L25.3563 26.7634L27.3005 25.9103Z" fill="#CCCCCC"/>
</g>
<path d="M22.1567 30.9424C21.7197 33.3212 25.849 33.0589 26.4891 35.104C24.9922 33.3334 20.1918 36.0319 18.9496 32.449C17.0673 27.0258 25.4223 26.8538 26.4547 25.4151C26.5441 25.7852 26.6267 25.7383 27.1326 25.919C25.9764 26.9616 22.4217 29.5037 22.1567 30.9424Z" fill="#EFAC21"/>
<g style="mix-blend-mode:multiply">
<path d="M27.0115 25.7679C23.4551 27.2935 19.0832 25.7366 16.6881 23.2935C21.3732 24.2735 27.0115 25.7679 27.0115 25.7679Z" fill="#CCCCCC"/>
</g>
<path d="M27.075 25.6811C27.075 25.6811 19.7746 29.1111 12.4382 18.7167L15.7072 13.7019C15.7072 13.7019 18.9419 22.9547 27.075 25.6811Z" fill="#F98524"/>
<g style="mix-blend-mode:multiply">
<path d="M27.0115 25.7681C27.0115 25.7681 23.0886 19.5127 12.4177 18.7898C15.9793 18.2598 23.1626 17.4518 27.0115 25.7681Z" fill="#CCCCCC"/>
</g>
<path d="M27.0115 25.768C27.0115 25.768 27.5707 18.06 15.6885 13.7107C14.4178 15.2776 13.3215 16.9808 12.4194 18.7898C12.4194 18.7898 22.2283 18.5847 27.0115 25.768Z" fill="#EFAC21"/>
<path d="M29.7233 39.5264C29.7233 39.5264 29.429 38.0703 30.9277 36.8314C33.2332 34.92 38.5308 34.0338 39.9003 40.7671C41.1271 46.8088 33.2951 48.2006 33.2951 48.2006C33.5108 47.1133 34.1363 46.1532 35.0398 45.5229C32.7876 44.8487 32.1028 43.4639 32.1028 43.4639C32.1028 43.4639 34.78 43.6116 36.3216 42.7688C37.6602 42.0303 37.3367 39.8027 35.7882 39.4777C32.9149 38.8783 33.4655 41.933 33.4655 41.933L29.7233 39.5264Z" fill="#F98524"/>
<g style="mix-blend-mode:multiply">
<path d="M26.4724 25.1599C26.4724 25.1599 32.2914 25.7559 35.8529 30.3727C38.7366 34.1121 36.4792 41.3927 33.4613 41.9244C35.1062 40.1868 36.8852 35.6951 35.9235 33.106C34.9617 30.5169 33.2222 27.8601 31.1179 27.106C29.0137 26.3519 26.4724 25.1599 26.4724 25.1599Z" fill="#CCCCCC"/>
</g>
<path d="M26.6456 25.8983C26.6456 25.8983 33.1046 28.0147 33.6586 32.0964C34.2126 36.1781 31.0778 38.9861 29.7495 39.5821C30.7371 41.7471 33.4625 41.9279 33.4625 41.9279C33.4625 41.9279 37.5247 39.7246 36.6317 33.3683C35.7388 27.0121 26.4805 25.1633 26.4805 25.1633L26.6456 25.8983Z" fill="#EFAC21"/>
<g style="mix-blend-mode:multiply">
<path d="M26.9221 25.8984C26.9221 25.8984 24.9108 23.3841 25.3512 20.3241C25.4579 22.6282 26.4386 25.2711 26.9221 25.8984Z" fill="#CCCCCC"/>
</g>
<g style="mix-blend-mode:multiply">
<path d="M30.5857 17.0208C30.5857 17.0208 27.9515 20.9565 27.0293 25.1998C26.1346 23.4378 28.8049 17.3614 30.5857 17.0208Z" fill="#CCCCCC"/>
</g>
<path d="M26.9255 25.9034C26.9255 25.9034 21.6606 19.1806 30.4423 9.34737L36.3369 11.5958C36.3369 11.5958 27.7169 16.9599 26.9255 25.9034Z" fill="#F98524"/>
<g style="mix-blend-mode:multiply">
<path d="M36.3197 11.5717C36.3197 11.5717 37.0079 21.7124 27.7686 25.5595C31.7018 17.914 30.7142 13.1373 30.3683 9.38052C32.0441 9.59599 36.3197 11.5717 36.3197 11.5717Z" fill="#CCCCCC"/>
</g>
<path d="M26.9219 25.8982C26.9219 25.8982 34.7934 24.7201 36.3196 11.5715C34.4192 10.617 32.4228 9.87138 30.3647 9.34737C30.3647 9.34737 33.0505 19.3995 26.9219 25.8982Z" fill="#EFAC21"/>
<g style="mix-blend-mode:multiply">
<path d="M26.685 25.1095C25.6217 25.1252 25.7249 26.2424 27.0291 26.0982C28.3333 25.954 27.9909 25.0921 26.685 25.1095Z" fill="#CCCCCC"/>
</g>
<path d="M26.7222 25.1095C25.862 25.1252 25.9377 26.2424 27.0061 26.0982C28.0746 25.954 27.789 25.0921 26.7222 25.1095Z" fill="#EFAC21"/>
<path d="M64.3491 31.0518L67.8384 31.2968L67.4014 32.6678L64.3491 31.0518Z" fill="white"/>
<path d="M62.1222 28.9113L63.5125 28.3726L63.084 27.2936L62.1222 28.9113Z" fill="white"/>
<path d="M55.8456 32.3726C56.2173 32.3726 56.5339 32.2371 56.6801 31.9955C56.7799 31.8339 56.8883 31.4899 56.4891 30.9947C56.346 30.8108 56.1669 30.6588 55.9629 30.5482C55.7589 30.4375 55.5345 30.3707 55.3037 30.3517C54.8963 30.3274 54.4887 30.3938 54.1096 30.5464C54.0365 30.3206 53.9875 30.0876 53.9634 29.8513C53.8945 29.1823 54.1475 28.7236 54.717 28.4873C54.9281 28.4039 55.15 28.3518 55.3759 28.3326C55.7011 29.2657 56.5803 30.1762 57.3425 30.4404C57.8793 30.6245 58.3387 30.496 58.6329 30.0772C58.7428 29.9267 58.797 29.742 58.786 29.5553C58.775 29.3686 58.6995 29.1918 58.5727 29.0555C58.0892 28.4404 56.7782 27.9573 55.6323 27.9729C55.602 27.8414 55.5881 27.7066 55.591 27.5715C55.6099 27.0954 55.899 26.7827 56.4513 26.6402C58.793 26.0372 59.796 27.7279 59.8373 27.7992C59.8601 27.8393 59.8978 27.8686 59.942 27.8806C59.9862 27.8927 60.0333 27.8865 60.073 27.8635C60.1127 27.8404 60.1418 27.8024 60.1537 27.7578C60.1656 27.7131 60.1595 27.6655 60.1367 27.6254C60.1247 27.6063 58.9667 25.6341 56.367 26.3031C55.6787 26.4768 55.2727 26.9286 55.2486 27.5576C55.2429 27.704 55.255 27.8505 55.2847 27.9938C55.0487 28.0207 54.8173 28.0791 54.5965 28.1675C53.8876 28.4595 53.5453 29.0711 53.6296 29.8895C53.6578 30.1604 53.7155 30.4273 53.8016 30.6854C53.3029 30.9208 52.8358 31.2192 52.4114 31.5733C52.3767 31.6032 52.3553 31.6459 52.3517 31.6918C52.3482 31.7378 52.3628 31.7833 52.3925 31.8183C52.4221 31.8533 52.4644 31.875 52.5099 31.8786C52.5554 31.8822 52.6004 31.8674 52.6351 31.8374C53.0321 31.5096 53.4671 31.2318 53.9307 31.0103C54.0706 31.3348 54.2821 31.6228 54.5489 31.8523C54.8158 32.0817 55.131 32.2466 55.4706 32.3344C55.5939 32.3603 55.7196 32.3731 55.8456 32.3726ZM55.1196 30.6923C55.1706 30.6897 55.2217 30.6897 55.2727 30.6923C55.4584 30.7067 55.6391 30.7606 55.8028 30.8504C55.9664 30.9402 56.1095 31.064 56.2224 31.2136C56.336 31.3526 56.5081 31.6167 56.3945 31.8096C56.2809 32.0025 55.9179 32.0737 55.5342 31.9834C55.2486 31.9073 54.9836 31.7672 54.759 31.5735C54.5344 31.3797 54.356 31.1373 54.2369 30.8643C54.5189 30.7553 54.8177 30.6971 55.1196 30.6923ZM55.7407 28.3118C56.7558 28.3118 57.8914 28.7427 58.3026 29.2675C58.3821 29.3451 58.4309 29.4493 58.4398 29.5606C58.4487 29.6719 58.417 29.7827 58.3508 29.8722C58.1477 30.1623 57.8449 30.2405 57.4526 30.1067C56.8143 29.8861 56.0555 29.0989 55.7407 28.3118Z" fill="#EFAC21"/>
<path d="M60.2908 31.4289L61.5004 30.1344L62.4983 30.5653L60.2908 31.4289Z" fill="#063046"/>
<path d="M49.4559 26.0648L49.3217 27.9032L50.428 24.991L49.4559 26.0648Z" fill="white"/>
<path d="M47.7637 30.3724C47.6029 30.3101 47.4599 30.2087 47.3473 30.0771C47.2347 29.9456 47.1561 29.7879 47.1185 29.6183C46.9068 30.3932 46.3132 30.2386 46.3132 30.2386C46.3132 30.2386 47.1047 30.5861 47.1047 30.9475C47.3232 30.3724 47.7637 30.3724 47.7637 30.3724Z" fill="#EFAC21"/>
<path d="M47.1714 23.9436C47.1714 23.9436 46.3885 23.9974 46.3885 23.0261C45.979 23.9071 45.4095 23.782 45.4095 23.782C45.4095 23.782 46.3713 24.2129 46.3713 24.6508C46.6432 23.9436 47.1714 23.9436 47.1714 23.9436Z" fill="#063046"/>
<path d="M71.3538 31.5002C71.3538 31.5002 70.6931 31.7313 70.4608 30.8555C70.3197 31.7452 69.8001 31.766 69.8001 31.766C69.8001 31.766 70.7292 31.9294 70.8324 32.3186C70.8944 31.6235 71.3538 31.5002 71.3538 31.5002Z" fill="#EFAC21"/>
<path d="M49.6907 29.3996C49.7573 29.3996 49.8212 29.4263 49.8683 29.4739C49.9154 29.5214 49.9419 29.586 49.9419 29.6532C49.9419 29.7205 49.9154 29.7851 49.8683 29.8326C49.8212 29.8802 49.7573 29.9069 49.6907 29.9069C49.6241 29.9069 49.5602 29.8802 49.5131 29.8326C49.466 29.7851 49.4395 29.7205 49.4395 29.6532C49.4395 29.586 49.466 29.5214 49.5131 29.4739C49.5602 29.4263 49.6241 29.3996 49.6907 29.3996Z" fill="#2B9EBA"/>
<path d="M46.7261 27.2764L46.2994 25.8376L45.9432 26.0531L46.7261 27.2764Z" fill="#EFAC21"/>
<path d="M44.2311 31.8375L43.2228 32.2528L44.2792 32.1311L44.7231 33.1059L44.613 32.0564L45.5593 31.6064L44.4926 31.7471L44.0607 30.7532L44.2311 31.8375Z" fill="white"/>
<path d="M48.1311 32.4457C48.1691 32.4544 48.203 32.4759 48.2273 32.5067C48.2517 32.5375 48.2649 32.5757 48.2649 32.6151C48.2649 32.6545 48.2517 32.6927 48.2273 32.7234C48.203 32.7542 48.1691 32.7758 48.1311 32.7845C48.0931 32.7758 48.0591 32.7542 48.0348 32.7234C48.0105 32.6927 47.9972 32.6545 47.9972 32.6151C47.9972 32.5757 48.0105 32.5375 48.0348 32.5067C48.0591 32.4759 48.0931 32.4544 48.1311 32.4457Z" fill="white"/>
<path d="M45.7831 35.3942C45.8203 35.4036 45.8533 35.4253 45.8769 35.4558C45.9005 35.4864 45.9133 35.524 45.9133 35.5627C45.9133 35.6015 45.9005 35.6391 45.8769 35.6696C45.8533 35.7002 45.8203 35.7219 45.7831 35.7313C45.7459 35.7219 45.7129 35.7002 45.6893 35.6696C45.6657 35.6391 45.6529 35.6015 45.6529 35.5627C45.6529 35.524 45.6657 35.4864 45.6893 35.4558C45.7129 35.4253 45.7459 35.4036 45.7831 35.3942Z" fill="#0074D9"/>
<path d="M41.3683 32.9493C41.4055 32.9587 41.4385 32.9804 41.4621 33.011C41.4857 33.0415 41.4985 33.0791 41.4985 33.1179C41.4985 33.1566 41.4857 33.1942 41.4621 33.2248C41.4385 33.2553 41.4055 33.277 41.3683 33.2864C41.3311 33.277 41.2981 33.2553 41.2745 33.2248C41.2509 33.1942 41.2381 33.1566 41.2381 33.1179C41.2381 33.0791 41.2509 33.0415 41.2745 33.011C41.2981 32.9804 41.3311 32.9587 41.3683 32.9493Z" fill="white"/>
<path d="M52.4037 34.6034C52.4409 34.6129 52.4739 34.6346 52.4975 34.6651C52.5211 34.6956 52.5339 34.7333 52.5339 34.772C52.5339 34.8107 52.5211 34.8483 52.4975 34.8789C52.4739 34.9094 52.4409 34.9311 52.4037 34.9405C52.3665 34.9311 52.3335 34.9094 52.3099 34.8789C52.2863 34.8483 52.2735 34.8107 52.2735 34.772C52.2735 34.7333 52.2863 34.6956 52.3099 34.6651C52.3335 34.6346 52.3665 34.6129 52.4037 34.6034Z" fill="#EFAC21"/>
<path d="M42.5792 37.5523C42.6164 37.5617 42.6495 37.5834 42.6731 37.6139C42.6967 37.6445 42.7095 37.6821 42.7095 37.7208C42.7095 37.7595 42.6967 37.7972 42.6731 37.8277C42.6495 37.8582 42.6164 37.8799 42.5792 37.8894C42.542 37.8799 42.509 37.8582 42.4854 37.8277C42.4618 37.7972 42.449 37.7595 42.449 37.7208C42.449 37.6821 42.4618 37.6445 42.4854 37.6139C42.509 37.5834 42.542 37.5617 42.5792 37.5523Z" fill="white"/>
<path d="M57.8161 34.9636C57.8533 34.973 57.8863 34.9947 57.9099 35.0253C57.9335 35.0558 57.9463 35.0934 57.9463 35.1322C57.9463 35.1709 57.9335 35.2085 57.9099 35.2391C57.8863 35.2696 57.8533 35.2913 57.8161 35.3007C57.7789 35.2913 57.7458 35.2696 57.7222 35.2391C57.6986 35.2085 57.6858 35.1709 57.6858 35.1322C57.6858 35.0934 57.6986 35.0558 57.7222 35.0253C57.7458 34.9947 57.7789 34.973 57.8161 34.9636Z" fill="#0074D9"/>
<path d="M49.5562 36.0667L48.9161 36.7861L48.8438 35.4916L49.5562 36.0667Z" fill="#0074D9"/>
<path d="M55.6091 34.1973L54.114 35.7785L55.0396 33.5491L55.6091 34.1973Z" fill="#0074D9"/>
<path d="M50.9084 32.6873L50.2684 32.2563L50.3389 33.4066L50.9084 32.6873Z" fill="white"/>
<path d="M43.2197 34.9876L42.3646 35.2031L43.1492 35.7782L43.2197 34.9876Z" fill="white"/>
<path fill-rule="evenodd" clip-rule="evenodd" d="M45.4212 56.0842C44.4644 56.0842 43.5884 56.2926 42.8183 56.7343C42.0419 57.1796 41.4444 57.829 41.0258 58.6543C40.6009 59.4827 40.4079 60.4574 40.4079 61.5462C40.4079 62.9322 40.7194 64.1404 41.4068 65.1095C42.0133 65.9647 42.8154 66.5507 43.792 66.8504C44.1992 67.5859 44.7606 68.2016 45.4681 68.6921L45.4721 68.6948C46.3344 69.2848 47.3595 69.56 48.5058 69.56C48.9317 69.56 49.3304 69.5238 49.6958 69.4439C50.0315 69.3704 50.3443 69.2722 50.6072 69.1339C50.923 68.9677 51.0855 68.6082 51.0015 68.2614L50.5809 66.5228C50.5297 66.3109 50.3919 66.1302 50.2012 66.0245C50.0105 65.9189 49.7843 65.898 49.5775 65.967C49.4856 65.9976 49.3696 66.026 49.2256 66.0487C49.2126 66.0508 49.1996 66.0532 49.1866 66.0559C49.0659 66.0813 48.933 66.0953 48.7863 66.0953C48.6997 66.0953 48.611 66.0901 48.5199 66.0794C48.9189 65.7642 49.2645 65.3785 49.5541 64.9251C50.1587 63.9844 50.4345 62.8421 50.4345 61.5462C50.4345 60.4574 50.2415 59.4827 49.8166 58.6543C49.398 57.829 48.8005 57.1796 48.0241 56.7343C47.254 56.2926 46.378 56.0842 45.4212 56.0842ZM5.84218 56.2525C5.41198 56.2525 5.06323 56.6012 5.06323 57.0314V66.1451C5.06323 66.5753 5.41198 66.924 5.84218 66.924H8.00142C8.43162 66.924 8.78037 66.5753 8.78037 66.1451V65.4333L8.86978 65.6736C8.98326 65.9786 9.27439 66.1809 9.59982 66.1809H10.8898C11.2152 66.1809 11.5063 65.9786 11.6198 65.6736L11.7373 65.358V66.1451C11.7373 66.5753 12.086 66.924 12.5162 66.924H14.7035C14.8656 66.924 15.0161 66.8745 15.1408 66.7898C15.2682 66.8762 15.4201 66.924 15.5779 66.924H18.0456C18.4081 66.924 18.7226 66.6741 18.8045 66.3211L19.1133 64.9891H20.4272L20.736 66.3211C20.8179 66.6741 21.1324 66.924 21.4948 66.924H24.0467C24.2034 66.924 24.3543 66.8769 24.4811 66.7916C24.6053 66.8752 24.7548 66.924 24.9157 66.924H27.3274C27.7576 66.924 28.1063 66.5753 28.1063 66.1451V57.0314C28.1063 56.6012 27.7576 56.2525 27.3274 56.2525H24.9157C24.4855 56.2525 24.1368 56.6012 24.1368 57.0314V63.7679L22.0156 56.8044C21.9157 56.4765 21.6133 56.2525 21.2705 56.2525H18.3541C18.0113 56.2525 17.7088 56.4765 17.609 56.8044L15.4824 63.7855V57.0314C15.4824 56.6012 15.1337 56.2525 14.7035 56.2525H12.1236C11.7935 56.2525 11.4992 56.4606 11.3892 56.7719L10.2961 59.865L9.15297 56.7621C9.04015 56.4559 8.7484 56.2525 8.42205 56.2525H5.84218ZM29.3521 56.2525C28.9219 56.2525 28.5731 56.6012 28.5731 57.0314V66.1451C28.5731 66.5753 28.9219 66.924 29.3521 66.924H31.6515C32.0817 66.924 32.4305 66.5753 32.4305 66.1451V64.1487L33.5894 66.4906C33.7207 66.7561 33.9913 66.924 34.2875 66.924H36.7552C37.1854 66.924 37.5342 66.5753 37.5342 66.1451V57.0314C37.5342 56.6012 37.1854 56.2525 36.7552 56.2525H34.4558C34.0256 56.2525 33.6768 56.6012 33.6768 57.0314V59.0198L32.5175 56.685C32.3859 56.42 32.1156 56.2525 31.8198 56.2525H29.3521ZM51.2313 56.2525C50.8011 56.2525 50.4523 56.6012 50.4523 57.0314V61.7425C50.4523 63.3754 50.7779 64.7418 51.5735 65.6918C52.39 66.6667 53.5902 67.0923 55.017 67.0923C56.4475 67.0923 57.6492 66.6693 58.4415 65.6807C59.2114 64.7317 59.5255 63.37 59.5255 61.7425V57.0314C59.5255 56.6012 59.1768 56.2525 58.7466 56.2525H56.4191C55.9889 56.2525 55.6401 56.6012 55.6401 57.0314V62.0229C55.6401 62.8076 55.5185 63.1739 55.4287 63.3032L55.4261 63.307C55.3776 63.3778 55.296 63.4593 55.017 63.4593C54.7519 63.4593 54.665 63.3857 54.6154 63.3177C54.5294 63.1732 54.4219 62.7939 54.4219 62.0229V57.0314C54.4219 56.6012 54.0731 56.2525 53.6429 56.2525H51.2313ZM60.7078 56.2525C60.2776 56.2525 59.9288 56.6012 59.9288 57.0314V66.1451C59.9288 66.5753 60.2776 66.924 60.7078 66.924H63.1194C63.4557 66.924 63.7423 66.7109 63.8513 66.4122C63.9603 66.7109 64.2469 66.924 64.5833 66.924H71.3134C71.7436 66.924 72.0923 66.5753 72.0923 66.1451V64.1261C72.0923 63.6959 71.7436 63.3471 71.3134 63.3471H69.0052L71.935 58.9194C72.0193 58.792 72.0643 58.6425 72.0643 58.4896V57.0314C72.0643 56.6012 71.7155 56.2525 71.2853 56.2525H64.9478C64.5176 56.2525 64.1689 56.6012 64.1689 57.0314V59.0504C64.1689 59.4806 64.5176 59.8294 64.9478 59.8294H66.8634L63.9337 64.2571C63.921 64.2762 63.9092 64.2959 63.8983 64.3159V57.0314C63.8983 56.6012 63.5496 56.2525 63.1194 56.2525H60.7078ZM44.7712 60.0694C44.9484 59.814 45.1429 59.7172 45.4212 59.7172C45.7131 59.7172 45.9011 59.817 46.065 60.0604L46.0695 60.067L46.0755 60.0756C46.2634 60.3408 46.4089 60.7977 46.4089 61.5462C46.4089 62.3685 46.2604 62.8873 46.0592 63.195L46.0535 63.2039C45.8803 63.4768 45.6922 63.5715 45.4212 63.5715C45.1635 63.5715 44.9694 63.4797 44.7832 63.195C44.582 62.8873 44.4335 62.3685 44.4335 61.5462C44.4335 60.7977 44.579 60.3408 44.7669 60.0756L44.7712 60.0694Z" fill="#FEFEFE"/>
<path d="M5.84229 66.1451V57.0314H8.42216L9.79622 60.761C9.88035 61.0134 9.9598 61.2751 10.0346 61.5462C10.1094 61.8173 10.1888 62.0883 10.2729 62.3594H10.329C10.4131 62.0883 10.4926 61.8173 10.5674 61.5462C10.6422 61.2751 10.7216 61.0134 10.8057 60.761L12.1237 57.0314H14.7036V66.1451H12.5163V63.4531C12.5163 63.1446 12.535 62.7987 12.5724 62.4155C12.6098 62.0229 12.6518 61.6303 12.6986 61.2377C12.7453 60.8451 12.7874 60.4993 12.8248 60.2002H12.7687L12.0115 62.3875L10.8899 65.402H9.59993L8.47824 62.3875L7.74915 60.2002H7.69306C7.73045 60.4993 7.77252 60.8451 7.81925 61.2377C7.86599 61.6303 7.90805 62.0229 7.94544 62.4155C7.98283 62.7987 8.00153 63.1446 8.00153 63.4531V66.1451H5.84229Z" fill="url(#paint1_linear_2869_72707)"/>
<path d="M19.0833 61.7144L18.9291 62.3454H20.6116L20.4574 61.7144C20.3452 61.2751 20.233 60.7984 20.1209 60.2843C20.0087 59.7702 19.8965 59.2841 19.7844 58.8261H19.7283C19.6348 59.2841 19.532 59.7702 19.4198 60.2843C19.3076 60.7984 19.1955 61.2751 19.0833 61.7144ZM15.578 66.1451L18.3542 57.0314H21.2706L24.0468 66.1451H21.4949L21.0463 64.2102H18.4944L18.0458 66.1451H15.578Z" fill="url(#paint2_linear_2869_72707)"/>
<path d="M24.9158 66.1451V57.0314H27.3275V66.1451H24.9158Z" fill="url(#paint3_linear_2869_72707)"/>
<path d="M29.3522 66.1451V57.0314H31.8199L33.8389 61.0975L34.7082 63.1446H34.7643C34.7082 62.6492 34.6428 62.0883 34.568 61.4621C34.4932 60.8264 34.4559 60.2282 34.4559 59.6674V57.0314H36.7553V66.1451H34.2876L32.2686 62.065L31.3993 60.0319H31.3432C31.3993 60.546 31.4647 61.1162 31.5395 61.7425C31.6143 62.3594 31.6517 62.9483 31.6517 63.5091V66.1451H29.3522Z" fill="url(#paint4_linear_2869_72707)"/>
<path d="M45.4213 64.3504C45.9728 64.3504 46.4028 64.1074 46.7112 63.6213C47.0291 63.1352 47.188 62.4435 47.188 61.5462C47.188 60.7143 47.0291 60.074 46.7112 59.6253C46.4028 59.1673 45.9728 58.9383 45.4213 58.9383C44.8792 58.9383 44.4492 59.1673 44.1314 59.6253C43.8136 60.074 43.6547 60.7143 43.6547 61.5462C43.6547 62.4435 43.8136 63.1352 44.1314 63.6213C44.4492 64.1074 44.8792 64.3504 45.4213 64.3504ZM48.5059 68.7811C47.4871 68.7811 46.6224 68.538 45.912 68.052C45.211 67.5659 44.6829 66.9443 44.3277 66.1872C43.3742 65.9722 42.6124 65.4627 42.0422 64.6589C41.472 63.855 41.187 62.8174 41.187 61.5462C41.187 60.546 41.3646 59.7001 41.7198 59.0084C42.075 58.3073 42.5704 57.7745 43.206 57.41C43.8416 57.0454 44.58 56.8632 45.4213 56.8632C46.2626 56.8632 47.001 57.0454 47.6366 57.41C48.2723 57.7745 48.7677 58.3073 49.1229 59.0084C49.4781 59.7001 49.6557 60.546 49.6557 61.5462C49.6557 62.7333 49.4033 63.7195 48.8985 64.5046C48.4031 65.2805 47.7254 65.8086 46.8655 66.089C47.0805 66.3788 47.3656 66.5797 47.7208 66.6919C48.0853 66.8134 48.4405 66.8742 48.7864 66.8742C48.9827 66.8742 49.1696 66.8555 49.3472 66.8181C49.5248 66.7901 49.6837 66.7527 49.8239 66.7059L50.2446 68.4445C50.067 68.538 49.8286 68.6175 49.5295 68.6829C49.2304 68.7483 48.8892 68.7811 48.5059 68.7811Z" fill="url(#paint5_linear_2869_72707)"/>
<path d="M55.0171 66.3133C53.7458 66.3133 52.7971 65.9395 52.1708 65.1917C51.5445 64.4439 51.2314 63.2941 51.2314 61.7425V57.0314H53.643V62.0229C53.643 62.8361 53.7505 63.411 53.9655 63.7475C54.1898 64.0747 54.5404 64.2382 55.0171 64.2382C55.4938 64.2382 55.8443 64.0747 56.0687 63.7475C56.3023 63.411 56.4192 62.8361 56.4192 62.0229V57.0314H58.7467V61.7425C58.7467 63.2941 58.4429 64.4439 57.8353 65.1917C57.2371 65.9395 56.2977 66.3133 55.0171 66.3133Z" fill="url(#paint6_linear_2869_72707)"/>
<path d="M60.7079 66.1451V57.0314H63.1195V66.1451H60.7079Z" fill="url(#paint7_linear_2869_72707)"/>
<path d="M64.5834 66.1451V64.6869L68.313 59.0504H64.9479V57.0314H71.2854V58.4896L67.5558 64.1261H71.3135V66.1451H64.5834Z" fill="url(#paint8_linear_2869_72707)"/>
<defs>
<linearGradient id="paint0_linear_2869_72707" x1="45.5685" y1="13.6316" x2="45.5685" y2="64.2632" gradientUnits="userSpaceOnUse">
<stop stop-color="#A8E6F9"/>
<stop offset="1" stop-color="#7CCFEC"/>
</linearGradient>
<linearGradient id="paint1_linear_2869_72707" x1="38.5779" y1="56.8632" x2="38.5779" y2="68.7811" gradientUnits="userSpaceOnUse">
<stop stop-color="#005BAA"/>
<stop offset="1" stop-color="#0074D9"/>
</linearGradient>
<linearGradient id="paint2_linear_2869_72707" x1="38.5779" y1="56.8632" x2="38.5779" y2="68.7811" gradientUnits="userSpaceOnUse">
<stop stop-color="#005BAA"/>
<stop offset="1" stop-color="#0074D9"/>
</linearGradient>
<linearGradient id="paint3_linear_2869_72707" x1="38.5779" y1="56.8632" x2="38.5779" y2="68.7811" gradientUnits="userSpaceOnUse">
<stop stop-color="#005BAA"/>
<stop offset="1" stop-color="#0074D9"/>
</linearGradient>
<linearGradient id="paint4_linear_2869_72707" x1="38.5779" y1="56.8632" x2="38.5779" y2="68.7811" gradientUnits="userSpaceOnUse">
<stop stop-color="#005BAA"/>
<stop offset="1" stop-color="#0074D9"/>
</linearGradient>
<linearGradient id="paint5_linear_2869_72707" x1="38.5779" y1="56.8632" x2="38.5779" y2="68.7811" gradientUnits="userSpaceOnUse">
<stop stop-color="#005BAA"/>
<stop offset="1" stop-color="#0074D9"/>
</linearGradient>
<linearGradient id="paint6_linear_2869_72707" x1="38.5779" y1="56.8632" x2="38.5779" y2="68.7811" gradientUnits="userSpaceOnUse">
<stop stop-color="#005BAA"/>
<stop offset="1" stop-color="#0074D9"/>
</linearGradient>
<linearGradient id="paint7_linear_2869_72707" x1="38.5779" y1="56.8632" x2="38.5779" y2="68.7811" gradientUnits="userSpaceOnUse">
<stop stop-color="#005BAA"/>
<stop offset="1" stop-color="#0074D9"/>
</linearGradient>
<linearGradient id="paint8_linear_2869_72707" x1="38.5779" y1="56.8632" x2="38.5779" y2="68.7811" gradientUnits="userSpaceOnUse">
<stop stop-color="#005BAA"/>
<stop offset="1" stop-color="#0074D9"/>
</linearGradient>
</defs>
</svg>
