<svg width="360" height="800" viewBox="0 0 360 800" fill="none" xmlns="http://www.w3.org/2000/svg">
    <path d="M360 0H0V800H360V0Z" fill="url(#paint0_linear_649_28183)" />
    <path
        d="M290.426 643.74C290.426 643.74 300.239 615.896 307.038 609L322.652 621.762L327.857 624.646L325.23 628.449L343.841 641.839C343.841 641.839 339.893 649.122 333.641 651.99L322.136 656.518C322.136 656.518 314.644 660.03 310.1 658.661C310.1 658.661 300.094 658.258 290.426 643.74Z"
        fill="#5B254E" />
    <path
        d="M307.059 609C307.059 609 301.984 617.637 304.916 630.833C304.916 630.833 316.373 639.309 328.828 642.451L330.762 639.083L333.307 642.902C333.307 642.902 338.512 643.353 343.862 641.839C343.862 641.839 335.128 632.59 324.284 625.403L327.877 624.646C327.877 624.646 320.627 616.718 307.059 609Z"
        fill="#985965" />
    <path
        d="M304.915 630.833C304.915 630.833 294.119 638.213 290.445 643.74C290.445 643.74 296.455 624.291 307.058 609C307.058 609 304.013 622.938 304.915 630.833Z"
        fill="#461642" />
    <path
        d="M330.755 639.083L329.595 643.514L316.156 655.744C316.156 655.744 329.288 648.026 333.301 642.902L330.755 639.083Z"
        fill="#461642" />
    <g style="mix-blend-mode:soft-light" opacity="0.2">
        <path
            d="M306.941 609.532C306.941 609.532 305.491 622.245 307.232 627.417C308.972 632.59 321.798 636.263 323.151 636.118C324.505 635.973 325.31 634.185 330.918 636.376C336.525 638.568 337.75 637.601 336.944 636.537C336.138 635.474 328.227 631.252 324.698 627.804C321.169 624.356 324.908 624.243 323.006 621.923C321.105 619.602 311.05 610.901 306.941 609.516V609.532Z"
            fill="#D2CCBF" />
    </g>
    <path
        d="M306.28 612.996C306.28 612.996 305.635 626.193 307.456 629.045C309.277 631.897 321.555 640.566 328.822 642.451C328.822 642.451 316.479 639.808 304.91 630.833C304.91 630.833 304.572 621.294 306.28 612.996Z"
        fill="#B06979" />
    <path d="M304.883 628.69L303.594 631.768L306.414 631.881L304.883 628.69Z" fill="#D27F7C" />
    <path
        d="M332.5 641.694L331.453 644.884L334.966 642.838C334.966 642.838 333.322 641.661 332.517 641.694H332.5Z"
        fill="#B06979" />
    <path
        d="M40.4476 484.156L25.1724 495.886L22.1592 500.172L20.1451 502.154C20.1451 502.154 19.5328 507.697 24.0444 515.399C24.0444 515.399 34.9531 520.023 41.2533 519.153L51.6462 515.447L40.4154 484.172L40.4476 484.156Z"
        fill="#5B254E" />
    <path
        d="M51.679 515.431L31.4731 510.017L29.3945 498.271L33.3261 495.983L40.4642 484.172C40.4642 484.172 47.8279 493.372 51.0989 502.363C51.0989 502.363 53.1131 511.226 51.679 515.447V515.431Z"
        fill="#985965" />
    <path
        d="M31.4745 510.017C31.4745 510.017 25.98 511.919 24.0625 515.399C24.0625 515.399 30.0888 520.41 41.2713 519.153C41.2713 519.153 49.3762 517.51 51.6643 515.447C51.6643 515.447 37.8875 513.095 31.4584 510.033L31.4745 510.017Z"
        fill="#461642" />
    <path d="M33.3086 495.983L38.7548 492.792L35.4194 492.502L33.3086 495.983Z" fill="#6E3E62" />
    <path
        d="M29.3945 498.271C29.3945 498.271 30.8608 504.168 34.583 507.149C38.3051 510.13 51.679 515.431 51.679 515.431C51.679 515.431 36.3554 513.095 31.4731 510.017L29.3945 498.271Z"
        fill="#B06979" />
    <path d="M29.7969 510.646L31.0376 507.552L32.9228 510.791L29.7969 510.646Z" fill="#D27F7C" />
    <path
        d="M20.1797 502.154L29.3964 498.271L33.3119 495.983L40.45 484.156L25.1909 495.886L22.5 500.043L20.1797 502.154Z"
        fill="#6E3E62" />
    <path
        d="M26.558 453.267C26.558 453.267 24.7856 458.181 26.7353 462.065L28.395 463.257V465.464C28.395 465.464 30.7475 468.091 34.8241 469.815C34.8241 469.815 42.4778 471.716 48.0852 467.253L26.558 453.283V453.267Z"
        fill="#5B254E" />
    <path
        d="M48.0696 467.253C48.0696 467.253 39.9486 465.336 26.5586 453.283C26.5586 453.283 29.0723 453.122 32.0371 453.396C32.1499 453.412 32.2143 453.412 32.2143 453.412C34.5346 453.653 37.0805 454.185 38.869 455.329C38.869 455.329 43.139 459.648 45.9749 463.644C45.9749 463.644 45.9749 463.644 45.9911 463.676C46.8934 464.949 47.6507 466.19 48.0696 467.237V467.253Z"
        fill="#985965" />
    <path
        d="M48.0696 467.253C48.0696 467.253 39.9486 465.336 26.5586 453.283C26.5586 453.283 29.0723 453.122 32.0371 453.396C31.4731 453.363 29.7168 453.347 29.7973 454.266C29.8779 455.378 39.5458 463.128 43.5741 464.675C47.3123 466.093 46.1844 464.014 46.0071 463.692C46.9095 464.965 47.6668 466.206 48.0857 467.253H48.0696Z"
        fill="#B06979" />
    <path
        d="M26.5592 453.267L30.5391 456.683L28.4122 463.257L26.7526 462.065C26.7526 462.065 24.4967 458.455 26.5753 453.267H26.5592Z"
        fill="#461642" />
    <path
        d="M270.869 130.811C270.869 130.811 268.79 132.777 268.242 140.946C268.242 140.946 269.451 145.023 273.785 147.553L277.846 147.81C277.846 147.81 284.162 152.757 289.157 153.74C289.157 153.74 297.375 151.13 300.372 143.863C303.369 136.596 296.36 120.757 296.36 120.757L270.869 130.827V130.811Z"
        fill="#5B254E" />
    <path
        d="M296.34 120.757L296.372 120.805C296.372 120.805 296.372 120.805 296.405 120.837C296.55 121.063 297.001 121.772 297.484 122.787C299.015 126.074 300.852 132.68 294.471 137.804C285.641 144.894 277.858 138.707 277.858 138.707C276.279 137.772 271.107 137.579 271.107 137.579C269.286 135.629 270.64 131.391 270.833 130.859C270.833 130.827 270.833 130.811 270.833 130.811C281.097 122.448 292.811 120.289 292.811 120.289L296.308 120.757H296.34Z"
        fill="#985965" />
    <path
        d="M273.772 147.569C273.772 147.569 274.4 146.231 273.514 142.525C272.628 138.819 271.113 137.579 271.113 137.579L277.462 138.513C277.462 138.513 279.186 143.476 277.832 147.827L273.772 147.569Z"
        fill="#461642" />
    <path
        d="M289.141 153.74C289.141 153.74 293.765 149.309 294.974 143.782C296.182 138.239 295.57 136.837 295.57 136.837C295.57 136.837 301.354 131.826 296.343 120.757C296.343 120.757 302.482 128.12 301.032 142.96C301.032 142.96 300.516 150.082 289.141 153.74Z"
        fill="#461642" />
    <path
        d="M296.372 120.821H296.405L297.484 122.787C299.015 126.074 300.852 132.68 294.471 137.804C285.641 144.894 277.858 138.707 277.858 138.707C276.279 137.772 271.107 137.579 271.107 137.579C269.286 135.629 270.64 131.391 270.833 130.859C270.736 131.311 270.188 134.469 271.574 136.016C273.057 137.708 274.894 136.966 279.067 138.014C283.224 139.077 292.263 139.464 295.663 133.566C298.854 128.024 296.646 121.611 296.356 120.821H296.372Z"
        fill="#B06979" />
    <path
        d="M17.2756 581.633C17.2756 592.638 14.4558 601.887 6.73759 603.208C6.09307 603.321 2.27427 603.208 1.61364 603.208C-7.02299 603.208 -14.0161 593.524 -14 581.601C-14 569.677 -6.97465 560.025 1.66197 560.041C2.20982 560.041 6.94705 559.977 7.47878 560.041C15.3581 561.153 17.2917 570.467 17.2756 581.633Z"
        fill="url(#paint1_radial_649_28183)" />
    <path
        d="M23.0202 581.63C23.0347 569.705 16.0489 560.03 7.41683 560.019C-1.21521 560.009 -8.22468 569.667 -8.23925 581.592C-8.25381 593.516 -1.26797 603.192 7.36407 603.202C15.9961 603.213 23.0056 593.554 23.0202 581.63Z"
        fill="url(#paint2_linear_649_28183)" />
    <path style="mix-blend-mode:screen"
        d="M-6.02344 570.515L16.6639 599.051L19.9509 594.572L2.2426 561.282C2.2426 561.282 -2.33352 563.167 -6.00731 570.515H-6.02344Z"
        fill="url(#paint3_linear_649_28183)" />
    <path
        d="M18.4851 581.649C18.4851 590.06 13.5384 596.876 7.43152 596.86C7.20593 596.86 6.98035 596.86 6.77087 596.828C0.986268 596.36 -3.58984 589.722 -3.58984 581.617C-3.58984 573.528 1.00237 566.938 6.75475 566.438C6.99644 566.422 7.22203 566.406 7.46373 566.406C13.5545 566.406 18.4851 573.238 18.4851 581.649Z"
        fill="url(#paint4_radial_649_28183)" />
    <path
        d="M17.0476 581.649C17.0476 589.706 12.4876 596.312 6.75134 596.828C0.966737 596.36 -3.60938 589.722 -3.60938 581.617C-3.60938 573.528 0.982883 566.938 6.73526 566.438C12.4876 566.954 17.0476 573.56 17.0315 581.649H17.0476Z"
        fill="url(#paint5_linear_649_28183)" />
    <path
        d="M21.0481 580.424C21.8698 580.457 22.5143 581.246 22.4821 582.213C22.4499 583.18 21.757 583.937 20.9352 583.905C20.1135 583.873 19.4689 583.083 19.5012 582.116C19.5334 581.15 20.2263 580.392 21.0481 580.424Z"
        fill="url(#paint6_radial_649_28183)" />
    <path
        d="M20.8226 580.666C21.5316 580.682 22.0795 581.375 22.0473 582.197C22.015 583.019 21.4349 583.663 20.726 583.647C20.017 583.631 19.4691 582.938 19.5014 582.116C19.5336 581.295 20.1137 580.65 20.8226 580.666Z"
        fill="url(#paint7_linear_649_28183)" />
    <path
        d="M8.30196 562.217C9.12373 562.249 9.76823 563.038 9.736 564.005C9.70377 564.972 9.01092 565.729 8.18915 565.697C7.36739 565.665 6.72284 564.875 6.75506 563.909C6.78729 562.942 7.48019 562.184 8.30196 562.217Z"
        fill="url(#paint8_radial_649_28183)" />
    <path
        d="M8.07555 562.458C8.78453 562.474 9.31628 563.167 9.30016 563.989C9.28405 564.811 8.68785 565.455 7.97888 565.439C7.2699 565.423 6.73815 564.73 6.75426 563.909C6.77038 563.087 7.36657 562.442 8.07555 562.458Z"
        fill="url(#paint9_linear_649_28183)" />
    <path
        d="M8.25118 598.23C9.07295 598.262 9.71744 599.051 9.68522 600.018C9.65299 600.985 8.96014 601.742 8.13837 601.71C7.3166 601.678 6.67206 600.888 6.70428 599.921C6.73651 598.955 7.42941 598.197 8.25118 598.23Z"
        fill="url(#paint10_radial_649_28183)" />
    <path
        d="M8.02477 598.471C8.73375 598.487 9.26549 599.18 9.24938 600.002C9.23327 600.824 8.63707 601.468 7.92809 601.452C7.21912 601.436 6.68737 600.743 6.70348 599.921C6.73571 599.1 7.31579 598.455 8.02477 598.471Z"
        fill="url(#paint11_linear_649_28183)" />
    <path style="mix-blend-mode:screen"
        d="M-11.7461 570.515H-6.00983C-6.00983 570.515 -4.4791 565.649 1.67611 561.282L-4.0279 561.508C-4.0279 561.508 -10.1026 565.343 -11.7461 570.515Z"
        fill="url(#paint12_linear_649_28183)" />
    <path
        d="M-5.0615 568.678C-5.28709 569.161 -1.11379 566.889 -0.227568 565.198C0.658653 563.506 1.22264 562.346 0.803694 562.104C0.384753 561.862 -3.69189 565.665 -5.0615 568.678Z"
        fill="white" />
    <path
        d="M16.2627 598.81C14.7481 599.212 18.4218 595.41 18.8086 595.571C19.1953 595.732 17.6323 598.439 16.2627 598.81Z"
        fill="white" />
    <path style="mix-blend-mode:screen"
        d="M54.5747 335.385C59.5053 344.746 60.7137 355.075 58.7157 364.678C58.5868 365.339 58.4257 365.983 58.2646 366.644C57.8939 368.062 57.4589 369.48 56.9594 370.85C56.8466 371.156 56.7177 371.478 56.6049 371.8C56.0409 373.267 55.3803 374.701 54.6552 376.103C54.4458 376.521 54.2202 376.94 53.9785 377.359C49.9824 384.449 43.9722 390.508 36.238 394.584L36.0446 394.681C35.0617 395.197 34.0788 395.664 33.0797 396.083C32.3224 396.405 31.5652 396.711 30.8078 396.985C30.3728 397.146 29.9538 397.291 29.5349 397.436C28.7615 397.694 27.988 397.92 27.2146 398.129C20.2537 400.014 13.0512 400.095 6.25143 398.564C5.99362 398.516 5.75193 398.451 5.51024 398.403C5.17186 398.322 4.83348 398.226 4.4951 398.145C3.1416 397.791 1.7881 397.356 0.466826 396.856C-0.113246 396.647 -0.677186 396.421 -1.22503 396.179C-1.38616 396.115 -1.54731 396.051 -1.69233 395.986C-10.5062 392.151 -18.1116 385.4 -22.9455 376.248C-25.9587 370.511 -27.5861 364.421 -27.9245 358.346C-28.005 357.105 -28.0211 355.864 -27.9728 354.624C-27.9728 354.044 -27.9245 353.48 -27.8923 352.9C-27.8117 351.74 -27.6828 350.563 -27.5055 349.419C-25.8136 338.027 -19.6584 327.409 -9.87777 320.351C-8.5726 319.4 -7.20303 318.53 -5.78507 317.709C-5.41447 317.499 -5.04385 317.29 -4.65713 317.096L-4.57659 317.064C-3.54535 316.516 -2.49798 316.017 -1.43451 315.566C1.56253 314.277 4.62401 313.342 7.71773 312.762C10.8437 312.166 13.9858 311.924 17.1117 312.021C17.7079 312.021 18.304 312.069 18.8841 312.117C28.987 312.826 38.6871 317.016 46.1314 324.138C46.4375 324.428 46.7437 324.734 47.0337 325.04C49.9824 328.037 52.5605 331.501 54.6069 335.417L54.5747 335.385Z"
        fill="url(#paint13_radial_649_28183)" />
    <path style="mix-blend-mode:screen"
        d="M46.6107 338.962C50.4778 346.309 51.4284 354.414 49.8494 361.955C49.7366 362.471 49.6238 362.986 49.4949 363.486C49.2048 364.598 48.8665 365.71 48.4637 366.789C48.3831 367.031 48.2864 367.289 48.1897 367.53C47.7385 368.674 47.223 369.802 46.659 370.898C46.4979 371.22 46.3045 371.559 46.1272 371.881C43.0013 377.44 38.2802 382.193 32.2055 385.384L32.0605 385.464C31.2871 385.867 30.5137 386.238 29.7402 386.56C29.144 386.818 28.5478 387.043 27.9516 387.269C27.6133 387.398 27.291 387.511 26.9526 387.623C26.3403 387.817 25.7441 388.01 25.1318 388.171C19.6695 389.654 14.0299 389.718 8.6965 388.51C8.50314 388.477 8.30976 388.429 8.1164 388.381C7.85859 388.316 7.58469 388.252 7.32688 388.171C6.26341 387.897 5.19996 387.543 4.16872 387.156C3.71755 386.995 3.28249 386.818 2.84743 386.624C2.71853 386.576 2.60572 386.528 2.47681 386.479C-4.43571 383.466 -10.3976 378.181 -14.1841 370.995C-16.5528 366.499 -17.8257 361.713 -18.0996 356.944C-18.1641 355.977 -18.1802 354.994 -18.1479 354.028C-18.1479 353.576 -18.1158 353.125 -18.0835 352.674C-18.0191 351.756 -17.9224 350.853 -17.7774 349.935C-16.4561 340.992 -11.6221 332.662 -3.9523 327.135C-2.93718 326.394 -1.85761 325.701 -0.745808 325.072C-0.455772 324.911 -0.165706 324.75 0.140443 324.589L0.20486 324.557C1.01052 324.122 1.83228 323.735 2.67016 323.38C5.02268 322.365 7.42355 321.64 9.84052 321.189C12.2897 320.722 14.755 320.528 17.2042 320.609C17.6715 320.609 18.1388 320.641 18.6061 320.673C26.5337 321.221 34.1391 324.524 39.9881 330.1C40.2298 330.325 40.4715 330.567 40.6971 330.809C43.0174 333.161 45.0316 335.884 46.6429 338.946L46.6107 338.962Z"
        fill="url(#paint14_radial_649_28183)" />
    <path
        d="M50.0109 353.383C53.1208 369.851 42.6956 382.113 27.0497 386.576C25.7124 386.963 24.3266 387.285 22.9248 387.543C11.6295 389.67 0.930388 387.478 -6.28829 381.065C-10.4938 377.327 -13.507 372.155 -14.7477 365.565C-18.1153 347.679 -6.90058 327.586 10.985 324.218C14.8199 323.493 18.6387 323.606 22.3286 324.396C28.8061 325.765 34.8324 329.246 39.6341 334.063C44.8547 339.284 48.6413 346.035 50.0271 353.351L50.0109 353.383Z"
        fill="url(#paint15_radial_649_28183)" />
    <path
        d="M23.2851 376.828C24.1714 383.482 45.3923 371.22 44.3772 364.372C43.3621 357.524 36.0467 359.587 31.0678 362.632C26.1049 365.677 22.7212 372.703 23.269 376.828H23.2851Z"
        fill="#FFBD00" />
    <path
        d="M24.0361 374.652C24.7773 380.131 42.2439 370.028 41.4222 364.388C40.5843 358.749 34.5579 360.441 30.4652 362.954C26.3725 365.468 23.5849 371.252 24.0361 374.652Z"
        fill="url(#paint16_radial_649_28183)" />
    <path
        d="M34.1924 347.212C32.0171 347.163 29.7291 338.446 31.2598 337.189C32.7744 335.916 36.5288 337.689 38.4462 340.444C40.3637 343.2 35.9487 347.26 34.2085 347.228L34.1924 347.212Z"
        fill="#FFBD00" />
    <path
        d="M33.9839 346.374C32.1792 346.342 30.2779 339.075 31.5347 338.027C32.8076 336.964 35.9174 338.446 37.5126 340.734C39.1078 343.022 35.4341 346.406 33.9839 346.374Z"
        fill="url(#paint17_radial_649_28183)" />
    <path
        d="M43.0075 357.315C42.9592 357.556 42.782 357.685 42.508 357.734C41.6863 357.862 40.1072 357.153 39.5916 355.977C39.5271 355.832 39.511 355.687 39.5594 355.558C39.7205 354.479 42.1052 353.48 43.0237 353.899C44.0549 354.366 43.1848 356.364 43.0237 357.331L43.0075 357.315Z"
        fill="#FFBD00" />
    <path
        d="M42.508 357.734C41.6863 357.863 40.1072 357.154 39.5916 355.977C39.5271 355.832 39.511 355.687 39.5594 355.558C40.365 354.882 41.7669 354.447 42.4275 354.753C43.3298 355.172 42.782 356.718 42.5242 357.75L42.508 357.734Z"
        fill="url(#paint18_radial_649_28183)" />
    <path
        d="M-7.13963 372.251C-11.2485 371.639 -13.7943 353.319 -10.3461 347.872C-6.89792 342.426 -0.581591 345.665 2.38322 350.193C5.34803 354.72 -1.04888 373.138 -7.13963 372.235V372.251Z"
        fill="#FFBD00" />
    <path
        d="M-5.58996 370.108C-9.27986 369.561 -11.5679 353.093 -8.47417 348.195C-5.38046 343.312 0.307482 346.213 2.96615 350.289C5.64092 354.366 -0.111504 370.914 -5.58996 370.108Z"
        fill="url(#paint19_radial_649_28183)" />
    <g style="mix-blend-mode:multiply" opacity="0.2">
        <path
            d="M27.0529 386.576C25.7155 386.963 24.3298 387.285 22.9279 387.543C11.6326 389.67 0.933518 387.478 -6.28516 381.065C-2.78861 373.476 7.16931 364.179 12.5672 365.516C17.6589 366.773 24.9582 377.762 27.0529 386.56V386.576Z"
            fill="#D45B71" />
    </g>
    <g style="mix-blend-mode:multiply" opacity="0.2">
        <path
            d="M-2.209 337.496C-1.90285 340.009 7.47499 340.203 9.08631 336.609C10.6976 333.016 11.4549 328.198 8.89296 326.877C6.31486 325.556 -2.67628 333.548 -2.209 337.496Z"
            fill="#D45B71" />
    </g>
    <g style="mix-blend-mode:multiply" opacity="0.2">
        <path
            d="M39.6219 334.096C35.0297 334.547 26.7475 334.934 24.7656 332.033C23.2188 329.793 22.5742 326.716 22.3164 324.428C28.7939 325.797 34.8202 329.278 39.6219 334.096Z"
            fill="#D45B71" />
    </g>
    <path style="mix-blend-mode:screen"
        d="M380.786 122.179C380.963 131.331 377.869 139.774 372.6 146.413C372.246 146.864 371.875 147.315 371.489 147.75C370.651 148.701 369.781 149.619 368.846 150.49C368.637 150.683 368.411 150.892 368.201 151.086C367.186 151.988 366.123 152.858 365.011 153.648C364.689 153.889 364.35 154.131 363.996 154.357C358.163 158.272 351.154 160.625 343.597 160.77H343.403C342.453 160.77 341.502 160.77 340.567 160.705C339.858 160.657 339.15 160.592 338.457 160.512C338.07 160.464 337.683 160.415 337.297 160.367C336.604 160.27 335.911 160.141 335.234 159.996C329.127 158.739 323.536 156.016 318.879 152.181C318.702 152.052 318.541 151.907 318.364 151.762C318.138 151.569 317.913 151.376 317.687 151.166C316.785 150.361 315.898 149.507 315.077 148.604C314.706 148.218 314.368 147.831 314.029 147.428C313.933 147.315 313.836 147.202 313.739 147.09C308.422 140.709 305.167 132.539 305.006 123.597C304.909 117.989 306.021 112.656 308.116 107.838C308.535 106.855 309.002 105.888 309.518 104.938C309.743 104.503 310.001 104.068 310.243 103.633C310.758 102.762 311.306 101.908 311.886 101.087C317.622 92.9335 326.501 87.1327 336.797 85.4892C338.167 85.2636 339.568 85.1186 340.986 85.038C341.357 85.0219 341.728 85.0058 342.098 85.0058H342.179C343.194 84.9897 344.193 85.0058 345.176 85.0703C347.98 85.2314 350.719 85.7148 353.329 86.456C355.972 87.2133 358.485 88.2445 360.87 89.5336C361.321 89.7753 361.772 90.0331 362.207 90.2909C369.732 94.7542 375.597 101.78 378.578 110.158C378.707 110.513 378.82 110.851 378.933 111.206C380.045 114.67 380.689 118.344 380.754 122.163L380.786 122.179Z"
        fill="url(#paint20_radial_649_28183)" />
    <path style="mix-blend-mode:screen"
        d="M373.266 121.856C373.395 129.027 370.978 135.649 366.837 140.87C366.563 141.224 366.273 141.579 365.966 141.917C365.306 142.675 364.613 143.384 363.888 144.06C363.727 144.221 363.55 144.366 363.388 144.528C362.599 145.237 361.761 145.913 360.891 146.542C360.633 146.735 360.359 146.912 360.101 147.09C355.525 150.167 350.031 152.004 344.101 152.117H343.956C343.215 152.117 342.474 152.117 341.732 152.069C341.168 152.036 340.621 151.988 340.073 151.924C339.767 151.891 339.46 151.843 339.17 151.811C338.622 151.73 338.091 151.633 337.559 151.521C332.757 150.538 328.391 148.395 324.733 145.398C324.588 145.285 324.459 145.188 324.33 145.075C324.153 144.914 323.976 144.769 323.798 144.608C323.089 143.98 322.397 143.303 321.752 142.594C321.462 142.288 321.188 141.982 320.93 141.676C320.85 141.595 320.785 141.498 320.705 141.418C316.531 136.407 313.986 130.01 313.857 122.984C313.776 118.586 314.646 114.396 316.29 110.626C316.628 109.852 316.983 109.095 317.385 108.354C317.563 108.015 317.756 107.677 317.949 107.339C318.352 106.662 318.787 105.985 319.238 105.341C323.734 98.9436 330.695 94.3997 338.784 93.1107C339.863 92.9334 340.959 92.8206 342.071 92.7562C342.361 92.7562 342.651 92.7239 342.941 92.7239H343.005C343.795 92.7239 344.584 92.724 345.358 92.7723C347.565 92.9012 349.708 93.2718 351.755 93.868C353.833 94.4642 355.799 95.2698 357.668 96.2849C358.023 96.4783 358.377 96.6717 358.716 96.8811C364.613 100.394 369.221 105.888 371.558 112.479C371.654 112.753 371.751 113.026 371.832 113.3C372.702 116.007 373.201 118.892 373.266 121.889V121.856Z"
        fill="url(#paint21_radial_649_28183)" />
    <path
        d="M370.28 134.312C370.006 135.23 369.7 136.133 369.362 136.971C364.576 148.927 352.556 153.47 339.649 151.021C338.473 150.796 337.264 150.522 336.088 150.167C334.074 149.587 332.14 148.878 330.336 148.008C323.601 144.866 318.477 139.919 316.043 133.829C314.239 129.317 313.933 124.145 315.528 118.569C319.878 103.439 336.362 92.289 351.46 96.6234C354.699 97.558 357.615 99.1209 360.145 101.167C364.608 104.744 367.912 109.788 369.749 115.363C371.747 121.421 372.053 128.125 370.28 134.296V134.312Z"
        fill="url(#paint22_radial_649_28183)" />
    <path
        d="M369.362 135.553V136.971C364.576 148.926 352.556 153.47 339.649 151.021C338.473 150.796 337.265 150.522 336.088 150.167C334.074 149.587 332.141 148.878 330.336 148.008C330.336 148.008 330.69 147.283 331.432 146.155C333.591 142.852 339.085 135.972 348.737 132.91C359.227 129.591 366.236 133.361 368.54 134.94C369.088 135.295 369.362 135.553 369.362 135.553Z"
        fill="#00AEFF" />
    <path
        d="M368.542 134.956C363.611 146.493 351.752 150.86 339.071 148.443C337.894 148.218 336.686 147.944 335.51 147.589C334.108 147.186 332.754 146.719 331.449 146.171C333.608 142.868 339.103 135.988 348.755 132.926C359.244 129.607 366.253 133.377 368.558 134.956H368.542Z"
        fill="url(#paint23_radial_649_28183)" />
    <path
        d="M318.751 124.241C316.173 121.389 323.037 104.712 330.948 103.407C338.86 102.102 344.854 113.3 343.549 118.795C342.244 124.29 321.877 127.689 318.751 124.241Z"
        fill="#00AEFF" />
    <path
        d="M321.412 123.742C319.107 121.196 325.23 106.291 332.304 105.131C339.378 103.971 344.727 113.961 343.551 118.876C342.375 123.79 324.183 126.819 321.395 123.742H321.412Z"
        fill="url(#paint24_radial_649_28183)" />
    <path
        d="M356.987 114.622C357.857 112.962 366.671 113.317 368.588 116.733C370.506 120.149 366.381 124.773 363.641 125.095C360.902 125.417 355.939 116.636 356.987 114.638V114.622Z"
        fill="#00AEFF" />
    <path
        d="M356.971 114.557C357.761 113.075 365.624 113.381 367.332 116.443C369.056 119.488 365.366 123.629 362.917 123.903C360.468 124.193 356.037 116.346 356.971 114.557Z"
        fill="url(#paint25_radial_649_28183)" />
    <defs>
        <linearGradient id="paint0_linear_649_28183" x1="180" y1="800" x2="180" y2="0"
            gradientUnits="userSpaceOnUse">
            <stop stop-color="#510051" />
            <stop offset="1" stop-color="#00669F" />
        </linearGradient>
        <radialGradient id="paint1_radial_649_28183" cx="0" cy="0" r="1"
            gradientUnits="userSpaceOnUse"
            gradientTransform="translate(1.63434 581.568) rotate(0.07) scale(18.8685 18.8685)">
            <stop stop-color="#FFBD00" />
            <stop offset="1" stop-color="#FF772C" />
        </radialGradient>
        <linearGradient id="paint2_linear_649_28183" x1="7.3641" y1="603.186" x2="7.41685"
            y2="560.003" gradientUnits="userSpaceOnUse">
            <stop stop-color="#FFCC00" />
            <stop offset="1" stop-color="#FFBD00" />
        </linearGradient>
        <linearGradient id="paint3_linear_649_28183" x1="-6.03314" y1="580.076" x2="19.9734"
            y2="580.108" gradientUnits="userSpaceOnUse">
            <stop stop-color="#FF9840" />
            <stop offset="0.1" stop-color="#EE8E3B" />
            <stop offset="0.29" stop-color="#C47531" />
            <stop offset="0.55" stop-color="#804C20" />
            <stop offset="0.88" stop-color="#241509" />
            <stop offset="1" />
        </linearGradient>
        <radialGradient id="paint4_radial_649_28183" cx="0" cy="0" r="1"
            gradientUnits="userSpaceOnUse"
            gradientTransform="translate(7.45226 581.559) rotate(0.0699999) scale(13.2933 13.2933)">
            <stop stop-color="#FFBD00" />
            <stop offset="1" stop-color="#FF772C" />
        </radialGradient>
        <linearGradient id="paint5_linear_649_28183" x1="6.7213" y1="596.753" x2="6.75842"
            y2="566.363" gradientUnits="userSpaceOnUse">
            <stop stop-color="#FFCC00" />
            <stop offset="1" stop-color="#FF9700" />
        </linearGradient>
        <radialGradient id="paint6_radial_649_28183" cx="0" cy="0" r="1"
            gradientUnits="userSpaceOnUse"
            gradientTransform="translate(28.1119 582.408) rotate(-88.07) scale(1.74022 1.47919)">
            <stop stop-color="#FFBD00" />
            <stop offset="1" stop-color="#FF772C" />
        </radialGradient>
        <linearGradient id="paint7_linear_649_28183" x1="27.898" y1="583.884" x2="27.8658"
            y2="580.902" gradientUnits="userSpaceOnUse">
            <stop stop-color="#00FFF4" />
            <stop offset="1" stop-color="#30A7FB" />
        </linearGradient>
        <radialGradient id="paint8_radial_649_28183" cx="0" cy="0" r="1"
            gradientUnits="userSpaceOnUse"
            gradientTransform="translate(15.4458 564.198) rotate(-88.07) scale(1.74022 1.47919)">
            <stop stop-color="#FFBD00" />
            <stop offset="1" stop-color="#FF772C" />
        </radialGradient>
        <linearGradient id="paint9_linear_649_28183" x1="15.2309" y1="565.674" x2="15.1987"
            y2="562.692" gradientUnits="userSpaceOnUse">
            <stop stop-color="#00FFF4" />
            <stop offset="1" stop-color="#30A7FB" />
        </linearGradient>
        <radialGradient id="paint10_radial_649_28183" cx="0" cy="0" r="1"
            gradientUnits="userSpaceOnUse"
            gradientTransform="translate(15.3946 600.213) rotate(-88.07) scale(1.74022 1.47919)">
            <stop stop-color="#FFBD00" />
            <stop offset="1" stop-color="#FF772C" />
        </radialGradient>
        <linearGradient id="paint11_linear_649_28183" x1="15.1797" y1="601.69" x2="15.1469"
            y2="598.724" gradientUnits="userSpaceOnUse">
            <stop stop-color="#00FFF4" />
            <stop offset="1" stop-color="#30A7FB" />
        </linearGradient>
        <linearGradient id="paint12_linear_649_28183" x1="-11.7545" y1="565.825" x2="1.65158"
            y2="565.841" gradientUnits="userSpaceOnUse">
            <stop stop-color="#FF9840" />
            <stop offset="0.1" stop-color="#EE8E3B" />
            <stop offset="0.29" stop-color="#C47531" />
            <stop offset="0.55" stop-color="#804C20" />
            <stop offset="0.88" stop-color="#241509" />
            <stop offset="1" />
        </linearGradient>
        <radialGradient id="paint13_radial_649_28183" cx="0" cy="0" r="1"
            gradientUnits="userSpaceOnUse"
            gradientTransform="translate(15.7997 355.827) rotate(-27.77) scale(43.8277 43.8277)">
            <stop offset="0.21" stop-color="#F02727" />
            <stop offset="1" />
        </radialGradient>
        <radialGradient id="paint14_radial_649_28183" cx="0" cy="0" r="1"
            gradientUnits="userSpaceOnUse"
            gradientTransform="translate(16.2036 355.011) rotate(-27.77) scale(34.3693 34.3693)">
            <stop offset="0.65" stop-color="#F02727" />
            <stop offset="1" />
        </radialGradient>
        <radialGradient id="paint15_radial_649_28183" cx="0" cy="0" r="1"
            gradientUnits="userSpaceOnUse"
            gradientTransform="translate(11.9546 338.364) rotate(-27.77) scale(43.5376)">
            <stop stop-color="#D36F4C" />
            <stop offset="0.85" stop-color="#A24036" />
        </radialGradient>
        <radialGradient id="paint16_radial_649_28183" cx="0" cy="0" r="1"
            gradientUnits="userSpaceOnUse"
            gradientTransform="translate(32.1505 368.212) rotate(-27.77) scale(8.24992)">
            <stop stop-color="#FFE05E" />
            <stop offset="0.28" stop-color="#FFE262" />
            <stop offset="0.57" stop-color="#FFEA6F" />
            <stop offset="0.87" stop-color="#FFF784" />
            <stop offset="1" stop-color="#FFFF90" />
        </radialGradient>
        <radialGradient id="paint17_radial_649_28183" cx="0" cy="0" r="1"
            gradientUnits="userSpaceOnUse"
            gradientTransform="translate(34.3193 341.505) rotate(-27.7701) scale(3.83492 3.83492)">
            <stop stop-color="#FFE05E" />
            <stop offset="0.28" stop-color="#FFE262" />
            <stop offset="0.57" stop-color="#FFEA6F" />
            <stop offset="0.87" stop-color="#FFF784" />
            <stop offset="1" stop-color="#FFFF90" />
        </radialGradient>
        <radialGradient id="paint18_radial_649_28183" cx="0" cy="0" r="1"
            gradientUnits="userSpaceOnUse"
            gradientTransform="translate(41.6013 356.337) rotate(-27.77) scale(1.65965)">
            <stop stop-color="#FFE05E" />
            <stop offset="0.28" stop-color="#FFE262" />
            <stop offset="0.57" stop-color="#FFEA6F" />
            <stop offset="0.87" stop-color="#FFF784" />
            <stop offset="1" stop-color="#FFFF90" />
        </radialGradient>
        <radialGradient id="paint19_radial_649_28183" cx="0" cy="0" r="1"
            gradientUnits="userSpaceOnUse"
            gradientTransform="translate(-3.40109 357.125) rotate(-27.77) scale(10.0063 10.0062)">
            <stop stop-color="#FFE05E" />
            <stop offset="0.28" stop-color="#FFE262" />
            <stop offset="0.57" stop-color="#FFEA6F" />
            <stop offset="0.87" stop-color="#FFF784" />
            <stop offset="1" stop-color="#FFFF90" />
        </radialGradient>
        <radialGradient id="paint20_radial_649_28183" cx="0" cy="0" r="1"
            gradientUnits="userSpaceOnUse"
            gradientTransform="translate(342.954 122.84) rotate(-1.07) scale(37.8819 37.8819)">
            <stop offset="0.21" stop-color="#5986FF" />
            <stop offset="1" />
        </radialGradient>
        <radialGradient id="paint21_radial_649_28183" cx="0" cy="0" r="1"
            gradientUnits="userSpaceOnUse"
            gradientTransform="translate(343.594 122.361) rotate(-1.07) scale(29.7126 29.7126)">
            <stop offset="0.21" stop-color="#5986FF" />
            <stop offset="1" />
        </radialGradient>
        <radialGradient id="paint22_radial_649_28183" cx="0" cy="0" r="1"
            gradientUnits="userSpaceOnUse"
            gradientTransform="translate(349.236 111.544) scale(28.2302 28.2302)">
            <stop stop-color="#00EFF1" />
            <stop offset="1" stop-color="#006EFF" />
        </radialGradient>
        <radialGradient id="paint23_radial_649_28183" cx="0" cy="0" r="1"
            gradientUnits="userSpaceOnUse"
            gradientTransform="translate(349.995 140.338) scale(14.5018 14.5018)">
            <stop stop-color="#2ECCFF" />
            <stop offset="0.27" stop-color="#2AD0FF" />
            <stop offset="0.56" stop-color="#1EDDFF" />
            <stop offset="0.86" stop-color="#0BF2FF" />
            <stop offset="1" stop-color="#00FFFF" />
        </radialGradient>
        <radialGradient id="paint24_radial_649_28183" cx="0" cy="0" r="1"
            gradientUnits="userSpaceOnUse"
            gradientTransform="translate(332.32 115.008) scale(10.7152 10.7152)">
            <stop stop-color="#2ECCFF" />
            <stop offset="0.27" stop-color="#2AD0FF" />
            <stop offset="0.56" stop-color="#1EDDFF" />
            <stop offset="0.86" stop-color="#0BF2FF" />
            <stop offset="1" stop-color="#00FFFF" />
        </radialGradient>
        <radialGradient id="paint25_radial_649_28183" cx="0" cy="0" r="1"
            gradientUnits="userSpaceOnUse"
            gradientTransform="translate(362.908 118.043) rotate(69.9299) scale(5.23677 5.2368)">
            <stop stop-color="#2ECCFF" />
            <stop offset="0.27" stop-color="#2AD0FF" />
            <stop offset="0.56" stop-color="#1EDDFF" />
            <stop offset="0.86" stop-color="#0BF2FF" />
            <stop offset="1" stop-color="#00FFFF" />
        </radialGradient>
    </defs>
</svg>