<svg width="684" height="670" viewBox="0 0 684 670" fill="none" xmlns="http://www.w3.org/2000/svg">
  <path fill-rule="evenodd" clip-rule="evenodd" d="M10.5176 654.39L662.317 20.4951L677.494 35.6703C665.663 246.929 662.914 458.187 669.726 669.565C377.17 660.842 317.535 660.962 25.6951 669.565L10.5176 654.39Z" fill="url(#paint0_radial_1429_50343)" />
  <path fill-rule="evenodd" clip-rule="evenodd" d="M0 15.9547C301.4 9.26321 363.664 8.06837 662.316 20.4953C655.982 231.754 653.592 443.012 654.548 654.39C361.035 648.176 304.03 648.415 10.5168 654.39C10.7558 441.578 7.051 228.766 0 15.9547Z" fill="url(#paint1_radial_1429_50343)" />
  <path fill-rule="evenodd" clip-rule="evenodd" d="M669.726 669.685L654.549 654.509C361.036 648.296 304.03 648.535 10.5176 654.509L25.6951 669.685C317.415 661.081 377.05 660.962 669.726 669.685Z" fill="url(#paint2_linear_1429_50343)" />
  <path fill-rule="evenodd" clip-rule="evenodd" d="M662.315 20.6147C655.981 231.873 653.591 443.132 654.547 654.509L669.725 669.685C662.913 458.426 665.661 247.168 677.493 35.7899L662.315 20.6147Z" fill="url(#paint3_linear_1429_50343)" />
  <path style="mix-blend-mode:screen" fill-rule="evenodd" clip-rule="evenodd" d="M152.492 71.7567C178.784 52.8773 201.491 32.4444 225.153 11.5337C221.449 11.5337 217.744 11.5337 214.039 11.6532C179.023 46.9028 151.536 70.3228 120.703 89.6802C89.0333 109.635 54.1369 125.049 3.94336 144.765C3.94336 147.394 4.06283 150.023 4.18234 152.651C62.2634 128.873 100.148 109.396 152.612 71.7567H152.492Z" fill="url(#paint4_radial_1429_50343)" />
  <path style="mix-blend-mode:screen" fill-rule="evenodd" clip-rule="evenodd" d="M425.092 12.3701C368.923 81.0769 293.633 126.364 214.757 157.192C144.247 184.794 70.7496 200.806 5.49805 211.918V214.547C56.2891 206.78 107.439 197.819 156.676 184.077C169.105 185.392 178.068 184.555 179.861 183.36C183.924 180.732 186.673 177.744 189.541 174.04C198.504 171.053 207.467 167.827 216.311 164.361C302.357 131.024 373.345 75.6999 431.307 12.4896C429.275 12.4896 427.124 12.4896 425.092 12.3701Z" fill="url(#paint5_radial_1429_50343)" />
  <path style="mix-blend-mode:screen" fill-rule="evenodd" clip-rule="evenodd" d="M271.882 215.981C179.86 246.092 88.4364 279.43 6.93164 274.89C6.93164 277.279 6.93167 279.669 7.05117 282.059C73.1393 282.059 106.841 275.248 173.646 253.62C216.669 239.76 258.736 223.867 301.4 209.051C321.239 202.12 341.316 195.429 361.155 188.618C493.57 142.614 549.5 122.42 652.277 48.8144C655.384 46.6635 658.372 44.3933 661.599 42.1229C661.599 39.0162 661.718 35.9095 661.838 32.8027H661.24C613.198 70.2031 565.036 100.315 511.735 126.483C433.935 164.72 354.582 188.976 271.762 216.1L271.882 215.981Z" fill="url(#paint6_radial_1429_50343)" />
  <path style="mix-blend-mode:screen" fill-rule="evenodd" clip-rule="evenodd" d="M389 244.778C260.17 293.172 131.101 348.495 8.12695 341.326V346.823C18.4047 347.301 27.9654 347.659 36.9285 347.779C41.8284 350.288 47.6843 351.602 48.8794 351.602C49.4769 351.602 53.0621 349.81 54.9742 347.779C93.934 346.942 126.201 340.968 174.602 326.509C266.743 298.907 369.759 254.337 462.498 218.132C438.118 226.616 413.619 235.577 389 244.778Z" fill="url(#paint7_radial_1429_50343)" />
  <path style="mix-blend-mode:screen" fill-rule="evenodd" clip-rule="evenodd" d="M133.611 395.813C95.3687 403.7 58.2016 407.643 9.20312 409.674V415.051C121.183 409.794 180.1 392.348 280.846 352.08C233.879 369.048 185.598 385.059 133.731 395.813H133.611Z" fill="url(#paint8_radial_1429_50343)" />
  <path style="mix-blend-mode:screen" fill-rule="evenodd" clip-rule="evenodd" d="M256.106 415.29C170.658 436.321 98.3549 454.244 9.67969 455.558V459.741C91.3039 455.558 131.1 447.314 212.725 427.359C237.343 421.384 261.723 415.29 286.103 409.316C326.377 399.518 366.651 390.317 408.001 382.789C494.645 367.136 571.011 364.865 655.264 381.355C655.264 378.965 655.264 376.576 655.264 374.186C621.921 368.809 590.013 366.06 558.104 365.821C467.038 365.105 375.973 385.657 288.134 407.284C277.379 409.913 266.742 412.542 256.106 415.171V415.29Z" fill="url(#paint9_radial_1429_50343)" />
  <path style="mix-blend-mode:screen" fill-rule="evenodd" clip-rule="evenodd" d="M151.655 538.246C101.462 544.22 53.1805 546.849 10.3965 546.132C10.3965 548.761 10.3965 551.27 10.3965 553.899C62.7412 553.541 104.808 551.629 146.875 546.371C186.91 541.353 226.946 533.466 275.705 521.159C333.547 506.581 389.836 487.582 448.634 473.482C516.873 457.112 572.923 457.948 631.601 474.797C527.868 435.604 434.89 475.394 314.306 507.298C262.081 521.159 207.824 531.315 155.599 537.768C154.285 537.887 152.851 538.126 151.536 538.246H151.655Z" fill="url(#paint10_radial_1429_50343)" />
  <path style="mix-blend-mode:multiply" opacity="0.5" fill-rule="evenodd" clip-rule="evenodd" d="M154.763 532.271C334.145 509.449 497.871 408.719 654.547 476.469C654.547 457.59 654.786 438.591 654.905 419.712C585.591 388.525 493.091 395.097 419.474 404.656C507.313 380.28 588.817 374.305 655.144 396.053C655.144 388.883 655.264 381.594 655.383 374.425C622.041 369.048 590.132 366.3 558.223 366.061C456.043 365.224 353.864 391.273 256.225 415.41C170.777 436.44 98.4741 454.364 9.79883 455.678C10.0378 476.111 10.1574 496.544 10.2769 517.096C33.581 526.058 100.625 535.139 154.882 532.391L154.763 532.271Z" fill="url(#paint11_radial_1429_50343)" />
  <path style="mix-blend-mode:multiply" opacity="0.5" fill-rule="evenodd" clip-rule="evenodd" d="M8.00717 329.855C128.95 337.861 257.66 289.467 385.654 241.432C478.034 206.661 569.816 169.021 658.85 154.563C659.806 113.937 660.762 73.4293 661.957 32.8027H661.36C613.317 70.2031 565.156 100.315 511.855 126.483C434.055 164.72 354.701 188.976 271.882 216.1C179.86 246.212 88.4364 279.55 6.93164 275.009C7.29017 293.291 7.64865 311.573 8.00717 329.975V329.855ZM157.99 261.865C274.75 225.66 394.378 190.53 508.389 140.463C421.626 206.661 284.311 230.917 157.99 261.865Z" fill="url(#paint12_radial_1429_50343)" />
  <path style="mix-blend-mode:multiply" opacity="0.5" fill-rule="evenodd" clip-rule="evenodd" d="M211.649 153.488C287.418 123.854 358.884 77.1336 413.38 12.131C379.32 11.4141 347.411 11.0557 314.905 11.0557C249.295 77.7311 203.881 97.8054 126.918 118.119C187.389 85.7369 220.971 59.5686 261.006 11.2946C245.829 11.2946 230.173 11.5336 213.92 11.7726C178.904 47.0221 151.417 70.4422 120.584 89.7996C88.9143 109.754 54.0178 125.169 3.82422 144.884C4.30225 164.481 4.89983 184.077 5.25835 203.554C69.6734 193.397 142.454 180.493 211.53 153.488H211.649Z" fill="url(#paint13_radial_1429_50343)" />
  <g style="mix-blend-mode:multiply">
    <path fill-rule="evenodd" clip-rule="evenodd" d="M584.396 232.351C562.287 234.024 542.568 236.294 519.742 240.715C472.656 249.797 423.657 270.588 379.559 288.631C348.128 301.536 308.929 320.057 276.662 329.018C333.787 307.032 397.724 273.336 447.32 256.01C489.626 241.193 539.342 230.32 584.396 232.47V232.351Z" fill="#C0E5ED" />
  </g>
  <g style="mix-blend-mode:multiply">
    <path fill-rule="evenodd" clip-rule="evenodd" d="M149.386 229.962C97.1607 240.955 57.484 246.332 6.21484 243.822C6.21484 246.212 6.21478 248.721 6.33429 251.111C58.0814 253.143 98.3558 247.288 150.94 235.578C217.984 220.641 295.903 195.07 357.928 168.305C366.055 164.839 363.545 165.915 371.433 161.972C362.111 165.078 366.413 163.525 357.211 166.99C289.689 191.964 220.852 215.025 149.266 229.962H149.386Z" fill="#C0E5ED" />
  </g>
  <g style="mix-blend-mode:multiply">
    <path d="M11.8313 595.72C418.399 609.223 404.894 549.956 595.271 557.245C614.273 557.962 632.678 562.144 654.309 567.521C654.309 570.866 654.309 574.332 654.309 577.677C631.722 573.734 612.6 571.464 593.479 570.747C545.317 568.835 493.57 576.243 445.527 581.501C287.179 598.708 155.958 612.927 12.3093 605.16C12.1898 602.053 11.9508 598.947 11.8313 595.72ZM184.282 377.771C171.614 377.771 159.663 376.456 144.605 375.142C95.2482 370.96 52.9422 375.142 8.84355 379.682C8.84355 377.054 8.84355 374.425 8.84355 371.796C56.2884 368.331 95.3677 367.972 145.442 372.274C162.651 373.708 179.502 375.261 194.56 373.827C204.718 372.871 213.203 370.123 222.764 367.136C367.966 323.283 488.431 249.08 656.818 265.091C656.818 267.84 656.818 270.707 656.699 273.456C456.522 253.381 318.37 357.457 133.73 395.813C95.4872 403.7 58.3201 407.643 9.3216 409.674C9.3216 406.926 9.3216 404.058 9.3216 401.31C57.4835 399.159 93.8141 395.216 131.698 388.883C149.744 385.776 167.312 382.072 184.521 377.771H184.282ZM658.611 166.871C605.43 174.518 550.934 188.976 495.96 206.9C505.879 207.497 513.767 209.887 520.937 211.44C528.227 213.113 534.92 214.786 542.449 213.83C581.169 209.051 619.054 197.938 658.013 194.592C658.013 197.819 657.894 201.164 657.774 204.39C619.293 207.378 581.408 216.22 543.166 220.044C534.322 220.88 528.227 218.132 520.22 216.339C499.306 211.56 489.626 208.692 468.473 215.861C442.062 224.943 415.531 234.621 389 244.539C260.17 292.933 131.101 348.257 8.12653 341.087C8.12653 337.263 8.00706 333.44 7.88755 329.616C128.83 337.622 257.541 289.228 385.534 241.193C414.336 230.32 443.137 219.207 471.819 208.573C533.486 186.586 593.001 164.839 658.73 154.205C658.73 158.387 658.491 162.449 658.491 166.632L658.611 166.871ZM10.3972 532.988C46.9668 537.29 102.06 538.604 150.82 532.749C331.755 511.002 496.796 408.121 654.667 476.35C654.667 479.098 654.667 481.966 654.667 484.714C541.493 429.749 443.854 473.004 314.546 507.298C261.006 521.517 205.315 531.793 151.776 538.246C101.582 544.22 53.3008 546.849 10.5168 546.132C10.5168 541.711 10.5168 537.409 10.5168 532.988H10.3972ZM9.68011 447.194C97.1603 446.238 169.702 432.019 254.433 411.108C406.09 373.708 521.296 338.697 655.384 363.073C655.384 366.777 655.384 370.601 655.384 374.305C622.041 368.928 590.133 366.18 558.224 365.941C456.044 365.105 353.864 391.153 256.226 415.29C170.778 436.321 98.4749 454.244 9.79964 455.559C9.79964 452.81 9.79964 450.062 9.79964 447.194H9.68011ZM6.81193 262.821C86.5241 268.557 178.904 241.91 269.97 212.157C409.914 166.393 530.976 116.207 639.848 29.935C647.258 30.8909 654.428 31.8468 661.479 32.8027C613.437 70.3226 565.275 100.315 511.974 126.483C434.174 164.72 354.821 188.976 272.001 216.1C179.98 246.212 88.5557 279.55 7.051 275.009C7.051 270.946 6.93144 266.884 6.81193 262.941V262.821ZM5.49733 203.554C69.9124 193.397 142.693 180.492 211.769 153.488C287.537 123.854 359.003 77.1335 413.499 12.1309C417.323 12.1309 421.267 12.2505 425.211 12.3699C369.042 81.0767 293.752 126.363 214.876 157.192C144.366 184.794 70.8685 200.806 5.61686 211.918C5.61686 209.17 5.4974 206.422 5.37789 203.554H5.49733ZM3.82422 137.237C50.074 121.584 87.5997 105.453 117.596 86.5733C145.92 68.7692 175.319 44.1543 204.359 11.892C207.706 11.892 210.932 11.892 214.159 11.7725C179.143 47.022 151.656 70.4421 120.823 89.7994C89.1532 109.754 54.2568 125.169 4.06329 144.884L3.82422 137.237Z" fill="#C0E5ED" />
  </g>
  <path style="mix-blend-mode:screen" fill-rule="evenodd" clip-rule="evenodd" d="M445.527 581.501C362.11 590.582 286.223 598.827 212.008 603.487C299.847 600.38 378.244 593.092 467.756 584.249C541.493 576.96 584.396 570.269 654.309 584.966C654.309 582.576 654.309 580.067 654.309 577.677C631.721 573.734 612.6 571.464 593.479 570.747C545.317 568.835 493.57 576.243 445.527 581.501Z" fill="url(#paint14_radial_1429_50343)" />
  <g style="mix-blend-mode:multiply">
    <path fill-rule="evenodd" clip-rule="evenodd" d="M654.429 516.857C582.246 478.5 525.719 475.035 440.031 495.349C412.425 501.92 385.774 510.882 358.526 518.291C351.236 520.322 353.626 519.605 346.217 521.158C353.626 518.291 350.28 519.486 357.929 516.857C384.101 508.014 411.827 498.455 438.597 491.405C523.806 469.3 582.126 472.048 654.31 508.373C654.31 511.121 654.31 513.989 654.31 516.737L654.429 516.857Z" fill="#C0E5ED" />
  </g>
  <g style="mix-blend-mode:multiply">
    <path fill-rule="evenodd" clip-rule="evenodd" d="M654.31 597.752C583.322 586.281 506.836 589.387 409.676 605.399C503.251 595.601 575.912 594.645 654.31 603.846V597.752Z" fill="#C0E5ED" />
  </g>
  <path style="mix-blend-mode:screen" fill-rule="evenodd" clip-rule="evenodd" d="M408.48 279.072C459.271 258.878 502.294 243.942 560.017 234.622C546.99 236.055 533.964 237.967 519.862 240.716C484.009 247.527 447.081 261.268 412.065 275.487C401.07 279.908 390.195 284.449 379.678 288.751C350.279 300.819 314.068 317.787 282.996 327.226C317.654 317.548 345.26 304.882 378.364 291.379C388.761 287.078 398.8 283.015 408.599 279.191L408.48 279.072Z" fill="url(#paint15_radial_1429_50343)" />
  <path style="mix-blend-mode:screen" fill-rule="evenodd" clip-rule="evenodd" d="M6.57266 256.249C43.6203 257.922 89.2725 253.979 139.944 241.193C168.985 233.904 196.472 225.301 224.198 216.339C199.22 223.748 174.482 230.32 151.058 235.458C98.4746 247.168 58.2003 253.023 6.45312 250.991V256.13L6.57266 256.249Z" fill="url(#paint16_radial_1429_50343)" />
  <path style="mix-blend-mode:screen" fill-rule="evenodd" clip-rule="evenodd" d="M437.641 495.946C520.579 478.62 590.253 479.457 654.309 525.221C654.309 522.473 654.309 519.725 654.309 516.977C582.126 478.62 525.599 475.155 439.911 495.468C439.194 495.588 438.358 495.827 437.641 496.066V495.946Z" fill="url(#paint17_radial_1429_50343)" />
  <path style="mix-blend-mode:screen" fill-rule="evenodd" clip-rule="evenodd" d="M5.37754 22.7657C168.387 16.4328 368.564 13.2066 656.34 26.5895C656.579 26.5895 656.938 26.5895 657.177 26.5895C657.177 79.0456 657.655 131.382 658.252 183.838C659.328 129.47 660.762 74.983 662.435 20.615C363.783 8.06856 301.519 9.2634 0.119141 16.0743C2.03128 75.3414 3.82391 134.728 5.25801 193.995C6.81162 136.042 7.40912 81.9133 5.49698 22.7657H5.37754Z" fill="url(#paint18_radial_1429_50343)" />
  <path style="mix-blend-mode:multiply" fill-rule="evenodd" clip-rule="evenodd" d="M137.435 643.994C308.571 639.573 451.145 636.944 605.908 644.711C609.494 644.831 614.155 645.308 616.664 642.919C619.293 640.529 619.054 635.869 619.054 632.404C619.174 620.694 619.891 607.311 619.413 597.99L585.233 594.884L618.935 586.878C615.828 523.19 613.557 458.904 612.481 394.499L594.197 388.166L612.242 382.191C610.808 290.543 617.501 204.868 620.727 113.339C611.167 89.5603 601.487 72.7122 588.819 53.2353C586.548 49.6506 582.843 47.1414 578.66 47.4999C510.302 53.5939 185.239 60.4048 61.9059 54.1913C55.2135 53.8328 49.8356 59.8073 49.7161 66.4988C49.1186 93.384 51.9867 110.949 52.9428 136.52L66.2083 144.884L60.2328 152.771L61.3085 158.865L53.7794 164.122C56.6476 259.595 56.2891 354.589 52.9428 449.345L62.9816 454.602L57.9621 463.803L72.0641 470.973L51.8673 476.111C50.3137 513.989 44.4578 552.226 44.2188 589.148C64.6547 610.656 105.527 633.479 137.435 643.994Z" fill="url(#paint19_radial_1429_50343)" />
  <path fill-rule="evenodd" clip-rule="evenodd" d="M138.034 627.385C163.489 633.479 533.726 630.492 631.723 623.681C631.006 611.134 630.289 598.707 629.572 586.161L594.556 583.293L629.094 575.646C625.867 514.825 623.596 453.646 622.521 392.228L603.758 386.134L622.282 380.399C620.848 292.932 621.565 205.227 624.911 117.999C610.092 97.2075 595.153 76.4163 580.334 55.625C574.239 52.9962 139.468 58.0148 39.2001 61.719C40.8732 89.9187 42.3074 118.118 43.383 146.198L57.007 154.204L50.912 161.732L51.9875 167.468L44.339 172.486C47.2072 263.538 46.9682 354.231 43.5024 444.565L53.7802 449.584L48.6413 458.306L63.1018 465.117L42.4269 470.016C40.7538 507.536 38.4831 544.937 35.7344 582.218C69.9138 597.273 104.213 612.329 138.392 627.385H138.034Z" fill="url(#paint20_linear_1429_50343)" />
  <path style="mix-blend-mode:multiply" fill-rule="evenodd" clip-rule="evenodd" d="M137.914 627.385C103.734 612.329 69.4353 597.274 35.2559 582.218C38.4826 577.319 70.3913 551.987 74.8131 551.509C78.9959 551.031 127.277 617.945 137.914 627.266V627.385Z" fill="url(#paint21_radial_1429_50343)" />
  <path style="mix-blend-mode:multiply" fill-rule="evenodd" clip-rule="evenodd" d="M624.671 117.999C614.393 113.1 570.653 105.93 568.622 101.509C567.068 98.044 577.824 67.9325 580.094 55.625C594.913 76.4163 609.852 97.2075 624.671 117.999Z" fill="url(#paint22_radial_1429_50343)" />
  <path fill-rule="evenodd" clip-rule="evenodd" d="M68.7182 562.144C90.3492 584.488 115.446 609.103 137.914 627.385C130.385 627.385 35.2559 589.746 35.2559 582.218C45.5336 574.571 56.5283 567.76 68.7182 562.144Z" fill="url(#paint23_linear_1429_50343)" />
  <path fill-rule="evenodd" clip-rule="evenodd" d="M624.672 117.999C607.104 110.112 589.417 102.346 572.566 93.145C575.913 80.8375 578.064 68.2909 580.095 55.625C584.398 55.625 624.672 113.339 624.672 117.999Z" fill="url(#paint24_linear_1429_50343)" />
  <path style="mix-blend-mode:screen" fill-rule="evenodd" clip-rule="evenodd" d="M116.641 617.945C110.785 596.557 64.7744 570.508 49.2383 572.778C55.4527 568.954 61.9062 565.37 68.8377 562.144C90.3492 584.369 115.446 608.984 137.914 627.266C136.121 627.385 127.994 624.756 117.239 620.813C117.239 619.857 117 618.901 116.641 618.065V617.945Z" fill="url(#paint25_radial_1429_50343)" />
  <path style="mix-blend-mode:screen" fill-rule="evenodd" clip-rule="evenodd" d="M579.498 88.9627C584.637 100.912 607.224 109.276 620.848 112.741C621.326 112.861 621.923 112.98 622.401 113.1C623.836 115.609 624.672 117.401 624.672 117.999C624.314 117.76 623.835 117.64 623.238 117.401C606.148 109.754 588.939 102.226 572.566 93.145C575.913 80.8375 578.064 68.2909 580.095 55.625C580.335 55.625 580.812 55.864 581.29 56.2225C581.29 56.4615 581.171 56.7004 581.051 56.9394C578.303 65.4232 576.032 80.8374 579.498 88.9627Z" fill="url(#paint26_radial_1429_50343)" />
  <path style="mix-blend-mode:screen" opacity="0.5" fill-rule="evenodd" clip-rule="evenodd" d="M150.223 615.794C138.392 610.298 133.611 600.619 127.038 584.966C108.395 539.918 83.8957 548.043 64.2964 535.736C51.2699 527.491 47.0871 502.757 71.3473 469.539C93.6954 438.83 53.182 404.894 54.6161 340.609C55.5722 299.504 77.5618 234.382 81.2665 215.264C84.6128 197.579 88.7956 188.139 71.9449 162.927C65.4914 153.129 72.7814 148.708 56.8868 123.973C48.5212 111.068 51.1504 101.868 59.3965 95.1762C84.8518 74.3849 131.46 68.8884 177.351 74.385C305.823 89.6797 313.71 98.9998 422.702 77.8501C451.384 72.2341 461.662 73.907 480.305 71.7562C494.646 70.0833 509.585 67.6935 522.014 71.3977C547.708 79.0451 535.518 104.616 557.747 120.15C589.536 142.614 624.313 111.307 608.538 176.668C600.65 209.528 591.328 247.765 606.267 288.511C610.569 300.221 610.45 329.974 605.67 340.728C586.19 384.103 568.263 377.292 594.077 402.027C615.111 422.22 585.473 438.83 600.65 461.413C615.35 483.28 608.299 504.549 592.046 549.238C589.895 555.332 600.77 562.741 580.334 574.69C566.112 582.935 616.545 606.833 502.534 606.833C470.147 606.833 460.228 618.782 427.482 617.826C398.92 616.989 378.962 618.423 356.494 619.857C315.503 622.486 274.153 612.807 268.178 613.046C221.211 614.599 188.585 633.479 150.342 615.675L150.223 615.794Z" fill="url(#paint27_radial_1429_50343)" />
  <path style="mix-blend-mode:screen" opacity="0.5" fill-rule="evenodd" clip-rule="evenodd" d="M99.6701 530.239C84.0145 516.14 76.4855 505.386 87.2412 465.954C103.255 407.523 71.8246 392.706 68.3589 356.262C63.9371 309.541 67.6418 332.364 84.373 299.504C94.7702 279.191 67.0443 272.858 99.1921 234.621C123.213 206.183 117.357 183.001 95.4872 156.953C77.8 135.922 75.7684 107.006 94.7702 93.0255C124.408 71.1588 158.229 95.8932 181.533 97.3271C188.465 97.8051 197.428 96.1322 212.128 90.3967C228.859 83.9442 271.523 102.107 304.03 107.842C341.197 114.534 373.344 113.817 421.626 88.6043C463.693 66.6181 522.252 96.6102 534.083 118.716C537.31 124.69 559.538 119.552 563.482 153.965C565.155 168.902 602.323 178.461 580.333 218.848C576.27 226.257 573.521 268.915 580.691 281.7C588.938 296.398 588.938 329.138 580.333 341.804C555.953 377.77 590.85 407.284 572.924 433.453C554.758 459.979 570.294 481.01 570.294 501.203C570.294 543.622 555.236 517.932 563.721 559.395C571.131 595.601 541.254 600.5 509.823 593.211C488.909 588.431 458.913 606.474 426.765 608.147C388.044 610.059 379.32 590.94 346.336 596.915C296.022 605.996 277.021 576.721 242.005 599.663C215.235 617.228 189.301 612.807 177.47 600.978C162.531 585.802 179.98 604.801 156.795 572.897C134.447 542.188 107.558 537.648 99.5506 530.359L99.6701 530.239Z" fill="url(#paint28_radial_1429_50343)" />
  
  <path style="mix-blend-mode:multiply" opacity="0.5" fill-rule="evenodd" clip-rule="evenodd" d="M329.842 279.86C273.203 278.904 215.848 265.524 141.046 246.886C138.417 248.797 136.028 250.709 133.877 253.098C130.77 256.205 128.141 259.789 125.99 263.612C215.848 291.33 283.241 308.295 348.244 311.879C411.574 315.463 472.276 304.95 548.989 280.816C547.555 275.081 545.166 269.586 541.82 264.568C500.237 276.993 455.069 284.878 408.229 286.073C454.591 277.71 487.571 267.435 528.915 250.709C523.418 246.647 517.444 243.54 510.513 241.629C440.73 271.497 385.286 281.055 329.603 279.86H329.842Z" fill="url(#paint30_radial_1429_50343)" />
  <path style="mix-blend-mode:multiply" opacity="0.5" fill-rule="evenodd" clip-rule="evenodd" d="M216.087 362.297C203.659 352.261 192.666 344.137 180 337.208C163.033 327.889 144.392 320.243 120.016 310.446C121.689 323.827 125.751 335.296 137.461 346.527C147.976 356.562 162.315 362.775 177.61 362.536C190.276 362.536 202.943 362.536 215.609 362.297H216.087Z" fill="url(#paint31_radial_1429_50343)" />
  <path style="mix-blend-mode:screen" fill-rule="evenodd" clip-rule="evenodd" d="M136.03 251.187C180.481 258.355 222.781 269.586 267.709 276.037C311.443 282.489 359.718 283.922 403.452 277.232C443.123 271.019 479.448 258.116 516.729 243.54C514.817 242.824 512.905 242.107 510.755 241.629C440.972 271.497 385.528 281.055 329.845 279.86C273.206 278.904 215.85 265.524 141.049 246.886C139.137 248.08 137.464 249.514 135.791 251.187H136.03Z" fill="url(#paint32_radial_1429_50343)" />
  <path style="mix-blend-mode:screen" fill-rule="evenodd" clip-rule="evenodd" d="M550.425 287.746C472.995 311.402 411.337 318.57 348.007 314.986C284.677 311.402 218.717 297.782 132.445 271.737C129.577 270.781 126.47 270.064 123.603 269.108C124.32 267.197 125.275 265.524 126.231 263.852C124.559 266.958 123.125 270.064 121.93 273.409C124.797 274.126 127.665 274.843 130.533 275.56C157.06 282.011 183.587 288.224 210.114 294.198C283.96 310.446 334.624 319.765 411.099 316.659C438.581 315.464 462.002 312.119 488.768 306.623C510.515 302.322 529.634 297.304 550.664 290.852C550.664 289.897 550.664 288.941 550.425 287.985V287.746Z" fill="url(#paint33_radial_1429_50343)" />
  <path style="mix-blend-mode:screen" fill-rule="evenodd" clip-rule="evenodd" d="M537.756 340.553C452.2 356.084 368.078 356.562 280.372 340.314C228.035 330.517 190.275 318.092 119.059 288.94C119.059 290.374 119.059 291.808 119.059 293.241C148.453 303.277 175.697 313.552 204.614 323.11C255.279 339.836 308.572 348.916 361.865 353.217C421.132 357.996 478.01 353.217 534.41 344.137C535.605 342.942 536.561 341.747 537.756 340.553Z" fill="url(#paint34_radial_1429_50343)" />
  <path fill-rule="evenodd" clip-rule="evenodd" d="M162.076 237.806C170.202 241.39 179.044 243.541 180.478 242.824C181.673 242.346 183.107 240.195 184.54 236.133C181.673 238.045 179.761 239.001 178.327 239.24C176.176 239.717 166.617 239.24 162.076 237.806Z" fill="url(#paint35_linear_1429_50343)" />
  <path style="mix-blend-mode:screen" fill-rule="evenodd" clip-rule="evenodd" d="M400.104 264.329C411.575 255.488 419.461 249.276 430.215 244.019C434.517 241.868 439.536 239.718 445.271 237.806C443.598 237.806 441.925 237.806 440.253 237.806C435.712 239.479 431.41 241.629 427.348 244.258C420.656 248.32 414.442 252.86 408.468 257.878C405.839 260.028 403.21 262.418 400.581 264.568L400.104 264.329Z" fill="url(#paint36_radial_1429_50343)" />
  <path fill-rule="evenodd" clip-rule="evenodd" d="M534.173 356.562L527.72 350.111C517.683 357.996 505.256 362.775 491.873 362.536C402.972 361.341 314.309 361.58 224.213 362.058C221.584 362.058 218.955 362.058 216.326 362.058C203.66 362.058 190.994 362.058 178.328 362.297C162.794 362.297 148.455 356.084 138.179 346.287C134.833 343.181 131.965 339.836 129.814 336.491C137.701 348.677 149.411 358.474 160.165 363.731C167.813 367.315 176.416 369.465 185.258 369.226C291.367 366.12 396.519 366.598 499.043 369.226C512.665 369.465 524.614 364.447 534.651 356.323L534.173 356.562Z" fill="url(#paint37_linear_1429_50343)" />
  <path fill-rule="evenodd" clip-rule="evenodd" d="M527.722 350.11L534.174 356.562C535.608 355.367 536.803 354.411 537.998 353.216C554.249 337.685 556.638 323.587 557.355 303.038C557.355 297.303 556.878 291.807 555.444 286.55C550.903 270.78 539.193 256.682 526.766 249.275C527.483 249.753 528.2 250.231 528.917 250.709C531.067 252.381 533.218 254.293 535.13 256.204C537.52 258.833 539.91 261.7 541.822 264.567C544.928 269.585 547.318 274.842 548.991 280.816C549.469 282.966 549.947 285.356 550.186 287.745C550.186 288.701 550.186 289.657 550.425 290.612C550.425 292.524 550.425 294.197 550.425 296.108C549.708 314.029 548.513 327.171 537.281 340.552C536.325 341.747 535.13 342.942 533.935 344.136C533.218 344.853 532.501 345.57 531.545 346.526C530.111 347.959 528.678 349.154 527.244 350.349L527.722 350.11Z" fill="url(#paint38_linear_1429_50343)" />
  <path style="mix-blend-mode:multiply" fill-rule="evenodd" clip-rule="evenodd" d="M174.506 250.47C163.273 250.709 152.28 254.771 144.155 262.895C136.507 270.78 132.684 281.772 132.923 292.763C133.64 310.206 133.879 323.826 147.262 336.49C155.387 344.375 166.38 348.915 177.851 348.676C282.526 347.721 387.2 347.482 491.874 348.676C503.345 348.676 514.1 344.136 522.225 336.251C535.369 323.826 535.847 312.834 536.564 295.63C537.042 284.639 532.74 273.886 525.093 266.001C517.206 257.877 506.213 253.815 494.742 253.337C424.481 251.186 354.22 249.514 283.96 249.275C247.395 249.275 210.592 249.275 174.028 250.47H174.506Z" fill="url(#paint39_linear_1429_50343)" />
  <path fill-rule="evenodd" clip-rule="evenodd" d="M148.451 267.196C156.338 259.072 167.331 255.01 178.802 254.771C215.366 253.815 252.17 253.577 288.734 253.577C358.995 253.577 429.256 255.488 499.517 257.639C509.554 257.878 519.352 261.223 527 267.674C526.522 266.958 526.044 266.48 525.327 265.763C517.44 257.639 506.447 253.577 494.976 253.099C424.715 250.948 354.454 249.276 284.193 249.037C247.629 249.037 210.826 249.037 174.261 250.231C163.029 250.47 152.036 254.532 143.911 262.657C136.263 270.542 132.44 281.533 132.679 292.525C133.395 309.968 133.634 323.588 147.017 336.252C147.495 336.73 147.734 336.969 148.212 337.446C137.936 325.738 137.458 313.074 136.98 297.065C136.502 286.073 140.565 275.082 148.212 267.196H148.451Z" fill="url(#paint40_linear_1429_50343)" />
  <path style="mix-blend-mode:screen" fill-rule="evenodd" clip-rule="evenodd" d="M492.112 348.677C387.437 347.482 282.763 347.721 178.089 348.677C166.618 348.677 155.863 344.376 147.499 336.491C137.94 327.411 135.072 317.853 133.877 306.861C135.789 328.127 147.738 350.588 178.567 351.305C190.994 351.544 203.421 350.588 216.087 350.349C254.563 349.872 293.039 349.872 331.515 349.872C354.697 349.872 377.639 349.872 400.82 349.872C425.197 349.872 449.573 350.588 473.949 351.066C500.954 351.544 518.4 349.155 530.349 326.933C528.437 330.039 525.808 333.145 522.462 336.491C514.337 344.137 503.344 348.916 492.112 348.916V348.677Z" fill="url(#paint41_radial_1429_50343)" />
  <path style="mix-blend-mode:screen" fill-rule="evenodd" clip-rule="evenodd" d="M170.201 240.912C167.572 240.196 164.704 239.001 162.076 237.806C151.082 240.195 141.523 245.452 134.114 253.099C125.272 262.178 119.776 274.604 119.059 287.985C123.599 267.435 131.247 251.426 152.516 242.107C155.384 240.912 161.359 239.24 164.465 239.718C166.138 239.718 168.289 240.434 170.201 240.912ZM184.54 236.133C184.062 237.567 183.584 238.523 183.106 239.479C184.54 238.045 184.54 237.567 187.408 237.567C292.56 237.089 397.712 238.045 502.864 242.585C526.524 243.541 538.473 258.594 548.032 276.993C545.403 269.108 541.102 261.94 535.366 255.966C525.329 245.691 511.229 239.479 495.456 239.001C413.007 236.372 289.692 233.505 184.54 235.894V236.133Z" fill="url(#paint42_radial_1429_50343)" />
  <path fill-rule="evenodd" clip-rule="evenodd" d="M174.506 255.249C164.469 255.488 154.67 258.833 147.74 266.24C141.048 273.17 137.703 282.967 137.942 292.524C138.659 308.295 138.659 321.198 150.847 332.906C158.255 339.836 167.814 343.898 177.852 343.898C282.526 342.942 387.439 342.703 492.114 343.898C502.151 343.898 511.949 339.597 519.119 332.906C531.068 321.437 531.307 311.401 532.024 295.631C532.502 286.073 528.678 276.515 521.987 269.585C515.056 262.178 505.019 258.833 494.982 258.355C424.721 256.205 354.46 254.532 284.438 254.293C247.874 254.293 211.309 254.293 174.745 255.488L174.506 255.249Z" fill="url(#paint43_linear_1429_50343)" />
  <path style="mix-blend-mode:screen" fill-rule="evenodd" clip-rule="evenodd" d="M334.863 259.31C409.903 259.788 461.045 260.027 486.616 261.7C510.754 263.134 532.979 275.32 503.345 294.674C484.705 306.861 439.537 318.33 334.863 318.33C251.219 318.33 205.573 311.401 180.719 302.799C144.872 290.612 141.287 266.718 172.116 261.7C196.731 257.877 252.653 258.832 334.863 259.31Z" fill="url(#paint44_radial_1429_50343)" />
  <path style="mix-blend-mode:screen" fill-rule="evenodd" clip-rule="evenodd" d="M168.051 259.072C160.882 261.462 149.65 268.63 147.738 275.559C146.065 281.533 152.039 281.772 157.297 279.621C163.272 277.232 170.441 273.17 174.982 268.869C180.717 263.612 177.133 255.966 168.051 259.072Z" fill="url(#paint45_radial_1429_50343)" />
  <path style="mix-blend-mode:multiply" fill-rule="evenodd" clip-rule="evenodd" d="M496.176 332.19C388.634 336.252 281.331 336.73 173.788 332.19C163.512 331.712 153.475 328.127 146.066 320.959C143.677 318.57 141.526 316.18 140.092 313.791C141.765 320.481 144.632 326.933 151.085 332.667C158.493 339.597 168.053 343.659 178.09 343.659C282.764 342.703 387.678 342.464 492.352 343.659C502.389 343.659 512.188 339.358 519.357 332.667C526.049 326.216 529.155 320.242 530.589 313.552C528.916 315.941 526.765 318.57 524.137 320.959C516.728 328.127 506.691 331.951 496.415 332.19H496.176Z" fill="url(#paint46_radial_1429_50343)" />
  <path style="mix-blend-mode:screen" fill-rule="evenodd" clip-rule="evenodd" d="M508.125 334.579C513.622 332.189 519.835 326.693 520.313 321.198C520.791 316.897 516.25 316.419 512.666 318.33C508.842 320.481 504.301 324.065 501.434 327.649C498.088 331.95 501.911 337.207 508.125 334.579Z" fill="url(#paint47_radial_1429_50343)" />
  <g style="mix-blend-mode:screen">
    <path d="M162.796 269.108C162.796 269.108 162.796 270.064 162.318 270.303C161.84 270.542 161.362 270.542 161.123 270.303C161.123 270.064 161.123 269.347 161.601 269.108C162.079 268.869 162.557 268.869 162.796 269.108Z" fill="#00FFFF" />
  </g>
  <path fill-rule="evenodd" clip-rule="evenodd" d="M184.541 417.49C289.933 415.1 413.009 417.967 495.458 420.596C511.23 421.074 525.33 427.047 535.368 437.561C545.405 447.836 551.379 461.934 550.663 477.465C549.946 498.014 548.273 512.351 532.022 527.644C521.507 537.679 507.168 544.131 491.873 543.892C387.676 542.697 284.197 542.936 178.089 543.892C162.555 543.892 148.216 537.679 137.94 527.883C121.211 512.112 120.016 495.864 119.06 474.598C118.343 459.066 124.079 444.729 134.116 434.455C141.524 426.809 151.084 421.552 162.077 419.162C166.618 420.596 176.177 421.074 178.328 420.596C179.762 420.357 181.674 419.401 184.541 417.49Z" fill="url(#paint48_radial_1429_50343)" />
  <path style="mix-blend-mode:multiply" opacity="0.5" fill-rule="evenodd" clip-rule="evenodd" d="M329.842 461.217C273.203 460.261 215.848 446.88 141.046 428.242C138.417 430.154 136.028 432.065 133.877 434.455C130.77 437.561 128.141 441.145 125.99 444.968C215.848 472.686 283.241 489.651 348.244 493.235C411.574 496.82 472.276 486.306 548.989 462.172C547.555 456.438 545.166 450.942 541.82 445.924C500.237 458.349 455.069 466.235 408.229 467.429C454.591 459.066 487.571 448.792 528.915 432.065C523.418 428.003 517.444 424.897 510.513 422.985C440.73 452.854 385.286 462.411 329.603 461.217H329.842Z" fill="url(#paint49_radial_1429_50343)" />
  <path style="mix-blend-mode:multiply" opacity="0.5" fill-rule="evenodd" clip-rule="evenodd" d="M216.087 543.653C203.659 533.618 192.666 525.494 180 518.564C163.033 509.245 144.392 501.599 120.016 491.802C121.689 505.183 125.751 516.653 137.461 527.883C147.976 537.919 162.315 544.131 177.61 543.892C190.276 543.892 202.943 543.892 215.609 543.653H216.087Z" fill="url(#paint50_radial_1429_50343)" />
  <path style="mix-blend-mode:screen" fill-rule="evenodd" clip-rule="evenodd" d="M136.03 432.543C180.481 439.711 222.781 450.942 267.709 457.394C311.443 463.845 359.718 465.279 403.452 458.588C443.123 452.376 479.448 439.473 516.729 424.897C514.817 424.18 512.905 423.463 510.755 422.985C440.972 452.854 385.528 462.411 329.845 461.217C273.206 460.261 215.85 446.88 141.049 428.242C139.137 429.437 137.464 430.871 135.791 432.543H136.03Z" fill="url(#paint51_radial_1429_50343)" />
  <path style="mix-blend-mode:screen" fill-rule="evenodd" clip-rule="evenodd" d="M550.425 469.103C472.995 492.758 411.337 499.927 348.007 496.342C284.677 492.758 218.717 479.138 132.445 453.093C129.577 452.137 126.47 451.421 123.603 450.465C124.32 448.553 125.275 446.881 126.231 445.208C124.559 448.314 123.125 451.421 121.93 454.766C124.797 455.483 127.665 456.199 130.533 456.916C157.06 463.368 183.587 469.58 210.114 475.554C283.96 491.802 334.624 501.121 411.099 498.015C438.581 496.82 462.002 493.475 488.768 487.979C510.515 483.678 529.634 478.66 550.664 472.209C550.664 471.253 550.664 470.297 550.425 469.341V469.103Z" fill="url(#paint52_radial_1429_50343)" />
  <path style="mix-blend-mode:screen" fill-rule="evenodd" clip-rule="evenodd" d="M537.756 521.909C452.2 537.441 368.078 537.919 280.372 521.67C228.035 511.873 190.275 499.448 119.059 470.297C119.059 471.731 119.059 473.164 119.059 474.598C148.453 484.634 175.697 494.908 204.614 504.466C255.279 521.192 308.572 530.272 361.865 534.573C421.132 539.352 478.01 534.573 534.41 525.493C535.605 524.299 536.561 523.104 537.756 521.909Z" fill="url(#paint53_radial_1429_50343)" />
  <path fill-rule="evenodd" clip-rule="evenodd" d="M162.076 419.162C170.202 422.747 179.044 424.897 180.478 424.18C181.673 423.702 183.107 421.552 184.54 417.49C181.673 419.401 179.761 420.357 178.327 420.596C176.176 421.074 166.617 420.596 162.076 419.162Z" fill="url(#paint54_linear_1429_50343)" />
  <path style="mix-blend-mode:screen" fill-rule="evenodd" clip-rule="evenodd" d="M400.105 445.686C411.577 436.845 419.463 430.632 430.217 425.375C434.519 423.225 439.538 421.074 445.273 419.163C443.6 419.163 441.927 419.163 440.255 419.163C435.714 420.835 431.412 422.986 427.349 425.614C420.658 429.676 414.444 434.216 408.47 439.234C405.841 441.385 403.212 443.774 400.583 445.924L400.105 445.686Z" fill="url(#paint55_radial_1429_50343)" />
  <path fill-rule="evenodd" clip-rule="evenodd" d="M534.173 537.919L527.72 531.467C517.683 539.352 505.256 544.131 491.873 543.892C402.972 542.698 314.309 542.936 224.213 543.414C221.584 543.414 218.955 543.414 216.326 543.414C203.66 543.414 190.994 543.414 178.328 543.653C162.794 543.653 148.455 537.441 138.179 527.644C134.833 524.538 131.965 521.192 129.814 517.847C137.701 530.033 149.411 539.83 160.165 545.087C167.813 548.671 176.416 550.822 185.258 550.583C291.367 547.476 396.519 547.954 499.043 550.583C512.665 550.822 524.614 545.804 534.651 537.68L534.173 537.919Z" fill="url(#paint56_linear_1429_50343)" />
  <path fill-rule="evenodd" clip-rule="evenodd" d="M527.722 531.466L534.174 537.918C535.608 536.723 536.803 535.767 537.998 534.573C554.249 519.041 556.638 504.943 557.355 484.394C557.355 478.659 556.878 473.164 555.444 467.907C550.903 452.136 539.193 438.039 526.766 430.631C527.483 431.109 528.2 431.587 528.917 432.065C531.067 433.738 533.218 435.649 535.13 437.561C537.52 440.189 539.91 443.057 541.822 445.924C544.928 450.942 547.318 456.199 548.991 462.172C549.469 464.323 549.947 466.712 550.186 469.102C550.186 470.057 550.186 471.013 550.425 471.969C550.425 473.881 550.425 475.553 550.425 477.465C549.708 495.386 548.513 508.528 537.281 521.909C536.325 523.103 535.13 524.298 533.935 525.493C533.218 526.21 532.501 526.926 531.545 527.882C530.111 529.316 528.678 530.511 527.244 531.705L527.722 531.466Z" fill="url(#paint57_linear_1429_50343)" />
  <path style="mix-blend-mode:multiply" fill-rule="evenodd" clip-rule="evenodd" d="M174.506 431.826C163.273 432.065 152.28 436.127 144.155 444.251C136.507 452.136 132.684 463.128 132.923 474.119C133.64 491.562 133.879 505.182 147.262 517.847C155.387 525.732 166.38 530.272 177.851 530.033C282.526 529.077 387.2 528.838 491.874 530.033C503.345 530.033 514.1 525.493 522.225 517.608C535.369 505.182 535.847 494.191 536.564 476.987C537.042 465.995 532.74 455.243 525.093 447.358C517.206 439.233 506.213 435.171 494.742 434.693C424.481 432.543 354.22 430.87 283.96 430.631C247.395 430.631 210.592 430.631 174.028 431.826H174.506Z" fill="url(#paint58_linear_1429_50343)" />
  <path fill-rule="evenodd" clip-rule="evenodd" d="M148.451 448.553C156.338 440.429 167.331 436.367 178.802 436.128C215.366 435.172 252.17 434.933 288.734 434.933C358.995 434.933 429.256 436.845 499.517 438.995C509.554 439.234 519.352 442.579 527 449.031C526.522 448.314 526.044 447.836 525.327 447.119C517.44 438.995 506.447 434.933 494.976 434.455C424.715 432.305 354.454 430.632 284.193 430.393C247.629 430.393 210.826 430.393 174.261 431.588C163.029 431.827 152.036 435.889 143.911 444.013C136.263 451.898 132.44 462.89 132.679 473.881C133.395 491.324 133.634 504.944 147.017 517.608C147.495 518.086 147.734 518.325 148.212 518.803C137.936 507.095 137.458 494.43 136.98 478.421C136.502 467.43 140.565 456.438 148.212 448.553H148.451Z" fill="url(#paint59_linear_1429_50343)" />
  <path style="mix-blend-mode:screen" fill-rule="evenodd" clip-rule="evenodd" d="M492.112 530.033C387.437 528.839 282.763 529.077 178.089 530.033C166.618 530.033 155.863 525.732 147.499 517.847C137.94 508.767 135.072 499.209 133.877 488.218C135.789 509.484 147.738 531.945 178.567 532.662C190.994 532.901 203.421 531.945 216.087 531.706C254.563 531.228 293.039 531.228 331.515 531.228C354.697 531.228 377.639 531.228 400.82 531.228C425.197 531.228 449.573 531.945 473.949 532.423C500.954 532.901 518.4 530.511 530.349 508.289C528.437 511.396 525.808 514.502 522.462 517.847C514.337 525.493 503.344 530.272 492.112 530.272V530.033Z" fill="url(#paint60_radial_1429_50343)" />
  <path style="mix-blend-mode:screen" fill-rule="evenodd" clip-rule="evenodd" d="M170.201 422.269C167.572 421.552 164.704 420.357 162.076 419.162C151.082 421.552 141.523 426.809 134.114 434.455C125.272 443.535 119.776 455.96 119.059 469.341C123.599 448.792 131.247 432.782 152.516 423.464C155.384 422.269 161.359 420.596 164.465 421.074C166.138 421.074 168.289 421.791 170.201 422.269ZM184.54 417.49C184.062 418.924 183.584 419.879 183.106 420.835C184.54 419.401 184.54 418.923 187.408 418.923C292.56 418.446 397.712 419.401 502.864 423.941C526.524 424.897 538.473 439.951 548.032 458.35C545.403 450.464 541.102 443.296 535.366 437.322C525.329 427.048 511.229 420.835 495.456 420.357C413.007 417.729 289.692 414.861 184.54 417.251V417.49Z" fill="url(#paint61_radial_1429_50343)" />
  <path fill-rule="evenodd" clip-rule="evenodd" d="M174.506 436.606C164.469 436.845 154.67 440.19 147.74 447.597C141.048 454.527 137.703 464.323 137.942 473.881C138.659 489.652 138.659 502.555 150.847 514.263C158.255 521.192 167.814 525.255 177.852 525.255C282.526 524.299 387.439 524.06 492.114 525.255C502.151 525.255 511.949 520.954 519.119 514.263C531.068 502.794 531.307 492.758 532.024 476.988C532.502 467.43 528.678 457.872 521.987 450.942C515.056 443.535 505.019 440.19 494.982 439.712C424.721 437.562 354.46 435.889 284.438 435.65C247.874 435.65 211.309 435.65 174.745 436.845L174.506 436.606Z" fill="url(#paint62_linear_1429_50343)" />
  <path style="mix-blend-mode:screen" fill-rule="evenodd" clip-rule="evenodd" d="M334.863 440.667C409.903 441.145 461.045 441.384 486.616 443.057C510.754 444.49 532.979 456.677 503.345 476.031C484.705 488.218 439.537 499.687 334.863 499.687C251.219 499.687 205.573 492.758 180.719 484.155C144.872 471.969 141.287 448.075 172.116 443.057C196.731 439.234 252.653 440.189 334.863 440.667Z" fill="url(#paint63_radial_1429_50343)" />
  <path style="mix-blend-mode:screen" fill-rule="evenodd" clip-rule="evenodd" d="M168.051 440.429C160.882 442.818 149.65 449.987 147.738 456.916C146.065 462.89 152.039 463.129 157.297 460.978C163.272 458.589 170.441 454.527 174.982 450.226C180.717 444.969 177.133 437.323 168.051 440.429Z" fill="url(#paint64_radial_1429_50343)" />
  <path style="mix-blend-mode:multiply" fill-rule="evenodd" clip-rule="evenodd" d="M496.176 513.547C388.634 517.609 281.331 518.086 173.788 513.547C163.512 513.069 153.475 509.484 146.066 502.316C143.677 499.927 141.526 497.537 140.092 495.148C141.765 501.838 144.632 508.29 151.085 514.024C158.493 520.954 168.053 525.016 178.09 525.016C282.764 524.06 387.678 523.821 492.352 525.016C502.389 525.016 512.188 520.715 519.357 514.024C526.049 507.573 529.155 501.599 530.589 494.909C528.916 497.298 526.765 499.927 524.137 502.316C516.728 509.484 506.691 513.308 496.415 513.547H496.176Z" fill="url(#paint65_radial_1429_50343)" />
  <path style="mix-blend-mode:screen" fill-rule="evenodd" clip-rule="evenodd" d="M508.125 515.936C513.622 513.546 519.835 508.05 520.313 502.555C520.791 498.254 516.25 497.776 512.666 499.687C508.842 501.838 504.301 505.422 501.434 509.006C498.088 513.307 501.911 518.564 508.125 515.936Z" fill="url(#paint66_radial_1429_50343)" />
  <g style="mix-blend-mode:screen">
    <path d="M162.794 450.464C162.794 450.464 162.794 451.42 162.316 451.659C161.838 451.898 161.36 451.898 161.121 451.659C161.121 451.42 161.121 450.703 161.599 450.464C162.077 450.225 162.555 450.225 162.794 450.464Z" fill="#00FFFF" />
  </g>
  <path style="mix-blend-mode:multiply" fill-rule="evenodd" clip-rule="evenodd" d="M681.253 50.9171C681.253 73.8592 662.73 92.3802 639.784 92.3802C616.838 92.3802 598.314 73.8592 598.314 50.9171C598.314 27.9751 616.838 9.4541 639.784 9.4541C662.73 9.4541 681.253 27.9751 681.253 50.9171Z" fill="url(#paint67_radial_1429_50343)" />
  <path fill-rule="evenodd" clip-rule="evenodd" d="M597.238 43.0308L602.497 37.7732C606.799 37.5342 610.982 37.7732 614.926 38.4902C612.535 39.5656 599.15 44.1062 597.238 43.0308Z" fill="url(#paint68_linear_1429_50343)" />
  <path fill-rule="evenodd" clip-rule="evenodd" d="M643.011 1.32861C666.673 1.68708 684.48 23.0758 683.763 45.5399C683.046 68.0041 666.912 84.7327 644.564 85.6886C622.216 86.6445 599.868 68.0041 598.912 46.1374L603.932 40.9993C606.68 40.1629 609.548 39.3264 612.417 38.49C610.146 38.49 608.234 38.49 606.441 38.49L643.011 1.32861Z" fill="url(#paint69_linear_1429_50343)" />
  <path fill-rule="evenodd" clip-rule="evenodd" d="M638.708 0.0144254C663.088 0.611876 681.134 18.4159 680.297 41.597C679.461 64.778 662.61 82.9405 639.664 82.9405C616.719 82.9405 599.39 65.3755 597.239 43.9868C599.271 42.3139 601.541 41.7165 603.812 40.9995C606.561 40.1631 609.429 39.3267 612.297 38.4902C610.026 38.4902 608.114 38.4902 606.322 38.4902C603.214 38.4902 600.466 38.4902 597 38.8487C597.478 17.46 615.285 -0.583025 638.589 0.0144254H638.708Z" fill="url(#paint70_radial_1429_50343)" />
  <path style="mix-blend-mode:multiply" fill-rule="evenodd" clip-rule="evenodd" d="M657.711 72.3057C634.048 77.6828 607.398 65.9728 597.359 44.2256C599.63 65.6143 617.676 83.0598 639.785 83.0598C654.126 83.0598 666.077 76.0099 673.247 65.0169C668.706 68.4821 663.567 70.9914 657.711 72.3057Z" fill="url(#paint71_radial_1429_50343)" />
  <g style="mix-blend-mode:multiply">
    <path d="M603.095 19.0132C623.531 28.4529 647.791 17.4599 667.032 10.6489C667.749 11.2464 668.466 11.9633 669.063 12.5608C648.747 19.2522 621.499 29.2894 601.661 21.5225C602.139 20.6861 602.617 19.8497 603.095 19.0132ZM597.239 43.0307C621.379 35.9808 652.81 26.3021 677.429 25.2267C677.668 25.8242 677.907 26.3021 678.026 26.8996C652.452 26.4216 621.618 39.685 597.478 46.018C597.358 45.0621 597.239 44.1061 597.119 43.0307H597.239ZM599.509 53.9043C627.235 48.4078 651.018 42.6723 679.939 46.018C679.939 46.6154 679.819 47.3324 679.7 47.9298C650.061 42.4333 627.833 51.0366 600.585 56.6526C600.226 55.6967 599.868 54.8602 599.509 53.9043ZM604.648 64.1805C620.543 63.2245 644.922 60.7153 667.868 71.4694C667.151 72.1863 666.434 72.9032 665.597 73.5007C644.683 63.2245 629.386 62.9856 605.485 65.3754C605.246 65.0169 604.887 64.5389 604.648 64.1805Z" fill="#C0E5ED" />
  </g>
  <path style="mix-blend-mode:multiply" opacity="0.5" fill-rule="evenodd" clip-rule="evenodd" d="M679.7 47.9299C650.062 42.4334 627.834 51.0367 600.586 56.6527C601.662 59.2815 603.096 61.7908 604.649 64.1806C620.544 63.2246 644.923 60.7154 667.869 71.4695C673.964 65.3755 678.147 57.2501 679.581 48.0494L679.7 47.9299Z" fill="url(#paint72_radial_1429_50343)" />
  <path style="mix-blend-mode:screen" fill-rule="evenodd" clip-rule="evenodd" d="M619.349 25.4657C629.985 25.2267 640.382 22.0004 651.616 18.1768C641.458 21.2835 630.702 23.9123 620.544 24.2707C613.852 24.5097 607.518 23.7928 601.781 21.5225C602.259 20.686 602.737 19.8496 603.215 19.0132C602.498 20.2081 601.781 21.403 601.184 22.7174C607.398 24.8682 613.374 25.5851 619.349 25.4657Z" fill="url(#paint73_radial_1429_50343)" />
  <path style="mix-blend-mode:screen" fill-rule="evenodd" clip-rule="evenodd" d="M630.821 36.22C646.596 31.4404 662.132 28.0947 678.624 28.3337C678.505 27.8557 678.266 27.3777 678.146 26.8998C652.571 26.4218 621.738 39.6852 597.598 46.0182C597.598 46.4962 597.717 46.8546 597.837 47.3326C608.831 43.6284 619.826 39.6852 630.821 36.22Z" fill="url(#paint74_radial_1429_50343)" />
  <path style="mix-blend-mode:screen" fill-rule="evenodd" clip-rule="evenodd" d="M616.121 53.1875C640.023 48.4079 657.71 44.9427 679.341 50.0807C679.461 49.3638 679.58 48.7664 679.7 48.0494C655.798 43.6283 636.796 48.4079 616.002 53.307L616.121 53.1875Z" fill="url(#paint75_radial_1429_50343)" />
  <path style="mix-blend-mode:screen" fill-rule="evenodd" clip-rule="evenodd" d="M606.8 67.0485C628.551 63.1053 644.685 63.5833 664.762 74.3374C665.121 74.0984 665.36 73.8594 665.718 73.501C644.804 63.2248 629.507 62.9858 605.605 65.3756C605.964 65.9731 606.442 66.451 606.8 67.0485Z" fill="url(#paint76_radial_1429_50343)" />
  <path style="mix-blend-mode:screen" fill-rule="evenodd" clip-rule="evenodd" d="M597.359 35.7417C602.379 12.2022 622.695 0.611638 642.414 2.04552C656.158 3.00144 669.542 10.2903 677.071 24.1512C673.367 15.5479 666.555 8.73696 657.831 4.43532C652.214 1.68705 645.76 0.133677 638.709 0.0141865C616.481 -0.463774 599.391 15.7869 597.359 35.7417Z" fill="url(#paint77_radial_1429_50343)" />
  <path style="mix-blend-mode:multiply" fill-rule="evenodd" clip-rule="evenodd" d="M675.039 46.257C675.039 65.6144 659.263 81.3871 639.903 81.3871C620.543 81.3871 604.768 65.6144 604.768 46.257C604.768 26.8996 620.543 11.127 639.903 11.127C659.263 11.127 675.039 26.8996 675.039 46.257Z" fill="url(#paint78_radial_1429_50343)" />
  <path fill-rule="evenodd" clip-rule="evenodd" d="M639.785 77.4437C658.667 77.4437 676.952 60.5957 675.757 41.4772C674.561 22.3588 659.623 5.51074 639.785 5.51074C619.946 5.51074 603.454 19.7301 603.812 41.4772C604.171 63.2244 620.902 77.4437 639.785 77.4437Z" fill="url(#paint79_radial_1429_50343)" />
  <path style="mix-blend-mode:multiply" fill-rule="evenodd" clip-rule="evenodd" d="M667.988 38.2512C669.064 55.0992 652.93 70.0355 636.199 70.0355C619.587 70.0355 604.768 57.489 604.41 38.2512C604.41 36.3393 604.41 34.547 604.768 32.8741C604.171 35.6224 603.932 38.4901 603.932 41.5969C604.29 63.3441 621.021 77.5634 639.904 77.5634C658.786 77.5634 677.071 60.7153 675.876 41.5969C674.68 22.4785 659.742 5.63037 639.904 5.63037C635.84 5.63037 631.897 6.22782 628.192 7.42272C630.821 6.82527 633.45 6.4668 636.199 6.4668C653.767 6.4668 666.913 21.4031 667.988 38.2512Z" fill="url(#paint80_radial_1429_50343)" />
  <path style="mix-blend-mode:screen" fill-rule="evenodd" clip-rule="evenodd" d="M608.114 25.8241C605.485 30.9622 604.051 41.5968 606.68 48.4077C607.756 51.2755 612.417 56.6525 615.524 54.6212C623.77 49.4831 629.148 40.1629 640.979 34.1884C645.042 32.1571 650.779 30.2452 655.081 29.0503C659.981 27.7359 661.056 24.5097 658.427 19.4911C654.723 12.2022 647.194 7.54213 636.438 7.06417C624.009 6.58621 613.373 15.07 607.995 25.8241H608.114Z" fill="url(#paint81_radial_1429_50343)" />
  <path style="mix-blend-mode:screen" fill-rule="evenodd" clip-rule="evenodd" d="M630.821 9.3346C626.518 10.171 619.467 13.6362 617.794 17.4599C616.36 20.8056 619.826 21.4031 623.052 20.5667C626.757 19.6107 631.179 17.6989 634.167 15.5481C637.872 12.9193 636.318 8.25919 630.821 9.3346Z" fill="url(#paint82_radial_1429_50343)" />
  <path style="mix-blend-mode:screen" fill-rule="evenodd" clip-rule="evenodd" d="M656.277 70.7522C659.384 69.7963 663.089 67.1675 663.686 64.2997C664.164 62.0294 661.655 61.432 659.743 62.2684C657.472 63.2243 654.843 64.8972 653.05 66.5701C650.899 68.6014 652.811 71.8276 656.277 70.7522Z" fill="url(#paint83_radial_1429_50343)" />
  <path fill-rule="evenodd" clip-rule="evenodd" d="M627.355 22.3589C628.311 22.3589 629.268 22.8368 629.985 23.5538L639.784 33.7104L649.584 23.5538C650.301 22.8368 651.257 22.3589 652.213 22.3589C654.723 22.3589 658.786 25.9436 658.906 28.3334C658.906 29.5283 658.547 30.6037 657.711 31.3206L647.313 41.3578L657.711 51.2755C658.428 51.9924 658.906 52.9483 658.906 54.0237C658.906 56.533 655.201 60.4762 652.811 60.5957C651.616 60.5957 650.66 60.2372 649.823 59.4008L639.784 49.0051L629.746 59.4008C628.909 60.2372 627.953 60.5957 626.758 60.5957C624.248 60.5957 620.543 56.4135 620.663 54.0237C620.663 53.0678 621.022 51.9924 621.858 51.2755L632.255 41.3578L621.858 31.3206C621.022 30.4842 620.663 29.5283 620.663 28.3334C620.782 25.8241 624.965 22.2394 627.355 22.3589Z" fill="url(#paint84_linear_1429_50343)" />
  <path style="mix-blend-mode:screen" fill-rule="evenodd" clip-rule="evenodd" d="M651.019 23.7926C647.075 27.6163 646 28.5722 642.414 32.8739C642.056 33.2323 641.1 34.4272 641.219 34.7857C641.697 35.9806 645.88 32.6349 646.836 31.9179C649.585 29.5281 649.465 29.8866 652.095 27.2578C652.692 26.6604 653.17 26.0629 653.409 25.346C653.887 23.5536 652.334 22.5977 651.138 23.7926H651.019Z" fill="url(#paint85_radial_1429_50343)" />
  <path style="mix-blend-mode:screen" fill-rule="evenodd" clip-rule="evenodd" d="M627.236 23.3147C625.921 23.3147 624.248 24.6291 624.129 25.9435C624.009 26.8994 624.846 26.8994 625.682 26.5409C626.638 26.1824 627.594 25.4655 628.312 24.868C629.148 24.0316 628.67 23.1952 627.116 23.3147H627.236Z" fill="url(#paint86_radial_1429_50343)" />
  <path d="M184.782 154C187.022 154 188.729 153.493 189.902 152.48C191.129 151.413 191.742 149.813 191.742 147.68C191.742 145.653 191.102 144.107 189.822 143.04C188.595 141.92 186.782 141.36 184.382 141.36C183.529 141.36 182.809 141.387 182.222 141.44C181.689 141.44 181.129 141.493 180.542 141.6V154H184.782ZM180.622 179.68C180.035 179.84 179.102 180 177.822 180.16C176.595 180.32 175.369 180.4 174.142 180.4C172.915 180.4 171.822 180.293 170.862 180.08C169.955 179.92 169.182 179.6 168.542 179.12C167.902 178.64 167.422 177.973 167.102 177.12C166.782 176.267 166.622 175.147 166.622 173.76V136.08C166.622 134.96 166.915 134.107 167.502 133.52C168.142 132.88 168.995 132.373 170.062 132C171.875 131.36 173.929 130.907 176.222 130.64C178.569 130.32 180.915 130.16 183.262 130.16C190.622 130.16 196.249 131.733 200.142 134.88C204.035 138.027 205.982 142.293 205.982 147.68C205.982 150.293 205.555 152.667 204.702 154.8C203.902 156.88 202.675 158.693 201.022 160.24C199.422 161.733 197.369 162.907 194.862 163.76C192.409 164.56 189.555 164.96 186.302 164.96H180.622V179.68ZM210.965 130.32C210.965 128.293 211.632 126.587 212.965 125.2C214.352 123.813 216.165 123.12 218.405 123.12C220.645 123.12 222.432 123.813 223.765 125.2C225.152 126.587 225.845 128.293 225.845 130.32C225.845 132.347 225.152 134.053 223.765 135.44C222.432 136.827 220.645 137.52 218.405 137.52C216.165 137.52 214.352 136.827 212.965 135.44C211.632 134.053 210.965 132.347 210.965 130.32ZM225.205 179.92C224.618 180.027 223.738 180.16 222.565 180.32C221.445 180.533 220.298 180.64 219.125 180.64C217.952 180.64 216.885 180.56 215.925 180.4C215.018 180.24 214.245 179.92 213.605 179.44C212.965 178.96 212.458 178.32 212.085 177.52C211.765 176.667 211.605 175.573 211.605 174.24V141.68C212.192 141.573 213.045 141.44 214.165 141.28C215.338 141.067 216.512 140.96 217.685 140.96C218.858 140.96 219.898 141.04 220.805 141.2C221.765 141.36 222.565 141.68 223.205 142.16C223.845 142.64 224.325 143.307 224.645 144.16C225.018 144.96 225.205 146.027 225.205 147.36V179.92ZM247.703 179.92C247.116 180.027 246.236 180.16 245.063 180.32C243.943 180.533 242.796 180.64 241.623 180.64C240.45 180.64 239.383 180.56 238.423 180.4C237.516 180.24 236.743 179.92 236.103 179.44C235.463 178.96 234.956 178.32 234.583 177.52C234.263 176.667 234.103 175.573 234.103 174.24V127.84C234.69 127.733 235.543 127.6 236.663 127.44C237.836 127.227 239.01 127.12 240.183 127.12C241.356 127.12 242.396 127.2 243.303 127.36C244.263 127.52 245.063 127.84 245.703 128.32C246.343 128.8 246.823 129.467 247.143 130.32C247.516 131.12 247.703 132.187 247.703 133.52V179.92ZM255.965 130.32C255.965 128.293 256.632 126.587 257.965 125.2C259.352 123.813 261.165 123.12 263.405 123.12C265.645 123.12 267.432 123.813 268.765 125.2C270.152 126.587 270.845 128.293 270.845 130.32C270.845 132.347 270.152 134.053 268.765 135.44C267.432 136.827 265.645 137.52 263.405 137.52C261.165 137.52 259.352 136.827 257.965 135.44C256.632 134.053 255.965 132.347 255.965 130.32ZM270.205 179.92C269.618 180.027 268.738 180.16 267.565 180.32C266.445 180.533 265.298 180.64 264.125 180.64C262.952 180.64 261.885 180.56 260.925 180.4C260.018 180.24 259.245 179.92 258.605 179.44C257.965 178.96 257.458 178.32 257.085 177.52C256.765 176.667 256.605 175.573 256.605 174.24V141.68C257.192 141.573 258.045 141.44 259.165 141.28C260.338 141.067 261.512 140.96 262.685 140.96C263.858 140.96 264.898 141.04 265.805 141.2C266.765 141.36 267.565 141.68 268.205 142.16C268.845 142.64 269.325 143.307 269.645 144.16C270.018 144.96 270.205 146.027 270.205 147.36V179.92ZM317.263 179.92C316.73 180.08 315.876 180.24 314.703 180.4C313.583 180.56 312.41 180.64 311.183 180.64C310.01 180.64 308.943 180.56 307.983 180.4C307.076 180.24 306.303 179.92 305.663 179.44C305.023 178.96 304.516 178.32 304.143 177.52C303.823 176.667 303.663 175.573 303.663 174.24V156.48C303.663 154.293 303.103 152.773 301.983 151.92C300.916 151.013 299.583 150.56 297.983 150.56C296.916 150.56 295.903 150.693 294.943 150.96C293.983 151.227 293.21 151.547 292.623 151.92V179.92C292.09 180.08 291.236 180.24 290.063 180.4C288.943 180.56 287.77 180.64 286.543 180.64C285.37 180.64 284.303 180.56 283.343 180.4C282.436 180.24 281.663 179.92 281.023 179.44C280.383 178.96 279.876 178.32 279.503 177.52C279.183 176.667 279.023 175.573 279.023 174.24V127.84C279.61 127.733 280.463 127.6 281.583 127.44C282.756 127.227 283.93 127.12 285.103 127.12C286.276 127.12 287.316 127.2 288.223 127.36C289.183 127.52 289.983 127.84 290.623 128.32C291.263 128.8 291.743 129.467 292.063 130.32C292.436 131.12 292.623 132.187 292.623 133.52V141.36C293.316 141.093 294.356 140.8 295.743 140.48C297.183 140.107 298.756 139.92 300.463 139.92C305.743 139.92 309.85 141.253 312.783 143.92C315.77 146.533 317.263 150.453 317.263 155.68V179.92ZM340.316 155.68C340.316 151.52 340.956 147.84 342.236 144.64C343.569 141.44 345.356 138.773 347.596 136.64C349.889 134.453 352.556 132.8 355.596 131.68C358.689 130.56 362.022 130 365.596 130C369.169 130 372.476 130.56 375.516 131.68C378.609 132.8 381.302 134.453 383.596 136.64C385.889 138.773 387.676 141.44 388.956 144.64C390.289 147.84 390.956 151.52 390.956 155.68C390.956 160.907 389.996 165.36 388.076 169.04C386.156 172.667 383.542 175.52 380.236 177.6C381.036 177.973 381.969 178.373 383.036 178.8C384.156 179.227 385.302 179.653 386.476 180.08C387.702 180.507 388.956 180.907 390.236 181.28C391.516 181.707 392.716 182.08 393.836 182.4C393.889 182.72 393.916 182.987 393.916 183.2C393.916 183.467 393.916 183.707 393.916 183.92C393.916 186.96 393.116 189.173 391.516 190.56C389.969 191.947 387.916 192.64 385.356 192.64C382.902 192.64 380.369 191.947 377.756 190.56C375.142 189.227 372.476 187.28 369.756 184.72L366.236 181.44H365.596C361.969 181.44 358.609 180.88 355.516 179.76C352.422 178.587 349.756 176.907 347.516 174.72C345.276 172.533 343.516 169.84 342.236 166.64C340.956 163.44 340.316 159.787 340.316 155.68ZM354.716 155.68C354.716 160.533 355.702 164.16 357.676 166.56C359.649 168.96 362.289 170.16 365.596 170.16C368.956 170.16 371.622 168.96 373.596 166.56C375.569 164.16 376.556 160.533 376.556 155.68C376.556 150.88 375.569 147.28 373.596 144.88C371.676 142.48 369.036 141.28 365.676 141.28C362.369 141.28 359.702 142.48 357.676 144.88C355.702 147.227 354.716 150.827 354.716 155.68ZM398.082 141.68C398.615 141.52 399.442 141.36 400.562 141.2C401.735 141.04 402.935 140.96 404.162 140.96C405.335 140.96 406.375 141.04 407.282 141.2C408.242 141.36 409.042 141.68 409.682 142.16C410.322 142.64 410.802 143.307 411.122 144.16C411.495 144.96 411.682 146.027 411.682 147.36V164.56C411.682 166.747 412.215 168.32 413.282 169.28C414.349 170.187 415.895 170.64 417.922 170.64C419.149 170.64 420.135 170.533 420.882 170.32C421.682 170.107 422.295 169.893 422.722 169.68V141.68C423.255 141.52 424.082 141.36 425.202 141.2C426.375 141.04 427.575 140.96 428.802 140.96C429.975 140.96 431.015 141.04 431.922 141.2C432.882 141.36 433.682 141.68 434.322 142.16C434.962 142.64 435.442 143.307 435.762 144.16C436.135 144.96 436.322 146.027 436.322 147.36V171.68C436.322 174.347 435.202 176.347 432.962 177.68C431.095 178.853 428.855 179.733 426.242 180.32C423.682 180.96 420.882 181.28 417.842 181.28C414.962 181.28 412.295 180.96 409.842 180.32C407.442 179.68 405.362 178.693 403.602 177.36C401.842 176.027 400.482 174.32 399.522 172.24C398.562 170.107 398.082 167.547 398.082 164.56V141.68ZM444.324 130.32C444.324 128.293 444.991 126.587 446.324 125.2C447.711 123.813 449.524 123.12 451.764 123.12C454.004 123.12 455.791 123.813 457.124 125.2C458.511 126.587 459.204 128.293 459.204 130.32C459.204 132.347 458.511 134.053 457.124 135.44C455.791 136.827 454.004 137.52 451.764 137.52C449.524 137.52 447.711 136.827 446.324 135.44C444.991 134.053 444.324 132.347 444.324 130.32ZM458.564 179.92C457.978 180.027 457.098 180.16 455.924 180.32C454.804 180.533 453.658 180.64 452.484 180.64C451.311 180.64 450.244 180.56 449.284 180.4C448.378 180.24 447.604 179.92 446.964 179.44C446.324 178.96 445.818 178.32 445.444 177.52C445.124 176.667 444.964 175.573 444.964 174.24V141.68C445.551 141.573 446.404 141.44 447.524 141.28C448.698 141.067 449.871 140.96 451.044 140.96C452.218 140.96 453.258 141.04 454.164 141.2C455.124 141.36 455.924 141.68 456.564 142.16C457.204 142.64 457.684 143.307 458.004 144.16C458.378 144.96 458.564 146.027 458.564 147.36V179.92ZM468.583 180C467.729 179.253 467.036 178.373 466.503 177.36C466.023 176.347 465.783 175.2 465.783 173.92C465.783 172.853 466.023 171.813 466.503 170.8C467.036 169.733 467.676 168.747 468.423 167.84L482.183 151.68H467.463C467.143 151.093 466.823 150.347 466.503 149.44C466.236 148.533 466.103 147.547 466.103 146.48C466.103 144.613 466.503 143.28 467.303 142.48C468.156 141.627 469.276 141.2 470.663 141.2H495.863C496.716 141.947 497.383 142.827 497.863 143.84C498.396 144.853 498.663 146 498.663 147.28C498.663 148.347 498.396 149.413 497.863 150.48C497.383 151.493 496.769 152.453 496.023 153.36L482.583 169.52H498.263C498.583 170.107 498.876 170.853 499.143 171.76C499.463 172.667 499.623 173.653 499.623 174.72C499.623 176.587 499.196 177.947 498.343 178.8C497.543 179.6 496.449 180 495.063 180H468.583Z" fill="#633F5C" />
  <defs>
    <radialGradient id="paint0_radial_1429_50343" cx="0" cy="0" r="1" gradientUnits="userSpaceOnUse" gradientTransform="translate(344.066 345.15) scale(329.007 328.956)">
      <stop stop-color="#0C3469" />
      <stop offset="1" />
    </radialGradient>
    <radialGradient id="paint1_radial_1429_50343" cx="0" cy="0" r="1" gradientUnits="userSpaceOnUse" gradientTransform="translate(-14.5801 1.85486) scale(1826.57 1826.29)">
      <stop stop-color="#2EA4FF" />
      <stop offset="1" stop-color="#2478F0" />
    </radialGradient>
    <linearGradient id="paint2_linear_1429_50343" x1="340.122" y1="669.685" x2="340.122" y2="649.849" gradientUnits="userSpaceOnUse">
      <stop stop-color="#062D70" />
      <stop offset="1" stop-color="#034494" />
    </linearGradient>
    <linearGradient id="paint3_linear_1429_50343" x1="654.308" y1="345.15" x2="677.493" y2="345.15" gradientUnits="userSpaceOnUse">
      <stop stop-color="#0456BA" />
      <stop offset="1" stop-color="#083B94" />
    </linearGradient>
    <radialGradient id="paint4_radial_1429_50343" cx="0" cy="0" r="1" gradientUnits="userSpaceOnUse" gradientTransform="translate(75.7679 -10.8109) scale(495.243 495.167)">
      <stop stop-color="#0C3469" />
      <stop offset="1" />
    </radialGradient>
    <radialGradient id="paint5_radial_1429_50343" cx="0" cy="0" r="1" gradientUnits="userSpaceOnUse" gradientTransform="translate(56.2891 215.503) scale(527.032 526.951)">
      <stop stop-color="#0C3469" />
      <stop offset="1" />
    </radialGradient>
    <radialGradient id="paint6_radial_1429_50343" cx="0" cy="0" r="1" gradientUnits="userSpaceOnUse" gradientTransform="translate(149.266 164.839) scale(1508.44 1508.2)">
      <stop stop-color="#0C3469" />
      <stop offset="1" />
    </radialGradient>
    <radialGradient id="paint7_radial_1429_50343" cx="0" cy="0" r="1" gradientUnits="userSpaceOnUse" gradientTransform="translate(22.946 351.602) scale(831.54 831.412)">
      <stop stop-color="#0C3469" />
      <stop offset="1" />
    </radialGradient>
    <radialGradient id="paint8_radial_1429_50343" cx="0" cy="0" r="1" gradientUnits="userSpaceOnUse" gradientTransform="translate(-29.1591 428.076) scale(745.254 745.139)">
      <stop stop-color="#0C3469" />
      <stop offset="1" />
    </radialGradient>
    <radialGradient id="paint9_radial_1429_50343" cx="0" cy="0" r="1" gradientUnits="userSpaceOnUse" gradientTransform="translate(21.272 448.628) scale(1034.11 1033.95)">
      <stop stop-color="#0C3469" />
      <stop offset="1" />
    </radialGradient>
    <radialGradient id="paint10_radial_1429_50343" cx="0" cy="0" r="1" gradientUnits="userSpaceOnUse" gradientTransform="translate(8.60382 559.276) scale(877.312 877.177)">
      <stop stop-color="#0C3469" />
      <stop offset="1" />
    </radialGradient>
    <radialGradient id="paint11_radial_1429_50343" cx="0" cy="0" r="1" gradientUnits="userSpaceOnUse" gradientTransform="translate(638.772 913.564) scale(1053.94 1053.78)">
      <stop stop-color="#BAC3EB" />
      <stop offset="0.99" stop-color="white" />
    </radialGradient>
    <radialGradient id="paint12_radial_1429_50343" cx="0" cy="0" r="1" gradientUnits="userSpaceOnUse" gradientTransform="translate(426.645 -295.675) scale(1095.77 1095.6)">
      <stop stop-color="#BAC3EB" />
      <stop offset="0.99" stop-color="white" />
    </radialGradient>
    <radialGradient id="paint13_radial_1429_50343" cx="0" cy="0" r="1" gradientUnits="userSpaceOnUse" gradientTransform="translate(-53.1813 -358.646) scale(1004.11 1003.96)">
      <stop stop-color="#BAC3EB" />
      <stop offset="0.99" stop-color="white" />
    </radialGradient>
    <radialGradient id="paint14_radial_1429_50343" cx="0" cy="0" r="1" gradientUnits="userSpaceOnUse" gradientTransform="translate(656.699 586.997) scale(920.813 920.673)">
      <stop stop-color="#0C3469" />
      <stop offset="1" />
    </radialGradient>
    <radialGradient id="paint15_radial_1429_50343" cx="0" cy="0" r="1" gradientUnits="userSpaceOnUse" gradientTransform="translate(520.22 211.799) scale(681.079 680.974)">
      <stop stop-color="#0C3469" />
      <stop offset="1" />
    </radialGradient>
    <radialGradient id="paint16_radial_1429_50343" cx="0" cy="0" r="1" gradientUnits="userSpaceOnUse" gradientTransform="translate(-0.000320926 258.639) scale(496.797 496.72)">
      <stop stop-color="#0C3469" />
      <stop offset="1" />
    </radialGradient>
    <radialGradient id="paint17_radial_1429_50343" cx="0" cy="0" r="1" gradientUnits="userSpaceOnUse" gradientTransform="translate(658.373 525.102) scale(620.966 620.87)">
      <stop stop-color="#0C3469" />
      <stop offset="1" />
    </radialGradient>
    <radialGradient id="paint18_radial_1429_50343" cx="0" cy="0" r="1" gradientUnits="userSpaceOnUse" gradientTransform="translate(82.58 -45.7019) scale(1540.7 1540.47)">
      <stop stop-color="#00FFFA" />
      <stop offset="1" />
    </radialGradient>
    <radialGradient id="paint19_radial_1429_50343" cx="0" cy="0" r="1" gradientUnits="userSpaceOnUse" gradientTransform="translate(341.436 517.096) scale(544.48 544.397)">
      <stop stop-color="#706F6F" />
      <stop offset="1" stop-color="white" />
    </radialGradient>
    <linearGradient id="paint20_linear_1429_50343" x1="333.549" y1="630.731" x2="333.549" y2="54.7886" gradientUnits="userSpaceOnUse">
      <stop stop-color="#EDD6B9" />
      <stop offset="1" stop-color="#D4B492" />
    </linearGradient>
    <radialGradient id="paint21_radial_1429_50343" cx="0" cy="0" r="1" gradientUnits="userSpaceOnUse" gradientTransform="translate(73.8571 633.599) scale(93.6946 93.6803)">
      <stop stop-color="#A48A7B" />
      <stop offset="1" stop-color="white" />
    </radialGradient>
    <radialGradient id="paint22_radial_1429_50343" cx="0" cy="0" r="1" gradientUnits="userSpaceOnUse" gradientTransform="translate(616.783 82.6298) scale(53.5398 53.5316)">
      <stop stop-color="#A48A7B" />
      <stop offset="1" stop-color="white" />
    </radialGradient>
    <linearGradient id="paint23_linear_1429_50343" x1="85.2104" y1="608.147" x2="99.3087" y2="575.047" gradientUnits="userSpaceOnUse">
      <stop stop-color="#BF9F7E" />
      <stop offset="1" stop-color="#EDD6B9" />
    </linearGradient>
    <linearGradient id="paint24_linear_1429_50343" x1="607.224" y1="81.9128" x2="584.282" y2="104.858" gradientUnits="userSpaceOnUse">
      <stop stop-color="#BF9F7E" />
      <stop offset="1" stop-color="#EDD6B9" />
    </linearGradient>
    <radialGradient id="paint25_radial_1429_50343" cx="0" cy="0" r="1" gradientUnits="userSpaceOnUse" gradientTransform="translate(58.2014 675.659) scale(157.99 157.966)">
      <stop />
      <stop offset="1" stop-color="#A3805F" />
    </radialGradient>
    <radialGradient id="paint26_radial_1429_50343" cx="0" cy="0" r="1" gradientUnits="userSpaceOnUse" gradientTransform="translate(634.95 36.1481) scale(103.853 103.837)">
      <stop />
      <stop offset="1" stop-color="#A3805F" />
    </radialGradient>
    <radialGradient id="paint27_radial_1429_50343" cx="0" cy="0" r="1" gradientUnits="userSpaceOnUse" gradientTransform="translate(331.995 346.464) scale(562.885 562.798)">
      <stop stop-color="#CA9E67" />
      <stop offset="1" />
    </radialGradient>
    <radialGradient id="paint28_radial_1429_50343" cx="0" cy="0" r="1" gradientUnits="userSpaceOnUse" gradientTransform="translate(327.095 345.986) scale(462.139 462.068)">
      <stop stop-color="#CA9E67" />
      <stop offset="1" />
    </radialGradient>
    <radialGradient id="paint36_radial_1429_50343" cx="0" cy="0" r="1" gradientUnits="userSpaceOnUse" gradientTransform="translate(446.705 233.266) scale(111.366 111.349)">
      <stop stop-color="#0C3469" />
      <stop offset="1" />
    </radialGradient>
    <linearGradient id="paint68_linear_1429_50343" x1="597.238" y1="40.402" x2="614.926" y2="40.402" gradientUnits="userSpaceOnUse">
      <stop stop-color="#004BC9" />
      <stop offset="1" stop-color="#003380" />
    </linearGradient>
    <linearGradient id="paint69_linear_1429_50343" x1="619.109" y1="78.7582" x2="682.199" y2="6.81547" gradientUnits="userSpaceOnUse">
      <stop stop-color="#062D70" />
      <stop offset="1" stop-color="#3484E8" />
    </linearGradient>
    <radialGradient id="paint70_radial_1429_50343" cx="0" cy="0" r="1" gradientUnits="userSpaceOnUse" gradientTransform="translate(614.09 5.033) scale(139.586 139.564)">
      <stop stop-color="#2EA4FF" />
      <stop offset="1" stop-color="#2478F0" />
    </radialGradient>
    <radialGradient id="paint71_radial_1429_50343" cx="0" cy="0" r="1" gradientUnits="userSpaceOnUse" gradientTransform="translate(632.375 29.2893) scale(68.5977 68.5873)">
      <stop offset="0.34" stop-color="white" />
      <stop offset="1" stop-color="#BAC3EB" />
    </radialGradient>
    <radialGradient id="paint72_radial_1429_50343" cx="0" cy="0" r="1" gradientUnits="userSpaceOnUse" gradientTransform="translate(718.421 9.57359) scale(196.711 196.681)">
      <stop stop-color="#BAC3EB" />
      <stop offset="0.99" stop-color="white" />
    </radialGradient>
    <radialGradient id="paint73_radial_1429_50343" cx="0" cy="0" r="1" gradientUnits="userSpaceOnUse" gradientTransform="translate(602.737 17.5793) scale(74.8123 74.8008)">
      <stop stop-color="#0C3469" />
      <stop offset="1" />
    </radialGradient>
    <radialGradient id="paint74_radial_1429_50343" cx="0" cy="0" r="1" gradientUnits="userSpaceOnUse" gradientTransform="translate(621.38 31.3209) scale(99.7895 99.7742)">
      <stop stop-color="#0C3469" />
      <stop offset="1" />
    </radialGradient>
    <radialGradient id="paint75_radial_1429_50343" cx="0" cy="0" r="1" gradientUnits="userSpaceOnUse" gradientTransform="translate(682.09 45.0622) scale(91.185 91.1709)">
      <stop stop-color="#0C3469" />
      <stop offset="1" />
    </radialGradient>
    <radialGradient id="paint76_radial_1429_50343" cx="0" cy="0" r="1" gradientUnits="userSpaceOnUse" gradientTransform="translate(612.417 72.1866) scale(90.2288 90.215)">
      <stop stop-color="#0C3469" />
      <stop offset="1" />
    </radialGradient>
    <radialGradient id="paint77_radial_1429_50343" cx="0" cy="0" r="1" gradientUnits="userSpaceOnUse" gradientTransform="translate(610.625 -23.2864) scale(142.335 142.313)">
      <stop stop-color="#00FFFA" />
      <stop offset="1" />
    </radialGradient>
    <radialGradient id="paint78_radial_1429_50343" cx="0" cy="0" r="1" gradientUnits="userSpaceOnUse" gradientTransform="translate(639.903 46.257) scale(35.1355 35.1301)">
      <stop offset="0.85" stop-color="#6E757F" />
      <stop offset="0.88" stop-color="#727882" />
      <stop offset="0.9" stop-color="#7E848D" />
      <stop offset="0.93" stop-color="#92979E" />
      <stop offset="0.95" stop-color="#AEB2B7" />
      <stop offset="0.98" stop-color="#D2D4D7" />
      <stop offset="1" stop-color="white" />
    </radialGradient>
    <radialGradient id="paint79_radial_1429_50343" cx="0" cy="0" r="1" gradientUnits="userSpaceOnUse" gradientTransform="translate(626.878 -12.5323) scale(63.698 63.6882)">
      <stop stop-color="#FF6B6B" />
      <stop offset="0.93" stop-color="#B30000" />
    </radialGradient>
    <radialGradient id="paint80_radial_1429_50343" cx="0" cy="0" r="1" gradientUnits="userSpaceOnUse" gradientTransform="translate(636.318 -12.5321) scale(52.8226 52.8146)">
      <stop offset="0.53" stop-color="white" />
      <stop offset="0.65" stop-color="#EEC2E0" />
      <stop offset="0.92" stop-color="#C42C93" />
      <stop offset="1" stop-color="#B8007D" />
    </radialGradient>
    <radialGradient id="paint81_radial_1429_50343" cx="0" cy="0" r="1" gradientUnits="userSpaceOnUse" gradientTransform="translate(617.077 -12.5322) scale(58.9177 58.9086)">
      <stop stop-color="#D42600" />
      <stop offset="1" />
    </radialGradient>
    <radialGradient id="paint82_radial_1429_50343" cx="0" cy="0" r="1" gradientUnits="userSpaceOnUse" gradientTransform="translate(624.479 8.86755) rotate(7.11887) scale(60.113 60.1036)">
      <stop stop-color="#FFDAD9" />
      <stop offset="1" />
    </radialGradient>
    <radialGradient id="paint83_radial_1429_50343" cx="0" cy="0" r="1" gradientUnits="userSpaceOnUse" gradientTransform="translate(685.233 86.9019) rotate(6.39901) scale(72.5416 72.5306)">
      <stop stop-color="#FFDAD9" />
      <stop offset="1" />
    </radialGradient>
    <linearGradient id="paint84_linear_1429_50343" x1="639.904" y1="-18.5067" x2="639.904" y2="-18.5067" gradientUnits="userSpaceOnUse">
      <stop stop-color="white" />
      <stop offset="1" stop-color="#FFE4DB" />
    </linearGradient>
    <radialGradient id="paint85_radial_1429_50343" cx="0" cy="0" r="1" gradientUnits="userSpaceOnUse" gradientTransform="translate(648.509 22.4782) scale(36.0917 36.086)">
      <stop stop-color="white" />
      <stop offset="1" />
    </radialGradient>
    <radialGradient id="paint86_radial_1429_50343" cx="0" cy="0" r="1" gradientUnits="userSpaceOnUse" gradientTransform="translate(626.638 22.5977) scale(15.2973 15.2947)">
      <stop stop-color="white" />
      <stop offset="1" />
    </radialGradient>
  </defs>
</svg>