<svg
  width="24"
  height="26"
  viewBox="0 0 24 26"
  fill="none"
  xmlns="http://www.w3.org/2000/svg"
>
  <path
    d="M0.482095 0.398953C0.176724 0.709801 0 1.19376 0 1.82051V24.1762C0 24.803 0.176724 25.2869 0.482095 25.5978L0.557463 25.666L13.4402 13.1437V12.848L0.557463 0.325667L0.482095 0.398953Z"
    fill="#FAFBFF"
  />
  <path
    d="M17.727 17.3223L13.4375 13.1461V12.8504L17.7322 8.67415L17.8283 8.72849L22.9144 11.5425C24.3659 12.3411 24.3659 13.6553 22.9144 14.4589L17.8283 17.2679L17.727 17.3223Z"
    fill="#E6E8F0"
  />
  <path
    d="M17.8333 17.2671L13.4425 12.9974L0.484375 25.5994C0.966471 26.0922 1.75264 26.1516 2.64666 25.6588L17.8333 17.2671Z"
    fill="#D8DAE5"
  />
  <path
    d="M17.8333 8.72833L2.64666 0.336723C1.75264 -0.151028 0.966471 -0.0916408 0.484375 0.401165L13.4425 12.998L17.8333 8.72833Z"
    fill="#D8DAE5"
  />
</svg>
