<svg
  width="261"
  height="80"
  viewBox="0 0 261 80"
  fill="none"
  xmlns="http://www.w3.org/2000/svg"
>
  <path
    fill-rule="evenodd"
    clip-rule="evenodd"
    d="M260.318 6.21961C258.82 28.9661 256.637 55.4203 256.38 78.9167C173.178 76.3338 90.4041 76.5421 8.05799 79.9999L3.94922 76.0005L256.252 2.22021L260.361 6.21961H260.318Z"
    fill="#134BBC"
  />
  <path
    fill-rule="evenodd"
    clip-rule="evenodd"
    d="M0.359375 2.76177C9.68965 2.26185 24.9691 1.72027 43.5868 1.30367C46.4972 2.38684 51.7615 3.46999 53.2167 3.26169C54.5863 3.05339 56.3838 1.92857 58.053 0.970382C123.921 -0.321086 219.321 -0.696031 256.172 2.22019C255.786 25.5499 254.203 51.7542 252.234 74.9173C169.032 72.876 85.7014 73.7925 3.91173 76.0005C2.41375 56.8368 0.74457 25.9665 0.359375 2.76177Z"
    fill="url(#paint0_radial_3422_75383)"
  />
  <path
    fill-rule="evenodd"
    clip-rule="evenodd"
    d="M252.272 74.9174C169.069 72.876 85.7389 73.7926 3.94922 76.0006L8.05799 79.9999C90.4469 76.5005 173.221 76.2922 256.38 78.9168L252.272 74.9174Z"
    fill="url(#paint1_linear_3422_75383)"
  />
  <path
    fill-rule="evenodd"
    clip-rule="evenodd"
    d="M256.223 2.22021C255.838 25.5499 254.254 51.7542 252.285 74.9173L256.394 78.9167C256.651 55.4203 258.833 29.0078 260.331 6.21961L256.223 2.22021Z"
    fill="url(#paint2_linear_3422_75383)"
  />
  <g style="mix-blend-mode: multiply">
    <path
      d="M168.226 0.0546875C181.409 7.22025 194.848 14.3858 208.715 18.2602C223.694 22.4679 239.188 22.8012 255.794 17.9269C255.794 19.0518 255.708 20.1766 255.666 21.3431C238.845 25.8424 223.052 23.8427 207.944 19.635C192.322 15.2607 175.845 7.88681 160.993 0.0546875C163.433 0.0546875 165.83 0.0546875 168.226 0.0546875ZM254.253 48.2139C191.295 44.4229 126.069 6.26207 67.3053 12.5111C46.0768 14.7608 25.7042 22.6345 1.47976 36.0908C1.43696 34.7577 1.35139 33.3829 1.30859 32.0497C25.1907 19.1351 46.034 13.6359 67.1769 11.4279C127.652 5.01227 190.182 41.7566 254.467 44.9228C254.382 46.0476 254.339 47.1724 254.253 48.2556V48.2139ZM2.54975 55.9211C35.0345 38.5071 69.3168 23.2178 107.408 26.5089C156.328 30.7583 202.466 60.2537 252.969 66.3778C252.884 67.4193 252.798 68.4191 252.712 69.4606C202.081 63.4199 155.9 32.4247 107.194 28.1753C69.1029 24.8425 35.1201 41.6733 2.76376 59.2539C2.67816 58.1707 2.63535 57.0459 2.54975 55.9627V55.9211ZM196.645 73.96C166.129 59.3789 143.103 47.9223 105.654 49.0471C77.7912 49.8803 53.5667 59.4622 31.7818 75.3347C29.599 75.3764 27.3734 75.4181 25.1907 75.5014C48.5164 57.9208 75.5656 48.1723 105.482 47.2974C145.842 46.1309 170.965 58.0457 205.119 74.0849C202.295 74.0849 199.47 74.0016 196.645 74.0016V73.96ZM73.8536 74.4599C92.3001 67.8775 106.424 65.3779 119.392 65.5446C133.216 65.7529 145.628 69.0024 160.522 73.7516C158.254 73.7516 155.943 73.7516 153.674 73.7516C141.776 69.8773 131.119 67.1277 119.606 67.0027C108.393 66.836 96.1521 69.2107 80.8727 74.3766C78.5187 74.3766 76.2076 74.4599 73.8536 74.5015V74.4599ZM189.369 21.5514C168.697 15.719 149.694 8.4284 128.508 0.0963566C125.983 0.0963566 125.555 0.0963566 123.03 0.0963566C147.169 9.21995 165.273 16.6771 187.614 22.2596C199.47 25.2175 211.882 27.6338 225.834 29.5501C213.337 27.3421 200.626 24.7176 189.369 21.5097V21.5514ZM47.4036 69.5856C78.5188 52.8799 103.599 48.5056 138.181 55.9211C98.6773 51.5051 83.7403 53.7964 47.4036 69.5856Z"
      fill="#C0E5ED"
    />
  </g>
  <path
    style="mix-blend-mode: multiply"
    opacity="0.5"
    fill-rule="evenodd"
    clip-rule="evenodd"
    d="M142.844 35.3812C131.032 31.8818 119.219 29.1739 107.192 28.1323C69.1009 24.7995 35.1181 41.6303 2.76172 59.2109C3.14691 65.3766 3.53213 71.0841 3.91732 76C10.9792 75.7917 18.0839 75.625 25.1458 75.4584C30.1533 71.7089 35.2893 68.2928 40.5964 65.2516C59.0858 54.7116 79.5439 48.6292 101.586 47.421C102.87 47.3377 104.154 47.2961 105.438 47.2544C145.797 46.0879 170.921 58.0027 205.075 74.0419C220.782 74.2086 236.489 74.5002 252.24 74.9168C252.411 73.1254 252.539 71.2924 252.71 69.4593C214.576 64.9184 178.924 46.1712 142.844 35.4229V35.3812Z"
    fill="url(#paint3_radial_3422_75383)"
  />
  <path
    style="mix-blend-mode: multiply"
    opacity="0.5"
    fill-rule="evenodd"
    clip-rule="evenodd"
    d="M168.211 0.0546875C180.28 6.59535 192.521 13.136 205.104 17.177C206.302 17.552 207.501 17.9269 208.699 18.2602C223.679 22.4679 239.172 22.8012 255.779 17.9269C255.95 12.5944 256.121 7.34524 256.207 2.26269C237.803 0.804583 204.804 0.179668 168.211 0.0546875Z"
    fill="url(#paint4_radial_3422_75383)"
  />
  <path
    style="mix-blend-mode: screen"
    fill-rule="evenodd"
    clip-rule="evenodd"
    d="M255.659 21.3006C238.839 25.7999 223.046 23.8002 207.938 19.5925C206.098 19.0926 204.3 18.551 202.46 17.9261C192.83 14.8432 182.986 10.8022 173.527 6.26123C182.729 11.1355 191.717 15.2598 200.448 18.5093C219.836 25.6749 238.154 28.2162 255.617 23.7169C255.617 22.8837 255.702 22.0921 255.702 21.2589L255.659 21.3006Z"
    fill="url(#paint5_radial_3422_75383)"
  />
  <path
    style="mix-blend-mode: screen"
    fill-rule="evenodd"
    clip-rule="evenodd"
    d="M1.64011 39.0065C25.6506 24.7587 45.6807 14.2603 74.4847 12.344C94.6432 11.0108 117.284 15.8851 136.629 21.1343C146.217 23.7172 155.29 26.4668 164.15 29.2164C193.767 38.3816 220.516 47.3802 254.157 50.5047C254.2 49.7549 254.242 49.005 254.285 48.2551C225.053 46.5054 195.35 37.3401 166.033 28.6331C132.178 18.593 98.7948 9.1778 67.3372 12.5106C46.1087 14.7603 25.7362 22.6341 1.51172 36.0903C1.55452 37.0485 1.59731 38.0483 1.64011 39.0065Z"
    fill="url(#paint6_radial_3422_75383)"
  />
  <path
    style="mix-blend-mode: screen"
    fill-rule="evenodd"
    clip-rule="evenodd"
    d="M2.92533 61.6285C71.2332 24.4259 98.6676 22.0929 157.217 40.0485C140.654 34.2994 124.09 29.6334 107.228 28.1753C69.136 24.8425 35.1532 41.6732 2.79688 59.2539C2.83967 60.0454 2.88251 60.8786 2.96811 61.6702L2.92533 61.6285Z"
    fill="url(#paint7_radial_3422_75383)"
  />
  <path
    style="mix-blend-mode: screen"
    fill-rule="evenodd"
    clip-rule="evenodd"
    d="M110.34 48.9627C141.498 50.5041 159.816 57.628 192.301 73.9172C193.756 73.9172 195.168 73.9172 196.623 73.9172C167.434 59.961 145.05 48.8794 110.34 48.921V48.9627Z"
    fill="url(#paint8_radial_3422_75383)"
  />
  <path
    style="mix-blend-mode: multiply"
    fill-rule="evenodd"
    clip-rule="evenodd"
    d="M244.331 68.0438C246.171 49.4216 247.969 28.7582 248.782 9.84442C171.101 5.30346 86.0159 6.42828 8.07812 10.3443C8.59172 29.3414 10.6461 50.3798 11.9729 69.3353C88.4127 66.2524 166.736 65.4192 244.288 68.0438H244.331Z"
    fill="url(#paint9_linear_3422_75383)"
  />
  <path
    fill-rule="evenodd"
    clip-rule="evenodd"
    d="M14.4124 69.2513C13.0856 51.0041 11.1597 31.0072 10.6889 12.885L8.07812 10.3438C8.59172 29.3408 10.6461 50.3793 11.9729 69.3347C12.7861 69.3347 13.5993 69.2513 14.3696 69.2513H14.4124Z"
    fill="url(#paint10_linear_3422_75383)"
  />
  <path
    fill-rule="evenodd"
    clip-rule="evenodd"
    d="M10.6697 12.8855C80.176 9.386 155.289 8.1362 225.865 11.1357C233.526 11.469 241.145 11.8439 248.677 12.2605C248.677 11.469 248.763 10.6775 248.806 9.88592C243.584 9.5943 238.32 9.30269 233.056 9.05272C159.74 5.5116 80.818 6.71975 8.14453 10.3859L10.7553 12.9271L10.6697 12.8855Z"
    fill="url(#paint11_linear_3422_75383)"
  />
  <path
    fill-rule="evenodd"
    clip-rule="evenodd"
    d="M43.625 1.30399C48.1189 4.80345 53.4261 6.09491 53.9825 5.80329C55.3948 5.01175 56.7216 3.88692 58.134 0.970703C56.4648 1.92889 54.6672 3.05371 53.2976 3.26201C51.8425 3.47031 46.5353 2.38716 43.6678 1.30399H43.625Z"
    fill="url(#paint12_linear_3422_75383)"
  />
  <path
    style="mix-blend-mode: screen"
    fill-rule="evenodd"
    clip-rule="evenodd"
    d="M47.3104 3.67873C46.0692 3.05383 44.828 2.26229 43.5868 1.3041C24.9263 1.76236 9.68965 2.26228 0.359375 2.7622C0.530573 12.6773 0.915768 23.9673 1.42936 35.1322C1.68616 24.9254 2.02857 14.8853 2.58496 4.63692C15.81 3.76205 28.9066 3.13714 42.1316 2.88718C44.1432 2.88718 45.5984 3.22047 47.2676 3.67873H47.3104ZM61.2202 2.13729C125.89 -0.154019 227.624 2.05398 253.818 4.72024C254.331 16.0518 254.802 26.2586 254.888 37.7151C255.572 25.6337 256.043 13.5939 256.214 2.22062C219.321 -0.65394 123.964 -0.320655 58.0958 0.970812C57.6678 1.84568 57.2826 2.5539 56.8546 3.13715C57.7962 2.26228 58.2242 2.22062 61.2202 2.09564V2.13729Z"
    fill="url(#paint13_radial_3422_75383)"
  />
  <g style="mix-blend-mode: screen">
    <path
      fill-rule="evenodd"
      clip-rule="evenodd"
      d="M28.955 68.6692C23.2626 68.8775 17.6132 69.0858 11.9636 69.3358C11.4501 61.8369 10.7652 53.9631 10.166 46.0477C10.4656 54.1714 10.9792 62.3785 11.236 70.5023C15.7299 70.294 20.2667 70.0857 24.7606 69.919C73.4236 67.961 118.577 67.2944 166.855 67.7943C169.08 68.9192 172.718 70.4606 174.345 70.2939C176.271 70.1273 177.897 68.8358 178.967 67.9193C201.094 68.2109 223.264 68.7525 245.648 69.5024C246.376 57.9208 246.975 46.9226 247.146 35.5493C246.29 46.5893 245.306 57.6292 244.279 68.0443C172.419 65.628 99.9592 66.1279 28.955 68.6692Z"
      fill="url(#paint14_radial_3422_75383)"
    />
  </g>
  <defs>
    <radialGradient
      id="paint0_radial_3422_75383"
      cx="0"
      cy="0"
      r="1"
      gradientUnits="userSpaceOnUse"
      gradientTransform="translate(1.72896 1.30367) scale(452.133 440.099)"
    >
      <stop stop-color="#2EA4FF" />
      <stop offset="1" stop-color="#2478F0" />
    </radialGradient>
    <linearGradient
      id="paint1_linear_3422_75383"
      x1="130.165"
      y1="79.9999"
      x2="130.165"
      y2="73.7509"
      gradientUnits="userSpaceOnUse"
    >
      <stop stop-color="#062D70" />
      <stop offset="1" stop-color="#034494" />
    </linearGradient>
    <linearGradient
      id="paint2_linear_3422_75383"
      x1="252.285"
      y1="40.5476"
      x2="260.331"
      y2="40.5476"
      gradientUnits="userSpaceOnUse"
    >
      <stop stop-color="#0456BA" />
      <stop offset="1" stop-color="#083B94" />
    </linearGradient>
    <radialGradient
      id="paint3_radial_3422_75383"
      cx="0"
      cy="0"
      r="1"
      gradientUnits="userSpaceOnUse"
      gradientTransform="translate(136.125 244.682) scale(328.7 319.951)"
    >
      <stop stop-color="#BAC3EB" />
      <stop offset="0.99" stop-color="white" />
    </radialGradient>
    <radialGradient
      id="paint4_radial_3422_75383"
      cx="0"
      cy="0"
      r="1"
      gradientUnits="userSpaceOnUse"
      gradientTransform="translate(337.226 -123.51) scale(267.71 260.585)"
    >
      <stop stop-color="#BAC3EB" />
      <stop offset="0.99" stop-color="white" />
    </radialGradient>
    <radialGradient
      id="paint5_radial_3422_75383"
      cx="0"
      cy="0"
      r="1"
      gradientUnits="userSpaceOnUse"
      gradientTransform="translate(272.779 16.4263) scale(131.394 127.897)"
    >
      <stop stop-color="#0C3469" />
      <stop offset="1" />
    </radialGradient>
    <radialGradient
      id="paint6_radial_3422_75383"
      cx="0"
      cy="0"
      r="1"
      gradientUnits="userSpaceOnUse"
      gradientTransform="translate(256.81 47.5885) scale(279.823 272.375)"
    >
      <stop stop-color="#0C3469" />
      <stop offset="1" />
    </radialGradient>
    <radialGradient
      id="paint7_radial_3422_75383"
      cx="0"
      cy="0"
      r="1"
      gradientUnits="userSpaceOnUse"
      gradientTransform="translate(-22.4548 74.5015) scale(166.404 161.975)"
    >
      <stop stop-color="#0C3469" />
      <stop offset="1" />
    </radialGradient>
    <radialGradient
      id="paint8_radial_3422_75383"
      cx="0"
      cy="0"
      r="1"
      gradientUnits="userSpaceOnUse"
      gradientTransform="translate(215.327 85.957) scale(133.491 129.938)"
    >
      <stop stop-color="#0C3469" />
      <stop offset="1" />
    </radialGradient>
    <linearGradient
      id="paint9_linear_3422_75383"
      x1="128.43"
      y1="69.3353"
      x2="128.43"
      y2="6.88654"
      gradientUnits="userSpaceOnUse"
    >
      <stop stop-color="#CAD0EB" />
      <stop offset="0.8" stop-color="#A5ADD1" />
      <stop offset="1" stop-color="#757887" />
    </linearGradient>
    <linearGradient
      id="paint10_linear_3422_75383"
      x1="8.07813"
      y1="39.8392"
      x2="14.4124"
      y2="39.8392"
      gradientUnits="userSpaceOnUse"
    >
      <stop stop-color="#0456BA" />
      <stop offset="1" stop-color="#083B94" />
    </linearGradient>
    <linearGradient
      id="paint11_linear_3422_75383"
      x1="128.411"
      y1="12.8855"
      x2="128.411"
      y2="6.92805"
      gradientUnits="userSpaceOnUse"
    >
      <stop stop-color="#062D70" />
      <stop offset="1" stop-color="#034494" />
    </linearGradient>
    <linearGradient
      id="paint12_linear_3422_75383"
      x1="43.625"
      y1="3.42866"
      x2="58.0912"
      y2="3.42866"
      gradientUnits="userSpaceOnUse"
    >
      <stop offset="0.38" stop-color="#1055C9" />
      <stop offset="0.53" stop-color="#1882DC" />
      <stop offset="0.69" stop-color="#21AEEF" />
      <stop offset="0.82" stop-color="#26C9FA" />
      <stop offset="0.89" stop-color="#29D4FF" />
    </linearGradient>
    <radialGradient
      id="paint13_radial_3422_75383"
      cx="0"
      cy="0"
      r="1"
      gradientUnits="userSpaceOnUse"
      gradientTransform="translate(-24.9779 -107.388) scale(529.729 515.629)"
    >
      <stop stop-color="#00FFFA" />
      <stop offset="1" />
    </radialGradient>
    <radialGradient
      id="paint14_radial_3422_75383"
      cx="0"
      cy="0"
      r="1"
      gradientUnits="userSpaceOnUse"
      gradientTransform="translate(74.194 111.163) scale(363.966 354.279)"
    >
      <stop stop-color="#00FFFA" />
      <stop offset="1" />
    </radialGradient>
  </defs>
</svg>
