<svg width="247" height="327" viewBox="0 0 247 327" fill="none" xmlns="http://www.w3.org/2000/svg">
<path fill-rule="evenodd" clip-rule="evenodd" d="M237.57 0.446289L246.8 9.67359C242.024 115.175 238.667 219.579 240.733 326.176C164.89 321.272 89.1762 321.466 11.8489 326.176L4.29688 318.627L237.57 0.446289Z" fill="#12458C"/>
<path fill-rule="evenodd" clip-rule="evenodd" d="M0.8125 4.83409C79.7535 0.897972 158.63 -0.908771 237.571 0.446287C236.603 105.947 235.376 212.029 233.182 318.691C156.887 316.562 80.5926 316.756 4.29804 318.691C3.0071 214.094 2.10344 109.432 0.8125 4.83409Z" fill="url(#paint0_radial_2720_103923)"/>
<path style="mix-blend-mode:screen" fill-rule="evenodd" clip-rule="evenodd" d="M47.4793 13.9322C51.9975 10.1896 56.3222 6.2535 60.5178 2.31738C59.3559 2.31738 58.1941 2.38191 57.0968 2.44644C48.8347 10.7704 41.0891 17.5457 32.8271 23.5466C23.4678 30.3864 13.3984 36.2584 1.32812 42.3239V45.8728C17.0776 37.2263 30.697 27.9344 47.5438 13.9322H47.4793Z" fill="url(#paint1_radial_2720_103923)"/>
<path style="mix-blend-mode:screen" fill-rule="evenodd" clip-rule="evenodd" d="M159.012 0.123609C135.259 27.0312 106.277 45.8729 76.1982 59.4881C51.4122 70.7157 25.8515 78.3298 1.71094 83.9436V85.944C17.7831 82.7176 33.7908 78.846 49.4112 73.813C55.0913 74.5228 59.2869 74.0065 60.126 73.4258C61.9979 72.0062 63.2888 70.4576 64.5797 68.4573C68.7108 66.8441 72.8418 65.1664 76.9082 63.2951C109.375 48.7121 137.26 26.2569 160.948 0.059082H158.948L159.012 0.123609Z" fill="url(#paint2_radial_2720_103923)"/>
<path style="mix-blend-mode:screen" fill-rule="evenodd" clip-rule="evenodd" d="M102.543 90.9122C68.1389 103.947 33.929 118.142 2.17188 121.691V125.305C20.3096 123.627 34.7036 119.497 57.295 110.98C77.111 103.559 96.5396 95.1065 116.226 87.2342C125.392 83.5562 134.622 80.0072 143.788 76.2647C185.292 59.6168 210.53 49.2281 237.317 31.9995V28.1924C229.507 33.419 221.503 38.3876 213.241 43.098C177.353 63.4884 140.754 76.4583 102.543 90.9122Z" fill="url(#paint3_radial_2720_103923)"/>
<path style="mix-blend-mode:screen" fill-rule="evenodd" clip-rule="evenodd" d="M156.564 106.27C104.668 128.854 52.7077 154.213 2.55469 157.762V161.311C20.5633 160.86 35.3446 157.698 57.6778 149.955C100.15 135.243 147.656 111.432 190.451 92.0742C179.155 96.5911 167.86 101.366 156.564 106.27Z" fill="url(#paint4_radial_2720_103923)"/>
<path style="mix-blend-mode:screen" fill-rule="evenodd" clip-rule="evenodd" d="M38.7632 186.928C27.2092 189.703 15.7844 191.574 2.875 192.8V195.51C41.4741 191.38 67.0347 181.895 106.602 163.569C84.9143 172.603 62.6456 181.185 38.6986 186.928H38.7632Z" fill="url(#paint5_radial_2720_103923)"/>
<path style="mix-blend-mode:screen" fill-rule="evenodd" clip-rule="evenodd" d="M95.2492 197.252C62.9757 206.48 34.7687 214.545 3.14062 217.578V219.32C27.7976 216.675 45.4835 212.222 75.2397 203.769C86.5999 200.543 97.8311 197.317 109.062 194.155C127.652 188.928 146.241 184.024 165.283 180.024C189.875 174.926 212.66 172.474 235.574 173.377V170.99C235.252 170.99 234.864 170.99 234.477 170.99C192.457 170.603 150.437 181.572 109.966 193.123C104.996 194.542 100.09 195.962 95.1847 197.317L95.2492 197.252Z" fill="url(#paint6_radial_2720_103923)"/>
<path style="mix-blend-mode:screen" fill-rule="evenodd" clip-rule="evenodd" d="M47.024 262.941C32.0491 265.006 17.4615 266.361 3.64844 266.877V270.813C18.4297 270.232 31.5973 269.2 44.8294 267.264C63.2899 264.618 81.7504 260.36 104.213 253.778C130.935 245.97 156.819 235.84 183.993 228.29C202.453 223.192 218.913 221.192 234.856 222.289V220.611C199.42 217.966 164.435 233.323 122.028 246.357C97.9517 253.713 72.9074 259.134 48.8314 262.618C48.1859 262.683 47.605 262.812 46.9595 262.876L47.024 262.941Z" fill="url(#paint7_radial_2720_103923)"/>
<path style="mix-blend-mode:multiply" opacity="0.55" fill-rule="evenodd" clip-rule="evenodd" d="M48.5172 259.714C114.613 249.971 176.062 213.707 234.994 217.901C235.123 207.899 235.316 197.898 235.445 187.961C213.435 186.089 190.521 188.541 170.576 191.574C193.361 184.283 215.307 180.024 235.51 179.83C235.51 176.862 235.575 173.958 235.639 170.99C235.252 170.99 234.929 170.99 234.542 170.99C187.422 170.539 140.239 184.476 95.2493 197.317C62.9757 206.544 34.7687 214.61 3.14062 217.643C3.26972 230.806 3.39881 243.97 3.59245 257.133C17.0828 259.327 33.8005 260.682 48.5172 259.779V259.714Z" fill="url(#paint8_radial_2720_103923)"/>
<path style="mix-blend-mode:multiply" opacity="0.55" fill-rule="evenodd" clip-rule="evenodd" d="M2.49461 151.89C51.8731 149.309 103.575 126.854 155.019 104.463C182.516 92.5254 209.884 79.8782 236.929 70.3282C237.059 56.2614 237.252 42.1947 237.381 28.1924C229.571 33.419 221.567 38.3876 213.241 43.098C177.353 63.4884 140.754 76.4583 102.543 90.9122C68.1389 103.947 33.929 118.142 2.17188 121.691C2.30097 131.758 2.36552 141.824 2.49461 151.89ZM50.0012 115.368C103.833 96.0098 159.021 77.2326 211.627 50.5831C171.608 85.9437 108.287 98.849 50.0012 115.368Z" fill="url(#paint9_radial_2720_103923)"/>
<path style="mix-blend-mode:multiply" opacity="0.55" fill-rule="evenodd" clip-rule="evenodd" d="M74.7847 57.5521C103.314 44.6468 130.489 25.6115 153.209 0.187988C136.879 0.317041 120.549 0.639674 104.154 1.02683C82.5949 21.6753 63.6181 30.1283 35.6692 38.6458C55.356 26.4503 68.9109 15.8679 81.6267 1.6721C73.4292 1.93021 65.2317 2.18831 57.0343 2.51095C48.7722 10.8349 41.0266 17.6102 32.7646 23.6111C23.4053 30.451 13.3359 36.3229 1.26562 42.3884C1.39472 54.9711 1.52381 67.4892 1.71745 80.0719C25.4062 75.1679 50.5796 68.5862 74.7847 57.6166V57.5521Z" fill="url(#paint10_radial_2720_103923)"/>
<g style="mix-blend-mode:multiply">
<path fill-rule="evenodd" clip-rule="evenodd" d="M236.411 110.013C230.085 110.464 223.824 111.174 216.982 112.271C195.23 115.885 172.509 125.757 152.112 134.21C137.589 140.276 119.387 149.18 104.477 153.052C130.941 142.792 160.568 126.467 183.547 118.466C199.942 112.787 218.596 108.722 236.411 108.851V109.948V110.013Z" fill="#C0E5ED"/>
</g>
<g style="mix-blend-mode:multiply">
<path fill-rule="evenodd" clip-rule="evenodd" d="M46.0622 98.3328C29.8609 102.269 16.306 104.85 1.97656 105.753V109.367C16.6287 108.334 30.3773 105.495 46.7722 101.301C77.6902 93.2997 113.643 79.6201 142.237 65.4242C145.981 63.553 144.819 64.1337 148.434 62.0688C144.109 63.682 146.11 62.9077 141.915 64.7144C110.803 78.0714 78.9812 90.3315 45.9976 98.3328H46.0622Z" fill="#C0E5ED"/>
</g>
<path style="mix-blend-mode:screen" fill-rule="evenodd" clip-rule="evenodd" d="M182.641 286.041C144.171 290.88 109.122 295.268 74.9766 297.72C115.512 296.107 151.658 292.171 192.904 287.46C208.783 285.653 221.498 283.911 233.891 283.331V280.362C216.851 281.201 199.23 283.911 182.641 285.976V286.041Z" fill="url(#paint11_radial_2720_103923)"/>
<g style="mix-blend-mode:multiply">
<path fill-rule="evenodd" clip-rule="evenodd" d="M234.738 234.42C218.279 232.161 201.045 234.29 180.067 240.098C167.351 243.582 155.087 248.357 142.5 252.358C139.144 253.39 140.241 253.068 136.82 253.907C140.241 252.358 138.692 253.003 142.242 251.648C154.313 246.938 167.093 241.776 179.486 238.098C200.528 231.774 218.02 229.257 234.803 231.258V234.484L234.738 234.42Z" fill="#C0E5ED"/>
</g>
<g style="mix-blend-mode:multiply">
<path fill-rule="evenodd" clip-rule="evenodd" d="M38.3119 274.813C26.9516 276.427 15.5268 277.717 3.84375 278.427V281.266C14.6231 280.427 25.2734 279.137 35.9236 277.524C54.0613 274.749 72.07 270.877 89.9495 266.425C93.1768 265.586 91.8859 265.973 95.1133 265.005C91.4341 265.457 88.1422 266.038 84.5275 266.748C68.5844 269.845 53.4159 272.62 38.3119 274.813Z" fill="#C0E5ED"/>
</g>
<path style="mix-blend-mode:screen" fill-rule="evenodd" clip-rule="evenodd" d="M165.53 129.886C189.025 120.401 208.97 113.561 235.628 110.077C229.625 110.528 223.622 111.238 217.038 112.271C200.45 114.981 183.409 121.369 167.144 128.015C162.044 130.08 157.01 132.209 152.169 134.21C138.549 139.888 121.767 148.018 107.438 152.277C123.51 148.018 136.225 141.953 151.523 135.629C156.364 133.629 161.012 131.693 165.53 129.886Z" fill="url(#paint12_radial_2720_103923)"/>
<path style="mix-blend-mode:screen" fill-rule="evenodd" clip-rule="evenodd" d="M2.03906 111.948C14.1739 110.916 27.4706 108.528 41.6709 104.334C55.0322 100.398 67.7479 95.881 80.5283 91.0415C69.0389 94.9776 57.6141 98.4621 46.8347 101.301C30.4398 105.56 16.6267 108.335 2.03906 109.367V111.884V111.948Z" fill="url(#paint13_radial_2720_103923)"/>
<path style="mix-blend-mode:screen" fill-rule="evenodd" clip-rule="evenodd" d="M179.023 240.356C199.098 235.452 217.493 233.323 234.728 235.904V234.42C218.268 232.162 201.099 234.291 180.056 240.098C179.733 240.163 179.346 240.292 179.023 240.356Z" fill="url(#paint14_radial_2720_103923)"/>
<g style="mix-blend-mode:multiply">
<path d="M4.03125 294.301V299.592C62.2527 301.141 117.44 294.236 182.633 286.041C199.221 283.977 216.843 281.202 233.948 280.428C233.948 277.911 234.012 275.33 234.077 272.813C166.754 273.523 157.266 298.043 4.03125 294.301Z" fill="#C0E5ED"/>
<path d="M57.0285 2.44727C55.8021 2.44727 54.5757 2.51179 53.3493 2.57632C45.9264 10.1259 38.5035 16.5141 31.2742 21.8052C22.6249 28.0643 12.6847 33.8072 1.19531 39.2274V42.3247C13.3302 36.1947 23.3349 30.3873 32.7588 23.5475C41.0208 17.5465 48.7665 10.7712 57.0285 2.44727Z" fill="#C0E5ED"/>
<path d="M159.012 0.124023C157.076 0.124023 155.139 0.124023 153.203 0.124023C130.482 25.5475 103.308 44.5828 74.7782 57.4882C50.573 68.4577 25.3997 75.0394 1.71094 79.9434V83.9441C25.8515 78.3302 51.4122 70.6516 76.1982 59.4885C106.277 45.8734 135.259 26.9671 159.012 0.124023Z" fill="#C0E5ED"/>
<path d="M46.6368 259.973C32.501 261.973 17.2033 262.425 3.64844 261.909V266.942C17.4615 266.361 32.1137 265.07 47.024 263.006C71.681 259.586 97.3707 254.101 122.092 246.487C164.5 233.517 199.484 218.095 234.92 220.741V217.966C175.537 213.707 113.443 250.745 46.6368 260.037V259.973Z" fill="#C0E5ED"/>
<path d="M3.13281 213.385V217.579C34.8254 214.546 63.0325 206.48 95.306 197.253C140.295 184.412 187.479 170.474 234.598 170.926C234.986 170.926 235.309 170.926 235.696 170.926V165.054C190.9 165.441 147.525 179.895 94.4669 195.059C62.5161 204.157 34.3736 210.933 3.13281 213.385Z" fill="#C0E5ED"/>
<path d="M101.561 88.848C67.6735 101.689 33.3991 113.433 2.09375 115.885V121.757C33.9154 118.143 68.1254 104.012 102.529 90.9774C140.741 76.5234 177.339 63.5536 213.227 43.1632C221.489 38.4527 229.493 33.5487 237.368 28.2575C237.368 25.4829 237.368 22.7082 237.432 19.9336C196.445 49.5513 151.649 69.9417 101.625 88.848H101.561Z" fill="#C0E5ED"/>
<path d="M2.86719 188.284V192.8C15.7766 191.51 27.2014 189.703 38.7553 186.928C109.822 169.829 165.978 128.338 236.334 121.305V117.24C165.848 125.241 110.919 168.99 37.7226 183.25C26.3623 185.444 15.3248 187.122 2.86719 188.348V188.284Z" fill="#C0E5ED"/>
<path d="M194.772 87.0411C181.54 92.7195 168.308 98.6559 154.947 104.463C103.503 126.854 51.8004 149.309 2.42188 151.89V157.698C52.6395 154.149 104.6 128.79 156.496 106.206C169.534 100.527 182.573 95.0424 195.547 89.9448C203.68 86.8476 211.877 89.7513 217.041 91.1063C220.72 92.0742 223.56 93.5583 227.626 93.0421C230.596 92.7195 233.629 92.2678 236.599 91.8161V88.0736C233.5 88.7188 230.402 89.235 227.239 89.6867C223.754 90.2029 220.655 89.2996 217.299 88.3962C214.007 87.5573 210.328 86.3313 205.745 85.9442C216.137 82.0726 226.465 78.4591 236.792 75.2328V70.1997C222.915 75.1037 208.843 80.8466 194.772 86.9121V87.0411Z" fill="#C0E5ED"/>
</g>
<path fill-rule="evenodd" clip-rule="evenodd" d="M240.733 326.176L233.181 318.627C156.886 316.497 80.5915 316.691 4.29688 318.627L11.8489 326.176C89.1762 321.466 164.825 321.272 240.733 326.176Z" fill="url(#paint15_linear_2720_103923)"/>
<path fill-rule="evenodd" clip-rule="evenodd" d="M233.18 318.691L240.732 326.241C238.666 219.578 242.023 115.174 246.799 9.73804L237.569 0.510742C237.569 6.9634 237.44 13.4806 237.375 19.9332C237.375 22.7079 237.375 25.4825 237.311 28.2572C237.311 29.5477 237.311 30.8382 237.311 32.0642C237.182 44.8405 237.053 57.6168 236.923 70.393C236.923 72.0707 236.923 73.7484 236.923 75.4261C236.923 79.6849 236.859 83.9436 236.794 88.2024C236.794 89.4284 236.794 90.6544 236.794 91.9449C236.794 97.6232 236.665 103.302 236.601 108.98C236.601 109.367 236.601 109.69 236.601 110.077C236.601 112.464 236.601 114.852 236.536 117.239C236.536 118.594 236.536 119.949 236.536 121.304C236.342 135.887 236.149 150.535 235.955 165.118V170.99C235.891 171.764 235.826 172.603 235.826 173.377C235.826 175.507 235.826 177.636 235.762 179.83C235.762 182.54 235.697 185.25 235.632 187.96C235.503 197.962 235.374 207.964 235.181 217.901V220.675C235.181 221.256 235.181 221.772 235.116 222.353C235.116 225.257 235.052 228.225 234.987 231.129C234.987 232.226 234.987 233.258 234.987 234.355C234.987 234.871 234.987 235.323 234.987 235.839C234.793 248.164 234.6 260.488 234.342 272.813C234.342 275.329 234.277 277.911 234.212 280.427C234.212 281.395 234.212 282.427 234.212 283.395C234.019 295.139 233.761 306.947 233.502 318.691H233.18Z" fill="url(#paint16_linear_2720_103923)"/>
<path style="mix-blend-mode:screen" fill-rule="evenodd" clip-rule="evenodd" d="M2.61777 6.70536C80.526 1.9304 157.724 1.99492 235.826 2.57566C236.084 19.0945 236.601 35.5487 237.117 52.003C237.311 34.7744 237.44 17.6104 237.634 0.446287C158.692 -0.908771 79.816 0.897972 0.875 4.83409C1.00409 17.2877 1.19774 29.8059 1.32683 42.2595C1.90775 30.3221 2.42413 18.4492 2.68232 6.70536H2.61777Z" fill="url(#paint17_radial_2720_103923)"/>
<path style="mix-blend-mode:multiply" fill-rule="evenodd" clip-rule="evenodd" d="M173.154 14.9646C161.729 11.093 78.3992 11.9318 31.9254 15.2872C28.698 15.5453 26.2452 18.2555 26.3098 21.4818C26.3743 24.7726 26.4389 27.6763 26.5034 31.9351L43.1566 33.9354L26.6325 37.3553C27.2134 68.9088 27.3425 100.656 26.9552 132.467L35.7336 135.887L26.8262 138.598C26.1807 183.96 24.4379 229.386 21.4688 274.555C23.9861 286.234 27.8589 295.139 34.3782 303.915C35.6691 305.657 37.6701 306.56 39.8647 306.302C60.0679 304.108 161.278 305.141 208.074 309.141C208.978 309.206 209.752 308.948 210.398 308.302C211.043 307.722 211.366 306.947 211.366 306.044C211.043 292.558 210.85 279.072 210.785 265.586L204.46 261.263L207.493 257.456L207.041 254.423L210.785 251.971C210.785 204.737 212.399 157.762 215.433 111.045L210.656 108.335L213.238 103.882L206.461 100.14L216.401 97.8813C217.821 78.4588 219.37 60.9075 221.306 41.6141C211.689 34.5162 179.157 16.9649 173.219 14.9646H173.154Z" fill="url(#paint18_radial_2720_103923)"/>
<path fill-rule="evenodd" clip-rule="evenodd" d="M177.475 20.4489C164.953 17.029 72.651 15.7385 23.918 17.6743C24.1117 23.8688 24.3053 30.1279 24.4344 36.387L41.7976 38.3873L24.5635 41.6781C25.2735 71.9411 25.4672 102.333 25.1444 132.854L34.3746 136.145L25.0799 138.726C24.4989 182.153 22.8207 225.708 19.8516 269.005C26.8872 279.523 33.9874 290.105 41.023 300.623C44.0567 302.043 168.31 303.269 218.205 302.882C217.753 288.879 217.495 274.813 217.365 260.875L210.717 256.681L213.88 253.067L213.428 250.164L217.301 247.776C217.236 202.543 218.721 157.503 221.819 112.722L216.785 110.076L219.431 105.818L212.331 102.204L222.658 100.075C224.078 81.491 225.757 62.9719 227.693 44.4528C210.911 36.4515 194.129 28.4502 177.411 20.4489H177.475Z" fill="url(#paint19_linear_2720_103923)"/>
<path style="mix-blend-mode:multiply" fill-rule="evenodd" clip-rule="evenodd" d="M19.7891 268.876C24.8237 271.457 48.9643 280.62 49.868 282.878C50.578 284.62 41.7996 297.139 40.9605 300.494C33.9249 289.976 26.8247 279.394 19.7891 268.876Z" fill="url(#paint20_radial_2720_103923)"/>
<path fill-rule="evenodd" clip-rule="evenodd" d="M19.7897 268.876C28.3745 273.07 37.0238 277.135 45.2858 281.975C43.4785 288.04 42.1875 294.235 40.9611 300.494C38.8311 300.429 19.6606 271.134 19.7897 268.876Z" fill="url(#paint21_linear_2720_103923)"/>
<path style="mix-blend-mode:screen" opacity="0.5" fill-rule="evenodd" clip-rule="evenodd" d="M189.744 50.5821C194.778 55.7442 199.038 61.5516 198.909 66.7137C198.457 82.3292 217.176 73.6181 210.915 95.4926C207.3 108.14 216.079 110.205 214.981 120.077C214.142 127.111 208.204 128.917 207.042 140.984C205.816 153.373 206.203 170.731 210.076 176.538C218.854 189.766 205.687 211.64 208.72 224.481C210.85 233.709 212.4 245.969 212.529 254.615L210.786 256.615L212.464 257.648C212.4 260.358 212.077 262.552 211.561 263.842C207.365 274.683 204.589 266.94 199.619 281.265C196.392 290.556 185.548 292.041 174.446 290.427C156.566 287.782 144.496 276.167 129.328 276.102C115.902 276.102 110.093 287.588 96.0859 289.137C87.8884 290.04 79.4973 287.653 70.9771 290.234C51.5484 296.106 61.4241 270.36 37.9935 265.843C21.0822 262.616 35.1535 227.127 35.4116 217.383C36.1862 190.927 28.3115 190.54 30.4415 158.083C30.8288 151.695 35.218 148.275 30.9579 136.919L34.3143 135.951L30.0542 134.402C25.0196 117.044 43.1573 96.0088 35.218 66.4556C32.5716 56.583 31.1515 47.4203 32.1843 40.0642L41.8663 38.2575L32.7652 37.2251C35.1535 27.6751 42.5118 21.9323 58.0677 23.0938C88.3402 25.3522 97.1186 28.3849 126.165 34.3214C136.428 36.4508 148.433 38.4511 157.857 39.3544C175.608 41.0321 181.159 41.6774 189.808 50.5176L189.744 50.5821Z" fill="url(#paint22_radial_2720_103923)"/>
<path style="mix-blend-mode:screen" opacity="0.5" fill-rule="evenodd" clip-rule="evenodd" d="M159.021 50.4536C179.096 50.7762 194.135 63.4234 195.168 84.5236C195.878 99.3647 211.369 105.172 191.811 131.951C181.548 146.017 205.689 171.893 198.008 188.67C191.811 202.22 203.882 211.576 199.944 223.127C195.491 236.161 211.111 248.744 197.621 263.714C185.292 277.394 180.645 284.556 158.699 277.587C154.245 276.168 138.108 270.296 121.907 274.49C119.196 275.2 114.032 276.168 109.191 277.458C72.0766 287.073 91.3116 270.231 63.7501 268.424C56.6499 267.973 56.9726 261.326 51.1634 260.681C32.7675 258.616 36.3821 236.355 43.7405 221.062C48.6461 210.867 47.6133 197.51 42.1914 186.476C27.7974 157.181 41.4813 139.758 53.8744 124.337C61.6846 114.593 53.4225 87.2337 50.5825 78.7162C43.9341 58.7775 53.1643 56.4546 60.3936 41.1618C65.041 31.4182 87.3097 32.7733 95.5072 39.355C111.773 52.3249 152.825 50.3891 158.957 50.4536H159.021Z" fill="url(#paint23_radial_2720_103923)"/>
<path style="mix-blend-mode:screen" fill-rule="evenodd" clip-rule="evenodd" d="M41.7996 283.975C39.4114 277.974 28.3738 273.457 21.5964 271.586C21.3382 271.522 21.08 271.457 20.8218 271.393C20.1763 270.102 19.7891 269.263 19.7891 268.876C19.9827 269.005 20.2409 269.07 20.4991 269.199C28.8902 273.264 37.2813 277.264 45.2851 281.975C43.4778 288.04 42.1869 294.235 40.9605 300.494C40.8314 300.494 40.6378 300.365 40.3796 300.171C40.3796 300.042 40.4441 299.913 40.5087 299.849C42.0578 295.655 43.3487 288.04 41.7351 283.975H41.7996Z" fill="url(#paint24_radial_2720_103923)"/>
<path style="mix-blend-mode:multiply" opacity="0.4" fill-rule="evenodd" clip-rule="evenodd" d="M188.902 301.075C209.88 300.881 215.947 289.266 217.561 275.78C217.69 284.749 217.948 293.783 218.207 302.752C180.253 303.01 99.3755 302.365 61.4219 301.397C91.2426 300.107 101.441 296.751 127.195 292.106C144.752 288.944 147.915 291.525 164.633 296.945C171.539 299.203 178.833 301.075 188.967 301.01L188.902 301.075Z" fill="url(#paint25_radial_2720_103923)"/>
<path style="mix-blend-mode:multiply" opacity="0.35" fill-rule="evenodd" clip-rule="evenodd" d="M173.988 19.7388C167.339 20.1905 158.626 22.3844 151.074 23.933C141.133 25.9333 134.227 25.2881 126.868 23.804C107.504 19.9969 91.8195 18.1901 73.6172 16.706C114.798 16.577 159.465 17.6739 174.052 19.7388H173.988Z" fill="url(#paint26_radial_2720_103923)"/>
<path style="mix-blend-mode:multiply" fill-rule="evenodd" clip-rule="evenodd" d="M177.484 20.4487C194.267 28.45 211.049 36.3868 227.767 44.3881C226.54 47.808 215.051 59.8745 212.856 60.0035C210.726 60.1326 182.584 25.2237 177.484 20.4487Z" fill="url(#paint27_radial_2720_103923)"/>
<path fill-rule="evenodd" clip-rule="evenodd" d="M210.849 53.809C200.457 42.3878 188.323 29.8052 177.414 20.3843C181.158 20.5133 227.825 40.6456 227.761 44.3236C222.532 47.9371 216.981 51.1635 210.849 53.809Z" fill="url(#paint28_linear_2720_103923)"/>
<path style="mix-blend-mode:screen" fill-rule="evenodd" clip-rule="evenodd" d="M187.937 25.4173C190.519 36.1287 212.981 49.7438 220.791 48.8404C217.629 50.6472 214.337 52.3249 210.916 53.809C200.588 42.4523 188.453 29.8696 177.609 20.4487C178.513 20.4487 182.515 21.8038 187.808 23.9977C187.808 24.4494 187.937 24.9011 188.001 25.4173H187.937Z" fill="url(#paint29_radial_2720_103923)"/>
<path d="M56.5621 56.9352C57.3461 56.9352 57.9434 56.7578 58.3541 56.4032C58.7834 56.0298 58.9981 55.4698 58.9981 54.7232C58.9981 54.0138 58.7741 53.4725 58.3261 53.0992C57.8968 52.7072 57.2621 52.5112 56.4221 52.5112C56.1234 52.5112 55.8714 52.5205 55.6661 52.5392C55.4794 52.5392 55.2834 52.5578 55.0781 52.5952V56.9352H56.5621ZM55.1061 65.9232C54.9008 65.9792 54.5741 66.0352 54.1261 66.0912C53.6968 66.1472 53.2674 66.1752 52.8381 66.1752C52.4088 66.1752 52.0261 66.1378 51.6901 66.0632C51.3728 66.0072 51.1021 65.8952 50.8781 65.7272C50.6541 65.5592 50.4861 65.3258 50.3741 65.0272C50.2621 64.7285 50.2061 64.3365 50.2061 63.8512V50.6632C50.2061 50.2712 50.3088 49.9725 50.5141 49.7672C50.7381 49.5432 51.0368 49.3658 51.4101 49.2352C52.0448 49.0112 52.7634 48.8525 53.5661 48.7592C54.3874 48.6472 55.2088 48.5912 56.0301 48.5912C58.6061 48.5912 60.5754 49.1418 61.9381 50.2432C63.3008 51.3445 63.9821 52.8378 63.9821 54.7232C63.9821 55.6378 63.8328 56.4685 63.5341 57.2152C63.2541 57.9432 62.8248 58.5778 62.2461 59.1192C61.6861 59.6418 60.9674 60.0525 60.0901 60.3512C59.2314 60.6312 58.2328 60.7712 57.0941 60.7712H55.1061V65.9232ZM65.6356 57.5232C65.6356 56.0672 65.8596 54.7792 66.3076 53.6592C66.7743 52.5392 67.3996 51.6058 68.1836 50.8592C68.9863 50.0938 69.9196 49.5152 70.9836 49.1232C72.0663 48.7312 73.233 48.5352 74.4836 48.5352C75.7343 48.5352 76.8916 48.7312 77.9556 49.1232C79.0383 49.5152 79.981 50.0938 80.7836 50.8592C81.5863 51.6058 82.2116 52.5392 82.6596 53.6592C83.1263 54.7792 83.3596 56.0672 83.3596 57.5232C83.3596 58.9792 83.1356 60.2765 82.6876 61.4152C82.2396 62.5352 81.6143 63.4778 80.8116 64.2432C80.0276 64.9898 79.0943 65.5592 78.0116 65.9512C76.929 66.3432 75.753 66.5392 74.4836 66.5392C73.2143 66.5392 72.0383 66.3432 70.9556 65.9512C69.873 65.5405 68.9396 64.9525 68.1556 64.1872C67.3716 63.4218 66.7556 62.4792 66.3076 61.3592C65.8596 60.2392 65.6356 58.9605 65.6356 57.5232ZM70.6756 57.5232C70.6756 59.2218 71.021 60.4912 71.7116 61.3312C72.4023 62.1712 73.3263 62.5912 74.4836 62.5912C75.6596 62.5912 76.593 62.1712 77.2836 61.3312C77.9743 60.4912 78.3196 59.2218 78.3196 57.5232C78.3196 55.8432 77.9743 54.5832 77.2836 53.7432C76.6116 52.9032 75.6876 52.4832 74.5116 52.4832C73.3543 52.4832 72.421 52.9032 71.7116 53.7432C71.021 54.5645 70.6756 55.8245 70.6756 57.5232ZM91.0631 65.9232C90.8578 65.9792 90.5311 66.0352 90.0831 66.0912C89.6538 66.1472 89.2245 66.1752 88.7951 66.1752C88.3658 66.1752 87.9831 66.1378 87.6471 66.0632C87.3298 66.0072 87.0591 65.8952 86.8351 65.7272C86.6111 65.5592 86.4431 65.3258 86.3311 65.0272C86.2191 64.7285 86.1631 64.3365 86.1631 63.8512V49.0672C86.3685 49.0298 86.6951 48.9832 87.1431 48.9272C87.5911 48.8525 88.0205 48.8152 88.4311 48.8152C88.8605 48.8152 89.2338 48.8525 89.5511 48.9272C89.8871 48.9832 90.1671 49.0952 90.3911 49.2632C90.6151 49.4312 90.7831 49.6645 90.8951 49.9632C91.0071 50.2618 91.0631 50.6538 91.0631 51.1392V65.9232ZM110.066 65.4472C109.805 65.7085 109.422 65.9045 108.918 66.0352C108.433 66.1845 107.845 66.2592 107.154 66.2592C106.464 66.2592 105.81 66.1565 105.194 65.9512C104.578 65.7458 104.074 65.2512 103.682 64.4672L100.91 58.8112C100.63 58.2325 100.378 57.6912 100.154 57.1872C99.9304 56.6645 99.6877 56.0672 99.4264 55.3952L99.2584 55.4232C99.333 56.4312 99.3704 57.4578 99.3704 58.5032C99.389 59.5485 99.3984 60.5752 99.3984 61.5832V65.9232C99.193 65.9792 98.8757 66.0352 98.4464 66.0912C98.0357 66.1472 97.625 66.1752 97.2144 66.1752C96.8037 66.1752 96.4397 66.1472 96.1224 66.0912C95.805 66.0352 95.5437 65.9232 95.3384 65.7552C95.133 65.5872 94.9744 65.3632 94.8624 65.0832C94.7504 64.7845 94.6944 64.4018 94.6944 63.9352V49.9352C94.9557 49.5618 95.357 49.2818 95.8984 49.0952C96.4397 48.9085 97.0184 48.8152 97.6344 48.8152C98.325 48.8152 98.9784 48.9272 99.5944 49.1512C100.229 49.3565 100.733 49.8418 101.106 50.6072L103.906 56.2632C104.186 56.8418 104.438 57.3925 104.662 57.9152C104.886 58.4192 105.129 59.0072 105.39 59.6792L105.53 59.6512C105.456 58.6432 105.409 57.6352 105.39 56.6272C105.372 55.6192 105.362 54.6112 105.362 53.6032V49.0672C105.568 49.0112 105.876 48.9552 106.286 48.8992C106.716 48.8432 107.136 48.8152 107.546 48.8152C108.368 48.8152 108.993 48.9645 109.422 49.2632C109.852 49.5432 110.066 50.1405 110.066 51.0552V65.4472ZM124.232 59.7352V65.9232C124.026 65.9792 123.7 66.0352 123.252 66.0912C122.804 66.1472 122.365 66.1752 121.936 66.1752C121.506 66.1752 121.124 66.1378 120.788 66.0632C120.47 66.0072 120.2 65.8952 119.976 65.7272C119.752 65.5592 119.584 65.3258 119.472 65.0272C119.36 64.7285 119.304 64.3365 119.304 63.8512V49.0672C119.509 49.0298 119.836 48.9832 120.284 48.9272C120.732 48.8525 121.161 48.8152 121.572 48.8152C122.001 48.8152 122.374 48.8525 122.692 48.9272C123.028 48.9832 123.308 49.0952 123.532 49.2632C123.756 49.4312 123.924 49.6645 124.036 49.9632C124.148 50.2618 124.204 50.6538 124.204 51.1392V55.5912L130.028 48.8992C131.297 48.8992 132.202 49.1418 132.744 49.6272C133.304 50.0938 133.584 50.6538 133.584 51.3072C133.584 51.7925 133.462 52.2498 133.22 52.6792C132.977 53.1085 132.585 53.5938 132.044 54.1352L128.544 57.6352C129.01 58.1578 129.496 58.6992 130 59.2592C130.522 59.8192 131.026 60.3698 131.512 60.9112C132.016 61.4338 132.492 61.9378 132.94 62.4232C133.406 62.9085 133.808 63.3285 134.144 63.6832C134.144 64.0938 134.069 64.4578 133.92 64.7752C133.77 65.0925 133.565 65.3632 133.304 65.5872C133.061 65.8112 132.781 65.9792 132.464 66.0912C132.146 66.2032 131.81 66.2592 131.456 66.2592C130.69 66.2592 130.065 66.0725 129.58 65.6992C129.094 65.3072 128.628 64.8498 128.18 64.3272L124.232 59.7352ZM140.47 49.5712C140.788 49.3845 141.264 49.2072 141.898 49.0392C142.552 48.8712 143.205 48.7872 143.858 48.7872C144.792 48.7872 145.613 48.9272 146.322 49.2072C147.05 49.4685 147.517 49.8885 147.722 50.4672C148.058 51.4378 148.422 52.5672 148.814 53.8552C149.206 55.1432 149.598 56.4778 149.99 57.8592C150.382 59.2218 150.765 60.5752 151.138 61.9192C151.512 63.2445 151.838 64.4205 152.118 65.4472C151.894 65.7085 151.558 65.9138 151.11 66.0632C150.662 66.2312 150.13 66.3152 149.514 66.3152C149.066 66.3152 148.684 66.2778 148.366 66.2032C148.068 66.1285 147.816 66.0165 147.61 65.8672C147.424 65.7178 147.265 65.5218 147.134 65.2792C147.022 65.0365 146.92 64.7565 146.826 64.4392L146.322 62.5072H141.254C141.105 63.0672 140.956 63.6458 140.806 64.2432C140.657 64.8405 140.508 65.4192 140.358 65.9792C140.097 66.0725 139.817 66.1472 139.518 66.2032C139.238 66.2778 138.893 66.3152 138.482 66.3152C137.53 66.3152 136.821 66.1565 136.354 65.8392C135.906 65.5032 135.682 65.0458 135.682 64.4672C135.682 64.2058 135.72 63.9445 135.794 63.6832C135.869 63.4218 135.953 63.1138 136.046 62.7592C136.177 62.2552 136.354 61.6298 136.578 60.8832C136.821 60.1365 137.082 59.3338 137.362 58.4752C137.642 57.5978 137.941 56.7018 138.258 55.7872C138.576 54.8725 138.874 54.0138 139.154 53.2112C139.434 52.3898 139.686 51.6618 139.91 51.0272C140.153 50.3925 140.34 49.9072 140.47 49.5712ZM143.83 53.1832C143.569 53.9672 143.27 54.8445 142.934 55.8152C142.617 56.7672 142.328 57.7378 142.066 58.7272H145.538C145.277 57.7192 145.006 56.7392 144.726 55.7872C144.465 54.8165 144.222 53.9485 143.998 53.1832H143.83ZM166.145 61.8632C165.902 62.0685 165.585 62.2365 165.193 62.3672C164.82 62.4792 164.381 62.5352 163.877 62.5352C163.205 62.5352 162.645 62.4512 162.197 62.2832C161.768 62.1152 161.488 61.8258 161.357 61.4152C160.834 59.7725 160.405 58.4472 160.069 57.4392C159.733 56.4125 159.472 55.5165 159.285 54.7512H159.145C159.089 55.8525 159.042 56.8605 159.005 57.7752C158.986 58.6712 158.968 59.5485 158.949 60.4072C158.949 61.2658 158.93 62.1338 158.893 63.0112C158.874 63.8885 158.837 64.8592 158.781 65.9232C158.538 66.0165 158.221 66.0912 157.829 66.1472C157.437 66.2218 157.045 66.2592 156.653 66.2592C155.832 66.2592 155.188 66.1285 154.721 65.8672C154.273 65.6058 154.049 65.1298 154.049 64.4392L154.861 50.1592C155.01 49.9165 155.337 49.6552 155.841 49.3752C156.345 49.0952 157.054 48.9552 157.969 48.9552C158.958 48.9552 159.733 49.1138 160.293 49.4312C160.853 49.7298 161.264 50.2245 161.525 50.9152C161.693 51.3632 161.87 51.8765 162.057 52.4552C162.262 53.0338 162.458 53.6312 162.645 54.2472C162.85 54.8632 163.046 55.4792 163.233 56.0952C163.42 56.6925 163.588 57.2338 163.737 57.7192H163.877C164.325 56.1512 164.773 54.6392 165.221 53.1832C165.669 51.7085 166.08 50.4765 166.453 49.4872C166.733 49.3378 167.088 49.2165 167.517 49.1232C167.965 49.0112 168.46 48.9552 169.001 48.9552C169.916 48.9552 170.662 49.0952 171.241 49.3752C171.82 49.6365 172.156 50.0192 172.249 50.5232C172.324 50.8965 172.398 51.4752 172.473 52.2592C172.566 53.0245 172.66 53.8925 172.753 54.8632C172.846 55.8338 172.94 56.8605 173.033 57.9432C173.126 59.0258 173.21 60.0712 173.285 61.0792C173.378 62.0685 173.453 62.9832 173.509 63.8232C173.565 64.6445 173.602 65.2792 173.621 65.7272C173.304 65.9138 172.968 66.0445 172.613 66.1192C172.277 66.2125 171.838 66.2592 171.297 66.2592C170.588 66.2592 169.99 66.1378 169.505 65.8952C169.02 65.6525 168.758 65.1765 168.721 64.4672C168.609 62.4325 168.534 60.6032 168.497 58.9792C168.478 57.3552 168.441 55.9925 168.385 54.8912H168.245C168.058 55.6192 167.788 56.5338 167.433 57.6352C167.078 58.7365 166.649 60.1458 166.145 61.8632ZM191.762 59.7632C191.762 60.7712 191.584 61.6952 191.23 62.5352C190.894 63.3565 190.399 64.0658 189.746 64.6632C189.092 65.2418 188.299 65.6898 187.366 66.0072C186.432 66.3245 185.378 66.4832 184.202 66.4832C183.026 66.4832 181.971 66.3245 181.038 66.0072C180.104 65.6898 179.311 65.2418 178.658 64.6632C178.004 64.0658 177.5 63.3565 177.146 62.5352C176.81 61.6952 176.642 60.7712 176.642 59.7632V49.0672C176.847 49.0298 177.174 48.9832 177.622 48.9272C178.07 48.8525 178.499 48.8152 178.91 48.8152C179.339 48.8152 179.712 48.8525 180.03 48.9272C180.366 48.9832 180.646 49.0952 180.87 49.2632C181.094 49.4312 181.262 49.6645 181.374 49.9632C181.486 50.2618 181.542 50.6538 181.542 51.1392V59.6792C181.542 60.5752 181.784 61.2752 182.27 61.7792C182.774 62.2832 183.418 62.5352 184.202 62.5352C185.004 62.5352 185.648 62.2832 186.134 61.7792C186.619 61.2752 186.862 60.5752 186.862 59.6792V49.0672C187.067 49.0298 187.394 48.9832 187.842 48.9272C188.29 48.8525 188.719 48.8152 189.13 48.8152C189.559 48.8152 189.932 48.8525 190.25 48.9272C190.586 48.9832 190.866 49.0952 191.09 49.2632C191.314 49.4312 191.482 49.6645 191.594 49.9632C191.706 50.2618 191.762 50.6538 191.762 51.1392V59.7632Z" fill="#633F5C"/>
<path fill-rule="evenodd" clip-rule="evenodd" d="M121.976 79.4271L122.88 78.7173L123.783 79.4271C124.945 80.3304 126.172 80.8467 127.656 80.8467H202.531C202.724 80.2659 203.241 79.8142 203.886 79.8142C204.661 79.8142 205.306 80.4595 205.306 81.2338C205.306 82.0081 204.661 82.6534 203.886 82.6534C203.241 82.6534 202.724 82.2017 202.531 81.621H127.656C126.172 81.621 124.945 82.0727 123.783 83.0406L122.88 83.7504L121.976 83.0406C120.814 82.0727 119.588 81.621 118.103 81.621H43.2286C43.035 82.2017 42.5186 82.6534 41.8732 82.6534C41.0986 82.6534 40.4531 82.0081 40.4531 81.2338C40.4531 80.4595 41.0986 79.8142 41.8732 79.8142C42.5186 79.8142 43.035 80.2659 43.2286 80.8467H118.103C119.588 80.8467 120.814 80.395 121.976 79.4271Z" fill="#633F5C"/>
<path fill-rule="evenodd" clip-rule="evenodd" d="M122.805 242.098C111.833 242.098 100.86 241.84 89.9511 241.324C80.8499 240.872 71.6843 240.292 62.6477 239.259C58.0003 238.743 54.4502 235.194 53.9338 230.548C52.9656 221.45 52.3201 212.352 51.8683 203.253C51.3519 192.284 51.0938 181.379 51.0938 170.409C51.0938 159.44 51.3519 148.47 51.8683 137.565C52.3201 128.467 52.9011 119.304 53.9338 110.27C54.4502 105.625 58.0003 102.076 62.6477 101.559C71.7488 100.591 80.8499 99.9462 89.9511 99.4945C100.924 98.9783 111.833 98.7202 122.805 98.7202C133.778 98.7202 144.751 98.9783 155.66 99.4945C164.761 99.9462 173.927 100.527 182.963 101.559C187.611 102.076 191.161 105.625 191.677 110.27C192.645 119.369 193.291 128.467 193.743 137.565C194.259 148.535 194.517 159.44 194.517 170.409C194.517 181.379 194.259 192.348 193.743 203.253C193.291 212.352 192.71 221.514 191.677 230.548C191.161 235.194 187.611 238.743 182.963 239.259C173.862 240.227 164.761 240.872 155.66 241.324C144.687 241.84 133.778 242.098 122.805 242.098Z" fill="url(#paint30_radial_2720_103923)"/>
<path style="mix-blend-mode:multiply" opacity="0.5" fill-rule="evenodd" clip-rule="evenodd" d="M122.808 101.172C162.504 101.172 186.128 103.882 191.873 112.271C191.808 111.626 191.744 110.916 191.679 110.27C191.163 105.625 187.613 102.076 182.965 101.559C173.864 100.591 164.763 99.9462 155.662 99.4945C144.689 98.9783 133.781 98.7202 122.808 98.7202C111.835 98.7202 100.862 98.9783 89.9531 99.4945C80.8519 99.9462 71.6863 100.527 62.6497 101.559C58.0023 102.076 54.4522 105.625 53.9358 110.27C53.8713 110.916 53.8067 111.626 53.7422 112.271C59.4869 103.882 83.1111 101.172 122.808 101.172Z" fill="url(#paint31_radial_2720_103923)"/>
<path fill-rule="evenodd" clip-rule="evenodd" d="M49.6797 170.474C49.6797 147.244 50.7124 126.015 52.4552 110.141C53.0361 104.786 57.1671 100.721 62.46 100.14C78.3386 98.3977 99.5745 97.3652 122.811 97.3652C146.048 97.3652 167.284 98.3977 183.163 100.14C188.52 100.721 192.587 104.85 193.168 110.141C194.911 126.08 195.943 147.244 195.943 170.474C195.943 193.703 194.911 214.933 193.168 230.806C192.587 236.162 188.52 240.227 183.163 240.808C167.22 242.55 146.048 243.582 122.811 243.582C99.5745 243.582 78.3386 242.55 62.46 240.808C57.1026 240.227 53.0361 236.097 52.4552 230.806C50.7124 214.933 49.6797 193.703 49.6797 170.474ZM51.9388 170.474C51.9388 181.443 52.197 192.348 52.7134 203.318C53.1652 212.416 53.7461 221.514 54.7789 230.613C55.2307 234.871 58.5226 238.162 62.7827 238.614C71.8193 239.582 80.985 240.227 90.0861 240.679C100.995 241.195 111.968 241.453 122.941 241.453C133.914 241.453 144.822 241.195 155.795 240.679C164.896 240.227 173.997 239.646 183.098 238.614C187.359 238.162 190.65 234.871 191.102 230.613C192.07 221.579 192.716 212.416 193.168 203.318C193.684 192.413 193.942 181.443 193.942 170.474C193.942 159.504 193.684 148.599 193.168 137.63C192.716 128.532 192.135 119.433 191.102 110.335C190.65 106.076 187.359 102.785 183.098 102.334C174.062 101.366 164.896 100.721 155.795 100.269C144.887 99.7527 133.914 99.4946 122.941 99.4946C111.968 99.4946 101.059 99.7527 90.0861 100.269C80.985 100.721 71.8839 101.301 62.7827 102.334C58.5226 102.785 55.2307 106.076 54.7789 110.335C53.8107 119.369 53.1652 128.532 52.7134 137.63C52.197 148.535 51.9388 159.504 51.9388 170.474Z" fill="url(#paint32_radial_2720_103923)"/>
<path style="mix-blend-mode:screen" fill-rule="evenodd" clip-rule="evenodd" d="M192.265 109.431C191.555 104.721 187.875 101.172 183.099 100.591C173.998 99.6232 164.832 98.978 155.731 98.5263C144.758 98.0101 133.785 97.752 122.812 97.752C111.839 97.752 100.866 98.0101 89.893 98.5263C80.7919 98.978 71.6262 99.5587 62.5251 100.591C57.7486 101.107 54.0694 104.656 53.3594 109.431C54.4567 104.011 58.975 101.494 64.0096 100.978C72.4653 100.139 80.9855 99.5587 89.5057 99.1715C100.608 98.6553 111.71 98.3972 122.812 98.3972C133.914 98.3972 145.016 98.6553 156.118 99.1715C164.638 99.5587 173.159 100.139 181.614 100.978C186.649 101.494 191.167 103.947 192.265 109.431Z" fill="url(#paint33_radial_2720_103923)"/>
<path fill-rule="evenodd" clip-rule="evenodd" d="M194.903 161.955C190.191 161.955 186.383 165.762 186.383 170.473C186.383 175.183 190.191 178.99 194.903 178.99C199.615 178.99 203.423 175.183 203.423 170.473C203.423 165.762 199.615 161.955 194.903 161.955Z" fill="url(#paint34_radial_2720_103923)"/>
<g style="mix-blend-mode:multiply" opacity="0.5">
<path fill-rule="evenodd" clip-rule="evenodd" d="M196.131 177.829C200.069 177.248 203.167 173.957 203.425 169.892C203.425 170.086 203.425 170.215 203.425 170.408C203.425 174.667 200.262 178.216 196.131 178.861C195.938 178.861 195.744 178.861 195.486 178.926C195.292 178.926 195.099 178.926 194.841 178.926C194.711 178.926 194.582 178.926 194.453 178.926C194.195 178.926 193.872 178.926 193.614 178.861C189.483 178.281 186.32 174.732 186.32 170.408C186.32 170.215 186.32 170.086 186.32 169.892C186.579 173.957 189.612 177.248 193.614 177.829C193.872 177.829 194.195 177.893 194.453 177.893C194.582 177.893 194.711 177.893 194.841 177.893C195.034 177.893 195.228 177.893 195.486 177.893C195.68 177.893 195.938 177.893 196.131 177.829Z" fill="#706F6F"/>
</g>
<g style="mix-blend-mode:screen">
<path fill-rule="evenodd" clip-rule="evenodd" d="M193.68 163.504C189.936 164.085 187.032 167.182 186.773 170.989C186.773 170.795 186.773 170.602 186.773 170.408C186.773 166.343 189.743 162.988 193.68 162.342C193.938 162.342 194.261 162.278 194.519 162.278C194.648 162.278 194.777 162.278 194.906 162.278C195.1 162.278 195.294 162.278 195.552 162.278C195.745 162.278 196.004 162.278 196.197 162.342C200.07 162.923 203.104 166.343 203.104 170.408C203.104 170.602 203.104 170.795 203.104 170.989C202.846 167.182 199.941 164.085 196.197 163.504C196.004 163.504 195.81 163.504 195.552 163.439C195.358 163.439 195.165 163.439 194.906 163.439C194.777 163.439 194.648 163.439 194.519 163.439C194.261 163.439 193.938 163.439 193.68 163.504Z" fill="#00CCFF"/>
</g>
<path style="mix-blend-mode:multiply" fill-rule="evenodd" clip-rule="evenodd" d="M194.9 163.762C198.58 163.762 201.613 166.73 201.613 170.472C201.613 174.215 198.644 177.183 194.9 177.183C191.157 177.183 188.188 174.215 188.188 170.472C188.188 166.73 191.157 163.762 194.9 163.762Z" fill="url(#paint35_linear_2720_103923)"/>
<path fill-rule="evenodd" clip-rule="evenodd" d="M194.894 164.214C198.379 164.214 201.155 167.053 201.155 170.473C201.155 173.893 198.315 176.732 194.894 176.732C191.473 176.732 188.633 173.893 188.633 170.473C188.633 167.053 191.473 164.214 194.894 164.214Z" fill="url(#paint36_radial_2720_103923)"/>
<path style="mix-blend-mode:screen" fill-rule="evenodd" clip-rule="evenodd" d="M194.183 164.988C196.829 164.988 198.959 167.118 198.959 169.763C198.959 172.409 196.829 174.538 194.183 174.538C191.536 174.538 189.406 172.409 189.406 169.763C189.406 167.118 191.536 164.988 194.183 164.988Z" fill="url(#paint37_radial_2720_103923)"/>
<path style="mix-blend-mode:screen" fill-rule="evenodd" clip-rule="evenodd" d="M191.276 166.73C192.696 165.311 194.697 165.053 195.794 166.15C196.892 167.247 196.569 169.247 195.214 170.667C193.858 172.086 191.793 172.344 190.695 171.247C189.598 170.15 189.856 168.15 191.276 166.73Z" fill="url(#paint38_radial_2720_103923)"/>
<path style="mix-blend-mode:screen" opacity="0.5" fill-rule="evenodd" clip-rule="evenodd" d="M197.739 165.375C199.352 166.407 200.45 168.214 200.45 170.279C200.45 173.441 197.868 176.086 194.64 176.086C193.801 176.086 192.962 175.893 192.188 175.57C192.639 175.699 193.091 175.764 193.608 175.764C196.899 175.764 199.546 173.118 199.546 169.763C199.546 168.085 198.836 166.536 197.674 165.44L197.739 165.375Z" fill="url(#paint39_radial_2720_103923)"/>
<path fill-rule="evenodd" clip-rule="evenodd" d="M192.711 167.053L193.937 165.827L198.714 170.473L193.937 175.119L192.711 173.893L194.841 170.473L192.711 167.053Z" fill="url(#paint40_linear_2720_103923)"/>
<path fill-rule="evenodd" clip-rule="evenodd" d="M50.778 161.955C55.49 161.955 59.2982 165.762 59.2982 170.473C59.2982 175.183 55.49 178.99 50.778 178.99C46.0661 178.99 42.2578 175.183 42.2578 170.473C42.2578 165.762 46.0661 161.955 50.778 161.955Z" fill="url(#paint41_radial_2720_103923)"/>
<g style="mix-blend-mode:multiply" opacity="0.5">
<path fill-rule="evenodd" clip-rule="evenodd" d="M49.4891 177.829C45.5518 177.248 42.4535 173.957 42.1953 169.892C42.1953 170.086 42.1953 170.215 42.1953 170.408C42.1953 174.667 45.3581 178.216 49.4891 178.861C49.6828 178.861 49.8764 178.861 50.1346 178.926C50.3282 178.926 50.5219 178.926 50.7801 178.926C50.9092 178.926 51.0383 178.926 51.1674 178.926C51.4255 178.926 51.7483 178.926 52.0065 178.861C56.1375 178.281 59.3003 174.732 59.3003 170.408C59.3003 170.215 59.3003 170.086 59.3003 169.892C59.0421 173.957 56.0084 177.248 52.0065 177.829C51.7483 177.829 51.4255 177.893 51.1674 177.893C51.0383 177.893 50.9092 177.893 50.7801 177.893C50.5864 177.893 50.3928 177.893 50.1346 177.893C49.941 177.893 49.6828 177.893 49.4891 177.829Z" fill="#706F6F"/>
</g>
<g style="mix-blend-mode:screen">
<path fill-rule="evenodd" clip-rule="evenodd" d="M52.0098 163.504C55.7535 164.085 58.6582 167.182 58.9163 170.989C58.9163 170.795 58.9163 170.602 58.9163 170.408C58.9163 166.343 55.9472 162.988 52.0098 162.342C51.7516 162.342 51.4289 162.278 51.1707 162.278C51.0416 162.278 50.9125 162.278 50.7834 162.278C50.5898 162.278 50.3961 162.278 50.1379 162.278C49.9443 162.278 49.6861 162.278 49.4925 162.342C45.6196 162.923 42.5859 166.343 42.5859 170.408C42.5859 170.602 42.5859 170.795 42.5859 170.989C42.8441 167.182 45.7487 164.085 49.4925 163.504C49.6861 163.504 49.8798 163.504 50.1379 163.439C50.3316 163.439 50.5252 163.439 50.7834 163.439C50.9125 163.439 51.0416 163.439 51.1707 163.439C51.4289 163.439 51.7516 163.439 52.0098 163.504Z" fill="#00CCFF"/>
</g>
<path style="mix-blend-mode:multiply" fill-rule="evenodd" clip-rule="evenodd" d="M50.7754 163.762C47.0962 163.762 44.0625 166.73 44.0625 170.472C44.0625 174.215 47.0317 177.183 50.7754 177.183C54.5191 177.183 57.4883 174.215 57.4883 170.472C57.4883 166.73 54.5191 163.762 50.7754 163.762Z" fill="url(#paint42_linear_2720_103923)"/>
<path fill-rule="evenodd" clip-rule="evenodd" d="M50.7845 164.214C54.27 164.214 57.0456 167.053 57.0456 170.473C57.0456 173.893 54.2055 176.732 50.7845 176.732C47.3635 176.732 44.5234 173.893 44.5234 170.473C44.5234 167.053 47.3635 164.214 50.7845 164.214Z" fill="url(#paint43_radial_2720_103923)"/>
<path style="mix-blend-mode:screen" fill-rule="evenodd" clip-rule="evenodd" d="M50.0734 164.988C52.7198 164.988 54.8498 167.118 54.8498 169.763C54.8498 172.409 52.7198 174.538 50.0734 174.538C47.4269 174.538 45.2969 172.409 45.2969 169.763C45.2969 167.118 47.4269 164.988 50.0734 164.988Z" fill="url(#paint44_radial_2720_103923)"/>
<path style="mix-blend-mode:screen" fill-rule="evenodd" clip-rule="evenodd" d="M47.1709 166.73C48.5909 165.311 50.5919 165.053 51.6892 166.15C52.7865 167.247 52.4637 169.247 51.1082 170.667C49.6882 172.086 47.6872 172.344 46.5899 171.247C45.4926 170.15 45.8154 168.15 47.1709 166.73Z" fill="url(#paint45_radial_2720_103923)"/>
<path style="mix-blend-mode:screen" opacity="0.5" fill-rule="evenodd" clip-rule="evenodd" d="M53.6271 165.375C55.2408 166.407 56.3381 168.214 56.3381 170.279C56.3381 173.441 53.7562 176.086 50.5934 176.086C49.7543 176.086 48.9152 175.893 48.1406 175.57C48.5925 175.699 49.0443 175.764 49.5607 175.764C52.8526 175.764 55.5635 173.118 55.5635 169.763C55.5635 168.085 54.8535 166.536 53.6917 165.44L53.6271 165.375Z" fill="url(#paint46_radial_2720_103923)"/>
<path fill-rule="evenodd" clip-rule="evenodd" d="M52.9716 167.053L51.6807 165.827L46.9688 170.473L51.6807 175.118L52.9716 173.892L50.777 170.473L52.9716 167.053Z" fill="url(#paint47_linear_2720_103923)"/>
<path fill-rule="evenodd" clip-rule="evenodd" d="M122.825 233.968C118.113 233.968 114.305 237.775 114.305 242.485C114.305 247.196 118.113 251.003 122.825 251.003C127.537 251.003 131.345 247.196 131.345 242.485C131.345 237.775 127.537 233.968 122.825 233.968Z" fill="url(#paint48_radial_2720_103923)"/>
<g style="mix-blend-mode:multiply" opacity="0.5">
<path fill-rule="evenodd" clip-rule="evenodd" d="M124.116 249.906C128.053 249.325 131.151 246.034 131.41 241.969C131.41 242.163 131.41 242.292 131.41 242.485C131.41 246.744 128.247 250.293 124.116 250.938C123.922 250.938 123.729 250.938 123.47 251.003C123.277 251.003 123.083 251.003 122.825 251.003C122.696 251.003 122.567 251.003 122.438 251.003C122.179 251.003 121.857 251.003 121.598 250.938C117.467 250.358 114.305 246.809 114.305 242.485C114.305 242.292 114.305 242.163 114.305 241.969C114.563 246.034 117.597 249.325 121.598 249.906C121.857 249.906 122.179 249.971 122.438 249.971C122.567 249.971 122.696 249.971 122.825 249.971C123.019 249.971 123.212 249.971 123.47 249.971C123.664 249.971 123.922 249.971 124.116 249.906Z" fill="#706F6F"/>
</g>
<g style="mix-blend-mode:screen">
<path fill-rule="evenodd" clip-rule="evenodd" d="M121.602 235.581C117.858 236.162 114.954 239.259 114.695 243.066C114.695 242.872 114.695 242.679 114.695 242.485C114.695 238.42 117.664 235.065 121.602 234.419C121.86 234.419 122.183 234.355 122.441 234.355C122.57 234.355 122.699 234.355 122.828 234.355C123.022 234.355 123.216 234.355 123.474 234.355C123.667 234.355 123.926 234.355 124.119 234.419C127.992 235 131.026 238.42 131.026 242.485C131.026 242.679 131.026 242.872 131.026 243.066C130.768 239.259 127.863 236.162 124.119 235.581C123.926 235.581 123.732 235.581 123.474 235.516C123.28 235.516 123.086 235.516 122.828 235.516C122.699 235.516 122.57 235.516 122.441 235.516C122.183 235.516 121.86 235.516 121.602 235.581Z" fill="#00CCFF"/>
</g>
<path style="mix-blend-mode:multiply" fill-rule="evenodd" clip-rule="evenodd" d="M122.822 235.839C126.501 235.839 129.535 238.807 129.535 242.55C129.535 246.292 126.566 249.26 122.822 249.26C119.079 249.26 116.109 246.292 116.109 242.55C116.109 238.807 119.079 235.839 122.822 235.839Z" fill="url(#paint49_linear_2720_103923)"/>
<path fill-rule="evenodd" clip-rule="evenodd" d="M122.831 236.226C126.317 236.226 129.092 239.065 129.092 242.485C129.092 245.905 126.252 248.744 122.831 248.744C119.41 248.744 116.57 245.905 116.57 242.485C116.57 239.065 119.41 236.226 122.831 236.226Z" fill="url(#paint50_radial_2720_103923)"/>
<path style="mix-blend-mode:screen" fill-rule="evenodd" clip-rule="evenodd" d="M122.12 237.064C124.767 237.064 126.897 239.194 126.897 241.839C126.897 244.485 124.767 246.614 122.12 246.614C119.474 246.614 117.344 244.485 117.344 241.839C117.344 239.194 119.474 237.064 122.12 237.064Z" fill="url(#paint51_radial_2720_103923)"/>
<path style="mix-blend-mode:screen" fill-rule="evenodd" clip-rule="evenodd" d="M119.28 238.742C120.7 237.323 122.701 237.064 123.799 238.161C124.896 239.258 124.573 241.259 123.218 242.678C121.798 244.098 119.797 244.356 118.699 243.259C117.602 242.162 117.925 240.162 119.28 238.742Z" fill="url(#paint52_radial_2720_103923)"/>
<path style="mix-blend-mode:screen" opacity="0.5" fill-rule="evenodd" clip-rule="evenodd" d="M125.674 237.452C127.288 238.484 128.385 240.291 128.385 242.356C128.385 245.517 125.803 248.163 122.64 248.163C121.801 248.163 120.962 247.97 120.188 247.647C120.639 247.776 121.091 247.84 121.608 247.84C124.899 247.84 127.546 245.195 127.546 241.839C127.546 240.162 126.836 238.613 125.674 237.516V237.452Z" fill="url(#paint53_radial_2720_103923)"/>
<path fill-rule="evenodd" clip-rule="evenodd" d="M126.246 240.292L127.472 241.582L122.825 246.357L118.242 241.582L119.404 240.292L122.825 242.485L126.246 240.292Z" fill="url(#paint54_linear_2720_103923)"/>
<path fill-rule="evenodd" clip-rule="evenodd" d="M122.825 89.8799C127.537 89.8799 131.345 93.6869 131.345 98.3974C131.345 103.108 127.537 106.915 122.825 106.915C118.113 106.915 114.305 103.108 114.305 98.3974C114.305 93.6869 118.113 89.8799 122.825 89.8799Z" fill="url(#paint55_radial_2720_103923)"/>
<g style="mix-blend-mode:multiply" opacity="0.5">
<path fill-rule="evenodd" clip-rule="evenodd" d="M121.598 105.818C117.661 105.237 114.563 101.947 114.305 97.8813C114.305 98.0749 114.305 98.204 114.305 98.3976C114.305 102.656 117.467 106.205 121.598 106.851C121.792 106.851 121.986 106.851 122.244 106.915C122.438 106.915 122.631 106.915 122.889 106.915C123.019 106.915 123.148 106.915 123.277 106.915C123.535 106.915 123.858 106.915 124.116 106.851C128.247 106.27 131.41 102.721 131.41 98.3976C131.41 98.204 131.41 98.0749 131.41 97.8813C131.151 101.947 128.118 105.237 124.116 105.818C123.858 105.818 123.535 105.883 123.277 105.883C123.148 105.883 123.019 105.883 122.889 105.883C122.696 105.883 122.502 105.883 122.244 105.883C122.05 105.883 121.792 105.883 121.598 105.818Z" fill="#706F6F"/>
</g>
<g style="mix-blend-mode:screen">
<path fill-rule="evenodd" clip-rule="evenodd" d="M124.119 91.4931C127.863 92.0738 130.768 95.1711 131.026 98.9782C131.026 98.7846 131.026 98.591 131.026 98.3974C131.026 94.3323 128.057 90.9769 124.119 90.3316C123.861 90.3316 123.538 90.2671 123.28 90.2671C123.151 90.2671 123.022 90.2671 122.893 90.2671C122.699 90.2671 122.506 90.2671 122.247 90.2671C122.054 90.2671 121.795 90.2671 121.602 90.3316C117.729 90.9124 114.695 94.3323 114.695 98.3974C114.695 98.591 114.695 98.7846 114.695 98.9782C114.954 95.1711 117.858 92.0738 121.602 91.4931C121.795 91.4931 121.989 91.4931 122.247 91.4286C122.441 91.4286 122.635 91.4286 122.893 91.4286C123.022 91.4286 123.151 91.4286 123.28 91.4286C123.538 91.4286 123.861 91.4286 124.119 91.4931Z" fill="#00CCFF"/>
</g>
<path style="mix-blend-mode:multiply" fill-rule="evenodd" clip-rule="evenodd" d="M122.822 91.751C119.143 91.751 116.109 94.7192 116.109 98.4617C116.109 102.204 119.079 105.173 122.822 105.173C126.566 105.173 129.535 102.204 129.535 98.4617C129.535 94.7192 126.566 91.751 122.822 91.751Z" fill="url(#paint56_linear_2720_103923)"/>
<path fill-rule="evenodd" clip-rule="evenodd" d="M122.831 92.1387C126.317 92.1387 129.092 94.9778 129.092 98.3978C129.092 101.818 126.252 104.657 122.831 104.657C119.41 104.657 116.57 101.818 116.57 98.3978C116.57 94.9778 119.41 92.1387 122.831 92.1387Z" fill="url(#paint57_radial_2720_103923)"/>
<path style="mix-blend-mode:screen" fill-rule="evenodd" clip-rule="evenodd" d="M122.12 92.9771C124.767 92.9771 126.897 95.1064 126.897 97.752C126.897 100.398 124.767 102.527 122.12 102.527C119.474 102.527 117.344 100.398 117.344 97.752C117.344 95.1064 119.474 92.9771 122.12 92.9771Z" fill="url(#paint58_radial_2720_103923)"/>
<path style="mix-blend-mode:screen" fill-rule="evenodd" clip-rule="evenodd" d="M119.28 94.6552C120.7 93.2356 122.701 92.9775 123.799 94.0745C124.896 95.1714 124.573 97.1717 123.218 98.5913C121.798 100.011 119.797 100.269 118.699 99.172C117.602 98.0751 117.925 96.0748 119.28 94.6552Z" fill="url(#paint59_radial_2720_103923)"/>
<path style="mix-blend-mode:screen" opacity="0.5" fill-rule="evenodd" clip-rule="evenodd" d="M125.674 93.3643C127.288 94.3967 128.385 96.2034 128.385 98.2683C128.385 101.43 125.803 104.076 122.64 104.076C121.801 104.076 120.962 103.882 120.188 103.559C120.639 103.689 121.091 103.753 121.608 103.753C124.899 103.753 127.546 101.107 127.546 97.7521C127.546 96.0744 126.836 94.5257 125.674 93.4288V93.3643Z" fill="url(#paint60_radial_2720_103923)"/>
<path fill-rule="evenodd" clip-rule="evenodd" d="M126.246 100.656L127.472 99.3653L122.825 94.5903L118.242 99.3653L119.404 100.656L122.825 98.4619L126.246 100.656Z" fill="url(#paint61_linear_2720_103923)"/>
<g style="mix-blend-mode:multiply">
<path fill-rule="evenodd" clip-rule="evenodd" d="M122.098 294.816C107.187 294.816 103.314 288.622 101.83 278.555C101.249 274.426 101.765 271.522 103.508 269.393C106.413 265.715 113.513 263.456 125.067 262.617C127.003 262.488 128.811 262.424 130.489 262.424C138.105 262.424 143.334 263.972 146.045 267.005C148.304 269.522 149.014 273.329 148.368 278.685C146.884 290.235 143.463 293.913 125.002 294.881C124.034 294.881 123.066 294.945 122.162 294.945L122.098 294.816Z" fill="#633F5C"/>
</g>
<path fill-rule="evenodd" clip-rule="evenodd" d="M124.807 257.133C146.495 255.455 152.885 262.875 151.207 276.232C149.528 289.654 144.623 293.913 125.065 294.881C105.507 295.848 100.602 287.718 98.9236 276.232C97.2453 264.747 103.184 258.81 124.871 257.133H124.807Z" fill="url(#paint62_radial_2720_103923)"/>
<path style="mix-blend-mode:multiply" fill-rule="evenodd" clip-rule="evenodd" d="M150.751 279.265C147.652 286.879 140.875 289.654 125.061 290.428C109.118 291.203 102.34 286.299 99.2422 278.426C101.243 288.686 106.73 295.719 124.996 294.816C143.005 293.913 148.556 290.235 150.686 279.201L150.751 279.265Z" fill="url(#paint63_radial_2720_103923)"/>
<path style="mix-blend-mode:screen" fill-rule="evenodd" clip-rule="evenodd" d="M103.054 264.94C99.2462 268.553 99.5044 277.071 103.635 280.426C109.509 285.201 120.611 284.04 127.453 283.136C134.166 282.233 147.85 280.297 149.27 272.683C150.303 267.069 147.269 261.262 141.783 259.391C132.294 256.164 110.8 257.455 103.054 264.94Z" fill="url(#paint64_radial_2720_103923)"/>
<path style="mix-blend-mode:screen" fill-rule="evenodd" clip-rule="evenodd" d="M111.7 260.81C108.343 261.649 102.986 264.553 101.889 267.65C100.92 270.296 103.631 270.619 106.084 269.844C108.924 268.941 112.281 267.328 114.54 265.521C117.315 263.327 115.895 259.714 111.7 260.81Z" fill="url(#paint65_radial_2720_103923)"/>
<path style="mix-blend-mode:screen" fill-rule="evenodd" clip-rule="evenodd" d="M142.361 289.525C144.426 288.622 146.685 286.557 146.944 284.557C147.137 282.943 145.394 282.75 144.103 283.46C142.619 284.299 140.941 285.654 139.908 286.88C138.617 288.428 140.102 290.429 142.425 289.461L142.361 289.525Z" fill="url(#paint66_radial_2720_103923)"/>
<g style="mix-blend-mode:screen">
<path d="M109.311 265.134C109.311 265.134 109.246 265.521 108.988 265.65C108.73 265.779 108.472 265.715 108.407 265.586C108.343 265.457 108.472 265.198 108.73 265.069C108.988 264.94 109.246 265.005 109.311 265.134Z" fill="#FFED44"/>
</g>
<path d="M110.16 275.91C110.16 274.684 110.354 273.587 110.741 272.619C111.129 271.651 111.645 270.877 112.355 270.231C113.065 269.586 113.84 269.07 114.743 268.747C115.647 268.425 116.68 268.231 117.712 268.231C118.745 268.231 119.778 268.425 120.682 268.747C121.585 269.07 122.424 269.586 123.07 270.231C123.78 270.877 124.296 271.715 124.683 272.619C125.071 273.587 125.264 274.684 125.264 275.91C125.264 277.136 125.071 278.297 124.683 279.265C124.296 280.233 123.78 281.072 123.07 281.717C122.36 282.362 121.585 282.878 120.682 283.201C119.778 283.524 118.745 283.717 117.648 283.717C116.551 283.717 115.518 283.524 114.614 283.201C113.71 282.878 112.871 282.362 112.226 281.717C111.58 281.072 110.999 280.233 110.612 279.265C110.225 278.297 110.031 277.2 110.031 275.974L110.16 275.91ZM114.485 275.91C114.485 277.394 114.808 278.491 115.389 279.2C115.97 279.91 116.744 280.297 117.777 280.297C118.81 280.297 119.584 279.91 120.165 279.2C120.746 278.491 121.069 277.394 121.069 275.91C121.069 274.426 120.746 273.393 120.165 272.683C119.584 271.973 118.81 271.586 117.777 271.586C116.744 271.586 115.97 271.973 115.389 272.683C114.808 273.393 114.485 274.49 114.485 275.91Z" fill="url(#paint67_linear_2720_103923)"/>
<path d="M131.393 277.781V283.072C131.393 283.072 130.941 283.201 130.554 283.201C130.167 283.201 129.779 283.266 129.392 283.266C129.005 283.266 128.682 283.265 128.424 283.201C128.166 283.201 127.907 283.072 127.714 282.878C127.52 282.749 127.391 282.556 127.262 282.298C127.133 282.039 127.133 281.717 127.133 281.265V268.553C127.133 268.553 127.585 268.489 127.972 268.424C128.359 268.424 128.746 268.36 129.069 268.36C129.392 268.36 129.779 268.36 130.037 268.424C130.296 268.424 130.554 268.553 130.747 268.747C130.941 268.876 131.07 269.07 131.199 269.328C131.328 269.586 131.328 269.909 131.328 270.36V274.167L136.363 268.424C137.46 268.424 138.235 268.618 138.687 269.07C139.139 269.457 139.397 269.973 139.397 270.554C139.397 270.941 139.268 271.393 139.074 271.715C138.88 272.102 138.558 272.49 138.041 272.941L135.008 275.974C135.395 276.426 135.847 276.877 136.298 277.394C136.75 277.845 137.202 278.361 137.589 278.813C138.041 279.265 138.429 279.717 138.816 280.104C139.203 280.491 139.526 280.878 139.849 281.201C139.849 281.523 139.849 281.846 139.655 282.104C139.526 282.362 139.332 282.62 139.139 282.814C138.945 283.007 138.687 283.136 138.429 283.266C138.17 283.33 137.848 283.395 137.589 283.395C136.944 283.395 136.428 283.201 135.976 282.878C135.588 282.556 135.137 282.169 134.749 281.717L131.328 277.781H131.393Z" fill="url(#paint68_linear_2720_103923)"/>
<defs>
<radialGradient id="paint0_radial_2720_103923" cx="0" cy="0" r="1" gradientUnits="userSpaceOnUse" gradientTransform="translate(-11.9678 -8.71649) scale(577.954 577.771)">
<stop stop-color="#2EA4FF"/>
<stop offset="1" stop-color="#2478F0"/>
</radialGradient>
<radialGradient id="paint1_radial_2720_103923" cx="0" cy="0" r="1" gradientUnits="userSpaceOnUse" gradientTransform="translate(12.3657 34.5807) scale(241.083 241.007)">
<stop stop-color="#0C3469"/>
<stop offset="1"/>
</radialGradient>
<radialGradient id="paint2_radial_2720_103923" cx="0" cy="0" r="1" gradientUnits="userSpaceOnUse" gradientTransform="translate(170.889 0.639818) scale(285.169 285.078)">
<stop stop-color="#0C3469"/>
<stop offset="1"/>
</radialGradient>
<radialGradient id="paint3_radial_2720_103923" cx="0" cy="0" r="1" gradientUnits="userSpaceOnUse" gradientTransform="translate(231.959 25.8694) scale(349.393 349.282)">
<stop stop-color="#0C3469"/>
<stop offset="1"/>
</radialGradient>
<radialGradient id="paint4_radial_2720_103923" cx="0" cy="0" r="1" gradientUnits="userSpaceOnUse" gradientTransform="translate(1.07011 163.247) scale(305.759 305.662)">
<stop stop-color="#0C3469"/>
<stop offset="1"/>
</radialGradient>
<radialGradient id="paint5_radial_2720_103923" cx="0" cy="0" r="1" gradientUnits="userSpaceOnUse" gradientTransform="translate(-13.7781 199.704) scale(288.848 288.756)">
<stop stop-color="#0C3469"/>
<stop offset="1"/>
</radialGradient>
<radialGradient id="paint6_radial_2720_103923" cx="0" cy="0" r="1" gradientUnits="userSpaceOnUse" gradientTransform="translate(246.096 155.891) scale(411.229 411.099)">
<stop stop-color="#0C3469"/>
<stop offset="1"/>
</radialGradient>
<radialGradient id="paint7_radial_2720_103923" cx="0" cy="0" r="1" gradientUnits="userSpaceOnUse" gradientTransform="translate(1.06656 265.264) scale(444.858 444.717)">
<stop stop-color="#0C3469"/>
<stop offset="1"/>
</radialGradient>
<radialGradient id="paint8_radial_2720_103923" cx="0" cy="0" r="1" gradientUnits="userSpaceOnUse" gradientTransform="translate(-187.725 310.755) scale(625.267 625.069)">
<stop stop-color="#BAC3EB"/>
<stop offset="0.99" stop-color="white"/>
</radialGradient>
<radialGradient id="paint9_radial_2720_103923" cx="0" cy="0" r="1" gradientUnits="userSpaceOnUse" gradientTransform="translate(350.661 -58.983) scale(787.216 786.966)">
<stop stop-color="#BAC3EB"/>
<stop offset="0.99" stop-color="white"/>
</radialGradient>
<radialGradient id="paint10_radial_2720_103923" cx="0" cy="0" r="1" gradientUnits="userSpaceOnUse" gradientTransform="translate(194.971 -95.2469) scale(499.271 499.113)">
<stop stop-color="#BAC3EB"/>
<stop offset="0.99" stop-color="white"/>
</radialGradient>
<radialGradient id="paint11_radial_2720_103923" cx="0" cy="0" r="1" gradientUnits="userSpaceOnUse" gradientTransform="translate(250.286 286.299) scale(371.662 371.544)">
<stop stop-color="#0C3469"/>
<stop offset="1"/>
</radialGradient>
<radialGradient id="paint12_radial_2720_103923" cx="0" cy="0" r="1" gradientUnits="userSpaceOnUse" gradientTransform="translate(247.182 113.497) scale(235.79 235.716)">
<stop stop-color="#0C3469"/>
<stop offset="1"/>
</radialGradient>
<radialGradient id="paint13_radial_2720_103923" cx="0" cy="0" r="1" gradientUnits="userSpaceOnUse" gradientTransform="translate(-11.7095 116.207) scale(268.516 268.431)">
<stop stop-color="#0C3469"/>
<stop offset="1"/>
</radialGradient>
<radialGradient id="paint14_radial_2720_103923" cx="0" cy="0" r="1" gradientUnits="userSpaceOnUse" gradientTransform="translate(206.843 236.937) scale(19.8159 19.8097)">
<stop stop-color="#0C3469"/>
<stop offset="1"/>
</radialGradient>
<linearGradient id="paint15_linear_2720_103923" x1="4.29688" y1="321.66" x2="240.733" y2="321.66" gradientUnits="userSpaceOnUse">
<stop stop-color="#062D70"/>
<stop offset="1" stop-color="#034494"/>
</linearGradient>
<linearGradient id="paint16_linear_2720_103923" x1="233.18" y1="163.311" x2="246.799" y2="163.311" gradientUnits="userSpaceOnUse">
<stop stop-color="#0456BA"/>
<stop offset="1" stop-color="#083B94"/>
</linearGradient>
<radialGradient id="paint17_radial_2720_103923" cx="0" cy="0" r="1" gradientUnits="userSpaceOnUse" gradientTransform="translate(8.23336 -44.5932) scale(630.302 630.102)">
<stop stop-color="#00FFFA"/>
<stop offset="1"/>
</radialGradient>
<radialGradient id="paint18_radial_2720_103923" cx="0" cy="0" r="1" gradientUnits="userSpaceOnUse" gradientTransform="translate(118.547 219.32) scale(313.44 313.341)">
<stop stop-color="#6E757F"/>
<stop offset="1" stop-color="white"/>
</radialGradient>
<linearGradient id="paint19_linear_2720_103923" x1="123.772" y1="302.817" x2="123.772" y2="16.7709" gradientUnits="userSpaceOnUse">
<stop stop-color="#EDD6B9"/>
<stop offset="1" stop-color="#D4B492"/>
</linearGradient>
<radialGradient id="paint20_radial_2720_103923" cx="0" cy="0" r="1" gradientUnits="userSpaceOnUse" gradientTransform="translate(31.9239 296.171) scale(34.9845 34.9734)">
<stop stop-color="#A48A7B"/>
<stop offset="1" stop-color="white"/>
</radialGradient>
<linearGradient id="paint21_linear_2720_103923" x1="42.7039" y1="275.78" x2="30.7653" y2="284.43" gradientUnits="userSpaceOnUse">
<stop stop-color="#EDD6B9"/>
<stop offset="1" stop-color="#BF9F7E"/>
</linearGradient>
<radialGradient id="paint22_radial_2720_103923" cx="0" cy="0" r="1" gradientUnits="userSpaceOnUse" gradientTransform="translate(122.098 157.051) scale(211.714 211.647)">
<stop stop-color="#CA9E67"/>
<stop offset="1"/>
</radialGradient>
<radialGradient id="paint23_radial_2720_103923" cx="0" cy="0" r="1" gradientUnits="userSpaceOnUse" gradientTransform="translate(119.648 157.245) scale(180.538 180.481)">
<stop stop-color="#CA9E67"/>
<stop offset="1"/>
</radialGradient>
<radialGradient id="paint24_radial_2720_103923" cx="0" cy="0" r="1" gradientUnits="userSpaceOnUse" gradientTransform="translate(24.2428 286.169) scale(31.4344 31.4245)">
<stop/>
<stop offset="1" stop-color="#A3805F"/>
</radialGradient>
<radialGradient id="paint25_radial_2720_103923" cx="0" cy="0" r="1" gradientUnits="userSpaceOnUse" gradientTransform="translate(156.371 226.224) scale(185.96 185.901)">
<stop stop-color="white"/>
<stop offset="1" stop-color="#A48A7B"/>
</radialGradient>
<radialGradient id="paint26_radial_2720_103923" cx="0" cy="0" r="1" gradientUnits="userSpaceOnUse" gradientTransform="translate(129.644 -69.8241) scale(162.594 162.542)">
<stop stop-color="#A48A7B"/>
<stop offset="1" stop-color="white"/>
</radialGradient>
<radialGradient id="paint27_radial_2720_103923" cx="0" cy="0" r="1" gradientUnits="userSpaceOnUse" gradientTransform="translate(215.825 25.9335) scale(64.9343 64.9137)">
<stop stop-color="#A48A7B"/>
<stop offset="1" stop-color="white"/>
</radialGradient>
<linearGradient id="paint28_linear_2720_103923" x1="204.201" y1="30.8376" x2="182.714" y2="52.0091" gradientUnits="userSpaceOnUse">
<stop stop-color="#BF9F7E"/>
<stop offset="1" stop-color="#EDD6B9"/>
</linearGradient>
<radialGradient id="paint29_radial_2720_103923" cx="0" cy="0" r="1" gradientUnits="userSpaceOnUse" gradientTransform="translate(202.395 6.76909) scale(54.0259 54.0088)">
<stop/>
<stop offset="1" stop-color="#A3805F"/>
</radialGradient>
<radialGradient id="paint30_radial_2720_103923" cx="0" cy="0" r="1" gradientUnits="userSpaceOnUse" gradientTransform="translate(122.806 242.098) scale(151.621 151.573)">
<stop stop-color="#D6B792"/>
<stop offset="1" stop-color="#B09274"/>
</radialGradient>
<radialGradient id="paint31_radial_2720_103923" cx="0" cy="0" r="1" gradientUnits="userSpaceOnUse" gradientTransform="translate(118.289 186.089) scale(124.059 124.02)">
<stop stop-color="white"/>
<stop offset="1" stop-color="#A48A7B"/>
</radialGradient>
<radialGradient id="paint32_radial_2720_103923" cx="0" cy="0" r="1" gradientUnits="userSpaceOnUse" gradientTransform="translate(122.811 170.474) scale(73.1318 73.1086)">
<stop stop-color="#2EA4FF"/>
<stop offset="1" stop-color="#2478F0"/>
</radialGradient>
<radialGradient id="paint33_radial_2720_103923" cx="0" cy="0" r="1" gradientUnits="userSpaceOnUse" gradientTransform="translate(63.7514 79.5555) scale(136.065 136.022)">
<stop stop-color="#00FFFA"/>
<stop offset="1"/>
</radialGradient>
<radialGradient id="paint34_radial_2720_103923" cx="0" cy="0" r="1" gradientUnits="userSpaceOnUse" gradientTransform="translate(194.903 170.473) scale(8.52021 8.51751)">
<stop stop-color="#2EA4FF"/>
<stop offset="1" stop-color="#2478F0"/>
</radialGradient>
<linearGradient id="paint35_linear_2720_103923" x1="194.9" y1="177.183" x2="194.9" y2="163.762" gradientUnits="userSpaceOnUse">
<stop stop-color="#CAD0EB"/>
<stop offset="0.8" stop-color="#A5ADD1"/>
<stop offset="1" stop-color="#757887"/>
</linearGradient>
<radialGradient id="paint36_radial_2720_103923" cx="0" cy="0" r="1" gradientUnits="userSpaceOnUse" gradientTransform="translate(192.893 168.731) scale(8.58476 8.58204)">
<stop stop-color="#FF5F2B"/>
<stop offset="0.51" stop-color="#D6360B"/>
<stop offset="1" stop-color="#451C00"/>
</radialGradient>
<radialGradient id="paint37_radial_2720_103923" cx="0" cy="0" r="1" gradientUnits="userSpaceOnUse" gradientTransform="translate(190.955 166.021) scale(10.3921 10.3888)">
<stop stop-color="#E94E1B"/>
<stop offset="1"/>
</radialGradient>
<radialGradient id="paint38_radial_2720_103923" cx="0" cy="0" r="1" gradientUnits="userSpaceOnUse" gradientTransform="translate(188.694 163.891) scale(10.263 10.2597)">
<stop stop-color="#E94E1B"/>
<stop offset="1"/>
</radialGradient>
<radialGradient id="paint39_radial_2720_103923" cx="0" cy="0" r="1" gradientUnits="userSpaceOnUse" gradientTransform="translate(195.221 169.376) scale(9.8757 9.87257)">
<stop stop-color="#E94E1B"/>
<stop offset="1"/>
</radialGradient>
<linearGradient id="paint40_linear_2720_103923" x1="195.68" y1="175.119" x2="195.68" y2="165.827" gradientUnits="userSpaceOnUse">
<stop stop-color="#C7DBF0"/>
<stop offset="1" stop-color="#EAEDFF"/>
</linearGradient>
<radialGradient id="paint41_radial_2720_103923" cx="0" cy="0" r="1" gradientUnits="userSpaceOnUse" gradientTransform="translate(50.7135 170.473) rotate(180) scale(8.52021 8.51751)">
<stop stop-color="#2EA4FF"/>
<stop offset="1" stop-color="#2478F0"/>
</radialGradient>
<linearGradient id="paint42_linear_2720_103923" x1="50.7108" y1="177.183" x2="50.7108" y2="163.762" gradientUnits="userSpaceOnUse">
<stop stop-color="#CAD0EB"/>
<stop offset="0.8" stop-color="#A5ADD1"/>
<stop offset="1" stop-color="#757887"/>
</linearGradient>
<radialGradient id="paint43_radial_2720_103923" cx="0" cy="0" r="1" gradientUnits="userSpaceOnUse" gradientTransform="translate(48.7835 -20.5258) scale(3.22735 3.22633)">
<stop stop-color="#FF5F2B"/>
<stop offset="0.51" stop-color="#D6360B"/>
<stop offset="1" stop-color="#451C00"/>
</radialGradient>
<radialGradient id="paint44_radial_2720_103923" cx="0" cy="0" r="1" gradientUnits="userSpaceOnUse" gradientTransform="translate(46.7815 -20.5256) scale(10.3921 10.3888)">
<stop stop-color="#E94E1B"/>
<stop offset="1"/>
</radialGradient>
<radialGradient id="paint45_radial_2720_103923" cx="0" cy="0" r="1" gradientUnits="userSpaceOnUse" gradientTransform="translate(44.589 163.891) scale(10.263 10.2597)">
<stop stop-color="#E94E1B"/>
<stop offset="1"/>
</radialGradient>
<radialGradient id="paint46_radial_2720_103923" cx="0" cy="0" r="1" gradientUnits="userSpaceOnUse" gradientTransform="translate(51.1098 169.376) scale(9.8757 9.87257)">
<stop stop-color="#E94E1B"/>
<stop offset="1"/>
</radialGradient>
<linearGradient id="paint47_linear_2720_103923" x1="49.9379" y1="175.118" x2="49.9379" y2="165.827" gradientUnits="userSpaceOnUse">
<stop stop-color="#C7DBF0"/>
<stop offset="1" stop-color="#EAEDFF"/>
</linearGradient>
<radialGradient id="paint48_radial_2720_103923" cx="0" cy="0" r="1" gradientUnits="userSpaceOnUse" gradientTransform="translate(122.825 242.55) scale(8.52021 8.51752)">
<stop stop-color="#2EA4FF"/>
<stop offset="1" stop-color="#2478F0"/>
</radialGradient>
<linearGradient id="paint49_linear_2720_103923" x1="122.822" y1="249.196" x2="122.822" y2="235.839" gradientUnits="userSpaceOnUse">
<stop stop-color="#CAD0EB"/>
<stop offset="0.8" stop-color="#A5ADD1"/>
<stop offset="1" stop-color="#757887"/>
</linearGradient>
<radialGradient id="paint50_radial_2720_103923" cx="0" cy="0" r="1" gradientUnits="userSpaceOnUse" gradientTransform="translate(120.83 240.807) scale(8.58476 8.58203)">
<stop stop-color="#FF5F2B"/>
<stop offset="0.51" stop-color="#D6360B"/>
<stop offset="1" stop-color="#451C00"/>
</radialGradient>
<radialGradient id="paint51_radial_2720_103923" cx="0" cy="0" r="1" gradientUnits="userSpaceOnUse" gradientTransform="translate(118.893 238.097) scale(10.3921 10.3888)">
<stop stop-color="#E94E1B"/>
<stop offset="1"/>
</radialGradient>
<radialGradient id="paint52_radial_2720_103923" cx="0" cy="0" r="1" gradientUnits="userSpaceOnUse" gradientTransform="translate(116.698 235.967) scale(10.263 10.2597)">
<stop stop-color="#E94E1B"/>
<stop offset="1"/>
</radialGradient>
<radialGradient id="paint53_radial_2720_103923" cx="0" cy="0" r="1" gradientUnits="userSpaceOnUse" gradientTransform="translate(123.157 241.452) scale(9.8757 9.87257)">
<stop stop-color="#E94E1B"/>
<stop offset="1"/>
</radialGradient>
<linearGradient id="paint54_linear_2720_103923" x1="118.242" y1="243.324" x2="127.472" y2="243.324" gradientUnits="userSpaceOnUse">
<stop stop-color="#C7DBF0"/>
<stop offset="1" stop-color="#EAEDFF"/>
</linearGradient>
<radialGradient id="paint55_radial_2720_103923" cx="0" cy="0" r="1" gradientUnits="userSpaceOnUse" gradientTransform="translate(122.825 98.3974) rotate(180) scale(8.52021 8.51751)">
<stop stop-color="#2EA4FF"/>
<stop offset="1" stop-color="#2478F0"/>
</radialGradient>
<linearGradient id="paint56_linear_2720_103923" x1="122.822" y1="105.108" x2="122.822" y2="91.751" gradientUnits="userSpaceOnUse">
<stop stop-color="#CAD0EB"/>
<stop offset="0.8" stop-color="#A5ADD1"/>
<stop offset="1" stop-color="#757887"/>
</linearGradient>
<radialGradient id="paint57_radial_2720_103923" cx="0" cy="0" r="1" gradientUnits="userSpaceOnUse" gradientTransform="translate(120.83 96.7201) scale(3.22735 3.22633)">
<stop stop-color="#FF5F2B"/>
<stop offset="0.51" stop-color="#D6360B"/>
<stop offset="1" stop-color="#451C00"/>
</radialGradient>
<radialGradient id="paint58_radial_2720_103923" cx="0" cy="0" r="1" gradientUnits="userSpaceOnUse" gradientTransform="translate(118.893 94.0095) scale(10.3921 10.3888)">
<stop stop-color="#E94E1B"/>
<stop offset="1"/>
</radialGradient>
<radialGradient id="paint59_radial_2720_103923" cx="0" cy="0" r="1" gradientUnits="userSpaceOnUse" gradientTransform="translate(116.698 91.8806) scale(10.263 10.2597)">
<stop stop-color="#E94E1B"/>
<stop offset="1"/>
</radialGradient>
<radialGradient id="paint60_radial_2720_103923" cx="0" cy="0" r="1" gradientUnits="userSpaceOnUse" gradientTransform="translate(123.221 97.3649) scale(9.8757 9.87257)">
<stop stop-color="#E94E1B"/>
<stop offset="1"/>
</radialGradient>
<linearGradient id="paint61_linear_2720_103923" x1="118.242" y1="97.6231" x2="127.472" y2="97.6231" gradientUnits="userSpaceOnUse">
<stop stop-color="#C7DBF0"/>
<stop offset="1" stop-color="#EAEDFF"/>
</linearGradient>
<radialGradient id="paint62_radial_2720_103923" cx="0" cy="0" r="1" gradientUnits="userSpaceOnUse" gradientTransform="translate(114.738 260.617) scale(45.8929 45.8784)">
<stop stop-color="#FF9633"/>
<stop offset="1" stop-color="#FA5819"/>
</radialGradient>
<radialGradient id="paint63_radial_2720_103923" cx="0" cy="0" r="1" gradientUnits="userSpaceOnUse" gradientTransform="translate(124.093 243.711) scale(58.286 58.2674)">
<stop offset="0.7" stop-color="white"/>
<stop offset="0.71" stop-color="#FBFAF9"/>
<stop offset="0.77" stop-color="#E6D9D5"/>
<stop offset="0.83" stop-color="#D4BFB8"/>
<stop offset="0.88" stop-color="#C8ACA4"/>
<stop offset="0.94" stop-color="#C1A198"/>
<stop offset="1" stop-color="#BF9E94"/>
</radialGradient>
<radialGradient id="paint64_radial_2720_103923" cx="0" cy="0" r="1" gradientUnits="userSpaceOnUse" gradientTransform="translate(113.705 251.97) scale(52.7995 52.7827)">
<stop stop-color="#FF7B00"/>
<stop offset="1" stop-color="#471808"/>
</radialGradient>
<radialGradient id="paint65_radial_2720_103923" cx="0" cy="0" r="1" gradientUnits="userSpaceOnUse" gradientTransform="translate(109.763 260.101) scale(40.6001 40.5873)">
<stop stop-color="#FFFBD9"/>
<stop offset="1"/>
</radialGradient>
<radialGradient id="paint66_radial_2720_103923" cx="0" cy="0" r="1" gradientUnits="userSpaceOnUse" gradientTransform="translate(159.466 294.171) scale(38.2118 38.1998)">
<stop stop-color="#FFFBD9"/>
<stop offset="1"/>
</radialGradient>
<linearGradient id="paint67_linear_2720_103923" x1="117.777" y1="283.653" x2="117.777" y2="268.166" gradientUnits="userSpaceOnUse">
<stop stop-color="white"/>
<stop offset="1" stop-color="#FCFFC9"/>
</linearGradient>
<linearGradient id="paint68_linear_2720_103923" x1="133.523" y1="283.395" x2="133.523" y2="268.424" gradientUnits="userSpaceOnUse">
<stop stop-color="white"/>
<stop offset="1" stop-color="#FCFFC9"/>
</linearGradient>
</defs>
</svg>
