<svg width="498" height="708" viewBox="0 0 498 708" fill="none" xmlns="http://www.w3.org/2000/svg">
    <path fill-rule="evenodd" clip-rule="evenodd"
        d="M478.711 48.9048L497.36 67.5478C487.71 280.704 480.928 491.643 485.101 707.016C331.867 697.108 178.894 697.499 22.6605 707.016L7.40234 691.762L478.711 48.9048Z"
        fill="#12458C" />
    <path fill-rule="evenodd" clip-rule="evenodd"
        d="M0.359375 57.7698C159.853 49.8172 319.217 46.1668 478.71 48.9046C476.754 262.061 474.276 476.39 469.842 691.893C315.695 687.59 161.549 687.982 7.40162 691.893C4.79338 480.562 2.96761 269.101 0.359375 57.7698Z"
        fill="url(#paint0_radial_465_5662)" />
    <path style="mix-blend-mode:screen" fill-rule="evenodd" clip-rule="evenodd"
        d="M94.6469 76.1523C103.776 68.5908 112.513 60.6382 120.99 52.6855C118.643 52.6855 116.295 52.8159 114.078 52.9463C97.3856 69.7641 81.7361 83.453 65.0434 95.5775C46.1336 109.397 25.7894 121.261 1.40234 133.515V140.686C33.2229 123.216 60.7398 104.443 94.7773 76.1523H94.6469Z"
        fill="url(#paint1_radial_465_5662)" />
    <path style="mix-blend-mode:screen" fill-rule="evenodd" clip-rule="evenodd"
        d="M320 48.2529C272.008 102.617 213.453 140.686 152.681 168.194C102.603 190.878 50.9596 206.262 2.18555 217.604V221.646C34.6581 215.127 67.0003 207.305 98.56 197.136C110.036 198.57 118.513 197.527 120.208 196.354C123.99 193.486 126.599 190.357 129.207 186.315C137.553 183.056 145.9 179.667 154.115 175.886C219.713 146.422 276.051 101.053 323.912 48.1226H319.869L320 48.2529Z"
        fill="url(#paint2_radial_465_5662)" />
    <path style="mix-blend-mode:screen" fill-rule="evenodd" clip-rule="evenodd"
        d="M205.888 231.684C136.379 258.019 67.2603 286.701 3.09766 293.871V301.172C39.7434 297.782 68.8253 289.438 114.469 272.229C154.506 257.237 193.76 240.158 233.536 224.253C252.054 216.822 270.703 209.651 289.222 202.09C373.076 168.454 424.067 147.465 478.188 112.656V104.964C462.409 115.524 446.238 125.562 429.545 135.079C357.036 176.277 283.092 202.481 205.888 231.684Z"
        fill="url(#paint3_radial_465_5662)" />
    <path style="mix-blend-mode:screen" fill-rule="evenodd" clip-rule="evenodd"
        d="M315.044 262.712C210.193 308.342 105.211 359.578 3.88086 366.748V373.918C40.2658 373.006 70.1301 366.618 115.253 350.973C201.064 321.249 297.047 273.142 383.51 234.031C360.688 243.157 337.866 252.804 315.044 262.712Z"
        fill="url(#paint4_radial_465_5662)" />
    <path style="mix-blend-mode:screen" fill-rule="evenodd" clip-rule="evenodd"
        d="M77.0423 425.676C53.6985 431.282 30.6156 435.062 4.5332 437.539V443.015C82.5196 434.671 134.163 415.507 214.105 378.481C170.287 396.733 125.295 414.073 76.9118 425.676H77.0423Z"
        fill="url(#paint5_radial_465_5662)" />
    <path style="mix-blend-mode:screen" fill-rule="evenodd" clip-rule="evenodd"
        d="M191.153 446.535C125.947 465.178 68.9566 481.474 5.05469 487.602V491.122C54.8721 485.777 90.6049 476.781 150.725 459.702C173.677 453.184 196.369 446.665 219.061 440.277C256.619 429.717 294.178 419.809 332.65 411.726C382.336 401.427 428.372 396.473 474.668 398.298V393.474C474.016 393.474 473.234 393.474 472.451 393.474C387.553 392.692 302.655 414.855 220.886 438.191C210.845 441.06 200.933 443.928 191.022 446.665L191.153 446.535Z"
        fill="url(#paint6_radial_465_5662)" />
    <path style="mix-blend-mode:screen" fill-rule="evenodd" clip-rule="evenodd"
        d="M93.7345 579.252C63.4789 583.424 34.0058 586.162 6.09766 587.205V595.157C35.962 593.984 62.566 591.898 89.3005 587.987C126.598 582.642 163.896 574.037 209.28 560.74C263.27 544.965 315.565 524.497 370.469 509.243C407.766 498.944 441.022 494.902 473.233 497.119V493.729C401.637 488.384 330.954 519.412 245.273 545.747C196.63 560.609 146.03 571.56 97.386 578.6C96.0819 578.731 94.9082 578.991 93.6041 579.122L93.7345 579.252Z"
        fill="url(#paint7_radial_465_5662)" />
    <path style="mix-blend-mode:multiply" opacity="0.55" fill-rule="evenodd" clip-rule="evenodd"
        d="M96.7343 572.734C230.276 553.048 354.428 479.78 473.494 488.254C473.755 468.046 474.146 447.839 474.407 427.762C429.937 423.981 383.641 428.935 343.343 435.062C389.379 420.331 433.719 411.726 474.538 411.335C474.538 405.338 474.668 399.471 474.799 393.474C474.016 393.474 473.364 393.474 472.582 393.474C377.381 392.562 282.05 420.722 191.153 446.665C125.947 465.308 68.9565 481.605 5.05469 487.732C5.31551 514.328 5.57634 540.923 5.96757 567.519C33.2237 571.952 67.0004 574.689 96.7343 572.864V572.734Z"
        fill="url(#paint8_radial_465_5662)" />
    <path style="mix-blend-mode:multiply" opacity="0.55" fill-rule="evenodd" clip-rule="evenodd"
        d="M3.74972 354.884C103.515 349.67 207.975 304.301 311.913 259.062C367.469 234.943 422.763 209.391 477.406 190.096C477.667 161.675 478.058 133.254 478.319 104.964C462.539 115.524 446.368 125.562 429.545 135.079C357.036 176.277 283.092 202.481 205.888 231.684C136.379 258.019 67.2603 286.701 3.09766 293.871C3.35848 314.209 3.48889 334.547 3.74972 354.884ZM99.7329 281.095C208.496 241.983 319.999 204.046 426.284 150.202C345.429 221.646 217.495 247.72 99.7329 281.095Z"
        fill="url(#paint9_radial_465_5662)" />
    <path style="mix-blend-mode:multiply" opacity="0.55" fill-rule="evenodd" clip-rule="evenodd"
        d="M149.811 164.283C207.453 138.209 262.356 99.7493 308.261 48.3833C275.267 48.644 242.273 49.2959 209.148 50.0781C165.591 91.7967 127.249 108.875 70.7811 126.084C110.557 101.444 137.943 80.0634 163.634 51.3818C147.072 51.9033 130.51 52.4248 113.947 53.0766C97.2547 69.8945 81.6053 83.5834 64.9125 95.7078C46.0028 109.527 25.6585 121.391 1.27148 133.646C1.53231 159.068 1.79313 184.36 2.18437 209.782C50.0456 199.874 100.906 186.576 149.811 164.413V164.283Z"
        fill="url(#paint10_radial_465_5662)" />
    <g style="mix-blend-mode:multiply">
        <path fill-rule="evenodd" clip-rule="evenodd"
            d="M476.363 270.274C463.582 271.187 450.933 272.621 437.109 274.837C393.16 282.138 347.255 302.085 306.045 319.163C276.702 331.418 239.926 349.409 209.801 357.231C263.27 336.502 323.129 303.519 369.555 287.353C402.68 275.88 440.369 267.667 476.363 267.927V270.144V270.274Z"
            fill="#C0E5ED" />
    </g>
    <g style="mix-blend-mode:multiply">
        <path fill-rule="evenodd" clip-rule="evenodd"
            d="M91.7784 246.677C59.045 254.63 31.6585 259.844 2.70703 261.67V268.97C32.3105 266.884 60.0883 261.148 93.2129 252.674C155.68 236.508 228.32 208.87 286.092 180.188C293.656 176.407 291.309 177.581 298.612 173.409C289.874 176.668 293.917 175.104 285.44 178.754C222.582 205.741 158.289 230.511 91.648 246.677H91.7784Z"
            fill="#C0E5ED" />
    </g>
    <path style="mix-blend-mode:screen" fill-rule="evenodd" clip-rule="evenodd"
        d="M367.73 625.925C290.005 635.703 219.191 644.568 150.203 649.522C232.102 646.263 305.133 638.31 388.466 628.793C420.547 625.143 446.238 621.623 471.277 620.45V614.453C436.849 616.147 401.246 621.623 367.73 625.795V625.925Z"
        fill="url(#paint11_radial_465_5662)" />
    <g style="mix-blend-mode:multiply">
        <path fill-rule="evenodd" clip-rule="evenodd"
            d="M472.972 521.628C439.717 517.065 404.897 521.368 362.513 533.101C336.822 540.141 312.043 549.788 286.613 557.871C279.832 559.957 282.049 559.305 275.137 561C282.049 557.871 278.919 559.175 286.091 556.437C310.478 546.92 336.3 536.491 361.339 529.059C403.853 516.283 439.195 511.199 473.102 515.24V521.759L472.972 521.628Z"
            fill="#C0E5ED" />
    </g>
    <g style="mix-blend-mode:multiply">
        <path fill-rule="evenodd" clip-rule="evenodd"
            d="M76.1283 603.241C53.1758 606.5 30.0928 609.107 6.48828 610.541V616.278C28.2671 614.583 49.7851 611.975 71.303 608.716C107.949 603.11 144.334 595.288 180.458 586.292C186.978 584.598 184.37 585.38 190.891 583.424C183.457 584.337 176.806 585.51 169.503 586.944C137.291 593.202 106.645 598.808 76.1283 603.241Z"
            fill="#C0E5ED" />
    </g>
    <path style="mix-blend-mode:screen" fill-rule="evenodd" clip-rule="evenodd"
        d="M333.172 310.428C380.642 291.264 420.939 277.444 474.799 270.404C462.671 271.317 450.542 272.751 437.24 274.837C403.724 280.312 369.296 293.219 336.432 306.647C326.129 310.819 315.957 315.121 306.176 319.163C278.659 330.636 244.752 347.062 215.801 355.667C248.273 347.062 273.965 334.807 304.872 322.031C314.653 317.99 324.043 314.078 333.172 310.428Z"
        fill="url(#paint12_radial_465_5662)" />
    <path style="mix-blend-mode:screen" fill-rule="evenodd" clip-rule="evenodd"
        d="M2.83789 274.185C27.3553 272.099 54.2202 267.275 82.9108 258.801C109.906 250.849 135.597 241.723 161.419 231.945C138.206 239.897 115.123 246.937 93.3438 252.674C60.2192 261.278 32.311 266.884 2.83789 268.97V274.055V274.185Z"
        fill="url(#paint13_radial_465_5662)" />
    <path style="mix-blend-mode:screen" fill-rule="evenodd" clip-rule="evenodd"
        d="M360.428 533.623C400.986 523.714 438.153 519.412 472.973 524.627V521.628C439.718 517.066 405.029 521.368 362.514 533.101C361.862 533.231 361.08 533.492 360.428 533.623Z"
        fill="url(#paint14_radial_465_5662)" />
    <g style="mix-blend-mode:multiply">
        <path
            d="M6.88086 642.613V653.303C124.512 656.432 236.015 642.482 367.731 625.925C401.247 621.753 436.849 616.147 471.408 614.583C471.408 609.499 471.539 604.284 471.669 599.199C335.649 600.633 316.479 650.174 6.88086 642.613Z"
            fill="#C0E5ED" />
        <path
            d="M113.949 52.9463C111.471 52.9463 108.993 53.0767 106.515 53.207C91.5181 68.4604 76.5207 81.3671 61.9145 92.0575C44.4393 104.703 24.3559 116.306 1.14258 127.258V133.515C25.66 121.13 45.8739 109.397 64.914 95.5775C81.6068 83.453 97.2562 69.7641 113.949 52.9463Z"
            fill="#C0E5ED" />
        <path
            d="M320 48.2529C316.087 48.2529 312.175 48.2529 308.262 48.2529C262.357 99.619 207.454 138.078 149.812 164.152C100.907 186.315 50.0467 199.613 2.18555 209.521V217.604C50.9596 206.262 102.603 190.748 152.681 168.194C213.453 140.686 272.008 102.487 320 48.2529Z"
            fill="#C0E5ED" />
        <path
            d="M92.952 573.256C64.3918 577.297 33.4842 578.21 6.09766 577.167V587.336C34.0058 586.162 63.6093 583.555 93.7345 579.383C143.552 572.473 195.456 561.392 245.404 546.008C331.084 519.804 401.768 488.645 473.364 493.99V488.384C353.385 479.78 227.928 554.613 92.952 573.386V573.256Z"
            fill="#C0E5ED" />
        <path
            d="M5.05469 479.128V487.602C69.087 481.475 126.077 465.178 191.283 446.535C282.18 420.592 377.511 392.432 472.712 393.344C473.494 393.344 474.147 393.344 474.929 393.344V381.48C384.423 382.263 296.786 411.466 189.588 442.103C125.034 460.485 68.1741 474.174 5.05469 479.128Z"
            fill="#C0E5ED" />
        <path
            d="M203.934 227.513C135.467 253.456 66.2185 277.184 2.96875 282.138V294.002C67.2618 286.701 136.38 258.15 205.89 231.815C283.094 202.612 357.037 176.407 429.546 135.21C446.239 125.693 462.41 115.785 478.32 105.095C478.32 99.4887 478.32 93.8828 478.451 88.2769C395.639 148.117 305.133 189.314 204.064 227.513H203.934Z"
            fill="#C0E5ED" />
        <path
            d="M4.5332 428.414V437.54C30.6156 434.932 53.6985 431.282 77.0423 425.676C220.626 391.128 334.084 307.299 476.233 293.089V284.875C333.823 301.041 222.843 389.433 74.9557 418.245C52.0032 422.677 29.7027 426.067 4.5332 428.544V428.414Z"
            fill="#C0E5ED" />
        <path
            d="M392.249 223.862C365.514 235.335 338.78 247.329 311.785 259.062C207.846 304.301 103.386 349.67 3.62109 354.885V366.618C105.082 359.448 210.063 308.212 314.914 262.582C341.258 251.11 367.601 240.028 393.814 229.729C410.246 223.471 426.808 229.338 437.241 232.076C444.674 234.031 450.412 237.03 458.628 235.987C464.627 235.335 470.757 234.422 476.756 233.51V225.948C470.496 227.252 464.236 228.295 457.846 229.207C450.804 230.25 444.544 228.425 437.763 226.6C431.112 224.905 423.678 222.428 414.419 221.646C435.415 213.824 456.281 206.523 477.147 200.004V189.835C449.108 199.744 420.679 211.347 392.249 223.601V223.862Z"
            fill="#C0E5ED" />
    </g>
    <path fill-rule="evenodd" clip-rule="evenodd"
        d="M485.101 707.016L469.843 691.762C315.696 687.46 161.549 687.851 7.40234 691.762L22.6605 707.016C178.894 697.499 331.737 697.108 485.101 707.016Z"
        fill="url(#paint15_linear_465_5662)" />
    <path fill-rule="evenodd" clip-rule="evenodd"
        d="M469.842 691.893L485.1 707.146C480.927 491.644 487.708 280.704 497.359 67.6782L478.71 49.0352C478.71 62.0722 478.449 75.2397 478.319 88.2767C478.319 93.8827 478.319 99.4886 478.188 105.095C478.188 107.702 478.188 110.309 478.188 112.786C477.927 138.6 477.667 164.413 477.406 190.227C477.406 193.616 477.406 197.006 477.406 200.395C477.406 209 477.275 217.604 477.145 226.209C477.145 228.686 477.145 231.163 477.145 233.77C477.145 245.243 476.884 256.716 476.754 268.188C476.754 268.97 476.754 269.622 476.754 270.405C476.754 275.228 476.754 280.052 476.623 284.876C476.623 287.613 476.623 290.351 476.623 293.089C476.232 322.553 475.841 352.147 475.45 381.611V393.474C475.319 395.039 475.189 396.734 475.189 398.298C475.189 402.6 475.189 406.903 475.058 411.335C475.058 416.811 474.928 422.286 474.797 427.762C474.537 447.969 474.276 468.177 473.885 488.254V493.86C473.885 495.033 473.885 496.076 473.754 497.249C473.754 503.116 473.624 509.113 473.493 514.98C473.493 517.196 473.493 519.282 473.493 521.498C473.493 522.541 473.493 523.454 473.493 524.497C473.102 549.398 472.711 574.298 472.189 599.199C472.189 604.284 472.059 609.499 471.928 614.583C471.928 616.539 471.928 618.625 471.928 620.58C471.537 644.308 471.015 668.165 470.494 691.893H469.842Z"
        fill="url(#paint16_linear_465_5662)" />
    <path style="mix-blend-mode:screen" fill-rule="evenodd" clip-rule="evenodd"
        d="M4.01136 61.5506C161.419 51.9031 317.391 52.0335 475.19 53.2068C475.711 86.5817 476.755 119.826 477.798 153.071C478.189 118.262 478.45 83.5832 478.841 48.9046C319.347 46.1668 159.984 49.8172 0.490234 57.7698C0.751058 82.9313 1.14229 108.223 1.40312 133.385C2.57683 109.266 3.62012 85.278 4.14177 61.5506H4.01136Z"
        fill="url(#paint17_radial_465_5662)" />
    <path style="mix-blend-mode:multiply" fill-rule="evenodd" clip-rule="evenodd"
        d="M457.582 55.4232C457.582 80.4543 437.368 100.662 412.329 100.662C387.29 100.662 367.076 80.4543 367.076 55.4232C367.076 30.392 387.29 10.1846 412.329 10.1846C437.368 10.1846 457.582 30.392 457.582 55.4232Z"
        fill="url(#paint18_radial_465_5662)" />
    <path fill-rule="evenodd" clip-rule="evenodd"
        d="M365.904 46.9493L371.642 41.213C376.337 40.9523 380.902 41.213 385.205 41.9952C382.597 43.1686 367.991 48.1227 365.904 46.9493Z"
        fill="url(#paint19_linear_465_5662)" />
    <path fill-rule="evenodd" clip-rule="evenodd"
        d="M415.851 1.44971C441.672 1.84082 461.103 25.1772 460.321 49.6868C459.539 74.1965 441.933 92.4484 417.546 93.4914C393.159 94.5343 368.772 74.1965 367.729 50.3387L373.206 44.7328C376.205 43.8202 379.335 42.9076 382.465 41.995C379.987 41.995 377.901 41.995 375.944 41.995L415.851 1.44971Z"
        fill="url(#paint20_linear_465_5662)" />
    <path fill-rule="evenodd" clip-rule="evenodd"
        d="M411.156 0.0157389C437.76 0.667592 457.453 20.0928 456.54 45.3847C455.627 70.6766 437.239 90.493 412.2 90.493C387.161 90.493 368.251 71.3285 365.903 47.9921C368.12 46.1669 370.598 45.5151 373.076 44.7329C376.076 43.8203 379.205 42.9077 382.335 41.9951C379.857 41.9951 377.771 41.9951 375.815 41.9951C372.424 41.9951 369.425 41.9951 365.643 42.3862C366.295 19.0499 385.726 -0.636114 411.156 0.0157389Z"
        fill="url(#paint21_radial_465_5662)" />
    <path style="mix-blend-mode:multiply" fill-rule="evenodd" clip-rule="evenodd"
        d="M431.762 78.7597C405.941 84.6263 376.859 71.85 365.904 48.1226C368.382 71.4589 388.074 90.493 412.201 90.493C427.85 90.493 440.891 82.8011 448.716 70.807C443.76 74.5878 438.153 77.3256 431.762 78.7597Z"
        fill="url(#paint22_radial_465_5662)" />
    <g style="mix-blend-mode:multiply">
        <path
            d="M372.294 20.7446C394.594 31.0439 421.068 19.0498 442.064 11.6187C442.847 12.2705 443.629 13.0527 444.281 13.7046C422.111 21.0053 392.377 31.9565 370.729 23.4824C371.251 22.5698 371.772 21.6572 372.294 20.7446ZM365.904 46.9491C392.247 39.2572 426.545 28.6972 453.41 27.5239C453.671 28.1757 453.932 28.6972 454.062 29.3491C426.154 28.8276 392.508 43.2987 366.165 50.2084C366.034 49.1654 365.904 48.1224 365.773 46.9491H365.904ZM368.382 58.8128C398.637 52.8158 424.589 46.558 456.149 50.2084C456.149 50.8602 456.019 51.6424 455.888 52.2943C423.546 46.2972 399.289 55.6839 369.555 61.8113C369.164 60.7684 368.773 59.8558 368.382 58.8128ZM373.989 70.0247C391.334 68.9817 417.938 66.244 442.977 77.9773C442.195 78.7595 441.412 79.5418 440.499 80.1936C417.677 68.9817 400.985 68.721 374.902 71.3284C374.641 70.9373 374.25 70.4158 373.989 70.0247Z"
            fill="#C0E5ED" />
    </g>
    <path style="mix-blend-mode:multiply" opacity="0.5" fill-rule="evenodd" clip-rule="evenodd"
        d="M455.887 52.2946C423.545 46.2975 399.289 55.6842 369.555 61.8116C370.728 64.6798 372.293 67.4176 373.989 70.025C391.333 68.982 417.938 66.2442 442.977 77.9776C449.628 71.3287 454.192 62.4635 455.757 52.425L455.887 52.2946Z"
        fill="url(#paint23_radial_465_5662)" />
    <path style="mix-blend-mode:screen" fill-rule="evenodd" clip-rule="evenodd"
        d="M389.899 27.7846C401.505 27.5239 412.851 24.0039 425.11 19.832C414.025 23.2217 402.288 26.0898 391.203 26.4809C383.9 26.7417 376.988 25.9595 370.728 23.4824C371.25 22.5698 371.772 21.6572 372.293 20.7446C371.511 22.0483 370.728 23.352 370.076 24.7861C376.858 27.1328 383.378 27.915 389.899 27.7846Z"
        fill="url(#paint24_radial_465_5662)" />
    <path style="mix-blend-mode:screen" fill-rule="evenodd" clip-rule="evenodd"
        d="M402.549 39.5181C419.764 34.3033 436.717 30.6529 454.714 30.9136C454.584 30.3921 454.323 29.8707 454.193 29.3492C426.284 28.8277 392.638 43.2988 366.295 50.2085C366.295 50.73 366.425 51.1211 366.556 51.6426C378.554 47.6011 390.552 43.2988 402.549 39.5181Z"
        fill="url(#paint25_radial_465_5662)" />
    <path style="mix-blend-mode:screen" fill-rule="evenodd" clip-rule="evenodd"
        d="M386.378 58.0305C412.461 52.8156 431.762 49.0349 455.366 54.6408C455.497 53.8586 455.627 53.2067 455.758 52.4245C429.675 47.6008 408.94 52.8156 386.248 58.1608L386.378 58.0305Z"
        fill="url(#paint26_radial_465_5662)" />
    <path style="mix-blend-mode:screen" fill-rule="evenodd" clip-rule="evenodd"
        d="M376.337 73.1535C400.072 68.8513 417.678 69.3727 439.587 81.1061C439.978 80.8453 440.239 80.5846 440.63 80.1935C417.808 68.9816 401.116 68.7209 375.033 71.3283C375.424 71.9801 375.946 72.5016 376.337 73.1535Z"
        fill="url(#paint27_radial_465_5662)" />
    <path style="mix-blend-mode:screen" fill-rule="evenodd" clip-rule="evenodd"
        d="M366.033 38.9964C371.511 13.3134 393.681 0.667464 415.198 2.23191C430.196 3.27488 444.802 11.2275 453.018 26.3505C448.975 16.9638 441.542 9.53267 432.022 4.83933C425.892 1.8408 418.85 0.145982 411.156 0.0156109C386.899 -0.505872 368.25 17.2245 366.033 38.9964Z"
        fill="url(#paint28_radial_465_5662)" />
    <path style="mix-blend-mode:multiply" fill-rule="evenodd" clip-rule="evenodd"
        d="M450.671 50.4691C450.671 71.5891 433.456 88.7981 412.329 88.7981C391.203 88.7981 373.988 71.5891 373.988 50.4691C373.988 29.3491 391.203 12.1401 412.329 12.1401C433.456 12.1401 450.671 29.3491 450.671 50.4691Z"
        fill="url(#paint29_radial_465_5662)" />
    <path fill-rule="evenodd" clip-rule="evenodd"
        d="M412.331 84.4958C432.936 84.4958 452.889 66.1136 451.585 45.2543C450.28 24.395 433.979 6.0127 412.331 6.0127C390.682 6.0127 372.685 21.5268 373.077 45.2543C373.468 68.9817 391.725 84.4958 412.331 84.4958Z"
        fill="url(#paint30_radial_465_5662)" />
    <path style="mix-blend-mode:multiply" fill-rule="evenodd" clip-rule="evenodd"
        d="M442.977 41.7343C444.151 60.1165 426.545 76.4129 408.287 76.4129C390.16 76.4129 373.989 62.7239 373.598 41.7343C373.598 39.6483 373.598 37.6928 373.989 35.8676C373.337 38.8661 373.076 41.995 373.076 45.3846C373.467 69.1121 391.725 84.6262 412.33 84.6262C432.935 84.6262 452.888 66.2439 451.584 45.3846C450.28 24.5253 433.979 6.14307 412.33 6.14307C407.896 6.14307 403.593 6.79492 399.55 8.09863C402.419 7.44677 405.288 7.05566 408.287 7.05566C427.458 7.05566 441.803 23.352 442.977 41.7343Z"
        fill="url(#paint31_radial_465_5662)" />
    <path style="mix-blend-mode:screen" fill-rule="evenodd" clip-rule="evenodd"
        d="M377.642 28.1757C374.773 33.7817 373.208 45.3846 376.077 52.8158C377.251 55.9447 382.337 61.8113 385.727 59.595C394.726 53.9891 400.594 43.8202 413.505 37.3017C417.939 35.0854 424.199 32.9994 428.894 31.6957C434.241 30.2616 435.414 26.7416 432.545 21.2661C428.503 13.3135 420.287 8.22901 408.549 7.70752C394.987 7.18604 383.38 16.4424 377.511 28.1757H377.642Z"
        fill="url(#paint32_radial_465_5662)" />
    <path style="mix-blend-mode:screen" fill-rule="evenodd" clip-rule="evenodd"
        d="M402.549 10.1845C397.854 11.0971 390.16 14.8778 388.334 19.0497C386.769 22.7 390.551 23.3519 394.072 22.4393C398.115 21.3963 402.94 19.3104 406.201 16.9637C410.243 14.0956 408.548 9.01113 402.549 10.1845Z"
        fill="url(#paint33_radial_465_5662)" />
    <path style="mix-blend-mode:screen" fill-rule="evenodd" clip-rule="evenodd"
        d="M430.328 77.1952C433.719 76.1523 437.761 73.2841 438.413 70.1552C438.935 67.6782 436.196 67.0263 434.11 67.9389C431.632 68.9819 428.763 70.8071 426.807 72.6323C424.459 74.8486 426.546 78.3686 430.328 77.1952Z"
        fill="url(#paint34_radial_465_5662)" />
    <path fill-rule="evenodd" clip-rule="evenodd"
        d="M398.767 24.3948C399.81 24.3948 400.854 24.9163 401.636 25.6985L412.33 36.78L423.024 25.6985C423.806 24.9163 424.849 24.3948 425.893 24.3948C428.631 24.3948 433.065 28.3059 433.196 30.9133C433.196 32.217 432.805 33.3904 431.892 34.1726L420.546 45.1237L431.892 55.9445C432.674 56.7267 433.196 57.7697 433.196 58.943C433.196 61.6808 429.153 65.983 426.545 66.1134C425.241 66.1134 424.197 65.7223 423.285 64.8097L412.33 53.4674L401.375 64.8097C400.462 65.7223 399.419 66.1134 398.115 66.1134C395.376 66.1134 391.334 61.5504 391.464 58.943C391.464 57.9 391.855 56.7267 392.768 55.9445L404.114 45.1237L392.768 34.1726C391.855 33.26 391.464 32.217 391.464 30.9133C391.594 28.1755 396.159 24.2644 398.767 24.3948Z"
        fill="url(#paint35_linear_465_5662)" />
    <path style="mix-blend-mode:screen" fill-rule="evenodd" clip-rule="evenodd"
        d="M424.588 25.9591C420.284 30.1309 419.11 31.1739 415.198 35.8672C414.807 36.2583 413.764 37.5621 413.894 37.9532C414.416 39.2569 418.98 35.6065 420.023 34.8243C423.023 32.2169 422.892 32.608 425.762 29.7398C426.414 29.088 426.935 28.4361 427.196 27.6539C427.718 25.6983 426.022 24.6554 424.718 25.9591H424.588Z"
        fill="url(#paint36_radial_465_5662)" />
    <path style="mix-blend-mode:screen" fill-rule="evenodd" clip-rule="evenodd"
        d="M398.507 25.4378C397.072 25.4378 395.246 26.8719 395.116 28.3059C394.986 29.3489 395.898 29.3489 396.811 28.9578C397.855 28.5667 398.898 27.7845 399.68 27.1326C400.593 26.22 400.072 25.3074 398.376 25.4378H398.507Z"
        fill="url(#paint37_radial_465_5662)" />
    <path style="mix-blend-mode:multiply" fill-rule="evenodd" clip-rule="evenodd"
        d="M348.56 78.2379C325.477 70.4157 157.115 72.1105 63.2185 78.8898C56.6979 79.4113 51.7423 84.8868 51.8727 91.4054C52.0031 98.0543 52.1335 103.921 52.2639 112.525L85.9102 116.567L52.5248 123.477C53.6985 187.228 53.9593 251.37 53.1768 315.643L70.9128 322.552L52.916 328.028C51.6119 419.679 48.0907 511.46 42.0918 602.719C47.1779 626.316 55.0026 644.307 68.1742 662.038C70.7824 665.558 74.8252 667.383 79.2592 666.861C120.078 662.429 324.564 664.515 419.113 672.598C420.939 672.728 422.504 672.207 423.808 670.903C425.112 669.729 425.764 668.165 425.764 666.34C425.112 639.092 424.72 611.845 424.59 584.597L411.81 575.863L417.939 568.171L417.026 562.043L424.59 557.089C424.59 461.658 427.85 366.748 433.98 272.36L424.329 266.884L429.546 257.889L415.852 250.327L435.936 245.764C438.805 206.523 441.935 171.062 445.847 132.081C426.416 117.74 360.688 82.2794 348.69 78.2379H348.56Z"
        fill="url(#paint38_radial_465_5662)" />
    <path fill-rule="evenodd" clip-rule="evenodd"
        d="M357.296 89.3196C331.996 82.4099 145.507 79.8025 47.046 83.7136C47.4373 96.2292 47.8285 108.875 48.0893 121.521L83.1701 125.563L48.3502 132.212C49.7847 193.355 50.1759 254.76 49.5239 316.425L68.1728 323.074L49.3934 328.289C48.2197 416.028 44.829 504.029 38.8301 591.507C53.045 612.758 67.3903 634.138 81.6052 655.389C87.7346 658.257 338.778 660.734 439.586 659.952C438.673 631.661 438.152 603.241 437.891 575.081L424.458 566.606L430.848 559.306L429.936 553.439L437.76 548.615C437.63 457.226 440.629 366.227 446.889 275.75L436.717 270.404L442.064 261.8L427.719 254.499L448.584 250.197C451.454 212.65 454.844 175.234 458.757 137.817C424.85 121.651 390.942 105.486 357.166 89.3196H357.296Z"
        fill="url(#paint39_linear_465_5662)" />
    <path style="mix-blend-mode:multiply" fill-rule="evenodd" clip-rule="evenodd"
        d="M38.7012 591.247C48.8733 596.461 97.6474 614.974 99.4731 619.537C100.908 623.057 83.1716 648.349 81.4763 655.128C67.2614 633.878 52.9161 612.497 38.7012 591.247Z"
        fill="url(#paint40_radial_465_5662)" />
    <path fill-rule="evenodd" clip-rule="evenodd"
        d="M38.7005 591.247C56.0453 599.721 73.5205 607.934 90.2133 617.712C86.5617 629.967 83.9535 642.482 81.4756 655.128C77.1721 654.998 38.4397 595.81 38.7005 591.247Z"
        fill="url(#paint41_linear_465_5662)" />
    <path style="mix-blend-mode:screen" opacity="0.5" fill-rule="evenodd" clip-rule="evenodd"
        d="M382.075 150.203C392.247 160.632 400.854 172.366 400.593 182.795C399.68 214.345 437.5 196.745 424.85 240.941C417.547 266.493 435.283 270.665 433.066 290.612C431.37 304.822 419.372 308.473 417.025 332.852C414.547 357.883 415.33 392.953 423.154 404.686C440.89 431.412 414.286 475.608 420.416 501.551C424.719 520.194 427.849 544.965 428.11 562.435L424.589 566.476L427.98 568.562C427.849 574.038 427.197 578.47 426.154 581.078C417.677 602.98 412.069 587.335 402.028 616.278C395.507 635.051 373.598 638.049 351.167 634.79C315.043 629.445 290.656 605.978 260.009 605.848C232.883 605.848 221.146 629.054 192.847 632.183C176.285 634.008 159.331 629.184 142.117 634.399C102.863 646.263 122.816 594.245 75.4761 585.119C41.3081 578.601 69.738 506.897 70.2596 487.211C71.8245 433.759 55.9143 432.976 60.2179 367.4C61.0004 354.493 69.8684 347.584 61.2612 324.638L68.0426 322.683L59.4354 319.554C49.2633 284.484 85.909 241.983 69.8684 182.274C64.5215 162.327 61.6524 143.814 63.739 128.952L83.3008 125.302L64.9127 123.216C69.7379 103.921 84.6049 92.318 116.034 94.6647C177.197 99.2276 194.933 105.355 253.619 117.349C274.354 121.651 298.611 125.693 317.651 127.518C353.514 130.908 364.73 132.211 382.205 150.072L382.075 150.203Z"
        fill="url(#paint42_radial_465_5662)" />
    <path style="mix-blend-mode:screen" opacity="0.5" fill-rule="evenodd" clip-rule="evenodd"
        d="M320 149.942C360.558 150.594 390.944 176.147 393.03 218.778C394.465 248.763 425.764 260.496 386.249 314.6C365.513 343.021 414.287 395.3 398.768 429.196C386.249 456.574 410.636 475.478 402.681 498.814C393.682 525.149 425.242 550.571 397.986 580.817C373.077 608.456 363.688 622.927 319.348 608.847C310.349 605.979 277.746 594.115 245.013 602.589C239.535 604.023 229.102 605.979 219.322 608.586C144.335 628.011 183.197 593.984 127.512 590.334C113.166 589.421 113.818 575.993 102.081 574.69C64.9138 570.518 72.2169 525.54 87.0838 494.642C96.9952 474.043 94.9086 447.057 83.954 424.763C54.8721 365.575 82.5194 330.375 107.559 299.216C123.338 279.53 106.646 224.253 100.908 207.044C87.4751 166.76 106.124 162.066 120.73 131.169C130.12 111.483 175.112 114.22 191.674 127.518C224.538 153.723 307.48 149.812 319.869 149.942H320Z"
        fill="url(#paint43_radial_465_5662)" />
    <path style="mix-blend-mode:screen" fill-rule="evenodd" clip-rule="evenodd"
        d="M83.1716 621.753C78.3464 609.629 56.046 600.503 42.3527 596.722C41.8311 596.592 41.3094 596.461 40.7878 596.331C39.4836 593.724 38.7012 592.029 38.7012 591.247C39.0924 591.507 39.6141 591.638 40.1357 591.898C57.0893 600.112 74.0428 608.195 90.2139 617.712C86.5624 629.967 83.9541 642.482 81.4763 655.128C81.2155 655.128 80.8242 654.867 80.3026 654.476C80.3026 654.216 80.433 653.955 80.5634 653.825C83.6933 645.35 86.3015 629.967 83.0412 621.753H83.1716Z"
        fill="url(#paint44_radial_465_5662)" />
    <path style="mix-blend-mode:multiply" opacity="0.4" fill-rule="evenodd" clip-rule="evenodd"
        d="M380.38 656.302C422.764 655.91 435.023 632.444 438.283 605.196C438.544 623.318 439.065 641.57 439.587 659.691C362.905 660.213 199.499 658.909 122.816 656.953C183.067 654.346 203.672 647.567 255.706 638.18C291.178 631.792 297.568 637.007 331.345 647.958C345.299 652.521 360.036 656.302 380.51 656.171L380.38 656.302Z"
        fill="url(#paint45_radial_465_5662)" />
    <path style="mix-blend-mode:multiply" opacity="0.35" fill-rule="evenodd" clip-rule="evenodd"
        d="M350.255 87.8854C336.823 88.798 319.217 93.2306 303.959 96.3595C283.876 100.401 269.922 99.0973 255.055 96.0987C215.931 88.4069 184.241 84.7565 147.465 81.758C230.668 81.4972 320.913 83.7135 350.386 87.8854H350.255Z"
        fill="url(#paint46_radial_465_5662)" />
    <path style="mix-blend-mode:multiply" fill-rule="evenodd" clip-rule="evenodd"
        d="M357.297 89.3193C391.204 105.485 425.111 121.521 458.888 137.687C456.41 144.596 433.197 168.976 428.763 169.237C424.459 169.497 367.599 98.9668 357.297 89.3193Z"
        fill="url(#paint47_radial_465_5662)" />
    <path fill-rule="evenodd" clip-rule="evenodd"
        d="M424.719 156.721C403.723 133.645 379.206 108.223 357.166 89.189C364.73 89.4497 459.018 130.125 458.887 137.556C448.324 144.857 437.109 151.376 424.719 156.721Z"
        fill="url(#paint48_linear_465_5662)" />
    <path style="mix-blend-mode:screen" fill-rule="evenodd" clip-rule="evenodd"
        d="M378.425 99.3579C383.641 120.999 429.024 148.508 444.804 146.682C438.414 150.333 431.763 153.722 424.851 156.721C403.985 133.776 379.468 108.353 357.559 89.3193C359.384 89.3193 367.47 92.0571 378.164 96.4897C378.164 97.4023 378.425 98.3149 378.555 99.3579H378.425Z"
        fill="url(#paint49_radial_465_5662)" />
    <path
        d="M97.2036 166.216C98.9956 166.216 100.361 165.81 101.3 165C102.281 164.146 102.772 162.866 102.772 161.16C102.772 159.538 102.26 158.301 101.236 157.448C100.254 156.552 98.8036 156.104 96.8836 156.104C96.201 156.104 95.625 156.125 95.1556 156.168C94.729 156.168 94.281 156.21 93.8116 156.296V166.216H97.2036ZM93.8756 186.76C93.4063 186.888 92.6596 187.016 91.6356 187.144C90.6543 187.272 89.673 187.336 88.6916 187.336C87.7103 187.336 86.8356 187.25 86.0676 187.08C85.3423 186.952 84.7236 186.696 84.2116 186.312C83.6996 185.928 83.3156 185.394 83.0596 184.712C82.8036 184.029 82.6756 183.133 82.6756 182.024V151.88C82.6756 150.984 82.9103 150.301 83.3796 149.832C83.8916 149.32 84.5743 148.914 85.4276 148.616C86.8783 148.104 88.521 147.741 90.3556 147.528C92.233 147.272 94.1103 147.144 95.9876 147.144C101.876 147.144 106.377 148.402 109.492 150.92C112.606 153.437 114.164 156.85 114.164 161.16C114.164 163.25 113.822 165.149 113.14 166.856C112.5 168.52 111.518 169.97 110.196 171.208C108.916 172.402 107.273 173.341 105.268 174.024C103.305 174.664 101.022 174.984 98.4196 174.984H93.8756V186.76ZM117.943 167.56C117.943 164.232 118.455 161.288 119.479 158.728C120.546 156.168 121.975 154.034 123.767 152.328C125.602 150.578 127.735 149.256 130.167 148.36C132.642 147.464 135.308 147.016 138.167 147.016C141.026 147.016 143.671 147.464 146.103 148.36C148.578 149.256 150.732 150.578 152.567 152.328C154.402 154.034 155.831 156.168 156.855 158.728C157.922 161.288 158.455 164.232 158.455 167.56C158.455 170.888 157.943 173.853 156.919 176.456C155.895 179.016 154.466 181.17 152.631 182.92C150.839 184.626 148.706 185.928 146.231 186.824C143.756 187.72 141.068 188.168 138.167 188.168C135.266 188.168 132.578 187.72 130.103 186.824C127.628 185.885 125.495 184.541 123.703 182.792C121.911 181.042 120.503 178.888 119.479 176.328C118.455 173.768 117.943 170.845 117.943 167.56ZM129.463 167.56C129.463 171.442 130.252 174.344 131.831 176.264C133.41 178.184 135.522 179.144 138.167 179.144C140.855 179.144 142.988 178.184 144.567 176.264C146.146 174.344 146.935 171.442 146.935 167.56C146.935 163.72 146.146 160.84 144.567 158.92C143.031 157 140.919 156.04 138.231 156.04C135.586 156.04 133.452 157 131.831 158.92C130.252 160.797 129.463 163.677 129.463 167.56ZM176.063 186.76C175.594 186.888 174.847 187.016 173.823 187.144C172.842 187.272 171.86 187.336 170.879 187.336C169.898 187.336 169.023 187.25 168.255 187.08C167.53 186.952 166.911 186.696 166.399 186.312C165.887 185.928 165.503 185.394 165.247 184.712C164.991 184.029 164.863 183.133 164.863 182.024V148.232C165.332 148.146 166.079 148.04 167.103 147.912C168.127 147.741 169.108 147.656 170.047 147.656C171.028 147.656 171.882 147.741 172.607 147.912C173.375 148.04 174.015 148.296 174.527 148.68C175.039 149.064 175.423 149.597 175.679 150.28C175.935 150.962 176.063 151.858 176.063 152.968V186.76ZM219.499 185.672C218.902 186.269 218.027 186.717 216.875 187.016C215.766 187.357 214.422 187.528 212.843 187.528C211.264 187.528 209.771 187.293 208.363 186.824C206.955 186.354 205.803 185.224 204.907 183.432L198.571 170.504C197.931 169.181 197.355 167.944 196.843 166.792C196.331 165.597 195.776 164.232 195.179 162.696L194.795 162.76C194.966 165.064 195.051 167.41 195.051 169.8C195.094 172.189 195.115 174.536 195.115 176.84V186.76C194.646 186.888 193.92 187.016 192.939 187.144C192 187.272 191.062 187.336 190.123 187.336C189.184 187.336 188.352 187.272 187.627 187.144C186.902 187.016 186.304 186.76 185.835 186.376C185.366 185.992 185.003 185.48 184.747 184.84C184.491 184.157 184.363 183.282 184.363 182.216V150.216C184.96 149.362 185.878 148.722 187.115 148.296C188.352 147.869 189.675 147.656 191.083 147.656C192.662 147.656 194.155 147.912 195.563 148.424C197.014 148.893 198.166 150.002 199.019 151.752L205.419 164.68C206.059 166.002 206.635 167.261 207.147 168.456C207.659 169.608 208.214 170.952 208.811 172.488L209.131 172.424C208.96 170.12 208.854 167.816 208.811 165.512C208.768 163.208 208.747 160.904 208.747 158.6V148.232C209.216 148.104 209.92 147.976 210.859 147.848C211.84 147.72 212.8 147.656 213.739 147.656C215.616 147.656 217.046 147.997 218.027 148.68C219.008 149.32 219.499 150.685 219.499 152.776V185.672ZM251.877 172.616V186.76C251.408 186.888 250.661 187.016 249.637 187.144C248.613 187.272 247.61 187.336 246.629 187.336C245.648 187.336 244.773 187.25 244.005 187.08C243.28 186.952 242.661 186.696 242.149 186.312C241.637 185.928 241.253 185.394 240.997 184.712C240.741 184.029 240.613 183.133 240.613 182.024V148.232C241.082 148.146 241.829 148.04 242.853 147.912C243.877 147.741 244.858 147.656 245.797 147.656C246.778 147.656 247.632 147.741 248.357 147.912C249.125 148.04 249.765 148.296 250.277 148.68C250.789 149.064 251.173 149.597 251.429 150.28C251.685 150.962 251.813 151.858 251.813 152.968V163.144L265.125 147.848C268.026 147.848 270.096 148.402 271.333 149.512C272.613 150.578 273.253 151.858 273.253 153.352C273.253 154.461 272.976 155.506 272.421 156.488C271.866 157.469 270.97 158.578 269.733 159.816L261.733 167.816C262.8 169.01 263.909 170.248 265.061 171.528C266.256 172.808 267.408 174.066 268.517 175.304C269.669 176.498 270.757 177.65 271.781 178.76C272.848 179.869 273.765 180.829 274.533 181.64C274.533 182.578 274.362 183.41 274.021 184.136C273.68 184.861 273.21 185.48 272.613 185.992C272.058 186.504 271.418 186.888 270.693 187.144C269.968 187.4 269.2 187.528 268.389 187.528C266.64 187.528 265.21 187.101 264.101 186.248C262.992 185.352 261.925 184.306 260.901 183.112L251.877 172.616ZM288.994 149.384C289.719 148.957 290.807 148.552 292.258 148.168C293.751 147.784 295.245 147.592 296.738 147.592C298.871 147.592 300.749 147.912 302.37 148.552C304.034 149.149 305.101 150.109 305.57 151.432C306.338 153.65 307.17 156.232 308.066 159.176C308.962 162.12 309.858 165.17 310.754 168.328C311.65 171.442 312.525 174.536 313.378 177.608C314.231 180.637 314.978 183.325 315.618 185.672C315.106 186.269 314.338 186.738 313.314 187.08C312.29 187.464 311.074 187.656 309.666 187.656C308.642 187.656 307.767 187.57 307.042 187.4C306.359 187.229 305.783 186.973 305.314 186.632C304.887 186.29 304.525 185.842 304.226 185.288C303.97 184.733 303.735 184.093 303.522 183.368L302.37 178.952H290.786C290.445 180.232 290.103 181.554 289.762 182.92C289.421 184.285 289.079 185.608 288.738 186.888C288.141 187.101 287.501 187.272 286.818 187.4C286.178 187.57 285.389 187.656 284.45 187.656C282.274 187.656 280.653 187.293 279.586 186.568C278.562 185.8 278.05 184.754 278.05 183.432C278.05 182.834 278.135 182.237 278.306 181.64C278.477 181.042 278.669 180.338 278.882 179.528C279.181 178.376 279.586 176.946 280.098 175.24C280.653 173.533 281.25 171.698 281.89 169.736C282.53 167.73 283.213 165.682 283.938 163.592C284.663 161.501 285.346 159.538 285.986 157.704C286.626 155.826 287.202 154.162 287.714 152.712C288.269 151.261 288.695 150.152 288.994 149.384ZM296.674 157.64C296.077 159.432 295.394 161.437 294.626 163.656C293.901 165.832 293.239 168.05 292.642 170.312H300.578C299.981 168.008 299.362 165.768 298.722 163.592C298.125 161.373 297.57 159.389 297.058 157.64H296.674ZM347.679 177.48C347.124 177.949 346.399 178.333 345.503 178.632C344.65 178.888 343.647 179.016 342.495 179.016C340.959 179.016 339.679 178.824 338.655 178.44C337.674 178.056 337.034 177.394 336.735 176.456C335.54 172.701 334.559 169.672 333.791 167.368C333.023 165.021 332.426 162.973 331.999 161.224H331.679C331.551 163.741 331.444 166.045 331.359 168.136C331.316 170.184 331.274 172.189 331.231 174.152C331.231 176.114 331.188 178.098 331.103 180.104C331.06 182.109 330.975 184.328 330.847 186.76C330.292 186.973 329.567 187.144 328.671 187.272C327.775 187.442 326.879 187.528 325.983 187.528C324.106 187.528 322.634 187.229 321.567 186.632C320.543 186.034 320.031 184.946 320.031 183.368L321.887 150.728C322.228 150.173 322.975 149.576 324.127 148.936C325.279 148.296 326.9 147.976 328.991 147.976C331.252 147.976 333.023 148.338 334.303 149.064C335.583 149.746 336.522 150.877 337.119 152.456C337.503 153.48 337.908 154.653 338.335 155.976C338.804 157.298 339.252 158.664 339.679 160.072C340.148 161.48 340.596 162.888 341.023 164.296C341.45 165.661 341.834 166.898 342.175 168.008H342.495C343.519 164.424 344.543 160.968 345.567 157.64C346.591 154.269 347.53 151.453 348.383 149.192C349.023 148.85 349.834 148.573 350.815 148.36C351.839 148.104 352.97 147.976 354.207 147.976C356.298 147.976 358.004 148.296 359.327 148.936C360.65 149.533 361.418 150.408 361.631 151.56C361.802 152.413 361.972 153.736 362.143 155.528C362.356 157.277 362.57 159.261 362.783 161.48C362.996 163.698 363.21 166.045 363.423 168.52C363.636 170.994 363.828 173.384 363.999 175.688C364.212 177.949 364.383 180.04 364.511 181.96C364.639 183.837 364.724 185.288 364.767 186.312C364.042 186.738 363.274 187.037 362.463 187.208C361.695 187.421 360.692 187.528 359.455 187.528C357.834 187.528 356.468 187.25 355.359 186.696C354.25 186.141 353.652 185.053 353.567 183.432C353.311 178.781 353.14 174.6 353.055 170.888C353.012 167.176 352.927 164.061 352.799 161.544H352.479C352.052 163.208 351.434 165.298 350.623 167.816C349.812 170.333 348.831 173.554 347.679 177.48ZM406.231 172.68C406.231 174.984 405.826 177.096 405.015 179.016C404.247 180.893 403.116 182.514 401.623 183.88C400.13 185.202 398.316 186.226 396.183 186.952C394.05 187.677 391.639 188.04 388.951 188.04C386.263 188.04 383.852 187.677 381.719 186.952C379.586 186.226 377.772 185.202 376.279 183.88C374.786 182.514 373.634 180.893 372.823 179.016C372.055 177.096 371.671 174.984 371.671 172.68V148.232C372.14 148.146 372.887 148.04 373.911 147.912C374.935 147.741 375.916 147.656 376.855 147.656C377.836 147.656 378.69 147.741 379.415 147.912C380.183 148.04 380.823 148.296 381.335 148.68C381.847 149.064 382.231 149.597 382.487 150.28C382.743 150.962 382.871 151.858 382.871 152.968V172.488C382.871 174.536 383.426 176.136 384.535 177.288C385.687 178.44 387.159 179.016 388.951 179.016C390.786 179.016 392.258 178.44 393.367 177.288C394.476 176.136 395.031 174.536 395.031 172.488V148.232C395.5 148.146 396.247 148.04 397.271 147.912C398.295 147.741 399.276 147.656 400.215 147.656C401.196 147.656 402.05 147.741 402.775 147.912C403.543 148.04 404.183 148.296 404.695 148.68C405.207 149.064 405.591 149.597 405.847 150.28C406.103 150.962 406.231 151.858 406.231 152.968V172.68Z"
        fill="#633F5C" />
    <path fill-rule="evenodd" clip-rule="evenodd"
        d="M245.142 208.479L246.968 207.044L248.793 208.479C251.141 210.304 253.619 211.347 256.618 211.347H407.896C408.287 210.173 409.331 209.261 410.635 209.261C412.2 209.261 413.504 210.564 413.504 212.129C413.504 213.693 412.2 214.997 410.635 214.997C409.331 214.997 408.287 214.084 407.896 212.911H256.618C253.619 212.911 251.141 213.824 248.793 215.779L246.968 217.213L245.142 215.779C242.795 213.824 240.317 212.911 237.317 212.911H86.0394C85.6481 214.084 84.6048 214.997 83.3007 214.997C81.7358 214.997 80.4316 213.693 80.4316 212.129C80.4316 210.564 81.7358 209.261 83.3007 209.261C84.6048 209.261 85.6481 210.173 86.0394 211.347H237.317C240.317 211.347 242.795 210.434 245.142 208.479Z"
        fill="#633F5C" />
    <path fill-rule="evenodd" clip-rule="evenodd"
        d="M246.837 537.143C224.667 537.143 202.497 536.622 180.457 535.579C162.069 534.666 143.551 533.493 125.293 531.407C115.903 530.364 108.731 523.193 107.687 513.807C105.731 495.424 104.427 477.042 103.514 458.66C102.471 436.497 101.949 414.464 101.949 392.301C101.949 370.138 102.471 347.975 103.514 325.943C104.427 307.56 105.601 289.048 107.687 270.796C108.731 261.409 115.903 254.239 125.293 253.196C143.681 251.24 162.069 249.937 180.457 249.024C202.627 247.981 224.667 247.459 246.837 247.459C269.007 247.459 291.177 247.981 313.217 249.024C331.605 249.937 350.123 251.11 368.381 253.196C377.771 254.239 384.943 261.409 385.986 270.796C387.943 289.178 389.247 307.56 390.16 325.943C391.203 348.106 391.725 370.138 391.725 392.301C391.725 414.464 391.203 436.627 390.16 458.66C389.247 477.042 388.073 495.555 385.986 513.807C384.943 523.193 377.771 530.364 368.381 531.407C349.993 533.362 331.605 534.666 313.217 535.579C291.047 536.622 269.007 537.143 246.837 537.143Z"
        fill="url(#paint50_radial_465_5662)" />
    <path style="mix-blend-mode:multiply" opacity="0.5" fill-rule="evenodd" clip-rule="evenodd"
        d="M246.838 252.414C327.041 252.414 374.772 257.889 386.379 274.837C386.248 273.534 386.118 272.1 385.987 270.796C384.944 261.409 377.771 254.239 368.382 253.196C349.994 251.24 331.605 249.937 313.217 249.024C291.047 247.981 269.008 247.459 246.838 247.459C224.668 247.459 202.498 247.981 180.458 249.024C162.07 249.937 143.551 251.11 125.294 253.196C115.904 254.239 108.731 261.409 107.688 270.796C107.558 272.1 107.427 273.534 107.297 274.837C118.904 257.889 166.634 252.414 246.838 252.414Z"
        fill="url(#paint51_radial_465_5662)" />
    <path fill-rule="evenodd" clip-rule="evenodd"
        d="M99.0801 392.432C99.0801 345.498 101.167 302.606 104.688 270.535C105.861 259.714 114.208 251.501 124.902 250.328C156.983 246.808 199.889 244.722 246.837 244.722C293.785 244.722 336.691 246.808 368.772 250.328C379.596 251.501 387.812 259.845 388.986 270.535C392.507 302.737 394.594 345.498 394.594 392.432C394.594 439.365 392.507 482.257 388.986 514.328C387.812 525.149 379.596 533.362 368.772 534.536C336.56 538.056 293.785 540.142 246.837 540.142C199.889 540.142 156.983 538.056 124.902 534.536C114.077 533.362 105.861 525.019 104.688 514.328C101.167 482.257 99.0801 439.365 99.0801 392.432ZM103.644 392.432C103.644 414.595 104.166 436.627 105.209 458.79C106.122 477.173 107.296 495.555 109.383 513.937C110.296 522.541 116.947 529.19 125.554 530.103C143.811 532.059 162.33 533.362 180.718 534.275C202.758 535.318 224.928 535.839 247.098 535.839C269.268 535.839 291.307 535.318 313.477 534.275C331.865 533.362 350.254 532.189 368.642 530.103C377.249 529.19 383.9 522.541 384.813 513.937C386.769 495.685 388.073 477.173 388.986 458.79C390.029 436.758 390.551 414.595 390.551 392.432C390.551 370.269 390.029 348.236 388.986 326.073C388.073 307.691 386.899 289.308 384.813 270.926C383.9 262.322 377.249 255.673 368.642 254.76C350.384 252.805 331.865 251.501 313.477 250.588C291.438 249.545 269.268 249.024 247.098 249.024C224.928 249.024 202.888 249.545 180.718 250.588C162.33 251.501 143.942 252.674 125.554 254.76C116.947 255.673 110.296 262.322 109.383 270.926C107.426 289.178 106.122 307.691 105.209 326.073C104.166 348.106 103.644 370.269 103.644 392.432Z"
        fill="url(#paint52_radial_465_5662)" />
    <path style="mix-blend-mode:screen" fill-rule="evenodd" clip-rule="evenodd"
        d="M387.16 269.101C385.726 259.584 378.292 252.414 368.642 251.24C350.254 249.285 331.735 247.981 313.347 247.068C291.177 246.025 269.007 245.504 246.837 245.504C224.667 245.504 202.497 246.025 180.327 247.068C161.939 247.981 143.42 249.154 125.032 251.24C115.382 252.283 107.948 259.454 106.514 269.101C108.731 258.15 117.86 253.065 128.032 252.022C145.116 250.328 162.33 249.154 179.544 248.372C201.975 247.329 224.406 246.808 246.837 246.808C269.268 246.808 291.699 247.329 314.129 248.372C331.344 249.154 348.558 250.328 365.642 252.022C375.814 253.065 384.943 258.019 387.16 269.101Z"
        fill="url(#paint53_radial_465_5662)" />
    <path fill-rule="evenodd" clip-rule="evenodd"
        d="M392.507 375.223C382.987 375.223 375.293 382.915 375.293 392.432C375.293 401.949 382.987 409.64 392.507 409.64C402.027 409.64 409.722 401.949 409.722 392.432C409.722 382.915 402.027 375.223 392.507 375.223Z"
        fill="url(#paint54_radial_465_5662)" />
    <g style="mix-blend-mode:multiply" opacity="0.5">
        <path fill-rule="evenodd" clip-rule="evenodd"
            d="M394.985 407.294C402.94 406.121 409.2 399.472 409.721 391.258C409.721 391.649 409.721 391.91 409.721 392.301C409.721 400.906 403.331 408.076 394.985 409.38C394.593 409.38 394.202 409.38 393.681 409.51C393.289 409.51 392.898 409.51 392.376 409.51C392.116 409.51 391.855 409.51 391.594 409.51C391.072 409.51 390.42 409.51 389.899 409.38C381.552 408.206 375.162 401.036 375.162 392.301C375.162 391.91 375.162 391.649 375.162 391.258C375.684 399.472 381.813 406.121 389.899 407.294C390.42 407.294 391.072 407.424 391.594 407.424C391.855 407.424 392.116 407.424 392.376 407.424C392.768 407.424 393.159 407.424 393.681 407.424C394.072 407.424 394.593 407.424 394.985 407.294Z"
            fill="#706F6F" />
    </g>
    <g style="mix-blend-mode:screen">
        <path fill-rule="evenodd" clip-rule="evenodd"
            d="M390.028 378.352C382.464 379.525 376.596 385.783 376.074 393.475C376.074 393.083 376.074 392.692 376.074 392.301C376.074 384.088 382.073 377.309 390.028 376.005C390.55 376.005 391.202 375.875 391.724 375.875C391.984 375.875 392.245 375.875 392.506 375.875C392.897 375.875 393.289 375.875 393.81 375.875C394.201 375.875 394.723 375.875 395.114 376.005C402.939 377.178 409.068 384.088 409.068 392.301C409.068 392.692 409.068 393.083 409.068 393.475C408.547 385.783 402.678 379.525 395.114 378.352C394.723 378.352 394.332 378.352 393.81 378.221C393.419 378.221 393.028 378.221 392.506 378.221C392.245 378.221 391.984 378.221 391.724 378.221C391.202 378.221 390.55 378.221 390.028 378.352Z"
            fill="#00CCFF" />
    </g>
    <path style="mix-blend-mode:multiply" fill-rule="evenodd" clip-rule="evenodd"
        d="M392.506 378.873C399.94 378.873 406.069 384.87 406.069 392.432C406.069 399.993 400.07 405.99 392.506 405.99C384.942 405.99 378.943 399.993 378.943 392.432C378.943 384.87 384.942 378.873 392.506 378.873Z"
        fill="url(#paint55_linear_465_5662)" />
    <path fill-rule="evenodd" clip-rule="evenodd"
        d="M392.507 379.786C399.55 379.786 405.157 385.522 405.157 392.432C405.157 399.341 399.419 405.078 392.507 405.078C385.596 405.078 379.857 399.341 379.857 392.432C379.857 385.522 385.596 379.786 392.507 379.786Z"
        fill="url(#paint56_radial_465_5662)" />
    <path style="mix-blend-mode:screen" fill-rule="evenodd" clip-rule="evenodd"
        d="M391.072 381.35C396.419 381.35 400.723 385.652 400.723 390.998C400.723 396.343 396.419 400.645 391.072 400.645C385.725 400.645 381.422 396.343 381.422 390.998C381.422 385.652 385.725 381.35 391.072 381.35Z"
        fill="url(#paint57_radial_465_5662)" />
    <path style="mix-blend-mode:screen" fill-rule="evenodd" clip-rule="evenodd"
        d="M385.205 384.87C388.074 382.002 392.117 381.481 394.334 383.697C396.551 385.913 395.899 389.955 393.16 392.823C390.422 395.691 386.248 396.213 384.031 393.996C381.814 391.78 382.336 387.738 385.205 384.87Z"
        fill="url(#paint58_radial_465_5662)" />
    <path style="mix-blend-mode:screen" opacity="0.5" fill-rule="evenodd" clip-rule="evenodd"
        d="M398.245 382.132C401.505 384.218 403.722 387.869 403.722 392.04C403.722 398.429 398.506 403.774 391.985 403.774C390.29 403.774 388.594 403.383 387.029 402.731C387.942 402.992 388.855 403.122 389.898 403.122C396.549 403.122 401.896 397.777 401.896 390.998C401.896 387.608 400.462 384.479 398.114 382.263L398.245 382.132Z"
        fill="url(#paint59_radial_465_5662)" />
    <path fill-rule="evenodd" clip-rule="evenodd"
        d="M388.074 385.522L390.552 383.045L400.203 392.432L390.552 401.818L388.074 399.341L392.378 392.432L388.074 385.522Z"
        fill="url(#paint60_linear_465_5662)" />
    <path fill-rule="evenodd" clip-rule="evenodd"
        d="M101.298 375.223C110.818 375.223 118.513 382.915 118.513 392.432C118.513 401.949 110.818 409.64 101.298 409.64C91.7783 409.64 84.084 401.949 84.084 392.432C84.084 382.915 91.7783 375.223 101.298 375.223Z"
        fill="url(#paint61_radial_465_5662)" />
    <g style="mix-blend-mode:multiply" opacity="0.5">
        <path fill-rule="evenodd" clip-rule="evenodd"
            d="M98.6897 407.294C90.7345 406.121 84.4748 399.472 83.9531 391.258C83.9531 391.649 83.9531 391.91 83.9531 392.301C83.9531 400.906 90.3433 408.076 98.6897 409.38C99.0809 409.38 99.4721 409.38 99.9938 409.51C100.385 409.51 100.776 409.51 101.298 409.51C101.559 409.51 101.82 409.51 102.08 409.51C102.602 409.51 103.254 409.51 103.776 409.38C112.122 408.206 118.512 401.036 118.512 392.301C118.512 391.91 118.512 391.649 118.512 391.258C117.991 399.472 111.861 406.121 103.776 407.294C103.254 407.294 102.602 407.424 102.08 407.424C101.82 407.424 101.559 407.424 101.298 407.424C100.907 407.424 100.515 407.424 99.9938 407.424C99.6026 407.424 99.0809 407.424 98.6897 407.294Z"
            fill="#706F6F" />
    </g>
    <g style="mix-blend-mode:screen">
        <path fill-rule="evenodd" clip-rule="evenodd"
            d="M103.776 378.352C111.34 379.525 117.209 385.783 117.731 393.475C117.731 393.083 117.731 392.692 117.731 392.301C117.731 384.088 111.732 377.309 103.776 376.005C103.255 376.005 102.603 375.875 102.081 375.875C101.82 375.875 101.559 375.875 101.299 375.875C100.907 375.875 100.516 375.875 99.9945 375.875C99.6033 375.875 99.0816 375.875 98.6904 376.005C90.8657 377.178 84.7363 384.088 84.7363 392.301C84.7363 392.692 84.7363 393.083 84.7363 393.475C85.258 385.783 91.1265 379.525 98.6904 378.352C99.0816 378.352 99.4729 378.352 99.9945 378.221C100.386 378.221 100.777 378.221 101.299 378.221C101.559 378.221 101.82 378.221 102.081 378.221C102.603 378.221 103.255 378.221 103.776 378.352Z"
            fill="#00CCFF" />
    </g>
    <path style="mix-blend-mode:multiply" fill-rule="evenodd" clip-rule="evenodd"
        d="M101.297 378.873C93.8637 378.873 87.7344 384.87 87.7344 392.432C87.7344 399.993 93.7333 405.99 101.297 405.99C108.861 405.99 114.86 399.993 114.86 392.432C114.86 384.87 108.861 378.873 101.297 378.873Z"
        fill="url(#paint62_linear_465_5662)" />
    <path fill-rule="evenodd" clip-rule="evenodd"
        d="M101.298 379.786C108.341 379.786 113.948 385.522 113.948 392.432C113.948 399.341 108.21 405.078 101.298 405.078C94.3866 405.078 88.6484 399.341 88.6484 392.432C88.6484 385.522 94.3866 379.786 101.298 379.786Z"
        fill="url(#paint63_radial_465_5662)" />
    <path style="mix-blend-mode:screen" fill-rule="evenodd" clip-rule="evenodd"
        d="M99.8634 381.35C105.21 381.35 109.514 385.652 109.514 390.998C109.514 396.343 105.21 400.645 99.8634 400.645C94.5165 400.645 90.2129 396.343 90.2129 390.998C90.2129 385.652 94.5165 381.35 99.8634 381.35Z"
        fill="url(#paint64_radial_465_5662)" />
    <path style="mix-blend-mode:screen" fill-rule="evenodd" clip-rule="evenodd"
        d="M93.996 384.87C96.865 382.002 100.908 381.481 103.125 383.697C105.342 385.913 104.69 389.955 101.951 392.823C99.082 395.691 95.0393 396.213 92.8223 393.996C90.6053 391.78 91.2573 387.738 93.996 384.87Z"
        fill="url(#paint65_radial_465_5662)" />
    <path style="mix-blend-mode:screen" opacity="0.5" fill-rule="evenodd" clip-rule="evenodd"
        d="M107.036 382.132C110.296 384.218 112.513 387.869 112.513 392.04C112.513 398.429 107.297 403.774 100.907 403.774C99.2115 403.774 97.5161 403.383 95.9512 402.731C96.8641 402.992 97.7769 403.122 98.8202 403.122C105.471 403.122 110.949 397.777 110.949 390.998C110.949 387.608 109.514 384.479 107.167 382.263L107.036 382.132Z"
        fill="url(#paint66_radial_465_5662)" />
    <path fill-rule="evenodd" clip-rule="evenodd"
        d="M105.732 385.522L103.124 383.045L93.6035 392.432L103.124 401.818L105.732 399.341L101.298 392.432L105.732 385.522Z"
        fill="url(#paint67_linear_465_5662)" />
    <path fill-rule="evenodd" clip-rule="evenodd"
        d="M246.837 520.716C237.317 520.716 229.623 528.408 229.623 537.925C229.623 547.442 237.317 555.134 246.837 555.134C256.357 555.134 264.052 547.442 264.052 537.925C264.052 528.408 256.357 520.716 246.837 520.716Z"
        fill="url(#paint68_radial_465_5662)" />
    <g style="mix-blend-mode:multiply" opacity="0.5">
        <path fill-rule="evenodd" clip-rule="evenodd"
            d="M249.446 552.918C257.401 551.745 263.661 545.096 264.182 536.882C264.182 537.273 264.182 537.534 264.182 537.925C264.182 546.53 257.792 553.7 249.446 555.004C249.054 555.004 248.663 555.004 248.142 555.134C247.75 555.134 247.359 555.134 246.837 555.134C246.577 555.134 246.316 555.134 246.055 555.134C245.533 555.134 244.881 555.134 244.36 555.004C236.013 553.83 229.623 546.66 229.623 537.925C229.623 537.534 229.623 537.273 229.623 536.882C230.145 545.096 236.274 551.745 244.36 552.918C244.881 552.918 245.533 553.048 246.055 553.048C246.316 553.048 246.577 553.048 246.837 553.048C247.229 553.048 247.62 553.048 248.142 553.048C248.533 553.048 249.054 553.048 249.446 552.918Z"
            fill="#706F6F" />
    </g>
    <g style="mix-blend-mode:screen">
        <path fill-rule="evenodd" clip-rule="evenodd"
            d="M244.36 523.976C236.796 525.149 230.928 531.407 230.406 539.099C230.406 538.707 230.406 538.316 230.406 537.925C230.406 529.712 236.405 522.933 244.36 521.629C244.882 521.629 245.534 521.499 246.056 521.499C246.317 521.499 246.577 521.499 246.838 521.499C247.229 521.499 247.621 521.499 248.142 521.499C248.534 521.499 249.055 521.499 249.446 521.629C257.271 522.802 263.4 529.712 263.4 537.925C263.4 538.316 263.4 538.707 263.4 539.099C262.879 531.407 257.01 525.149 249.446 523.976C249.055 523.976 248.664 523.976 248.142 523.845C247.751 523.845 247.36 523.845 246.838 523.845C246.577 523.845 246.317 523.845 246.056 523.845C245.534 523.845 244.882 523.845 244.36 523.976Z"
            fill="#00CCFF" />
    </g>
    <path style="mix-blend-mode:multiply" fill-rule="evenodd" clip-rule="evenodd"
        d="M246.838 524.497C254.272 524.497 260.401 530.494 260.401 538.056C260.401 545.617 254.402 551.614 246.838 551.614C239.274 551.614 233.275 545.617 233.275 538.056C233.275 530.494 239.274 524.497 246.838 524.497Z"
        fill="url(#paint69_linear_465_5662)" />
    <path fill-rule="evenodd" clip-rule="evenodd"
        d="M246.837 525.279C253.88 525.279 259.487 531.016 259.487 537.925C259.487 544.835 253.749 550.571 246.837 550.571C239.926 550.571 234.188 544.835 234.188 537.925C234.188 531.016 239.926 525.279 246.837 525.279Z"
        fill="url(#paint70_radial_465_5662)" />
    <path style="mix-blend-mode:screen" fill-rule="evenodd" clip-rule="evenodd"
        d="M245.402 526.974C250.749 526.974 255.053 531.276 255.053 536.622C255.053 541.967 250.749 546.269 245.402 546.269C240.056 546.269 235.752 541.967 235.752 536.622C235.752 531.276 240.056 526.974 245.402 526.974Z"
        fill="url(#paint71_radial_465_5662)" />
    <path style="mix-blend-mode:screen" fill-rule="evenodd" clip-rule="evenodd"
        d="M239.664 530.364C242.533 527.496 246.576 526.974 248.793 529.191C251.01 531.407 250.358 535.448 247.619 538.317C244.75 541.185 240.707 541.706 238.49 539.49C236.273 537.274 236.925 533.232 239.664 530.364Z"
        fill="url(#paint72_radial_465_5662)" />
    <path style="mix-blend-mode:screen" opacity="0.5" fill-rule="evenodd" clip-rule="evenodd"
        d="M252.575 527.756C255.836 529.842 258.053 533.493 258.053 537.665C258.053 544.053 252.836 549.398 246.446 549.398C244.751 549.398 243.055 549.007 241.49 548.355C242.403 548.616 243.316 548.746 244.359 548.746C251.01 548.746 256.357 543.401 256.357 536.622C256.357 533.232 254.923 530.103 252.575 527.887V527.756Z"
        fill="url(#paint73_radial_465_5662)" />
    <path fill-rule="evenodd" clip-rule="evenodd"
        d="M253.749 533.493L256.227 536.1L246.837 545.748L237.578 536.1L239.926 533.493L246.837 537.925L253.749 533.493Z"
        fill="url(#paint74_linear_465_5662)" />
    <path fill-rule="evenodd" clip-rule="evenodd"
        d="M246.837 229.599C256.357 229.599 264.052 237.29 264.052 246.808C264.052 256.325 256.357 264.016 246.837 264.016C237.317 264.016 229.623 256.325 229.623 246.808C229.623 237.29 237.317 229.599 246.837 229.599Z"
        fill="url(#paint75_radial_465_5662)" />
    <g style="mix-blend-mode:multiply" opacity="0.5">
        <path fill-rule="evenodd" clip-rule="evenodd"
            d="M244.36 261.8C236.404 260.627 230.145 253.978 229.623 245.765C229.623 246.156 229.623 246.417 229.623 246.808C229.623 255.412 236.013 262.582 244.36 263.886C244.751 263.886 245.142 263.886 245.664 264.017C246.055 264.017 246.446 264.017 246.968 264.017C247.229 264.017 247.489 264.017 247.75 264.017C248.272 264.017 248.924 264.017 249.446 263.886C257.792 262.713 264.182 255.542 264.182 246.808C264.182 246.417 264.182 246.156 264.182 245.765C263.661 253.978 257.531 260.627 249.446 261.8C248.924 261.8 248.272 261.931 247.75 261.931C247.489 261.931 247.229 261.931 246.968 261.931C246.577 261.931 246.185 261.931 245.664 261.931C245.272 261.931 244.751 261.931 244.36 261.8Z"
            fill="#706F6F" />
    </g>
    <g style="mix-blend-mode:screen">
        <path fill-rule="evenodd" clip-rule="evenodd"
            d="M249.446 232.858C257.01 234.031 262.879 240.289 263.4 247.981C263.4 247.59 263.4 247.199 263.4 246.808C263.4 238.594 257.402 231.815 249.446 230.511C248.925 230.511 248.273 230.381 247.751 230.381C247.49 230.381 247.229 230.381 246.969 230.381C246.577 230.381 246.186 230.381 245.664 230.381C245.273 230.381 244.752 230.381 244.36 230.511C236.536 231.685 230.406 238.594 230.406 246.808C230.406 247.199 230.406 247.59 230.406 247.981C230.928 240.289 236.796 234.031 244.36 232.858C244.752 232.858 245.143 232.858 245.664 232.728C246.056 232.728 246.447 232.728 246.969 232.728C247.229 232.728 247.49 232.728 247.751 232.728C248.273 232.728 248.925 232.728 249.446 232.858Z"
            fill="#00CCFF" />
    </g>
    <path style="mix-blend-mode:multiply" fill-rule="evenodd" clip-rule="evenodd"
        d="M246.838 233.379C239.405 233.379 233.275 239.376 233.275 246.938C233.275 254.499 239.274 260.496 246.838 260.496C254.402 260.496 260.401 254.499 260.401 246.938C260.401 239.376 254.402 233.379 246.838 233.379Z"
        fill="url(#paint76_linear_465_5662)" />
    <path fill-rule="evenodd" clip-rule="evenodd"
        d="M246.837 234.162C253.88 234.162 259.487 239.898 259.487 246.808C259.487 253.717 253.749 259.454 246.837 259.454C239.926 259.454 234.188 253.717 234.188 246.808C234.188 239.898 239.926 234.162 246.837 234.162Z"
        fill="url(#paint77_radial_465_5662)" />
    <path style="mix-blend-mode:screen" fill-rule="evenodd" clip-rule="evenodd"
        d="M245.402 235.856C250.749 235.856 255.053 240.159 255.053 245.504C255.053 250.849 250.749 255.151 245.402 255.151C240.056 255.151 235.752 250.849 235.752 245.504C235.752 240.159 240.056 235.856 245.402 235.856Z"
        fill="url(#paint78_radial_465_5662)" />
    <path style="mix-blend-mode:screen" fill-rule="evenodd" clip-rule="evenodd"
        d="M239.664 239.246C242.533 236.378 246.576 235.857 248.793 238.073C251.01 240.289 250.358 244.331 247.619 247.199C244.75 250.067 240.707 250.589 238.49 248.372C236.273 246.156 236.925 242.114 239.664 239.246Z"
        fill="url(#paint79_radial_465_5662)" />
    <path style="mix-blend-mode:screen" opacity="0.5" fill-rule="evenodd" clip-rule="evenodd"
        d="M252.575 236.639C255.836 238.725 258.053 242.375 258.053 246.547C258.053 252.935 252.836 258.28 246.446 258.28C244.751 258.28 243.055 257.889 241.49 257.237C242.403 257.498 243.316 257.628 244.359 257.628C251.01 257.628 256.357 252.283 256.357 245.504C256.357 242.114 254.923 238.985 252.575 236.769V236.639Z"
        fill="url(#paint80_radial_465_5662)" />
    <path fill-rule="evenodd" clip-rule="evenodd"
        d="M253.749 251.371L256.227 248.763L246.837 239.116L237.578 248.763L239.926 251.371L246.837 246.938L253.749 251.371Z"
        fill="url(#paint81_linear_465_5662)" />
    <g style="mix-blend-mode:multiply">
        <path fill-rule="evenodd" clip-rule="evenodd"
            d="M245.403 643.656C215.278 643.656 207.453 631.14 204.453 610.802C203.28 602.458 204.323 596.592 207.844 592.29C213.713 584.858 228.058 580.295 251.402 578.601C255.314 578.34 258.966 578.209 262.356 578.209C277.745 578.209 288.308 581.338 293.786 587.466C298.35 592.55 299.785 600.242 298.481 611.063C295.481 634.399 288.569 641.83 251.271 643.786C249.315 643.786 247.359 643.916 245.533 643.916L245.403 643.656Z"
            fill="#633F5C" />
    </g>
    <path fill-rule="evenodd" clip-rule="evenodd"
        d="M250.88 567.519C294.699 564.13 307.609 579.122 304.219 606.109C300.828 633.226 290.917 641.831 251.402 643.786C211.887 645.742 201.976 629.315 198.585 606.109C195.194 582.903 207.192 570.909 251.011 567.519H250.88Z"
        fill="url(#paint82_radial_465_5662)" />
    <path style="mix-blend-mode:multiply" fill-rule="evenodd" clip-rule="evenodd"
        d="M303.305 612.236C297.045 627.62 283.352 633.226 251.401 634.79C219.189 636.355 205.496 626.447 199.236 610.542C203.279 631.27 214.364 645.481 251.271 643.656C287.656 641.83 298.871 634.399 303.175 612.106L303.305 612.236Z"
        fill="url(#paint83_radial_465_5662)" />
    <path style="mix-blend-mode:screen" fill-rule="evenodd" clip-rule="evenodd"
        d="M206.932 583.294C199.237 590.595 199.759 607.804 208.105 614.583C219.973 624.23 242.404 621.884 256.227 620.059C269.79 618.233 297.437 614.322 300.306 598.939C302.393 587.596 296.264 575.863 285.179 572.082C266.008 565.564 222.581 568.171 206.932 583.294Z"
        fill="url(#paint84_radial_465_5662)" />
    <path style="mix-blend-mode:screen" fill-rule="evenodd" clip-rule="evenodd"
        d="M224.407 574.95C217.625 576.645 206.801 582.512 204.584 588.77C202.628 594.115 208.105 594.767 213.061 593.202C218.799 591.377 225.581 588.118 230.145 584.467C235.753 580.035 232.884 572.734 224.407 574.95Z"
        fill="url(#paint85_radial_465_5662)" />
    <path style="mix-blend-mode:screen" fill-rule="evenodd" clip-rule="evenodd"
        d="M286.352 632.965C290.525 631.14 295.089 626.968 295.611 622.927C296.002 619.668 292.481 619.276 289.873 620.711C286.873 622.405 283.483 625.143 281.396 627.62C278.788 630.749 281.787 634.791 286.482 632.835L286.352 632.965Z"
        fill="url(#paint86_radial_465_5662)" />
    <g style="mix-blend-mode:screen">
        <path
            d="M219.582 583.685C219.582 583.685 219.451 584.467 218.93 584.728C218.408 584.989 217.886 584.858 217.756 584.598C217.625 584.337 217.886 583.815 218.408 583.555C218.93 583.294 219.451 583.424 219.582 583.685Z"
            fill="#FFED44" />
    </g>
    <path
        d="M221.276 605.457C221.276 602.98 221.668 600.764 222.45 598.808C223.233 596.853 224.276 595.288 225.71 593.984C227.145 592.681 228.71 591.638 230.536 590.986C232.361 590.334 234.448 589.943 236.535 589.943C238.621 589.943 240.708 590.334 242.534 590.986C244.359 591.638 246.055 592.681 247.359 593.984C248.793 595.288 249.837 596.983 250.619 598.808C251.402 600.764 251.793 602.98 251.793 605.457C251.793 607.934 251.402 610.281 250.619 612.236C249.837 614.192 248.793 615.887 247.359 617.19C245.924 618.494 244.359 619.537 242.534 620.189C240.708 620.841 238.621 621.232 236.404 621.232C234.187 621.232 232.101 620.841 230.275 620.189C228.449 619.537 226.754 618.494 225.45 617.19C224.146 615.887 222.972 614.192 222.189 612.236C221.407 610.281 221.016 608.064 221.016 605.587L221.276 605.457ZM230.014 605.457C230.014 608.455 230.666 610.672 231.84 612.106C233.014 613.54 234.578 614.322 236.665 614.322C238.752 614.322 240.317 613.54 241.49 612.106C242.664 610.672 243.316 608.455 243.316 605.457C243.316 602.458 242.664 600.373 241.49 598.938C240.317 597.504 238.752 596.722 236.665 596.722C234.578 596.722 233.014 597.504 231.84 598.938C230.666 600.373 230.014 602.589 230.014 605.457Z"
        fill="url(#paint87_linear_465_5662)" />
    <path
        d="M264.181 609.238V619.928C264.181 619.928 263.269 620.189 262.486 620.189C261.704 620.189 260.921 620.319 260.139 620.319C259.356 620.319 258.704 620.319 258.182 620.189C257.661 620.189 257.139 619.928 256.748 619.537C256.357 619.276 256.096 618.885 255.835 618.364C255.574 617.842 255.574 617.19 255.574 616.278V590.595C255.574 590.595 256.487 590.464 257.27 590.334C258.052 590.334 258.835 590.204 259.487 590.204C260.139 590.204 260.921 590.204 261.443 590.334C261.964 590.334 262.486 590.595 262.877 590.986C263.269 591.247 263.529 591.638 263.79 592.159C264.051 592.681 264.051 593.333 264.051 594.245V601.937L274.223 590.334C276.44 590.334 278.005 590.725 278.918 591.638C279.831 592.42 280.352 593.463 280.352 594.636C280.352 595.418 280.092 596.331 279.7 596.983C279.309 597.765 278.657 598.547 277.614 599.46L271.484 605.587C272.267 606.5 273.18 607.413 274.093 608.455C275.006 609.368 275.918 610.411 276.701 611.324C277.614 612.236 278.396 613.149 279.179 613.931C279.961 614.713 280.613 615.495 281.265 616.147C281.265 616.799 281.265 617.451 280.874 617.973C280.613 618.494 280.222 619.015 279.831 619.407C279.44 619.798 278.918 620.059 278.396 620.319C277.875 620.45 277.223 620.58 276.701 620.58C275.397 620.58 274.354 620.189 273.441 619.537C272.658 618.885 271.745 618.103 270.963 617.19L264.051 609.238H264.181Z"
        fill="url(#paint88_linear_465_5662)" />
    <defs>
        <radialGradient id="paint0_radial_465_5662" cx="0" cy="0" r="1"
            gradientUnits="userSpaceOnUse"
            gradientTransform="translate(-25.4621 30.392) scale(1167.71 1167.34)">
            <stop stop-color="#2EA4FF" />
            <stop offset="1" stop-color="#2478F0" />
        </radialGradient>
        <radialGradient id="paint1_radial_465_5662" cx="0" cy="0" r="1"
            gradientUnits="userSpaceOnUse"
            gradientTransform="translate(23.7028 117.871) scale(487.089 486.934)">
            <stop stop-color="#0C3469" />
            <stop offset="1" />
        </radialGradient>
        <radialGradient id="paint2_radial_465_5662" cx="0" cy="0" r="1"
            gradientUnits="userSpaceOnUse"
            gradientTransform="translate(343.995 49.2959) scale(576.16 575.977)">
            <stop stop-color="#0C3469" />
            <stop offset="1" />
        </radialGradient>
        <radialGradient id="paint3_radial_465_5662" cx="0" cy="0" r="1"
            gradientUnits="userSpaceOnUse"
            gradientTransform="translate(467.364 100.271) scale(705.92 705.696)">
            <stop stop-color="#0C3469" />
            <stop offset="1" />
        </radialGradient>
        <radialGradient id="paint4_radial_465_5662" cx="0" cy="0" r="1"
            gradientUnits="userSpaceOnUse"
            gradientTransform="translate(0.881384 377.83) scale(617.761 617.566)">
            <stop stop-color="#0C3469" />
            <stop offset="1" />
        </radialGradient>
        <radialGradient id="paint5_radial_465_5662" cx="0" cy="0" r="1"
            gradientUnits="userSpaceOnUse"
            gradientTransform="translate(-29.1131 451.489) scale(583.594 583.409)">
            <stop stop-color="#0C3469" />
            <stop offset="1" />
        </radialGradient>
        <radialGradient id="paint6_radial_465_5662" cx="0" cy="0" r="1"
            gradientUnits="userSpaceOnUse"
            gradientTransform="translate(495.925 362.968) scale(830.855 830.591)">
            <stop stop-color="#0C3469" />
            <stop offset="1" />
        </radialGradient>
        <radialGradient id="paint7_radial_465_5662" cx="0" cy="0" r="1"
            gradientUnits="userSpaceOnUse"
            gradientTransform="translate(0.881184 583.946) scale(898.799 898.515)">
            <stop stop-color="#0C3469" />
            <stop offset="1" />
        </radialGradient>
        <radialGradient id="paint8_radial_465_5662" cx="0" cy="0" r="1"
            gradientUnits="userSpaceOnUse"
            gradientTransform="translate(-380.573 675.857) scale(1263.3 1262.9)">
            <stop stop-color="#BAC3EB" />
            <stop offset="0.99" stop-color="white" />
        </radialGradient>
        <radialGradient id="paint9_radial_465_5662" cx="0" cy="0" r="1"
            gradientUnits="userSpaceOnUse"
            gradientTransform="translate(707.192 -71.1669) scale(1590.5 1590)">
            <stop stop-color="#BAC3EB" />
            <stop offset="0.99" stop-color="white" />
        </radialGradient>
        <radialGradient id="paint10_radial_465_5662" cx="0" cy="0" r="1"
            gradientUnits="userSpaceOnUse"
            gradientTransform="translate(392.638 -144.435) scale(1008.74 1008.42)">
            <stop stop-color="#BAC3EB" />
            <stop offset="0.99" stop-color="white" />
        </radialGradient>
        <radialGradient id="paint11_radial_465_5662" cx="0" cy="0" r="1"
            gradientUnits="userSpaceOnUse"
            gradientTransform="translate(504.402 626.447) scale(750.912 750.674)">
            <stop stop-color="#0C3469" />
            <stop offset="1" />
        </radialGradient>
        <radialGradient id="paint12_radial_465_5662" cx="0" cy="0" r="1"
            gradientUnits="userSpaceOnUse"
            gradientTransform="translate(498.143 277.314) scale(476.395 476.244)">
            <stop stop-color="#0C3469" />
            <stop offset="1" />
        </radialGradient>
        <radialGradient id="paint13_radial_465_5662" cx="0" cy="0" r="1"
            gradientUnits="userSpaceOnUse"
            gradientTransform="translate(-24.9399 282.789) scale(542.514 542.342)">
            <stop stop-color="#0C3469" />
            <stop offset="1" />
        </radialGradient>
        <radialGradient id="paint14_radial_465_5662" cx="0" cy="0" r="1"
            gradientUnits="userSpaceOnUse"
            gradientTransform="translate(416.635 526.713) scale(40.0365 40.0239)">
            <stop stop-color="#0C3469" />
            <stop offset="1" />
        </radialGradient>
        <linearGradient id="paint15_linear_465_5662" x1="7.40234" y1="697.89" x2="485.101"
            y2="697.89" gradientUnits="userSpaceOnUse">
            <stop stop-color="#062D70" />
            <stop offset="1" stop-color="#034494" />
        </linearGradient>
        <linearGradient id="paint16_linear_465_5662" x1="469.842" y1="377.96" x2="497.359"
            y2="377.96" gradientUnits="userSpaceOnUse">
            <stop stop-color="#0456BA" />
            <stop offset="1" stop-color="#083B94" />
        </linearGradient>
        <radialGradient id="paint17_radial_465_5662" cx="0" cy="0" r="1"
            gradientUnits="userSpaceOnUse"
            gradientTransform="translate(15.3572 -42.094) scale(1273.47 1273.07)">
            <stop stop-color="#00FFFA" />
            <stop offset="1" />
        </radialGradient>
        <radialGradient id="paint18_radial_465_5662" cx="0" cy="0" r="1"
            gradientUnits="userSpaceOnUse"
            gradientTransform="translate(412.329 55.4232) scale(45.253 45.2386)">
            <stop offset="0.85" stop-color="#6E757F" />
            <stop offset="0.88" stop-color="#727882" />
            <stop offset="0.9" stop-color="#7E848D" />
            <stop offset="0.93" stop-color="#92979E" />
            <stop offset="0.95" stop-color="#AEB2B7" />
            <stop offset="0.98" stop-color="#D2D4D7" />
            <stop offset="1" stop-color="white" />
        </radialGradient>
        <linearGradient id="paint19_linear_465_5662" x1="365.904" y1="44.0812" x2="385.075"
            y2="44.0812" gradientUnits="userSpaceOnUse">
            <stop stop-color="#004BC9" />
            <stop offset="1" stop-color="#003380" />
        </linearGradient>
        <linearGradient id="paint20_linear_465_5662" x1="389.768" y1="85.7995" x2="458.471"
            y2="7.42518" gradientUnits="userSpaceOnUse">
            <stop stop-color="#062D70" />
            <stop offset="1" stop-color="#3484E8" />
        </linearGradient>
        <radialGradient id="paint21_radial_465_5662" cx="0" cy="0" r="1"
            gradientUnits="userSpaceOnUse"
            gradientTransform="translate(384.291 5.4913) scale(152.321 152.273)">
            <stop stop-color="#2EA4FF" />
            <stop offset="1" stop-color="#2478F0" />
        </radialGradient>
        <radialGradient id="paint22_radial_465_5662" cx="0" cy="0" r="1"
            gradientUnits="userSpaceOnUse"
            gradientTransform="translate(404.245 31.9566) scale(74.8565 74.8328)">
            <stop offset="0.34" stop-color="white" />
            <stop offset="1" stop-color="#BAC3EB" />
        </radialGradient>
        <radialGradient id="paint23_radial_465_5662" cx="0" cy="0" r="1"
            gradientUnits="userSpaceOnUse"
            gradientTransform="translate(498.141 10.4456) scale(214.658 214.59)">
            <stop stop-color="#BAC3EB" />
            <stop offset="0.99" stop-color="white" />
        </radialGradient>
        <radialGradient id="paint24_radial_465_5662" cx="0" cy="0" r="1"
            gradientUnits="userSpaceOnUse"
            gradientTransform="translate(371.772 19.1802) scale(81.6379 81.612)">
            <stop stop-color="#0C3469" />
            <stop offset="1" />
        </radialGradient>
        <radialGradient id="paint25_radial_465_5662" cx="0" cy="0" r="1"
            gradientUnits="userSpaceOnUse"
            gradientTransform="translate(392.247 34.1729) scale(108.894 108.859)">
            <stop stop-color="#0C3469" />
            <stop offset="1" />
        </radialGradient>
        <radialGradient id="paint26_radial_465_5662" cx="0" cy="0" r="1"
            gradientUnits="userSpaceOnUse"
            gradientTransform="translate(458.366 49.0349) scale(99.5043 99.4728)">
            <stop stop-color="#0C3469" />
            <stop offset="1" />
        </radialGradient>
        <radialGradient id="paint27_radial_465_5662" cx="0" cy="0" r="1"
            gradientUnits="userSpaceOnUse"
            gradientTransform="translate(382.467 78.7594) scale(98.461 98.4298)">
            <stop stop-color="#0C3469" />
            <stop offset="1" />
        </radialGradient>
        <radialGradient id="paint28_radial_465_5662" cx="0" cy="0" r="1"
            gradientUnits="userSpaceOnUse"
            gradientTransform="translate(380.379 -25.4067) scale(155.321 155.271)">
            <stop stop-color="#00FFFA" />
            <stop offset="1" />
        </radialGradient>
        <radialGradient id="paint29_radial_465_5662" cx="0" cy="0" r="1"
            gradientUnits="userSpaceOnUse"
            gradientTransform="translate(6.87867 50.4691) scale(38.3411 38.329)">
            <stop offset="0.85" stop-color="#6E757F" />
            <stop offset="0.88" stop-color="#727882" />
            <stop offset="0.9" stop-color="#7E848D" />
            <stop offset="0.93" stop-color="#92979E" />
            <stop offset="0.95" stop-color="#AEB2B7" />
            <stop offset="0.98" stop-color="#D2D4D7" />
            <stop offset="1" stop-color="white" />
        </radialGradient>
        <radialGradient id="paint30_radial_465_5662" cx="0" cy="0" r="1"
            gradientUnits="userSpaceOnUse"
            gradientTransform="translate(398.246 26.0898) scale(69.5096 69.4876)">
            <stop stop-color="#FF6B6B" />
            <stop offset="0.93" stop-color="#B30000" />
        </radialGradient>
        <radialGradient id="paint31_radial_465_5662" cx="0" cy="0" r="1"
            gradientUnits="userSpaceOnUse"
            gradientTransform="translate(408.418 38.3446) scale(57.6421 57.6238)">
            <stop offset="0.53" stop-color="white" />
            <stop offset="0.65" stop-color="#EEC2E0" />
            <stop offset="0.92" stop-color="#C42C93" />
            <stop offset="1" stop-color="#B8007D" />
        </radialGradient>
        <radialGradient id="paint32_radial_465_5662" cx="0" cy="0" r="1"
            gradientUnits="userSpaceOnUse"
            gradientTransform="translate(387.553 12.0098) scale(64.2931 64.2727)">
            <stop stop-color="#D42600" />
            <stop offset="1" />
        </radialGradient>
        <radialGradient id="paint33_radial_465_5662" cx="0" cy="0" r="1"
            gradientUnits="userSpaceOnUse"
            gradientTransform="translate(395.643 9.80606) rotate(7.11776) scale(65.5969 65.5768)">
            <stop stop-color="#FFDAD9" />
            <stop offset="1" />
        </radialGradient>
        <radialGradient id="paint34_radial_465_5662" cx="0" cy="0" r="1"
            gradientUnits="userSpaceOnUse"
            gradientTransform="translate(462.077 94.779) rotate(6.39799) scale(79.1597 79.1353)">
            <stop stop-color="#FFDAD9" />
            <stop offset="1" />
        </radialGradient>
        <linearGradient id="paint35_linear_465_5662" x1="412.33" y1="66.2438" x2="412.33"
            y2="24.3948" gradientUnits="userSpaceOnUse">
            <stop stop-color="white" />
            <stop offset="1" stop-color="#FFE4DB" />
        </linearGradient>
        <radialGradient id="paint36_radial_465_5662" cx="0" cy="0" r="1"
            gradientUnits="userSpaceOnUse"
            gradientTransform="translate(421.849 24.525) scale(39.3844 39.3719)">
            <stop stop-color="white" />
            <stop offset="1" />
        </radialGradient>
        <radialGradient id="paint37_radial_465_5662" cx="0" cy="0" r="1"
            gradientUnits="userSpaceOnUse"
            gradientTransform="translate(397.985 24.6556) scale(16.6927 16.6874)">
            <stop stop-color="white" />
            <stop offset="1" />
        </radialGradient>
        <radialGradient id="paint38_radial_465_5662" cx="0" cy="0" r="1"
            gradientUnits="userSpaceOnUse"
            gradientTransform="translate(238.231 491.122) scale(633.28 633.08)">
            <stop stop-color="#6E757F" />
            <stop offset="1" stop-color="white" />
        </radialGradient>
        <linearGradient id="paint39_linear_465_5662" x1="248.793" y1="659.822" x2="248.793"
            y2="81.8884" gradientUnits="userSpaceOnUse">
            <stop stop-color="#EDD6B9" />
            <stop offset="1" stop-color="#D4B492" />
        </linearGradient>
        <radialGradient id="paint40_radial_465_5662" cx="0" cy="0" r="1"
            gradientUnits="userSpaceOnUse"
            gradientTransform="translate(63.2186 646.393) scale(70.6833 70.6609)">
            <stop stop-color="#A48A7B" />
            <stop offset="1" stop-color="white" />
        </radialGradient>
        <linearGradient id="paint41_linear_465_5662" x1="84.9968" y1="605.196" x2="60.8758"
            y2="622.673" gradientUnits="userSpaceOnUse">
            <stop stop-color="#EDD6B9" />
            <stop offset="1" stop-color="#BF9F7E" />
        </linearGradient>
        <radialGradient id="paint42_radial_465_5662" cx="0" cy="0" r="1"
            gradientUnits="userSpaceOnUse"
            gradientTransform="translate(245.403 365.314) scale(427.751 427.616)">
            <stop stop-color="#CA9E67" />
            <stop offset="1" />
        </radialGradient>
        <radialGradient id="paint43_radial_465_5662" cx="0" cy="0" r="1"
            gradientUnits="userSpaceOnUse"
            gradientTransform="translate(240.448 365.705) scale(364.762 364.647)">
            <stop stop-color="#CA9E67" />
            <stop offset="1" />
        </radialGradient>
        <radialGradient id="paint44_radial_465_5662" cx="0" cy="0" r="1"
            gradientUnits="userSpaceOnUse"
            gradientTransform="translate(47.6996 626.186) scale(63.5106 63.4905)">
            <stop />
            <stop offset="1" stop-color="#A3805F" />
        </radialGradient>
        <radialGradient id="paint45_radial_465_5662" cx="0" cy="0" r="1"
            gradientUnits="userSpaceOnUse"
            gradientTransform="translate(314.652 505.072) scale(375.717 375.598)">
            <stop stop-color="white" />
            <stop offset="1" stop-color="#A48A7B" />
        </radialGradient>
        <radialGradient id="paint46_radial_465_5662" cx="0" cy="0" r="1"
            gradientUnits="userSpaceOnUse"
            gradientTransform="translate(260.662 -93.069) scale(328.508 328.404)">
            <stop stop-color="#A48A7B" />
            <stop offset="1" stop-color="white" />
        </radialGradient>
        <radialGradient id="paint47_radial_465_5662" cx="0" cy="0" r="1"
            gradientUnits="userSpaceOnUse"
            gradientTransform="translate(434.762 100.401) scale(131.194 131.153)">
            <stop stop-color="#A48A7B" />
            <stop offset="1" stop-color="white" />
        </radialGradient>
        <linearGradient id="paint48_linear_465_5662" x1="411.287" y1="110.309" x2="367.873"
            y2="153.084" gradientUnits="userSpaceOnUse">
            <stop stop-color="#BF9F7E" />
            <stop offset="1" stop-color="#EDD6B9" />
        </linearGradient>
        <radialGradient id="paint49_radial_465_5662" cx="0" cy="0" r="1"
            gradientUnits="userSpaceOnUse"
            gradientTransform="translate(407.637 61.6808) scale(109.155 109.12)">
            <stop />
            <stop offset="1" stop-color="#A3805F" />
        </radialGradient>
        <radialGradient id="paint50_radial_465_5662" cx="0" cy="0" r="1"
            gradientUnits="userSpaceOnUse"
            gradientTransform="translate(246.837 537.143) scale(306.338 306.241)">
            <stop stop-color="#D6B792" />
            <stop offset="1" stop-color="#B09274" />
        </radialGradient>
        <radialGradient id="paint51_radial_465_5662" cx="0" cy="0" r="1"
            gradientUnits="userSpaceOnUse"
            gradientTransform="translate(237.709 423.981) scale(250.652 250.572)">
            <stop stop-color="white" />
            <stop offset="1" stop-color="#A48A7B" />
        </radialGradient>
        <radialGradient id="paint52_radial_465_5662" cx="0" cy="0" r="1"
            gradientUnits="userSpaceOnUse"
            gradientTransform="translate(246.837 392.432) scale(147.757 147.71)">
            <stop stop-color="#2EA4FF" />
            <stop offset="1" stop-color="#2478F0" />
        </radialGradient>
        <radialGradient id="paint53_radial_465_5662" cx="0" cy="0" r="1"
            gradientUnits="userSpaceOnUse"
            gradientTransform="translate(127.51 208.739) scale(274.908 274.821)">
            <stop stop-color="#00FFFA" />
            <stop offset="1" />
        </radialGradient>
        <radialGradient id="paint54_radial_465_5662" cx="0" cy="0" r="1"
            gradientUnits="userSpaceOnUse"
            gradientTransform="translate(392.507 392.432) scale(17.2144 17.2089)">
            <stop stop-color="#2EA4FF" />
            <stop offset="1" stop-color="#2478F0" />
        </radialGradient>
        <linearGradient id="paint55_linear_465_5662" x1="392.506" y1="405.99" x2="392.506"
            y2="378.873" gradientUnits="userSpaceOnUse">
            <stop stop-color="#CAD0EB" />
            <stop offset="0.8" stop-color="#A5ADD1" />
            <stop offset="1" stop-color="#757887" />
        </linearGradient>
        <radialGradient id="paint56_radial_465_5662" cx="0" cy="0" r="1"
            gradientUnits="userSpaceOnUse"
            gradientTransform="translate(388.465 388.912) scale(17.3448 17.3393)">
            <stop stop-color="#FF5F2B" />
            <stop offset="0.51" stop-color="#D6360B" />
            <stop offset="1" stop-color="#451C00" />
        </radialGradient>
        <radialGradient id="paint57_radial_465_5662" cx="0" cy="0" r="1"
            gradientUnits="userSpaceOnUse"
            gradientTransform="translate(384.552 383.436) scale(20.9963 20.9897)">
            <stop stop-color="#E94E1B" />
            <stop offset="1" />
        </radialGradient>
        <radialGradient id="paint58_radial_465_5662" cx="0" cy="0" r="1"
            gradientUnits="userSpaceOnUse"
            gradientTransform="translate(379.989 379.134) scale(20.7355 20.7289)">
            <stop stop-color="#E94E1B" />
            <stop offset="1" />
        </radialGradient>
        <radialGradient id="paint59_radial_465_5662" cx="0" cy="0" r="1"
            gradientUnits="userSpaceOnUse"
            gradientTransform="translate(393.159 390.215) scale(19.953 19.9467)">
            <stop stop-color="#E94E1B" />
            <stop offset="1" />
        </radialGradient>
        <linearGradient id="paint60_linear_465_5662" x1="394.073" y1="401.818" x2="394.073"
            y2="383.045" gradientUnits="userSpaceOnUse">
            <stop stop-color="#C7DBF0" />
            <stop offset="1" stop-color="#EAEDFF" />
        </linearGradient>
        <radialGradient id="paint61_radial_465_5662" cx="0" cy="0" r="1"
            gradientUnits="userSpaceOnUse"
            gradientTransform="translate(101.168 392.432) rotate(180) scale(17.2144 17.2089)">
            <stop stop-color="#2EA4FF" />
            <stop offset="1" stop-color="#2478F0" />
        </radialGradient>
        <linearGradient id="paint62_linear_465_5662" x1="101.167" y1="405.99" x2="101.167"
            y2="378.873" gradientUnits="userSpaceOnUse">
            <stop stop-color="#CAD0EB" />
            <stop offset="0.8" stop-color="#A5ADD1" />
            <stop offset="1" stop-color="#757887" />
        </linearGradient>
        <radialGradient id="paint63_radial_465_5662" cx="0" cy="0" r="1"
            gradientUnits="userSpaceOnUse"
            gradientTransform="translate(97.2556 6.53441) scale(6.5206 6.51853)">
            <stop stop-color="#FF5F2B" />
            <stop offset="0.51" stop-color="#D6360B" />
            <stop offset="1" stop-color="#451C00" />
        </radialGradient>
        <radialGradient id="paint64_radial_465_5662" cx="0" cy="0" r="1"
            gradientUnits="userSpaceOnUse"
            gradientTransform="translate(93.2124 6.5346) scale(20.9963 20.9897)">
            <stop stop-color="#E94E1B" />
            <stop offset="1" />
        </radialGradient>
        <radialGradient id="paint65_radial_465_5662" cx="0" cy="0" r="1"
            gradientUnits="userSpaceOnUse"
            gradientTransform="translate(88.7795 379.134) scale(20.7355 20.7289)">
            <stop stop-color="#E94E1B" />
            <stop offset="1" />
        </radialGradient>
        <radialGradient id="paint66_radial_465_5662" cx="0" cy="0" r="1"
            gradientUnits="userSpaceOnUse"
            gradientTransform="translate(101.95 390.215) scale(19.953 19.9467)">
            <stop stop-color="#E94E1B" />
            <stop offset="1" />
        </radialGradient>
        <linearGradient id="paint67_linear_465_5662" x1="99.6025" y1="401.818" x2="99.6025"
            y2="383.045" gradientUnits="userSpaceOnUse">
            <stop stop-color="#C7DBF0" />
            <stop offset="1" stop-color="#EAEDFF" />
        </linearGradient>
        <radialGradient id="paint68_radial_465_5662" cx="0" cy="0" r="1"
            gradientUnits="userSpaceOnUse"
            gradientTransform="translate(246.837 538.056) scale(17.2144 17.2089)">
            <stop stop-color="#2EA4FF" />
            <stop offset="1" stop-color="#2478F0" />
        </radialGradient>
        <linearGradient id="paint69_linear_465_5662" x1="246.838" y1="551.484" x2="246.838"
            y2="524.497" gradientUnits="userSpaceOnUse">
            <stop stop-color="#CAD0EB" />
            <stop offset="0.8" stop-color="#A5ADD1" />
            <stop offset="1" stop-color="#757887" />
        </linearGradient>
        <radialGradient id="paint70_radial_465_5662" cx="0" cy="0" r="1"
            gradientUnits="userSpaceOnUse"
            gradientTransform="translate(242.795 534.536) scale(17.3448 17.3393)">
            <stop stop-color="#FF5F2B" />
            <stop offset="0.51" stop-color="#D6360B" />
            <stop offset="1" stop-color="#451C00" />
        </radialGradient>
        <radialGradient id="paint71_radial_465_5662" cx="0" cy="0" r="1"
            gradientUnits="userSpaceOnUse"
            gradientTransform="translate(238.882 529.06) scale(20.9963 20.9897)">
            <stop stop-color="#E94E1B" />
            <stop offset="1" />
        </radialGradient>
        <radialGradient id="paint72_radial_465_5662" cx="0" cy="0" r="1"
            gradientUnits="userSpaceOnUse"
            gradientTransform="translate(234.447 524.758) scale(20.7355 20.7289)">
            <stop stop-color="#E94E1B" />
            <stop offset="1" />
        </radialGradient>
        <radialGradient id="paint73_radial_465_5662" cx="0" cy="0" r="1"
            gradientUnits="userSpaceOnUse"
            gradientTransform="translate(247.489 535.839) scale(19.953 19.9467)">
            <stop stop-color="#E94E1B" />
            <stop offset="1" />
        </radialGradient>
        <linearGradient id="paint74_linear_465_5662" x1="237.578" y1="539.62" x2="256.227"
            y2="539.62" gradientUnits="userSpaceOnUse">
            <stop stop-color="#C7DBF0" />
            <stop offset="1" stop-color="#EAEDFF" />
        </linearGradient>
        <radialGradient id="paint75_radial_465_5662" cx="0" cy="0" r="1"
            gradientUnits="userSpaceOnUse"
            gradientTransform="translate(246.837 246.808) rotate(180) scale(17.2144 17.2089)">
            <stop stop-color="#2EA4FF" />
            <stop offset="1" stop-color="#2478F0" />
        </radialGradient>
        <linearGradient id="paint76_linear_465_5662" x1="246.838" y1="260.366" x2="246.838"
            y2="233.379" gradientUnits="userSpaceOnUse">
            <stop stop-color="#CAD0EB" />
            <stop offset="0.8" stop-color="#A5ADD1" />
            <stop offset="1" stop-color="#757887" />
        </linearGradient>
        <radialGradient id="paint77_radial_465_5662" cx="0" cy="0" r="1"
            gradientUnits="userSpaceOnUse"
            gradientTransform="translate(242.795 243.418) scale(6.5206 6.51853)">
            <stop stop-color="#FF5F2B" />
            <stop offset="0.51" stop-color="#D6360B" />
            <stop offset="1" stop-color="#451C00" />
        </radialGradient>
        <radialGradient id="paint78_radial_465_5662" cx="0" cy="0" r="1"
            gradientUnits="userSpaceOnUse"
            gradientTransform="translate(238.882 237.942) scale(20.9963 20.9897)">
            <stop stop-color="#E94E1B" />
            <stop offset="1" />
        </radialGradient>
        <radialGradient id="paint79_radial_465_5662" cx="0" cy="0" r="1"
            gradientUnits="userSpaceOnUse"
            gradientTransform="translate(234.447 233.64) scale(20.7355 20.7289)">
            <stop stop-color="#E94E1B" />
            <stop offset="1" />
        </radialGradient>
        <radialGradient id="paint80_radial_465_5662" cx="0" cy="0" r="1"
            gradientUnits="userSpaceOnUse"
            gradientTransform="translate(247.62 244.722) scale(19.953 19.9467)">
            <stop stop-color="#E94E1B" />
            <stop offset="1" />
        </radialGradient>
        <linearGradient id="paint81_linear_465_5662" x1="237.578" y1="245.243" x2="256.227"
            y2="245.243" gradientUnits="userSpaceOnUse">
            <stop stop-color="#C7DBF0" />
            <stop offset="1" stop-color="#EAEDFF" />
        </linearGradient>
        <radialGradient id="paint82_radial_465_5662" cx="0" cy="0" r="1"
            gradientUnits="userSpaceOnUse"
            gradientTransform="translate(230.536 574.559) scale(92.7229 92.6936)">
            <stop stop-color="#FF9633" />
            <stop offset="1" stop-color="#FA5819" />
        </radialGradient>
        <radialGradient id="paint83_radial_465_5662" cx="0" cy="0" r="1"
            gradientUnits="userSpaceOnUse"
            gradientTransform="translate(249.445 540.402) scale(117.762 117.725)">
            <stop offset="0.7" stop-color="white" />
            <stop offset="0.71" stop-color="#FBFAF9" />
            <stop offset="0.77" stop-color="#E6D9D5" />
            <stop offset="0.83" stop-color="#D4BFB8" />
            <stop offset="0.88" stop-color="#C8ACA4" />
            <stop offset="0.94" stop-color="#C1A198" />
            <stop offset="1" stop-color="#BF9E94" />
        </radialGradient>
        <radialGradient id="paint84_radial_465_5662" cx="0" cy="0" r="1"
            gradientUnits="userSpaceOnUse"
            gradientTransform="translate(228.449 557.09) scale(106.677 106.643)">
            <stop stop-color="#FF7B00" />
            <stop offset="1" stop-color="#471808" />
        </radialGradient>
        <radialGradient id="paint85_radial_465_5662" cx="0" cy="0" r="1"
            gradientUnits="userSpaceOnUse"
            gradientTransform="translate(220.494 573.516) scale(82.0292 82.0032)">
            <stop stop-color="#FFFBD9" />
            <stop offset="1" />
        </radialGradient>
        <radialGradient id="paint86_radial_465_5662" cx="0" cy="0" r="1"
            gradientUnits="userSpaceOnUse"
            gradientTransform="translate(320.911 642.352) scale(77.2039 77.1795)">
            <stop stop-color="#FFFBD9" />
            <stop offset="1" />
        </radialGradient>
        <linearGradient id="paint87_linear_465_5662" x1="236.665" y1="621.101" x2="236.665"
            y2="589.813" gradientUnits="userSpaceOnUse">
            <stop stop-color="white" />
            <stop offset="1" stop-color="#FCFFC9" />
        </linearGradient>
        <linearGradient id="paint88_linear_465_5662" x1="268.485" y1="620.58" x2="268.485"
            y2="590.334" gradientUnits="userSpaceOnUse">
            <stop stop-color="white" />
            <stop offset="1" stop-color="#FCFFC9" />
        </linearGradient>
    </defs>
</svg>