<svg width="190" height="190" viewBox="0 0 190 190" fill="none" xmlns="http://www.w3.org/2000/svg">
<path d="M182 67C182 49.3269 167.673 35 150 35H84C66.3269 35 52 49.3269 52 67V122.924C52 144.079 72.1609 159.412 92.5472 153.762L158.547 135.468C172.406 131.627 182 119.012 182 104.631V67Z" fill="url(#paint0_linear_1266_43463)"/>
<g style="mix-blend-mode:multiply">
<path d="M64.804 124.405L99.0937 165L190 145.477L164.532 134.64L103.22 156.867L64.804 124.405Z" fill="#EDECEB"/>
</g>
<path d="M64.8027 124.405L71.6103 76.0789L129.208 72.9648L116.971 157.095L102.613 160.432L64.8027 124.405Z" fill="#022333"/>
<path d="M172.131 99.4302L162.019 146.628L116.973 157.095L129.21 72.9648L172.131 99.4302Z" fill="#063046"/>
<path d="M71.6129 76.0781L110.329 106.09L102.616 160.431L64.8053 124.405L71.6129 76.0781Z" fill="#0074D9"/>
<path d="M172.132 99.4297L162.02 146.627L102.616 160.431L110.329 106.091L172.132 99.4297Z" fill="#0074D9"/>
<path d="M106.273 134.64L105.92 137.13L68.5291 97.949L68.8825 95.4551L106.273 134.64Z" fill="#0B8DFF"/>
<path d="M105.49 140.159L105.136 142.649L67.7498 103.472L68.1032 100.979L105.49 140.159Z" fill="#0B8DFF"/>
<path d="M67.3254 106.501L104.708 145.673L104.354 148.162L66.972 108.995L67.3254 106.501Z" fill="#0B8DFF"/>
<path d="M64.8031 124.405L64.9886 123.075L80.8877 139.734L64.8031 124.405Z" fill="#0B8DFF"/>
<path d="M107.058 129.121L106.705 131.611L69.3093 92.4256L69.6583 89.9316L107.058 129.121Z" fill="#0B8DFF"/>
<path d="M109.409 112.565L109.055 115.054L72.5611 76.8193L83.0486 84.9481L109.409 112.565Z" fill="#0B8DFF"/>
<path d="M66.1957 114.518L66.5491 112.024L103.927 151.192L103.573 153.681L66.1957 114.518Z" fill="#0B8DFF"/>
<path d="M65.4174 120.042L65.7664 117.553L103.14 156.711L102.786 159.2L65.4174 120.042Z" fill="#0B8DFF"/>
<path d="M110.191 107.05L109.838 109.535L95.812 94.8389L106.299 102.968L110.191 107.05Z" fill="#0B8DFF"/>
<path d="M108.624 118.083L108.27 120.573L70.8659 81.3743L71.2149 78.8848L108.624 118.083Z" fill="#0B8DFF"/>
<path d="M107.841 123.602L107.487 126.092L70.0876 86.9022L70.4366 84.4082L107.841 123.602Z" fill="#0B8DFF"/>
<path d="M107.366 126.931L147.585 102.076L152.144 101.585L107.004 129.482L107.366 126.931Z" fill="#0B8DFF"/>
<path d="M106.565 132.583L157.695 100.987L162.254 100.496L106.203 135.135L106.565 132.583Z" fill="#0B8DFF"/>
<path d="M105.766 138.235L167.803 99.8937L172.132 99.4297L172.105 99.5635L105.403 140.787L105.766 138.235Z" fill="#0B8DFF"/>
<path d="M104.961 143.888L171.403 102.825L170.829 105.507L104.599 146.44L104.961 143.888Z" fill="#0B8DFF"/>
<path d="M108.972 115.625L127.372 104.252L131.931 103.762L108.61 118.172L108.972 115.625Z" fill="#0B8DFF"/>
<path d="M121.823 104.851L109.414 112.52L109.776 109.972L117.264 105.346L121.823 104.851Z" fill="#0B8DFF"/>
<path d="M108.173 121.278L137.48 103.165L142.039 102.674L107.811 123.826L108.173 121.278Z" fill="#0B8DFF"/>
<path d="M143.716 150.879L163.764 138.494L163.189 141.171L149.746 149.478L143.716 150.879Z" fill="#0B8DFF"/>
<path d="M130.343 153.99L165.035 132.548L164.46 135.229L136.373 152.589L130.343 153.99Z" fill="#0B8DFF"/>
<path d="M162.019 146.628L157.088 147.775L162.491 144.438L162.019 146.628Z" fill="#0B8DFF"/>
<path d="M104.16 149.541L170.129 108.772L169.555 111.454L103.798 152.093L104.16 149.541Z" fill="#0B8DFF"/>
<path d="M103.356 155.194L168.856 114.715L168.282 117.396L102.994 157.746L103.356 155.194Z" fill="#0B8DFF"/>
<path d="M116.971 157.094L166.307 126.604L165.733 129.286L123.001 155.693L116.971 157.094Z" fill="#0B8DFF"/>
<path d="M103.6 160.204L167.585 120.657L167.006 123.339L109.63 158.803L103.6 160.204Z" fill="#0B8DFF"/>
<path d="M148.625 102.009L137.726 152.214L128.785 154.186L138.252 102.972L148.625 102.009Z" fill="#EFAC21"/>
<g style="mix-blend-mode:multiply">
<path d="M148.625 102.009L137.726 152.214L139.953 151.848L148.625 102.009Z" fill="#49DBD7"/>
</g>
<path d="M91.7393 91.4213L83.9289 142.866L78.3229 136.937L85.2497 86.6074L91.7393 91.4213Z" fill="#EFAC21"/>
<g style="mix-blend-mode:multiply">
<path d="M91.7393 91.4219L83.9289 142.867L85.6606 144.509L91.7393 91.4219Z" fill="#49DBD7"/>
</g>
<path d="M47.3988 117.097L113.734 80.5885L117.524 60.5432L121.337 40.3462L110.147 24.7578L51.9225 60.9581L33.2358 100.496L47.3988 117.097Z" fill="#0074D9"/>
<path d="M47.3985 117.098L113.734 80.5896L97.9143 63.6494L33.2356 100.497L47.3985 117.098Z" fill="#0074D9"/>
<path d="M97.914 63.6484L110.146 24.7578L51.9219 60.9581L33.2353 100.496L97.914 63.6484Z" fill="#004D90"/>
<g style="mix-blend-mode:multiply">
<path d="M117.526 60.544L103.615 45.1787L42.0239 81.9768L103.668 46.5171L117.526 60.544Z" fill="#49DBD7"/>
</g>
<path d="M103.613 45.1785L117.524 60.5438L118.973 53.2047L106.012 37.835L46.1394 72.8574L42.0222 81.9766L103.613 45.1785Z" fill="#EFAC21"/>
<g style="mix-blend-mode:multiply">
<path d="M80.4687 43.1484L68.3953 80.299L83 97.5158L69.5704 79.5629L80.4687 43.1484Z" fill="#49DBD7"/>
</g>
<path d="M83 97.5158L68.3953 80.299L80.4687 43.1484L71.0547 49.0019L59.105 85.7242L74.1559 102.495L83 97.5158Z" fill="#EFAC21"/>
<path d="M59.2698 88.4283C59.2698 88.4283 65.9625 87.3219 67.946 89.972C68.5822 92.4883 69.7352 100.635 54.7726 108.616C39.8101 116.598 33.0864 104.262 33.0378 100.184C35.0125 102.714 39.9603 105.984 42.1735 105.837C37.7117 102.241 40.053 97.6011 40.053 97.6011C40.053 97.6011 45.0803 110.347 53.1425 106.778C61.2047 103.209 63.1927 91.181 59.2698 88.4283Z" fill="#EFAC21"/>
<g style="mix-blend-mode:multiply">
<path d="M70.0957 66.5264C70.0957 66.5264 57.9118 75.5028 57.7793 80.6603C57.6468 85.8177 67.1889 85.3359 68.3375 89.9936C69.0443 92.8579 68.2491 95.6686 67.2861 97.0561C68.6114 94.067 68.3021 91.0242 67.9797 90.1007C65.9255 88.8426 64.4809 88.1957 59.3167 88.4946C59.1311 88.4054 52.6902 82.0121 52.6151 81.5035C52.54 80.9949 53.8034 77.5774 53.8034 77.5774L60.2444 70.4703L65.1038 68.7169L70.0957 66.5264Z" fill="#CCCCCC"/>
</g>
<path d="M56.8892 79.4468C55.7671 85.5545 66.3695 84.8808 68.0128 90.132C64.1695 85.5858 51.8443 92.5144 48.6547 83.3149C43.8218 69.3907 65.2739 68.949 67.9245 65.2549C68.1542 66.2052 68.3663 66.0847 69.665 66.5487C66.6964 69.2256 57.5695 75.7527 56.8892 79.4468Z" fill="#EFAC21"/>
<g style="mix-blend-mode:multiply">
<path d="M69.354 66.1607C60.2227 70.0779 48.9975 66.0804 42.8481 59.8076C54.8774 62.3239 69.354 66.1607 69.354 66.1607Z" fill="#CCCCCC"/>
</g>
<path d="M69.5166 65.938C69.5166 65.938 50.7725 74.7449 31.9357 48.0564L40.3292 35.1807C40.3292 35.1807 48.6344 58.9379 69.5166 65.938Z" fill="#F98524"/>
<g style="mix-blend-mode:multiply">
<path d="M69.354 66.1613C69.354 66.1613 59.2818 50.1001 31.8835 48.2441C41.0281 46.8834 59.4717 44.8088 69.354 66.1613Z" fill="#CCCCCC"/>
</g>
<path d="M69.3541 66.1612C69.3541 66.1612 70.7899 46.3702 40.2816 35.2031C37.0189 39.2262 34.2042 43.5995 31.8881 48.244C31.8881 48.244 57.0731 47.7175 69.3541 66.1612Z" fill="#EFAC21"/>
<path d="M76.3165 101.487C76.3165 101.487 75.5611 97.7482 79.4089 94.5671C85.3285 89.6595 98.9305 87.3842 102.447 104.672C105.597 120.185 85.4876 123.758 85.4876 123.758C86.0412 120.967 87.6474 118.502 89.9671 116.883C84.1844 115.152 82.4261 111.597 82.4261 111.597C82.4261 111.597 89.3 111.976 93.2582 109.812C96.6951 107.916 95.8646 102.196 91.8887 101.362C84.5113 99.8227 85.9249 107.666 85.9249 107.666L76.3165 101.487Z" fill="#F98524"/>
<g style="mix-blend-mode:multiply">
<path d="M67.9698 64.5996C67.9698 64.5996 82.9103 66.1299 92.0548 77.984C99.4588 87.5851 93.6628 106.279 85.9143 107.644C90.1375 103.182 94.7054 91.6494 92.2359 85.0019C89.7665 78.3543 85.3002 71.5327 79.8974 69.5964C74.4947 67.6602 67.9698 64.5996 67.9698 64.5996Z" fill="#CCCCCC"/>
</g>
<path d="M68.4144 66.4956C68.4144 66.4956 84.9983 71.9297 86.4208 82.4096C87.8433 92.8896 79.7943 100.099 76.3839 101.63C78.9196 107.189 85.9172 107.653 85.9172 107.653C85.9172 107.653 96.3472 101.995 94.0545 85.6754C91.7617 69.3554 67.9904 64.6084 67.9904 64.6084L68.4144 66.4956Z" fill="#EFAC21"/>
<g style="mix-blend-mode:multiply">
<path d="M69.1245 66.496C69.1245 66.496 63.9603 60.0402 65.0912 52.1836C65.3651 58.0995 67.8832 64.8854 69.1245 66.496Z" fill="#CCCCCC"/>
</g>
<g style="mix-blend-mode:multiply">
<path d="M78.5308 43.7021C78.5308 43.7021 71.7673 53.8074 69.3995 64.7022C67.1023 60.1783 73.9585 44.5766 78.5308 43.7021Z" fill="#CCCCCC"/>
</g>
<path d="M69.1333 66.5088C69.1333 66.5088 55.6153 49.2474 78.163 24L93.2979 29.7731C93.2979 29.7731 71.1654 43.5457 69.1333 66.5088Z" fill="#F98524"/>
<g style="mix-blend-mode:multiply">
<path d="M93.2535 29.7109C93.2535 29.7109 95.0205 55.7479 71.2978 65.6256C81.3965 45.9952 78.8608 33.7306 77.9729 24.085C82.2757 24.6382 93.2535 29.7109 93.2535 29.7109Z" fill="#CCCCCC"/>
</g>
<path d="M69.1238 66.4954C69.1238 66.4954 89.3345 63.4705 93.2529 29.7107C88.3735 27.26 83.2476 25.3454 77.9635 24C77.9635 24 84.8594 49.8095 69.1238 66.4954Z" fill="#EFAC21"/>
<g style="mix-blend-mode:multiply">
<path d="M68.5158 64.4704C65.7857 64.5105 66.0508 67.3793 69.3994 67.009C72.7479 66.6387 71.8688 64.4258 68.5158 64.4704Z" fill="#CCCCCC"/>
</g>
<path d="M68.6109 64.4704C66.4021 64.5105 66.5965 67.3793 69.3398 67.009C72.0832 66.6387 71.3499 64.4258 68.6109 64.4704Z" fill="#EFAC21"/>
<path d="M165.221 79.7275L174.18 80.3566L173.058 83.8767L165.221 79.7275Z" fill="white"/>
<path d="M159.503 74.2317L163.073 72.8487L161.973 70.0781L159.503 74.2317Z" fill="white"/>
<path d="M143.388 83.119C144.342 83.119 145.155 82.771 145.53 82.1508C145.787 81.7359 146.065 80.8526 145.04 79.581C144.673 79.109 144.213 78.7187 143.689 78.4347C143.165 78.1506 142.589 77.9789 141.996 77.9303C140.95 77.8678 139.904 78.0384 138.93 78.43C138.743 77.8503 138.617 77.2521 138.555 76.6454C138.378 74.9277 139.028 73.7499 140.49 73.1432C141.032 72.9291 141.602 72.7954 142.182 72.7461C143.017 75.1419 145.274 77.4797 147.231 78.1578C148.609 78.6307 149.789 78.3006 150.544 77.2254C150.827 76.8389 150.966 76.3648 150.937 75.8854C150.909 75.4061 150.715 74.952 150.39 74.602C149.148 73.0227 145.782 71.7824 142.84 71.8226C142.762 71.4848 142.727 71.1386 142.734 70.792C142.783 69.5695 143.525 68.7665 144.943 68.4006C150.955 66.8525 153.531 71.1935 153.637 71.3764C153.695 71.4794 153.792 71.5546 153.905 71.5855C154.019 71.6165 154.14 71.6006 154.242 71.5415C154.344 71.4823 154.418 71.3847 154.449 71.2701C154.48 71.1554 154.464 71.0332 154.405 70.9303C154.374 70.8812 151.401 65.8174 144.726 67.5351C142.959 67.9812 141.917 69.1412 141.855 70.7563C141.84 71.132 141.871 71.5081 141.948 71.8761C141.342 71.9452 140.747 72.0952 140.181 72.3222C138.361 73.0718 137.481 74.6422 137.698 76.7435C137.77 77.439 137.919 78.1242 138.14 78.7869C136.859 79.3914 135.66 80.1575 134.57 81.0667C134.481 81.1436 134.426 81.2531 134.417 81.3711C134.408 81.489 134.445 81.6058 134.522 81.6958C134.598 81.7857 134.706 81.8414 134.823 81.8506C134.94 81.8598 135.055 81.8218 135.144 81.7448C136.164 80.9032 137.281 80.19 138.471 79.6212C138.83 80.4544 139.373 81.1938 140.058 81.783C140.744 82.3721 141.553 82.7955 142.425 83.0208C142.742 83.0873 143.064 83.1202 143.388 83.119ZM141.524 78.8047C141.655 78.7981 141.786 78.7981 141.917 78.8047C142.394 78.8416 142.857 78.9799 143.278 79.2106C143.698 79.4413 144.065 79.7591 144.355 80.1432C144.647 80.5001 145.089 81.1782 144.797 81.6735C144.505 82.1687 143.573 82.3516 142.588 82.1196C141.855 81.9243 141.175 81.5646 140.598 81.0672C140.021 80.5697 139.563 79.9474 139.257 79.2464C139.981 78.9664 140.748 78.8169 141.524 78.8047ZM143.118 72.6925C145.725 72.6925 148.64 73.799 149.696 75.1463C149.9 75.3456 150.026 75.6132 150.048 75.899C150.071 76.1849 149.99 76.4693 149.82 76.6989C149.299 77.444 148.521 77.6448 147.514 77.3012C145.875 76.7346 143.927 74.7136 143.118 72.6925Z" fill="#EFAC21"/>
<path d="M154.801 80.6959L157.907 77.3721L160.469 78.4785L154.801 80.6959Z" fill="#063046"/>
<path d="M126.982 66.9232L126.637 71.6434L129.478 64.166L126.982 66.9232Z" fill="white"/>
<path d="M122.636 77.9831C122.223 77.8233 121.856 77.5629 121.567 77.2251C121.278 76.8873 121.076 76.4825 120.98 76.0469C120.436 78.0367 118.912 77.6396 118.912 77.6396C118.912 77.6396 120.944 78.5319 120.944 79.4599C121.505 77.9831 122.636 77.9831 122.636 77.9831Z" fill="#EFAC21"/>
<path d="M121.116 61.4767C121.116 61.4767 119.106 61.6151 119.106 59.1211C118.054 61.3831 116.592 61.0618 116.592 61.0618C116.592 61.0618 119.062 62.1683 119.062 63.2926C119.76 61.4767 121.116 61.4767 121.116 61.4767Z" fill="#063046"/>
<path d="M183.206 80.8788C183.206 80.8788 181.509 81.4722 180.913 79.2236C180.551 81.5079 179.216 81.5614 179.216 81.5614C179.216 81.5614 181.602 81.9808 181.867 82.9802C182.026 81.1956 183.206 80.8788 183.206 80.8788Z" fill="#EFAC21"/>
<path d="M127.584 75.4854C127.755 75.4854 127.919 75.554 128.04 75.6761C128.161 75.7983 128.229 75.964 128.229 76.1367C128.229 76.3095 128.161 76.4752 128.04 76.5973C127.919 76.7195 127.755 76.7881 127.584 76.7881C127.413 76.7881 127.249 76.7195 127.128 76.5973C127.007 76.4752 126.939 76.3095 126.939 76.1367C126.939 75.964 127.007 75.7983 127.128 75.6761C127.249 75.554 127.413 75.4854 127.584 75.4854Z" fill="#2B9EBA"/>
<path d="M119.973 70.0339L118.877 66.3398L117.963 66.8931L119.973 70.0339Z" fill="#EFAC21"/>
<path d="M113.566 81.7449L110.977 82.8112L113.69 82.4989L114.83 85.0018L114.547 82.307L116.977 81.1515L114.238 81.5129L113.129 78.9609L113.566 81.7449Z" fill="white"/>
<path d="M123.579 83.3066C123.677 83.3291 123.764 83.3844 123.826 83.4634C123.889 83.5424 123.923 83.6405 123.923 83.7416C123.923 83.8427 123.889 83.9408 123.826 84.0199C123.764 84.0989 123.677 84.1542 123.579 84.1766C123.482 84.1542 123.394 84.0989 123.332 84.0199C123.27 83.9408 123.236 83.8427 123.236 83.7416C123.236 83.6405 123.27 83.5424 123.332 83.4634C123.394 83.3844 123.482 83.3291 123.579 83.3066Z" fill="white"/>
<path d="M117.551 90.877C117.647 90.9011 117.732 90.9569 117.792 91.0353C117.853 91.1137 117.886 91.2103 117.886 91.3097C117.886 91.4092 117.853 91.5058 117.792 91.5842C117.732 91.6626 117.647 91.7183 117.551 91.7425C117.456 91.7183 117.371 91.6626 117.31 91.5842C117.25 91.5058 117.217 91.4092 117.217 91.3097C117.217 91.2103 117.25 91.1137 117.31 91.0353C117.371 90.9569 117.456 90.9011 117.551 90.877Z" fill="#0074D9"/>
<path d="M106.216 84.5996C106.311 84.6238 106.396 84.6795 106.457 84.7579C106.517 84.8363 106.55 84.9329 106.55 85.0324C106.55 85.1318 106.517 85.2284 106.457 85.3068C106.396 85.3852 106.311 85.441 106.216 85.4651C106.12 85.441 106.036 85.3852 105.975 85.3068C105.914 85.2284 105.882 85.1318 105.882 85.0324C105.882 84.9329 105.914 84.8363 105.975 84.7579C106.036 84.6795 106.12 84.6238 106.216 84.5996Z" fill="white"/>
<path d="M134.55 88.8467C134.645 88.8709 134.73 88.9266 134.791 89.005C134.851 89.0834 134.884 89.18 134.884 89.2794C134.884 89.3789 134.851 89.4755 134.791 89.5539C134.73 89.6323 134.645 89.688 134.55 89.7122C134.454 89.688 134.37 89.6323 134.309 89.5539C134.248 89.4755 134.216 89.3789 134.216 89.2794C134.216 89.18 134.248 89.0834 134.309 89.005C134.37 88.9266 134.454 88.8709 134.55 88.8467Z" fill="#EFAC21"/>
<path d="M109.325 96.418C109.42 96.4421 109.505 96.4979 109.566 96.5763C109.626 96.6547 109.659 96.7513 109.659 96.8507C109.659 96.9502 109.626 97.0468 109.566 97.1252C109.505 97.2036 109.42 97.2593 109.325 97.2835C109.229 97.2593 109.145 97.2036 109.084 97.1252C109.023 97.0468 108.99 96.9502 108.99 96.8507C108.99 96.7513 109.023 96.6547 109.084 96.5763C109.145 96.4979 109.229 96.4421 109.325 96.418Z" fill="white"/>
<path d="M148.447 89.7715C148.542 89.7957 148.627 89.8514 148.688 89.9298C148.748 90.0082 148.781 90.1048 148.781 90.2042C148.781 90.3037 148.748 90.4003 148.688 90.4787C148.627 90.5571 148.542 90.6128 148.447 90.637C148.351 90.6128 148.267 90.5571 148.206 90.4787C148.145 90.4003 148.113 90.3037 148.113 90.2042C148.113 90.1048 148.145 90.0082 148.206 89.9298C148.267 89.8514 148.351 89.7957 148.447 89.7715Z" fill="#0074D9"/>
<path d="M127.239 92.6037L125.595 94.4507L125.41 91.127L127.239 92.6037Z" fill="#0074D9"/>
<path d="M142.78 87.8038L138.941 91.8637L141.318 86.1396L142.78 87.8038Z" fill="#0074D9"/>
<path d="M130.711 83.9268L129.068 82.8203L129.249 85.7738L130.711 83.9268Z" fill="white"/>
<path d="M110.97 89.833L108.774 90.3862L110.789 91.863L110.97 89.833Z" fill="white"/>
<path fill-rule="evenodd" clip-rule="evenodd" d="M116.622 144C114.165 144 111.916 144.535 109.939 145.669C107.945 146.813 106.411 148.48 105.336 150.599C104.245 152.726 103.75 155.228 103.75 158.024C103.75 161.583 104.55 164.685 106.315 167.173C107.872 169.369 109.931 170.873 112.439 171.643C113.484 173.531 114.926 175.112 116.742 176.372L116.752 176.379C118.966 177.893 121.598 178.6 124.542 178.6C125.635 178.6 126.659 178.507 127.597 178.302C128.459 178.113 129.262 177.861 129.937 177.506C130.748 177.079 131.165 176.156 130.95 175.266L129.87 170.802C129.738 170.258 129.385 169.794 128.895 169.522C128.405 169.251 127.824 169.198 127.293 169.375C127.057 169.453 126.759 169.526 126.39 169.584C126.366 169.588 126.342 169.592 126.318 169.597C126.309 169.599 126.299 169.601 126.29 169.603C125.98 169.668 125.639 169.704 125.262 169.704C125.04 169.704 124.812 169.691 124.578 169.663C125.602 168.854 126.49 167.864 127.233 166.7C128.786 164.284 129.494 161.351 129.494 158.024C129.494 155.228 128.998 152.726 127.907 150.599C126.832 148.48 125.298 146.813 123.305 145.669C121.328 144.535 119.079 144 116.622 144ZM15 144.432C13.8954 144.432 13 145.327 13 146.432V169.832C13 170.937 13.8954 171.832 15 171.832H20.544C21.6486 171.832 22.544 170.937 22.544 169.832V168.005L22.7736 168.621C23.0649 169.405 23.8124 169.924 24.648 169.924H27.96C28.7956 169.924 29.5431 169.405 29.8344 168.621L30.136 167.811V169.832C30.136 170.937 31.0314 171.832 32.136 171.832H37.752C38.1682 171.832 38.5547 171.705 38.8748 171.487C39.2019 171.709 39.5919 171.832 39.9972 171.832H46.3332C47.2637 171.832 48.0713 171.19 48.2815 170.284L49.0745 166.864H52.4479L53.2409 170.284C53.4511 171.19 54.2587 171.832 55.1892 171.832H61.7412C62.1437 171.832 62.531 171.711 62.8568 171.492C63.1755 171.707 63.5594 171.832 63.9727 171.832H70.1647C71.2692 171.832 72.1647 170.937 72.1647 169.832V146.432C72.1647 145.327 71.2692 144.432 70.1647 144.432H63.9727C62.8681 144.432 61.9727 145.327 61.9727 146.432V163.728L56.5264 145.849C56.27 145.007 55.4933 144.432 54.6132 144.432H47.1252C46.2451 144.432 45.4685 145.007 45.212 145.849L39.752 163.773V146.432C39.752 145.327 38.8566 144.432 37.752 144.432H31.128C30.2803 144.432 29.5247 144.966 29.2423 145.766L26.4358 153.707L23.5007 145.741C23.211 144.954 22.4619 144.432 21.624 144.432H15ZM75.3633 144.432C74.2587 144.432 73.3633 145.327 73.3633 146.432V169.832C73.3633 170.937 74.2587 171.832 75.3633 171.832H81.2673C82.3718 171.832 83.2673 170.937 83.2673 169.832V164.706L86.2427 170.719C86.58 171.401 87.2748 171.832 88.0353 171.832H94.3713C95.4758 171.832 96.3713 170.937 96.3713 169.832V146.432C96.3713 145.327 95.4758 144.432 94.3713 144.432H88.4673C87.3627 144.432 86.4673 145.327 86.4673 146.432V151.537L83.4906 145.543C83.1528 144.862 82.4588 144.432 81.6993 144.432H75.3633ZM131.54 144.432C130.435 144.432 129.54 145.327 129.54 146.432V158.528C129.54 162.721 130.375 166.229 132.418 168.668C134.515 171.171 137.596 172.264 141.26 172.264C144.933 172.264 148.018 171.178 150.052 168.64C152.029 166.203 152.836 162.707 152.836 158.528V146.432C152.836 145.327 151.94 144.432 150.836 144.432H144.86C143.755 144.432 142.86 145.327 142.86 146.432V159.248C142.86 161.263 142.547 162.203 142.317 162.535L142.31 162.545C142.186 162.727 141.976 162.936 141.26 162.936C140.579 162.936 140.356 162.747 140.229 162.572C140.008 162.201 139.732 161.227 139.732 159.248V146.432C139.732 145.327 138.836 144.432 137.732 144.432H131.54ZM155.871 144.432C154.767 144.432 153.871 145.327 153.871 146.432V169.832C153.871 170.937 154.767 171.832 155.871 171.832H162.063C162.927 171.832 163.663 171.285 163.942 170.518C164.222 171.285 164.958 171.832 165.822 171.832H183.102C184.206 171.832 185.102 170.937 185.102 169.832V164.648C185.102 163.543 184.206 162.648 183.102 162.648H177.175L184.698 151.28C184.914 150.952 185.03 150.569 185.03 150.176V146.432C185.03 145.327 184.134 144.432 183.03 144.432H166.758C165.653 144.432 164.758 145.327 164.758 146.432V151.616C164.758 152.721 165.653 153.616 166.758 153.616H171.676L164.154 164.984C164.121 165.034 164.091 165.084 164.063 165.136V146.432C164.063 145.327 163.168 144.432 162.063 144.432H155.871ZM114.953 154.232C115.408 153.577 115.907 153.328 116.622 153.328C117.371 153.328 117.854 153.584 118.275 154.209L118.286 154.226L118.302 154.248C118.784 154.929 119.158 156.102 119.158 158.024C119.158 160.135 118.777 161.467 118.26 162.258L118.245 162.28C117.801 162.981 117.318 163.224 116.622 163.224C115.96 163.224 115.462 162.988 114.984 162.258C114.467 161.467 114.086 160.135 114.086 158.024C114.086 156.102 114.459 154.929 114.942 154.248L114.953 154.232Z" fill="#FEFEFE"/>
<path d="M15 169.832V146.432H21.624L25.152 156.008C25.368 156.656 25.572 157.328 25.764 158.024C25.956 158.72 26.16 159.416 26.376 160.112H26.52C26.736 159.416 26.94 158.72 27.132 158.024C27.324 157.328 27.528 156.656 27.744 156.008L31.128 146.432H37.752V169.832H32.136V162.92C32.136 162.128 32.184 161.24 32.28 160.256C32.376 159.248 32.484 158.24 32.604 157.232C32.724 156.224 32.832 155.336 32.928 154.568H32.784L30.84 160.184L27.96 167.924H24.648L21.768 160.184L19.896 154.568H19.752C19.848 155.336 19.956 156.224 20.076 157.232C20.196 158.24 20.304 159.248 20.4 160.256C20.496 161.24 20.544 162.128 20.544 162.92V169.832H15Z" fill="url(#paint1_linear_1266_43463)"/>
<path d="M48.9972 158.456L48.6012 160.076H52.9212L52.5252 158.456C52.2372 157.328 51.9492 156.104 51.6612 154.784C51.3732 153.464 51.0852 152.216 50.7972 151.04H50.6532C50.4132 152.216 50.1492 153.464 49.8612 154.784C49.5732 156.104 49.2852 157.328 48.9972 158.456ZM39.9972 169.832L47.1252 146.432H54.6132L61.7412 169.832H55.1892L54.0372 164.864H47.4852L46.3332 169.832H39.9972Z" fill="url(#paint2_linear_1266_43463)"/>
<path d="M63.9727 169.832V146.432H70.1647V169.832H63.9727Z" fill="url(#paint3_linear_1266_43463)"/>
<path d="M75.3633 169.832V146.432H81.6993L86.8833 156.872L89.1153 162.128H89.2593C89.1153 160.856 88.9473 159.416 88.7553 157.808C88.5633 156.176 88.4673 154.64 88.4673 153.2V146.432H94.3713V169.832H88.0353L82.8513 159.356L80.6193 154.136H80.4753C80.6193 155.456 80.7873 156.92 80.9793 158.528C81.1713 160.112 81.2673 161.624 81.2673 163.064V169.832H75.3633Z" fill="url(#paint4_linear_1266_43463)"/>
<path d="M116.622 165.224C118.038 165.224 119.142 164.6 119.934 163.352C120.75 162.104 121.158 160.328 121.158 158.024C121.158 155.888 120.75 154.244 119.934 153.092C119.142 151.916 118.038 151.328 116.622 151.328C115.23 151.328 114.126 151.916 113.31 153.092C112.494 154.244 112.086 155.888 112.086 158.024C112.086 160.328 112.494 162.104 113.31 163.352C114.126 164.6 115.23 165.224 116.622 165.224ZM124.542 176.6C121.926 176.6 119.706 175.976 117.882 174.728C116.082 173.48 114.726 171.884 113.814 169.94C111.366 169.388 109.41 168.08 107.946 166.016C106.482 163.952 105.75 161.288 105.75 158.024C105.75 155.456 106.206 153.284 107.118 151.508C108.03 149.708 109.302 148.34 110.934 147.404C112.566 146.468 114.462 146 116.622 146C118.782 146 120.678 146.468 122.31 147.404C123.942 148.34 125.214 149.708 126.126 151.508C127.038 153.284 127.494 155.456 127.494 158.024C127.494 161.072 126.846 163.604 125.55 165.62C124.278 167.612 122.538 168.968 120.33 169.688C120.882 170.432 121.614 170.948 122.526 171.236C123.462 171.548 124.374 171.704 125.262 171.704C125.766 171.704 126.246 171.656 126.702 171.56C127.158 171.488 127.566 171.392 127.926 171.272L129.006 175.736C128.55 175.976 127.938 176.18 127.17 176.348C126.402 176.516 125.526 176.6 124.542 176.6Z" fill="url(#paint5_linear_1266_43463)"/>
<path d="M141.26 170.264C137.996 170.264 135.56 169.304 133.952 167.384C132.344 165.464 131.54 162.512 131.54 158.528V146.432H137.732V159.248C137.732 161.336 138.008 162.812 138.56 163.676C139.136 164.516 140.036 164.936 141.26 164.936C142.484 164.936 143.384 164.516 143.96 163.676C144.56 162.812 144.86 161.336 144.86 159.248V146.432H150.836V158.528C150.836 162.512 150.056 165.464 148.496 167.384C146.96 169.304 144.548 170.264 141.26 170.264Z" fill="url(#paint6_linear_1266_43463)"/>
<path d="M155.871 169.832V146.432H162.063V169.832H155.871Z" fill="url(#paint7_linear_1266_43463)"/>
<path d="M165.822 169.832V166.088L175.398 151.616H166.758V146.432H183.03V150.176L173.454 164.648H183.102V169.832H165.822Z" fill="url(#paint8_linear_1266_43463)"/>
<defs>
<linearGradient id="paint0_linear_1266_43463" x1="117" y1="35" x2="117" y2="165" gradientUnits="userSpaceOnUse">
<stop stop-color="#A8E6F9"/>
<stop offset="1" stop-color="#7CCFEC"/>
</linearGradient>
<linearGradient id="paint1_linear_1266_43463" x1="99.0509" y1="146" x2="99.0509" y2="176.6" gradientUnits="userSpaceOnUse">
<stop stop-color="#005BAA"/>
<stop offset="1" stop-color="#0074D9"/>
</linearGradient>
<linearGradient id="paint2_linear_1266_43463" x1="99.0509" y1="146" x2="99.0509" y2="176.6" gradientUnits="userSpaceOnUse">
<stop stop-color="#005BAA"/>
<stop offset="1" stop-color="#0074D9"/>
</linearGradient>
<linearGradient id="paint3_linear_1266_43463" x1="99.0509" y1="146" x2="99.0509" y2="176.6" gradientUnits="userSpaceOnUse">
<stop stop-color="#005BAA"/>
<stop offset="1" stop-color="#0074D9"/>
</linearGradient>
<linearGradient id="paint4_linear_1266_43463" x1="99.0509" y1="146" x2="99.0509" y2="176.6" gradientUnits="userSpaceOnUse">
<stop stop-color="#005BAA"/>
<stop offset="1" stop-color="#0074D9"/>
</linearGradient>
<linearGradient id="paint5_linear_1266_43463" x1="99.0509" y1="146" x2="99.0509" y2="176.6" gradientUnits="userSpaceOnUse">
<stop stop-color="#005BAA"/>
<stop offset="1" stop-color="#0074D9"/>
</linearGradient>
<linearGradient id="paint6_linear_1266_43463" x1="99.0509" y1="146" x2="99.0509" y2="176.6" gradientUnits="userSpaceOnUse">
<stop stop-color="#005BAA"/>
<stop offset="1" stop-color="#0074D9"/>
</linearGradient>
<linearGradient id="paint7_linear_1266_43463" x1="99.0509" y1="146" x2="99.0509" y2="176.6" gradientUnits="userSpaceOnUse">
<stop stop-color="#005BAA"/>
<stop offset="1" stop-color="#0074D9"/>
</linearGradient>
<linearGradient id="paint8_linear_1266_43463" x1="99.0509" y1="146" x2="99.0509" y2="176.6" gradientUnits="userSpaceOnUse">
<stop stop-color="#005BAA"/>
<stop offset="1" stop-color="#0074D9"/>
</linearGradient>
</defs>
</svg>
