<svg width="617" height="635" viewBox="0 0 617 635" fill="none" xmlns="http://www.w3.org/2000/svg">
    <path fill-rule="evenodd" clip-rule="evenodd"
        d="M9.92188 586.198L602.56 8.73096L616.36 22.5553C605.602 215.008 603.103 407.461 609.297 600.023C343.294 592.076 289.072 592.185 23.7218 600.023L9.92188 586.198Z"
        fill="url(#paint0_radial_465_5662)" />
    <path fill-rule="evenodd" clip-rule="evenodd"
        d="M0.359375 4.59463C274.403 -1.61001 331.015 -2.69855 602.559 8.73106C596.8 201.184 594.627 393.637 595.496 586.198C328.625 580.538 276.793 580.756 9.92156 586.198C10.2475 392.33 6.77038 198.463 0.359375 4.59463Z"
        fill="url(#paint1_radial_465_5662)" />
    <path fill-rule="evenodd" clip-rule="evenodd"
        d="M609.297 600.023L595.497 586.198C328.625 580.538 276.794 580.756 9.92188 586.198L23.7218 600.023C288.964 592.185 343.186 592.076 609.297 600.023Z"
        fill="url(#paint2_linear_465_5662)" />
    <path fill-rule="evenodd" clip-rule="evenodd"
        d="M602.56 8.73096C596.801 201.184 594.628 393.637 595.497 586.198L609.297 600.023C603.104 407.57 605.603 215.117 616.36 22.5553L602.56 8.73096Z"
        fill="url(#paint3_linear_465_5662)" />
    <path style="mix-blend-mode:screen" fill-rule="evenodd" clip-rule="evenodd"
        d="M139.01 55.429C162.916 38.1213 183.561 19.6162 204.968 0.566895C201.599 0.566895 198.231 0.566895 194.862 0.675748C163.025 32.7875 138.032 54.1228 109.998 71.757C81.2027 89.9355 49.4736 103.978 3.83594 121.938C3.83594 124.333 3.9446 126.728 4.05326 129.123C56.8626 107.461 91.3082 89.7178 139.01 55.429Z"
        fill="url(#paint4_radial_465_5662)" />
    <path style="mix-blend-mode:screen" fill-rule="evenodd" clip-rule="evenodd"
        d="M386.867 1.22021C335.796 63.8109 267.339 105.066 195.623 133.151C131.513 158.296 64.6864 172.882 5.35742 183.005V185.4C51.5384 178.325 98.0454 170.161 142.814 157.643C154.115 158.84 162.264 158.078 163.894 156.989C167.589 154.595 170.088 151.873 172.696 148.499C180.845 145.778 188.995 142.839 197.036 139.682C275.272 109.421 339.925 59.0214 392.517 1.32907C390.67 1.32907 388.714 1.32907 386.867 1.22021Z"
        fill="url(#paint5_radial_465_5662)" />
    <path style="mix-blend-mode:screen" fill-rule="evenodd" clip-rule="evenodd"
        d="M247.564 186.706C163.895 214.137 80.769 244.507 6.66211 240.371C6.66211 242.548 6.66211 244.725 6.77077 246.902C66.8604 246.902 97.5028 240.698 158.244 220.995C197.362 208.368 235.611 193.891 274.403 180.393C292.441 174.079 310.696 167.983 328.734 161.779C449.13 119.87 499.984 101.474 593.432 34.4203C596.257 32.461 598.974 30.3928 601.908 28.3245C601.908 25.4944 602.017 22.6642 602.125 19.834H601.582C557.9 53.9051 514.11 81.3362 465.647 105.175C394.908 140.008 322.757 162.105 247.455 186.815L247.564 186.706Z"
        fill="url(#paint6_radial_465_5662)" />
    <path style="mix-blend-mode:screen" fill-rule="evenodd" clip-rule="evenodd"
        d="M354.051 212.94C236.914 257.026 119.56 307.425 7.74805 301.002V306.01C17.0929 306.445 25.7858 306.772 33.9354 306.88C38.3905 309.166 43.7149 310.364 44.8015 310.364C45.3448 310.364 48.6046 308.731 50.3432 306.88C85.7667 306.118 115.105 300.676 159.113 287.504C242.891 262.359 336.557 221.757 420.878 188.774C398.711 196.503 376.435 204.667 354.051 213.049V212.94Z"
        fill="url(#paint7_radial_465_5662)" />
    <path style="mix-blend-mode:screen" fill-rule="evenodd" clip-rule="evenodd"
        d="M121.843 350.531C87.0712 357.715 53.2776 361.307 8.72656 363.158V368.056C110.542 363.267 164.112 347.374 255.713 310.69C213.01 326.148 169.11 340.734 121.951 350.531H121.843Z"
        fill="url(#paint8_radial_465_5662)" />
    <path style="mix-blend-mode:screen" fill-rule="evenodd" clip-rule="evenodd"
        d="M233.219 368.274C155.527 387.432 89.7867 403.76 9.16016 404.957V408.767C83.3757 404.957 119.56 397.447 193.775 379.268C216.16 373.825 238.327 368.274 260.493 362.831C297.112 353.905 333.731 345.523 371.328 338.666C450.107 324.406 519.542 322.338 596.148 337.359C596.148 335.182 596.148 333.005 596.148 330.828C565.831 325.93 536.819 323.426 507.806 323.208C425.006 322.555 342.207 341.278 262.341 360.981C252.561 363.375 242.89 365.77 233.219 368.165V368.274Z"
        fill="url(#paint9_radial_465_5662)" />
    <path style="mix-blend-mode:screen" fill-rule="evenodd" clip-rule="evenodd"
        d="M138.143 480.393C92.5049 485.835 48.6058 488.23 9.70508 487.577C9.70508 489.972 9.70508 492.258 9.70508 494.653C57.2987 494.326 95.5474 492.584 133.796 487.795C170.198 483.223 206.599 476.039 250.933 464.827C303.525 451.547 354.704 434.239 408.165 421.394C470.211 406.481 521.173 407.243 574.526 422.592C480.208 386.888 395.669 423.136 286.03 452.2C238.545 464.827 189.213 474.079 141.728 479.957C140.533 480.066 139.229 480.284 138.034 480.393H138.143Z"
        fill="url(#paint10_radial_465_5662)" />
    <path style="mix-blend-mode:multiply" opacity="0.5" fill-rule="evenodd" clip-rule="evenodd"
        d="M141.075 474.841C304.176 454.05 453.042 362.287 595.496 424.007C595.496 406.808 595.714 389.5 595.822 372.301C532.799 343.891 448.695 349.877 381.76 358.586C461.626 336.38 535.733 330.937 596.04 350.748C596.04 344.217 596.148 337.577 596.257 331.046C565.941 326.147 536.928 323.644 507.915 323.426C415.01 322.664 322.105 346.394 233.329 368.383C155.636 387.541 89.8961 403.869 9.26953 405.066C9.48685 423.68 9.59551 442.294 9.70418 461.017C30.8931 469.181 91.852 477.454 141.184 474.95L141.075 474.841Z"
        fill="url(#paint11_radial_465_5662)" />
    <path style="mix-blend-mode:multiply" opacity="0.5" fill-rule="evenodd" clip-rule="evenodd"
        d="M7.53068 290.444C117.496 297.737 234.524 253.651 350.9 209.892C434.895 178.216 518.347 143.927 599.299 130.756C600.169 93.7455 601.038 56.8441 602.124 19.834H601.581C557.899 53.9051 514.109 81.3362 465.646 105.175C394.908 140.008 322.757 162.105 247.454 186.815C163.785 214.246 80.6596 244.616 6.55273 240.48C6.87872 257.134 7.2047 273.789 7.53068 290.552V290.444ZM143.9 228.506C250.062 195.523 358.832 163.52 462.495 117.911C383.607 178.216 258.755 200.313 143.9 228.506Z"
        fill="url(#paint12_radial_465_5662)" />
    <path style="mix-blend-mode:multiply" opacity="0.5" fill-rule="evenodd" clip-rule="evenodd"
        d="M192.798 129.776C261.689 102.781 326.668 60.2189 376.218 1.00263C345.249 0.34951 316.237 0.0229492 286.681 0.0229492C227.026 60.7632 185.735 79.0505 115.757 97.5556C170.739 68.0563 201.273 44.1086 237.675 0.240656C223.875 0.240656 209.64 0.458363 194.862 0.67607C163.025 32.7878 138.032 54.1231 109.998 71.7574C81.2027 89.9359 49.4736 103.978 3.83594 121.939C4.27058 139.791 4.81389 157.643 5.13987 175.386C63.7082 166.133 129.883 154.377 192.689 129.776H192.798Z"
        fill="url(#paint13_radial_465_5662)" />
    <g style="mix-blend-mode:multiply">
        <path fill-rule="evenodd" clip-rule="evenodd"
            d="M531.713 201.728C511.61 203.252 493.681 205.32 472.927 209.348C430.114 217.621 385.563 236.561 345.467 252.998C316.89 264.754 281.249 281.626 251.91 289.79C303.85 269.761 361.984 239.065 407.078 223.281C445.544 209.783 490.747 199.878 531.713 201.837V201.728Z"
            fill="#C0E5ED" />
    </g>
    <g style="mix-blend-mode:multiply">
        <path fill-rule="evenodd" clip-rule="evenodd"
            d="M136.186 199.442C88.7009 209.457 52.6254 214.355 6.00977 212.069C6.00977 214.247 6.00977 216.532 6.11843 218.71C53.1687 220.56 89.7875 215.226 137.598 204.559C198.557 190.952 269.404 167.657 325.8 143.274C333.188 140.117 330.907 141.097 338.078 137.505C329.603 140.335 333.514 138.92 325.148 142.077C263.754 164.827 201.165 185.836 136.077 199.442H136.186Z"
            fill="#C0E5ED" />
    </g>
    <g style="mix-blend-mode:multiply">
        <path
            d="M11.0088 532.642C380.674 544.943 368.395 490.952 541.493 497.592C558.77 498.245 575.503 502.055 595.171 506.953C595.171 510.001 595.171 513.158 595.171 516.206C574.634 512.613 557.248 510.545 539.863 509.892C496.072 508.15 449.022 514.899 405.34 519.689C261.364 535.364 142.054 548.317 11.4435 541.242C11.3348 538.412 11.1175 535.581 11.0088 532.642ZM167.807 334.094C156.289 334.094 145.423 332.896 131.731 331.699C86.8543 327.889 48.3882 331.699 8.29228 335.835C8.29228 333.441 8.29228 331.046 8.29228 328.651C51.4308 325.494 86.9629 325.168 132.492 329.087C148.139 330.393 163.46 331.808 177.152 330.502C186.388 329.631 194.103 327.127 202.796 324.406C334.819 284.457 444.349 216.859 597.453 231.445C597.453 233.949 597.453 236.561 597.344 239.065C415.337 220.777 289.725 315.589 121.843 350.531C87.0716 357.715 53.278 361.307 8.72693 363.158C8.72693 360.654 8.72693 358.042 8.72693 355.538C52.5174 353.579 85.5504 349.986 119.996 344.217C136.404 341.387 152.377 338.013 168.024 334.094H167.807ZM599.083 141.968C550.729 148.934 501.179 162.105 451.195 178.433C460.214 178.978 467.386 181.155 473.905 182.57C480.534 184.094 486.619 185.618 493.464 184.747C528.671 180.393 563.116 170.269 598.54 167.222C598.54 170.161 598.431 173.208 598.322 176.147C563.333 178.869 528.888 186.924 494.116 190.407C486.075 191.169 480.534 188.666 473.253 187.033C454.238 182.679 445.436 180.066 426.203 186.597C402.189 194.87 378.066 203.687 353.943 212.722C236.915 257.026 119.561 307.425 7.74898 301.002C7.74898 297.519 7.64032 294.036 7.53166 290.552C117.497 297.846 234.525 253.76 350.901 210.001C377.088 200.095 403.276 189.972 429.354 180.284C485.423 160.255 539.537 140.444 599.3 130.756C599.3 134.565 599.083 138.266 599.083 142.076V141.968ZM9.70488 475.494C42.9552 479.413 93.048 480.61 137.382 475.277C301.895 455.465 451.956 361.743 595.497 423.898C595.497 426.401 595.497 429.014 595.497 431.518C492.595 381.445 403.819 420.85 286.247 452.091C237.567 465.044 186.931 474.406 138.251 480.284C92.6133 485.727 48.7142 488.121 9.81354 487.468C9.81354 483.441 9.81354 479.522 9.81354 475.494H9.70488ZM9.05291 397.338C88.5929 396.467 154.55 383.513 231.591 364.464C369.482 330.393 474.231 298.499 596.149 320.705C596.149 324.079 596.149 327.563 596.149 330.937C565.833 326.039 536.82 323.535 507.808 323.317C414.902 322.555 321.997 346.285 233.221 368.274C155.528 387.432 89.7881 403.76 9.16157 404.957C9.16157 402.454 9.16157 399.95 9.16157 397.338H9.05291ZM6.44504 229.377C78.922 234.602 162.917 210.327 245.717 183.223C372.959 141.532 483.033 95.8137 582.023 17.2215C588.76 18.0923 595.28 18.9632 601.691 19.834C558.009 54.014 514.219 81.3362 465.756 105.175C395.017 140.008 322.866 162.105 247.564 186.815C163.895 214.246 80.7693 244.616 6.66237 240.48C6.66237 236.779 6.55371 233.078 6.44504 229.486V229.377ZM5.24977 175.386C63.8181 166.133 129.993 154.377 192.799 129.776C261.69 102.78 326.669 60.2186 376.219 1.00234C379.696 1.00234 383.282 1.11119 386.868 1.22005C335.797 63.8108 267.34 105.066 195.624 133.15C131.514 158.296 64.6874 172.882 5.35843 183.005C5.35843 180.502 5.24977 177.998 5.14111 175.386H5.24977ZM3.72852 114.972C45.7804 100.712 79.9 86.0169 107.174 68.818C132.927 52.5989 159.657 30.1751 186.062 0.784635C189.104 0.784635 192.038 0.784635 194.972 0.675781C163.134 32.7875 138.142 54.1228 110.108 71.7571C81.3126 89.9356 49.5835 103.978 3.94584 121.938L3.72852 114.972Z"
            fill="#C0E5ED" />
    </g>
    <path style="mix-blend-mode:screen" fill-rule="evenodd" clip-rule="evenodd"
        d="M405.449 519.798C329.603 528.071 260.604 535.582 193.125 539.827C272.991 536.997 344.273 530.357 425.66 522.302C492.704 515.662 531.713 509.566 595.28 522.955C595.28 520.778 595.28 518.492 595.28 516.315C574.743 512.723 557.357 510.654 539.971 510.001C496.181 508.259 449.131 515.008 405.449 519.798Z"
        fill="url(#paint14_radial_465_5662)" />
    <g style="mix-blend-mode:multiply">
        <path fill-rule="evenodd" clip-rule="evenodd"
            d="M595.28 460.908C529.649 425.966 478.252 422.81 400.342 441.315C375.241 447.302 351.01 455.466 326.235 462.214C319.607 464.065 321.78 463.412 315.043 464.827C321.78 462.214 318.737 463.303 325.692 460.908C349.489 452.853 374.698 444.145 399.038 437.722C476.513 417.585 529.54 420.088 595.171 453.18C595.171 455.683 595.171 458.296 595.171 460.799L595.28 460.908Z"
            fill="#C0E5ED" />
    </g>
    <g style="mix-blend-mode:multiply">
        <path fill-rule="evenodd" clip-rule="evenodd"
            d="M595.279 534.602C530.734 524.152 461.191 526.982 372.85 541.569C457.931 532.643 523.997 531.772 595.279 540.154V534.602Z"
            fill="#C0E5ED" />
    </g>
    <path style="mix-blend-mode:screen" fill-rule="evenodd" clip-rule="evenodd"
        d="M371.762 244.29C417.943 225.894 457.061 212.287 509.545 203.796C497.7 205.103 485.856 206.844 473.034 209.348C440.436 215.553 406.86 228.071 375.022 241.024C365.025 245.052 355.137 249.188 345.575 253.107C318.844 264.101 285.92 279.558 257.668 288.158C289.18 279.341 314.28 267.802 344.38 255.502C353.833 251.583 362.961 247.882 371.871 244.399L371.762 244.29Z"
        fill="url(#paint15_radial_465_5662)" />
    <path style="mix-blend-mode:screen" fill-rule="evenodd" clip-rule="evenodd"
        d="M6.33522 223.39C40.0202 224.914 81.5287 221.322 127.601 209.675C154.006 203.035 178.998 195.197 204.207 187.033C181.497 193.782 159.004 199.769 137.707 204.45C89.8956 215.117 53.2768 220.451 6.22656 218.601V223.281L6.33522 223.39Z"
        fill="url(#paint16_radial_465_5662)" />
    <path style="mix-blend-mode:screen" fill-rule="evenodd" clip-rule="evenodd"
        d="M398.277 441.75C473.688 425.966 537.038 426.728 595.28 468.419C595.28 465.916 595.28 463.412 595.28 460.908C529.649 425.966 478.252 422.81 400.342 441.315C399.69 441.424 398.929 441.641 398.277 441.859V441.75Z"
        fill="url(#paint17_radial_465_5662)" />
    <path style="mix-blend-mode:screen" fill-rule="evenodd" clip-rule="evenodd"
        d="M5.14047 10.6904C153.463 4.92119 335.47 1.8733 597.018 14.1737C597.235 14.1737 597.561 14.1737 597.778 14.1737C597.778 61.9604 598.213 109.638 598.756 157.425C599.734 107.897 601.038 58.2594 602.559 8.73106C331.015 -2.69855 274.403 -1.61001 0.359375 4.59463C2.09795 58.5859 3.72787 112.686 5.0318 166.677C6.4444 113.883 6.9877 64.5729 5.24913 10.6904H5.14047Z"
        fill="url(#paint18_radial_465_5662)" />
    <path style="mix-blend-mode:multiply" fill-rule="evenodd" clip-rule="evenodd"
        d="M125.32 576.728C280.923 572.7 410.556 570.306 551.272 577.381C554.532 577.49 558.769 577.925 561.051 575.748C563.442 573.571 563.225 569.326 563.225 566.169C563.333 555.502 563.985 543.31 563.551 534.819L532.473 531.989L563.116 524.696C560.291 466.677 558.226 408.114 557.248 349.442L540.623 343.673L557.031 338.23C555.727 254.74 561.812 176.692 564.746 93.31C556.053 71.6482 547.251 56.2999 535.733 38.5568C533.669 35.2912 530.3 33.0052 526.497 33.3318C464.343 38.8833 168.785 45.088 56.6463 39.4276C50.5613 39.101 45.6715 44.5437 45.5629 50.6395C45.0196 75.1315 47.6274 91.133 48.4967 114.428L60.5581 122.047L55.125 129.232L56.103 134.783L49.2573 139.573C51.8652 226.547 51.5392 313.085 48.4967 399.406L57.6243 404.195L53.0605 412.577L65.8825 419.108L47.5188 423.789C46.1062 458.296 40.7818 493.129 40.5645 526.764C59.1455 546.358 96.3076 567.149 125.32 576.728Z"
        fill="url(#paint19_radial_465_5662)" />
    <path fill-rule="evenodd" clip-rule="evenodd"
        d="M125.754 561.488C148.899 567.04 485.531 564.319 574.633 558.114C573.981 546.684 573.329 535.364 572.677 523.934L540.84 521.321L572.243 514.355C569.309 458.948 567.244 403.215 566.266 347.265L549.207 341.713L566.049 336.488C564.745 256.808 565.397 176.909 568.44 97.4463C554.966 78.5058 541.383 59.5653 527.909 40.6248C522.367 38.23 127.058 42.8019 35.8914 46.1763C37.4127 71.8657 38.7166 97.5551 39.6945 123.136L52.0819 130.429L46.5402 137.287L47.5182 142.512L40.5638 147.083C43.1717 230.03 42.9544 312.649 39.8032 394.943L49.1481 399.514L44.4756 407.461L57.6236 413.665L38.8253 418.128C37.304 452.308 35.2394 486.379 32.7402 520.342C63.8173 534.057 95.0031 547.773 126.08 561.488H125.754Z"
        fill="url(#paint20_linear_465_5662)" />
    <path style="mix-blend-mode:multiply" fill-rule="evenodd" clip-rule="evenodd"
        d="M125.754 561.489C94.6769 547.773 63.4911 534.057 32.4141 520.342C35.3479 515.879 64.3604 492.802 68.3809 492.367C72.184 491.931 116.083 552.889 125.754 561.38V561.489Z"
        fill="url(#paint21_radial_465_5662)" />
    <path style="mix-blend-mode:multiply" fill-rule="evenodd" clip-rule="evenodd"
        d="M568.331 97.4465C558.987 92.9835 519.217 86.4523 517.369 82.4247C515.957 79.268 525.736 51.8369 527.801 40.625C541.275 59.5655 554.857 78.506 568.331 97.4465Z"
        fill="url(#paint22_radial_465_5662)" />
    <path fill-rule="evenodd" clip-rule="evenodd"
        d="M62.8392 502.054C82.5068 522.41 105.326 544.834 125.754 561.488C118.908 561.488 32.4141 527.199 32.4141 520.342C41.7589 513.375 51.7557 507.17 62.8392 502.054Z"
        fill="url(#paint23_linear_465_5662)" />
    <path fill-rule="evenodd" clip-rule="evenodd"
        d="M568.331 97.4465C552.358 90.2622 536.276 83.1867 520.955 74.805C523.998 63.5931 525.954 52.1635 527.801 40.625C531.713 40.625 568.331 93.2012 568.331 97.4465Z"
        fill="url(#paint24_linear_465_5662)" />
    <path style="mix-blend-mode:screen" fill-rule="evenodd" clip-rule="evenodd"
        d="M106.304 552.889C100.98 533.404 59.1455 509.674 45.0195 511.742C50.6699 508.259 56.5376 504.993 62.84 502.054C82.399 522.301 105.218 544.725 125.646 561.379C124.016 561.488 116.627 559.093 106.848 555.501C106.848 554.63 106.63 553.76 106.304 552.998V552.889Z"
        fill="url(#paint25_radial_465_5662)" />
    <path style="mix-blend-mode:screen" fill-rule="evenodd" clip-rule="evenodd"
        d="M527.257 70.9951C531.93 81.8804 552.467 89.5002 564.854 92.6569C565.289 92.7658 565.832 92.8746 566.267 92.9835C567.571 95.2694 568.331 96.9022 568.331 97.4465C568.005 97.2288 567.571 97.1199 567.027 96.9022C551.489 89.9356 535.842 83.0778 520.955 74.805C523.998 63.5931 525.954 52.1635 527.801 40.625C528.018 40.625 528.453 40.8427 528.887 41.1693C528.887 41.387 528.779 41.6047 528.67 41.8224C526.171 49.551 524.106 63.5931 527.257 70.9951Z"
        fill="url(#paint26_radial_465_5662)" />
    <path style="mix-blend-mode:screen" opacity="0.5" fill-rule="evenodd" clip-rule="evenodd"
        d="M136.946 551.039C126.189 546.031 121.843 537.214 115.866 522.954C98.9151 481.917 76.6395 489.319 58.8191 478.107C46.9751 470.596 43.1719 448.063 65.2301 417.802C85.5498 389.827 48.7136 358.912 50.0176 300.349C50.8869 262.904 70.8805 203.578 74.249 186.162C77.2915 170.052 81.0947 161.452 65.7734 138.484C59.9057 129.558 66.5341 125.531 52.0821 102.998C44.4759 91.2417 46.8664 82.86 54.364 76.7642C77.5088 57.8237 119.887 52.8165 161.613 57.8237C278.423 71.7569 285.595 80.2475 384.694 60.9805C410.773 55.8643 420.117 57.3883 437.069 55.4289C450.108 53.905 463.691 51.7279 474.991 55.1024C498.353 62.069 487.27 85.3636 507.481 99.5146C536.385 119.979 568.005 91.4594 553.662 151.002C546.49 180.937 538.015 215.77 551.597 252.889C555.509 263.557 555.401 290.661 551.054 300.458C533.342 339.972 517.043 333.767 540.514 356.3C559.638 374.696 532.69 389.827 546.49 410.4C559.856 430.32 553.445 449.696 538.667 490.407C536.711 495.959 546.599 502.708 528.018 513.593C515.087 521.104 560.942 542.875 457.28 542.875C427.832 542.875 418.813 553.76 389.04 552.889C363.07 552.127 344.924 553.433 324.496 554.74C287.225 557.134 249.628 548.317 244.195 548.535C201.491 549.95 171.827 567.149 137.055 550.93L136.946 551.039Z"
        fill="url(#paint27_radial_465_5662)" />
    <path style="mix-blend-mode:screen" opacity="0.5" fill-rule="evenodd" clip-rule="evenodd"
        d="M90.9829 472.99C76.7482 460.146 69.9026 450.349 79.6821 414.427C94.2427 361.198 65.6648 347.7 62.5136 314.5C58.4932 271.938 61.8617 292.729 77.0742 262.794C86.5277 244.289 61.3184 238.52 90.5482 203.687C112.389 177.78 107.065 156.662 87.1797 132.932C71.0979 113.774 69.2506 87.4316 86.5277 74.6958C113.476 54.7756 144.227 77.3082 165.416 78.6145C171.718 79.0499 179.868 77.5259 193.233 72.301C208.446 66.4229 247.238 82.9686 276.793 88.1936C310.587 94.2894 339.817 93.6362 383.716 70.6682C421.965 50.6391 475.209 77.9614 485.966 98.0992C488.9 103.542 509.111 98.8612 512.697 130.211C514.218 143.818 548.012 152.526 528.018 189.318C524.323 196.067 521.824 234.928 528.344 246.575C535.842 259.964 535.842 289.79 528.018 301.329C505.851 334.093 537.58 360.98 521.281 384.819C504.764 408.985 518.89 428.143 518.89 446.539C518.89 485.182 505.199 461.778 512.914 499.551C519.651 532.533 492.486 536.996 463.908 530.356C444.892 526.002 417.618 542.439 388.388 543.963C353.182 545.704 345.25 528.288 315.259 533.731C269.513 542.003 252.236 515.334 220.398 536.234C196.058 552.236 172.479 548.208 161.721 537.432C148.139 523.607 164.003 540.915 142.923 511.851C122.603 483.876 98.1545 479.739 90.8742 473.099L90.9829 472.99Z"
        fill="url(#paint28_radial_465_5662)" />
    <path fill-rule="evenodd" clip-rule="evenodd"
        d="M194.736 221.883C199.293 217.32 203.849 212.756 208.532 208.067C220.05 207.306 230.934 208.067 241.439 209.841C235.111 212.63 199.799 224.671 194.863 221.883H194.736Z"
        fill="url(#paint29_linear_465_5662)" />
    <path fill-rule="evenodd" clip-rule="evenodd"
        d="M315.607 111.607C378.004 112.494 425.213 169.153 423.188 228.601C421.163 288.048 378.637 332.539 319.53 334.947C260.423 337.355 201.443 288.175 198.912 230.248L212.202 216.686C219.543 214.531 227.01 212.376 234.604 210.095C228.782 210.095 223.593 210.095 218.783 209.968L315.48 111.607H315.607Z"
        fill="url(#paint30_linear_465_5662)" />
    <path fill-rule="evenodd" clip-rule="evenodd"
        d="M304.346 108.185C368.642 109.706 416.357 156.985 414.206 218.207C412.181 279.556 367.629 327.722 306.877 327.722C246.125 327.722 200.435 281.33 194.866 224.418C194.866 223.911 194.866 223.404 194.739 222.897C194.739 222.516 194.739 222.136 194.739 221.756C200.435 220.108 206.383 218.334 212.332 216.559C219.673 214.404 227.14 212.249 234.734 209.968C228.912 209.968 223.723 209.968 218.913 209.841C210.813 209.841 203.472 209.841 194.359 210.855C195.752 154.196 242.581 106.537 304.346 108.058V108.185Z"
        fill="url(#paint31_radial_465_5662)" />
    <path style="mix-blend-mode:multiply" fill-rule="evenodd" clip-rule="evenodd"
        d="M354.338 299.202C291.94 313.272 221.569 282.598 194.99 224.925C200.812 281.584 248.528 327.722 307.002 327.722C344.845 327.722 376.487 308.963 395.345 279.936C383.195 289.062 369.652 295.78 354.338 299.202Z"
        fill="url(#paint32_radial_465_5662)" />
    <g style="mix-blend-mode:multiply">
        <path
            d="M210.181 158.253C264.098 183.096 328.141 154.196 379.021 135.944C380.919 137.592 382.691 139.239 384.463 141.014C330.799 158.76 258.909 185.251 206.384 164.844C207.523 162.562 208.789 160.407 210.181 158.253ZM194.74 221.883C258.529 203.25 341.557 177.519 406.739 174.73C407.372 176.125 407.878 177.646 408.384 179.167C340.798 177.899 259.415 212.883 195.499 229.742C195.12 227.207 194.866 224.545 194.613 221.883H194.74ZM200.688 250.783C274.097 236.333 336.874 220.996 413.32 229.995C413.067 231.643 412.814 233.291 412.561 234.938C334.343 220.489 275.616 243.177 203.473 258.008C202.46 255.599 201.574 253.191 200.688 250.783ZM214.358 277.908C256.378 275.246 320.8 268.782 381.552 297.175C379.654 299.076 377.629 300.977 375.604 302.752C320.547 275.5 279.793 274.866 216.636 281.204C215.877 280.19 215.117 279.049 214.358 277.908Z"
            fill="#C0E5ED" />
    </g>
    <path style="mix-blend-mode:multiply" opacity="0.5" fill-rule="evenodd" clip-rule="evenodd"
        d="M412.563 234.938C334.344 220.488 275.618 243.177 203.475 258.007C206.386 264.979 210.056 271.57 214.233 277.781C256.253 275.119 320.675 268.655 381.427 297.048C397.501 280.823 408.512 259.275 412.563 234.938Z"
        fill="url(#paint33_radial_465_5662)" />
    <path style="mix-blend-mode:screen" fill-rule="evenodd" clip-rule="evenodd"
        d="M252.959 175.364C280.93 174.73 308.648 166.364 338.265 156.097C311.432 164.209 282.955 171.181 256.123 172.195C238.53 172.829 221.697 170.801 206.509 164.843C207.648 162.562 208.914 160.407 210.306 158.252C208.281 161.421 206.509 164.716 204.863 168.012C221.317 173.589 237.264 175.744 252.959 175.364Z"
        fill="url(#paint34_radial_465_5662)" />
    <path style="mix-blend-mode:screen" fill-rule="evenodd" clip-rule="evenodd"
        d="M283.335 203.757C324.975 191.082 365.983 182.336 409.649 182.969C409.269 181.702 408.889 180.434 408.383 179.167C340.796 177.899 259.414 212.883 195.498 229.742C195.625 230.882 195.878 232.023 196.004 233.037C225.115 223.404 253.972 212.757 283.335 203.757Z"
        fill="url(#paint35_radial_465_5662)" />
    <path style="mix-blend-mode:screen" fill-rule="evenodd" clip-rule="evenodd"
        d="M244.48 248.755C307.51 236.079 354.467 226.953 411.548 240.389C411.928 238.614 412.307 236.84 412.561 234.938C349.53 223.277 299.283 235.699 244.354 248.755H244.48Z"
        fill="url(#paint36_radial_465_5662)" />
    <path style="mix-blend-mode:screen" fill-rule="evenodd" clip-rule="evenodd"
        d="M219.925 285.386C277.513 274.992 319.913 276.133 373.071 304.653C373.957 304.019 374.716 303.259 375.602 302.625C320.546 275.373 279.791 274.739 216.635 281.077C217.647 282.598 218.786 283.992 219.925 285.386Z"
        fill="url(#paint37_radial_465_5662)" />
    <path style="mix-blend-mode:screen" fill-rule="evenodd" clip-rule="evenodd"
        d="M194.99 202.616C208.28 140.253 262.07 109.705 313.963 113.381C350.287 115.916 385.599 135.183 405.597 171.941C395.598 149.253 377.752 131 354.717 119.972C339.782 112.748 322.696 108.565 304.344 108.184C245.743 106.79 200.433 149.76 194.99 202.743V202.616Z"
        fill="url(#paint38_radial_465_5662)" />
    <path style="mix-blend-mode:multiply"
        d="M399.097 244.824C407.061 194.064 372.429 146.449 321.744 138.472C271.059 130.496 223.514 165.18 215.55 215.94C207.585 266.7 242.217 314.315 292.903 322.292C343.588 330.268 391.133 295.584 399.097 244.824Z"
        fill="url(#paint39_radial_465_5662)" />
    <path fill-rule="evenodd" clip-rule="evenodd"
        d="M307.259 313.019C356.999 313.019 405.474 268.528 402.184 217.953C398.893 167.379 359.657 122.888 307.259 122.888C254.86 122.888 211.321 160.407 212.334 217.953C213.346 275.5 257.518 313.146 307.259 313.019Z"
        fill="url(#paint40_radial_465_5662)" />
    <path style="mix-blend-mode:multiply" fill-rule="evenodd" clip-rule="evenodd"
        d="M381.553 209.207C384.464 253.952 341.558 293.245 297.513 293.372C253.468 293.372 214.485 260.162 213.473 209.207C213.473 204.264 213.726 199.447 214.359 194.884C212.84 202.109 212.08 209.841 212.207 217.953C213.219 275.5 257.391 313.146 307.132 313.019C356.873 313.019 405.348 268.528 402.057 217.953C398.766 167.379 359.53 122.888 307.132 122.888C296.374 122.888 285.995 124.409 276.25 127.451C283.084 125.804 290.172 125.043 297.513 125.043C343.836 125.043 378.642 164.463 381.553 209.207Z"
        fill="url(#paint41_radial_465_5662)" />
    <path style="mix-blend-mode:screen" fill-rule="evenodd" clip-rule="evenodd"
        d="M223.341 176.378C216.506 189.941 212.583 218.08 219.417 236.206C222.328 243.811 234.605 257.881 242.832 252.684C264.728 238.995 278.904 214.531 310.166 198.56C320.924 192.983 335.985 188.167 347.629 184.998C360.412 181.449 363.45 172.956 356.615 159.647C346.743 140.254 326.872 127.832 298.521 126.818C265.614 125.55 237.643 147.986 223.341 176.378Z"
        fill="url(#paint42_radial_465_5662)" />
    <path style="mix-blend-mode:screen" fill-rule="evenodd" clip-rule="evenodd"
        d="M283.463 132.648C272.072 135.056 253.34 143.929 249.037 154.196C245.366 163.069 254.479 164.59 262.959 162.309C272.578 159.773 284.349 154.83 292.322 148.999C302.068 142.028 297.891 129.606 283.463 132.521V132.648Z"
        fill="url(#paint43_radial_465_5662)" />
    <path style="mix-blend-mode:screen" fill-rule="evenodd" clip-rule="evenodd"
        d="M350.798 295.147C359.152 292.611 368.644 285.64 370.416 278.035C371.808 271.951 365.227 270.43 359.911 272.711C353.962 275.246 346.875 279.683 342.318 284.119C336.749 289.569 341.559 297.935 350.672 295.147H350.798Z"
        fill="url(#paint44_radial_465_5662)" />
    <path fill-rule="evenodd" clip-rule="evenodd"
        d="M360.162 182.082C360.415 183.73 360.036 185.378 359.023 186.899C341.937 213.01 327.888 237.727 312.826 264.979C308.017 273.598 286.374 270.81 282.45 263.711C273.717 248.121 265.237 234.304 255.492 219.348C254.352 217.7 254.099 215.798 254.479 214.024C255.365 209.461 271.312 198.813 276.122 200.081C278.147 200.588 279.666 201.856 280.678 203.757C286.247 214.531 291.816 225.051 298.018 235.699C310.548 211.996 322.192 191.335 336.114 169.026C337.254 167.125 339.026 165.984 341.177 165.731C346.24 165.097 359.782 177.899 360.289 182.209L360.162 182.082Z"
        fill="url(#paint45_linear_465_5662)" />
    <path style="mix-blend-mode:screen" fill-rule="evenodd" clip-rule="evenodd"
        d="M336.241 172.575C325.483 189.941 321.306 197.419 311.434 215.672C310.674 217.193 308.016 222.263 308.523 223.15C309.915 226.446 321.685 210.348 324.09 206.672C331.684 195.264 332.697 193.997 339.785 182.209C341.303 179.8 342.696 177.138 343.202 174.477C344.468 168.266 339.785 166.871 336.241 172.575Z"
        fill="url(#paint46_radial_465_5662)" />
    <path style="mix-blend-mode:screen" fill-rule="evenodd" clip-rule="evenodd"
        d="M273.337 203.25C269.92 203.377 265.49 206.673 265.11 210.095C264.73 212.63 267.135 212.63 269.287 211.87C271.818 210.856 274.476 209.081 276.375 207.306C278.653 205.152 277.26 202.997 273.337 203.25Z"
        fill="url(#paint47_radial_465_5662)" />
    <path
        d="M122.94 400.493C122.94 397.373 123.42 394.613 124.38 392.213C125.38 389.813 126.72 387.813 128.4 386.213C130.12 384.573 132.12 383.333 134.4 382.493C136.72 381.653 139.22 381.233 141.9 381.233C144.58 381.233 147.06 381.653 149.34 382.493C151.66 383.333 153.68 384.573 155.4 386.213C157.12 387.813 158.46 389.813 159.42 392.213C160.42 394.613 160.92 397.373 160.92 400.493C160.92 404.413 160.2 407.753 158.76 410.513C157.32 413.233 155.36 415.373 152.88 416.933C153.48 417.213 154.18 417.513 154.98 417.833C155.82 418.153 156.68 418.473 157.56 418.793C158.48 419.113 159.42 419.413 160.38 419.693C161.34 420.013 162.24 420.293 163.08 420.533C163.12 420.773 163.14 420.973 163.14 421.133C163.14 421.333 163.14 421.513 163.14 421.673C163.14 423.953 162.54 425.613 161.34 426.653C160.18 427.693 158.64 428.213 156.72 428.213C154.88 428.213 152.98 427.693 151.02 426.653C149.06 425.653 147.06 424.193 145.02 422.273L142.38 419.813H141.9C139.18 419.813 136.66 419.393 134.34 418.553C132.02 417.673 130.02 416.413 128.34 414.773C126.66 413.133 125.34 411.113 124.38 408.713C123.42 406.313 122.94 403.573 122.94 400.493ZM133.74 400.493C133.74 404.133 134.48 406.853 135.96 408.653C137.44 410.453 139.42 411.353 141.9 411.353C144.42 411.353 146.42 410.453 147.9 408.653C149.38 406.853 150.12 404.133 150.12 400.493C150.12 396.893 149.38 394.193 147.9 392.393C146.46 390.593 144.48 389.693 141.96 389.693C139.48 389.693 137.48 390.593 135.96 392.393C134.48 394.153 133.74 396.853 133.74 400.493ZM199.265 405.293C199.265 407.453 198.885 409.433 198.125 411.233C197.405 412.993 196.345 414.513 194.945 415.793C193.545 417.033 191.845 417.993 189.845 418.673C187.845 419.353 185.585 419.693 183.065 419.693C180.545 419.693 178.285 419.353 176.285 418.673C174.285 417.993 172.585 417.033 171.185 415.793C169.785 414.513 168.705 412.993 167.945 411.233C167.225 409.433 166.865 407.453 166.865 405.293V382.373C167.305 382.293 168.005 382.193 168.965 382.073C169.925 381.913 170.845 381.833 171.725 381.833C172.645 381.833 173.445 381.913 174.125 382.073C174.845 382.193 175.445 382.433 175.925 382.793C176.405 383.153 176.765 383.653 177.005 384.293C177.245 384.933 177.365 385.773 177.365 386.813V405.113C177.365 407.033 177.885 408.533 178.925 409.613C180.005 410.693 181.385 411.233 183.065 411.233C184.785 411.233 186.165 410.693 187.205 409.613C188.245 408.533 188.765 407.033 188.765 405.113V382.373C189.205 382.293 189.905 382.193 190.865 382.073C191.825 381.913 192.745 381.833 193.625 381.833C194.545 381.833 195.345 381.913 196.025 382.073C196.745 382.193 197.345 382.433 197.825 382.793C198.305 383.153 198.665 383.653 198.905 384.293C199.145 384.933 199.265 385.773 199.265 386.813V405.293ZM217.388 418.493C216.948 418.613 216.248 418.733 215.288 418.853C214.368 418.973 213.448 419.033 212.528 419.033C211.608 419.033 210.788 418.953 210.068 418.793C209.388 418.673 208.808 418.433 208.328 418.073C207.848 417.713 207.488 417.213 207.248 416.573C207.008 415.933 206.888 415.093 206.888 414.053V382.373C207.328 382.293 208.028 382.193 208.988 382.073C209.948 381.913 210.868 381.833 211.748 381.833C212.668 381.833 213.468 381.913 214.148 382.073C214.868 382.193 215.468 382.433 215.948 382.793C216.428 383.153 216.788 383.653 217.028 384.293C217.268 384.933 217.388 385.773 217.388 386.813V418.493ZM239.75 390.773H224.99C224.71 390.333 224.45 389.733 224.21 388.973C223.97 388.213 223.85 387.413 223.85 386.573C223.85 385.013 224.19 383.893 224.87 383.213C225.59 382.533 226.51 382.193 227.63 382.193H250.01C251.77 383.633 252.65 385.553 252.65 387.953C252.65 388.953 252.41 389.953 251.93 390.953C251.49 391.913 250.91 392.833 250.19 393.713L236.57 410.153H251.93C252.21 410.593 252.47 411.193 252.71 411.953C252.95 412.713 253.07 413.513 253.07 414.353C253.07 415.913 252.71 417.033 251.99 417.713C251.31 418.393 250.41 418.733 249.29 418.733H225.65C224.97 418.173 224.41 417.413 223.97 416.453C223.53 415.493 223.31 414.393 223.31 413.153C223.31 412.153 223.57 411.133 224.09 410.093C224.61 409.053 225.23 408.093 225.95 407.213L239.75 390.773ZM281.075 404.273C279.315 403.673 277.715 403.073 276.275 402.473C274.835 401.833 273.595 401.073 272.555 400.193C271.515 399.313 270.695 398.273 270.095 397.073C269.535 395.833 269.255 394.333 269.255 392.573C269.255 389.173 270.555 386.453 273.155 384.413C275.795 382.373 279.475 381.353 284.195 381.353C285.915 381.353 287.515 381.473 288.995 381.713C290.475 381.953 291.735 382.333 292.775 382.853C293.855 383.333 294.695 383.973 295.295 384.773C295.895 385.533 296.195 386.433 296.195 387.473C296.195 388.513 295.955 389.413 295.475 390.173C294.995 390.893 294.415 391.513 293.735 392.033C292.855 391.473 291.675 390.993 290.195 390.593C288.715 390.153 287.095 389.933 285.335 389.933C283.535 389.933 282.215 390.193 281.375 390.713C280.535 391.193 280.115 391.813 280.115 392.573C280.115 393.173 280.375 393.673 280.895 394.073C281.415 394.433 282.195 394.773 283.235 395.093L286.415 396.113C290.175 397.313 293.055 398.853 295.055 400.733C297.095 402.573 298.115 405.093 298.115 408.293C298.115 411.693 296.775 414.453 294.095 416.573C291.415 418.653 287.475 419.693 282.275 419.693C280.435 419.693 278.715 419.533 277.115 419.213C275.555 418.933 274.175 418.513 272.975 417.953C271.815 417.353 270.895 416.633 270.215 415.793C269.575 414.913 269.255 413.913 269.255 412.793C269.255 411.633 269.595 410.653 270.275 409.853C270.955 409.013 271.695 408.373 272.495 407.933C273.615 408.813 274.975 409.573 276.575 410.213C278.215 410.853 279.995 411.173 281.915 411.173C283.875 411.173 285.255 410.873 286.055 410.273C286.855 409.673 287.255 408.973 287.255 408.173C287.255 407.373 286.935 406.773 286.295 406.373C285.655 405.933 284.755 405.513 283.595 405.113L281.075 404.273ZM303.802 387.953C303.802 386.233 304.302 384.873 305.302 383.873C306.302 382.873 307.662 382.373 309.382 382.373H329.182C329.462 382.813 329.702 383.393 329.902 384.113C330.142 384.833 330.262 385.593 330.262 386.393C330.262 387.913 329.922 388.993 329.242 389.633C328.602 390.273 327.742 390.593 326.662 390.593H314.002V396.173H327.502C327.782 396.613 328.022 397.193 328.222 397.913C328.462 398.593 328.582 399.333 328.582 400.133C328.582 401.653 328.262 402.733 327.622 403.373C326.982 404.013 326.122 404.333 325.042 404.333H314.002V410.633H329.422C329.702 411.073 329.942 411.653 330.142 412.373C330.382 413.093 330.502 413.853 330.502 414.653C330.502 416.173 330.162 417.273 329.482 417.953C328.842 418.593 327.982 418.913 326.902 418.913H309.382C307.662 418.913 306.302 418.413 305.302 417.413C304.302 416.413 303.802 415.053 303.802 413.333V387.953ZM342.253 418.913C340.533 418.913 339.173 418.413 338.173 417.413C337.173 416.413 336.673 415.053 336.673 413.333V382.313C337.113 382.233 337.813 382.133 338.773 382.013C339.733 381.853 340.653 381.773 341.533 381.773C342.453 381.773 343.253 381.853 343.933 382.013C344.653 382.133 345.253 382.373 345.733 382.733C346.213 383.093 346.573 383.593 346.813 384.233C347.053 384.873 347.173 385.713 347.173 386.753V410.453H360.913C361.193 410.893 361.453 411.493 361.693 412.253C361.933 412.973 362.053 413.733 362.053 414.533C362.053 416.133 361.713 417.273 361.033 417.953C360.353 418.593 359.453 418.913 358.333 418.913H342.253ZM367.435 387.953C367.435 386.233 367.935 384.873 368.935 383.873C369.935 382.873 371.295 382.373 373.015 382.373H392.815C393.095 382.813 393.335 383.393 393.535 384.113C393.775 384.833 393.895 385.593 393.895 386.393C393.895 387.913 393.555 388.993 392.875 389.633C392.235 390.273 391.375 390.593 390.295 390.593H377.635V396.173H391.135C391.415 396.613 391.655 397.193 391.855 397.913C392.095 398.593 392.215 399.333 392.215 400.133C392.215 401.653 391.895 402.733 391.255 403.373C390.615 404.013 389.755 404.333 388.675 404.333H377.635V410.633H393.055C393.335 411.073 393.575 411.653 393.775 412.373C394.015 413.093 394.135 413.853 394.135 414.653C394.135 416.173 393.795 417.273 393.115 417.953C392.475 418.593 391.615 418.913 390.535 418.913H373.015C371.295 418.913 369.935 418.413 368.935 417.413C367.935 416.413 367.435 415.053 367.435 413.333V387.953ZM410.919 404.273C409.159 403.673 407.559 403.073 406.119 402.473C404.679 401.833 403.439 401.073 402.399 400.193C401.359 399.313 400.539 398.273 399.939 397.073C399.379 395.833 399.099 394.333 399.099 392.573C399.099 389.173 400.399 386.453 402.999 384.413C405.639 382.373 409.319 381.353 414.039 381.353C415.759 381.353 417.359 381.473 418.839 381.713C420.319 381.953 421.579 382.333 422.619 382.853C423.699 383.333 424.539 383.973 425.139 384.773C425.739 385.533 426.039 386.433 426.039 387.473C426.039 388.513 425.799 389.413 425.319 390.173C424.839 390.893 424.259 391.513 423.579 392.033C422.699 391.473 421.519 390.993 420.039 390.593C418.559 390.153 416.939 389.933 415.179 389.933C413.379 389.933 412.059 390.193 411.219 390.713C410.379 391.193 409.959 391.813 409.959 392.573C409.959 393.173 410.219 393.673 410.739 394.073C411.259 394.433 412.039 394.773 413.079 395.093L416.259 396.113C420.019 397.313 422.899 398.853 424.899 400.733C426.939 402.573 427.959 405.093 427.959 408.293C427.959 411.693 426.619 414.453 423.939 416.573C421.259 418.653 417.319 419.693 412.119 419.693C410.279 419.693 408.559 419.533 406.959 419.213C405.399 418.933 404.019 418.513 402.819 417.953C401.659 417.353 400.739 416.633 400.059 415.793C399.419 414.913 399.099 413.913 399.099 412.793C399.099 411.633 399.439 410.653 400.119 409.853C400.799 409.013 401.539 408.373 402.339 407.933C403.459 408.813 404.819 409.573 406.419 410.213C408.059 410.853 409.839 411.173 411.759 411.173C413.719 411.173 415.099 410.873 415.899 410.273C416.699 409.673 417.099 408.973 417.099 408.173C417.099 407.373 416.779 406.773 416.139 406.373C415.499 405.933 414.599 405.513 413.439 405.113L410.919 404.273ZM441.62 383.453C442.3 383.053 443.32 382.673 444.68 382.313C446.08 381.953 447.48 381.773 448.88 381.773C450.88 381.773 452.64 382.073 454.16 382.673C455.72 383.233 456.72 384.133 457.16 385.373C457.88 387.453 458.66 389.873 459.5 392.633C460.34 395.393 461.18 398.253 462.02 401.213C462.86 404.133 463.68 407.033 464.48 409.913C465.28 412.753 465.98 415.273 466.58 417.473C466.1 418.033 465.38 418.473 464.42 418.793C463.46 419.153 462.32 419.333 461 419.333C460.04 419.333 459.22 419.253 458.54 419.093C457.9 418.933 457.36 418.693 456.92 418.373C456.52 418.053 456.18 417.633 455.9 417.113C455.66 416.593 455.44 415.993 455.24 415.313L454.16 411.173H443.3C442.98 412.373 442.66 413.613 442.34 414.893C442.02 416.173 441.7 417.413 441.38 418.613C440.82 418.813 440.22 418.973 439.58 419.093C438.98 419.253 438.24 419.333 437.36 419.333C435.32 419.333 433.8 418.993 432.8 418.313C431.84 417.593 431.36 416.613 431.36 415.373C431.36 414.813 431.44 414.253 431.6 413.693C431.76 413.133 431.94 412.473 432.14 411.713C432.42 410.633 432.8 409.293 433.28 407.693C433.8 406.093 434.36 404.373 434.96 402.533C435.56 400.653 436.2 398.733 436.88 396.773C437.56 394.813 438.2 392.973 438.8 391.253C439.4 389.493 439.94 387.933 440.42 386.573C440.94 385.213 441.34 384.173 441.62 383.453ZM448.82 391.193C448.26 392.873 447.62 394.753 446.9 396.833C446.22 398.873 445.6 400.953 445.04 403.073H452.48C451.92 400.913 451.34 398.813 450.74 396.773C450.18 394.693 449.66 392.833 449.18 391.193H448.82ZM481.998 418.493C481.558 418.613 480.858 418.733 479.898 418.853C478.978 418.973 478.058 419.033 477.138 419.033C476.218 419.033 475.398 418.953 474.678 418.793C473.998 418.673 473.418 418.433 472.938 418.073C472.458 417.713 472.098 417.213 471.858 416.573C471.618 415.933 471.498 415.093 471.498 414.053V382.373C471.938 382.293 472.638 382.193 473.598 382.073C474.558 381.913 475.478 381.833 476.358 381.833C477.278 381.833 478.078 381.913 478.758 382.073C479.478 382.193 480.078 382.433 480.558 382.793C481.038 383.153 481.398 383.653 481.638 384.293C481.878 384.933 481.998 385.773 481.998 386.813V418.493Z"
        fill="#633F5C" />
    <path fill-rule="evenodd" clip-rule="evenodd"
        d="M162.47 517.677C261.602 515.033 380.341 517.677 458.766 520.321C466.036 520.541 475.288 520.321 481.677 523.185C493.132 530.014 503.926 543.013 508.112 557.553C509.434 562.4 510.095 567.467 509.874 572.755C509.213 591.701 507.01 604.92 492.03 619.02C482.337 628.273 469.781 634.441 455.682 634.001C361.176 631.577 264.246 631.137 166.435 634.001C158.284 634.221 150.354 632.238 143.304 628.934C131.409 623.205 118.631 611.529 111.582 597.65C112.023 589.498 112.463 580.686 112.023 570.111C111.362 555.791 116.649 542.572 125.901 533.099C135.154 523.625 148.151 518.118 162.69 517.677H162.47Z"
        fill="#12458C" />
    <path fill-rule="evenodd" clip-rule="evenodd"
        d="M165.775 511.068C262.925 508.865 376.377 511.508 452.378 513.932C466.918 514.372 479.915 519.88 489.167 529.574C498.42 539.047 503.927 552.045 503.266 566.366C502.605 585.312 501.063 598.531 486.083 612.631C476.39 621.884 463.173 627.832 449.074 627.612C353.026 626.51 257.638 626.731 159.828 627.612C145.508 627.612 132.291 621.884 122.818 612.851C107.397 598.311 106.296 583.329 105.415 563.722C104.754 549.402 110.041 536.183 119.293 526.71C126.122 519.66 134.934 514.813 145.068 512.61C149.253 513.932 158.065 514.372 160.048 513.932C161.37 513.712 163.132 512.83 165.775 511.068Z"
        fill="url(#paint48_radial_465_5662)" />
    <g style="mix-blend-mode:multiply">
        <path
            d="M133.175 516.795C199.263 533.539 249.931 547.859 300.378 548.74C309.19 548.74 318.002 548.74 327.034 548.079C342.234 546.978 348.182 547.418 360.959 537.505C371.093 529.573 381.006 519.219 393.343 512.389C395.986 512.389 398.63 512.389 401.273 512.389C390.479 516.575 380.786 523.405 371.974 530.675C366.467 535.081 360.739 540.589 354.791 544.775C386.514 539.928 419.998 530.014 457.448 514.152C460.533 514.592 463.617 515.033 466.701 515.914C402.375 543.453 351.266 552.265 299.938 551.164C247.728 550.282 194.857 537.945 125.905 520.761C128.108 519.219 130.532 517.677 133.175 516.575V516.795ZM112.027 536.403C194.858 561.959 256.98 577.601 316.9 580.906C375.278 584.21 431.233 574.517 501.948 552.265C502.388 554.248 502.829 556.451 503.049 558.654C431.674 580.465 374.838 587.074 316.46 583.77C256.099 580.465 193.095 567.246 109.604 541.47C110.264 539.708 111.146 538.165 112.027 536.623V536.403ZM105.858 554.468C172.167 581.566 206.313 594.344 254.777 603.377C337.168 618.799 415.813 615.714 496.22 600.293C494.898 602.496 493.356 604.919 491.374 607.122C412.508 621.443 334.965 621.883 254.117 606.902C205.872 597.869 171.066 586.413 105.418 559.535C105.418 557.773 105.418 556.01 105.858 554.248V554.468ZM105.858 574.296C129.43 583.77 146.613 592.582 162.915 601.615C175.912 608.885 188.249 616.816 202.127 627.391C199.704 627.391 197.281 627.391 194.857 627.391C183.402 617.918 173.269 610.647 161.593 604.258C145.952 595.666 128.769 588.616 106.299 579.584C106.079 577.821 105.858 576.059 105.858 574.076V574.296Z"
            fill="#C0E5ED" />
    </g>
    <path style="mix-blend-mode:multiply" opacity="0.5" fill-rule="evenodd" clip-rule="evenodd"
        d="M299.714 551.605C247.504 550.723 194.633 538.386 125.681 521.202C123.258 522.964 121.055 524.727 119.072 526.93C116.209 529.794 113.785 533.099 111.803 536.623C194.633 562.179 256.756 577.821 316.676 581.126C375.054 584.431 431.009 574.737 501.724 552.486C500.402 547.198 498.199 542.131 495.115 537.505C456.784 548.961 415.148 556.231 371.97 557.333C414.707 549.622 445.108 540.148 483.219 524.727C478.152 520.981 472.645 518.117 466.256 516.355C401.93 543.894 350.822 552.706 299.493 551.605H299.714Z"
        fill="url(#paint49_radial_465_5662)" />
    <path style="mix-blend-mode:multiply" opacity="0.5" fill-rule="evenodd" clip-rule="evenodd"
        d="M194.855 627.391C183.4 617.917 173.266 610.647 161.591 604.258C145.95 595.666 128.767 588.616 106.297 579.583C107.839 591.921 111.584 602.496 122.378 612.85C132.071 622.103 145.289 627.831 159.388 627.611C171.063 627.611 182.739 627.611 194.415 627.391H194.855Z"
        fill="url(#paint50_radial_465_5662)" />
    <path style="mix-blend-mode:screen" fill-rule="evenodd" clip-rule="evenodd"
        d="M121.058 524.947C162.033 531.556 201.025 541.911 242.44 547.859C282.754 553.807 327.254 555.129 367.568 548.96C404.137 543.232 437.621 531.336 471.987 517.897C470.225 517.236 468.462 516.575 466.48 516.134C402.154 543.673 351.046 552.485 299.717 551.384C247.507 550.503 194.637 538.165 125.684 520.981C123.922 522.083 122.38 523.404 120.838 524.947H121.058Z"
        fill="url(#paint51_radial_465_5662)" />
    <path style="mix-blend-mode:screen" fill-rule="evenodd" clip-rule="evenodd"
        d="M503.042 558.655C431.667 580.465 374.831 587.074 316.453 583.77C258.075 580.465 197.274 567.908 117.748 543.894C115.104 543.013 112.24 542.352 109.597 541.47C110.258 539.708 111.139 538.166 112.02 536.624C110.478 539.488 109.156 542.352 108.055 545.436C110.698 546.097 113.342 546.758 115.985 547.419C140.438 553.367 164.891 559.095 189.343 564.603C257.414 579.584 304.117 588.176 374.611 585.312C399.945 584.21 421.533 581.126 446.206 576.059C466.253 572.093 483.877 567.467 503.263 561.519C503.263 560.637 503.263 559.756 503.042 558.875V558.655Z"
        fill="url(#paint52_radial_465_5662)" />
    <path style="mix-blend-mode:screen" fill-rule="evenodd" clip-rule="evenodd"
        d="M491.374 607.343C412.508 621.663 334.965 622.104 254.117 607.122C205.872 598.09 171.066 586.634 105.418 559.756C105.418 561.078 105.418 562.4 105.418 563.721C132.514 572.974 157.628 582.448 184.283 591.26C230.986 606.682 280.111 615.054 329.237 619.019C383.87 623.425 436.3 619.019 488.289 610.647C489.391 609.546 490.272 608.444 491.374 607.343Z"
        fill="url(#paint53_radial_465_5662)" />
    <path fill-rule="evenodd" clip-rule="evenodd"
        d="M145.068 512.83C152.558 516.134 160.709 518.117 162.031 517.456C163.132 517.016 164.454 515.033 165.776 511.288C163.132 513.05 161.37 513.931 160.048 514.152C158.066 514.592 149.254 514.152 145.068 512.83Z"
        fill="url(#paint54_linear_465_5662)" />
    <path style="mix-blend-mode:screen" fill-rule="evenodd" clip-rule="evenodd"
        d="M364.479 537.284C375.053 529.133 382.322 523.405 392.235 518.558C396.201 516.575 400.827 514.593 406.114 512.83C404.572 512.83 403.03 512.83 401.488 512.83C397.302 514.372 393.337 516.355 389.592 518.778C383.424 522.524 377.696 526.71 372.189 531.336C369.766 533.319 367.342 535.522 364.919 537.505L364.479 537.284Z"
        fill="url(#paint55_radial_465_5662)" />
    <path fill-rule="evenodd" clip-rule="evenodd"
        d="M488.064 622.323L482.116 616.375C472.864 623.645 461.409 628.051 449.072 627.831C367.123 626.73 285.393 626.95 202.343 627.391C199.919 627.391 197.496 627.391 195.073 627.391C183.397 627.391 171.722 627.391 160.046 627.611C145.727 627.611 132.509 621.883 123.037 612.85C119.952 609.986 117.309 606.902 115.326 603.817C122.596 615.053 133.39 624.086 143.304 628.933C150.353 632.458 158.284 634.22 166.434 634C264.245 631.136 361.175 631.576 455.681 634C468.238 634.22 479.252 629.594 488.505 622.103L488.064 622.323Z"
        fill="url(#paint56_linear_465_5662)" />
    <path fill-rule="evenodd" clip-rule="evenodd"
        d="M482.121 616.155L488.069 622.103C489.391 621.002 490.493 620.12 491.594 619.019C506.574 604.699 508.777 591.7 509.438 572.754C509.438 567.466 508.997 562.399 507.676 557.552C503.49 543.012 492.696 530.014 481.24 523.184C481.901 523.625 482.562 524.065 483.223 524.506C485.206 526.048 487.188 527.811 488.951 529.573C491.153 531.996 493.357 534.64 495.119 537.284C497.983 541.91 500.186 546.757 501.728 552.265C502.168 554.248 502.609 556.451 502.829 558.654C502.829 559.535 502.829 560.416 503.049 561.298C503.049 563.06 503.049 564.602 503.049 566.365C502.389 582.888 501.287 595.005 490.933 607.342C490.052 608.444 488.951 609.546 487.849 610.647C487.188 611.308 486.527 611.969 485.646 612.85C484.324 613.952 483.003 615.274 481.681 616.375L482.121 616.155Z"
        fill="url(#paint57_linear_465_5662)" />
    <path style="mix-blend-mode:multiply" fill-rule="evenodd" clip-rule="evenodd"
        d="M156.526 524.286C146.173 524.506 136.039 528.251 128.549 535.742C121.5 543.012 117.975 553.146 118.195 563.28C118.856 579.363 119.076 591.921 131.413 603.597C138.903 610.867 149.036 615.053 159.611 614.833C256.099 613.952 352.588 613.731 449.077 614.833C459.651 614.833 469.565 610.647 477.055 603.377C489.171 591.921 489.611 581.786 490.272 565.924C490.713 555.79 486.748 545.876 479.698 538.606C472.428 531.115 462.295 527.37 451.721 526.929C386.954 524.947 322.188 523.404 257.421 523.184C223.716 523.184 189.791 523.184 156.086 524.286H156.526Z"
        fill="url(#paint58_linear_465_5662)" />
    <path fill-rule="evenodd" clip-rule="evenodd"
        d="M132.512 539.707C139.782 532.217 149.915 528.472 160.489 528.251C194.194 527.37 228.12 527.15 261.825 527.15C326.591 527.15 391.358 528.912 456.124 530.895C465.377 531.115 474.409 534.2 481.458 540.148C481.018 539.487 480.577 539.046 479.916 538.386C472.646 530.895 462.513 527.15 451.939 526.709C387.172 524.726 322.406 523.184 257.639 522.964C223.934 522.964 190.009 522.964 156.304 524.065C145.95 524.286 135.816 528.031 128.326 535.522C121.277 542.792 117.752 552.926 117.973 563.06C118.633 579.143 118.854 591.701 131.19 603.377C131.631 603.818 131.851 604.038 132.292 604.479C122.819 593.683 122.379 582.007 121.938 567.246C121.497 557.112 125.242 546.978 132.292 539.707H132.512Z"
        fill="url(#paint59_linear_465_5662)" />
    <path style="mix-blend-mode:screen" fill-rule="evenodd" clip-rule="evenodd"
        d="M449.295 614.834C352.806 613.732 256.318 613.952 159.829 614.834C149.255 614.834 139.341 610.868 131.631 603.598C122.819 595.226 120.176 586.414 119.074 576.279C120.837 595.887 131.851 616.596 160.269 617.257C171.724 617.477 183.18 616.596 194.855 616.376C230.323 615.935 265.79 615.935 301.258 615.935C322.626 615.935 343.774 615.935 365.143 615.935C387.613 615.935 410.083 616.596 432.553 617.037C457.446 617.477 473.528 615.274 484.542 594.785C482.78 597.649 480.357 600.513 477.273 603.598C469.783 610.648 459.649 615.054 449.295 615.054V614.834Z"
        fill="url(#paint60_radial_465_5662)" />
    <path style="mix-blend-mode:screen" fill-rule="evenodd" clip-rule="evenodd"
        d="M152.561 515.474C150.138 514.813 147.494 513.711 145.071 512.61C134.937 514.813 126.126 519.66 119.296 526.709C111.146 535.081 106.079 546.537 105.418 558.875C109.604 539.928 116.653 525.167 136.259 516.575C138.903 515.474 144.41 513.931 147.274 514.372C148.816 514.372 150.799 515.033 152.561 515.474ZM165.779 511.067C165.338 512.389 164.897 513.271 164.457 514.152C165.779 512.83 165.779 512.389 168.422 512.389C265.352 511.949 362.281 512.83 459.211 517.016C481.02 517.897 492.034 531.777 500.846 548.74C498.423 541.47 494.458 534.861 489.171 529.353C479.918 519.88 466.921 514.152 452.382 513.711C376.38 511.288 262.708 508.644 165.779 510.847V511.067Z"
        fill="url(#paint61_radial_465_5662)" />
    <path fill-rule="evenodd" clip-rule="evenodd"
        d="M156.527 528.912C147.274 529.133 138.242 532.217 131.854 539.047C125.685 545.436 122.601 554.468 122.822 563.281C123.482 577.821 123.482 589.718 134.717 600.513C141.547 606.902 150.358 610.647 159.611 610.647C256.1 609.766 352.809 609.546 449.298 610.647C458.55 610.647 467.582 606.682 474.191 600.513C485.206 589.938 485.426 580.685 486.087 566.145C486.527 557.332 483.003 548.52 476.835 542.131C470.446 535.301 461.194 532.217 451.941 531.777C387.175 529.794 322.408 528.252 257.862 528.031C224.157 528.031 190.452 528.031 156.747 529.133L156.527 528.912Z"
        fill="url(#paint62_linear_465_5662)" />
    <path style="mix-blend-mode:screen" fill-rule="evenodd" clip-rule="evenodd"
        d="M304.343 532.438C373.515 532.879 420.658 533.099 444.229 534.641C466.479 535.963 486.967 547.199 459.65 565.044C442.467 576.28 400.832 586.855 304.343 586.855C227.24 586.855 185.163 580.466 162.253 572.534C129.209 561.299 125.904 539.268 154.322 534.641C177.013 531.116 228.561 531.997 304.343 532.438Z"
        fill="url(#paint63_radial_465_5662)" />
    <path style="mix-blend-mode:screen" fill-rule="evenodd" clip-rule="evenodd"
        d="M150.581 532.217C143.972 534.42 133.618 541.03 131.856 547.419C130.314 552.926 135.821 553.147 140.668 551.164C146.175 548.961 152.784 545.215 156.969 541.25C162.257 536.403 158.952 529.353 150.581 532.217Z"
        fill="url(#paint64_radial_465_5662)" />
    <path style="mix-blend-mode:multiply" fill-rule="evenodd" clip-rule="evenodd"
        d="M453.045 599.632C353.913 603.377 255.001 603.818 155.868 599.632C146.396 599.191 137.143 595.887 130.314 589.277C128.111 587.074 126.128 584.871 124.807 582.668C126.349 588.837 128.992 594.785 134.94 600.073C141.769 606.462 150.581 610.207 159.834 610.207C256.322 609.326 353.032 609.105 449.521 610.207C458.773 610.207 467.805 606.241 474.414 600.073C480.582 594.124 483.446 588.616 484.768 582.448C483.226 584.651 481.243 587.074 478.82 589.277C471.991 595.887 462.738 599.412 453.266 599.632H453.045Z"
        fill="url(#paint65_radial_465_5662)" />
    <path style="mix-blend-mode:screen" fill-rule="evenodd" clip-rule="evenodd"
        d="M464.056 602.056C469.122 599.853 474.85 594.785 475.291 589.718C475.731 585.753 471.546 585.312 468.241 587.075C464.716 589.057 460.531 592.362 457.887 595.667C454.803 599.632 458.328 604.479 464.056 602.056Z"
        fill="url(#paint66_radial_465_5662)" />
    <g style="mix-blend-mode:screen">
        <path
            d="M145.73 541.47C145.73 541.47 145.729 542.352 145.289 542.572C144.848 542.792 144.408 542.792 144.188 542.572C144.188 542.352 144.187 541.691 144.628 541.47C145.069 541.25 145.509 541.25 145.73 541.47Z"
            fill="#FFED44" />
    </g>
    <path
        d="M160.205 586.202C158.485 586.202 157.125 585.702 156.125 584.702C155.125 583.702 154.625 582.342 154.625 580.622V549.602C155.065 549.522 155.765 549.422 156.725 549.302C157.685 549.142 158.605 549.062 159.485 549.062C160.405 549.062 161.205 549.142 161.885 549.302C162.605 549.422 163.205 549.662 163.685 550.022C164.165 550.382 164.525 550.882 164.765 551.522C165.005 552.162 165.125 553.002 165.125 554.042V577.742H178.865C179.145 578.182 179.405 578.782 179.645 579.542C179.885 580.262 180.005 581.022 180.005 581.822C180.005 583.422 179.665 584.562 178.985 585.242C178.305 585.882 177.405 586.202 176.285 586.202H160.205ZM195.886 585.782C195.446 585.902 194.746 586.022 193.786 586.142C192.866 586.262 191.946 586.322 191.026 586.322C190.106 586.322 189.286 586.242 188.566 586.082C187.886 585.962 187.306 585.722 186.826 585.362C186.346 585.002 185.986 584.502 185.746 583.862C185.506 583.222 185.386 582.382 185.386 581.342V549.662C185.826 549.582 186.526 549.482 187.486 549.362C188.446 549.202 189.366 549.122 190.246 549.122C191.166 549.122 191.966 549.202 192.646 549.362C193.366 549.482 193.966 549.722 194.446 550.082C194.926 550.442 195.286 550.942 195.526 551.582C195.766 552.222 195.886 553.062 195.886 554.102V585.782ZM236.188 585.782C235.748 585.902 235.048 586.022 234.088 586.142C233.168 586.262 232.248 586.322 231.328 586.322C230.408 586.322 229.588 586.242 228.868 586.082C228.188 585.962 227.608 585.722 227.128 585.362C226.648 585.002 226.288 584.502 226.048 583.862C225.808 583.222 225.688 582.382 225.688 581.342V571.982H214.168V585.782C213.728 585.902 213.028 586.022 212.068 586.142C211.148 586.262 210.228 586.322 209.308 586.322C208.388 586.322 207.568 586.242 206.848 586.082C206.168 585.962 205.588 585.722 205.108 585.362C204.628 585.002 204.268 584.502 204.028 583.862C203.788 583.222 203.668 582.382 203.668 581.342V549.662C204.108 549.582 204.808 549.482 205.768 549.362C206.728 549.202 207.648 549.122 208.528 549.122C209.448 549.122 210.248 549.202 210.928 549.362C211.648 549.482 212.248 549.722 212.728 550.082C213.208 550.442 213.568 550.942 213.808 551.582C214.048 552.222 214.168 553.062 214.168 554.102V563.702H225.688V549.662C226.128 549.582 226.828 549.482 227.788 549.362C228.748 549.202 229.668 549.122 230.548 549.122C231.468 549.122 232.268 549.202 232.948 549.362C233.668 549.482 234.268 549.722 234.748 550.082C235.228 550.442 235.588 550.942 235.828 551.582C236.068 552.222 236.188 553.062 236.188 554.102V585.782ZM251.72 550.742C252.4 550.342 253.42 549.962 254.78 549.602C256.18 549.242 257.58 549.062 258.98 549.062C260.98 549.062 262.74 549.362 264.26 549.962C265.82 550.522 266.82 551.422 267.26 552.662C267.98 554.742 268.76 557.162 269.6 559.922C270.44 562.682 271.28 565.542 272.12 568.502C272.96 571.422 273.78 574.322 274.58 577.202C275.38 580.042 276.08 582.562 276.68 584.762C276.2 585.322 275.48 585.762 274.52 586.082C273.56 586.442 272.42 586.622 271.1 586.622C270.14 586.622 269.32 586.542 268.64 586.382C268 586.222 267.46 585.982 267.02 585.662C266.62 585.342 266.28 584.922 266 584.402C265.76 583.882 265.54 583.282 265.34 582.602L264.26 578.462H253.4C253.08 579.662 252.76 580.902 252.44 582.182C252.12 583.462 251.8 584.702 251.48 585.902C250.92 586.102 250.32 586.262 249.68 586.382C249.08 586.542 248.34 586.622 247.46 586.622C245.42 586.622 243.9 586.282 242.9 585.602C241.94 584.882 241.46 583.902 241.46 582.662C241.46 582.102 241.54 581.542 241.7 580.982C241.86 580.422 242.04 579.762 242.24 579.002C242.52 577.922 242.9 576.582 243.38 574.982C243.9 573.382 244.46 571.662 245.06 569.822C245.66 567.942 246.3 566.022 246.98 564.062C247.66 562.102 248.3 560.262 248.9 558.542C249.5 556.782 250.04 555.222 250.52 553.862C251.04 552.502 251.44 551.462 251.72 550.742ZM258.92 558.482C258.36 560.162 257.72 562.042 257 564.122C256.32 566.162 255.7 568.242 255.14 570.362H262.58C262.02 568.202 261.44 566.102 260.84 564.062C260.28 561.982 259.76 560.122 259.28 558.482H258.92ZM277.808 558.062C277.528 557.622 277.268 557.022 277.028 556.262C276.788 555.502 276.668 554.702 276.668 553.862C276.668 552.302 277.008 551.182 277.688 550.502C278.408 549.822 279.328 549.482 280.448 549.482H306.608C306.888 549.922 307.148 550.522 307.388 551.282C307.628 552.042 307.748 552.842 307.748 553.682C307.748 555.242 307.388 556.362 306.668 557.042C305.988 557.722 305.088 558.062 303.968 558.062H297.308V585.782C296.868 585.902 296.168 586.022 295.208 586.142C294.288 586.262 293.368 586.322 292.448 586.322C291.528 586.322 290.708 586.242 289.988 586.082C289.308 585.962 288.728 585.722 288.248 585.362C287.768 585.002 287.408 584.502 287.168 583.862C286.928 583.222 286.808 582.382 286.808 581.342V558.062H277.808ZM338.459 566.522C340.139 566.522 341.419 566.142 342.299 565.382C343.219 564.582 343.679 563.382 343.679 561.782C343.679 560.262 343.199 559.102 342.239 558.302C341.319 557.462 339.959 557.042 338.159 557.042C337.519 557.042 336.979 557.062 336.539 557.102C336.139 557.102 335.719 557.142 335.279 557.222V566.522H338.459ZM335.339 585.782C334.899 585.902 334.199 586.022 333.239 586.142C332.319 586.262 331.399 586.322 330.479 586.322C329.559 586.322 328.739 586.242 328.019 586.082C327.339 585.962 326.759 585.722 326.279 585.362C325.799 585.002 325.439 584.502 325.199 583.862C324.959 583.222 324.839 582.382 324.839 581.342V553.082C324.839 552.242 325.059 551.602 325.499 551.162C325.979 550.682 326.619 550.302 327.419 550.022C328.779 549.542 330.319 549.202 332.039 549.002C333.799 548.762 335.559 548.642 337.319 548.642C342.839 548.642 347.059 549.822 349.979 552.182C352.899 554.542 354.359 557.742 354.359 561.782C354.359 563.742 354.039 565.522 353.399 567.122C352.799 568.682 351.879 570.042 350.639 571.202C349.439 572.322 347.899 573.202 346.019 573.842C344.179 574.442 342.039 574.742 339.599 574.742H335.339V585.782ZM357.903 567.782C357.903 564.662 358.383 561.902 359.343 559.502C360.343 557.102 361.683 555.102 363.363 553.502C365.083 551.862 367.083 550.622 369.363 549.782C371.683 548.942 374.183 548.522 376.863 548.522C379.543 548.522 382.023 548.942 384.303 549.782C386.623 550.622 388.643 551.862 390.363 553.502C392.083 555.102 393.423 557.102 394.383 559.502C395.383 561.902 395.883 564.662 395.883 567.782C395.883 570.902 395.403 573.682 394.443 576.122C393.483 578.522 392.143 580.542 390.423 582.182C388.743 583.782 386.743 585.002 384.423 585.842C382.103 586.682 379.583 587.102 376.863 587.102C374.143 587.102 371.623 586.682 369.303 585.842C366.983 584.962 364.983 583.702 363.303 582.062C361.623 580.422 360.303 578.402 359.343 576.002C358.383 573.602 357.903 570.862 357.903 567.782ZM368.703 567.782C368.703 571.422 369.443 574.142 370.923 575.942C372.403 577.742 374.383 578.642 376.863 578.642C379.383 578.642 381.383 577.742 382.863 575.942C384.343 574.142 385.083 571.422 385.083 567.782C385.083 564.182 384.343 561.482 382.863 559.682C381.423 557.882 379.443 556.982 376.923 556.982C374.443 556.982 372.443 557.882 370.923 559.682C369.443 561.442 368.703 564.142 368.703 567.782ZM412.39 585.782C411.95 585.902 411.25 586.022 410.29 586.142C409.37 586.262 408.45 586.322 407.53 586.322C406.61 586.322 405.79 586.242 405.07 586.082C404.39 585.962 403.81 585.722 403.33 585.362C402.85 585.002 402.49 584.502 402.25 583.862C402.01 583.222 401.89 582.382 401.89 581.342V549.662C402.33 549.582 403.03 549.482 403.99 549.362C404.95 549.202 405.87 549.122 406.75 549.122C407.67 549.122 408.47 549.202 409.15 549.362C409.87 549.482 410.47 549.722 410.95 550.082C411.43 550.442 411.79 550.942 412.03 551.582C412.27 552.222 412.39 553.062 412.39 554.102V585.782ZM453.111 584.762C452.551 585.322 451.731 585.742 450.651 586.022C449.611 586.342 448.351 586.502 446.871 586.502C445.391 586.502 443.991 586.282 442.671 585.842C441.351 585.402 440.271 584.342 439.431 582.662L433.491 570.542C432.891 569.302 432.351 568.142 431.871 567.062C431.391 565.942 430.871 564.662 430.311 563.222L429.951 563.282C430.111 565.442 430.191 567.642 430.191 569.882C430.231 572.122 430.251 574.322 430.251 576.482V585.782C429.811 585.902 429.131 586.022 428.211 586.142C427.331 586.262 426.451 586.322 425.571 586.322C424.691 586.322 423.911 586.262 423.231 586.142C422.551 586.022 421.991 585.782 421.551 585.422C421.111 585.062 420.771 584.582 420.531 583.982C420.291 583.342 420.171 582.522 420.171 581.522V551.522C420.731 550.722 421.591 550.122 422.751 549.722C423.911 549.322 425.151 549.122 426.471 549.122C427.951 549.122 429.351 549.362 430.671 549.842C432.031 550.282 433.111 551.322 433.911 552.962L439.911 565.082C440.511 566.322 441.051 567.502 441.531 568.622C442.011 569.702 442.531 570.962 443.091 572.402L443.391 572.342C443.231 570.182 443.131 568.022 443.091 565.862C443.051 563.702 443.031 561.542 443.031 559.382V549.662C443.471 549.542 444.131 549.422 445.011 549.302C445.931 549.182 446.831 549.122 447.711 549.122C449.471 549.122 450.811 549.442 451.731 550.082C452.651 550.682 453.111 551.962 453.111 553.922V584.762Z"
        fill="white" />
    <defs>
        <radialGradient id="paint0_radial_465_5662" cx="0" cy="0" r="1"
            gradientUnits="userSpaceOnUse"
            gradientTransform="translate(313.195 304.377) scale(299.144 299.673)">
            <stop stop-color="#0C3469" />
            <stop offset="1" />
        </radialGradient>
        <radialGradient id="paint1_radial_465_5662" cx="0" cy="0" r="1"
            gradientUnits="userSpaceOnUse"
            gradientTransform="translate(-12.8974 -8.35883) scale(1660.78 1663.72)">
            <stop stop-color="#2EA4FF" />
            <stop offset="1" stop-color="#2478F0" />
        </radialGradient>
        <linearGradient id="paint2_linear_465_5662" x1="309.609" y1="600.023" x2="309.609"
            y2="581.953" gradientUnits="userSpaceOnUse">
            <stop stop-color="#062D70" />
            <stop offset="1" stop-color="#034494" />
        </linearGradient>
        <linearGradient id="paint3_linear_465_5662" x1="595.28" y1="304.377" x2="616.36"
            y2="304.377" gradientUnits="userSpaceOnUse">
            <stop stop-color="#0456BA" />
            <stop offset="1" stop-color="#083B94" />
        </linearGradient>
        <radialGradient id="paint4_radial_465_5662" cx="0" cy="0" r="1"
            gradientUnits="userSpaceOnUse"
            gradientTransform="translate(69.25 -19.8975) scale(450.292 451.089)">
            <stop stop-color="#0C3469" />
            <stop offset="1" />
        </radialGradient>
        <radialGradient id="paint5_radial_465_5662" cx="0" cy="0" r="1"
            gradientUnits="userSpaceOnUse"
            gradientTransform="translate(51.5384 186.271) scale(479.196 480.044)">
            <stop stop-color="#0C3469" />
            <stop offset="1" />
        </radialGradient>
        <radialGradient id="paint6_radial_465_5662" cx="0" cy="0" r="1"
            gradientUnits="userSpaceOnUse"
            gradientTransform="translate(135.969 140.117) scale(1371.52 1373.95)">
            <stop stop-color="#0C3469" />
            <stop offset="1" />
        </radialGradient>
        <radialGradient id="paint7_radial_465_5662" cx="0" cy="0" r="1"
            gradientUnits="userSpaceOnUse"
            gradientTransform="translate(21.1134 310.255) scale(756.064 757.402)">
            <stop stop-color="#0C3469" />
            <stop offset="1" />
        </radialGradient>
        <radialGradient id="paint8_radial_465_5662" cx="0" cy="0" r="1"
            gradientUnits="userSpaceOnUse"
            gradientTransform="translate(-26.1537 379.921) scale(677.611 678.81)">
            <stop stop-color="#0C3469" />
            <stop offset="1" />
        </radialGradient>
        <radialGradient id="paint9_radial_465_5662" cx="0" cy="0" r="1"
            gradientUnits="userSpaceOnUse"
            gradientTransform="translate(19.7003 398.644) scale(940.245 941.908)">
            <stop stop-color="#0C3469" />
            <stop offset="1" />
        </radialGradient>
        <radialGradient id="paint10_radial_465_5662" cx="0" cy="0" r="1"
            gradientUnits="userSpaceOnUse"
            gradientTransform="translate(8.07512 499.551) scale(797.681 799.093)">
            <stop stop-color="#0C3469" />
            <stop offset="1" />
        </radialGradient>
        <radialGradient id="paint11_radial_465_5662" cx="0" cy="0" r="1"
            gradientUnits="userSpaceOnUse"
            gradientTransform="translate(581.044 822.192) scale(958.283 959.978)">
            <stop stop-color="#BAC3EB" />
            <stop offset="0.99" stop-color="white" />
        </radialGradient>
        <radialGradient id="paint12_radial_465_5662" cx="0" cy="0" r="1"
            gradientUnits="userSpaceOnUse"
            gradientTransform="translate(388.279 -279.404) scale(996.314 998.077)">
            <stop stop-color="#BAC3EB" />
            <stop offset="0.99" stop-color="white" />
        </radialGradient>
        <radialGradient id="paint13_radial_465_5662" cx="0" cy="0" r="1"
            gradientUnits="userSpaceOnUse"
            gradientTransform="translate(-47.9955 -336.661) scale(912.971 914.586)">
            <stop stop-color="#BAC3EB" />
            <stop offset="0.99" stop-color="white" />
        </radialGradient>
        <radialGradient id="paint14_radial_465_5662" cx="0" cy="0" r="1"
            gradientUnits="userSpaceOnUse"
            gradientTransform="translate(597.453 524.696) scale(837.234 838.716)">
            <stop stop-color="#0C3469" />
            <stop offset="1" />
        </radialGradient>
        <radialGradient id="paint15_radial_465_5662" cx="0" cy="0" r="1"
            gradientUnits="userSpaceOnUse"
            gradientTransform="translate(473.36 182.897) scale(619.26 620.356)">
            <stop stop-color="#0C3469" />
            <stop offset="1" />
        </radialGradient>
        <radialGradient id="paint16_radial_465_5662" cx="0" cy="0" r="1"
            gradientUnits="userSpaceOnUse"
            gradientTransform="translate(0.35887 225.676) scale(451.704 452.504)">
            <stop stop-color="#0C3469" />
            <stop offset="1" />
        </radialGradient>
        <radialGradient id="paint17_radial_465_5662" cx="0" cy="0" r="1"
            gradientUnits="userSpaceOnUse"
            gradientTransform="translate(598.975 468.31) scale(564.603 565.602)">
            <stop stop-color="#0C3469" />
            <stop offset="1" />
        </radialGradient>
        <radialGradient id="paint18_radial_465_5662" cx="0" cy="0" r="1"
            gradientUnits="userSpaceOnUse"
            gradientTransform="translate(75.4442 -51.6825) scale(1400.86 1403.34)">
            <stop stop-color="#00FFFA" />
            <stop offset="1" />
        </radialGradient>
        <radialGradient id="paint19_radial_465_5662" cx="0" cy="0" r="1"
            gradientUnits="userSpaceOnUse"
            gradientTransform="translate(310.805 461.017) scale(495.06 495.936)">
            <stop stop-color="#706F6F" />
            <stop offset="1" stop-color="white" />
        </radialGradient>
        <linearGradient id="paint20_linear_465_5662" x1="303.524" y1="564.536" x2="303.524"
            y2="39.9716" gradientUnits="userSpaceOnUse">
            <stop stop-color="#EDD6B9" />
            <stop offset="1" stop-color="#D4B492" />
        </linearGradient>
        <radialGradient id="paint21_radial_465_5662" cx="0" cy="0" r="1"
            gradientUnits="userSpaceOnUse"
            gradientTransform="translate(67.4029 567.149) scale(85.1903 85.3411)">
            <stop stop-color="#A48A7B" />
            <stop offset="1" stop-color="white" />
        </radialGradient>
        <radialGradient id="paint22_radial_465_5662" cx="0" cy="0" r="1"
            gradientUnits="userSpaceOnUse"
            gradientTransform="translate(561.16 65.2259) scale(48.6802 48.7663)">
            <stop stop-color="#A48A7B" />
            <stop offset="1" stop-color="white" />
        </radialGradient>
        <linearGradient id="paint23_linear_465_5662" x1="77.8344" y1="544.072" x2="90.586"
            y2="513.935" gradientUnits="userSpaceOnUse">
            <stop stop-color="#BF9F7E" />
            <stop offset="1" stop-color="#EDD6B9" />
        </linearGradient>
        <linearGradient id="paint24_linear_465_5662" x1="552.358" y1="64.6816" x2="531.567"
            y2="85.4359" gradientUnits="userSpaceOnUse">
            <stop stop-color="#BF9F7E" />
            <stop offset="1" stop-color="#EDD6B9" />
        </linearGradient>
        <radialGradient id="paint25_radial_465_5662" cx="0" cy="0" r="1"
            gradientUnits="userSpaceOnUse"
            gradientTransform="translate(53.2778 605.465) scale(143.65 143.904)">
            <stop />
            <stop offset="1" stop-color="#A3805F" />
        </radialGradient>
        <radialGradient id="paint26_radial_465_5662" cx="0" cy="0" r="1"
            gradientUnits="userSpaceOnUse"
            gradientTransform="translate(577.568 22.8819) scale(94.4265 94.5936)">
            <stop />
            <stop offset="1" stop-color="#A3805F" />
        </radialGradient>
        <radialGradient id="paint27_radial_465_5662" cx="0" cy="0" r="1"
            gradientUnits="userSpaceOnUse"
            gradientTransform="translate(302.111 305.574) scale(511.794 512.7)">
            <stop stop-color="#CA9E67" />
            <stop offset="1" />
        </radialGradient>
        <radialGradient id="paint28_radial_465_5662" cx="0" cy="0" r="1"
            gradientUnits="userSpaceOnUse"
            gradientTransform="translate(297.656 305.138) scale(420.193 420.936)">
            <stop stop-color="#CA9E67" />
            <stop offset="1" />
        </radialGradient>
        <linearGradient id="paint29_linear_465_5662" x1="194.736" y1="215.038" x2="241.313"
            y2="215.038" gradientUnits="userSpaceOnUse">
            <stop stop-color="#004BC9" />
            <stop offset="1" stop-color="#003380" />
        </linearGradient>
        <linearGradient id="paint30_linear_465_5662" x1="252.45" y1="316.314" x2="419.416"
            y2="126.428" gradientUnits="userSpaceOnUse">
            <stop stop-color="#062D70" />
            <stop offset="1" stop-color="#3484E8" />
        </linearGradient>
        <radialGradient id="paint31_radial_465_5662" cx="0" cy="0" r="1"
            gradientUnits="userSpaceOnUse"
            gradientTransform="translate(239.291 121.24) scale(368.689 369.234)">
            <stop stop-color="#2EA4FF" />
            <stop offset="1" stop-color="#2478F0" />
        </radialGradient>
        <radialGradient id="paint32_radial_465_5662" cx="0" cy="0" r="1"
            gradientUnits="userSpaceOnUse"
            gradientTransform="translate(287.637 185.504) scale(181.243 181.511)">
            <stop offset="0.34" stop-color="white" />
            <stop offset="1" stop-color="#BAC3EB" />
        </radialGradient>
        <radialGradient id="paint33_radial_465_5662" cx="0" cy="0" r="1"
            gradientUnits="userSpaceOnUse"
            gradientTransform="translate(514.955 133.409) scale(519.682 520.451)">
            <stop stop-color="#BAC3EB" />
            <stop offset="0.99" stop-color="white" />
        </radialGradient>
        <radialGradient id="paint34_radial_465_5662" cx="0" cy="0" r="1"
            gradientUnits="userSpaceOnUse"
            gradientTransform="translate(209.167 154.576) scale(197.824 198.116)">
            <stop stop-color="#0C3469" />
            <stop offset="1" />
        </radialGradient>
        <radialGradient id="paint35_radial_465_5662" cx="0" cy="0" r="1"
            gradientUnits="userSpaceOnUse"
            gradientTransform="translate(258.402 190.955) scale(263.638 264.028)">
            <stop stop-color="#0C3469" />
            <stop offset="1" />
        </radialGradient>
        <radialGradient id="paint36_radial_465_5662" cx="0" cy="0" r="1"
            gradientUnits="userSpaceOnUse"
            gradientTransform="translate(418.762 227.206) scale(240.856 241.212)">
            <stop stop-color="#0C3469" />
            <stop offset="1" />
        </radialGradient>
        <radialGradient id="paint37_radial_465_5662" cx="0" cy="0" r="1"
            gradientUnits="userSpaceOnUse"
            gradientTransform="translate(234.86 298.949) scale(238.325 238.677)">
            <stop stop-color="#0C3469" />
            <stop offset="1" />
        </radialGradient>
        <radialGradient id="paint38_radial_465_5662" cx="0" cy="0" r="1"
            gradientUnits="userSpaceOnUse"
            gradientTransform="translate(229.923 46.582) scale(376.282 376.839)">
            <stop stop-color="#00FFFA" />
            <stop offset="1" />
        </radialGradient>
        <radialGradient id="paint39_radial_465_5662" cx="0" cy="0" r="1"
            gradientUnits="userSpaceOnUse"
            gradientTransform="translate(307.326 230.285) scale(92.8999 93.0373)">
            <stop offset="0.85" stop-color="#6E757F" />
            <stop offset="0.88" stop-color="#727882" />
            <stop offset="0.9" stop-color="#7E848D" />
            <stop offset="0.93" stop-color="#92979E" />
            <stop offset="0.95" stop-color="#AEB2B7" />
            <stop offset="0.98" stop-color="#D2D4D7" />
            <stop offset="1" stop-color="white" />
        </radialGradient>
        <radialGradient id="paint40_radial_465_5662" cx="0" cy="0" r="1"
            gradientUnits="userSpaceOnUse"
            gradientTransform="translate(272.959 171.435) scale(168.334 168.582)">
            <stop stop-color="#B0FF6B" />
            <stop offset="0.93" stop-color="#08A319" />
        </radialGradient>
        <radialGradient id="paint41_radial_465_5662" cx="0" cy="0" r="1"
            gradientUnits="userSpaceOnUse"
            gradientTransform="translate(297.893 201.222) scale(139.476 139.683)">
            <stop offset="0.53" stop-color="#FFFF6B" />
            <stop offset="0.81" stop-color="#C3CA6B" />
            <stop offset="1" stop-color="#97A36B" />
        </radialGradient>
        <radialGradient id="paint42_radial_465_5662" cx="0" cy="0" r="1"
            gradientUnits="userSpaceOnUse"
            gradientTransform="translate(247.135 137.085) scale(155.803 156.034)">
            <stop stop-color="#62C706" />
            <stop offset="1" />
        </radialGradient>
        <radialGradient id="paint43_radial_465_5662" cx="0" cy="0" r="1"
            gradientUnits="userSpaceOnUse"
            gradientTransform="translate(266.699 131.696) rotate(7.13042) scale(158.718 158.946)">
            <stop stop-color="#D9FFF0" />
            <stop offset="1" />
        </radialGradient>
        <radialGradient id="paint44_radial_465_5662" cx="0" cy="0" r="1"
            gradientUnits="userSpaceOnUse"
            gradientTransform="translate(427.508 337.892) rotate(6.40938) scale(191.752 192.028)">
            <stop stop-color="#D9FFF0" />
            <stop offset="1" />
        </radialGradient>
        <linearGradient id="paint45_linear_465_5662" x1="307.257" y1="270.176" x2="307.257"
            y2="165.604" gradientUnits="userSpaceOnUse">
            <stop stop-color="white" />
            <stop offset="1" stop-color="#E6FFDE" />
        </linearGradient>
        <radialGradient id="paint46_radial_465_5662" cx="0" cy="0" r="1"
            gradientUnits="userSpaceOnUse"
            gradientTransform="translate(330.292 170.167) scale(120.998 121.177)">
            <stop stop-color="white" />
            <stop offset="1" />
        </radialGradient>
        <radialGradient id="paint47_radial_465_5662" cx="0" cy="0" r="1"
            gradientUnits="userSpaceOnUse"
            gradientTransform="translate(273.59 199.448) scale(47.7155 47.7861)">
            <stop stop-color="white" />
            <stop offset="1" />
        </radialGradient>
        <radialGradient id="paint48_radial_465_5662" cx="0" cy="0" r="1"
            gradientUnits="userSpaceOnUse"
            gradientTransform="translate(110.922 503.577) scale(725.209 725.26)">
            <stop stop-color="#2EA4FF" />
            <stop offset="1" stop-color="#2478F0" />
        </radialGradient>
        <radialGradient id="paint49_radial_465_5662" cx="0" cy="0" r="1"
            gradientUnits="userSpaceOnUse"
            gradientTransform="translate(124.36 -23.4041) scale(792.839 792.895)">
            <stop stop-color="#BAC3EB" />
            <stop offset="0.99" stop-color="white" />
        </radialGradient>
        <radialGradient id="paint50_radial_465_5662" cx="0" cy="0" r="1"
            gradientUnits="userSpaceOnUse"
            gradientTransform="translate(45.4957 680.045) scale(709.567 709.618)">
            <stop stop-color="#BAC3EB" />
            <stop offset="0.99" stop-color="white" />
        </radialGradient>
        <radialGradient id="paint51_radial_465_5662" cx="0" cy="0" r="1"
            gradientUnits="userSpaceOnUse"
            gradientTransform="translate(128.768 492.561) scale(647.666 647.711)">
            <stop stop-color="#0C3469" />
            <stop offset="1" />
        </radialGradient>
        <radialGradient id="paint52_radial_465_5662" cx="0" cy="0" r="1"
            gradientUnits="userSpaceOnUse"
            gradientTransform="translate(148.369 496.968) scale(826.764 826.822)">
            <stop stop-color="#0C3469" />
            <stop offset="1" />
        </radialGradient>
        <radialGradient id="paint53_radial_465_5662" cx="0" cy="0" r="1"
            gradientUnits="userSpaceOnUse"
            gradientTransform="translate(109.604 533.759) scale(1175.49 1175.57)">
            <stop stop-color="#0C3469" />
            <stop offset="1" />
        </radialGradient>
        <linearGradient id="paint54_linear_465_5662" x1="145.068" y1="514.372" x2="165.776"
            y2="514.372" gradientUnits="userSpaceOnUse">
            <stop offset="0.38" stop-color="#1055C9" />
            <stop offset="0.53" stop-color="#1882DC" />
            <stop offset="0.69" stop-color="#21AEEF" />
            <stop offset="0.82" stop-color="#26C9FA" />
            <stop offset="0.89" stop-color="#29D4FF" />
        </linearGradient>
        <radialGradient id="paint55_radial_465_5662" cx="0" cy="0" r="1"
            gradientUnits="userSpaceOnUse"
            gradientTransform="translate(407.436 508.424) scale(102.657 102.664)">
            <stop stop-color="#0C3469" />
            <stop offset="1" />
        </radialGradient>
        <linearGradient id="paint56_linear_465_5662" x1="114.886" y1="619.019" x2="488.064"
            y2="619.019" gradientUnits="userSpaceOnUse">
            <stop stop-color="#084B9E" />
            <stop offset="1" stop-color="#062D70" />
        </linearGradient>
        <linearGradient id="paint57_linear_465_5662" x1="495.559" y1="622.324" x2="495.559"
            y2="523.184" gradientUnits="userSpaceOnUse">
            <stop stop-color="#062D70" />
            <stop offset="1" stop-color="#3484E8" />
        </linearGradient>
        <linearGradient id="paint58_linear_465_5662" x1="304.344" y1="614.833" x2="304.344"
            y2="523.184" gradientUnits="userSpaceOnUse">
            <stop stop-color="#CAD0EB" />
            <stop offset="0.8" stop-color="#A5ADD1" />
            <stop offset="1" stop-color="#757887" />
        </linearGradient>
        <linearGradient id="paint59_linear_465_5662" x1="118.193" y1="563.942" x2="481.458"
            y2="563.942" gradientUnits="userSpaceOnUse">
            <stop stop-color="#062D70" />
            <stop offset="1" stop-color="#004294" />
        </linearGradient>
        <radialGradient id="paint60_radial_465_5662" cx="0" cy="0" r="1"
            gradientUnits="userSpaceOnUse"
            gradientTransform="translate(333.2 565.264) scale(478.479 478.513)">
            <stop stop-color="#00FFFA" />
            <stop offset="1" />
        </radialGradient>
        <radialGradient id="paint61_radial_465_5662" cx="0" cy="0" r="1"
            gradientUnits="userSpaceOnUse"
            gradientTransform="translate(179.877 474.276) scale(581.357 581.398)">
            <stop stop-color="#00FFFA" />
            <stop offset="1" />
        </radialGradient>
        <linearGradient id="paint62_linear_465_5662" x1="304.344" y1="610.207" x2="304.344"
            y2="527.811" gradientUnits="userSpaceOnUse">
            <stop stop-color="#FA642B" />
            <stop offset="1" stop-color="#FF9633" />
        </linearGradient>
        <radialGradient id="paint63_radial_465_5662" cx="0" cy="0" r="1"
            gradientUnits="userSpaceOnUse"
            gradientTransform="translate(195.958 205.718) scale(488.833 488.868)">
            <stop stop-color="#FF7B00" />
            <stop offset="1" stop-color="#471808" />
        </radialGradient>
        <radialGradient id="paint64_radial_465_5662" cx="0" cy="0" r="1"
            gradientUnits="userSpaceOnUse"
            gradientTransform="translate(143.532 529.353) scale(94.0658 94.0723)">
            <stop stop-color="#FFFBD9" />
            <stop offset="1" />
        </radialGradient>
        <radialGradient id="paint65_radial_465_5662" cx="0" cy="0" r="1"
            gradientUnits="userSpaceOnUse"
            gradientTransform="translate(287.604 -123.425) scale(921.051 921.115)">
            <stop offset="0.7" stop-color="white" />
            <stop offset="0.71" stop-color="#FBFAF9" />
            <stop offset="0.77" stop-color="#E6D9D5" />
            <stop offset="0.83" stop-color="#D4BFB8" />
            <stop offset="0.88" stop-color="#C8ACA4" />
            <stop offset="0.94" stop-color="#C1A198" />
            <stop offset="1" stop-color="#BF9E94" />
        </radialGradient>
        <radialGradient id="paint66_radial_465_5662" cx="0" cy="0" r="1"
            gradientUnits="userSpaceOnUse"
            gradientTransform="translate(497.1 608.885) scale(122.704 122.712)">
            <stop stop-color="#FFFBD9" />
            <stop offset="1" />
        </radialGradient>
    </defs>
</svg>