<svg width="34" height="41" viewBox="0 0 34 41" fill="none" xmlns="http://www.w3.org/2000/svg">
    <path fill-rule="evenodd" clip-rule="evenodd"
        d="M2.22729 41.0001L0.771484 39.5374L1.45657 21.2315C1.7563 13.466 1.7563 6.43194 2.22729 1.46289C6.65896 3.72155 12.7605 7.16331 19.2689 11.3795L32.2213 19.7688L33.6771 21.2315C23.3794 27.7278 12.0968 35.0846 2.22729 41.0001Z"
        fill="url(#paint0_linear_2749_84312)" />
    <path fill-rule="evenodd" clip-rule="evenodd"
        d="M17.8123 29.6207C11.2611 33.7723 5.20239 37.2786 0.770726 39.5373C0.299727 34.5682 0 27.5556 0 19.7686C0 11.9816 0.299727 4.96905 0.770726 0C5.20239 2.25866 11.2611 5.74344 17.8123 9.91658C23.4215 13.4874 28.4312 16.9292 32.2206 19.7686C28.4312 22.6081 23.4001 26.0714 17.8123 29.6207Z"
        fill="url(#paint1_radial_2749_84312)" />
    <g style="mix-blend-mode:multiply">
        <path
            d="M0.235575 31.2127C3.21143 30.847 6.08023 30.9976 9.05609 31.1697C10.833 31.2772 12.6314 31.5999 14.5154 31.6859C14.3441 31.7935 14.1942 31.8795 14.023 31.9871C12.3103 31.858 10.6618 31.6429 9.03468 31.5569C6.08023 31.3848 3.21143 31.5569 0.27839 32.0301C0.27839 31.7505 0.256984 31.4923 0.235575 31.2127ZM0.0642993 25.3402C5.56642 23.3612 12.3317 23.017 18.262 22.049C23.4001 21.2101 27.9388 20.0055 30.7648 18.6718C31.0217 18.8654 31.2786 19.0375 31.5356 19.2311C28.6239 20.6508 23.7641 21.4467 18.3262 22.3287C12.3103 23.3182 5.56642 24.4152 0.107118 26.5878C0.107118 26.1791 0.107118 25.7489 0.0857088 25.3187L0.0642993 25.3402ZM0.0214844 18.8439C3.42552 18.091 6.2301 16.4777 9.09891 14.8428C12.0319 13.165 15.0078 11.4441 18.7972 10.5191C19.0327 10.6697 19.2468 10.8203 19.4823 10.9493C15.7571 11.5731 12.2032 13.4446 9.27018 15.1225C6.29432 16.8218 3.59679 18.8654 0.0428939 19.7043C0.0428939 19.4247 0.0428939 19.1235 0.0428939 18.8439H0.0214844ZM0.107118 12.9068C0.877843 12.7132 1.69139 12.3906 2.48352 11.8313C3.83229 10.8848 5.5236 9.31449 7.72873 7.05583C8.45664 6.32446 9.05609 5.55006 9.76258 4.94775C9.99808 5.09833 10.255 5.24891 10.5119 5.37797C9.63413 5.95877 8.88481 6.81921 8.11409 7.55059C5.80192 9.7232 4.17483 11.1644 2.78324 12.1539C1.84125 12.8208 0.984888 13.2725 0.107118 13.5737C0.107118 13.3586 0.107118 13.1219 0.107118 12.9068Z"
            fill="#C0E5ED" />
    </g>
    <path style="mix-blend-mode:multiply" opacity="0.5" fill-rule="evenodd" clip-rule="evenodd"
        d="M1.28485 26.136C0.878074 26.2866 0.4713 26.4371 0.0859375 26.5877C0.128756 28.1795 0.171577 29.7283 0.235804 31.2126C0.514121 31.1696 0.813847 31.1481 1.09216 31.1266C3.76829 30.8899 6.35878 31.019 9.05632 31.1696C10.8333 31.2771 12.6316 31.5998 14.5156 31.6858C15.6075 31.019 16.6993 30.3306 17.8126 29.6208C23.4218 26.05 28.4315 22.6082 32.2209 19.7687C31.9854 19.5966 31.7285 19.403 31.493 19.231C28.5171 20.6507 23.6787 21.4466 18.2836 22.3285C12.6959 23.2535 6.50864 24.2645 1.26344 26.136H1.28485Z"
        fill="url(#paint2_radial_2749_84312)" />
    <path style="mix-blend-mode:screen" fill-rule="evenodd" clip-rule="evenodd"
        d="M0.0644531 13.9608C2.76199 12.6916 4.13217 11.2719 6.23025 9.42197C8.0072 7.87318 9.03483 6.64705 10.8546 5.63604C10.7261 5.54999 10.5977 5.48546 10.4692 5.39941C9.59146 5.98021 8.84215 6.84065 8.07143 7.57203C5.75925 9.74464 4.13216 11.1859 2.74058 12.1754C1.79858 12.8422 0.942223 13.294 0.0644531 13.5951C0.0644531 13.7242 0.0644531 13.8317 0.0644531 13.9608Z"
        fill="url(#paint3_radial_2749_84312)" />
    <path style="mix-blend-mode:screen" fill-rule="evenodd" clip-rule="evenodd"
        d="M15.436 12.2614C16.9346 11.7451 18.3262 11.487 19.8676 11.2288C19.7392 11.1428 19.5893 11.0567 19.4609 10.9707C15.7357 11.5945 12.1818 13.466 9.24877 15.1438C6.27292 16.8432 3.57538 18.8868 0.0214844 19.7257V20.0914C3.25425 19.2309 4.00356 18.5641 6.91518 16.7357C9.76258 14.9502 12.2674 13.4014 15.4574 12.2829L15.436 12.2614Z"
        fill="url(#paint4_radial_2749_84312)" />
    <path style="mix-blend-mode:screen" fill-rule="evenodd" clip-rule="evenodd"
        d="M0.0858626 27.2542C3.81103 25.7269 6.5728 24.8665 10.5549 23.963C15.4575 22.8445 20.3602 22.2852 25.3271 21.0806C23.1862 21.5323 20.7884 21.9195 18.2835 22.3282C12.2676 23.3177 5.52375 24.4148 0.0644531 26.5874C0.0644531 26.8025 0.0644531 27.0391 0.0644531 27.2542H0.0858626Z"
        fill="url(#paint5_radial_2749_84312)" />
    <path style="mix-blend-mode:screen" fill-rule="evenodd" clip-rule="evenodd"
        d="M3.83196 31.6211C7.32163 31.6211 10.2761 31.7287 13.4874 32.3095C13.6587 32.2019 13.83 32.0943 14.0012 31.9868C12.2885 31.8577 10.64 31.6426 9.01294 31.5566C7.2574 31.449 5.54468 31.492 3.81055 31.6211H3.83196Z"
        fill="url(#paint6_radial_2749_84312)" />
    <path style="mix-blend-mode:screen" fill-rule="evenodd" clip-rule="evenodd"
        d="M1.39158 1.29066C10.4476 5.82949 18.8613 10.6695 27.2965 16.2193C24.4491 14.2403 21.2377 12.0892 17.8123 9.91658C11.2611 5.76495 5.20239 2.25866 0.770726 0C0.299727 4.96905 0 11.9816 0 19.7686C0 21.0593 4.90492e-07 22.3499 0.0214095 23.5976C0.321136 15.9612 0.599452 8.88405 1.39158 1.29066Z"
        fill="url(#paint7_radial_2749_84312)" />
    <defs>
        <linearGradient id="paint0_linear_2749_84312" x1="0.771484" y1="21.2315" x2="33.6985"
            y2="21.2315" gradientUnits="userSpaceOnUse">
            <stop stop-color="#062D70" />
            <stop offset="1" stop-color="#034494" />
        </linearGradient>
        <radialGradient id="paint1_radial_2749_84312" cx="0" cy="0" r="1"
            gradientUnits="userSpaceOnUse"
            gradientTransform="translate(-2.22654 1.33368) scale(92.6154 93.0567)">
            <stop stop-color="#2EA4FF" />
            <stop offset="1" stop-color="#2478F0" />
        </radialGradient>
        <radialGradient id="paint2_radial_2749_84312" cx="0" cy="0" r="1"
            gradientUnits="userSpaceOnUse"
            gradientTransform="translate(30.3155 -8.26012) scale(65.1262 65.4365)">
            <stop stop-color="#BAC3EB" />
            <stop offset="0.99" stop-color="white" />
        </radialGradient>
        <radialGradient id="paint3_radial_2749_84312" cx="0" cy="0" r="1"
            gradientUnits="userSpaceOnUse"
            gradientTransform="translate(8.60665 5.85114) scale(42.3256 42.5273)">
            <stop stop-color="#0C3469" />
            <stop offset="1" />
        </radialGradient>
        <radialGradient id="paint4_radial_2749_84312" cx="0" cy="0" r="1"
            gradientUnits="userSpaceOnUse"
            gradientTransform="translate(17.7267 10.3039) scale(52.4521 52.702)">
            <stop stop-color="#0C3469" />
            <stop offset="1" />
        </radialGradient>
        <radialGradient id="paint5_radial_2749_84312" cx="0" cy="0" r="1"
            gradientUnits="userSpaceOnUse"
            gradientTransform="translate(2.48367 26.4153) scale(51.296 51.5404)">
            <stop stop-color="#0C3469" />
            <stop offset="1" />
        </radialGradient>
        <radialGradient id="paint6_radial_2749_84312" cx="0" cy="0" r="1"
            gradientUnits="userSpaceOnUse"
            gradientTransform="translate(14.6863 32.3095) scale(40.5059 40.6989)">
            <stop stop-color="#0C3469" />
            <stop offset="1" />
        </radialGradient>
        <radialGradient id="paint7_radial_2749_84312" cx="0" cy="0" r="1"
            gradientUnits="userSpaceOnUse"
            gradientTransform="translate(-3.55389 -1.05404) scale(69.3438 69.6742)">
            <stop stop-color="#00FFFA" />
            <stop offset="1" />
        </radialGradient>
    </defs>
</svg>