<svg width="328" height="176" viewBox="0 0 328 176" fill="none" xmlns="http://www.w3.org/2000/svg">
<rect width="328" height="176" rx="12" fill="url(#paint0_linear_649_28183)"/>
<mask id="mask0_649_28183" style="mask-type:alpha" maskUnits="userSpaceOnUse" x="1" y="0" width="327" height="176">
<rect x="1" width="327" height="176" rx="12" fill="#FEFEFE"/>
</mask>
<g mask="url(#mask0_649_28183)">
<g opacity="0.06">
<rect x="22" y="62" width="44" height="44" rx="6" transform="rotate(-90 22 62)" fill="#0B8DFF"/>
<rect x="-28" y="62" width="44" height="44" rx="6" transform="rotate(-90 -28 62)" fill="#0B8DFF"/>
<rect x="22" y="12" width="44" height="44" rx="6" transform="rotate(-90 22 12)" fill="#0B8DFF"/>
</g>
<rect opacity="0.2" x="295.881" y="186.5" width="34.88" height="34.88" rx="8" transform="rotate(-180 295.881 186.5)" fill="#54AFFF"/>
<rect opacity="0.2" x="337.5" y="144.88" width="34.88" height="34.88" rx="8" transform="rotate(-180 337.5 144.88)" fill="#54AFFF"/>
<rect opacity="0.2" x="337.5" y="186.5" width="34.88" height="34.88" rx="8" transform="rotate(-180 337.5 186.5)" fill="#54AFFF"/>
</g>
<defs>
<linearGradient id="paint0_linear_649_28183" x1="116" y1="176" x2="116" y2="0" gradientUnits="userSpaceOnUse">
<stop stop-color="#D5EBFF"/>
<stop offset="1" stop-color="#E7F4FF"/>
</linearGradient>
</defs>
</svg>
