<svg width="28" height="30" viewBox="0 0 28 30" fill="none" xmlns="http://www.w3.org/2000/svg">
<path d="M4.08332 5.84242L6.64061 6.59765C8.28691 7.08383 10.0047 6.09205 10.4068 4.42322L11.0322 1.82783C11.9879 1.61324 12.982 1.5 14.0025 1.5C15.0231 1.5 16.0171 1.61324 16.9729 1.82783L17.5982 4.42322C18.0003 6.09205 19.7181 7.08384 21.3644 6.59765L23.9217 5.84242C25.2653 7.29703 26.293 9.04781 26.8957 10.9858L24.9601 12.8256C23.7159 14.0082 23.7159 15.9918 24.9601 17.1744L26.8957 19.0142C26.293 20.9522 25.2653 22.703 23.9217 24.1576L21.3644 23.4024C19.7181 22.9162 18.0003 23.9079 17.5982 25.5768L16.9729 28.1722C16.0171 28.3868 15.0231 28.5 14.0025 28.5C12.982 28.5 11.9879 28.3868 11.0322 28.1722L10.4068 25.5768C10.0047 23.9079 8.28692 22.9162 6.64061 23.4024L4.08333 24.1576C2.73974 22.703 1.7121 20.9522 1.10938 19.0142L3.04492 17.1744C4.28912 15.9918 4.28912 14.0082 3.04492 12.8256L1.10938 10.9858C1.7121 9.04781 2.73974 7.29703 4.08332 5.84242Z" stroke="#FFFFFF" stroke-width="2" stroke-linejoin="round"/>
<path d="M18.5025 15C18.5025 17.4853 16.4878 19.5 14.0025 19.5C11.5172 19.5 9.50253 17.4853 9.50253 15C9.50253 12.5147 11.5172 10.5 14.0025 10.5C16.4878 10.5 18.5025 12.5147 18.5025 15Z" stroke="#FFFFFF" stroke-width="2" stroke-linejoin="round"/>
</svg>
