<svg width="180" height="152" viewBox="0 0 180 152" fill="none" xmlns="http://www.w3.org/2000/svg">
<path d="M0 60C0 26.8629 26.8629 0 60 0H120C153.137 0 180 26.8629 180 60V88.3053C180 120.729 154.241 147.287 121.832 148.277L61.8325 150.111C27.9932 151.145 0 123.994 0 90.1387V60Z" fill="#E7F4FF"/>
<path d="M31.715 40.0076C32.6475 28.5135 42.6897 20.5 54.2215 20.5H125.777C137.308 20.5 147.351 28.5135 148.283 40.0076C149.171 50.9574 149.132 64.6567 145.499 76C139.078 96.0485 117.57 116.078 103.292 127.65C95.4709 133.988 84.5273 133.988 76.7066 127.65C62.4282 116.078 40.9203 96.0485 34.4991 76C30.866 64.6567 30.8267 50.9574 31.715 40.0076Z" fill="url(#paint0_linear_1904_59629)"/>
<path d="M114.668 57.5L83.8346 88.3333L68.418 72.9167" stroke="#FEFEFE" stroke-width="12" stroke-linecap="round" stroke-linejoin="round"/>
<path d="M148.893 81.8214C148.893 72.9454 141.697 65.75 132.821 65.75C123.945 65.75 116.75 72.9454 116.75 81.8214C116.75 90.6974 123.945 97.8929 132.821 97.8929C137.259 97.8929 141.277 96.094 144.186 93.1856C147.094 90.2773 148.893 86.2594 148.893 81.8214Z" fill="#E7F4FF"/>
<path d="M159.25 108.25L144.186 93.1856M144.186 93.1856C141.277 96.094 137.259 97.8929 132.821 97.8929C123.945 97.8929 116.75 90.6974 116.75 81.8214C116.75 72.9454 123.945 65.75 132.821 65.75C141.697 65.75 148.893 72.9454 148.893 81.8214C148.893 86.2594 147.094 90.2773 144.186 93.1856Z" stroke="#EFAC21" stroke-width="8" stroke-linecap="round" stroke-linejoin="round"/>
<defs>
<linearGradient id="paint0_linear_1904_59629" x1="89.9991" y1="20.5" x2="89.9991" y2="132.403" gradientUnits="userSpaceOnUse">
<stop stop-color="#0074D9"/>
<stop offset="1" stop-color="#54AFFF"/>
</linearGradient>
</defs>
</svg>
