<svg width="37" height="37" viewBox="0 0 37 37" fill="none" xmlns="http://www.w3.org/2000/svg">
<path d="M36.9961 18.8818C36.9961 23.5814 35.187 27.8667 32.2359 31.0705C28.9512 34.6382 24.2314 36.8818 18.9961 36.8818C13.7608 36.8818 9.04102 34.6382 5.75635 31.0705C2.8052 27.8667 0.996094 23.5916 0.996094 18.8818C0.996094 8.93686 9.05112 0.881836 18.9961 0.881836C28.9411 0.881836 36.9961 8.93686 36.9961 18.8818Z" fill="white"/>
<path d="M27.481 24.0147C28.297 24.8307 28.9833 25.752 29.5267 26.7468C31.1153 29.6549 28.3094 32.5 24.9957 32.5H12.9957C9.68202 32.5 6.87616 29.6549 8.46478 26.7468C9.00819 25.752 9.6945 24.8307 10.5105 24.0147C12.7609 21.7643 15.8131 20.5 18.9957 20.5C14.8536 20.5 11.4957 17.1421 11.4957 13C11.4957 8.85786 14.8536 5.5 18.9957 5.5C23.1379 5.5 26.4957 8.85786 26.4957 13C26.4957 17.1421 23.1379 20.5 18.9957 20.5C22.1783 20.5 25.2306 21.7643 27.481 24.0147Z" fill="#54AFFF"/>
<g clip-path="url(#clip0_1384_49017)">
<path d="M27.074 3.67285C27.6057 3.21973 28.3878 3.21973 28.9195 3.67285L29.8239 4.44359C30.0518 4.63777 30.3351 4.75512 30.6335 4.77893L31.818 4.87346C32.5144 4.92903 33.0674 5.48202 33.123 6.17842L33.2175 7.36293C33.2413 7.66135 33.3586 7.94466 33.5528 8.17251L34.3236 9.07693C34.7767 9.60865 34.7767 10.3907 34.3236 10.9224L33.5528 11.8268C33.3586 12.0547 33.2413 12.338 33.2175 12.6364L33.123 13.8209C33.0674 14.5173 32.5144 15.0703 31.818 15.1259L30.6335 15.2204C30.3351 15.2442 30.0518 15.3616 29.8239 15.5558L28.9195 16.3265C28.3878 16.7796 27.6057 16.7796 27.074 16.3265L26.1696 15.5558C25.9417 15.3616 25.6584 15.2442 25.36 15.2204L24.1755 15.1259C23.4791 15.0703 22.9261 14.5173 22.8705 13.8209L22.776 12.6364C22.7522 12.338 22.6348 12.0547 22.4407 11.8268L21.6699 10.9224C21.2168 10.3907 21.2168 9.60865 21.6699 9.07693L22.4407 8.17251C22.6348 7.94466 22.7522 7.66135 22.776 7.36293L22.8705 6.17842C22.9261 5.48202 23.4791 4.92903 24.1755 4.87346L25.36 4.77893C25.6584 4.75512 25.9417 4.63777 26.1696 4.44359L27.074 3.67285Z" fill="#EFAC21" stroke="#EFAC21" stroke-width="1.5" stroke-linecap="round" stroke-linejoin="round"/>
<path d="M30.9961 8L27.3294 11.3337L25.4961 9.5" stroke="#FEF9EF" stroke-width="2" stroke-linecap="round" stroke-linejoin="round"/>
</g>
<defs>
<clipPath id="clip0_1384_49017">
<rect width="16" height="16" fill="white" transform="translate(19.9961 2)"/>
</clipPath>
</defs>
</svg>
