<svg width="180" height="152" viewBox="0 0 180 152" fill="none" xmlns="http://www.w3.org/2000/svg">
<path d="M0 60C0 26.8629 26.8629 0 60 0H120C153.137 0 180 26.8629 180 60V88.3053C180 120.729 154.241 147.287 121.832 148.277L61.8325 150.111C27.9932 151.145 0 123.994 0 90.1387V60Z" fill="#E7F4FF"/>
<path fill-rule="evenodd" clip-rule="evenodd" d="M40.8297 29.1956H40.7727C40.3574 29.275 39.946 29.3679 39.5393 29.474C28.4829 32.2054 25.25 42.2022 25.25 48.2495V55.2109C25.155 55.9665 25.1063 56.731 25.1055 57.5006V113.001C25.1108 117.905 27.0616 122.608 30.5299 126.076C33.9982 129.544 38.7006 131.495 43.6055 131.501H136.105C141.01 131.495 145.713 129.544 149.181 126.076C152.649 122.608 154.6 117.905 154.605 113.001V57.5006C154.6 52.5957 152.649 47.8933 149.181 44.425C145.713 40.9567 141.01 39.0059 136.105 39.0006H62.3654C62.3275 38.9998 62.289 38.9995 62.25 38.9995C57.3582 38.9995 56.8203 33.0734 60.9681 32.0631H136.105C137.186 32.0626 138.265 32.1311 139.337 32.2683C138.974 29.7181 138.098 27.2679 136.762 25.0654C135.426 22.8629 133.658 20.9537 131.565 19.453C129.471 17.9523 127.095 16.8911 124.58 16.3334C122.065 15.7757 119.464 15.733 116.932 16.208L43.9319 28.671C42.9061 28.8274 41.8685 29.0016 40.8297 29.1956ZM117.236 92.9417C118.757 93.9581 120.546 94.5006 122.375 94.5006C124.828 94.5006 127.181 93.526 128.916 91.7913C130.65 90.0566 131.625 87.7038 131.625 85.2506C131.625 83.4211 131.082 81.6327 130.066 80.1115C129.05 78.5904 127.605 77.4048 125.915 76.7047C124.225 76.0046 122.365 75.8214 120.57 76.1783C118.776 76.5352 117.128 77.4162 115.834 78.7098C114.541 80.0035 113.66 81.6517 113.303 83.446C112.946 85.2403 113.129 87.1002 113.829 88.7904C114.529 90.4806 115.715 91.9253 117.236 92.9417Z" fill="url(#paint0_linear_2869_78059)"/>
<defs>
<linearGradient id="paint0_linear_2869_78059" x1="89.8555" y1="15.8809" x2="89.8555" y2="131.501" gradientUnits="userSpaceOnUse">
<stop stop-color="#4D85ED"/>
<stop offset="1" stop-color="#2167E9"/>
</linearGradient>
</defs>
</svg>
