<svg width="80" height="80" viewBox="0 0 80 80" fill="none" xmlns="http://www.w3.org/2000/svg">
<circle cx="40" cy="40" r="40" fill="url(#paint0_linear_1904_59620)"/>
<path fill-rule="evenodd" clip-rule="evenodd" d="M49.1639 43.898C48.6662 43.6489 46.2196 42.4454 45.7634 42.2794C45.3072 42.1134 44.9755 42.0304 44.6438 42.5284C44.312 43.0265 43.3583 44.147 43.068 44.479C42.7777 44.811 42.4875 44.8526 41.9898 44.6035C41.4922 44.3546 39.8887 43.8292 37.988 42.1343C36.5086 40.8152 35.5099 39.186 35.2195 38.6879C34.9293 38.1899 35.1886 37.9207 35.4378 37.6726C35.6616 37.4498 35.9354 37.0917 36.1842 36.8011C36.433 36.5106 36.516 36.3031 36.6819 35.9711C36.8477 35.6391 36.7648 35.3486 36.6403 35.0995C36.516 34.8505 35.5208 32.4019 35.1061 31.4058C34.7022 30.4358 34.2919 30.567 33.9864 30.5518C33.6964 30.5374 33.3644 30.5343 33.0326 30.5343C32.7008 30.5343 32.1618 30.6589 31.7055 31.1568C31.2494 31.6548 29.9639 32.8585 29.9639 35.307C29.9639 37.7557 31.7471 40.1213 31.9959 40.4533C32.2447 40.7854 35.505 45.8103 40.497 47.9652C41.6843 48.4777 42.6113 48.7838 43.3339 49.0132C44.5261 49.3917 45.611 49.3383 46.4684 49.2102C47.4245 49.0674 49.4127 48.0067 49.8274 46.8446C50.242 45.6826 50.242 44.6865 50.1176 44.479C49.9933 44.2715 49.6615 44.147 49.1639 43.898ZM40.0833 56.292H40.0766C37.1062 56.2908 34.1928 55.4932 31.6513 53.9854L31.0468 53.6267L24.7816 55.2697L26.4539 49.1631L26.0602 48.5371C24.4032 45.9023 23.5281 42.857 23.5293 39.7302C23.5329 30.606 30.9589 23.1829 40.0899 23.1829C44.5113 23.1846 48.6676 24.9082 51.793 28.036C54.9184 31.164 56.6386 35.3218 56.6369 39.7435C56.6332 48.8684 49.2073 56.292 40.0833 56.292ZM54.1721 25.6594C50.4119 21.896 45.4113 19.8224 40.0835 19.8203C29.1059 19.8203 20.1714 28.7514 20.167 39.729C20.1656 43.2381 21.0826 46.6635 22.8255 49.6827L20 60L30.558 57.2315C33.467 58.8176 36.7422 59.6534 40.0755 59.6548H40.0837H40.0838C51.0603 59.6548 59.9955 50.7227 60 39.7449C60.002 34.425 57.9324 29.4226 54.1721 25.6594Z" fill="white"/>
<defs>
<linearGradient id="paint0_linear_1904_59620" x1="40" y1="0" x2="40" y2="80" gradientUnits="userSpaceOnUse">
<stop stop-color="#46E863"/>
<stop offset="1" stop-color="#25CF43"/>
</linearGradient>
</defs>
</svg>
