<svg width="24" height="24" viewBox="0 0 24 24" fill="none" xmlns="http://www.w3.org/2000/svg">
<path fill-rule="evenodd" clip-rule="evenodd" d="M2 9C2 6.23858 4.23858 4 7 4H17C19.7614 4 22 6.23858 22 9V15C22 17.7614 19.7614 20 17 20H13C12.4477 20 12 19.5523 12 19C12 18.4477 12.4477 18 13 18H17C18.6569 18 20 16.6569 20 15V9C20 7.34315 18.6569 6 17 6H7C5.34315 6 4 7.34315 4 9C4 9.55228 3.55228 10 3 10C2.44772 10 2 9.55228 2 9ZM2 13C2 12.4477 2.44772 12 3 12C3.91925 12 4.8295 12.1811 5.67878 12.5328C6.52806 12.8846 7.29974 13.4002 7.94975 14.0503C8.59976 14.7003 9.11537 15.4719 9.46716 16.3212C9.81894 17.1705 10 18.0807 10 19C10 19.5523 9.55228 20 9 20C8.44771 20 8 19.5523 8 19C8 18.3434 7.87067 17.6932 7.6194 17.0866C7.36813 16.48 6.99983 15.9288 6.53553 15.4645C6.07124 15.0002 5.52004 14.6319 4.91342 14.3806C4.30679 14.1293 3.65661 14 3 14C2.44772 14 2 13.5523 2 13ZM2 16C2 15.4477 2.44772 15 3 15C3.52529 15 4.04543 15.1035 4.53073 15.3045C5.01604 15.5055 5.45699 15.8001 5.82843 16.1716C6.19986 16.543 6.4945 16.984 6.69552 17.4693C6.89654 17.9546 7 18.4747 7 19C7 19.5523 6.55229 20 6 20C5.44772 20 5 19.5523 5 19C5 18.7374 4.94827 18.4773 4.84776 18.2346C4.74725 17.992 4.59993 17.7715 4.41421 17.5858C4.2285 17.4001 4.00802 17.2528 3.76537 17.1522C3.52272 17.0517 3.26265 17 3 17C2.44772 17 2 16.5523 2 16Z" fill="currentColor"/>
</svg>
