<svg width="24" height="24" viewBox="0 0 24 24" fill="none" xmlns="http://www.w3.org/2000/svg">
<path fill-rule="evenodd" clip-rule="evenodd" d="M10.1144 5.81585C11.4436 5.15946 13 6.12667 13 7.60911V16.3909C13 17.8733 11.4436 18.8405 10.1144 18.1841L6.36654 16.3333H4C2.89543 16.3333 2 15.4379 2 14.3333V9.66666C2 8.56209 2.89543 7.66667 4 7.66667H6.36654L10.1144 5.81585ZM11 7.60911L7.2521 9.45993C6.97671 9.59592 6.67369 9.66667 6.36654 9.66667L4 9.66666V14.3333H6.36654C6.67369 14.3333 6.97671 14.4041 7.2521 14.5401L11 16.3909V7.60911ZM16.0251 9.02513C16.4156 8.6346 17.0488 8.6346 17.4393 9.02513L18.5 10.0858L19.5606 9.02513C19.9512 8.6346 20.5843 8.6346 20.9748 9.02513C21.3654 9.41565 21.3654 10.0488 20.9748 10.4393L19.9142 11.5L20.9748 12.5607C21.3654 12.9512 21.3654 13.5843 20.9748 13.9749C20.5843 14.3654 19.9512 14.3654 19.5606 13.9749L18.5 12.9142L17.4393 13.9749C17.0488 14.3654 16.4156 14.3654 16.0251 13.9749C15.6346 13.5843 15.6346 12.9512 16.0251 12.5607L17.0858 11.5L16.0251 10.4393C15.6346 10.0488 15.6346 9.41565 16.0251 9.02513Z" fill="currentColor"/>
</svg>
