<svg width="24" height="24" viewBox="0 0 24 24" fill="none" xmlns="http://www.w3.org/2000/svg">
<path fill-rule="evenodd" clip-rule="evenodd" d="M7.56497 2.29289C7.75251 2.10536 8.00686 2 8.27208 2L15.7279 2C15.9931 2 16.2475 2.10536 16.435 2.29289L21.7071 7.56497C21.8946 7.75251 22 8.00686 22 8.27208V15.7279C22 15.9931 21.8946 16.2475 21.7071 16.435L16.435 21.7071C16.2475 21.8946 15.9931 22 15.7279 22H8.27208C8.00686 22 7.75251 21.8946 7.56497 21.7071L2.29289 16.435C2.10536 16.2475 2 15.9931 2 15.7279L2 8.27208C2 8.00686 2.10536 7.75251 2.29289 7.56497L7.56497 2.29289ZM8.68629 4L4 8.68629L4 15.3137L8.68629 20H15.3137L20 15.3137V8.68629L15.3137 4L8.68629 4Z" fill="currentColor"/>
</svg>
