<svg width="24" height="24" viewBox="0 0 24 24" fill="none" xmlns="http://www.w3.org/2000/svg">
<path fill-rule="evenodd" clip-rule="evenodd" d="M12 4C7.58172 4 4 7.58172 4 12C4 16.4183 7.58172 20 12 20C16.4183 20 20 16.4183 20 12C20 7.58172 16.4183 4 12 4ZM2 12C2 6.47715 6.47715 2 12 2C17.5228 2 22 6.47715 22 12C22 17.5228 17.5228 22 12 22C6.47715 22 2 17.5228 2 12ZM9.17153 9.17156C9.56205 8.78104 10.1952 8.78104 10.5857 9.17156L12 10.5858L13.4142 9.17157C13.8047 8.78105 14.4379 8.78105 14.8284 9.17157C15.219 9.5621 15.219 10.1953 14.8284 10.5858L13.4142 12L14.8284 13.4142C15.2189 13.8047 15.2189 14.4379 14.8284 14.8284C14.4379 15.2189 13.8047 15.2189 13.4142 14.8284L12 13.4142L10.5858 14.8284C10.1953 15.219 9.5621 15.219 9.17157 14.8284C8.78105 14.4379 8.78105 13.8047 9.17157 13.4142L10.5858 12L9.17153 10.5858C8.78101 10.1952 8.78101 9.56208 9.17153 9.17156Z" fill="currentColor"/>
</svg>
