<svg width="24" height="24" viewBox="0 0 24 24" fill="none" xmlns="http://www.w3.org/2000/svg">
<path fill-rule="evenodd" clip-rule="evenodd" d="M5.38268 2.07615C5.75636 2.23093 6 2.59557 6 3.00003V8.00003H7C7.55228 8.00003 8 8.44774 8 9.00003C8 9.55231 7.55228 10 7 10H3C2.44771 10 2 9.55231 2 9.00003C2 8.44774 2.44771 8.00003 3 8.00003H4V5.41424L3.7071 5.70714C3.31658 6.09766 2.68342 6.09766 2.29289 5.70714C1.90237 5.31661 1.90237 4.68345 2.29289 4.29292L4.29289 2.29292C4.57889 2.00692 5.00901 1.92137 5.38268 2.07615ZM10 6.00003C10 5.44774 10.4477 5.00003 11 5.00003H21C21.5523 5.00003 22 5.44774 22 6.00003C22 6.55231 21.5523 7.00003 21 7.00003H11C10.4477 7.00003 10 6.55231 10 6.00003ZM10 12C10 11.4477 10.4477 11 11 11H21C21.5523 11 22 11.4477 22 12C22 12.5523 21.5523 13 21 13H11C10.4477 13 10 12.5523 10 12ZM5.13052 15.0086C4.9894 14.99 4.84593 15.0018 4.70971 15.0431C4.5735 15.0844 4.44767 15.1543 4.34065 15.2482C4.23363 15.342 4.14788 15.4577 4.08913 15.5873C4.03039 15.717 4 15.8577 4 16C4 16.5523 3.55228 17 3 17C2.44771 17 2 16.5523 2 16C2 15.573 2.09117 15.1509 2.26741 14.7619C2.44365 14.3729 2.7009 14.0261 3.02196 13.7445C3.34302 13.4629 3.7205 13.2532 4.12914 13.1292C4.53779 13.0052 4.9682 12.97 5.39158 13.0257C5.81496 13.0814 6.22156 13.2269 6.5842 13.4524C6.94684 13.6779 7.25716 13.9783 7.49441 14.3333C7.73166 14.6884 7.89037 15.09 7.95993 15.5113C8.13951 16.599 7.42799 17.4141 6.95793 17.8304L5.63732 19H7C7.55228 19 8 19.4477 8 20C8 20.5523 7.55228 21 7 21H3C2.58449 21 2.21227 20.7431 2.06496 20.3546C1.91764 19.9661 2.02593 19.5269 2.33698 19.2514L5.63189 16.3332C5.78656 16.1962 5.88987 16.0697 5.94503 15.9681C5.99403 15.8779 5.98761 15.8425 5.9867 15.8375C5.96352 15.697 5.91055 15.5628 5.83147 15.4445C5.75238 15.3261 5.64895 15.226 5.52807 15.1508C5.40719 15.0757 5.27165 15.0272 5.13052 15.0086ZM10 18C10 17.4477 10.4477 17 11 17H21C21.5523 17 22 17.4477 22 18C22 18.5523 21.5523 19 21 19H11C10.4477 19 10 18.5523 10 18Z" fill="currentColor"/>
</svg>
