<svg width="24" height="24" viewBox="0 0 24 24" fill="none" xmlns="http://www.w3.org/2000/svg">
<path fill-rule="evenodd" clip-rule="evenodd" d="M3 6C3 5.44772 3.44772 5 4 5H5C5.55228 5 6 5.44772 6 6C6 6.55228 5.55228 7 5 7H4C3.44772 7 3 6.55228 3 6ZM8 6C8 5.44772 8.44772 5 9 5H20C20.5523 5 21 5.44772 21 6C21 6.55228 20.5523 7 20 7H9C8.44772 7 8 6.55228 8 6ZM3 12C3 11.4477 3.44772 11 4 11H5C5.55228 11 6 11.4477 6 12C6 12.5523 5.55228 13 5 13H4C3.44772 13 3 12.5523 3 12ZM8 12C8 11.4477 8.44772 11 9 11H20C20.5523 11 21 11.4477 21 12C21 12.5523 20.5523 13 20 13H9C8.44772 13 8 12.5523 8 12ZM3 18C3 17.4477 3.44772 17 4 17H5C5.55228 17 6 17.4477 6 18C6 18.5523 5.55228 19 5 19H4C3.44772 19 3 18.5523 3 18ZM8 18C8 17.4477 8.44772 17 9 17H20C20.5523 17 21 17.4477 21 18C21 18.5523 20.5523 19 20 19H9C8.44772 19 8 18.5523 8 18Z" fill="currentColor"/>
</svg>
