<svg width="24" height="24" viewBox="0 0 24 24" fill="none" xmlns="http://www.w3.org/2000/svg">
<path fill-rule="evenodd" clip-rule="evenodd" d="M6.29289 4.29289C6.68342 3.90237 7.31658 3.90237 7.70711 4.29289C8.09763 4.68342 8.09763 5.31658 7.70711 5.70711L5.70711 7.70711C5.31658 8.09763 4.68342 8.09763 4.29289 7.70711L3.29289 6.70711C2.90237 6.31658 2.90237 5.68342 3.29289 5.29289C3.68342 4.90237 4.31658 4.90237 4.70711 5.29289L5 5.58579L6.29289 4.29289ZM9 6C9 5.44772 9.44772 5 10 5H20C20.5523 5 21 5.44772 21 6C21 6.55228 20.5523 7 20 7H10C9.44772 7 9 6.55228 9 6ZM6.29289 10.2929C6.68342 9.90237 7.31658 9.90237 7.70711 10.2929C8.09763 10.6834 8.09763 11.3166 7.70711 11.7071L5.70711 13.7071C5.31658 14.0976 4.68342 14.0976 4.29289 13.7071L3.29289 12.7071C2.90237 12.3166 2.90237 11.6834 3.29289 11.2929C3.68342 10.9024 4.31658 10.9024 4.70711 11.2929L5 11.5858L6.29289 10.2929ZM9 12C9 11.4477 9.44772 11 10 11H20C20.5523 11 21 11.4477 21 12C21 12.5523 20.5523 13 20 13H10C9.44772 13 9 12.5523 9 12ZM7.70711 16.2929C8.09763 16.6834 8.09763 17.3166 7.70711 17.7071L5.70711 19.7071C5.51957 19.8946 5.26522 20 5 20C4.73478 20 4.48043 19.8946 4.29289 19.7071L3.29289 18.7071C2.90237 18.3166 2.90237 17.6834 3.29289 17.2929C3.68342 16.9024 4.31658 16.9024 4.70711 17.2929L5 17.5858L6.29289 16.2929C6.68342 15.9024 7.31658 15.9024 7.70711 16.2929ZM9 18C9 17.4477 9.44772 17 10 17H20C20.5523 17 21 17.4477 21 18C21 18.5523 20.5523 19 20 19H10C9.44772 19 9 18.5523 9 18Z" fill="currentColor"/>
</svg>
