<svg width="24" height="24" viewBox="0 0 24 24" fill="none" xmlns="http://www.w3.org/2000/svg">
<path fill-rule="evenodd" clip-rule="evenodd" d="M12 5C12 3.34315 13.3431 2 15 2H19C20.6569 2 22 3.34315 22 5V19C22 20.6569 20.6569 22 19 22H15C13.3431 22 12 20.6569 12 19V5ZM15 4C14.4477 4 14 4.44772 14 5V19C14 19.5523 14.4477 20 15 20H19C19.5523 20 20 19.5523 20 19V5C20 4.44772 19.5523 4 19 4H15ZM2 9C2 7.34315 3.34315 6 5 6H10C10.5523 6 11 6.44772 11 7C11 7.55228 10.5523 8 10 8H5C4.44772 8 4 8.44772 4 9V15C4 15.5523 4.44772 16 5 16H10C10.5523 16 11 16.4477 11 17C11 17.5523 10.5523 18 10 18H5C3.34315 18 2 16.6569 2 15V9ZM17 6C17.5523 6 18 6.44772 18 7V17C18 17.5523 17.5523 18 17 18C16.4477 18 16 17.5523 16 17V7C16 6.44772 16.4477 6 17 6ZM2 21C2 20.4477 2.44772 20 3 20H10C10.5523 20 11 20.4477 11 21C11 21.5523 10.5523 22 10 22H3C2.44772 22 2 21.5523 2 21Z" fill="currentColor"/>
</svg>
