<svg width="24" height="24" viewBox="0 0 24 24" fill="none" xmlns="http://www.w3.org/2000/svg">
<path fill-rule="evenodd" clip-rule="evenodd" d="M6 4C4.89543 4 4 4.89543 4 6V18C4 19.1046 4.89543 20 6 20L6 15C6 13.3431 7.34315 12 9 12H15C16.6569 12 18 13.3431 18 15V20C19.1046 20 20 19.1046 20 18V7.91421L16.0858 4H6ZM18 22C20.2091 22 22 20.2091 22 18V7.5C22 7.23478 21.8946 6.98043 21.7071 6.79289L17.2071 2.29289C17.0196 2.10536 16.7652 2 16.5 2H6C3.79086 2 2 3.79086 2 6V18C2 20.2091 3.79086 22 6 22H18ZM16 20V15C16 14.4477 15.5523 14 15 14H9C8.44772 14 8 14.4477 8 15V20H16ZM8 8C8 7.44772 8.44772 7 9 7H15C15.5523 7 16 7.44772 16 8C16 8.55228 15.5523 9 15 9H9C8.44772 9 8 8.55228 8 8Z" fill="currentColor"/>
</svg>
