<svg width="24" height="24" viewBox="0 0 24 24" fill="none" xmlns="http://www.w3.org/2000/svg">
<path fill-rule="evenodd" clip-rule="evenodd" d="M18.2929 2.29289C18.6834 1.90237 19.3166 1.90237 19.7071 2.29289L21.7071 4.29289C22.0976 4.68342 22.0976 5.31658 21.7071 5.70711C21.3166 6.09763 20.6834 6.09763 20.2929 5.70711L18.2929 3.70711C17.9024 3.31658 17.9024 2.68342 18.2929 2.29289ZM13.7929 2.79289C14.1834 2.40237 14.8166 2.40237 15.2071 2.79289L21.2071 8.79289C21.5976 9.18342 21.5976 9.81658 21.2071 10.2071C20.8166 10.5976 20.1834 10.5976 19.7929 10.2071L13.7929 4.20711C13.4024 3.81658 13.4024 3.18342 13.7929 2.79289Z" fill="currentColor"/>
</svg>
