<svg width="24" height="24" viewBox="0 0 24 24" fill="none" xmlns="http://www.w3.org/2000/svg">
<path fill-rule="evenodd" clip-rule="evenodd" d="M2.79289 13.7929C3.18342 13.4024 3.81658 13.4024 4.20711 13.7929L10.2071 19.7929C10.5976 20.1834 10.5976 20.8166 10.2071 21.2071C9.81658 21.5976 9.18342 21.5976 8.79289 21.2071L2.79289 15.2071C2.40237 14.8166 2.40237 14.1834 2.79289 13.7929ZM2.29289 18.2929C2.68342 17.9024 3.31658 17.9024 3.70711 18.2929L5.70711 20.2929C6.09763 20.6834 6.09763 21.3166 5.70711 21.7071C5.31658 22.0976 4.68342 22.0976 4.29289 21.7071L2.29289 19.7071C1.90237 19.3166 1.90237 18.6834 2.29289 18.2929Z" fill="currentColor"/>
</svg>
