<svg width="24" height="24" viewBox="0 0 24 24" fill="none" xmlns="http://www.w3.org/2000/svg">
<path fill-rule="evenodd" clip-rule="evenodd" d="M17.6569 6.34315C14.5327 3.21895 9.46734 3.21895 6.34315 6.34315C3.21895 9.46734 3.21895 14.5327 6.34315 17.6569C9.46734 20.781 14.5327 20.781 17.6569 17.6569C20.781 14.5327 20.781 9.46734 17.6569 6.34315ZM4.92893 4.92893C8.83418 1.02369 15.1658 1.02369 19.0711 4.92893C22.9763 8.83418 22.9763 15.1658 19.0711 19.0711C15.1658 22.9763 8.83418 22.9763 4.92893 19.0711C1.02369 15.1658 1.02369 8.83418 4.92893 4.92893ZM9.17157 9.17157C9.5621 8.78105 10.1953 8.78105 10.5858 9.17157L13.1213 11.7071V9.87868C13.1213 9.3264 13.569 8.87868 14.1213 8.87868C14.6736 8.87868 15.1213 9.3264 15.1213 9.87868V14.1213C15.1213 14.3865 15.016 14.6409 14.8284 14.8284C14.6409 15.016 14.3865 15.1213 14.1213 15.1213L9.87868 15.1213C9.32639 15.1213 8.87868 14.6736 8.87868 14.1213C8.87868 13.569 9.3264 13.1213 9.87868 13.1213H11.7071L9.17157 10.5858C8.78105 10.1953 8.78105 9.5621 9.17157 9.17157Z" fill="currentColor"/>
</svg>
