<svg width="24" height="24" viewBox="0 0 24 24" fill="none" xmlns="http://www.w3.org/2000/svg">
<path fill-rule="evenodd" clip-rule="evenodd" d="M7.75737 7.75737C8.1479 7.36685 8.78106 7.36685 9.17158 7.75737L14.5355 13.1213V9.87869C14.5355 9.32641 14.9833 8.87869 15.5355 8.87869C16.0878 8.87869 16.5355 9.32641 16.5355 9.87869V15.5355C16.5355 15.8008 16.4302 16.0551 16.2427 16.2427C16.0551 16.4302 15.8008 16.5355 15.5355 16.5355H9.87869C9.32641 16.5355 8.87869 16.0878 8.87869 15.5355C8.87869 14.9833 9.32641 14.5355 9.87869 14.5355L13.1213 14.5355L7.75737 9.17158C7.36685 8.78106 7.36685 8.14789 7.75737 7.75737Z" fill="currentColor"/>
</svg>
