<svg width="24" height="24" viewBox="0 0 24 24" fill="none" xmlns="http://www.w3.org/2000/svg">
<path fill-rule="evenodd" clip-rule="evenodd" d="M2 7C2 4.23858 4.23858 2 7 2H17C19.7614 2 22 4.23858 22 7V17C22 19.7614 19.7614 22 17 22H7C4.23858 22 2 19.7614 2 17V7ZM7 4C5.34315 4 4 5.34315 4 7V17C4 18.6569 5.34315 20 7 20H17C18.6569 20 20 18.6569 20 17V7C20 5.34315 18.6569 4 17 4H7ZM9.87868 10.8787C9.3264 10.8787 8.87868 10.431 8.87868 9.87868C8.87868 9.32639 9.3264 8.87868 9.87868 8.87868H14.1213C14.6736 8.87868 15.1213 9.32639 15.1213 9.87868V14.1213C15.1213 14.6736 14.6736 15.1213 14.1213 15.1213C13.569 15.1213 13.1213 14.6736 13.1213 14.1213V12.2929L10.5858 14.8284C10.1953 15.219 9.5621 15.219 9.17157 14.8284C8.78105 14.4379 8.78105 13.8047 9.17157 13.4142L11.7071 10.8787H9.87868Z" fill="currentColor"/>
</svg>
