<svg width="24" height="24" viewBox="0 0 24 24" fill="none" xmlns="http://www.w3.org/2000/svg">
<path fill-rule="evenodd" clip-rule="evenodd" d="M2 7C2 4.23858 4.23858 2 7 2H17C19.7614 2 22 4.23858 22 7V17C22 19.7614 19.7614 22 17 22H7C4.23858 22 2 19.7614 2 17V7ZM7 4C5.34315 4 4 5.34315 4 7V17C4 18.6569 5.34315 20 7 20H17C18.6569 20 20 18.6569 20 17V7C20 5.34315 18.6569 4 17 4H7ZM9.5 9.25736L13.7426 9.25736C14.0079 9.25736 14.2622 9.36272 14.4497 9.55025C14.6373 9.73779 14.7426 9.99214 14.7426 10.2574V14.5C14.7426 15.0523 14.2949 15.5 13.7426 15.5C13.1904 15.5 12.7426 15.0523 12.7426 14.5V11.2574L9.5 11.2574C8.94772 11.2574 8.5 10.8096 8.5 10.2574C8.5 9.70507 8.94772 9.25736 9.5 9.25736Z" fill="currentColor"/>
</svg>
