<svg width="24" height="24" viewBox="0 0 24 24" fill="none" xmlns="http://www.w3.org/2000/svg">
<path fill-rule="evenodd" clip-rule="evenodd" d="M12 4C7.58172 4 4 7.58172 4 12C4 16.4183 7.58172 20 12 20C16.4183 20 20 16.4183 20 12C20 7.58172 16.4183 4 12 4ZM2 12C2 6.47715 6.47715 2 12 2C17.5228 2 22 6.47715 22 12C22 17.5228 17.5228 22 12 22C6.47715 22 2 17.5228 2 12ZM9.5 9.25736L13.7426 9.25736C14.0079 9.25736 14.2622 9.36272 14.4497 9.55025C14.6373 9.73779 14.7426 9.99214 14.7426 10.2574V14.5C14.7426 15.0523 14.2949 15.5 13.7426 15.5C13.1904 15.5 12.7426 15.0523 12.7426 14.5V11.2574H9.5C8.94772 11.2574 8.5 10.8096 8.5 10.2574C8.5 9.70508 8.94772 9.25736 9.5 9.25736Z" fill="currentColor"/>
</svg>
