<svg width="24" height="24" viewBox="0 0 24 24" fill="none" xmlns="http://www.w3.org/2000/svg">
<path fill-rule="evenodd" clip-rule="evenodd" d="M2 7C2 4.23858 4.23858 2 7 2H17C19.7614 2 22 4.23858 22 7V17C22 19.7614 19.7614 22 17 22H7C4.23858 22 2 19.7614 2 17V7ZM7 4C5.34315 4 4 5.34315 4 7V17C4 18.6569 5.34315 20 7 20H17C18.6569 20 20 18.6569 20 17V7C20 5.34315 18.6569 4 17 4H7ZM10.2929 8.29289C10.6834 7.90237 11.3166 7.90237 11.7071 8.29289L14.7071 11.2929C15.0976 11.6834 15.0976 12.3166 14.7071 12.7071L11.7071 15.7071C11.3166 16.0976 10.6834 16.0976 10.2929 15.7071C9.90237 15.3166 9.90237 14.6834 10.2929 14.2929L12.5858 12L10.2929 9.70711C9.90237 9.31658 9.90237 8.68342 10.2929 8.29289Z" fill="currentColor"/>
</svg>
