<svg width="24" height="24" viewBox="0 0 24 24" fill="none" xmlns="http://www.w3.org/2000/svg">
<path fill-rule="evenodd" clip-rule="evenodd" d="M12 4C7.58172 4 4 7.58172 4 12C4 16.4183 7.58172 20 12 20C16.4183 20 20 16.4183 20 12C20 7.58172 16.4183 4 12 4ZM2 12C2 6.47715 6.47715 2 12 2C17.5228 2 22 6.47715 22 12C22 17.5228 17.5228 22 12 22C6.47715 22 2 17.5228 2 12ZM9.55025 9.55025C9.73779 9.36272 9.99214 9.25736 10.2574 9.25736L14.5 9.25736C15.0523 9.25736 15.5 9.70508 15.5 10.2574C15.5 10.8096 15.0523 11.2574 14.5 11.2574H11.2574V14.5C11.2574 15.0523 10.8096 15.5 10.2574 15.5C9.70508 15.5 9.25736 15.0523 9.25736 14.5V10.2574C9.25736 9.99214 9.36272 9.73779 9.55025 9.55025Z" fill="currentColor"/>
</svg>
