<svg width="24" height="24" viewBox="0 0 24 24" fill="none" xmlns="http://www.w3.org/2000/svg">
<path fill-rule="evenodd" clip-rule="evenodd" d="M6.29289 2.29289C6.68342 1.90237 7.31658 1.90237 7.70711 2.29289L11.7071 6.29289C12.0976 6.68342 12.0976 7.31658 11.7071 7.70711C11.3166 8.09763 10.6834 8.09763 10.2929 7.70711L8 5.41421L8 21C8 21.5523 7.55228 22 7 22C6.44771 22 6 21.5523 6 21L6 5.41421L3.70711 7.70711C3.31658 8.09763 2.68342 8.09763 2.29289 7.70711C1.90237 7.31658 1.90237 6.68342 2.29289 6.29289L6.29289 2.29289ZM17 2C17.5523 2 18 2.44772 18 3L18 18.5858L20.2929 16.2929C20.6834 15.9024 21.3166 15.9024 21.7071 16.2929C22.0976 16.6834 22.0976 17.3166 21.7071 17.7071L17.7071 21.7071C17.3166 22.0976 16.6834 22.0976 16.2929 21.7071L12.2929 17.7071C11.9024 17.3166 11.9024 16.6834 12.2929 16.2929C12.6834 15.9024 13.3166 15.9024 13.7071 16.2929L16 18.5858L16 3C16 2.44772 16.4477 2 17 2Z" fill="currentColor"/>
</svg>
