<svg width="24" height="24" viewBox="0 0 24 24" fill="none" xmlns="http://www.w3.org/2000/svg">
<path fill-rule="evenodd" clip-rule="evenodd" d="M2 12C2 6.47715 6.47715 2 12 2C17.5228 2 22 6.47715 22 12C22 17.5228 17.5228 22 12 22C6.47715 22 2 17.5228 2 12ZM12 4C7.58172 4 4 7.58172 4 12C4 16.4183 7.58172 20 12 20C16.4183 20 20 16.4183 20 12C20 7.58172 16.4183 4 12 4ZM6.79289 8.29289C7.18342 7.90237 7.81658 7.90237 8.20711 8.29289L11.2071 11.2929C11.5976 11.6834 11.5976 12.3166 11.2071 12.7071L8.20711 15.7071C7.81658 16.0976 7.18342 16.0976 6.79289 15.7071C6.40237 15.3166 6.40237 14.6834 6.79289 14.2929L9.08579 12L6.79289 9.70711C6.40237 9.31658 6.40237 8.68342 6.79289 8.29289ZM17.2071 8.29289C17.5976 8.68342 17.5976 9.31658 17.2071 9.70711L14.9142 12L17.2071 14.2929C17.5976 14.6834 17.5976 15.3166 17.2071 15.7071C16.8166 16.0976 16.1834 16.0976 15.7929 15.7071L12.7929 12.7071C12.4024 12.3166 12.4024 11.6834 12.7929 11.2929L15.7929 8.29289C16.1834 7.90237 16.8166 7.90237 17.2071 8.29289Z" fill="currentColor"/>
</svg>
