<svg width="24" height="24" viewBox="0 0 24 24" fill="none" xmlns="http://www.w3.org/2000/svg">
<path fill-rule="evenodd" clip-rule="evenodd" d="M16.7573 4C16.2051 4 15.7573 3.55228 15.7573 3C15.7573 2.44772 16.2051 2 16.7573 2H21C21.2652 2 21.5196 2.10536 21.7071 2.2929C21.8946 2.48043 22 2.73479 22 3.00001L22 7.24265C22 7.79493 21.5523 8.24264 21 8.24264C20.4477 8.24264 20 7.79492 20 7.24264L20 5.41423L14.7071 10.7071C14.3166 11.0976 13.6834 11.0976 13.2929 10.7071C12.9024 10.3166 12.9024 9.68342 13.2929 9.29289L18.5858 4H16.7573ZM10.7071 13.2929C11.0976 13.6834 11.0976 14.3166 10.7071 14.7071L5.41421 20H7.24265C7.79493 20 8.24265 20.4477 8.24265 21C8.24265 21.5523 7.79493 22 7.24265 22H3C2.73478 22 2.48043 21.8946 2.29289 21.7071C2.10536 21.5196 2 21.2652 2 21L2.00001 16.7574C2.00001 16.2051 2.44773 15.7574 3.00001 15.7574C3.55229 15.7574 4.00001 16.2051 4.00001 16.7574L4 18.5858L9.29289 13.2929C9.68342 12.9024 10.3166 12.9024 10.7071 13.2929Z" fill="currentColor"/>
</svg>
