<svg width="24" height="24" viewBox="0 0 24 24" fill="none" xmlns="http://www.w3.org/2000/svg">
<path fill-rule="evenodd" clip-rule="evenodd" d="M21.7071 2.29289C22.0976 2.68342 22.0976 3.31658 21.7071 3.70711L16.4142 9.00001L18.2426 9.00002C18.7949 9.00002 19.2426 9.44774 19.2426 10C19.2426 10.5523 18.7949 11 18.2426 11L14 11C13.4477 11 13 10.5523 13 10L13 5.75738C13 5.2051 13.4477 4.75738 14 4.75738C14.5523 4.75738 15 5.20509 15 5.75738L15 7.58579L20.2929 2.29289C20.6834 1.90237 21.3166 1.90237 21.7071 2.29289ZM5.75736 13L9.99999 13C10.2652 13 10.5196 13.1054 10.7071 13.2929C10.8946 13.4804 11 13.7348 11 14L11 18.2427C11 18.795 10.5523 19.2427 10 19.2427C9.44772 19.2427 9 18.795 9 18.2427L9 16.4142L3.70711 21.7071C3.31658 22.0976 2.68342 22.0976 2.29289 21.7071C1.90237 21.3166 1.90237 20.6834 2.29289 20.2929L7.58577 15L5.75737 15C5.20509 15 4.75737 14.5523 4.75736 14C4.75736 13.4478 5.20507 13 5.75736 13Z" fill="currentColor"/>
</svg>
