<svg width="24" height="24" viewBox="0 0 24 24" fill="none" xmlns="http://www.w3.org/2000/svg">
<path fill-rule="evenodd" clip-rule="evenodd" d="M9.4285 4.42456C11.1811 3.82963 13.0858 3.86079 14.818 4.51275C15.7202 4.8523 16.7496 5.52528 17.6385 6.26492C17.7608 6.36666 17.8825 6.47136 18.0027 6.57849V5C18.0027 4.44772 18.4504 4 19.0027 4C19.5549 4 20.0027 4.44772 20.0027 5V9.24264C20.0027 9.79493 19.5549 10.2426 19.0027 10.2426H14.76C14.2077 10.2426 13.76 9.79493 13.76 9.24264C13.76 8.69036 14.2077 8.24264 14.76 8.24264H16.8597C16.7011 8.09487 16.5336 7.94737 16.3593 7.80234C15.5612 7.13823 14.727 6.61548 14.1135 6.38456C12.8144 5.8956 11.3858 5.87222 10.0714 6.31842C8.75691 6.76462 7.63783 7.65279 6.9048 8.83159C6.17177 10.0104 5.87016 11.4069 6.05135 12.7832C6.23253 14.1594 6.88531 15.4303 7.89846 16.3792C8.91161 17.3281 10.2224 17.8964 11.6076 17.9872C12.9928 18.0779 14.3665 17.6856 15.4949 16.8771C16.6232 16.0685 17.4363 14.8937 17.7956 13.5529C17.9385 13.0194 18.4868 12.7029 19.0203 12.8458C19.5538 12.9888 19.8704 13.5371 19.7274 14.0706C19.2484 15.8583 18.1643 17.4247 16.6598 18.5028C15.1554 19.5808 13.3237 20.1039 11.4768 19.9829C9.62991 19.8618 7.88214 19.1041 6.53128 17.8389C5.18041 16.5737 4.31004 14.8792 4.06846 13.0442C3.82687 11.2092 4.22903 9.3472 5.2064 7.77546C6.18377 6.20372 7.67588 5.01949 9.4285 4.42456Z" fill="currentColor"/>
</svg>
