<svg width="24" height="24" viewBox="0 0 24 24" fill="none" xmlns="http://www.w3.org/2000/svg">
<path fill-rule="evenodd" clip-rule="evenodd" d="M2 7C2 4.23858 4.23858 2 7 2H17C19.7614 2 22 4.23858 22 7V17C22 19.7614 19.7614 22 17 22H7C4.23858 22 2 19.7614 2 17V7ZM7 4C5.34315 4 4 5.34315 4 7V17C4 18.6569 5.34315 20 7 20H17C18.6569 20 20 18.6569 20 17V7C20 5.34315 18.6569 4 17 4H7ZM13.0607 5.6967C13.6129 5.6967 14.0607 6.14441 14.0607 6.6967V9.93934H17.3033C17.8556 9.93934 18.3033 10.3871 18.3033 10.9393C18.3033 11.4916 17.8556 11.9393 17.3033 11.9393H13.0607C12.5084 11.9393 12.0607 11.4916 12.0607 10.9393V6.6967C12.0607 6.14441 12.5084 5.6967 13.0607 5.6967ZM5.6967 13.0607C5.6967 12.5084 6.14441 12.0607 6.6967 12.0607H10.9393C11.4916 12.0607 11.9393 12.5084 11.9393 13.0607V17.3033C11.9393 17.8556 11.4916 18.3033 10.9393 18.3033C10.3871 18.3033 9.93934 17.8556 9.93934 17.3033V14.0607H6.6967C6.14441 14.0607 5.6967 13.6129 5.6967 13.0607Z" fill="currentColor"/>
</svg>
