<svg width="24" height="24" viewBox="0 0 24 24" fill="none" xmlns="http://www.w3.org/2000/svg">
<path fill-rule="evenodd" clip-rule="evenodd" d="M12 4C7.58172 4 4 7.58172 4 12C4 16.4183 7.58172 20 12 20C16.4183 20 20 16.4183 20 12C20 7.58172 16.4183 4 12 4ZM2 12C2 6.47715 6.47715 2 12 2C17.5228 2 22 6.47715 22 12C22 17.5228 17.5228 22 12 22C6.47715 22 2 17.5228 2 12ZM13.0607 5.6967C13.6129 5.6967 14.0607 6.14442 14.0607 6.6967V9.93934H17.3033C17.8556 9.93934 18.3033 10.3871 18.3033 10.9393C18.3033 11.4916 17.8556 11.9393 17.3033 11.9393H13.0607C12.5084 11.9393 12.0607 11.4916 12.0607 10.9393V6.6967C12.0607 6.14442 12.5084 5.6967 13.0607 5.6967ZM5.6967 13.0607C5.6967 12.5084 6.14442 12.0607 6.6967 12.0607H10.9393C11.4916 12.0607 11.9393 12.5084 11.9393 13.0607V17.3033C11.9393 17.8556 11.4916 18.3033 10.9393 18.3033C10.3871 18.3033 9.93934 17.8556 9.93934 17.3033V14.0607H6.6967C6.14442 14.0607 5.6967 13.6129 5.6967 13.0607Z" fill="currentColor"/>
</svg>
