<svg width="24" height="24" viewBox="0 0 24 24" fill="none" xmlns="http://www.w3.org/2000/svg">
<path fill-rule="evenodd" clip-rule="evenodd" d="M5.29289 7.29289C5.68342 6.90237 6.31658 6.90237 6.70711 7.29289L10.7071 11.2929C10.8946 11.4804 11 11.7348 11 12C11 12.2652 10.8946 12.5196 10.7071 12.7071L6.70711 16.7071C6.31658 17.0976 5.68342 17.0976 5.29289 16.7071C4.90237 16.3166 4.90237 15.6834 5.29289 15.2929L8.58579 12L5.29289 8.70711C4.90237 8.31658 4.90237 7.68342 5.29289 7.29289ZM18.7071 7.29289C19.0976 7.68342 19.0976 8.31658 18.7071 8.70711L15.4142 12L18.7071 15.2929C19.0976 15.6834 19.0976 16.3166 18.7071 16.7071C18.3166 17.0976 17.6834 17.0976 17.2929 16.7071L13.2929 12.7071C12.9024 12.3166 12.9024 11.6834 13.2929 11.2929L17.2929 7.29289C17.6834 6.90237 18.3166 6.90237 18.7071 7.29289Z" fill="currentColor"/>
</svg>
