<svg width="24" height="24" viewBox="0 0 24 24" fill="none" xmlns="http://www.w3.org/2000/svg">
<path fill-rule="evenodd" clip-rule="evenodd" d="M2 7C2 4.23858 4.23858 2 7 2H17C19.7614 2 22 4.23858 22 7V17C22 19.7614 19.7614 22 17 22H7C4.23858 22 2 19.7614 2 17V7ZM7 4C5.34315 4 4 5.34315 4 7V17C4 18.6569 5.34315 20 7 20H17C18.6569 20 20 18.6569 20 17V7C20 5.34315 18.6569 4 17 4H7ZM8.29289 6.79289C8.68342 6.40237 9.31658 6.40237 9.70711 6.79289L12 9.08579L14.2929 6.79289C14.6834 6.40237 15.3166 6.40237 15.7071 6.79289C16.0976 7.18342 16.0976 7.81658 15.7071 8.20711L12.7071 11.2071C12.3166 11.5976 11.6834 11.5976 11.2929 11.2071L8.29289 8.20711C7.90237 7.81658 7.90237 7.18342 8.29289 6.79289ZM8.29289 15.7929L11.2929 12.7929C11.6834 12.4024 12.3166 12.4024 12.7071 12.7929L15.7071 15.7929C16.0976 16.1834 16.0976 16.8166 15.7071 17.2071C15.3166 17.5976 14.6834 17.5976 14.2929 17.2071L12 14.9142L9.70711 17.2071C9.31658 17.5976 8.68342 17.5976 8.29289 17.2071C7.90237 16.8166 7.90237 16.1834 8.29289 15.7929Z" fill="currentColor"/>
</svg>
