<svg width="24" height="24" viewBox="0 0 24 24" fill="none" xmlns="http://www.w3.org/2000/svg">
<path fill-rule="evenodd" clip-rule="evenodd" d="M12 4C7.58172 4 4 7.58172 4 12C4 16.4183 7.58172 20 12 20C16.4183 20 20 16.4183 20 12C20 7.58172 16.4183 4 12 4ZM2 12C2 6.47715 6.47715 2 12 2C17.5228 2 22 6.47715 22 12C22 17.5228 17.5228 22 12 22C6.47715 22 2 17.5228 2 12ZM8.29289 6.79289C8.68342 6.40237 9.31658 6.40237 9.70711 6.79289L12 9.08579L14.2929 6.79289C14.6834 6.40237 15.3166 6.40237 15.7071 6.79289C16.0976 7.18342 16.0976 7.81658 15.7071 8.20711L12.7071 11.2071C12.5196 11.3946 12.2652 11.5 12 11.5C11.7348 11.5 11.4804 11.3946 11.2929 11.2071L8.29289 8.20711C7.90237 7.81658 7.90237 7.18342 8.29289 6.79289ZM12 12.5C12.2652 12.5 12.5196 12.6054 12.7071 12.7929L15.7071 15.7929C16.0976 16.1834 16.0976 16.8166 15.7071 17.2071C15.3166 17.5976 14.6834 17.5976 14.2929 17.2071L12 14.9142L9.70711 17.2071C9.31658 17.5976 8.68342 17.5976 8.29289 17.2071C7.90237 16.8166 7.90237 16.1834 8.29289 15.7929L11.2929 12.7929C11.4804 12.6054 11.7348 12.5 12 12.5Z" fill="currentColor"/>
</svg>
