<svg width="24" height="24" viewBox="0 0 24 24" fill="none" xmlns="http://www.w3.org/2000/svg">
<path fill-rule="evenodd" clip-rule="evenodd" d="M9 4C7.34315 4 6 5.34315 6 7V17C6 18.6569 7.34315 20 9 20H15C16.6569 20 18 18.6569 18 17V10H15C13.3431 10 12 8.65685 12 7V4H9ZM14 5.41421L16.5858 8H15C14.4477 8 14 7.55228 14 7V5.41421ZM4 7C4 4.23858 6.23858 2 9 2H13C13.2652 2 13.5196 2.10536 13.7071 2.29289L19.7071 8.29289C19.8946 8.48043 20 8.73478 20 9V17C20 19.7614 17.7614 22 15 22H9C6.23858 22 4 19.7614 4 17V7ZM9.29289 13.2929L11.2929 11.2929C11.6834 10.9024 12.3166 10.9024 12.7071 11.2929L14.7071 13.2929C15.0976 13.6834 15.0976 14.3166 14.7071 14.7071C14.3166 15.0976 13.6834 15.0976 13.2929 14.7071L13 14.4142V17C13 17.5523 12.5523 18 12 18C11.4477 18 11 17.5523 11 17L11 14.4142L10.7071 14.7071C10.3166 15.0976 9.68342 15.0976 9.29289 14.7071C8.90237 14.3166 8.90237 13.6834 9.29289 13.2929Z" fill="currentColor"/>
</svg>
