<svg width="24" height="24" viewBox="0 0 24 24" fill="none" xmlns="http://www.w3.org/2000/svg">
<path fill-rule="evenodd" clip-rule="evenodd" d="M9 4C7.34315 4 6 5.34315 6 7V17C6 18.6569 7.34315 20 9 20H15C16.6569 20 18 18.6569 18 17V10H15C13.3431 10 12 8.65685 12 7V4H9ZM14 5.41421L16.5858 8H15C14.4477 8 14 7.55228 14 7V5.41421ZM4 7C4 4.23858 6.23858 2 9 2H13C13.2652 2 13.5196 2.10536 13.7071 2.29289L19.7071 8.29289C19.8946 8.48043 20 8.73478 20 9V17C20 19.7614 17.7614 22 15 22H9C6.23858 22 4 19.7614 4 17V7ZM9.52513 11.5251C9.91566 11.1345 10.5488 11.1345 10.9393 11.5251L12 12.5857L13.0607 11.5251C13.4512 11.1345 14.0844 11.1345 14.4749 11.5251C14.8654 11.9156 14.8654 12.5488 14.4749 12.9393L13.4142 13.9999L14.4749 15.0606C14.8654 15.4511 14.8654 16.0843 14.4749 16.4748C14.0844 16.8653 13.4512 16.8653 13.0607 16.4748L12 15.4142L10.9393 16.4748C10.5488 16.8653 9.91566 16.8653 9.52513 16.4748C9.13461 16.0843 9.13461 15.4511 9.52513 15.0606L10.5858 13.9999L9.52513 12.9393C9.13461 12.5488 9.13461 11.9156 9.52513 11.5251Z" fill="currentColor"/>
</svg>
