<svg width="24" height="24" viewBox="0 0 24 24" fill="none" xmlns="http://www.w3.org/2000/svg">
<path fill-rule="evenodd" clip-rule="evenodd" d="M2 6C2 4.34315 3.34315 3 5 3H8.92963C9.93269 3 10.8694 3.5013 11.4258 4.3359L12.2383 5.5547C12.4238 5.8329 12.736 6 13.0704 6H17C19.7614 6 22 8.23858 22 11V16C22 18.7614 19.7614 21 17 21H11C10.4477 21 10 20.5523 10 20C10 19.4477 10.4477 19 11 19H17C18.6569 19 20 17.6569 20 16V11C20 9.34315 18.6569 8 17 8H13.0704C12.0673 8 11.1306 7.4987 10.5742 6.6641L9.76168 5.4453C9.57622 5.1671 9.26399 5 8.92963 5H5C4.44772 5 4 5.44772 4 6V12C4 12.5523 3.55228 13 3 13C2.44772 13 2 12.5523 2 12V6ZM8.18422 10.6189C9.00943 9.7937 10.3473 9.7937 11.1725 10.6189L12.3811 11.8275C13.2063 12.6527 13.2063 13.9906 12.3811 14.8158L6.48977 20.7071C6.30223 20.8946 6.04788 21 5.78266 21H3C2.44772 21 2 20.5523 2 20V17.2173C2 16.9521 2.10536 16.6978 2.29289 16.5102L8.18422 10.6189ZM9.75833 12.0331C9.71418 11.989 9.64259 11.989 9.59844 12.0331L8.423 13.2085L9.79145 14.577L10.9669 13.4016C11.011 13.3574 11.011 13.2858 10.9669 13.2417L9.75833 12.0331ZM8.37724 15.9912L7.00879 14.6228L4 17.6316V19H5.36845L8.37724 15.9912Z" fill="currentColor"/>
</svg>
