<svg width="24" height="24" viewBox="0 0 24 24" fill="none" xmlns="http://www.w3.org/2000/svg">
<path fill-rule="evenodd" clip-rule="evenodd" d="M7.90909 4C7.55764 4 7.27273 4.28491 7.27273 4.63636V6.90909H7.85152C8.73299 6.90909 9.55615 7.34963 10.0451 8.08306L10.7099 9.08026C10.8279 9.2573 11.0266 9.36364 11.2394 9.36364H14.4545C16.8143 9.36364 18.7273 11.2766 18.7273 13.6364V14.8597C19.4811 14.4897 20 13.7145 20 12.8182V8.72727C20 7.47208 18.9825 6.45455 17.7273 6.45455H14.5121C13.6306 6.45455 12.8075 6.01401 12.3185 5.28057L11.6537 4.28337C11.5357 4.10634 11.337 4 11.1242 4H7.90909ZM18.7273 16.9732C20.6046 16.5231 22 14.8336 22 12.8182V8.72727C22 6.36751 20.087 4.45455 17.7273 4.45455H14.5121C14.2993 4.45455 14.1007 4.34821 13.9826 4.17117L13.3178 3.17397C12.8289 2.44054 12.0057 2 11.1242 2H7.90909C6.45307 2 5.27273 3.18034 5.27273 4.63636V6.90909H4.63636C3.18034 6.90909 2 8.08943 2 9.54545V17.7273C2 20.087 3.91297 22 6.27273 22H14.4545C16.8143 22 18.7273 20.087 18.7273 17.7273V16.9732ZM16.7273 13.6364C16.7273 12.3812 15.7097 11.3636 14.4545 11.3636H11.2394C10.3579 11.3636 9.53476 10.9231 9.0458 10.1897L8.381 9.19246C8.26298 9.01543 8.06429 8.90909 7.85152 8.90909H4.63636C4.28491 8.90909 4 9.194 4 9.54545V17.7273C4 18.9825 5.01753 20 6.27273 20H14.4545C15.7097 20 16.7273 18.9825 16.7273 17.7273V13.6364Z" fill="currentColor"/>
</svg>
