<svg width="24" height="24" viewBox="0 0 24 24" fill="none" xmlns="http://www.w3.org/2000/svg">
<path fill-rule="evenodd" clip-rule="evenodd" d="M5 5C4.44772 5 4 5.44772 4 6V16C4 17.6569 5.34315 19 7 19H17C18.6569 19 20 17.6569 20 16V11C20 9.34315 18.6569 8 17 8H13.0704C12.0673 8 11.1306 7.4987 10.5742 6.6641L9.76168 5.4453C9.57622 5.1671 9.26399 5 8.92963 5H5ZM2 6C2 4.34315 3.34315 3 5 3H8.92963C9.93269 3 10.8694 3.5013 11.4258 4.3359L12.2383 5.5547C12.4238 5.8329 12.736 6 13.0704 6H17C19.7614 6 22 8.23858 22 11V16C22 18.7614 19.7614 21 17 21H7C4.23858 21 2 18.7614 2 16V6ZM9.52513 11.0251C9.91566 10.6346 10.5488 10.6346 10.9393 11.0251L12 12.0858L13.0607 11.0251C13.4512 10.6346 14.0844 10.6346 14.4749 11.0251C14.8654 11.4157 14.8654 12.0488 14.4749 12.4393L13.4142 13.5L14.4749 14.5607C14.8654 14.9512 14.8654 15.5844 14.4749 15.9749C14.0844 16.3654 13.4512 16.3654 13.0607 15.9749L12 14.9142L10.9393 15.9749C10.5488 16.3654 9.91566 16.3654 9.52513 15.9749C9.13461 15.5844 9.13461 14.9512 9.52513 14.5607L10.5858 13.5L9.52513 12.4393C9.13461 12.0488 9.13461 11.4157 9.52513 11.0251Z" fill="currentColor"/>
</svg>
