<svg width="24" height="24" viewBox="0 0 24 24" fill="none" xmlns="http://www.w3.org/2000/svg">
<path fill-rule="evenodd" clip-rule="evenodd" d="M5 5C4.44772 5 4 5.44772 4 6V16C4 17.6569 5.34315 19 7 19H17C18.6569 19 20 17.6569 20 16V11C20 9.34315 18.6569 8 17 8H13.0704C12.0673 8 11.1306 7.4987 10.5742 6.6641L9.76168 5.4453C9.57622 5.1671 9.26399 5 8.92963 5H5ZM2 6C2 4.34315 3.34315 3 5 3H8.92963C9.93269 3 10.8694 3.5013 11.4258 4.3359L12.2383 5.5547C12.4238 5.8329 12.736 6 13.0704 6H17C19.7614 6 22 8.23858 22 11V16C22 18.7614 19.7614 21 17 21H7C4.23858 21 2 18.7614 2 16V6ZM11.2071 10.7929C11.5976 11.1834 11.5976 11.8166 11.2071 12.2071L9.91421 13.5L11.2071 14.7929C11.5976 15.1834 11.5976 15.8166 11.2071 16.2071C10.8166 16.5976 10.1834 16.5976 9.79289 16.2071L7.79289 14.2071C7.40237 13.8166 7.40237 13.1834 7.79289 12.7929L9.79289 10.7929C10.1834 10.4024 10.8166 10.4024 11.2071 10.7929ZM12.7929 10.7929C13.1834 10.4024 13.8166 10.4024 14.2071 10.7929L16.2071 12.7929C16.5976 13.1834 16.5976 13.8166 16.2071 14.2071L14.2071 16.2071C13.8166 16.5976 13.1834 16.5976 12.7929 16.2071C12.4024 15.8166 12.4024 15.1834 12.7929 14.7929L14.0858 13.5L12.7929 12.2071C12.4024 11.8166 12.4024 11.1834 12.7929 10.7929Z" fill="currentColor"/>
</svg>
