<svg width="24" height="24" viewBox="0 0 24 24" fill="none" xmlns="http://www.w3.org/2000/svg">
<path fill-rule="evenodd" clip-rule="evenodd" d="M2 6C2 4.34315 3.34315 3 5 3H8.92963C9.93269 3 10.8694 3.5013 11.4258 4.3359L12.2383 5.5547C12.4238 5.8329 12.736 6 13.0704 6H17C19.7614 6 22 8.23858 22 11V16C22 18.7614 19.7614 21 17 21H10C9.44772 21 9 20.5523 9 20C9 19.4477 9.44772 19 10 19H17C18.6569 19 20 17.6569 20 16V11C20 9.34315 18.6569 8 17 8H13.0704C12.0673 8 11.1306 7.4987 10.5742 6.6641L9.76168 5.4453L10.5637 4.91065L9.76168 5.4453C9.57622 5.1671 9.26399 5 8.92963 5H5C4.44772 5 4 5.44772 4 6V14C4 14.5523 3.55228 15 3 15C2.44772 15 2 14.5523 2 14V6ZM11.261 11.739C10.2757 10.7537 8.67824 10.7537 7.69294 11.739C6.70764 12.7243 6.70764 14.3218 7.69294 15.3071C8.67824 16.2924 10.2757 16.2924 11.261 15.3071C12.2463 14.3218 12.2463 12.7243 11.261 11.739ZM6.27873 10.3248C8.04508 8.55841 10.9089 8.55841 12.6752 10.3248C14.4416 12.0911 14.4416 14.9549 12.6752 16.7213C11.1519 18.2446 8.81222 18.4542 7.06427 17.3499L3.70711 20.7071C3.31658 21.0976 2.68342 21.0976 2.29289 20.7071C1.90237 20.3166 1.90237 19.6834 2.29289 19.2929L5.65006 15.9357C4.54581 14.1878 4.75537 11.8481 6.27873 10.3248Z" fill="currentColor"/>
</svg>
